<svg class="place-icon" width="45" height="45" viewBox="0 0 45 45" fill="none" xmlns="http://www.w3.org/2000/svg">
<rect width="45" height="45" rx="3" fill="#EDE5D4"/>
<path d="M2.5 0C2.5 0 0 0 0 2.5V23L24.5 0H2.5Z" fill="#A3C8AD"/>
<path d="M42.449 45C42.449 45 45 45 45 42.5L45 22L20 45L42.449 45Z" fill="#A3C8AD"/>
<path d="M22.9998 11.1666C18.8128 11.1666 15.4165 14.5629 15.4165 18.75C15.4165 24.4375 22.9998 32.8333 22.9998 32.8333C22.9998 32.8333 30.5832 24.4375 30.5832 18.75C30.5832 14.5629 27.1869 11.1666 22.9998 11.1666ZM22.9998 21.4583C21.5048 21.4583 20.2915 20.245 20.2915 18.75C20.2915 17.255 21.5048 16.0416 22.9998 16.0416C24.4948 16.0416 25.7082 17.255 25.7082 18.75C25.7082 20.245 24.4948 21.4583 22.9998 21.4583Z" fill="#D13333"/>
<circle cx="23" cy="19" r="4" fill="#D13333"/>
<path d="M23 24C25.7569 24 28 21.7569 28 19C28 16.2431 25.7569 14 23 14C20.2431 14 18 16.2431 18 19C18 21.7569 20.2431 24 23 24ZM20.5 18.1667H22.1667V16.5H23.8333V18.1667H25.5V19.8333H23.8333V21.5H22.1667V19.8333H20.5V18.1667Z" fill="white"/>
<rect x="18" y="32" width="10" height="1" fill="#D13333"/>
</svg>
