<?xml version="1.0" encoding="utf-8"?>
<svg version="1.1" id="Layer_1" xmlns="http://www.w3.org/2000/svg" xmlns:xlink="http://www.w3.org/1999/xlink" x="0px" y="0px"
	 viewBox="0 0 144.6 144.6" style="enable-background:new 0 0 144.6 144.6;" xml:space="preserve">
<style type="text/css">
	.st0{fill:#FFFFFF;}
	.st1{fill:#1A1A1A;}
	.st2{fill-rule:evenodd;clip-rule:evenodd;fill:#009DEA;}
	.st3{fill-rule:evenodd;clip-rule:evenodd;fill:#1A1A1A;}
</style>
<circle class="st0" cx="72.3" cy="70.8" r="70.6"/>
<path class="st1" d="M33.7,81.3c2.3,2.3,5.1,3.5,8.4,3.5c3.3,0,6.1-1.2,8.4-3.5c2.3-2.3,3.4-5.1,3.4-8.5c0-3.3-1.1-6.1-3.4-8.5
	c-2.3-2.3-5.1-3.5-8.4-3.5c-3.3,0-6.1,1.2-8.4,3.5c-2.3,2.3-3.4,5.1-3.4,8.5C30.3,76.2,31.5,79,33.7,81.3 M42.5,57.1
	c4.3,0,8,1.5,11,4.6c3,3,4.5,6.8,4.5,11.2c0,4.4-1.5,8.1-4.5,11.2c-3,3-6.7,4.6-11,4.6c-5.3,0-9.4-2.2-12.2-6.6v5.9h-4V45.8h4v17.9
	C33.1,59.3,37.1,57.1,42.5,57.1z"/>
<path class="st1" d="M99.5,65.7c0,1.3,0.6,2.4,1.8,3.2c1.2,0.8,2.7,1.4,4.4,1.9c1.7,0.5,3.4,1,5.2,1.5c1.7,0.5,3.2,1.4,4.4,2.7
	c1.2,1.3,1.8,3,1.8,5.1c0,2.6-1,4.7-3,6.3c-2,1.6-4.6,2.4-7.9,2.4c-2.9,0-5.3-0.6-7.4-1.9c-2-1.3-3.4-2.9-4.2-5l3.4-2
	c0.6,1.6,1.6,2.8,3,3.7c1.5,0.9,3.2,1.4,5.2,1.4c2,0,3.6-0.4,4.9-1.2c1.3-0.8,2-2,2-3.6c0-1.4-0.6-2.4-1.8-3.2
	c-1.2-0.8-2.7-1.5-4.4-1.9c-1.7-0.5-3.4-1-5.2-1.5c-1.7-0.5-3.2-1.4-4.4-2.6c-1.2-1.3-1.8-2.9-1.8-5c0-2.4,1-4.5,2.9-6.1
	c1.9-1.6,4.4-2.5,7.4-2.5c2.4,0,4.6,0.6,6.4,1.7c1.8,1.1,3.2,2.6,4.1,4.5l-3.3,1.9c-1.2-2.8-3.6-4.2-7.2-4.2c-1.7,0-3.2,0.4-4.5,1.2
	C100.2,63,99.5,64.2,99.5,65.7"/>
<path class="st2" d="M2.7,72.3c0-38.5,31.2-69.6,69.6-69.6c38.5,0,69.6,31.2,69.6,69.6c0,38.5-31.2,69.6-69.6,69.6
	C33.9,141.9,2.7,110.8,2.7,72.3 M72.3,0C32.4,0,0,32.4,0,72.3c0,39.9,32.4,72.3,72.3,72.3c39.9,0,72.3-32.4,72.3-72.3
	C144.6,32.4,112.3,0,72.3,0z"/>
<path class="st2" d="M85.4,81c-2.2,2.3-5.2,3.7-8.6,3.7c-3.4,0-6.5-1.4-8.6-3.7h-5c2.8,4.6,7.8,7.7,13.6,7.7
	c5.8,0,10.8-3.1,13.6-7.7H85.4z"/>
<path class="st3" d="M65,72.9c0-6.5,5.3-11.8,11.8-11.8c6.5,0,11.8,5.3,11.8,11.8c0,0.7-0.1,1.4-0.2,2h4c0.1-0.7,0.1-1.4,0.1-2
	c0-8.7-7.1-15.8-15.8-15.8C68,57.1,61,64.2,61,72.9c0,0.7,0,1.4,0.1,2h4C65,74.3,65,73.6,65,72.9"/>
<rect x="62.4" y="70.8" class="st3" width="28.7" height="4.1"/>
</svg>
