<svg width="50" height="25" viewBox="0 0 50 25" fill="none" xmlns="http://www.w3.org/2000/svg">
<path d="M39.2381 0C37.8108 0 36.6579 1.13722 36.6197 2.54737C36.6197 2.57187 36.6127 2.59286 36.6127 2.61735C36.6127 3.44315 37.0017 4.16747 37.599 4.65035L38.9672 7.32719C38.9672 7.32719 39.2381 7.85906 39.509 7.32719L40.8772 4.64685C41.4745 4.16747 41.86 3.43965 41.86 2.61735C41.86 1.17221 40.6862 0 39.2381 0ZM39.2381 4.53138C38.1789 4.53138 37.3212 3.67409 37.3212 2.61735C37.3212 1.56062 38.1789 0.706826 39.2381 0.706826C40.2973 0.706826 41.155 1.56411 41.155 2.61735C41.155 3.6706 40.2938 4.53138 39.2381 4.53138Z" fill="#EC642D"/>
<path d="M39.0471 2.4354H38.3143V2.80281H39.0471L39.0505 3.53063H39.436L39.4325 2.80281H40.1653V2.4354H39.4325V1.70758H39.0436L39.0471 2.4354Z" fill="white"/>
<path d="M39.686 3.77909H38.804L38.8005 3.05476H38.0643V2.18348H38.797L38.7936 1.45566H39.6826V2.18348H40.4153V3.05476H39.6826L39.686 3.77909Z" fill="white"/>
<path d="M0 5.26617V7.28868H3.91374V17.8841H6.09807V7.28868H10.0118V5.26617H0Z" fill="white"/>
<path d="M14.0888 13.8006C14.0888 15.2562 13.2241 16.1275 11.9913 16.1275C10.7237 16.1275 10.0014 15.2912 10.0014 13.8356V8.50991H7.86916V14.4759C7.86916 16.6594 9.0846 17.8911 11.1821 17.8911C12.6268 17.8911 13.4915 17.3172 14.0888 16.4285V17.8841H16.221V8.50641H14.0888V13.8006Z" fill="white"/>
<path d="M25.2153 13.1953C25.2153 15.0603 24.0172 16.215 22.5552 16.215C21.1106 16.215 19.8396 15.0253 19.8396 13.1953C19.8396 11.3652 21.1071 10.1755 22.5552 10.1755C24.0033 10.1755 25.2153 11.3477 25.2153 13.1953ZM27.3857 13.1953C27.3857 10.0706 25.2535 8.31049 23.0518 8.31049C21.5551 8.31049 20.5862 9.09079 19.8986 10.0671V8.50294H17.7664V20.7219H19.8986V16.4285C20.5515 17.2998 21.5204 17.8911 23.0518 17.8911C25.2709 17.8911 27.3857 16.32 27.3857 13.1953Z" fill="white"/>
<path d="M34.5985 14.4934C34.5985 15.6657 33.5428 16.4635 32.1294 16.4635C31.1258 16.4635 30.3306 15.9666 30.3306 15.0778V15.0428C30.3306 14.084 31.1224 13.5347 32.4628 13.5347C33.2928 13.5347 34.0498 13.6956 34.5951 13.9091L34.5985 14.4934ZM36.6613 17.8841V12.3275C36.6613 9.8221 35.3209 8.36646 32.5739 8.36646C31.0598 8.36646 30.0528 8.68488 29.0318 9.14676L29.6117 10.8683C30.4591 10.5149 31.2335 10.284 32.2718 10.284C33.7512 10.284 34.5638 10.9943 34.5638 12.289V12.5199C33.8415 12.289 33.1192 12.128 31.9905 12.128C29.8236 12.128 28.2192 13.1218 28.2192 15.1478V15.1828C28.2192 17.0653 29.7715 17.8876 31.5321 17.8876C32.9421 17.8876 33.9109 17.4922 34.5464 16.7259V17.8806L36.6613 17.8841Z" fill="white"/>
<path d="M40.3007 8.50989H38.1685V17.8876H40.3007V8.50989Z" fill="white"/>
<path d="M47.9407 14.4934C47.9407 15.6656 46.885 16.4634 45.4751 16.4634C44.4715 16.4634 43.6762 15.9665 43.6762 15.0778V15.0428C43.6762 14.084 44.468 13.5346 45.8085 13.5346C46.6384 13.5346 47.3955 13.6956 47.9407 13.9091V14.4934ZM50 17.8841V12.3274C50 9.82207 48.6595 8.36642 45.9126 8.36642C44.3985 8.36642 43.3915 8.68485 42.3705 9.14673L42.9539 10.8683C43.8012 10.5149 44.5756 10.284 45.614 10.284C47.0934 10.284 47.906 10.9943 47.906 12.289V12.5199C47.1836 12.289 46.4613 12.128 45.3327 12.128C43.1657 12.128 41.5613 13.1218 41.5613 15.1478V15.1827C41.5613 17.0653 43.1136 17.8876 44.8743 17.8876C46.2842 17.8876 47.2531 17.4922 47.8886 16.7259V17.8806L50 17.8841Z" fill="white"/>
<path fill-rule="evenodd" clip-rule="evenodd" d="M22.5697 24.9439H20.76V19.5596H22.6062C23.1365 19.5596 23.592 19.6674 23.9727 19.8829C24.3551 20.0968 24.6489 20.4044 24.8541 20.8058C25.0592 21.2071 25.1618 21.6874 25.1618 22.2465C25.1618 22.8074 25.0583 23.2894 24.8515 23.6925C24.6463 24.0956 24.3499 24.405 23.9622 24.6205C23.5763 24.8361 23.1121 24.9439 22.5697 24.9439ZM21.7275 24.1H22.5228C22.8948 24.1 23.2051 24.0316 23.4537 23.8949C23.7023 23.7565 23.8892 23.5505 24.0144 23.2771C24.1396 23.0019 24.2021 22.6584 24.2021 22.2465C24.2021 21.8346 24.1396 21.4928 24.0144 21.2211C23.8892 20.9477 23.7041 20.7435 23.459 20.6086C23.2156 20.4719 22.9131 20.4035 22.5515 20.4035H21.7275V24.1ZM31.6685 20.9057V21.6418H30.8784V23.7293C30.8784 23.8572 30.8975 23.9554 30.9358 24.0237C30.9757 24.0903 31.0279 24.1359 31.0922 24.1605C31.1565 24.185 31.2278 24.1973 31.306 24.1973C31.3652 24.1973 31.419 24.1929 31.4677 24.1841C31.5181 24.1753 31.5564 24.1675 31.5825 24.1605L31.7415 24.9045C31.6911 24.922 31.619 24.9413 31.5251 24.9623C31.433 24.9834 31.32 24.9956 31.1861 24.9991C30.9497 25.0061 30.7367 24.9702 30.5472 24.8913C30.3577 24.8107 30.2073 24.6863 30.0961 24.518C29.9866 24.3497 29.9327 24.1394 29.9344 23.887V21.6418H29.3659V20.9057H29.9344V19.9382H30.8784V20.9057H31.6685ZM35.5571 19.5596V20.3772H37.2078V24.9439H38.1674V20.3772H39.8181V19.5596H35.5571ZM39.8881 24.9439V20.9057H40.8034V21.5787H40.8452C40.9182 21.3456 41.0433 21.1659 41.2207 21.0397C41.3997 20.9118 41.604 20.8478 41.8335 20.8478C41.8856 20.8478 41.9439 20.8504 42.0082 20.8557C42.0742 20.8592 42.129 20.8653 42.1725 20.8741V21.7496C42.1325 21.7356 42.069 21.7233 41.9821 21.7128C41.8969 21.7005 41.8143 21.6944 41.7344 21.6944C41.5623 21.6944 41.4075 21.7321 41.2702 21.8074C41.1346 21.881 41.0277 21.9836 40.9495 22.115C40.8712 22.2465 40.8321 22.3981 40.8321 22.5699V24.9439H39.8881ZM47.301 23.5865V24.9439H46.3571V19.5596H47.301V22.5278H47.3662L48.8057 20.9057H49.9087L48.3559 22.6488L50 24.9439H48.8709L47.6445 23.2154L47.301 23.5865ZM27.108 24.3677C27.7328 24.3677 28.2006 24.0142 28.2006 23.4947V23.2357C27.959 23.1411 27.6235 23.0698 27.2557 23.0698C26.6617 23.0698 26.3108 23.3133 26.3108 23.7382V23.7537C26.3108 24.1475 26.6632 24.3677 27.108 24.3677ZM29.1132 22.5348V24.9973L28.1775 24.9958V24.484C27.8959 24.8236 27.4665 24.9989 26.8417 24.9989C26.0615 24.9989 25.3735 24.6345 25.3735 23.8002V23.7847C25.3735 22.8868 26.0845 22.4464 27.0449 22.4464C27.545 22.4464 27.8651 22.5178 28.1852 22.6201V22.5178C28.1852 21.944 27.8251 21.6292 27.1695 21.6292C26.7094 21.6292 26.3662 21.7316 25.9907 21.8882L25.7321 21.1252C26.1846 20.9205 26.6309 20.7794 27.3019 20.7794C28.5192 20.7794 29.1132 21.4245 29.1132 22.5348ZM34.0106 24.3677C34.6354 24.3677 35.1033 24.0142 35.1033 23.4947V23.2357C34.8616 23.1411 34.5261 23.0698 34.1583 23.0698C33.5643 23.0698 33.2134 23.3133 33.2134 23.7382V23.7537C33.2134 24.1475 33.5658 24.3677 34.0106 24.3677ZM36.0159 22.5348V24.9973L35.0802 24.9958V24.484C34.7985 24.8236 34.3692 24.9989 33.7443 24.9989C32.9641 24.9989 32.2762 24.6345 32.2762 23.8002V23.7847C32.2762 22.8868 32.9872 22.4464 33.9475 22.4464C34.4477 22.4464 34.7678 22.5178 35.0879 22.6201V22.5178C35.0879 21.944 34.7278 21.6292 34.0721 21.6292C33.612 21.6292 33.2688 21.7316 32.8933 21.8882L32.6347 21.1252C33.0872 20.9205 33.5335 20.7794 34.2045 20.7794C35.4218 20.7794 36.0159 21.4245 36.0159 22.5348ZM45.035 23.4947C45.035 24.0142 44.5671 24.3677 43.9423 24.3677C43.4975 24.3677 43.1451 24.1475 43.1451 23.7537V23.7382C43.1451 23.3133 43.496 23.0698 44.09 23.0698C44.4579 23.0698 44.7934 23.1411 45.035 23.2357V23.4947ZM45.9476 24.9973V22.5348C45.9476 21.4245 45.3535 20.7794 44.1362 20.7794C43.4652 20.7794 43.0189 20.9205 42.5665 21.1252L42.825 21.8882C43.2005 21.7316 43.5437 21.6292 44.0039 21.6292C44.6595 21.6292 45.0196 21.944 45.0196 22.5178V22.6201C44.6995 22.5178 44.3794 22.4464 43.8792 22.4464C42.9189 22.4464 42.2079 22.8868 42.2079 23.7847V23.8002C42.2079 24.6345 42.8958 24.9989 43.6761 24.9989C44.3009 24.9989 44.7303 24.8236 45.0119 24.484V24.9958L45.9476 24.9973Z" fill="white"/>
</svg>
