<svg width="84" height="42" viewBox="0 0 84 42" fill="none" xmlns="http://www.w3.org/2000/svg">
<path d="M65.9199 0C63.5221 0 61.5851 1.91053 61.5209 4.27959C61.5209 4.32073 61.5093 4.35601 61.5093 4.39716C61.5093 5.78449 62.1627 7.00135 63.1662 7.81259L65.4648 12.3097C65.4648 12.3097 65.9199 13.2032 66.375 12.3097L68.6736 7.80672C69.6771 7.00135 70.3247 5.77862 70.3247 4.39716C70.3247 1.96931 68.3527 0 65.9199 0ZM65.9199 7.61272C64.1405 7.61272 62.6994 6.17248 62.6994 4.39716C62.6994 2.62183 64.1405 1.18747 65.9199 1.18747C67.6993 1.18747 69.1403 2.62771 69.1403 4.39716C69.1403 6.1666 67.6935 7.61272 65.9199 7.61272Z" fill="#EC642D"/>
<path d="M65.5992 4.09151H64.3682V4.70876H65.5992L65.605 5.9315H66.2526L66.2468 4.70876H67.4778V4.09151H66.2468V2.86877H65.5933L65.5992 4.09151Z" fill="white"/>
<path d="M66.6728 6.34879H65.1909L65.1851 5.13193H63.9482V3.66817H65.1793L65.1734 2.44543H66.667V3.66817H67.898V5.13193H66.667L66.6728 6.34879Z" fill="#2E2F33"/>
<path d="M0 8.84717V12.245H6.57508V30.0452H10.2448V12.245H16.8198V8.84717H0Z" fill="#2E2F33"/>
<path d="M23.6692 23.185C23.6692 25.6305 22.2165 27.0943 20.1453 27.0943C18.0159 27.0943 16.8024 25.6893 16.8024 23.2438V14.2967H13.2202V24.3196C13.2202 27.9878 15.2622 30.057 18.786 30.057C21.213 30.057 22.6657 29.093 23.6692 27.5998V30.0453H27.2513V14.2908H23.6692V23.185Z" fill="#2E2F33"/>
<path d="M42.3619 22.168C42.3619 25.3013 40.3491 27.2412 37.8929 27.2412C35.4659 27.2412 33.3306 25.2425 33.3306 22.168C33.3306 19.0935 35.4601 17.0948 37.8929 17.0948C40.3258 17.0948 42.3619 19.0641 42.3619 22.168ZM46.0082 22.168C46.0082 16.9185 42.4261 13.9615 38.7272 13.9615C36.2127 13.9615 34.585 15.2725 33.4298 16.9126V14.2849H29.8477V34.8128H33.4298V27.5998C34.5266 29.0635 36.1544 30.057 38.7272 30.057C42.4552 30.057 46.0082 27.4175 46.0082 22.168Z" fill="#2E2F33"/>
<path d="M58.1255 24.349C58.1255 26.3183 56.3519 27.6586 53.9774 27.6586C52.2914 27.6586 50.9554 26.8239 50.9554 25.3307V25.2719C50.9554 23.6612 52.2855 22.7383 54.5375 22.7383C55.9319 22.7383 57.2037 23.0087 58.1197 23.3673L58.1255 24.349ZM61.591 30.0453V20.7102C61.591 16.5011 59.339 14.0557 54.7242 14.0557C52.1805 14.0557 50.4886 14.5906 48.7734 15.3666L49.7477 18.2588C51.1712 17.6651 52.4722 17.2771 54.2166 17.2771C56.702 17.2771 58.0672 18.4705 58.0672 20.6455V21.0335C56.8537 20.6455 55.6402 20.3751 53.7441 20.3751C50.1036 20.3751 47.4082 22.0446 47.4082 25.4483V25.5071C47.4082 28.6697 50.0161 30.0512 52.974 30.0512C55.3426 30.0512 56.9704 29.3869 58.038 28.0995V30.0394L61.591 30.0453Z" fill="#2E2F33"/>
<path d="M67.7052 14.2966H64.123V30.0511H67.7052V14.2966Z" fill="#2E2F33"/>
<path d="M80.5406 24.349C80.5406 26.3183 78.767 27.6586 76.3983 27.6586C74.7122 27.6586 73.3762 26.8239 73.3762 25.3307V25.2719C73.3762 23.6612 74.7064 22.7383 76.9584 22.7383C78.3528 22.7383 79.6246 23.0087 80.5406 23.3673V24.349ZM84.0002 30.0453V20.7102C84.0002 16.5011 81.7482 14.0557 77.1334 14.0557C74.5897 14.0557 72.8978 14.5906 71.1826 15.3666L72.1627 18.2588C73.5863 17.6651 74.8873 17.2771 76.6317 17.2771C79.117 17.2771 80.4822 18.4705 80.4822 20.6455V21.0335C79.2687 20.6455 78.0552 20.3751 76.1591 20.3751C72.5186 20.3751 69.8232 22.0446 69.8232 25.4483V25.5071C69.8232 28.6697 72.4311 30.0512 75.389 30.0512C77.7577 30.0512 79.3854 29.3869 80.453 28.0995V30.0394L84.0002 30.0453Z" fill="#2E2F33"/>
<path fill-rule="evenodd" clip-rule="evenodd" d="M37.9173 41.9058H34.877V32.8601H37.9786C38.8694 32.8601 39.6346 33.0412 40.2742 33.4034C40.9168 33.7626 41.4103 34.2794 41.755 34.9537C42.0996 35.628 42.2719 36.4348 42.2719 37.3741C42.2719 38.3164 42.0981 39.1261 41.7506 39.8034C41.406 40.4806 40.908 41.0004 40.2567 41.3625C39.6083 41.7247 38.8285 41.9058 37.9173 41.9058ZM36.5023 40.488H37.8384C38.4635 40.488 38.9848 40.3732 39.4024 40.1435C39.8201 39.9109 40.134 39.5649 40.3443 39.1055C40.5546 38.6432 40.6597 38.0661 40.6597 37.3741C40.6597 36.6822 40.5546 36.108 40.3443 35.6516C40.134 35.1922 39.823 34.8492 39.4112 34.6224C39.0023 34.3928 38.4941 34.2779 37.8866 34.2779H36.5023V40.488ZM53.2032 35.1215V36.3583H51.8758V39.8652C51.8758 40.0802 51.908 40.2451 51.9722 40.3599C52.0394 40.4718 52.127 40.5484 52.2351 40.5896C52.3431 40.6308 52.4629 40.6514 52.5943 40.6514C52.6936 40.6514 52.7841 40.6441 52.8659 40.6293C52.9506 40.6146 53.0149 40.6014 53.0587 40.5896L53.3259 41.8396C53.2412 41.869 53.12 41.9014 52.9623 41.9367C52.8075 41.9721 52.6177 41.9927 52.3928 41.9986C51.9956 42.0103 51.6378 41.95 51.3195 41.8175C51.0011 41.682 50.7485 41.473 50.5616 41.1903C50.3776 40.9076 50.287 40.5543 50.2899 40.1302V36.3583H49.3349V35.1215H50.2899V33.4961H51.8758V35.1215H53.2032ZM59.7361 32.8601V34.2337H62.5092V41.9058H64.1214V34.2337H66.8945V32.8601H59.7361ZM67.0122 41.9058V35.1215H68.5499V36.2522H68.62C68.7427 35.8606 68.9529 35.5588 69.2509 35.3468C69.5517 35.1318 69.8948 35.0244 70.2804 35.0244C70.368 35.0244 70.4658 35.0288 70.5739 35.0376C70.6849 35.0435 70.7769 35.0538 70.8499 35.0685V36.5393C70.7827 36.5158 70.6761 36.4952 70.5301 36.4775C70.387 36.4569 70.2482 36.4466 70.1139 36.4466C69.8247 36.4466 69.5648 36.5099 69.3341 36.6365C69.1063 36.7602 68.9267 36.9324 68.7952 37.1533C68.6638 37.3741 68.5981 37.6288 68.5981 37.9174V41.9058H67.0122ZM79.4659 39.6254V41.9058H77.88V32.8601H79.4659V37.8467H79.5754L81.9937 35.1215H83.8468L81.238 38.05L84.0001 41.9058H82.1032L80.0429 39.0018L79.4659 39.6254ZM45.5415 40.9378C46.5912 40.9378 47.3772 40.3438 47.3772 39.4711V39.0361C46.9713 38.8771 46.4076 38.7573 45.7897 38.7573C44.7917 38.7573 44.2022 39.1663 44.2022 39.8801V39.9062C44.2022 40.5679 44.7943 40.9378 45.5415 40.9378ZM48.9104 37.8585V41.9955L47.3384 41.9929V41.1332C46.8653 41.7037 46.1439 41.9981 45.0942 41.9981C43.7834 41.9981 42.6277 41.3859 42.6277 39.9843V39.9583C42.6277 38.4499 43.8222 37.71 45.4355 37.71C46.2758 37.71 46.8136 37.8299 47.3513 38.0018V37.8299C47.3513 36.866 46.7463 36.3371 45.6449 36.3371C44.8719 36.3371 44.2953 36.509 43.6644 36.7722L43.2301 35.4904C43.9902 35.1465 44.74 34.9095 45.8673 34.9095C47.9124 34.9095 48.9104 35.9932 48.9104 37.8585ZM57.1379 40.9378C58.1876 40.9378 58.9736 40.3438 58.9736 39.4711V39.0361C58.5677 38.8771 58.0041 38.7573 57.3861 38.7573C56.3881 38.7573 55.7986 39.1663 55.7986 39.8801V39.9062C55.7986 40.5679 56.3907 40.9378 57.1379 40.9378ZM60.5068 37.8585V41.9955L58.9348 41.9929V41.1332C58.4617 41.7037 57.7403 41.9981 56.6906 41.9981C55.3798 41.9981 54.2241 41.3859 54.2241 39.9843V39.9583C54.2241 38.4499 55.4186 37.71 57.0319 37.71C57.8722 37.71 58.41 37.8299 58.9478 38.0018V37.8299C58.9478 36.866 58.3428 36.3371 57.2413 36.3371C56.4683 36.3371 55.8917 36.509 55.2609 36.7722L54.8265 35.4904C55.5866 35.1465 56.3364 34.9095 57.4637 34.9095C59.5088 34.9095 60.5068 35.9932 60.5068 37.8585ZM75.6589 39.4711C75.6589 40.3438 74.8729 40.9378 73.8232 40.9378C73.076 40.9378 72.4839 40.5679 72.4839 39.9062V39.8801C72.4839 39.1663 73.0734 38.7573 74.0714 38.7573C74.6893 38.7573 75.253 38.8771 75.6589 39.0361V39.4711ZM77.1921 41.9955V37.8585C77.1921 35.9932 76.1941 34.9095 74.149 34.9095C73.0217 34.9095 72.2719 35.1465 71.5118 35.4904L71.9461 36.7722C72.577 36.509 73.1536 36.3371 73.9266 36.3371C75.028 36.3371 75.633 36.866 75.633 37.8299V38.0018C75.0952 37.8299 74.5575 37.71 73.7172 37.71C72.1038 37.71 70.9094 38.4499 70.9094 39.9583V39.9843C70.9094 41.3859 72.0651 41.9981 73.3759 41.9981C74.4256 41.9981 75.147 41.7037 75.6201 41.1332V41.9929L77.1921 41.9955Z" fill="#2E2F33"/>
</svg>
