<svg width="143" height="71" viewBox="0 0 143 71" fill="none" xmlns="http://www.w3.org/2000/svg">
<path d="M112.221 0C108.139 0 104.842 3.22598 104.732 7.2262C104.732 7.29568 104.712 7.35524 104.712 7.42472C104.712 9.76728 105.825 11.822 107.533 13.1918L111.446 20.7852C111.446 20.7852 112.221 22.294 112.996 20.7852L116.909 13.1819C118.617 11.822 119.72 9.75735 119.72 7.42472C119.72 3.32524 116.363 0 112.221 0ZM112.221 12.8543C109.192 12.8543 106.739 10.4224 106.739 7.42472C106.739 4.42704 109.192 2.00507 112.221 2.00507C115.25 2.00507 117.703 4.43697 117.703 7.42472C117.703 10.4125 115.24 12.8543 112.221 12.8543Z" fill="#EC642D"/>
<path d="M111.675 6.90856H109.579V7.9508H111.675L111.685 10.0154H112.787L112.777 7.9508H114.873V6.90856H112.777V4.84393H111.665L111.675 6.90856Z" fill="white"/>
<path d="M113.502 10.7202H110.979L110.969 8.6655H108.864V6.1939H110.96L110.95 4.12927H113.492V6.1939H115.588V8.6655H113.492L113.502 10.7202Z" fill="black"/>
<path d="M0 14.9387V20.676H11.1933V50.7322H17.4405V20.676H28.6338V14.9387H0Z" fill="#010101"/>
<path d="M40.2939 39.1485C40.2939 43.2777 37.8208 45.7493 34.295 45.7493C30.6698 45.7493 28.604 43.377 28.604 39.2478V24.1402H22.5058V41.0642C22.5058 47.2581 25.982 50.7521 31.9809 50.7521C36.1125 50.7521 38.5856 49.1242 40.2939 46.603V50.7322H46.3921V24.1303H40.2939V39.1485Z" fill="#010101"/>
<path d="M72.1158 37.4314C72.1158 42.722 68.6893 45.9976 64.508 45.9976C60.3763 45.9976 56.7412 42.6227 56.7412 37.4314C56.7412 32.24 60.3663 28.8651 64.508 28.8651C68.6496 28.8651 72.1158 32.1904 72.1158 37.4314ZM78.3233 37.4314C78.3233 28.5673 72.2251 23.5745 65.9282 23.5745C61.6476 23.5745 58.8766 25.788 56.91 28.5574V24.1205H50.8118V58.7824H56.91V46.6031C58.7772 49.0747 61.5483 50.7522 65.9282 50.7522C72.2747 50.7522 78.3233 46.2954 78.3233 37.4314Z" fill="#010101"/>
<path d="M98.9518 41.1139C98.9518 44.4391 95.9325 46.7023 91.8902 46.7023C89.0199 46.7023 86.7455 45.2928 86.7455 42.7715V42.6723C86.7455 39.9525 89.0099 38.3941 92.8437 38.3941C95.2174 38.3941 97.3826 38.8507 98.9419 39.4562L98.9518 41.1139ZM104.851 50.7323V34.9696C104.851 27.8625 101.018 23.7333 93.1615 23.7333C88.8312 23.7333 85.9509 24.6366 83.0309 25.9468L84.6895 30.8304C87.1129 29.8279 89.3278 29.1728 92.2974 29.1728C96.5284 29.1728 98.8525 31.1878 98.8525 34.8604V35.5156C96.7866 34.8604 94.7208 34.4038 91.4929 34.4038C85.2954 34.4038 80.7068 37.2228 80.7068 42.9701V43.0693C80.7068 48.4095 85.1464 50.7422 90.1819 50.7422C94.2143 50.7422 96.9853 49.6205 98.8028 47.4467V50.7223L104.851 50.7323Z" fill="#010101"/>
<path d="M115.26 24.1403H109.162V50.7422H115.26V24.1403Z" fill="#010101"/>
<path d="M137.11 41.1139C137.11 44.4391 134.091 46.7023 130.059 46.7023C127.188 46.7023 124.914 45.2928 124.914 42.7715V42.6723C124.914 39.9525 127.178 38.3941 131.012 38.3941C133.386 38.3941 135.551 38.8507 137.11 39.4562V41.1139ZM143 50.7323V34.9696C143 27.8625 139.166 23.7333 131.31 23.7333C126.98 23.7333 124.1 24.6366 121.18 25.9468L122.848 30.8304C125.272 29.8279 127.486 29.1728 130.456 29.1728C134.687 29.1728 137.011 31.1878 137.011 34.8604V35.5156C134.945 34.8604 132.879 34.4038 129.651 34.4038C123.454 34.4038 118.865 37.2228 118.865 42.9701V43.0693C118.865 48.4095 123.305 50.7422 128.34 50.7422C132.373 50.7422 135.144 49.6205 136.961 47.4467V50.7223L143 50.7323Z" fill="#010101"/>
<path fill-rule="evenodd" clip-rule="evenodd" d="M64.5494 70.7592H59.3736V55.4852H64.6538C66.1703 55.4852 67.473 55.791 68.5618 56.4026C69.6557 57.0091 70.4959 57.8817 71.0826 59.0203C71.6693 60.1589 71.9626 61.5212 71.9626 63.1073C71.9626 64.6983 71.6668 66.0656 71.0752 67.2092C70.4885 68.3527 69.6407 69.2303 68.532 69.8418C67.4282 70.4534 66.1007 70.7592 64.5494 70.7592ZM62.1405 68.3651H64.4152C65.4792 68.3651 66.3667 68.1712 67.0777 67.7834C67.7887 67.3906 68.3232 66.8064 68.6811 66.0308C69.0391 65.2502 69.2181 64.2757 69.2181 63.1073C69.2181 61.9389 69.0391 60.9693 68.6811 60.1987C68.3232 59.423 67.7936 58.8438 67.0926 58.461C66.3965 58.0731 65.5314 57.8792 64.4972 57.8792H62.1405V68.3651ZM90.5719 59.3037V61.3919H88.3122V67.3136C88.3122 67.6765 88.3668 67.955 88.4762 68.1489C88.5906 68.3378 88.7397 68.4671 88.9237 68.5367C89.1077 68.6063 89.3115 68.6411 89.5353 68.6411C89.7043 68.6411 89.8584 68.6287 89.9977 68.6038C90.1418 68.5789 90.2512 68.5566 90.3258 68.5367L90.7807 70.6473C90.6366 70.697 90.4302 70.7517 90.1617 70.8114C89.8982 70.871 89.575 70.9058 89.1922 70.9158C88.516 70.9357 87.9069 70.8337 87.365 70.61C86.8231 70.3813 86.393 70.0283 86.0748 69.551C85.7615 69.0737 85.6074 68.477 85.6124 67.761V61.3919H83.9865V59.3037H85.6124V56.5592H88.3122V59.3037H90.5719ZM101.693 55.4852V57.8047H106.414V70.7592H109.159V57.8047H113.88V55.4852H101.693ZM114.08 70.7592V59.3037H116.698V61.213H116.817C117.026 60.5517 117.384 60.042 117.891 59.6841C118.403 59.3211 118.987 59.1396 119.644 59.1396C119.793 59.1396 119.959 59.1471 120.143 59.162C120.332 59.172 120.489 59.1894 120.613 59.2142V61.6977C120.499 61.6579 120.317 61.6231 120.069 61.5933C119.825 61.5585 119.589 61.5411 119.36 61.5411C118.868 61.5411 118.426 61.648 118.033 61.8618C117.645 62.0706 117.339 62.3615 117.115 62.7344C116.892 63.1073 116.78 63.5374 116.78 64.0246V70.7592H114.08ZM135.281 66.9086V70.7592H132.581V55.4852H135.281V63.9053H135.467L139.584 59.3037H142.739L138.298 64.2485L143 70.7592H139.771L136.263 65.8557L135.281 66.9086ZM77.5287 69.1247C79.3157 69.1247 80.6538 68.1217 80.6538 66.6481V65.9135C79.9627 65.6452 79.0032 65.4428 77.9513 65.4428C76.2523 65.4428 75.2488 66.1334 75.2488 67.3387V67.3827C75.2488 68.5 76.2567 69.1247 77.5287 69.1247ZM83.2638 63.9252V70.9106L80.5877 70.9062V69.4546C79.7823 70.4179 78.5543 70.915 76.7673 70.915C74.5357 70.915 72.5683 69.8813 72.5683 67.5147V67.4707C72.5683 64.9237 74.6017 63.6744 77.3483 63.6744C78.7787 63.6744 79.6942 63.8768 80.6098 64.1671V63.8768C80.6098 62.2492 79.5798 61.3562 77.7048 61.3562C76.3887 61.3562 75.4072 61.6466 74.3333 62.0908L73.5938 59.9266C74.8878 59.3459 76.1643 58.9456 78.0833 58.9456C81.5649 58.9456 83.2638 60.7756 83.2638 63.9252ZM97.2703 69.1247C99.0572 69.1247 100.395 68.1217 100.395 66.6481V65.9135C99.7043 65.6452 98.7447 65.4428 97.6928 65.4428C95.9938 65.4428 94.9903 66.1334 94.9903 67.3387V67.3827C94.9903 68.5 95.9982 69.1247 97.2703 69.1247ZM103.005 63.9252V70.9106L100.329 70.9062V69.4546C99.5238 70.4179 98.2958 70.915 96.5088 70.915C94.2773 70.915 92.3098 69.8813 92.3098 67.5147V67.4707C92.3098 64.9237 94.3433 63.6744 97.0898 63.6744C98.5203 63.6744 99.4358 63.8768 100.351 64.1671V63.8768C100.351 62.2492 99.3213 61.3562 97.4463 61.3562C96.1303 61.3562 95.1487 61.6466 94.0748 62.0908L93.3353 59.9266C94.6294 59.3459 95.9058 58.9456 97.8248 58.9456C101.306 58.9456 103.005 60.7756 103.005 63.9252ZM128.8 66.6481C128.8 68.1217 127.462 69.1247 125.675 69.1247C124.403 69.1247 123.395 68.5 123.395 67.3827V67.3387C123.395 66.1334 124.399 65.4428 126.097 65.4428C127.149 65.4428 128.109 65.6452 128.8 65.9135V66.6481ZM131.41 70.9106V63.9252C131.41 60.7756 129.711 58.9456 126.23 58.9456C124.31 58.9456 123.034 59.3459 121.74 59.9266L122.479 62.0908C123.553 61.6466 124.535 61.3562 125.851 61.3562C127.726 61.3562 128.756 62.2492 128.756 63.8768V64.1671C127.84 63.8768 126.925 63.6744 125.494 63.6744C122.748 63.6744 120.714 64.9237 120.714 67.4707V67.5147C120.714 69.8813 122.682 70.915 124.913 70.915C126.7 70.915 127.928 70.4179 128.734 69.4546V70.9062L131.41 70.9106Z" fill="#010101"/>
</svg>
