<svg xmlns="http://www.w3.org/2000/svg" width="15" height="21" viewBox="0 0 15 21" fill="none">
<path d="M7.50496 0C3.42488 0 0.12905 3.15745 0.0198511 7.07268C0.0198511 7.14069 0 7.19898 0 7.26699C0 9.55978 1.11184 11.5708 2.81932 12.9115L6.73064 20.3437C6.73064 20.3437 7.50496 21.8204 8.27928 20.3437L12.1906 12.9018C13.8981 11.5708 15 9.55007 15 7.26699C15 3.2546 11.6446 0 7.50496 0ZM7.50496 12.5812C4.47716 12.5812 2.02515 10.201 2.02515 7.26699C2.02515 4.33299 4.47716 1.96248 7.50496 1.96248C10.5328 1.96248 12.9848 4.34271 12.9848 7.26699C12.9848 10.1913 10.5228 12.5812 7.50496 12.5812Z" fill="#EC642D"/>
<path d="M6.95877 6.76171H4.86414V7.78181H6.95877L6.96869 9.80258H8.07061L8.06069 7.78181H10.1553V6.76171H8.06069V4.74095H6.94884L6.95877 6.76171Z" fill="white"/>
<path d="M8.78543 10.4927H6.26391L6.25399 8.48165H4.14941V6.06256H6.24406L6.23413 4.04179H8.7755V6.06256H10.8701V8.48165H8.7755L8.78543 10.4927Z" fill="#2E2F33"/>
</svg>
