<svg width="58" height="53" viewBox="0 0 58 53" fill="none" xmlns="http://www.w3.org/2000/svg">
<path d="M14.2814 25.0088H27.1679V13.2332H14.2814V25.0088ZM16.8914 15.6179H24.5579V22.6235H16.8914V15.6179ZM43.3191 39.7673H29.4197V36.0209H32.0297V37.3827H35.0655V36.0209H37.6755V37.3827H40.7092V36.0209H43.3192L43.3194 39.7673H43.3191ZM32.0297 33.1814H29.4197V27.0669H38.6939V29.4519H32.0297V33.1814ZM49.88 12.3385V21.581H47.27V12.3385C47.27 10.9424 46.0259 9.80639 44.4968 9.80639H34.3824V7.42139H44.4968C47.4648 7.42139 49.88 9.62721 49.88 12.3385ZM10.73 21.581H8.11996V12.3385C8.11996 9.62715 10.5351 7.42142 13.5031 7.42142H23.6176V9.80642H13.5031C11.9741 9.80642 10.73 10.9421 10.73 12.3385V21.581ZM13.5031 43.1938H23.6176V45.5788H13.5031C10.5351 45.5788 8.11996 43.3722 8.11996 40.6597V31.4192H10.73V40.6597C10.73 42.0573 11.9741 43.1938 13.5031 43.1938ZM47.27 31.4192H49.88V40.6597C49.88 43.3722 47.4648 45.5788 44.4968 45.5788H34.3824V43.1938H44.4968C46.0259 43.1938 47.27 42.0569 47.27 40.6597V31.4192ZM14.2814 39.767H27.1679V27.9917H14.2814V39.767ZM16.8914 30.3764H24.5579V37.382H16.8914V30.3764ZM43.3191 13.2329H30.4326V25.0085H43.3191V13.2329ZM40.7091 22.6235H33.0426V15.6175H40.7091V22.6235ZM34.0449 31.9886H43.3191V34.3736H34.0449V31.9886ZM43.3191 29.6203H40.7091V27.0659H43.3191V29.6203ZM19.4807 32.7427H21.9685V35.016H19.4807V32.7427ZM19.4807 17.9839H21.9685V20.2572H19.4807V17.9839ZM38.1197 20.2572H35.6319V17.9839H38.1197V20.2572Z" fill="#2E2F33"/>
</svg>
