<svg width="343" height="343" viewBox="0 0 343 343" fill="none" xmlns="http://www.w3.org/2000/svg">
<path d="M226.723 32.7224C226.723 32.7224 171.706 12.211 118.266 43.081C64.8956 73.951 38.4846 136.24 15.8466 186.112C-6.86002 235.984 7.20299 287.16 48.5688 310.964C89.9346 334.768 117.443 300.811 174.999 299.851C232.554 298.89 248.195 307.465 295.529 275.018C342.931 242.501 350.615 164.503 312.13 106.193C273.714 47.8144 226.723 32.7224 226.723 32.7224Z" fill="#EC642D"/>
<path opacity="0.7" d="M226.723 32.7224C226.723 32.7224 171.706 12.211 118.266 43.081C64.8956 73.951 38.4846 136.24 15.8466 186.112C-6.86002 235.984 7.20299 287.16 48.5688 310.964C89.9346 334.768 117.443 300.811 174.999 299.851C232.554 298.89 248.195 307.465 295.529 275.018C342.931 242.501 350.615 164.503 312.13 106.193C273.714 47.8144 226.723 32.7224 226.723 32.7224Z" fill="white"/>
<path d="M114.631 170.333L88.0138 184.808" stroke="#263238" stroke-width="3" stroke-miterlimit="10" stroke-linecap="round" stroke-linejoin="round"/>
<path d="M64.141 91.2378L92.6786 102.488" stroke="#263238" stroke-width="3" stroke-miterlimit="10" stroke-linecap="round" stroke-linejoin="round"/>
<path d="M98.3038 27.6455L116.551 57.1435" stroke="#263238" stroke-width="3" stroke-miterlimit="10" stroke-linecap="round" stroke-linejoin="round"/>
<path d="M160.455 14.543L159.564 37.9356" stroke="#263238" stroke-width="3" stroke-miterlimit="10" stroke-linecap="round" stroke-linejoin="round"/>
<path d="M213.826 70.2463L237.63 46.3735" stroke="#263238" stroke-width="3" stroke-miterlimit="10" stroke-linecap="round" stroke-linejoin="round"/>
<path d="M247.029 118.403L267.609 111.406" stroke="#263238" stroke-width="3" stroke-miterlimit="10" stroke-linecap="round" stroke-linejoin="round"/>
<path d="M227.34 170.745L244.696 180.624" stroke="#263238" stroke-width="3" stroke-miterlimit="10" stroke-linecap="round" stroke-linejoin="round"/>
<path d="M92.1984 69.7661L106.261 80.5363" stroke="#263238" stroke-width="3" stroke-miterlimit="10" stroke-linecap="round" stroke-linejoin="round"/>
<path d="M243.256 89.8657L228.301 96.8629" stroke="#263238" stroke-width="3" stroke-miterlimit="10" stroke-linecap="round" stroke-linejoin="round"/>
<path d="M97.3434 140.835L81.4282 145.5" stroke="#263238" stroke-width="3" stroke-miterlimit="10" stroke-linecap="round" stroke-linejoin="round"/>
<path d="M233.926 146.941L241.403 148.793" stroke="#263238" stroke-width="3" stroke-miterlimit="10" stroke-linecap="round" stroke-linejoin="round"/>
<path d="M240.306 119.09C237.63 117.237 227.683 118.884 221.372 123.96C215.061 129.037 213.62 130.889 213.62 130.889C213.62 130.889 210.808 110.995 210.808 110.377C210.808 109.76 206.76 72.373 205.937 66.885C205.114 61.397 203.879 53.2336 202.713 51.45C201.478 49.5978 196.608 49.392 194.961 50.2152C193.315 51.0384 193.315 51.0384 193.315 51.0384C193.315 51.0384 194.138 36.8382 192.492 33.3396C190.845 29.9096 185.769 31.899 184.328 33.7512C182.888 35.6034 181.859 38.416 181.859 38.416C181.859 38.416 177.194 36.7696 174.518 42.0518C171.843 47.334 169.854 51.9988 169.442 57.0752C169.03 62.1516 166.767 68.6686 166.767 68.6686C166.767 68.6686 164.091 64.4154 161.279 66.8164C158.466 69.286 155.173 78.8214 154.35 85.75C153.527 92.6786 152.704 110.995 152.704 110.995C152.704 110.995 151.057 119.364 150.234 126.018C149.411 132.741 150.028 160.593 153.047 172.186C156.065 183.779 160.181 191.12 160.181 191.12C160.181 191.12 167.315 214.512 168.344 217.736C169.373 220.961 180.555 265.345 180.555 265.345L213.895 223.019C213.895 223.019 205.526 200.038 203.742 194.755C201.89 189.473 200.724 187.827 200.724 187.827C200.724 187.827 210.876 173.421 216.364 169.099C221.852 164.846 224.734 150.577 226.106 144.266C227.546 137.955 233.446 129.242 236.67 126.361C240.1 123.549 242.981 120.873 240.306 119.09ZM165.052 109.348C164.434 109.348 164.64 101.391 164.64 91.8554C164.64 82.32 166.286 77.9982 166.286 77.9982C165.463 82.2514 167.11 103.449 167.11 104.821C167.11 106.261 165.669 109.348 165.052 109.348Z" fill="white" stroke="#263238" stroke-miterlimit="10" stroke-linecap="round" stroke-linejoin="round"/>
<path d="M195.853 191.257C198.391 189.954 198.871 188.582 198.871 188.582" stroke="#263238" stroke-miterlimit="10" stroke-linecap="round" stroke-linejoin="round"/>
<path d="M175.89 186.592C175.89 186.592 187.072 193.932 192.56 192.491" stroke="#263238" stroke-miterlimit="10" stroke-linecap="round" stroke-linejoin="round"/>
<path d="M213.689 130.889C213.689 130.889 209.436 137.611 208.407 140.012C207.378 142.482 206.76 144.471 204.977 145.5C203.125 146.529 200.724 147.97 200.724 147.97" stroke="#263238" stroke-miterlimit="10" stroke-linecap="round" stroke-linejoin="round"/>
<path d="M201.41 132.878C196.265 135.279 188.993 139.533 184.808 145.707" stroke="#263238" stroke-miterlimit="10" stroke-linecap="round" stroke-linejoin="round"/>
<path d="M207.378 130.477C207.378 130.477 205.869 130.957 203.605 131.918" stroke="#263238" stroke-miterlimit="10" stroke-linecap="round" stroke-linejoin="round"/>
<path d="M182.545 148.382C182.545 148.382 178.909 155.105 177.262 160.387" stroke="#263238" stroke-miterlimit="10" stroke-linecap="round" stroke-linejoin="round"/>
<path d="M181.927 38.3477C181.927 38.3477 180.898 46.8541 179.458 59.6823C178.017 72.5105 177.194 78.8217 177.4 86.9165C177.605 95.0113 179.869 102.146 179.663 103.175" stroke="#263238" stroke-miterlimit="10" stroke-linecap="round" stroke-linejoin="round"/>
<path d="M193.315 50.9697C193.315 50.9697 192.697 56.2519 193.315 63.1805C193.932 70.1091 192.697 82.9373 192.697 87.8079C192.697 92.6785 192.903 100.019 193.109 102.214C193.315 104.478 194.55 106.056 194.55 106.056" stroke="#263238" stroke-miterlimit="10" stroke-linecap="round" stroke-linejoin="round"/>
<path d="M197.225 107.291C197.225 107.291 198.254 109.143 204.977 109.349" stroke="#263238" stroke-miterlimit="10" stroke-linecap="round" stroke-linejoin="round"/>
<path d="M181.79 102.42C181.79 102.42 186.661 103.449 189.953 102.832" stroke="#263238" stroke-miterlimit="10" stroke-linecap="round" stroke-linejoin="round"/>
<path d="M164.091 110.926C164.091 110.926 164.091 112.984 158.192 114.768" stroke="#263238" stroke-miterlimit="10" stroke-linecap="round" stroke-linejoin="round"/>
<path d="M175.685 105.438C176.302 105.026 178.703 104.203 179.32 101.391" stroke="#263238" stroke-miterlimit="10" stroke-linecap="round" stroke-linejoin="round"/>
<path d="M176.028 136.583C176.028 136.583 188.65 131.918 196.676 130.271" stroke="#263238" stroke-miterlimit="10" stroke-linecap="round" stroke-linejoin="round"/>
<path d="M211.905 342.383H321.185C313.571 332.298 285.719 295.597 283.867 293.745C281.74 291.619 272.479 290.384 272.479 290.384L245.108 267.609L210.945 211.151L178.497 256.221L173.009 234.338L160.867 279.888C160.867 279.888 205.114 333.808 206.829 335.934C207.103 336.346 209.024 338.747 211.905 342.383Z" fill="#263238" stroke="#263238" stroke-miterlimit="10" stroke-linecap="round" stroke-linejoin="round"/>
<path d="M126.293 184.328C126.293 184.328 117.237 161.141 115.042 156.888C112.847 152.635 101.048 134.113 100.43 129.036C99.813 124.029 97.9608 115.659 96.04 112.161C94.1192 108.662 99.813 106.398 104.478 110.789C109.143 115.248 112.024 122.451 111.955 124.509C111.887 126.567 122.52 134.319 122.52 134.319L124.44 116.483C124.44 116.483 126.498 72.167 126.087 65.5813C125.675 58.9957 125.264 44.9328 130.477 44.384C135.691 43.8352 136.514 48.0198 136.514 48.0198C136.514 48.0198 136.72 37.524 142.551 38.21C147.01 38.7588 148.725 42.9434 149.342 44.9328C150.028 46.9222 150.783 49.4604 150.783 49.4604C150.783 49.4604 154.487 46.9908 158.054 52.8904C160.112 56.3204 164.503 67.0219 165.189 69.7659C165.875 72.5099 166.081 73.4703 166.081 73.4703C166.081 73.4703 171.02 73.3331 173.146 78.4781C175.342 83.6917 178.429 97.206 181.447 108.456C184.465 119.707 184.328 130.34 184.328 130.34C184.328 130.34 185.494 166.423 183.093 177.88C180.692 189.336 176.165 199.146 175.204 200.037C174.244 200.998 160.867 240.58 160.867 240.58L114.356 223.361C114.356 223.361 124.029 199.557 125.607 194.344C127.184 189.199 126.293 184.328 126.293 184.328Z" fill="white" stroke="#263238" stroke-miterlimit="10" stroke-linecap="round" stroke-linejoin="round"/>
<path d="M116.551 150.508C116.62 152.772 117.169 154.144 117.169 154.144" stroke="#263238" stroke-miterlimit="10" stroke-linecap="round" stroke-linejoin="round"/>
<path d="M121.148 136.308C121.148 136.308 118.541 139.395 117.169 144.815C116.894 145.912 116.757 146.941 116.62 147.902" stroke="#263238" stroke-miterlimit="10" stroke-linecap="round" stroke-linejoin="round"/>
<path d="M136.583 48.0195C136.583 48.0195 137.406 62.3569 137.955 69.4913C138.503 76.6257 138.778 87.6017 138.778 94.8047C138.846 102.008 137.955 111.063 137.474 113.052C136.994 115.042 135.897 117.511 135.897 117.511" stroke="#263238" stroke-miterlimit="10" stroke-linecap="round" stroke-linejoin="round"/>
<path d="M150.851 49.4604C150.851 49.4604 148.588 52.1359 149.342 55.5659C150.097 58.9959 153.664 78.2724 153.664 81.0164C153.664 83.829 153.87 107.976 153.938 109.623C154.007 111.269 152.841 116.757 152.292 118.952" stroke="#263238" stroke-miterlimit="10" stroke-linecap="round" stroke-linejoin="round"/>
<path d="M166.149 73.5391C166.149 73.5391 163.542 73.8135 164.091 77.9295C164.64 82.0455 166.012 95.3539 166.012 99.0583C166.012 102.763 166.904 111.338 166.698 119.432C166.561 127.527 168.413 130.34 169.236 132.398" stroke="#263238" stroke-miterlimit="10" stroke-linecap="round" stroke-linejoin="round"/>
<path d="M125.675 127.458C125.675 127.458 124.715 132.123 126.018 134.524C127.253 136.925 129.037 142.002 129.037 144.814" stroke="#263238" stroke-miterlimit="10" stroke-linecap="round" stroke-linejoin="round"/>
<path d="M135.073 125.195C135.073 125.195 134.593 129.036 135.142 131.506C135.691 133.976 137.406 136.514 137.406 136.514" stroke="#263238" stroke-miterlimit="10" stroke-linecap="round" stroke-linejoin="round"/>
<path d="M150.783 131.231C150.783 131.231 150.234 135.279 151.194 137.817C152.155 140.355 153.321 142.276 153.321 142.276" stroke="#263238" stroke-miterlimit="10" stroke-linecap="round" stroke-linejoin="round"/>
<path d="M129.654 342.382L172.941 244.765C172.941 244.765 154.487 229.535 142.345 221.509C130.203 213.483 115.66 213.757 115.66 213.757C115.66 213.757 96.6574 254.231 95.6284 256.838C94.5994 259.445 81.3596 286.885 81.3596 286.885C81.3596 286.885 75.5286 288.943 72.9218 293.608C70.8638 297.244 56.3206 328.868 50.078 342.382H129.654Z" fill="#EC642D" stroke="#263238" stroke-miterlimit="10" stroke-linecap="round" stroke-linejoin="round"/>
<path d="M160.327 251.179C162.251 250.041 162.888 247.558 161.75 245.635C160.612 243.711 158.13 243.073 156.206 244.211C154.282 245.349 153.645 247.832 154.783 249.756C155.921 251.68 158.403 252.317 160.327 251.179Z" fill="#263238" stroke="#263238" stroke-miterlimit="10" stroke-linecap="round" stroke-linejoin="round"/>
<path d="M156.065 263.767C155.516 265.893 153.321 267.265 151.194 266.717C149.068 266.168 147.696 263.973 148.245 261.846C148.793 259.719 150.989 258.347 153.115 258.896C155.31 259.445 156.614 261.64 156.065 263.767Z" fill="#263238" stroke="#263238" stroke-miterlimit="10" stroke-linecap="round" stroke-linejoin="round"/>
</svg>
