<svg width="64" height="180" viewBox="0 0 64 180" fill="none" xmlns="http://www.w3.org/2000/svg">
<path d="M29.1748 29.9109C29.1748 29.9109 25.3301 29.2861 23.0713 31.0643C20.8125 32.8425 19.8033 35.1013 19.563 37.5523C19.2746 40.0033 17.4964 49.5191 17.4964 49.5191L14.0362 44.8573L10.1914 48.2214C10.1914 48.2214 13.4114 63.7446 16.4872 64.8019C19.5149 65.8592 22.831 62.447 23.6 61.8222C24.3689 61.1975 29.1748 29.9109 29.1748 29.9109Z" fill="#FF725E"/>
<path d="M27.8772 29.8147C27.8772 29.8147 22.831 37.0236 22.2543 38.8498C21.6295 40.6761 17.4003 44.0402 17.4483 48.4136C17.4964 50.9127 17.7847 53.0273 17.977 54.373C18.1692 55.4784 18.1212 56.6318 17.9289 57.7372L15.9585 67.2048C15.9585 67.2048 17.208 69.3675 20.2838 69.7039C23.3596 70.0403 31.2894 71.9146 36.5279 69.7039L40.2765 67.8777V53.1715L42.8717 47.116L50.2728 35.1493C50.2728 35.1493 46.5242 32.5541 42.9678 31.4007C39.2673 30.2472 33.3079 30.1511 27.8772 29.8147Z" fill="#FF725E"/>
<path d="M16.343 65.3305C16.343 65.3305 16.343 65.2344 16.391 64.9941C16.4391 64.7538 16.4872 64.4654 16.5833 64.0329C16.7275 63.1678 16.9678 62.0144 17.2561 60.5726C17.4003 59.8518 17.6406 59.0347 17.7367 58.1697C17.7848 57.9774 17.7848 57.7371 17.8328 57.4968C17.8328 57.2565 17.8809 57.0643 17.8809 56.824C17.9289 56.3434 17.9289 55.8628 17.9289 55.3822C17.8809 54.4211 17.6886 53.4118 17.4003 52.3545C17.1119 51.3453 16.7755 50.2399 16.8236 49.0865C16.8716 47.933 17.2561 46.8277 17.6406 45.8665C18.0731 44.8573 18.5537 43.9441 19.0824 43.1271C20.1397 41.445 21.197 40.0033 22.062 38.8018C22.9271 37.6003 23.648 36.6391 24.1286 35.9182C24.3689 35.5818 24.5611 35.3415 24.7053 35.1493C24.8495 34.957 24.8975 34.8609 24.8975 34.909C24.8975 34.909 24.8495 35.0051 24.7053 35.1973C24.5611 35.3896 24.4169 35.6779 24.1766 36.0143C23.6961 36.6872 23.0232 37.6964 22.1582 38.946C21.2931 40.1474 20.2838 41.5892 19.2265 43.2713C18.6979 44.0883 18.2173 45.0014 17.7848 46.0107C17.3522 46.9719 17.0158 48.0292 16.9678 49.1826C16.9197 50.288 17.2561 51.3933 17.4964 52.4026C17.7848 53.4599 17.977 54.4691 18.0251 55.4784C18.0251 55.959 18.0251 56.4395 17.977 56.9201C17.977 57.1604 17.9289 57.4007 17.9289 57.593C17.8809 57.8333 17.8328 58.0255 17.8328 58.2658C17.6886 59.1309 17.4483 59.8998 17.3042 60.6688C16.9678 62.1105 16.7275 63.264 16.5352 64.129C16.4391 64.5135 16.391 64.8499 16.2949 65.0422C16.391 65.1863 16.343 65.3305 16.343 65.3305Z" fill="#263238"/>
<path d="M47.774 33.6594C47.774 33.6594 57.0014 36.9755 53.4931 48.4136C50.7056 57.5449 44.9866 68.4544 41.3821 68.6947C39.5078 68.7908 37.4412 68.7427 36.1917 67.7335C31.0013 63.6484 27.8774 52.6909 27.8774 52.6909L32.8275 47.1641L38.835 56.0551C39.5078 55.7667 43.4967 43.4635 43.4967 43.4635C43.4967 43.4635 46.3322 34.0439 47.774 33.6594Z" fill="#FF725E"/>
<path d="M43.4002 44.4728C43.4002 44.4728 43.4002 44.5689 43.3522 44.7131C43.3041 44.8573 43.208 45.0975 43.1119 45.3378C42.9196 45.9146 42.6313 46.7316 42.2468 47.7408C41.4779 49.8074 40.4206 52.6909 39.123 56.1992L39.0268 56.3915L38.9307 56.1992C37.1525 53.604 35.086 50.5283 32.9233 47.3083H33.1156C32.9233 47.5005 32.7311 47.7408 32.4908 47.933C30.9048 49.5671 29.3669 51.153 27.9251 52.5948L27.9732 52.4506C28.7422 54.8536 29.5111 57.1124 30.3762 59.0347C31.2412 60.9571 32.1544 62.5911 33.0194 63.8887C33.8845 65.1863 34.7015 66.0995 35.2782 66.7242C35.5666 67.0126 35.8069 67.2529 35.951 67.4451C36.0952 67.5893 36.1913 67.6854 36.1913 67.6854C36.1913 67.6854 36.0952 67.6374 35.951 67.4451C35.7588 67.3009 35.5185 67.0607 35.2302 66.7723C34.6534 66.1475 33.7884 65.2344 32.9233 63.9368C32.0102 62.6392 31.049 61.0532 30.1839 59.0828C29.2708 57.1604 28.5019 54.9016 27.7329 52.4987V52.4506L27.781 52.4026C29.2227 50.9608 30.7606 49.3748 32.3466 47.7408C32.5388 47.5486 32.7791 47.3083 32.9714 47.116L33.0675 47.0199L33.1636 47.1641C35.3263 50.3841 37.3928 53.4599 39.171 56.0551H38.9788C40.3244 52.5948 41.4298 49.7112 42.1988 47.6447C42.5832 46.6354 42.9196 45.8665 43.1119 45.2898C43.208 45.0495 43.3041 44.8092 43.3522 44.665C43.4002 44.5689 43.4002 44.4728 43.4002 44.4728Z" fill="#263238"/>
<path d="M21.0529 165.006L21.6777 174.377C21.6777 174.377 12.4023 178.126 12.3062 179.856L30.4726 179.327L30.1362 164.717L21.0529 165.006Z" fill="#FF725E"/>
<path d="M27.2523 173.416C27.5888 173.512 27.8771 173.896 27.781 174.233C27.7329 174.569 27.3004 174.858 26.964 174.762C26.6276 174.665 26.2912 174.233 26.3873 173.896C26.4834 173.56 26.964 173.272 27.3004 173.416" fill="#E0E0E0"/>
<path d="M30.5206 179.952L30.4725 178.27L12.979 178.895C12.979 178.895 12.1619 179.279 12.3061 179.856L30.5206 179.952Z" fill="#263238"/>
<path d="M21.3413 174.281C21.3413 174.377 21.7738 174.377 22.2544 174.665C22.687 174.906 22.9273 175.29 23.0234 175.29C23.1195 175.29 22.9753 174.762 22.3986 174.425C21.87 174.089 21.3413 174.185 21.3413 174.281Z" fill="#263238"/>
<path d="M19.4668 175.146C19.4668 175.242 19.8513 175.386 20.1396 175.723C20.476 176.059 20.5722 176.492 20.6202 176.492C20.7163 176.492 20.7644 175.963 20.3319 175.531C19.9954 175.05 19.4668 175.05 19.4668 175.146Z" fill="#263238"/>
<path d="M18.4579 177.453C18.554 177.453 18.6501 177.02 18.4098 176.54C18.1695 176.059 17.737 175.867 17.6889 175.963C17.6409 176.059 17.9292 176.299 18.1214 176.684C18.3137 177.068 18.3617 177.453 18.4579 177.453Z" fill="#263238"/>
<path d="M21.4377 172.118C21.4858 172.214 21.8703 172.07 22.3989 172.07C22.8795 172.07 23.312 172.214 23.3601 172.166C23.4082 172.118 23.0237 171.782 22.447 171.782C21.8222 171.782 21.3897 172.07 21.4377 172.118Z" fill="#263238"/>
<path d="M37.7777 165.198L38.3063 174.569C38.3063 174.569 28.9828 178.27 28.8867 180L47.0531 179.616L46.8128 165.005L37.7777 165.198Z" fill="#FF725E"/>
<path d="M43.9296 173.656C44.266 173.752 44.5544 174.137 44.4582 174.473C44.3621 174.81 43.9776 175.098 43.6412 175.002C43.3048 174.906 42.9684 174.473 43.0645 174.137C43.1606 173.8 43.6412 173.512 43.9776 173.656" fill="#E0E0E0"/>
<path d="M47.1012 179.952V178.558L29.6077 179.039C29.6077 179.039 28.7906 179.423 28.8868 180H47.1012V179.952Z" fill="#263238"/>
<path d="M38.0179 174.473C38.0179 174.569 38.4505 174.569 38.9311 174.858C39.3636 175.146 39.6039 175.482 39.7 175.482C39.7961 175.482 39.652 174.954 39.0753 174.617C38.5466 174.281 37.9699 174.377 38.0179 174.473Z" fill="#263238"/>
<path d="M36.1436 175.29C36.1436 175.386 36.528 175.531 36.8164 175.867C37.1528 176.203 37.2009 176.636 37.297 176.636C37.3931 176.636 37.4412 176.107 37.0567 175.675C36.6241 175.242 36.1436 175.194 36.1436 175.29Z" fill="#263238"/>
<path d="M35.0866 177.597C35.1827 177.597 35.2788 177.164 35.0385 176.684C34.7982 176.203 34.3657 176.011 34.3657 176.107C34.3176 176.203 34.606 176.444 34.7982 176.828C34.9904 177.213 34.9904 177.597 35.0866 177.597Z" fill="#263238"/>
<path d="M38.114 172.311C38.1621 172.407 38.5465 172.262 39.0752 172.262C39.5558 172.262 39.9883 172.455 40.0364 172.359C40.0844 172.311 39.6999 171.974 39.1232 171.974C38.4985 171.974 38.0659 172.262 38.114 172.311Z" fill="#263238"/>
<path d="M40.5649 67.5412C40.5649 67.5412 45.1786 72.3952 47.6296 78.4026C50.0807 84.362 48.9753 113.198 48.9753 113.198L48.4466 128.288C48.4466 128.288 49.1675 141.264 48.6389 150.492C48.0622 159.719 47.4374 170.004 47.4374 170.004L37.3449 170.484L26.6277 92.0514L29.319 128.24C31.0011 137.467 30.8089 153.76 30.4725 170.484H19.8033C19.8033 170.484 16.1027 145.445 15.2857 139.486C14.3245 132.758 11.5371 114.255 11.5371 114.255C11.5371 114.255 9.37442 96.569 10.1434 87.0052C10.9123 77.4895 16.5833 64.129 16.7756 63.6003L39.6037 67.7334" fill="#263238"/>
<path d="M41.7184 65.042L44.4097 72.1548C44.4097 72.1548 64.3063 99.9331 63.7296 102.24C63.1529 104.547 52.2914 113.534 49.1195 112.092C45.9476 110.65 37.6814 104.739 34.942 98.7796C32.2027 92.8683 24.369 76.2398 24.369 76.2398L21.918 71.6261L24.6573 69.7518L41.7184 65.042Z" fill="#455A64"/>
<path d="M16.5834 64.0328C18.9864 65.3304 18.7461 69.3674 21.1491 70.665C17.1121 76.288 15.7664 83.4007 15.1897 90.3213C14.6611 97.2418 14.8053 104.21 13.4115 110.987C10.4799 110.795 11.345 110.843 8.41337 110.65C7.5483 97.3379 9.03814 83.8813 12.6906 71.0495C13.4115 68.4062 14.7572 66.0033 16.5834 64.0328Z" fill="#455A64"/>
<path d="M36.0474 75.7112C36.0474 75.7593 36.528 75.6632 37.2969 75.4229C38.0659 75.1826 39.1232 74.8462 40.2285 74.3656C41.3339 73.885 42.3431 73.3563 43.016 72.9719C43.6888 72.5874 44.1213 72.299 44.0733 72.251C44.0733 72.2029 43.6407 72.4432 42.9198 72.8277C42.199 73.2122 41.2378 73.6927 40.1324 74.1733C39.027 74.6539 38.0178 75.0384 37.2488 75.2787C36.4799 75.519 36.0474 75.6632 36.0474 75.7112Z" fill="#263238"/>
<g opacity="0.2">
<path d="M48.9275 96.8573L49.4081 96.9054C46.1401 100.318 40.6133 101.327 36.336 99.3083C34.8942 98.6355 33.4044 97.3379 33.5005 95.752C38.4026 97.4821 43.8333 97.8666 48.9275 96.8573Z" fill="black"/>
</g>
<path d="M24.0812 71.5782C25.9555 71.2418 29.5119 72.2029 30.8095 73.5967C32.1071 74.9423 32.9241 76.7205 33.5489 78.4987C34.9426 82.3435 35.9519 86.6207 38.9796 89.3601C41.8151 91.9553 45.9002 92.6762 49.6968 93.2529C49.793 94.6466 49.793 96.3287 48.6395 97.1457C48.3031 97.386 47.8706 97.5302 47.4861 97.6263C46.3327 97.9147 45.1793 98.155 44.0258 98.2511C38.5951 98.6836 32.828 96.521 29.6561 92.0995C25.6191 86.5246 25.3308 79.7963 23.0239 73.3083" fill="#455A64"/>
<path d="M23.0232 73.3083C23.0232 73.3083 23.0232 73.3563 23.0712 73.5005C23.1193 73.6447 23.1673 73.8369 23.2635 74.0772C23.4076 74.6059 23.6479 75.3748 23.9363 76.3841C24.2246 77.3933 24.513 78.6428 24.8494 80.0366C25.1858 81.4783 25.5703 83.1124 26.147 84.8905C26.6757 86.6687 27.3966 88.5911 28.5019 90.5135C29.0306 91.4747 29.7034 92.3878 30.4723 93.3009C31.2413 94.166 32.1544 94.983 33.2117 95.6558C35.2783 97.0015 37.7774 97.9627 40.4206 98.2991C41.7663 98.4913 43.1119 98.4913 44.5057 98.3472C45.1785 98.251 45.8994 98.1549 46.5722 98.0107C46.9086 97.9146 47.245 97.8666 47.5815 97.7704C47.9179 97.6743 48.2543 97.5782 48.5907 97.3379C48.9271 97.1457 49.1674 96.8093 49.3597 96.4728C49.5519 96.1364 49.648 95.7519 49.6961 95.4155C49.8402 94.6946 49.7922 93.9738 49.7441 93.3009V93.2048H49.648C47.1009 92.8203 44.6018 92.3878 42.3911 91.4747C41.2857 90.9941 40.2284 90.4174 39.3633 89.6965C38.4983 88.9756 37.7293 88.1105 37.1526 87.1974C35.9511 85.3711 35.2783 83.3527 34.6055 81.5264C33.9807 79.7001 33.404 77.97 32.6831 76.4321C32.3467 75.6632 31.9141 74.9903 31.4816 74.4136C31.2413 74.1253 31.001 73.8369 30.7607 73.5966C30.5204 73.3563 30.2321 73.116 29.9437 72.9718C28.7903 72.299 27.6849 72.0107 26.8198 71.7704C25.9067 71.5781 25.1858 71.5301 24.7052 71.5781C24.2246 71.5781 23.9843 71.6742 23.9843 71.6742C23.9843 71.6742 24.2246 71.6262 24.7052 71.6262C25.1858 71.6262 25.9067 71.6742 26.7718 71.8665C27.6369 72.0587 28.7422 72.3951 29.8476 73.068C30.1359 73.2121 30.3762 73.4524 30.6165 73.6927C30.8568 73.933 31.0971 74.2214 31.2894 74.5097C31.7219 75.0864 32.1064 75.7593 32.4908 76.5282C33.2117 78.0181 33.7404 79.7482 34.3652 81.5745C34.9899 83.4007 35.7108 85.4192 36.9123 87.2935C37.5371 88.2066 38.258 89.1198 39.1711 89.8407C40.0842 90.6096 41.1415 91.1863 42.2469 91.6669C44.5057 92.6281 47.0047 93.0606 49.5519 93.4451L49.4558 93.349C49.5038 94.0218 49.5038 94.7427 49.4077 95.4155C49.3116 96.0884 48.9752 96.7612 48.3985 97.1457C47.8218 97.4821 47.1009 97.6263 46.428 97.7704C45.7552 97.9146 45.0824 98.0107 44.4095 98.1069C43.0639 98.251 41.6702 98.251 40.3726 98.0588C37.7293 97.7224 35.2783 96.8093 33.2598 95.4636C32.2505 94.7908 31.3374 94.0218 30.5685 93.1567C29.7995 92.2917 29.1747 91.3786 28.598 90.4174C27.4927 88.5431 26.7718 86.6207 26.1951 84.8905C25.6184 83.1124 25.2339 81.4783 24.8494 80.0846C24.4649 78.6428 24.1766 77.4414 23.8882 76.4321C23.5999 75.4229 23.3596 74.6539 23.1673 74.1253C23.0712 73.885 23.0232 73.6927 22.9751 73.5486C23.0712 73.3563 23.0232 73.3083 23.0232 73.3083Z" fill="#263238"/>
<path d="M45.4677 98.0108C45.5638 98.0108 44.939 96.8093 45.1313 95.2714C45.2755 93.7335 46.0925 92.6762 46.0444 92.6282C46.0444 92.6282 45.8041 92.8204 45.5158 93.301C45.2274 93.7335 44.9871 94.4544 44.891 95.2234C44.7949 96.0404 44.939 96.7613 45.0832 97.2419C45.2274 97.7225 45.4196 98.0108 45.4677 98.0108Z" fill="#263238"/>
<path d="M45.3232 94.5506C45.3232 94.5987 46.2844 94.7428 47.4379 94.839C48.6393 94.9351 49.5525 94.9351 49.6005 94.839C49.6005 94.7909 48.6393 94.6467 47.4859 94.5506C46.2844 94.4545 45.3232 94.4545 45.3232 94.5506Z" fill="#263238"/>
<path d="M44.8901 96.0884C44.8901 96.1365 45.8994 96.2326 47.1009 96.2807C48.3024 96.3287 49.3116 96.2807 49.3116 96.1845C49.3116 96.1365 48.3024 96.0404 47.1009 95.9923C45.8994 95.9923 44.8901 95.9923 44.8901 96.0884Z" fill="#263238"/>
<path d="M19.5152 72.7797C16.1991 75.8074 14.9495 80.5653 15.0456 85.0348C15.1898 89.5043 16.4874 93.8777 17.4967 98.2511C18.5059 102.624 19.1787 107.238 18.1214 111.564C19.5632 111.756 20.9569 111.948 22.3987 112.188C25.907 108.488 27.6852 103.249 27.1566 98.203C26.7241 94.0219 24.8017 90.1771 23.456 86.1882C22.1104 82.1993 21.2934 77.7298 23.0235 73.885" fill="#455A64"/>
<path d="M22.9751 73.885C22.9751 73.885 22.927 73.933 22.8789 74.0772C22.8309 74.2214 22.7348 74.4136 22.6386 74.6539C22.4464 75.1345 22.2061 75.9035 22.0619 76.9127C21.9178 77.922 21.8697 79.1715 22.0139 80.6133C22.158 82.0551 22.4945 83.6891 23.0712 85.4192C23.5998 87.1493 24.3688 89.0237 25.0897 91.0422C25.8106 93.0606 26.5795 95.2233 26.9159 97.6263C27.2523 100.029 27.0601 102.576 26.2912 105.124C25.5222 107.623 24.1765 110.074 22.2542 112.14L22.3503 112.092C21.6775 111.996 20.9566 111.9 20.2357 111.804C19.5148 111.708 18.7458 111.612 18.073 111.515L18.1691 111.66C18.842 108.872 18.7939 106.085 18.5055 103.441C18.1691 100.798 17.5924 98.2991 17.0157 95.9923C16.439 93.6374 15.9103 91.4266 15.5259 89.312C15.1894 87.1974 15.0453 85.227 15.0933 83.4007C15.2375 79.7482 16.3909 76.9608 17.4482 75.2787C17.9769 74.4136 18.5055 73.8369 18.842 73.4524C18.4575 73.8369 17.9288 74.4136 17.4002 75.2787C16.2948 76.9608 15.1414 79.7963 14.9492 83.4488C14.853 85.275 14.9972 87.2935 15.3336 89.4081C15.67 91.5227 16.1987 93.7815 16.7754 96.1364C17.3521 98.4913 17.9288 100.942 18.2652 103.586C18.6017 106.181 18.6017 108.968 17.9288 111.708L17.8808 111.852H18.0249C18.6978 111.948 19.4667 112.044 20.1876 112.14C20.9085 112.236 21.6294 112.332 22.3022 112.429H22.3503L22.3983 112.38C24.3688 110.314 25.7144 107.815 26.4834 105.268C27.2523 102.721 27.4446 100.077 27.1082 97.6743C26.7717 95.2714 26.0028 93.0606 25.2338 91.0422C24.4649 89.0237 23.744 87.1974 23.1673 85.4192C22.6386 83.6891 22.2542 82.0551 22.11 80.6613C21.9658 79.2196 21.9658 77.97 22.11 76.9608C22.2542 75.9515 22.4945 75.1826 22.6386 74.702C22.7348 74.4617 22.7828 74.2695 22.8309 74.1253C22.927 73.933 22.9751 73.885 22.9751 73.885Z" fill="#263238"/>
<path d="M18.7944 108.151C18.7944 108.247 20.1401 107.959 21.7741 108.199C23.4081 108.392 24.6577 109.016 24.6577 108.92C24.6577 108.872 24.3693 108.728 23.8887 108.488C23.3601 108.295 22.6392 108.055 21.8222 107.911C21.0052 107.815 20.2362 107.815 19.6595 107.911C19.1308 108.055 18.7944 108.151 18.7944 108.151Z" fill="#263238"/>
<path d="M21.2931 112.092C21.3412 112.14 21.8218 111.371 22.3024 110.41C22.783 109.449 23.1675 108.632 23.0713 108.584C23.0233 108.536 22.5427 109.305 22.0621 110.266C21.5815 111.275 21.2451 112.092 21.2931 112.092Z" fill="#263238"/>
<path d="M19.0824 111.804C19.1305 111.852 19.563 111.035 19.9956 109.977C20.4281 108.968 20.7645 108.103 20.6684 108.055C20.6203 108.007 20.1878 108.824 19.7553 109.881C19.3227 110.891 18.9863 111.756 19.0824 111.804Z" fill="#263238"/>
<path d="M25.1859 71.3858C25.234 71.3858 25.2821 71.2897 25.3301 71.0975C25.3782 70.9052 25.3301 70.6169 25.234 70.3285C25.1379 70.0402 24.8976 69.8479 24.7534 69.7518C24.6092 69.6557 24.4651 69.6076 24.4651 69.6557C24.417 69.7038 24.8015 69.944 24.9937 70.4246C25.234 70.9533 25.1379 71.3858 25.1859 71.3858Z" fill="#263238"/>
<path d="M19.6594 70.3766C20.2361 69.4635 21.5818 69.1752 22.6872 69.031C23.9848 68.9349 25.2824 70.0402 25.3785 71.3378C25.5227 72.6354 24.5615 73.933 23.2639 74.2694C22.0143 74.6059 20.5726 74.0292 19.8517 72.9238C19.323 72.1548 19.1788 71.1456 19.6594 70.3766Z" fill="#455A64"/>
<path d="M22.0626 69.5116C22.0626 69.5116 21.7742 69.7038 21.4859 70.1844C21.1975 70.665 21.0053 71.434 21.2456 72.299C21.4859 73.116 22.0626 73.7408 22.4951 73.9811C22.9757 74.2695 23.3121 74.3175 23.3121 74.2695C23.3121 74.2214 23.0238 74.1253 22.5912 73.8369C22.1587 73.5486 21.6781 72.9719 21.4378 72.2029C21.2456 71.434 21.3897 70.7131 21.63 70.2325C21.8223 69.8 22.0626 69.5597 22.0626 69.5116Z" fill="#263238"/>
<path d="M19.8991 69.9922C19.8991 69.9922 19.7069 70.1364 19.5627 70.4247C19.4185 70.7611 19.2744 71.2417 19.3224 71.7704C19.3705 72.299 19.6108 72.7796 19.803 73.0199C20.0433 73.3083 20.2355 73.4044 20.2355 73.4044C20.2836 73.3563 20.1394 73.2122 19.9472 72.9238C19.7549 72.6355 19.6108 72.2029 19.5627 71.7223C19.5147 71.2417 19.6108 70.7611 19.7069 70.4728C19.8511 70.2325 19.9472 70.0402 19.8991 69.9922Z" fill="#263238"/>
<g opacity="0.2">
<path d="M19.5629 72.7797C20.4279 73.7408 21.5333 74.1734 22.8309 74.2695C22.5906 74.8462 21.7736 75.3749 21.1488 75.4229C20.524 75.471 19.8993 75.1346 19.5629 74.6059C19.2264 74.0773 19.2264 73.3083 19.5629 72.7797Z" fill="black"/>
</g>
<g opacity="0.2">
<path d="M34.7979 76.9608C35.2304 76.4321 35.9033 76.1438 36.5761 75.9035C39.0752 74.9904 41.7184 73.5005 44.2175 72.5874C41.9587 74.6059 39.5077 76.9608 36.9125 78.4987C36.2877 78.8832 35.4707 79.2196 34.894 78.7871C34.3173 78.4506 34.3654 77.5375 34.7979 76.9608Z" fill="black"/>
</g>
<g opacity="0.2">
<path d="M14.277 81.4302C14.6615 78.4505 16.0552 75.5189 18.4582 73.7407C17.1606 76.0956 15.8629 78.4986 15.2862 81.0938C14.6615 83.9774 15.1421 85.8036 15.3824 88.7352L15.094 90.177C14.3251 87.2934 13.8925 84.4099 14.277 81.4302Z" fill="black"/>
</g>
<path d="M36.1436 79.0273C36.1436 79.0273 36.2878 78.9792 36.5281 78.8351C36.7684 78.6909 37.1048 78.4986 37.5374 78.2103C38.3544 77.6816 39.4597 76.8646 40.6132 75.9034C41.7666 74.9423 42.6797 73.933 43.3525 73.2121C43.689 72.8276 43.9293 72.5393 44.1215 72.347C44.3137 72.1068 44.3618 72.0106 44.3618 72.0106C44.3137 71.9626 43.9293 72.4432 43.2564 73.116C42.5836 73.8369 41.6224 74.75 40.469 75.7112C39.3636 76.6724 38.2583 77.4894 37.4893 78.0661C36.6242 78.6428 36.0956 78.9792 36.1436 79.0273Z" fill="#263238"/>
<path d="M23.888 7.13068C23.1672 5.83308 23.6477 4.10295 24.705 3.0937C25.7624 2.08446 27.3003 1.69998 28.7901 1.74804C30.2799 1.7961 31.6736 2.22864 33.1154 2.66117C34.1727 1.26745 35.999 0.59462 37.7291 0.882976C39.4112 1.21939 40.901 2.51699 41.3816 4.19907C42.3909 3.81459 43.5924 4.00683 44.4094 4.72772C45.2264 5.44861 45.6108 6.60203 45.3706 7.65934L39.1228 10.7832L33.6441 24.2398C31.7698 26.3063 28.3576 26.6908 26.0988 25.1049C23.84 23.5189 22.9749 20.2028 24.2725 17.7518C23.84 17.4634 23.4555 17.079 23.1191 16.6464C21.9176 16.1178 20.8603 15.1085 20.4278 13.859C19.3705 11.1196 21.1487 7.80351 23.888 7.13068Z" fill="#263238"/>
<path d="M31.6734 31.4006C31.8176 29.286 31.8656 29.1419 31.8656 29.1899C31.8656 29.1899 27.8286 28.1807 27.3961 22.798C27.2039 20.1067 27.6364 15.7814 28.1651 12.225C28.5976 9.05307 31.0486 5.25638 34.2205 5.83309L43.9766 9.14919C44.9378 9.34142 45.2261 10.1584 45.13 11.1677L45.1781 11.6483L43.544 26.9311L43.0154 31.4968C42.727 34.3803 40.0838 37.36 37.2002 37.3119C33.9322 37.2158 31.4331 34.6206 31.6734 31.4006Z" fill="#9F7362"/>
<path d="M29.1742 17.0789C29.1261 17.4634 29.4145 17.7517 29.799 17.7998C30.1834 17.8479 30.5198 17.6076 30.5679 17.2231C30.616 16.8386 30.3276 16.5503 29.9431 16.5022C29.5587 16.4541 29.2222 16.7425 29.1742 17.0789Z" fill="#263238"/>
<path d="M29.0301 15.0605C29.1262 15.1566 29.6549 14.8202 30.3757 14.8682C31.0966 14.9163 31.6253 15.3488 31.7214 15.2527C31.7695 15.2046 31.6733 15.0605 31.4811 14.8682C31.2408 14.676 30.8563 14.4838 30.4238 14.4357C29.9432 14.3876 29.5587 14.5318 29.3184 14.676C29.0781 14.8682 28.982 15.0124 29.0301 15.0605Z" fill="#263238"/>
<path d="M35.5179 17.4634C35.4699 17.8479 35.7582 18.1363 36.1427 18.1843C36.5272 18.2324 36.8636 17.9921 36.9117 17.6076C36.9597 17.2231 36.6714 16.9348 36.2869 16.8867C35.9024 16.8386 35.566 17.0789 35.5179 17.4634Z" fill="#263238"/>
<path d="M36.0945 15.493C36.1907 15.5891 36.7193 15.2527 37.4402 15.3007C38.1611 15.3488 38.6897 15.7813 38.7859 15.6852C38.8339 15.6371 38.7378 15.493 38.5456 15.3007C38.3053 15.1085 37.9208 14.9163 37.4883 14.8682C37.0077 14.8201 36.6232 14.9643 36.3829 15.1085C36.1426 15.3007 36.0465 15.4449 36.0945 15.493Z" fill="#263238"/>
<path d="M33.0189 20.4912C33.0189 20.4431 32.5863 20.347 31.8174 20.2028C31.6252 20.1548 31.4329 20.1067 31.4329 19.9625C31.3849 19.8184 31.481 19.6261 31.6252 19.4339C31.8174 19.0014 32.0577 18.5208 32.298 18.0402C33.2111 16.0697 33.932 14.4357 33.8359 14.3877C33.7398 14.3396 32.9228 15.9256 32.0096 17.896C31.7693 18.3766 31.5771 18.8572 31.3849 19.2897C31.2887 19.4819 31.1446 19.7222 31.2407 20.0106C31.2887 20.1548 31.4329 20.2509 31.529 20.299C31.6252 20.347 31.7693 20.347 31.8655 20.347C32.5863 20.4912 33.0189 20.5393 33.0189 20.4912Z" fill="#263238"/>
<path d="M31.8656 29.1899C31.8656 29.1899 35.422 29.7186 39.1707 27.8442C39.1707 27.8442 37.0561 31.4967 31.7695 30.5356L31.8656 29.1899Z" fill="#65463C"/>
<path d="M36.2388 13.4745C36.3349 13.6667 37.0558 13.5706 37.9208 13.6667C38.7859 13.7629 39.5068 14.0032 39.6029 13.8109C39.651 13.7148 39.5068 13.5226 39.2665 13.3303C38.9781 13.1381 38.5456 12.9459 38.0169 12.8978C37.4883 12.8497 37.0077 12.9459 36.7193 13.042C36.3829 13.2342 36.1907 13.3784 36.2388 13.4745Z" fill="#263238"/>
<path d="M29.1741 12.9458C29.3183 13.138 29.9431 12.9939 30.664 13.0419C31.3849 13.09 32.0096 13.2822 32.1538 13.09C32.2019 12.9939 32.1538 12.8497 31.8654 12.6575C31.6251 12.4652 31.1926 12.321 30.664 12.273C30.1834 12.2249 29.7028 12.3691 29.4625 12.5133C29.2222 12.6575 29.1261 12.8497 29.1741 12.9458Z" fill="#263238"/>
<path d="M41.2373 5.97733C41.1412 7.03463 40.5645 8.09194 39.6994 8.71671C38.8344 9.34148 37.6809 9.53372 36.6236 9.29342C35.8066 9.10118 34.9416 8.62059 34.2207 9.00506C33.4517 9.38954 33.3075 10.543 32.6347 11.0236C31.6255 11.7925 30.1837 10.8794 28.9822 11.1677C28.021 11.36 27.3962 12.225 26.7234 12.8979C26.0506 13.5707 25.0894 14.2435 24.1763 13.9071C24.3204 13.0901 24.4166 12.225 24.753 11.4561C25.0413 10.6871 25.57 9.96625 26.2909 9.53372C26.6754 9.29342 27.1559 9.1973 27.5404 8.95701C28.3574 8.38029 28.5977 7.32299 29.1744 6.50598C29.8473 5.44868 31.0968 4.72779 32.3944 4.72779C33.4517 4.67973 34.509 5.11226 35.5663 4.92002C36.3353 4.77585 37.0562 4.34331 37.8251 4.24719C39.363 4.05496 40.6606 5.25644 41.6699 6.40986" fill="#263238"/>
<path d="M36.2872 7.70745C36.96 7.56327 38.3537 7.22686 38.7862 6.69821C39.6513 5.49672 41.0931 4.72778 42.4868 4.92001C43.8805 5.11225 45.1301 6.31373 45.3223 7.80357C47.0044 7.94775 48.5903 9.14923 49.3112 10.8313C49.9841 12.5134 49.7918 14.5799 48.7826 16.0698C48.4942 16.4542 48.1578 17.3193 48.1578 17.3193C48.1578 17.3193 48.8787 17.9921 49.167 18.5208C50.6088 20.8276 47.7253 22.1252 47.7253 22.1252C47.9175 23.7593 46.4277 23.9515 45.4665 24.0957C44.5534 24.1918 44.3131 26.8831 43.5441 26.8831L43.2558 18.8091C43.1596 18.8572 43.0635 18.9053 42.9193 18.9053C41.0931 19.1936 41.1411 15.6372 41.6217 14.676C40.997 14.0513 40.4203 13.4265 39.9397 12.6576C39.5071 11.8886 39.2188 9.87012 39.411 8.95699C38.6901 8.90893 35.9988 7.80357 36.2872 7.70745Z" fill="#263238"/>
<path d="M43.0153 19.1936C43.1595 18.0402 44.4571 17.4154 45.4183 18.0402C45.947 18.3766 46.2834 19.0494 46.1392 20.2509C45.7547 23.4709 42.6309 22.4136 42.6309 22.3175C42.6309 22.3175 42.8231 20.5393 43.0153 19.1936Z" fill="#9F7362"/>
<path d="M43.7368 21.2602C43.7368 21.2602 43.7849 21.3083 43.881 21.3563C43.9771 21.4044 44.1213 21.4524 44.3135 21.4044C44.6499 21.3083 45.0344 20.8277 45.0825 20.251C45.1305 19.9626 45.0825 19.6742 45.0344 19.4339C44.9864 19.1937 44.8422 19.0014 44.6499 18.9534C44.5058 18.9053 44.3616 19.0014 44.3135 19.0495C44.2655 19.1456 44.2655 19.1937 44.2655 19.1937C44.2655 19.1937 44.2174 19.1456 44.2655 19.0014C44.2655 18.9534 44.3135 18.8572 44.4096 18.8092C44.5058 18.7611 44.6019 18.7131 44.7461 18.7611C44.9864 18.8092 45.1786 19.0495 45.2747 19.3378C45.3708 19.6262 45.4189 19.9145 45.3708 20.251C45.2747 20.8757 44.8902 21.4524 44.4096 21.5486C44.1693 21.5966 43.9771 21.5005 43.9291 21.4044C43.7368 21.3563 43.7368 21.2602 43.7368 21.2602Z" fill="#65463C"/>
<path d="M25.7626 17.0309C25.7626 16.9828 25.4743 16.8387 24.9937 16.4061C24.5611 15.9736 23.9844 15.2046 23.6961 14.0993C23.5519 13.5706 23.5038 12.9459 23.648 12.273C23.7441 11.6483 24.0325 10.9754 24.5131 10.3987C25.4743 9.29335 27.1563 8.62052 28.8384 8.95694C28.9826 9.00499 29.1268 9.05305 29.2709 9.10111C29.4151 9.14917 29.5593 9.19723 29.6554 9.24529L29.8477 9.34141L29.8957 9.19723C29.8477 8.81276 29.9438 8.42828 30.136 8.13993C30.3282 7.85157 30.6166 7.56322 30.953 7.37098C31.5778 6.9865 32.2987 6.89039 33.0196 6.93844C34.4133 7.08262 35.6148 7.51516 36.6721 7.51516C37.7294 7.51516 38.5944 7.13068 39.027 6.69815C39.2673 6.50591 39.3634 6.26561 39.4595 6.1695C39.5076 6.02532 39.5556 5.9292 39.5556 5.9292C39.5076 5.9292 39.4595 6.26561 38.9789 6.60203C38.5464 6.9865 37.7294 7.32292 36.7201 7.27486C36.1915 7.27486 35.6628 7.17874 35.0381 7.03456C34.4133 6.89039 33.7885 6.74621 33.0676 6.65009C32.7312 6.60203 32.3467 6.60203 31.9623 6.69815C31.5778 6.74621 31.1933 6.89039 30.8569 7.08262C30.5205 7.27486 30.1841 7.56322 29.9438 7.89963C29.7035 8.23605 29.6074 8.71664 29.6554 9.14917L29.8477 9.00499C29.7035 8.95694 29.5593 8.86082 29.4151 8.81276C29.2709 8.7647 29.1268 8.71664 28.9345 8.66858C27.1563 8.28411 25.3781 9.00499 24.3689 10.2065C23.8402 10.7832 23.5519 11.5041 23.4558 12.1769C23.3596 12.8497 23.4077 13.5226 23.5519 14.0512C23.8402 15.2046 24.465 15.9736 24.9456 16.3581C25.1859 16.5503 25.3781 16.6945 25.5704 16.7906C25.6665 16.9828 25.7626 17.0309 25.7626 17.0309Z" fill="#455A64"/>
<path d="M24.9932 6.02527C24.9932 6.07333 25.2815 5.73692 25.9544 5.54468C26.2908 5.44856 26.6752 5.4005 27.1558 5.49662C27.6364 5.59274 28.117 5.78498 28.5015 6.21751L28.6457 6.36169L28.6937 6.16945C28.934 5.11215 29.9433 3.95872 31.337 3.62231C32.3943 3.38201 33.4035 3.71843 34.2686 4.05484C35.1337 4.43932 35.9507 4.77573 36.6716 4.91991C37.3925 5.06409 38.0172 5.01603 38.4017 4.91991C38.5939 4.87185 38.7381 4.77573 38.8342 4.72767C38.9304 4.67961 38.9784 4.63155 38.9784 4.63155C38.9784 4.63155 38.7862 4.72767 38.4017 4.82379C38.0172 4.91991 37.4405 4.91991 36.7196 4.77573C35.9987 4.63155 35.2779 4.24708 34.3647 3.8626C33.9322 3.67037 33.4516 3.47813 32.923 3.38201C32.3943 3.28589 31.8176 3.23783 31.2889 3.38201C29.7991 3.76649 28.7418 4.96797 28.4534 6.16945L28.6457 6.12139C28.2131 5.6408 27.6845 5.44856 27.1558 5.35244C26.6752 5.25632 26.2427 5.35244 25.9063 5.44856C25.5699 5.54468 25.3296 5.73692 25.1854 5.83304C25.0412 5.97721 24.9932 6.02527 24.9932 6.02527Z" fill="#455A64"/>
<path d="M33.4997 22.0771C33.6919 21.8368 34.0283 21.7407 34.3167 21.7407C34.6051 21.7407 34.9895 21.933 35.2298 22.2213C35.2298 22.2213 35.2298 22.2213 35.2779 22.2694C35.374 22.3655 35.4221 22.5097 35.4221 22.6058C35.4221 22.8941 35.2298 23.1825 34.9895 23.3267C34.6051 23.567 34.0764 23.615 33.6919 23.3267C33.3075 22.9903 33.2113 22.4136 33.4997 22.0771Z" fill="#65463C"/>
<path d="M35.4226 21.4524C35.3746 21.4524 35.3265 21.5966 35.1343 21.8369C34.9901 22.0772 34.7017 22.3175 34.3173 22.4616C33.9328 22.6058 33.5483 22.6058 33.308 22.5097C33.0197 22.4616 32.8755 22.3655 32.8755 22.4136C32.8755 22.4616 32.9716 22.6058 33.26 22.7019C33.5483 22.7981 33.9809 22.8942 34.4614 22.7019C34.894 22.5097 35.2304 22.1733 35.3265 21.8849C35.4707 21.6446 35.4226 21.4524 35.4226 21.4524Z" fill="#263238"/>
<path d="M47.7739 12.6094C47.7739 12.6094 47.822 12.5614 47.9181 12.5133C48.0142 12.4172 48.1103 12.3211 48.3026 12.1769C48.5909 11.8405 48.9754 11.3118 49.1676 10.5429C49.2638 10.1584 49.2638 9.72587 49.1676 9.24528C49.0715 8.76469 48.8312 8.33215 48.4468 7.94768C48.0623 7.5632 47.4856 7.32291 46.9089 7.32291C46.3321 7.32291 45.7074 7.5632 45.3229 8.09186L45.4671 8.18797C45.4671 8.18797 45.4671 8.18797 45.4671 8.13992C45.8515 6.98649 45.8515 5.73695 45.371 4.77576C44.8904 3.81458 44.0253 3.18981 43.2083 3.14175C42.3913 3.04563 41.7665 3.38205 41.4301 3.6704C41.2379 3.81458 41.1417 3.95876 41.0937 4.05488C41.0456 4.15099 40.9976 4.19905 40.9976 4.19905C40.9976 4.19905 41.1417 3.95876 41.4782 3.71846C41.8146 3.47816 42.4393 3.18981 43.2083 3.28593C43.9772 3.38205 44.7942 3.95876 45.2268 4.87188C45.6593 5.78501 45.6593 6.98649 45.2748 8.09186C45.2748 8.09186 45.2748 8.09186 45.2748 8.13992L45.1307 8.62051L45.419 8.18797C45.7554 7.70738 46.3321 7.51514 46.8608 7.51514C47.3894 7.51514 47.9181 7.70738 48.2545 8.09186C48.639 8.42827 48.8312 8.90886 48.9273 9.3414C49.0235 9.77393 49.0235 10.2065 48.9273 10.5909C48.7832 11.3599 48.3987 11.8885 48.1103 12.225C47.9662 12.4172 47.7739 12.5614 47.7739 12.6094Z" fill="#263238"/>
<path d="M1.73303 42.1179L4.85688 53.8924C5.04912 54.5652 5.62583 54.9978 6.29866 54.9978L22.4466 54.6613C23.3597 54.6613 24.0325 53.7963 23.8403 52.8832L21.4854 41.5892C21.3412 40.9164 20.7645 40.4358 20.0436 40.4358H2.98257C2.1175 40.4358 1.49273 41.2528 1.73303 42.1179Z" fill="#263238"/>
<path d="M0.33923 44.7611C0.00281512 44.3766 0.00281512 43.7038 0.33923 43.3193C0.675645 42.8868 1.2043 42.6945 1.73295 42.6465C2.2616 42.6465 2.79025 42.7907 3.27085 42.9829C3.89562 43.2232 4.47233 43.5116 5.00098 43.848C5.38546 44.0883 5.81799 44.4247 5.86605 44.8572C5.96217 45.2897 5.43352 45.8184 5.04904 45.5781C5.57769 45.8184 6.10635 46.3471 6.15441 46.9238C6.25052 47.5005 5.91411 47.7888 5.38546 47.9811C5.81799 48.1252 6.05829 48.6539 5.86605 49.0864C5.67381 49.519 5.04904 49.6151 4.61651 49.4709C4.18397 49.2787 3.84756 48.9423 3.51114 48.5578C3.84756 49.0864 3.94368 49.7593 3.7995 50.384C2.54996 49.9515 1.63683 48.7981 1.44459 47.5005C0.819823 47.0679 0.627586 46.1548 1.01206 45.482C0.531467 45.3378 -0.0452442 44.5689 0.0028151 44.0402" fill="#9F7362"/>
<path d="M5.38506 47.9811C5.38506 47.9811 5.19283 47.8369 4.85641 47.5966C4.52 47.3563 4.0394 47.0199 3.46269 46.8757C3.17434 46.8277 2.88598 46.8277 2.59762 46.8757C2.35733 46.9238 2.11703 47.068 1.97285 47.1641C1.6845 47.4044 1.58838 47.6927 1.58838 47.6927C1.58838 47.6927 1.58838 47.6447 1.63644 47.5005C1.6845 47.4044 1.78062 47.2602 1.92479 47.116C2.06897 46.9718 2.30927 46.8277 2.59762 46.7796C2.88598 46.6835 3.17434 46.6835 3.51075 46.7796C4.13552 46.9238 4.61612 47.3083 4.95253 47.5486C5.24089 47.7889 5.43312 47.9811 5.38506 47.9811Z" fill="#65463C"/>
<path d="M5.28928 45.6262C5.28928 45.6262 5.04898 45.5301 4.66451 45.3378C4.42421 45.2898 4.18391 45.1936 3.94362 45.0975C3.70332 45.0014 3.36691 44.9053 3.07855 44.8572C2.74213 44.8092 2.45378 44.8092 2.16542 44.8572C1.87707 44.9053 1.68483 45.0014 1.49259 45.1456C1.15618 45.3859 1.06006 45.6742 1.06006 45.6742C1.06006 45.6742 1.06006 45.6262 1.10812 45.482C1.15618 45.3859 1.2523 45.1936 1.44453 45.0495C1.63677 44.9053 1.87707 44.7611 2.16542 44.713C2.45378 44.665 2.79019 44.665 3.12661 44.713C3.46302 44.7611 3.75138 44.8572 4.03974 44.9533C4.32809 45.0495 4.52033 45.1936 4.71257 45.2898C5.04898 45.482 5.28928 45.6262 5.28928 45.6262Z" fill="#65463C"/>
<path d="M12.3063 46.1068H12.4024C12.7869 46.0587 13.2194 46.3951 13.2675 46.7796C13.3155 47.1641 13.0272 47.5966 12.5946 47.6447C12.2102 47.6927 11.7776 47.4044 11.6815 47.0199C11.6335 46.6354 11.9218 46.2029 12.3063 46.1068Z" fill="white"/>
<path d="M27.9734 42.0698C27.9734 42.0698 26.2433 38.7537 25.7627 38.9459C25.234 39.1381 24.6093 39.1381 24.8976 40.4357C25.234 41.6853 26.051 42.5503 26.003 43.5596C25.9549 44.5688 25.186 46.7796 26.051 47.7888C26.9161 48.8461 28.3579 51.9219 28.3579 51.9219L32.1546 48.0772L31.3376 46.8276C31.3376 46.8276 32.7793 44.8572 33.0196 43.7038C33.308 42.5503 32.8755 40.9163 32.8755 40.9163C32.8755 40.9163 32.9716 39.9551 32.4429 39.2343C32.4429 39.2343 32.539 38.4653 32.539 37.6964C32.539 36.9274 30.5205 33.7555 30.5205 33.7555C30.5205 33.7555 29.5113 34.14 29.8477 35.1973C30.1841 36.2546 30.6167 37.1677 30.6167 37.1677L28.3098 36.3026C28.3098 36.3026 27.685 37.408 28.9346 38.0808C30.1841 38.7537 30.3764 39.3304 30.3764 39.3304L28.5982 39.4746C28.5982 39.4746 28.454 40.4357 29.1268 40.676C29.8477 40.8683 29.8477 40.8683 29.8477 40.8683L27.9734 42.0698Z" fill="#9F7362"/>
<path d="M29.0309 40.58C29.3673 40.628 29.7999 40.7722 30.6169 40.9164H30.6649C30.8572 41.3008 31.0013 41.7814 30.9533 42.3581C30.9052 42.9349 30.6649 43.4635 30.2324 43.9441C29.7518 44.4247 29.127 44.7131 28.6464 44.9534C28.1178 45.1936 27.6852 45.482 27.4449 45.8184C27.1566 46.1548 27.0605 46.4912 27.0124 46.7315C26.9644 46.9718 27.0124 47.116 26.9644 47.116C26.9644 47.116 26.9644 47.068 26.9644 47.0199C26.9644 46.9718 26.9644 46.8757 26.9644 46.7315C26.9644 46.4912 27.1085 46.1068 27.3969 45.7704C27.6852 45.4339 28.1178 45.0975 28.6464 44.8572C29.127 44.5689 29.7518 44.3286 30.1843 43.848C30.5688 43.4155 30.8572 42.8868 30.9052 42.3581C30.9533 41.8295 30.8091 41.3489 30.6169 41.0125L30.6649 41.0605C29.6076 40.8203 29.0309 40.628 29.0309 40.58Z" fill="#65463C"/>
<path d="M32.5384 40.8203C32.4904 40.8203 32.4904 40.6761 32.3943 40.4358C32.2981 40.1955 32.0578 39.9552 31.7214 39.763C31.385 39.5707 31.0486 39.4746 30.8083 39.4266C30.568 39.3785 30.4238 39.3304 30.4238 39.3304C30.4238 39.3304 30.568 39.2824 30.8564 39.3304C31.0967 39.3785 31.4811 39.4266 31.8175 39.6188C32.0098 39.7149 32.154 39.8591 32.2501 40.0033C32.3462 40.1475 32.4423 40.2916 32.4904 40.3877C32.5384 40.628 32.5384 40.8203 32.5384 40.8203Z" fill="#65463C"/>
<path d="M32.3463 38.8498C32.2983 38.8498 32.058 38.4173 31.5774 37.9848C31.1449 37.5522 30.6643 37.2639 30.7123 37.2639C30.7123 37.2158 31.241 37.4561 31.6735 37.8886C32.1541 38.3212 32.3463 38.8498 32.3463 38.8498Z" fill="#65463C"/>
</svg>
