<svg width="175" height="177" viewBox="0 0 175 177" fill="none" xmlns="http://www.w3.org/2000/svg">
   <g clip-path="url(#clip0_719_11098)">
      <path d="M153.797 148.646C150.271 152.368 146.934 154.768 144.298 156.665C113.312 178.956 76.6455 172.458 68.8531 170.873C57.3457 168.531 35.1027 164.001 19.0217 145.041C-5.30827 116.355 -1.51956 71.1622 17.3521 41.3295C20.8041 35.8728 39.0415 5.5856 76.0988 0.72821C98.5278 -2.21125 124.672 3.71761 143.606 19.6211C183.348 53.0014 180.519 120.441 153.797 148.646Z" fill="url(#paint0_linear_719_11098)"/>
      <path d="M157.481 20.4633C157.451 20.4892 157.416 20.5073 157.377 20.5161C157.338 20.5249 157.298 20.5242 157.26 20.5139C156.95 20.4292 156.637 20.3514 156.33 20.2819C156.298 20.2754 156.268 20.2627 156.242 20.2445C156.215 20.2263 156.193 20.203 156.175 20.1758C156.158 20.1487 156.146 20.1183 156.14 20.0865C156.134 20.0547 156.135 20.0221 156.142 19.9906C156.149 19.9591 156.163 19.9293 156.181 19.903C156.2 19.8767 156.224 19.8544 156.251 19.8374C156.279 19.8205 156.309 19.8092 156.341 19.8042C156.373 19.7992 156.405 19.8006 156.437 19.8084C156.752 19.8792 157.067 19.9589 157.387 20.0448C157.449 20.0617 157.501 20.1025 157.533 20.1584C157.565 20.2142 157.574 20.2804 157.557 20.3426C157.544 20.3894 157.518 20.4314 157.481 20.4633Z" fill="#98B1DC"/>
      <path d="M166.536 60.5231C166.107 60.8929 165.66 61.2507 165.207 61.5864C165.182 61.6071 165.152 61.6223 165.121 61.6313C165.089 61.6403 165.056 61.6428 165.024 61.6387C164.991 61.6346 164.96 61.6239 164.932 61.6073C164.904 61.5907 164.879 61.5685 164.86 61.5422C164.84 61.5158 164.826 61.4857 164.819 61.4538C164.811 61.4219 164.81 61.3888 164.816 61.3565C164.821 61.3241 164.833 61.2933 164.851 61.2658C164.869 61.2383 164.892 61.2146 164.919 61.1964C165.44 60.8095 165.952 60.3942 166.441 59.9624C166.49 59.927 166.551 59.9112 166.611 59.9183C166.671 59.9254 166.726 59.9548 166.766 60.0008C166.805 60.0467 166.826 60.1058 166.824 60.1664C166.823 60.2271 166.798 60.2849 166.756 60.3284C166.686 60.3929 166.611 60.458 166.536 60.5231ZM169.013 58.0344C168.966 58.0743 168.907 58.0952 168.846 58.093C168.785 58.0907 168.727 58.0654 168.684 58.0222C168.641 57.979 168.615 57.921 168.613 57.8598C168.61 57.7986 168.631 57.7389 168.671 57.6924C169.093 57.1981 169.5 56.681 169.88 56.1493C169.898 56.1234 169.922 56.1015 169.949 56.0846C169.976 56.0678 170.006 56.0565 170.037 56.0513C170.068 56.0462 170.101 56.0473 170.132 56.0545C170.162 56.0618 170.192 56.0751 170.218 56.0937C170.243 56.1123 170.265 56.1358 170.282 56.1629C170.299 56.19 170.31 56.2201 170.315 56.2516C170.32 56.2831 170.319 56.3152 170.312 56.3463C170.305 56.3773 170.292 56.4066 170.273 56.4325C169.885 56.9736 169.47 57.5034 169.039 58.0085C169.031 58.0183 169.022 58.0274 169.013 58.0356V58.0344ZM171.927 53.7358C171.884 53.7726 171.83 53.7933 171.774 53.7943C171.717 53.7953 171.662 53.7766 171.618 53.7414C171.574 53.7063 171.544 53.6568 171.532 53.6015C171.521 53.5463 171.529 53.4887 171.555 53.4387C171.859 52.8616 172.142 52.2654 172.395 51.6687C172.407 51.6393 172.425 51.6127 172.448 51.5903C172.471 51.5679 172.497 51.5502 172.527 51.5382C172.556 51.5263 172.588 51.5202 172.62 51.5205C172.652 51.5208 172.683 51.5273 172.712 51.5397C172.742 51.5522 172.768 51.5703 172.791 51.5931C172.813 51.6158 172.831 51.6428 172.843 51.6723C172.855 51.7019 172.861 51.7336 172.86 51.7655C172.86 51.7974 172.854 51.829 172.841 51.8583C172.582 52.469 172.293 53.0778 171.983 53.6669C171.969 53.6934 171.95 53.7172 171.927 53.7371V53.7358ZM173.818 48.9018C173.779 48.936 173.73 48.9566 173.679 48.9607C173.627 48.9647 173.575 48.952 173.531 48.9243C173.487 48.8967 173.454 48.8556 173.435 48.8071C173.416 48.7587 173.413 48.7054 173.427 48.6553C173.595 48.0269 173.737 47.3834 173.851 46.7411C173.856 46.7092 173.867 46.6785 173.884 46.6509C173.901 46.6233 173.923 46.5994 173.949 46.5805C173.976 46.5617 174.005 46.5483 174.037 46.5411C174.068 46.5339 174.101 46.5332 174.133 46.5388C174.165 46.5445 174.195 46.5564 174.222 46.574C174.249 46.5916 174.272 46.6144 174.291 46.6411C174.309 46.6679 174.321 46.698 174.328 46.7297C174.334 46.7614 174.334 46.7941 174.328 46.8259C174.212 47.482 174.066 48.1394 173.895 48.7811C173.883 48.8287 173.857 48.8718 173.821 48.9043L173.818 48.9018ZM174.587 43.7675C174.551 43.7983 174.507 43.818 174.461 43.8241C174.414 43.8303 174.366 43.8226 174.324 43.8021C174.281 43.7815 174.246 43.749 174.222 43.7085C174.197 43.668 174.185 43.6213 174.187 43.5741C174.211 42.9243 174.207 42.2643 174.176 41.6145C174.174 41.5508 174.197 41.4889 174.24 41.4422C174.283 41.3954 174.343 41.3674 174.406 41.3644C174.47 41.3613 174.532 41.3834 174.579 41.4258C174.626 41.4682 174.655 41.5275 174.659 41.5911C174.692 42.2561 174.695 42.93 174.671 43.5937C174.671 43.6272 174.663 43.6602 174.649 43.6905C174.635 43.7209 174.615 43.748 174.589 43.7701L174.587 43.7675ZM174.199 38.5878C174.167 38.6157 174.128 38.6345 174.086 38.6421C174.023 38.654 173.957 38.6403 173.904 38.604C173.851 38.5678 173.815 38.5119 173.803 38.4487C173.682 37.8077 173.533 37.1648 173.361 36.5384C173.353 36.5076 173.35 36.4755 173.354 36.4439C173.358 36.4123 173.368 36.3817 173.384 36.3539C173.415 36.2978 173.468 36.2566 173.53 36.2394C173.591 36.2221 173.658 36.2302 173.714 36.2618C173.77 36.2935 173.811 36.3461 173.828 36.4081C174.005 37.0479 174.158 37.704 174.281 38.3583C174.29 38.4006 174.287 38.4444 174.272 38.4852C174.258 38.5259 174.234 38.5622 174.201 38.5903L174.199 38.5878ZM172.678 33.6217C172.659 33.6378 172.638 33.6508 172.615 33.6602C172.556 33.685 172.49 33.6856 172.431 33.6619C172.372 33.6383 172.325 33.5922 172.299 33.5338C172.04 32.9358 171.753 32.3422 171.444 31.7688C171.413 31.7121 171.407 31.6455 171.425 31.5838C171.444 31.5221 171.486 31.4703 171.543 31.4398C171.599 31.4093 171.666 31.4026 171.727 31.4211C171.789 31.4397 171.84 31.482 171.871 31.5387C172.186 32.1235 172.479 32.7297 172.743 33.3404C172.765 33.3881 172.77 33.4416 172.759 33.4928C172.748 33.5439 172.72 33.59 172.68 33.6242L172.678 33.6217ZM170.093 29.1176L170.078 29.129C170.053 29.1479 170.024 29.1616 169.993 29.1692C169.962 29.1768 169.93 29.1782 169.898 29.1734C169.867 29.1686 169.837 29.1576 169.809 29.1411C169.782 29.1246 169.758 29.1029 169.74 29.0772C169.399 28.6138 169.037 28.158 168.664 27.7225C168.614 27.6643 168.564 27.6068 168.513 27.5493C168.471 27.5007 168.45 27.4374 168.454 27.3731C168.458 27.3088 168.487 27.2487 168.535 27.206C168.584 27.1643 168.646 27.1433 168.71 27.1477C168.774 27.1521 168.833 27.1814 168.875 27.2294C168.927 27.2888 168.979 27.3476 169.029 27.4071C169.411 27.8496 169.781 28.3173 170.128 28.7908C170.165 28.8395 170.183 28.9005 170.177 28.9616C170.171 29.0227 170.143 29.0794 170.097 29.1202L170.093 29.1176ZM166.571 25.3071C166.527 25.3447 166.472 25.3654 166.414 25.3654C166.356 25.3654 166.3 25.3447 166.256 25.3071C165.765 24.8823 165.247 24.4733 164.72 24.0908C164.668 24.0531 164.633 23.9962 164.623 23.9326C164.613 23.869 164.628 23.8039 164.666 23.7517C164.703 23.6995 164.76 23.6644 164.823 23.6541C164.887 23.6439 164.952 23.6593 165.004 23.697C165.543 24.0877 166.071 24.5055 166.572 24.9385C166.621 24.9806 166.651 25.0403 166.656 25.1045C166.66 25.1687 166.64 25.2322 166.598 25.2812C166.591 25.291 166.584 25.3005 166.576 25.3096L166.571 25.3071ZM162.294 22.3733C162.257 22.4051 162.211 22.425 162.163 22.4304C162.115 22.4358 162.066 22.4265 162.023 22.4036C161.447 22.0964 160.853 21.8113 160.257 21.5559C160.227 21.5446 160.199 21.5271 160.175 21.5045C160.151 21.4819 160.132 21.4546 160.119 21.4245C160.106 21.3943 160.099 21.3618 160.099 21.3289C160.099 21.2961 160.106 21.2635 160.118 21.2333C160.131 21.203 160.15 21.1757 160.174 21.1529C160.197 21.1302 160.225 21.1125 160.256 21.101C160.287 21.0894 160.319 21.0842 160.352 21.0857C160.385 21.0872 160.417 21.0953 160.447 21.1097C161.055 21.3701 161.662 21.6615 162.249 21.9744C162.283 21.9929 162.313 22.0197 162.335 22.0525C162.358 22.0852 162.372 22.1228 162.376 22.1622C162.38 22.2015 162.375 22.2413 162.36 22.2781C162.346 22.3149 162.323 22.3476 162.293 22.3733H162.294Z" fill="#98B1DC"/>
      <path d="M162.502 63.3115C162.489 63.323 162.475 63.333 162.459 63.3412C162.17 63.4986 161.877 63.6497 161.59 63.7906C161.532 63.819 161.465 63.8231 161.405 63.8023C161.344 63.7814 161.294 63.7372 161.266 63.6794C161.237 63.6215 161.233 63.5548 161.254 63.4939C161.275 63.4329 161.319 63.3828 161.377 63.3544C161.658 63.2166 161.944 63.0681 162.228 62.9119C162.281 62.8836 162.342 62.8756 162.4 62.8895C162.458 62.9035 162.509 62.9384 162.543 62.9875C162.577 63.0367 162.591 63.0967 162.584 63.156C162.576 63.2153 162.547 63.2698 162.502 63.3089V63.3115Z" fill="#98B1DC"/>
      <path d="M144.426 65.0526C144.395 65.0797 144.357 65.0983 144.317 65.1066C144.276 65.1149 144.234 65.1127 144.195 65.1C143.887 65.002 143.575 64.8958 143.269 64.784C143.239 64.7731 143.211 64.7564 143.188 64.7349C143.164 64.7134 143.145 64.6874 143.132 64.6586C143.118 64.6297 143.111 64.5984 143.109 64.5666C143.108 64.5347 143.113 64.5029 143.124 64.4729C143.134 64.443 143.151 64.4154 143.172 64.3919C143.194 64.3684 143.22 64.3493 143.249 64.3358C143.277 64.3223 143.309 64.3147 143.34 64.3132C143.372 64.3118 143.404 64.3167 143.434 64.3276C143.734 64.4375 144.04 64.5418 144.341 64.6379C144.382 64.651 144.419 64.6748 144.448 64.7069C144.477 64.739 144.497 64.7782 144.505 64.8205C144.514 64.8629 144.511 64.9068 144.497 64.9477C144.483 64.9886 144.459 65.025 144.426 65.0533V65.0526Z" fill="#98B1DC"/>
      <path d="M140.621 63.4503C140.584 63.482 140.539 63.5019 140.49 63.5074C140.442 63.5128 140.393 63.5034 140.35 63.4806C139.774 63.1759 139.203 62.8415 138.651 62.4881C138.605 62.4506 138.574 62.3972 138.565 62.3384C138.555 62.2795 138.568 62.2191 138.6 62.1689C138.632 62.1186 138.681 62.0819 138.739 62.0658C138.796 62.0498 138.857 62.0554 138.911 62.0817C139.451 62.4287 140.01 62.7555 140.574 63.0545C140.631 63.0848 140.673 63.1362 140.692 63.1977C140.711 63.2592 140.705 63.3257 140.675 63.3826C140.661 63.4082 140.643 63.4311 140.621 63.4503ZM136.397 60.5841C136.353 60.6217 136.297 60.6424 136.239 60.6424C136.181 60.6424 136.125 60.6217 136.081 60.5841C135.583 60.1593 135.097 59.7092 134.638 59.2452C134.615 59.2227 134.597 59.1959 134.585 59.1663C134.572 59.1366 134.566 59.1048 134.565 59.0726C134.565 59.0405 134.572 59.0086 134.584 58.9789C134.596 58.9492 134.614 58.9222 134.637 58.8995C134.66 58.8769 134.687 58.859 134.717 58.8469C134.746 58.8348 134.778 58.8287 134.81 58.8291C134.842 58.8294 134.874 58.8362 134.903 58.8489C134.933 58.8616 134.96 58.8801 134.982 58.9033C135.431 59.3571 135.907 59.7984 136.395 60.2137C136.444 60.2556 136.474 60.3151 136.48 60.3793C136.485 60.4434 136.465 60.5071 136.423 60.5563C136.415 60.566 136.407 60.5753 136.399 60.5841H136.397ZM132.901 56.8627C132.896 56.8657 132.892 56.8691 132.888 56.8728C132.862 56.892 132.834 56.9059 132.803 56.9138C132.772 56.9218 132.74 56.9235 132.708 56.919C132.677 56.9145 132.646 56.9038 132.619 56.8875C132.592 56.8712 132.568 56.8497 132.549 56.8241C132.157 56.3013 131.782 55.7552 131.435 55.2002C131.417 55.1732 131.404 55.1428 131.398 55.1107C131.391 55.0787 131.392 55.0457 131.398 55.0138C131.405 54.9818 131.418 54.9515 131.437 54.9247C131.455 54.8979 131.479 54.8751 131.507 54.8578C131.534 54.8404 131.565 54.8288 131.597 54.8236C131.629 54.8185 131.662 54.8199 131.694 54.8278C131.725 54.8357 131.755 54.8499 131.781 54.8696C131.807 54.8892 131.829 54.9139 131.845 54.9422C132.185 55.4859 132.552 56.0207 132.936 56.5327C132.973 56.5818 132.99 56.6431 132.984 56.7043C132.978 56.7655 132.949 56.8221 132.902 56.8627H132.901ZM130.306 52.4617C130.288 52.4767 130.268 52.4892 130.247 52.499C130.218 52.5121 130.187 52.5193 130.155 52.5203C130.123 52.5213 130.092 52.5159 130.062 52.5046C130.032 52.4933 130.005 52.4762 129.982 52.4543C129.959 52.4324 129.94 52.4061 129.927 52.377C129.659 51.7809 129.413 51.1658 129.196 50.5482C129.185 50.5181 129.18 50.486 129.181 50.4538C129.182 50.4217 129.19 50.3902 129.204 50.3611C129.217 50.3319 129.236 50.3058 129.26 50.2842C129.284 50.2627 129.312 50.246 129.342 50.2353C129.372 50.2246 129.404 50.22 129.436 50.2218C129.468 50.2236 129.5 50.2318 129.529 50.2458C129.557 50.2599 129.583 50.2796 129.604 50.3037C129.626 50.3278 129.642 50.3559 129.652 50.3864C129.865 50.9914 130.106 51.5938 130.368 52.1779C130.39 52.2254 130.396 52.2787 130.385 52.3298C130.374 52.381 130.347 52.4272 130.308 52.4617H130.306ZM128.734 47.5993C128.702 47.6269 128.663 47.6458 128.622 47.6539C128.58 47.662 128.538 47.6591 128.498 47.6455C128.458 47.6318 128.422 47.608 128.394 47.5763C128.366 47.5445 128.347 47.506 128.339 47.4646C128.206 46.8236 128.1 46.1694 128.024 45.5195C128.016 45.4556 128.034 45.3912 128.074 45.3405C128.113 45.2898 128.171 45.257 128.235 45.2493C128.299 45.2416 128.363 45.2596 128.414 45.2994C128.464 45.3391 128.497 45.3974 128.505 45.4614C128.581 46.0973 128.686 46.7383 128.815 47.366C128.824 47.4085 128.821 47.4526 128.807 47.4936C128.793 47.5347 128.768 47.5712 128.735 47.5993H128.734ZM128.254 42.5112C128.219 42.5419 128.175 42.5617 128.129 42.568C128.082 42.5744 128.035 42.5671 127.993 42.547C127.95 42.5269 127.915 42.4949 127.89 42.4549C127.865 42.4148 127.853 42.3685 127.854 42.3215C127.864 41.6666 127.903 41.0054 127.967 40.3549C127.975 40.292 128.007 40.2347 128.057 40.1952C128.106 40.1556 128.169 40.137 128.232 40.1433C128.295 40.1496 128.353 40.1802 128.393 40.2287C128.434 40.2773 128.454 40.3398 128.449 40.403C128.386 41.0402 128.348 41.6881 128.338 42.3297C128.338 42.3642 128.331 42.3982 128.316 42.4295C128.302 42.4608 128.281 42.4886 128.255 42.5112H128.254ZM128.896 37.4426C128.857 37.4762 128.808 37.4965 128.757 37.5007C128.706 37.5049 128.655 37.4927 128.611 37.466C128.568 37.4392 128.533 37.3992 128.514 37.3517C128.494 37.3042 128.49 37.2517 128.502 37.2018C128.655 36.5652 128.838 35.9274 129.044 35.3054C129.054 35.2751 129.07 35.2471 129.091 35.223C129.111 35.1989 129.137 35.1792 129.165 35.1649C129.194 35.1507 129.225 35.1422 129.256 35.1399C129.288 35.1376 129.32 35.1417 129.35 35.1517C129.38 35.1618 129.408 35.1778 129.432 35.1987C129.456 35.2196 129.476 35.245 129.49 35.2735C129.504 35.3021 129.513 35.3331 129.515 35.3649C129.517 35.3968 129.513 35.4287 129.503 35.459C129.302 36.0665 129.125 36.691 128.973 37.3143C128.962 37.3639 128.935 37.4088 128.897 37.4426H128.896ZM130.633 32.6383C130.591 32.6749 130.537 32.6957 130.481 32.6972C130.426 32.6986 130.371 32.6807 130.327 32.6464C130.283 32.6121 130.252 32.5635 130.239 32.509C130.227 32.4544 130.233 32.3971 130.258 32.3469C130.546 31.7622 130.863 31.18 131.201 30.618C131.217 30.5907 131.239 30.5669 131.265 30.5481C131.29 30.5292 131.32 30.5156 131.351 30.508C131.382 30.5004 131.414 30.499 131.445 30.5039C131.477 30.5088 131.507 30.5199 131.534 30.5365C131.561 30.5531 131.585 30.5749 131.604 30.6007C131.623 30.6265 131.636 30.6557 131.644 30.6868C131.652 30.7178 131.653 30.7501 131.648 30.7817C131.643 30.8132 131.632 30.8436 131.616 30.8709C131.285 31.4215 130.974 31.991 130.692 32.5644C130.678 32.5925 130.659 32.6176 130.635 32.6383H130.633ZM133.374 28.3284C133.328 28.3683 133.269 28.3896 133.209 28.388C133.148 28.3864 133.09 28.3621 133.047 28.3198C133.003 28.2776 132.977 28.2204 132.973 28.1598C132.97 28.0991 132.989 28.0392 133.027 27.9921C133.437 27.4801 133.873 26.9807 134.322 26.5085C134.366 26.4618 134.427 26.4348 134.491 26.4333C134.555 26.4317 134.618 26.4558 134.664 26.5002C134.711 26.5447 134.738 26.6058 134.739 26.6702C134.741 26.7345 134.717 26.7969 134.672 26.8435C134.231 27.3062 133.807 27.7949 133.405 28.2974C133.396 28.3085 133.386 28.3189 133.376 28.3284H133.374ZM138.557 23.5696C138.55 23.5762 138.542 23.5821 138.533 23.5873C138.001 23.9439 137.477 24.3263 136.978 24.7252C136.953 24.7451 136.925 24.7599 136.894 24.7688C136.864 24.7777 136.832 24.7804 136.8 24.7769C136.769 24.7734 136.738 24.7637 136.71 24.7483C136.682 24.7329 136.658 24.7122 136.638 24.6873C136.618 24.6625 136.603 24.6339 136.594 24.6032C136.584 24.5725 136.582 24.5402 136.585 24.5084C136.589 24.4765 136.599 24.4457 136.614 24.4178C136.63 24.3899 136.651 24.3654 136.677 24.3459C137.187 23.9382 137.721 23.5469 138.265 23.1834C138.316 23.1491 138.379 23.1357 138.439 23.146C138.5 23.1562 138.555 23.1894 138.592 23.2387C138.629 23.288 138.647 23.3497 138.64 23.4112C138.633 23.4727 138.604 23.5294 138.557 23.5696Z" fill="#98B1DC"/>
      <path d="M142.193 21.5856C142.174 21.6013 142.153 21.6143 142.13 21.6241C141.836 21.7506 141.543 21.8865 141.26 22.0243C141.202 22.0513 141.136 22.0545 141.076 22.0331C141.016 22.0118 140.967 21.9677 140.939 21.9103C140.912 21.8529 140.907 21.7868 140.928 21.7264C140.948 21.666 140.992 21.6161 141.048 21.5875C141.338 21.4471 141.637 21.3093 141.937 21.1785C141.99 21.1573 142.049 21.1555 142.103 21.1733C142.157 21.1911 142.204 21.2275 142.234 21.2761C142.264 21.3247 142.276 21.3823 142.268 21.4389C142.26 21.4954 142.232 21.5474 142.19 21.5856H142.193Z" fill="#98B1DC"/>
      <path d="M146.292 25.5771C146.235 25.5872 146.182 25.6149 146.142 25.6562C146.101 25.6976 146.075 25.7505 146.065 25.8078L145.542 29.1613C144.069 29.7966 142.71 30.6683 141.517 31.7423L138.263 30.8156C138.207 30.7999 138.148 30.8018 138.093 30.8213C138.039 30.8408 137.992 30.8768 137.958 30.9244L135.637 34.2671C135.604 34.3147 135.586 34.3714 135.587 34.4295C135.587 34.4875 135.606 34.5439 135.64 34.5908L137.633 37.3318C137.041 38.825 136.696 40.405 136.611 42.0096L133.655 43.6627C133.604 43.6907 133.563 43.7339 133.538 43.7863C133.513 43.8387 133.506 43.8976 133.516 43.9547L134.23 47.9625C134.24 48.0196 134.267 48.0722 134.309 48.1128C134.35 48.1533 134.403 48.1799 134.46 48.1888L137.802 48.7141C138.436 50.1906 139.305 51.5536 140.376 52.7497L139.455 56.0128C139.439 56.0686 139.441 56.128 139.46 56.1827C139.48 56.2374 139.516 56.2845 139.564 56.3175L142.895 58.6457C142.942 58.6793 142.998 58.6973 143.056 58.6973C143.114 58.6973 143.17 58.6793 143.217 58.6457L145.951 56.6469C147.441 57.2407 149.017 57.587 150.617 57.6722L152.266 60.6363C152.294 60.6871 152.337 60.7278 152.39 60.7528C152.442 60.7777 152.501 60.7856 152.558 60.7754L156.555 60.0598C156.612 60.0496 156.664 60.0218 156.705 59.9803C156.745 59.9389 156.772 59.8858 156.781 59.8284L157.305 56.4781C158.777 55.8432 160.137 54.9716 161.329 53.8977L164.584 54.8238C164.64 54.8398 164.699 54.8379 164.753 54.8184C164.808 54.7989 164.855 54.7628 164.888 54.715L167.21 51.3754C167.243 51.3278 167.26 51.271 167.26 51.213C167.259 51.155 167.24 51.0987 167.206 51.0518L165.214 48.3007C165.806 46.8075 166.152 45.2275 166.237 43.6228L169.193 41.9698C169.243 41.9414 169.284 41.898 169.309 41.8455C169.333 41.7931 169.341 41.7342 169.331 41.6771L168.617 37.6693C168.607 37.6122 168.579 37.5597 168.538 37.5192C168.497 37.4786 168.444 37.452 168.387 37.443L165.045 36.9177C164.411 35.4413 163.542 34.0783 162.471 32.8827L163.395 29.6196C163.411 29.5638 163.409 29.5045 163.389 29.4499C163.37 29.3953 163.334 29.3481 163.286 29.3149L159.955 26.9867C159.908 26.9537 159.851 26.9363 159.793 26.937C159.736 26.9377 159.679 26.9564 159.633 26.9905L156.899 28.9887C155.409 28.395 153.834 28.0487 152.233 27.9634L150.584 24.9993C150.556 24.9486 150.513 24.908 150.46 24.8832C150.408 24.8584 150.349 24.8506 150.292 24.8608L146.292 25.5771Z" fill="#98B1DC"/>
      <path d="M154.017 45.8298C153.727 46.0789 153.404 46.2852 153.056 46.4423C152.146 46.8523 151.114 46.9015 150.169 46.5798C149.224 46.2582 148.435 45.5896 147.961 44.7086C147.487 43.8276 147.364 42.7994 147.616 41.8309C147.868 40.8624 148.476 40.0254 149.318 39.4881C150.16 38.9509 151.174 38.7533 152.156 38.935C153.137 39.1168 154.014 39.6644 154.609 40.4678C155.204 41.2712 155.474 42.2708 155.364 43.2656C155.254 44.2603 154.773 45.1765 154.017 45.8298ZM149.305 40.3529C148.895 40.7071 148.581 41.1588 148.391 41.6665C148.125 42.3701 148.112 43.1441 148.352 43.8567C148.592 44.5693 149.071 45.1764 149.708 45.5745C150.344 45.9726 151.099 46.1372 151.842 46.0401C152.586 45.943 153.274 45.5903 153.787 45.0421C154.301 44.4938 154.609 43.784 154.659 43.0335C154.71 42.2831 154.499 41.5384 154.062 40.9263C153.626 40.3143 152.992 39.8728 152.268 39.6771C151.543 39.4813 150.774 39.5435 150.09 39.8529C149.806 39.981 149.541 40.1494 149.305 40.3529Z" fill="#C0CFEB"/>
      <path d="M158.073 50.6225C154.642 53.5815 149.516 53.9684 145.635 51.2546C144.936 50.7661 144.3 50.1909 143.744 49.5428C140.792 46.1026 140.406 40.9621 143.11 37.0712C143.159 37.0017 143.209 36.9321 143.259 36.8639C143.597 36.402 143.973 35.9693 144.383 35.5705C144.431 35.5244 144.479 35.4782 144.528 35.4333L145.023 35.9662C144.531 36.4262 144.09 36.9373 143.706 37.491L143.695 37.5061C140.731 41.7838 141.789 47.6836 146.051 50.6598C150.313 53.6359 156.21 52.5872 159.186 48.3082C161.697 44.6961 161.338 39.9228 158.598 36.7292C157.784 35.7819 156.791 35.0055 155.677 34.4447C154.562 33.8838 153.348 33.5498 152.104 33.4617L152.154 32.7354C153.494 32.8295 154.803 33.1889 156.004 33.7928C157.205 34.3967 158.275 35.2331 159.152 36.2539C162.104 39.694 162.49 44.8346 159.786 48.7254C159.297 49.4274 158.722 50.0648 158.073 50.6225Z" fill="#C0CFEB"/>
      <path d="M138.356 2.73259C138.338 2.7482 138.316 2.75913 138.293 2.76443C138.27 2.76972 138.246 2.7692 138.223 2.76293C138.033 2.71236 137.849 2.66558 137.664 2.62386C137.644 2.62083 137.625 2.61377 137.609 2.60313C137.592 2.59248 137.577 2.57848 137.566 2.56197C137.555 2.54547 137.547 2.52683 137.543 2.5072C137.539 2.48756 137.54 2.46736 137.544 2.44784C137.548 2.42833 137.556 2.40991 137.568 2.39373C137.58 2.37755 137.595 2.36395 137.612 2.35379C137.629 2.34362 137.648 2.33709 137.668 2.33462C137.688 2.33214 137.708 2.33377 137.727 2.3394C137.916 2.38175 138.105 2.42979 138.298 2.481C138.324 2.48761 138.347 2.5013 138.366 2.52053C138.384 2.53977 138.397 2.5638 138.403 2.58998C138.409 2.61616 138.408 2.64345 138.399 2.66884C138.39 2.69424 138.375 2.71674 138.354 2.73385L138.356 2.73259Z" fill="#98B1DC"/>
      <path d="M143.798 26.8079C143.54 27.0298 143.272 27.2454 142.999 27.447C142.984 27.4598 142.966 27.4692 142.947 27.4749C142.928 27.4805 142.908 27.4822 142.889 27.4798C142.869 27.4774 142.85 27.471 142.833 27.461C142.816 27.451 142.801 27.4376 142.789 27.4216C142.777 27.4056 142.769 27.3873 142.764 27.368C142.76 27.3486 142.759 27.3285 142.763 27.3089C142.766 27.2893 142.774 27.2707 142.785 27.2541C142.796 27.2375 142.81 27.2234 142.827 27.2125C143.142 26.9799 143.447 26.7302 143.741 26.471C143.77 26.4504 143.806 26.4416 143.842 26.4461C143.878 26.4507 143.911 26.4683 143.934 26.4956C143.958 26.523 143.97 26.5581 143.969 26.5941C143.969 26.6302 143.955 26.6647 143.93 26.691L143.798 26.8079ZM145.287 25.3123C145.259 25.3359 145.223 25.3482 145.187 25.3467C145.15 25.3452 145.116 25.33 145.09 25.3042C145.064 25.2784 145.049 25.2438 145.047 25.2072C145.046 25.1707 145.058 25.1349 145.081 25.1068C145.333 24.8091 145.579 24.4975 145.808 24.1789C145.83 24.1474 145.864 24.1263 145.902 24.12C145.941 24.1138 145.98 24.123 146.011 24.1457C146.042 24.1683 146.063 24.2025 146.07 24.2407C146.076 24.279 146.067 24.3181 146.044 24.3495C145.811 24.6745 145.561 24.9931 145.303 25.2978C145.297 25.3047 145.292 25.3098 145.287 25.3148V25.3123ZM147.038 22.73C147.012 22.7518 146.979 22.764 146.946 22.7644C146.912 22.7649 146.879 22.7536 146.853 22.7325C146.826 22.7114 146.808 22.6817 146.801 22.6487C146.794 22.6156 146.799 22.5811 146.814 22.5511C146.997 22.2047 147.167 21.8463 147.319 21.4866C147.334 21.4516 147.363 21.4241 147.399 21.4101C147.434 21.3961 147.474 21.3966 147.509 21.4116C147.544 21.4267 147.572 21.4549 147.587 21.4903C147.601 21.5258 147.601 21.5655 147.587 21.601C147.431 21.9676 147.258 22.3336 147.071 22.6876C147.063 22.7047 147.052 22.72 147.038 22.7325V22.73ZM148.176 19.8221C148.153 19.8423 148.123 19.8543 148.092 19.8566C148.061 19.8588 148.031 19.851 148.004 19.8345C147.978 19.8179 147.958 19.7933 147.946 19.7644C147.935 19.7355 147.933 19.7036 147.941 19.6736C148.042 19.2943 148.13 18.9093 148.193 18.5237C148.197 18.5047 148.203 18.4865 148.214 18.4701C148.224 18.4538 148.237 18.4396 148.253 18.4285C148.269 18.4173 148.286 18.4094 148.305 18.4052C148.324 18.4009 148.343 18.4005 148.362 18.4038C148.381 18.4072 148.399 18.4142 148.416 18.4246C148.432 18.435 148.446 18.4485 148.457 18.4644C148.468 18.4802 148.475 18.4981 148.479 18.517C148.484 18.5358 148.484 18.5553 148.48 18.5743C148.41 18.9687 148.323 19.3638 148.22 19.7494C148.215 19.779 148.2 19.8061 148.179 19.8272L148.176 19.8221ZM148.639 16.736C148.611 16.7602 148.575 16.7729 148.538 16.7714C148.519 16.7707 148.5 16.7662 148.483 16.7581C148.466 16.7501 148.45 16.7387 148.437 16.7246C148.424 16.7106 148.414 16.694 148.407 16.676C148.401 16.658 148.398 16.6389 148.398 16.6197C148.413 16.229 148.41 15.8327 148.391 15.4414C148.391 15.4222 148.394 15.403 148.4 15.3849C148.407 15.3669 148.417 15.3503 148.43 15.3361C148.443 15.322 148.459 15.3106 148.476 15.3025C148.493 15.2944 148.512 15.2898 148.531 15.289C148.551 15.2882 148.57 15.2913 148.588 15.2979C148.606 15.3045 148.622 15.3146 148.636 15.3277C148.65 15.3407 148.662 15.3564 148.67 15.3738C148.678 15.3913 148.683 15.4102 148.683 15.4294C148.703 15.8295 148.705 16.2341 148.69 16.6304C148.69 16.6516 148.686 16.6724 148.677 16.6915C148.668 16.7106 148.655 16.7275 148.639 16.7411V16.736ZM148.405 13.6227C148.386 13.6395 148.362 13.6508 148.337 13.6556C148.312 13.6604 148.286 13.6585 148.262 13.6501C148.238 13.6416 148.216 13.6269 148.2 13.6075C148.183 13.588 148.172 13.5645 148.167 13.5393C148.094 13.1543 148.005 12.7674 147.9 12.3913C147.895 12.3727 147.893 12.3533 147.895 12.334C147.897 12.3148 147.903 12.2962 147.913 12.2793C147.922 12.2623 147.935 12.2475 147.95 12.2355C147.965 12.2235 147.982 12.2146 148.001 12.2094C148.019 12.2042 148.039 12.2028 148.058 12.2052C148.077 12.2076 148.096 12.2138 148.112 12.2234C148.129 12.2331 148.144 12.2459 148.156 12.2613C148.167 12.2766 148.176 12.2942 148.181 12.3129C148.287 12.6973 148.379 13.0917 148.453 13.4849C148.459 13.5108 148.457 13.5378 148.449 13.563C148.441 13.5882 148.425 13.6106 148.405 13.6278V13.6227ZM147.491 10.6384C147.48 10.648 147.467 10.6558 147.454 10.6617C147.419 10.6762 147.379 10.6764 147.344 10.6623C147.309 10.6481 147.28 10.6207 147.265 10.5859C147.11 10.2262 146.936 9.86968 146.751 9.52516C146.733 9.49104 146.728 9.45103 146.74 9.41392C146.751 9.37681 146.776 9.34565 146.81 9.3273C146.844 9.30894 146.884 9.30488 146.921 9.31603C146.958 9.32717 146.989 9.3526 147.007 9.38672C147.197 9.73819 147.373 10.1029 147.532 10.4696C147.545 10.499 147.548 10.532 147.541 10.5635C147.534 10.5949 147.516 10.623 147.491 10.6434V10.6384ZM145.939 7.93089L145.93 7.93785C145.915 7.9493 145.897 7.95759 145.878 7.96224C145.86 7.96688 145.841 7.96779 145.822 7.96491C145.803 7.96203 145.785 7.95542 145.768 7.94546C145.752 7.93549 145.738 7.92238 145.726 7.90687C145.522 7.6281 145.304 7.35438 145.08 7.09267L144.989 6.98837C144.964 6.95928 144.951 6.92123 144.953 6.88258C144.956 6.84393 144.973 6.80786 145.002 6.78229C145.031 6.75703 145.069 6.74431 145.107 6.74692C145.146 6.74953 145.181 6.76725 145.207 6.7962L145.299 6.90303C145.528 7.17042 145.751 7.44983 145.96 7.73493C145.983 7.76466 145.993 7.80217 145.989 7.83963C145.986 7.87709 145.967 7.9116 145.939 7.93595V7.93089ZM143.822 5.64064C143.796 5.66321 143.762 5.67561 143.728 5.67561C143.693 5.67561 143.659 5.66321 143.633 5.64064C143.337 5.38778 143.027 5.13998 142.71 4.90988C142.693 4.89917 142.679 4.88516 142.668 4.86871C142.657 4.85226 142.649 4.83371 142.645 4.81419C142.642 4.79468 142.642 4.77461 142.646 4.75522C142.651 4.73583 142.659 4.71752 142.67 4.70142C142.682 4.68531 142.697 4.67175 142.714 4.66155C142.731 4.65136 142.75 4.64475 142.769 4.64214C142.789 4.63952 142.809 4.64095 142.828 4.64633C142.847 4.65172 142.865 4.66095 142.88 4.67346C143.204 4.90798 143.521 5.15895 143.826 5.41939C143.84 5.43192 143.852 5.44719 143.861 5.46433C143.87 5.48147 143.875 5.50014 143.876 5.51928C143.877 5.53842 143.875 5.55765 143.869 5.57587C143.863 5.59409 143.854 5.61094 143.841 5.62547C143.836 5.63295 143.829 5.63975 143.822 5.6457V5.64064ZM141.252 3.87759C141.229 3.89677 141.202 3.90878 141.173 3.91205C141.144 3.91532 141.114 3.9097 141.088 3.89592C140.742 3.71134 140.385 3.54003 140.027 3.38642C139.992 3.37116 139.964 3.34238 139.949 3.3064C139.935 3.27042 139.935 3.23019 139.95 3.19456C139.966 3.15893 139.994 3.13083 140.03 3.11642C140.066 3.10202 140.106 3.1025 140.142 3.11776C140.508 3.27453 140.872 3.44963 141.224 3.63801C141.242 3.64677 141.257 3.65883 141.269 3.67349C141.282 3.68816 141.291 3.70515 141.297 3.72348C141.303 3.74181 141.305 3.76112 141.303 3.7803C141.302 3.79948 141.296 3.81815 141.287 3.83524C141.279 3.85331 141.267 3.86944 141.252 3.88265V3.87759Z" fill="#98B1DC"/>
      <path d="M141.373 28.4861C141.365 28.4931 141.357 28.499 141.347 28.5038C141.174 28.5986 140.998 28.6897 140.825 28.7744C140.808 28.7845 140.789 28.7908 140.769 28.7931C140.749 28.7954 140.729 28.7935 140.71 28.7876C140.69 28.7817 140.673 28.7718 140.657 28.7587C140.642 28.7456 140.63 28.7295 140.621 28.7114C140.612 28.6933 140.608 28.6736 140.607 28.6535C140.606 28.6334 140.609 28.6133 140.617 28.5946C140.624 28.5759 140.635 28.5589 140.649 28.5447C140.664 28.5305 140.681 28.5194 140.699 28.512C140.868 28.4292 141.04 28.3401 141.211 28.2472C141.242 28.23 141.279 28.2251 141.314 28.2335C141.349 28.2419 141.379 28.2629 141.4 28.2925C141.42 28.3222 141.429 28.3584 141.424 28.3941C141.42 28.4298 141.402 28.4626 141.375 28.4861H141.373Z" fill="#98B1DC"/>
      <path d="M130.509 29.5311C130.49 29.5473 130.468 29.5584 130.443 29.5633C130.419 29.5683 130.394 29.567 130.37 29.5595C130.185 29.5007 129.998 29.4363 129.813 29.3699C129.778 29.356 129.75 29.3288 129.734 29.294C129.718 29.2593 129.717 29.2198 129.73 29.184C129.743 29.1481 129.769 29.1188 129.803 29.1023C129.838 29.0858 129.877 29.0834 129.913 29.0955C130.093 29.1588 130.277 29.222 130.458 29.2852C130.483 29.2925 130.506 29.3067 130.524 29.3263C130.542 29.3459 130.555 29.37 130.56 29.3961C130.565 29.4221 130.563 29.4492 130.554 29.4742C130.545 29.4992 130.53 29.5213 130.509 29.538V29.5311Z" fill="#98B1DC"/>
      <path d="M128.222 28.569C128.2 28.5883 128.173 28.6004 128.144 28.6037C128.115 28.6069 128.085 28.6012 128.06 28.5873C127.713 28.4047 127.37 28.2036 127.039 27.9912C127.007 27.9699 126.985 27.9371 126.978 27.8998C126.97 27.8624 126.977 27.8235 126.998 27.7914C127.018 27.7593 127.05 27.7365 127.087 27.7279C127.124 27.7193 127.163 27.7255 127.196 27.7453C127.52 27.9533 127.857 28.1499 128.195 28.3294C128.23 28.3472 128.255 28.378 128.267 28.415C128.279 28.4519 128.276 28.4921 128.258 28.5267C128.249 28.543 128.237 28.5574 128.222 28.569ZM125.684 26.8464C125.658 26.8691 125.625 26.8816 125.59 26.8816C125.555 26.8816 125.522 26.8691 125.495 26.8464C125.196 26.5936 124.904 26.3205 124.628 26.0417C124.602 26.0139 124.588 25.9772 124.589 25.9393C124.59 25.9014 124.605 25.8654 124.632 25.8387C124.659 25.812 124.695 25.7969 124.733 25.7964C124.771 25.796 124.807 25.8102 124.834 25.8363C125.105 26.1093 125.391 26.3742 125.684 26.6239C125.713 26.649 125.732 26.6848 125.735 26.7234C125.738 26.762 125.726 26.8003 125.701 26.83C125.696 26.836 125.69 26.8415 125.684 26.8464ZM123.583 24.6099L123.575 24.6162C123.545 24.6394 123.506 24.6493 123.468 24.6439C123.429 24.6384 123.395 24.618 123.372 24.5871C123.136 24.2711 122.911 23.9443 122.702 23.6111C122.692 23.5949 122.684 23.5767 122.681 23.5577C122.677 23.5386 122.678 23.5191 122.682 23.5002C122.686 23.4813 122.694 23.4634 122.705 23.4475C122.716 23.4317 122.73 23.4182 122.747 23.4079C122.763 23.3976 122.781 23.3907 122.8 23.3875C122.819 23.3843 122.839 23.3849 122.858 23.3894C122.876 23.3938 122.894 23.402 122.91 23.4133C122.925 23.4247 122.939 23.4391 122.949 23.4556C123.154 23.7824 123.374 24.1042 123.604 24.4114C123.627 24.441 123.637 24.478 123.633 24.5149C123.629 24.5518 123.611 24.5858 123.583 24.6099ZM122.024 21.965C122.013 21.9742 122.001 21.9817 121.988 21.9871C121.971 21.9951 121.952 21.9995 121.933 22.0001C121.914 22.0007 121.895 21.9976 121.877 21.9908C121.859 21.9841 121.843 21.9739 121.829 21.9607C121.815 21.9476 121.804 21.9319 121.796 21.9144C121.635 21.556 121.487 21.1856 121.355 20.8145C121.348 20.7964 121.346 20.7772 121.347 20.7581C121.348 20.7389 121.353 20.7202 121.361 20.7029C121.378 20.668 121.408 20.6412 121.444 20.6283C121.48 20.6155 121.52 20.6177 121.555 20.6345C121.59 20.6513 121.617 20.6812 121.63 20.7178C121.756 21.0813 121.903 21.4435 122.06 21.7924C122.074 21.8213 122.078 21.8537 122.071 21.8849C122.064 21.916 122.048 21.9442 122.024 21.965ZM121.078 19.0426C121.06 19.0586 121.038 19.0697 121.015 19.0749C120.996 19.0787 120.977 19.0789 120.958 19.0752C120.939 19.0716 120.921 19.0643 120.905 19.0538C120.889 19.0432 120.876 19.0296 120.865 19.0137C120.854 18.9978 120.847 18.9799 120.843 18.9611C120.763 18.5761 120.699 18.1829 120.654 17.7922C120.651 17.7732 120.653 17.7539 120.658 17.7354C120.663 17.7169 120.672 17.6996 120.684 17.6846C120.696 17.6695 120.71 17.6569 120.727 17.6475C120.744 17.6381 120.762 17.6321 120.781 17.6298C120.8 17.6275 120.819 17.629 120.838 17.6342C120.856 17.6393 120.873 17.6481 120.888 17.66C120.903 17.6718 120.916 17.6865 120.925 17.7033C120.935 17.72 120.941 17.7384 120.943 17.7575C120.989 18.1399 121.052 18.5249 121.132 18.9023C121.137 18.9283 121.134 18.9552 121.125 18.98C121.115 19.0047 121.099 19.0264 121.079 19.0426H121.078ZM120.79 15.9843C120.763 16.0079 120.728 16.0205 120.693 16.0197C120.674 16.0194 120.655 16.0153 120.637 16.0076C120.62 16 120.604 15.989 120.59 15.9752C120.577 15.9614 120.567 15.9451 120.56 15.9272C120.553 15.9094 120.549 15.8903 120.55 15.8712C120.556 15.478 120.579 15.0797 120.618 14.689C120.619 14.6692 120.623 14.6498 120.632 14.6319C120.641 14.614 120.653 14.5981 120.668 14.5851C120.683 14.5722 120.7 14.5624 120.719 14.5564C120.738 14.5504 120.758 14.5483 120.778 14.5503C120.797 14.5523 120.817 14.5583 120.834 14.5679C120.851 14.5775 120.866 14.5906 120.878 14.6063C120.891 14.622 120.899 14.64 120.904 14.6592C120.909 14.6785 120.91 14.6985 120.907 14.7181C120.869 15.1012 120.844 15.4906 120.844 15.8762C120.843 15.897 120.838 15.9174 120.829 15.936C120.82 15.9546 120.806 15.9711 120.79 15.9843H120.79ZM121.176 12.938C121.152 12.9581 121.123 12.9702 121.093 12.9727C121.062 12.9751 121.031 12.9678 121.005 12.9517C120.979 12.9357 120.958 12.9117 120.946 12.8832C120.935 12.8547 120.932 12.8232 120.939 12.7933C121.031 12.4108 121.14 12.0271 121.265 11.6554C121.27 11.6366 121.279 11.619 121.292 11.6039C121.304 11.5887 121.319 11.5762 121.337 11.5671C121.354 11.558 121.373 11.5525 121.393 11.5509C121.412 11.5494 121.432 11.5518 121.45 11.558C121.469 11.5642 121.486 11.5741 121.501 11.587C121.515 11.6 121.527 11.6159 121.536 11.6336C121.544 11.6513 121.549 11.6705 121.55 11.6901C121.551 11.7097 121.548 11.7293 121.541 11.7477C121.42 12.1131 121.312 12.4879 121.222 12.8628C121.214 12.8919 121.199 12.9181 121.176 12.938H121.176ZM122.22 10.0504C122.194 10.0723 122.162 10.0848 122.129 10.0857C122.095 10.0866 122.062 10.0758 122.036 10.0552C122.009 10.0346 121.99 10.0055 121.983 9.97267C121.975 9.93988 121.979 9.90548 121.994 9.87528C122.167 9.52381 122.358 9.17423 122.562 8.83604C122.581 8.80251 122.614 8.77827 122.652 8.76867C122.689 8.75907 122.729 8.76488 122.763 8.78483C122.796 8.80479 122.82 8.83724 122.83 8.87505C122.839 8.91287 122.834 8.95296 122.814 8.98649C122.614 9.31773 122.428 9.65972 122.258 10.0042C122.249 10.0221 122.236 10.0378 122.22 10.0504H122.22ZM123.867 7.4586C123.84 7.48271 123.804 7.49559 123.768 7.49468C123.731 7.49378 123.696 7.47914 123.67 7.45369C123.644 7.42823 123.628 7.39382 123.626 7.35726C123.624 7.3207 123.635 7.28467 123.659 7.25631C123.905 6.94909 124.167 6.64882 124.437 6.36499C124.463 6.33785 124.5 6.32232 124.538 6.32173C124.576 6.32114 124.613 6.33553 124.64 6.36183C124.668 6.38812 124.684 6.42423 124.686 6.4624C124.687 6.50056 124.674 6.53776 124.648 6.56601C124.384 6.84415 124.127 7.1381 123.886 7.43963C123.88 7.44682 123.874 7.45358 123.868 7.45986L123.867 7.4586ZM126.983 4.59878L126.968 4.60953C126.648 4.82319 126.334 5.05203 126.033 5.29351C126.003 5.3175 125.964 5.32851 125.926 5.32413C125.888 5.31974 125.853 5.30032 125.829 5.27012C125.817 5.25522 125.808 5.23806 125.802 5.21963C125.797 5.20119 125.795 5.18187 125.797 5.16279C125.8 5.14371 125.806 5.12526 125.815 5.10851C125.824 5.09177 125.837 5.07708 125.852 5.0653C126.159 4.82003 126.479 4.58488 126.807 4.36995C126.838 4.34949 126.875 4.34156 126.911 4.34776C126.948 4.35397 126.981 4.37384 127.003 4.40336C127.025 4.43287 127.036 4.46981 127.032 4.50669C127.028 4.54357 127.011 4.57762 126.983 4.60194V4.59878Z" fill="#98B1DC"/>
      <path d="M129.167 3.40702C129.156 3.41684 129.144 3.42475 129.13 3.43041C128.954 3.50753 128.778 3.58845 128.607 3.67126C128.572 3.68611 128.533 3.68703 128.498 3.67381C128.463 3.6606 128.434 3.63428 128.418 3.60035C128.402 3.56641 128.399 3.52749 128.411 3.49171C128.423 3.45592 128.448 3.42603 128.481 3.40829C128.655 3.32421 128.834 3.2414 129.015 3.16302C129.047 3.14943 129.082 3.14767 129.115 3.15804C129.148 3.16841 129.177 3.19023 129.195 3.2196C129.213 3.24896 129.221 3.28396 129.216 3.3183C129.211 3.35265 129.194 3.3841 129.168 3.40702H129.167Z" fill="#98B1DC"/>
      <path d="M131.631 5.80606C131.596 5.81227 131.565 5.82899 131.541 5.85389C131.516 5.8788 131.5 5.91067 131.494 5.94513L131.179 7.9604C130.294 8.3423 129.477 8.86626 128.759 9.51168L126.805 8.95476C126.772 8.94499 126.736 8.94582 126.703 8.95715C126.671 8.96847 126.642 8.98973 126.622 9.01797L125.229 11.0276C125.208 11.056 125.198 11.09 125.198 11.1249C125.198 11.1598 125.208 11.1938 125.229 11.2223L126.426 12.8696C126.071 13.7672 125.863 14.7169 125.812 15.6814L124.035 16.6751C124.005 16.6922 123.98 16.7182 123.965 16.7497C123.951 16.7812 123.946 16.8165 123.952 16.8509L124.381 19.26C124.387 19.2942 124.404 19.3257 124.429 19.3501C124.454 19.3744 124.486 19.3904 124.52 19.3959L126.53 19.7119C126.911 20.5994 127.433 21.4187 128.077 22.1375L127.522 24.0971C127.512 24.1305 127.513 24.166 127.524 24.1989C127.535 24.2317 127.557 24.2602 127.585 24.2804L129.587 25.6794C129.615 25.6997 129.649 25.7106 129.684 25.7106C129.719 25.7106 129.753 25.6997 129.781 25.6794L131.424 24.4783C132.319 24.835 133.267 25.0432 134.229 25.0946L135.22 26.876C135.237 26.9065 135.263 26.931 135.294 26.9459C135.326 26.9609 135.361 26.9656 135.395 26.9595L137.798 26.5296C137.832 26.5233 137.863 26.5066 137.888 26.4817C137.912 26.4568 137.928 26.4249 137.933 26.3905L138.248 24.3753C139.134 23.994 139.952 23.4705 140.669 22.8252L142.624 23.3822C142.657 23.3919 142.692 23.391 142.725 23.3797C142.757 23.3684 142.786 23.3471 142.806 23.3189L144.207 21.3081C144.227 21.2797 144.238 21.2456 144.238 21.2107C144.238 21.1759 144.227 21.1418 144.207 21.1134L143.009 19.466C143.365 18.5685 143.572 17.6188 143.623 16.6543L145.4 15.6605C145.43 15.6436 145.454 15.6175 145.469 15.586C145.484 15.5545 145.489 15.5191 145.483 15.4848L145.054 13.0757C145.048 13.0414 145.031 13.0099 145.006 12.9856C144.982 12.9613 144.95 12.9452 144.915 12.9398L142.905 12.6237C142.525 11.7362 142.002 10.9169 141.358 10.1982L141.914 8.23854C141.923 8.2052 141.922 8.16968 141.911 8.13685C141.9 8.10403 141.879 8.07551 141.851 8.05522L139.848 6.65629C139.82 6.63591 139.786 6.62495 139.751 6.62495C139.716 6.62495 139.682 6.63591 139.654 6.65629L138.015 7.85736C137.119 7.50066 136.172 7.29249 135.209 7.24102L134.218 5.45964C134.201 5.42911 134.175 5.40463 134.144 5.38967C134.113 5.3747 134.077 5.36999 134.043 5.3762L131.631 5.80606Z" fill="#98B1DC"/>
      <path d="M136.274 17.9796C136.1 18.1293 135.905 18.2532 135.696 18.3475C135.15 18.593 134.531 18.6219 133.964 18.4285C133.397 18.235 132.924 17.8336 132.64 17.3048C132.356 16.776 132.283 16.1592 132.434 15.5782C132.586 14.9973 132.951 14.4953 133.456 14.1733C133.962 13.8513 134.57 13.7331 135.159 13.8425C135.748 13.9519 136.274 14.2807 136.63 14.7628C136.987 15.245 137.149 15.8448 137.083 16.4415C137.017 17.0383 136.728 17.5878 136.274 17.9796ZM133.442 14.6874C133.195 14.9 133.006 15.1716 132.892 15.477C132.733 15.8995 132.726 16.3642 132.87 16.7919C133.014 17.2196 133.302 17.5838 133.685 17.8226C134.067 18.0614 134.52 18.1599 134.966 18.1013C135.413 18.0428 135.826 17.8309 136.134 17.5016C136.442 17.1724 136.627 16.7462 136.657 16.2956C136.687 15.8451 136.56 15.3981 136.298 15.0307C136.036 14.6633 135.655 14.3983 135.221 14.2809C134.786 14.1634 134.324 14.2008 133.913 14.3865C133.743 14.4638 133.584 14.5651 133.442 14.6874Z" fill="#C0CFEB"/>
      <path d="M138.712 20.86C137.584 21.8322 136.142 22.3586 134.655 22.3405C133.168 22.3224 131.739 21.7611 130.635 20.7618C129.532 19.7625 128.83 18.3939 128.661 16.9126C128.492 15.4314 128.868 13.9392 129.718 12.7161C129.747 12.6744 129.777 12.6326 129.807 12.5896C130.011 12.312 130.237 12.0519 130.483 11.8121C130.512 11.7843 130.541 11.7565 130.57 11.7293L130.868 12.0498C130.573 12.3257 130.307 12.6321 130.076 12.9639C130.074 12.9669 130.072 12.9701 130.07 12.9734C129.357 14.004 129.005 15.242 129.067 16.4947C129.129 17.7473 129.603 18.9441 130.414 19.8985C131.226 20.853 132.329 21.5115 133.553 21.7715C134.777 22.0314 136.052 21.8782 137.18 21.3357C138.308 20.7931 139.225 19.8918 139.788 18.7721C140.352 17.6524 140.53 16.3773 140.296 15.1454C140.061 13.9135 139.426 12.794 138.491 11.9615C137.555 11.129 136.371 10.6302 135.123 10.5428L135.153 10.106C136.36 10.191 137.515 10.6338 138.472 11.3782C139.428 12.1225 140.142 13.1349 140.523 14.2868C140.904 15.4387 140.936 16.6782 140.613 17.8481C140.291 19.0179 139.629 20.0653 138.712 20.8574V20.86Z" fill="#C0CFEB"/>
      <path d="M12.0421 150.543C12.0446 151.272 12.3346 151.97 12.8488 152.485C13.3631 153 14.0597 153.29 14.7867 153.292H163.223C163.95 153.291 164.647 153 165.161 152.485C165.675 151.97 165.966 151.272 165.968 150.543L167.203 65.0197C167.203 63.507 165.426 60.5549 162.169 60.7768L17.1012 57.0137C16.1646 56.9888 15.2326 57.1551 14.362 57.5023C13.4913 57.8495 12.7001 58.3705 12.0364 59.0336C11.3726 59.6967 10.8502 60.4881 10.5008 61.3598C10.1513 62.2314 9.98221 63.1652 10.0036 64.1044L12.0421 150.543Z" fill="url(#paint1_linear_719_11098)"/>
      <path d="M14.7519 147.905C14.7537 148.595 15.0279 149.256 15.5146 149.744C16.0012 150.232 16.6607 150.507 17.3489 150.509H159.643C160.332 150.507 160.991 150.232 161.478 149.744C161.964 149.256 162.238 148.595 162.24 147.905L163.406 70.2664C163.268 65.5942 159.181 63.9146 156.706 64.0139L17.6718 60.2741C17.0132 60.2569 16.358 60.374 15.7459 60.6184C15.1339 60.8628 14.5777 61.2293 14.1112 61.6958C13.6448 62.1622 13.2777 62.7188 13.0323 63.3318C12.787 63.9448 12.6684 64.6014 12.6838 65.2617L14.7519 147.905Z" fill="#98B1DC"/>
      <path d="M160.703 111.021H160.699C160.648 111.021 160.599 111.011 160.552 110.992C160.506 110.972 160.464 110.944 160.428 110.907C160.393 110.871 160.365 110.829 160.347 110.782C160.328 110.735 160.319 110.684 160.321 110.634L160.413 104.338C160.413 104.237 160.452 104.141 160.523 104.07C160.594 103.998 160.691 103.958 160.791 103.958H160.797C160.847 103.959 160.896 103.969 160.942 103.989C160.988 104.009 161.03 104.038 161.065 104.074C161.1 104.11 161.127 104.152 161.146 104.199C161.164 104.246 161.173 104.296 161.172 104.346L161.08 110.642C161.08 110.743 161.04 110.839 160.969 110.91C160.899 110.981 160.803 111.021 160.703 111.021Z" fill="#C0CFEB"/>
      <path d="M160.928 95.5918H160.923C160.873 95.5913 160.823 95.5809 160.777 95.5611C160.731 95.5413 160.69 95.5125 160.655 95.4765C160.62 95.4404 160.593 95.3978 160.574 95.3511C160.556 95.3044 160.547 95.2545 160.548 95.2043L160.901 71.0887C160.894 69.6562 160.46 68.5127 159.612 67.6972C158.027 66.1757 155.514 66.2534 155.406 66.2578L110.968 65.0631C110.918 65.0621 110.868 65.0512 110.822 65.0309C110.777 65.0107 110.735 64.9815 110.701 64.9451C110.666 64.9087 110.639 64.8658 110.622 64.8189C110.604 64.772 110.595 64.722 110.597 64.6718C110.596 64.621 110.606 64.5707 110.626 64.5239C110.645 64.4771 110.674 64.4349 110.711 64.4C110.748 64.3651 110.791 64.3383 110.839 64.3212C110.887 64.3041 110.937 64.2971 110.988 64.3007L155.4 65.4955C155.676 65.479 158.355 65.4323 160.138 67.146C161.142 68.11 161.655 69.4382 161.662 71.0925L161.309 95.2157C161.308 95.316 161.267 95.412 161.196 95.4825C161.125 95.553 161.028 95.5923 160.928 95.5918Z" fill="#C0CFEB"/>
      <path d="M0.356262 160.392L174.644 160.392C174.841 160.392 175 160.232 175 160.034V153.234C175 153.037 174.841 152.877 174.644 152.877L0.356262 152.877C0.159515 152.877 3.05176e-05 153.037 3.05176e-05 153.234V160.034C3.05176e-05 160.232 0.159515 160.392 0.356262 160.392Z" fill="url(#paint2_linear_719_11098)"/>
      <path d="M43.5616 28.2727C43.5616 25.7578 44.5581 23.346 46.3317 21.5678C48.1054 19.7895 50.5109 18.7905 53.0192 18.7905H133.438C135.575 18.79 137.63 19.6125 139.179 21.0881C140.728 22.5637 141.652 24.5794 141.761 26.7189L147.697 143.616C147.739 144.441 147.615 145.266 147.333 146.041C147.05 146.817 146.615 147.528 146.053 148.132C145.491 148.736 144.814 149.22 144.061 149.556C143.309 149.892 142.496 150.073 141.673 150.088L49.4991 151.769C48.7245 151.783 47.9548 151.642 47.2351 151.355C46.5153 151.067 45.8599 150.639 45.3072 150.094C44.7544 149.55 44.3153 148.901 44.0156 148.185C43.7159 147.468 43.5616 146.699 43.5616 145.923V28.2727Z" fill="url(#paint3_linear_719_11098)"/>
      <path d="M62.9705 149.781L52.6573 149.647C49.2085 149.603 46.4027 146.753 46.4027 143.296V127.682C46.4027 127.623 46.426 127.567 46.4673 127.525C46.5087 127.484 46.5649 127.46 46.6234 127.46C46.6819 127.46 46.738 127.484 46.7794 127.525C46.8208 127.567 46.8441 127.623 46.8441 127.682V143.296C46.8441 146.513 49.4544 149.164 52.6636 149.206L62.9768 149.34C63.0353 149.34 63.0915 149.363 63.1329 149.405C63.1742 149.446 63.1975 149.503 63.1975 149.561C63.1975 149.62 63.1742 149.676 63.1329 149.718C63.0915 149.759 63.0353 149.783 62.9768 149.783L62.9705 149.781Z" fill="#98B1DC"/>
      <path d="M46.6196 123.069C46.5612 123.069 46.5052 123.045 46.4639 123.004C46.4227 122.962 46.3995 122.906 46.3995 122.847V120.319C46.3995 120.26 46.4228 120.204 46.4642 120.162C46.5056 120.121 46.5617 120.098 46.6202 120.098C46.6787 120.098 46.7349 120.121 46.7763 120.162C46.8176 120.204 46.8409 120.26 46.8409 120.319V122.847C46.8409 122.877 46.8352 122.905 46.824 122.932C46.8129 122.959 46.7966 122.984 46.776 123.004C46.7555 123.025 46.7311 123.041 46.7042 123.052C46.6774 123.063 46.6486 123.069 46.6196 123.069Z" fill="#98B1DC"/>
      <path d="M50.1498 20.5909C50.1473 20.1966 50.2292 19.8063 50.3901 19.4464C50.5511 19.0866 50.7872 18.7656 51.0826 18.5051C51.378 18.2447 51.7257 18.0509 52.1023 17.9369C52.4788 17.8229 52.8754 17.7913 53.2652 17.8443C64.2473 19.3374 102.012 23.9552 133.235 21.5518C133.573 21.5253 133.913 21.5667 134.234 21.6738C134.556 21.7808 134.853 21.9513 135.108 22.1751C135.363 22.3989 135.571 22.6716 135.719 22.9771C135.867 23.2826 135.953 23.6147 135.971 23.9539L142.195 141.372C142.237 142.145 141.971 142.904 141.456 143.481C140.942 144.059 140.22 144.408 139.449 144.454C126.317 145.233 72.2371 148.247 52.9436 146.219C52.3767 146.159 51.8518 145.891 51.4695 145.467C51.0872 145.043 50.8744 144.493 50.8718 143.921L50.1498 20.5909Z" fill="#8193CA"/>
      <path d="M51.4435 23.5327C51.4411 23.1532 51.52 22.7776 51.6749 22.4314C51.8298 22.0851 52.057 21.7762 52.3413 21.5256C52.6255 21.275 52.9602 21.0886 53.3225 20.9789C53.6849 20.8692 54.0665 20.8388 54.4416 20.8897C65.0101 22.3266 101.351 26.7687 131.4 24.4582C131.726 24.4326 132.052 24.4724 132.362 24.5754C132.671 24.6783 132.957 24.8423 133.202 25.0577C133.448 25.273 133.647 25.5354 133.79 25.8293C133.933 26.1233 134.015 26.4429 134.033 26.7693L140.023 139.766C140.062 140.51 139.807 141.24 139.312 141.796C138.817 142.351 138.122 142.688 137.38 142.732C124.742 143.482 72.6973 146.38 54.1339 144.431C53.5882 144.373 53.0829 144.115 52.715 143.707C52.347 143.299 52.1421 142.769 52.1396 142.219L51.4435 23.5327Z" fill="#C0CFEB"/>
      <path opacity="0.78" d="M61.2272 32.2445L62.3495 56.4701C62.3671 56.8584 62.5306 57.2256 62.807 57.4981C63.0835 57.7705 63.4525 57.9281 63.84 57.9392C68.3166 58.0656 82.2589 58.4064 90.1321 57.9948C90.5614 57.9723 90.9667 57.7889 91.2676 57.481C91.5685 57.1731 91.7431 56.7632 91.7569 56.3323C91.9069 51.7891 92.2354 38.5691 91.2027 33.0385C91.1211 32.6049 90.8946 32.212 90.5605 31.9248C90.2264 31.6375 89.8046 31.4729 89.3647 31.4581L62.915 30.5308C62.6894 30.5229 62.4647 30.562 62.2549 30.6457C62.0452 30.7293 61.855 30.8556 61.6964 31.0167C61.5378 31.1777 61.4142 31.3699 61.3334 31.5813C61.2527 31.7926 61.2165 32.0184 61.2272 32.2445Z" fill="white"/>
      <g opacity="0.6">
         <path d="M127.401 34.3537C127.919 34.3537 128.333 33.9877 128.319 33.5407C128.306 33.0938 127.872 32.719 127.353 32.7114L98.3501 32.193C97.8318 32.1842 97.5487 32.5774 97.7196 33.0673L97.8583 33.4624C98.0304 33.9529 98.5954 34.3537 99.1137 34.3537H127.401Z" fill="white"/>
      </g>
      <g opacity="0.6">
         <path d="M98.3494 36.7096C97.8311 36.7002 97.548 37.0933 97.7189 37.5839L97.8576 37.979C98.0297 38.4689 98.5946 38.8697 99.1129 38.8697H127.399C127.918 38.8697 128.331 38.5043 128.318 38.0574C128.305 37.6104 127.87 37.2356 127.352 37.2274L98.3494 36.7096Z" fill="white"/>
      </g>
      <g opacity="0.6">
         <path d="M98.3494 41.2917C97.8311 41.2822 97.548 41.6754 97.7189 42.1659L97.8576 42.561C98.0297 43.0509 98.5946 43.4517 99.1129 43.4517H127.399C127.918 43.4517 128.331 43.0863 128.318 42.6394C128.305 42.1925 127.87 41.8176 127.352 41.8094L98.3494 41.2917Z" fill="white"/>
      </g>
      <g opacity="0.6">
         <path d="M130.218 65.5473C130.737 65.5473 131.136 65.1819 131.107 64.735C131.077 64.2881 130.629 63.9189 130.111 63.9132L62.1616 63.3765C61.6433 63.3721 61.4832 63.7014 61.806 64.1079L62.3615 64.807C62.6843 65.2135 63.3703 65.546 63.8904 65.546L130.218 65.5473Z" fill="white"/>
      </g>
      <g opacity="0.6">
         <path d="M62.1616 69.1709C61.6433 69.1671 61.4832 69.4965 61.806 69.9029L62.3615 70.6021C62.6843 71.0086 63.3703 71.3411 63.8904 71.3411H130.22C130.738 71.3411 131.138 70.9751 131.108 70.5281C131.078 70.0812 130.631 69.712 130.112 69.7064L62.1616 69.1709Z" fill="white"/>
      </g>
      <path d="M70.6267 98.6916H70.611L64.8734 98.6366C64.0537 98.6284 63.3772 98.0632 63.2971 97.3217L62.7927 92.4979C62.7784 92.3566 62.7929 92.2139 62.8353 92.0784C62.8776 91.9428 62.947 91.8174 63.0392 91.7096C63.1493 91.5822 63.2836 91.4782 63.4343 91.4036C63.585 91.329 63.7491 91.2854 63.9169 91.2753C64.3998 91.2424 65.0808 91.1843 65.8008 91.1223C67.3178 90.9927 69.2056 90.8322 70.2673 90.8189C71.0378 90.8145 71.6916 91.2721 71.8732 91.9447C72.1721 93.0522 72.1456 95.1484 72.0889 97.3812C72.0769 98.1069 71.4167 98.6916 70.6267 98.6916ZM63.9534 91.7159C63.8452 91.722 63.7393 91.7497 63.6419 91.7974C63.5444 91.845 63.4574 91.9117 63.386 91.9934C63.332 92.0559 63.2912 92.1288 63.266 92.2075C63.2409 92.2863 63.2319 92.3694 63.2397 92.4517L63.7441 97.2756C63.7983 97.7939 64.2882 98.189 64.8834 98.1954L70.621 98.2504H70.6324C71.1885 98.2504 71.6481 97.8578 71.6607 97.3704C71.7169 95.1712 71.7433 93.1104 71.4602 92.0604C71.3341 91.5901 70.8449 91.2626 70.285 91.2607C69.239 91.274 67.3601 91.434 65.85 91.5629C65.1281 91.6261 64.4459 91.683 63.9585 91.7165L63.9534 91.7159Z" fill="white"/>
      <path opacity="0.6" d="M64.5669 92.2133C65.7718 92.1312 68.3903 91.8644 69.6324 91.8492C70.1583 91.8423 70.6198 92.1615 70.7434 92.6185C70.983 93.5073 70.9514 95.278 70.9098 96.9127C70.8972 97.4026 70.4489 97.7933 69.901 97.7882L65.3185 97.744C64.7548 97.7383 64.287 97.3533 64.2347 96.8514L63.8318 92.9953C63.7895 92.5977 64.1205 92.2443 64.5669 92.2133Z" fill="white"/>
      <g opacity="0.6">
         <path d="M75.6607 95.4884C75.7414 95.7949 75.9215 96.0658 76.1726 96.2583C76.4238 96.4508 76.7317 96.554 77.0478 96.5517L130.109 96.0984C130.395 96.0979 130.669 95.9835 130.87 95.7806C131.072 95.5777 131.185 95.3029 131.184 95.0165C131.183 94.7302 131.069 94.4558 130.867 94.2537C130.665 94.0516 130.391 93.9384 130.105 93.939L77.0422 93.6963C76.8238 93.6956 76.6082 93.7453 76.4121 93.8415C76.216 93.9377 76.0445 94.0778 75.911 94.2511C75.7775 94.4243 75.6854 94.626 75.6421 94.8405C75.5987 95.0551 75.6051 95.2767 75.6607 95.4884Z" fill="white"/>
      </g>
      <path d="M70.6267 111.015H70.611L64.8734 110.959C64.0537 110.952 63.3772 110.386 63.2971 109.645L62.7927 104.821C62.7784 104.679 62.7929 104.537 62.8353 104.401C62.8776 104.266 62.947 104.14 63.0392 104.032C63.1493 103.905 63.2836 103.801 63.4343 103.726C63.585 103.652 63.7491 103.608 63.9169 103.598C64.3998 103.565 65.0808 103.507 65.8008 103.446C67.3178 103.319 69.2056 103.155 70.2673 103.142H70.2907C71.0473 103.142 71.6935 103.602 71.8732 104.268C72.1721 105.376 72.1456 107.472 72.0889 109.705C72.0769 110.43 71.4167 111.015 70.6267 111.015ZM63.9534 104.039C63.8453 104.045 63.7394 104.073 63.642 104.12C63.5446 104.168 63.4576 104.235 63.386 104.316C63.332 104.379 63.2912 104.452 63.2661 104.53C63.2409 104.609 63.232 104.692 63.2397 104.774L63.7441 109.599C63.7983 110.117 64.2882 110.512 64.8834 110.518L70.621 110.573H70.6324C71.1885 110.573 71.6481 110.181 71.6607 109.693C71.7169 107.494 71.7433 105.433 71.4602 104.383C71.3341 103.913 70.8379 103.575 70.285 103.583C69.239 103.597 67.3601 103.757 65.85 103.886C65.1281 103.949 64.4459 104.006 63.9585 104.039L63.9534 104.039Z" fill="white"/>
      <path opacity="0.6" d="M64.5669 104.537C65.7718 104.454 68.3903 104.188 69.6324 104.172C70.1583 104.166 70.6198 104.484 70.7434 104.942C70.983 105.827 70.9514 107.601 70.9098 109.236C70.8972 109.725 70.4489 110.116 69.901 110.111L65.3185 110.067C64.7548 110.062 64.287 109.676 64.2347 109.174L63.8318 105.318C63.7895 104.92 64.1205 104.567 64.5669 104.537Z" fill="white"/>
      <g opacity="0.6">
         <path d="M75.6606 107.812C75.7412 108.118 75.9213 108.389 76.1725 108.582C76.4236 108.774 76.7315 108.878 77.0477 108.875L130.109 108.422C130.39 108.414 130.657 108.297 130.853 108.095C131.049 107.893 131.159 107.622 131.158 107.34C131.157 107.058 131.047 106.788 130.85 106.586C130.653 106.385 130.386 106.269 130.105 106.263L77.0421 106.02C76.8237 106.019 76.6082 106.069 76.412 106.165C76.2159 106.261 76.0444 106.401 75.9109 106.574C75.7773 106.748 75.6853 106.949 75.6419 107.164C75.5985 107.378 75.6049 107.6 75.6606 107.812Z" fill="white"/>
      </g>
      <path d="M70.6267 123.336H70.6109L64.8733 123.281C64.0537 123.273 63.3772 122.708 63.2971 121.966L62.7927 117.142C62.7784 117.001 62.7929 116.858 62.8354 116.723C62.8779 116.587 62.9475 116.461 63.0398 116.354C63.1498 116.226 63.284 116.122 63.4346 116.048C63.5852 115.973 63.7492 115.929 63.9169 115.919C64.3998 115.886 65.0808 115.828 65.8008 115.767C67.3178 115.641 69.2056 115.476 70.2673 115.463H70.2907C71.0473 115.463 71.6935 115.923 71.8732 116.589C72.1721 117.696 72.1456 119.793 72.0888 122.026C72.0769 122.753 71.4167 123.336 70.6267 123.336ZM63.9534 116.36C63.8452 116.366 63.7393 116.394 63.6419 116.442C63.5445 116.49 63.4575 116.556 63.386 116.638C63.3319 116.701 63.2911 116.773 63.2659 116.852C63.2408 116.931 63.2319 117.014 63.2397 117.096L63.7441 121.92C63.7983 122.439 64.2882 122.834 64.8834 122.839L70.621 122.894H70.6324C71.1885 122.894 71.6481 122.502 71.6607 122.015C71.7169 119.815 71.7433 117.754 71.4602 116.705C71.3341 116.235 70.8379 115.895 70.285 115.905C69.239 115.918 67.3601 116.079 65.85 116.208C65.1281 116.271 64.4459 116.328 63.9585 116.361L63.9534 116.36Z" fill="white"/>
      <path opacity="0.6" d="M64.5669 116.86C65.7718 116.778 68.3903 116.511 69.6324 116.495C70.1583 116.489 70.6198 116.807 70.7434 117.265C70.983 118.15 70.9514 119.925 70.9098 121.559C70.8972 122.049 70.4489 122.44 69.901 122.434L65.3185 122.39C64.7548 122.385 64.287 121.999 64.2347 121.498L63.8318 117.642C63.7895 117.244 64.1205 116.888 64.5669 116.86Z" fill="white"/>
      <g opacity="0.6">
         <path d="M75.6607 120.134C75.7412 120.441 75.9212 120.712 76.1724 120.905C76.4236 121.097 76.7316 121.201 77.0478 121.198L130.109 120.744C130.39 120.737 130.657 120.62 130.853 120.418C131.049 120.216 131.159 119.945 131.158 119.663C131.157 119.381 131.047 119.111 130.85 118.909C130.653 118.708 130.386 118.592 130.105 118.586L77.044 118.342C76.8255 118.341 76.6096 118.391 76.4131 118.487C76.2167 118.583 76.0449 118.723 75.9112 118.896C75.7774 119.069 75.6853 119.271 75.6418 119.486C75.5984 119.701 75.6048 119.923 75.6607 120.134Z" fill="white"/>
      </g>
      <path d="M70.6267 135.663H70.6109L64.8733 135.608C64.0537 135.6 63.3772 135.035 63.2971 134.294L62.7927 129.469C62.7784 129.328 62.7929 129.185 62.8354 129.049C62.8779 128.914 62.9475 128.788 63.0398 128.68C63.1499 128.553 63.2841 128.449 63.4347 128.375C63.5853 128.3 63.7492 128.257 63.9169 128.247C64.3998 128.214 65.0808 128.155 65.8008 128.094C67.3178 127.964 69.2056 127.803 70.2673 127.79H70.2907C71.0473 127.79 71.6935 128.25 71.8732 128.916C72.1721 130.024 72.1456 132.12 72.0888 134.352C72.0769 135.076 71.4167 135.663 70.6267 135.663ZM63.9534 128.687C63.8452 128.693 63.7393 128.721 63.6418 128.769C63.5444 128.816 63.4574 128.883 63.386 128.965C63.332 129.027 63.2912 129.1 63.266 129.179C63.2409 129.258 63.2319 129.341 63.2397 129.423L63.7441 134.248C63.7983 134.765 64.2882 135.161 64.8834 135.166L70.621 135.222H70.6324C71.1885 135.222 71.6481 134.829 71.6607 134.342C71.7169 132.142 71.7433 130.082 71.4602 129.032C71.3341 128.561 70.8379 128.22 70.285 128.232C69.239 128.245 67.3601 128.405 65.85 128.534C65.1281 128.597 64.4459 128.654 63.9585 128.688L63.9534 128.687Z" fill="white"/>
      <path opacity="0.6" d="M64.5669 129.183C65.7718 129.1 68.3903 128.834 69.6324 128.818C70.1583 128.812 70.6198 129.13 70.7434 129.588C70.983 130.477 70.9514 132.247 70.9098 133.882C70.8972 134.372 70.4489 134.763 69.901 134.757L65.3185 134.713C64.7548 134.708 64.287 134.323 64.2347 133.821L63.8318 129.965C63.7895 129.567 64.1205 129.215 64.5669 129.183Z" fill="white"/>
      <g opacity="0.6">
         <path d="M75.6606 132.458C75.7413 132.764 75.9214 133.035 76.1725 133.228C76.4237 133.42 76.7316 133.524 77.0477 133.521L130.109 133.068C130.395 133.067 130.668 132.953 130.87 132.75C131.072 132.547 131.184 132.272 131.184 131.986C131.183 131.7 131.069 131.425 130.867 131.223C130.665 131.021 130.39 130.908 130.105 130.909L77.044 130.669C76.8258 130.668 76.6104 130.718 76.4143 130.813C76.2182 130.909 76.0467 131.049 75.913 131.222C75.7794 131.395 75.6871 131.596 75.6433 131.811C75.5996 132.025 75.6055 132.246 75.6606 132.458Z" fill="white"/>
      </g>
      <path d="M70.1179 87.969H70.1022L64.3646 87.9141C63.5449 87.9058 62.869 87.3413 62.7883 86.5998L62.2839 81.7753C62.2696 81.6339 62.2841 81.491 62.3266 81.3554C62.3691 81.2198 62.4387 81.0942 62.531 80.9864C62.6411 80.8591 62.7755 80.7552 62.9262 80.6807C63.0769 80.6063 63.241 80.5628 63.4087 80.5527C63.8917 80.5192 64.572 80.4611 65.2927 80.3998C66.8059 80.2733 68.6974 80.109 69.7592 80.0957H69.7819C70.5385 80.0957 71.1854 80.5559 71.3651 81.2222C71.6639 82.3297 71.6374 84.4259 71.5807 86.6586C71.5681 87.3843 70.9105 87.969 70.1179 87.969ZM63.444 80.9934C63.3357 80.9992 63.2297 81.0268 63.1322 81.0745C63.0348 81.1221 62.9478 81.1889 62.8766 81.2709C62.8224 81.3333 62.7815 81.4061 62.7563 81.4849C62.7312 81.5637 62.7223 81.6468 62.7303 81.7292L63.2347 86.553C63.2889 87.0714 63.7788 87.4665 64.3746 87.4722L70.1122 87.5278H70.1242C70.6797 87.5278 71.14 87.1352 71.1526 86.6479C71.2081 84.4486 71.2352 82.3872 70.9521 81.3379C70.826 80.8676 70.3291 80.5262 69.7762 80.5382C68.7302 80.5515 66.8513 80.7114 65.3418 80.8404C64.6193 80.9036 63.9371 80.9605 63.4503 80.994L63.444 80.9934Z" fill="white"/>
      <path opacity="0.6" d="M64.0613 81.4882C65.2662 81.4061 67.8847 81.1393 69.1261 81.1241C69.6526 81.1172 70.1141 81.4358 70.2377 81.8935C70.4773 82.7822 70.4451 84.5529 70.4035 86.1876C70.3915 86.6775 69.9426 87.0682 69.3947 87.0625L64.8116 87.0189C64.2479 87.0132 63.7801 86.6282 63.7277 86.1263L63.3248 82.2702C63.2839 81.8745 63.6149 81.5218 64.0613 81.4882Z" fill="white"/>
      <g opacity="0.6">
         <path d="M75.155 84.7658C75.2356 85.0722 75.4157 85.3431 75.6669 85.5356C75.918 85.7281 76.226 85.8314 76.5421 85.829L129.604 85.3758C129.889 85.3752 130.163 85.2609 130.364 85.058C130.566 84.8551 130.679 84.5802 130.678 84.2939C130.678 84.0075 130.564 83.7331 130.361 83.5311C130.159 83.329 129.885 83.2158 129.599 83.2164L76.5364 82.9736C76.3181 82.973 76.1025 83.0227 75.9064 83.1189C75.7102 83.2151 75.5388 83.3552 75.4052 83.5284C75.2717 83.7016 75.1797 83.9033 75.1363 84.1179C75.0929 84.3324 75.0993 84.5541 75.155 84.7658Z" fill="white"/>
      </g>
      <path d="M98.2158 2.85288C95.311 0.826866 92.7852 0.867323 91.0072 1.39579C90.2202 1.62991 89.5385 2.13056 89.0786 2.81234C88.6187 3.49411 88.4089 4.31477 88.4852 5.13429L89.2519 13.5254L98.3766 14.337C98.3766 14.337 103.913 6.82653 98.2158 2.85288ZM94.2032 9.62313C93.7531 9.62338 93.3131 9.48979 92.9387 9.23926C92.5643 8.98873 92.2725 8.63251 92.1 8.21566C91.9276 7.79881 91.8824 7.34006 91.97 6.89743C92.0577 6.45479 92.2743 6.04817 92.5925 5.72898C92.9107 5.40979 93.3161 5.19239 93.7576 5.10426C94.199 5.01612 94.6566 5.06123 95.0725 5.23387C95.4883 5.4065 95.8438 5.69892 96.0939 6.07412C96.344 6.44932 96.4775 6.89046 96.4775 7.34173C96.4775 7.94658 96.2379 8.52667 95.8114 8.95448C95.385 9.38229 94.8065 9.6228 94.2032 9.62313Z" fill="url(#paint4_linear_719_11098)"/>
      <path d="M90.1661 9.99273C90.1113 9.99265 90.0584 9.97206 90.018 9.935C89.9775 9.89793 89.9523 9.84706 89.9473 9.79234L89.825 8.45599C89.8223 8.42694 89.8254 8.39765 89.834 8.36979C89.8427 8.34193 89.8567 8.31605 89.8753 8.29362C89.8939 8.2712 89.9168 8.25267 89.9425 8.2391C89.9683 8.22553 89.9965 8.21717 90.0255 8.21452C90.0544 8.21186 90.0837 8.21495 90.1114 8.22362C90.1392 8.23228 90.165 8.24635 90.1874 8.26501C90.2098 8.28368 90.2283 8.30658 90.2418 8.33241C90.2553 8.35823 90.2637 8.38648 90.2663 8.41554L90.388 9.75189C90.3907 9.78073 90.3877 9.80983 90.3792 9.83752C90.3706 9.8652 90.3568 9.89093 90.3383 9.91324C90.3199 9.93554 90.2972 9.95399 90.2717 9.96752C90.2461 9.98105 90.2182 9.9894 90.1894 9.9921L90.1661 9.99273ZM89.9271 7.37377C89.8722 7.37383 89.8194 7.35329 89.7789 7.3162C89.7384 7.2791 89.7132 7.22815 89.7083 7.17338L89.615 6.15879C89.5436 5.37852 89.7436 4.5975 90.1811 3.94824C90.6186 3.29897 91.2667 2.82145 92.0153 2.59666C93.0985 2.27514 94.2443 2.22801 95.3501 2.45949C95.4073 2.47122 95.4575 2.50526 95.4896 2.5541C95.5218 2.60294 95.5333 2.66259 95.5216 2.71993C95.5099 2.77727 95.4759 2.8276 95.4272 2.85984C95.3785 2.89209 95.319 2.90361 95.2618 2.89187C94.2268 2.67457 93.1543 2.71801 92.1402 3.0183C91.4894 3.21398 90.9261 3.62931 90.5458 4.19386C90.1655 4.7584 89.9917 5.43743 90.0538 6.1158L90.1465 7.12723C90.1518 7.18555 90.1338 7.24359 90.0964 7.28862C90.0591 7.33365 90.0054 7.36199 89.9473 7.36744L89.9271 7.37377Z" fill="#98B1DC"/>
      <path d="M76.8013 18.9461V14.7272C76.8013 14.3817 76.8707 14.0397 77.0053 13.7217C77.14 13.4037 77.337 13.1161 77.5848 12.876C77.8326 12.6359 78.1261 12.4483 78.4477 12.3243C78.7693 12.2004 79.1126 12.1425 79.457 12.1543L108.47 13.1537C109.091 13.1753 109.682 13.4283 110.127 13.8634C110.572 14.2985 110.84 14.8844 110.877 15.5066L111.119 19.5599L76.8013 18.9461Z" fill="url(#paint5_linear_719_11098)"/>
      <path d="M87.6195 13.7433H86.3717C86.3132 13.7433 86.257 13.72 86.2156 13.6785C86.1743 13.637 86.151 13.5807 86.151 13.522C86.151 13.4634 86.1743 13.4071 86.2156 13.3656C86.257 13.3241 86.3132 13.3008 86.3717 13.3008H87.6195C87.678 13.3008 87.7341 13.3241 87.7755 13.3656C87.8169 13.4071 87.8401 13.4634 87.8401 13.522C87.8401 13.5807 87.8169 13.637 87.7755 13.6785C87.7341 13.72 87.678 13.7433 87.6195 13.7433Z" fill="#98B1DC"/>
      <path d="M78.3719 17.621C78.343 17.621 78.3144 17.6153 78.2877 17.6043C78.261 17.5932 78.2367 17.5769 78.2163 17.5564C78.1959 17.5359 78.1797 17.5116 78.1686 17.4849C78.1575 17.4581 78.1519 17.4294 78.1519 17.4004V15.6936C78.1525 15.0596 78.404 14.4517 78.8512 14.0034C79.2984 13.5551 79.9047 13.3029 80.5371 13.3022H85.124C85.1825 13.3022 85.2386 13.3256 85.28 13.367C85.3214 13.4085 85.3447 13.4648 85.3447 13.5235C85.3447 13.5822 85.3214 13.6384 85.28 13.6799C85.2386 13.7214 85.1825 13.7447 85.124 13.7447H80.5371C80.0214 13.7454 79.527 13.9511 79.1624 14.3167C78.7978 14.6823 78.5926 15.1779 78.5919 15.6949V17.4017C78.5916 17.46 78.5683 17.5158 78.5271 17.5569C78.4858 17.598 78.43 17.621 78.3719 17.621Z" fill="#98B1DC"/>
      <path d="M64.98 20.0113C65.0137 19.308 65.3161 18.6446 65.8245 18.1587C66.3329 17.6729 67.0083 17.4019 67.7107 17.4019H118.444C119.328 17.4018 120.183 17.7147 120.859 18.2852C121.535 18.8557 121.988 19.6473 122.139 20.5202L122.182 20.7686C122.262 21.2324 122.24 21.708 122.118 22.1623C121.995 22.6166 121.775 23.0386 121.473 23.3987C121.171 23.7587 120.793 24.0482 120.368 24.2468C119.942 24.4453 119.479 24.5482 119.009 24.5482H66.9598C66.6763 24.5482 66.3959 24.4905 66.1354 24.3786C65.8749 24.2667 65.6397 24.103 65.4442 23.8973C65.2486 23.6917 65.0968 23.4483 64.9978 23.1821C64.8988 22.9158 64.8548 22.6322 64.8684 22.3484L64.98 20.0113Z" fill="url(#paint6_linear_719_11098)"/>
      <path d="M71.1217 48.6587V47.6258C71.1217 46.6813 71.2665 45.8572 71.5561 45.1535C71.8457 44.4497 72.3732 43.6945 73.1386 42.8879C73.8646 42.0905 74.3282 41.4657 74.5295 41.0136C74.7309 40.5614 74.8315 39.9857 74.8315 39.2865C74.8315 38.6472 74.6844 38.1257 74.3902 37.722C74.096 37.3183 73.6298 37.1166 72.9917 37.117C71.9321 37.117 70.8182 37.4963 69.6501 38.2549L68.2667 35.3028C69.7717 34.2605 71.5605 33.7087 73.3896 33.7224C75.0087 33.7224 76.287 34.1725 77.2243 35.0727C78.1617 35.9728 78.6303 37.2249 78.6303 38.8289C78.6303 39.9511 78.4683 40.9031 78.1442 41.6849C77.8201 42.4666 77.1476 43.4087 76.1266 44.5112C75.4692 45.2302 75.0489 45.7837 74.8656 46.1718C74.6823 46.56 74.5915 47.0889 74.5932 47.7585V48.6587H71.1217ZM70.4281 53.5894C70.4281 52.8127 70.6366 52.2151 71.0536 51.7966C71.4705 51.3782 72.0765 51.1689 72.8713 51.1689C73.6758 51.1689 74.2853 51.383 74.6998 51.8112C75.1142 52.2394 75.3202 52.8321 75.3177 53.5894C75.3177 54.3379 75.1075 54.9279 74.6872 55.3594C74.2668 55.7909 73.6632 56.0074 72.8764 56.0086C72.0912 56.0086 71.4878 55.7979 71.0662 55.3765C70.6446 54.955 70.4325 54.3589 70.43 53.5881L70.4281 53.5894Z" fill="url(#paint7_linear_719_11098)"/>
      <path d="M39.1481 171.413C39.1481 171.413 38.8159 173.3 38.6532 175.168C38.6385 175.341 38.6589 175.516 38.7133 175.681C38.7677 175.846 38.8549 175.998 38.9697 176.129C39.0844 176.259 39.2243 176.365 39.3809 176.439C39.5375 176.514 39.7075 176.556 39.8808 176.563C42.3624 176.666 47.67 176.868 49.5748 176.783C49.6413 176.779 49.706 176.76 49.7636 176.727C49.8212 176.693 49.87 176.647 49.9059 176.59C49.9419 176.534 49.9639 176.47 49.9703 176.404C49.9766 176.338 49.9671 176.271 49.9424 176.209C49.8537 175.985 49.6826 175.804 49.4645 175.703L40.6966 171.664L39.1481 171.413Z" fill="url(#paint8_linear_719_11098)"/>
      <path d="M38.8757 170.304L39.1431 172.562C39.1431 172.562 40.679 173.279 41.7281 172.471L41.092 169.956L38.8757 170.304Z" fill="url(#paint9_linear_719_11098)"/>
      <path d="M39.0769 127.864C38.9615 128.453 38.4577 157.282 41.5308 170.201C41.556 170.302 41.5439 170.41 41.4969 170.503C41.4498 170.597 41.3708 170.671 41.2742 170.711C40.4744 171.021 39.6281 171.193 38.7711 171.221C38.6043 171.226 38.4406 171.175 38.3055 171.077C38.1704 170.979 38.0714 170.839 38.0239 170.679C37.1456 167.681 32.9357 152.663 32.3859 138.317C31.7725 122.287 32.3859 137.771 32.3859 137.771L32.746 127.862L39.0769 127.864Z" fill="url(#paint10_linear_719_11098)"/>
      <path d="M29.0625 172.397C29.0625 172.397 28.5335 173.35 28.0209 175.882C27.9988 175.99 27.9994 176.101 28.0228 176.208C28.0462 176.316 28.0919 176.417 28.1569 176.506C28.2218 176.594 28.3046 176.668 28.3999 176.723C28.4952 176.778 28.6009 176.811 28.7101 176.822C29.5297 176.903 30.7907 177.007 31.7996 177C31.9095 177 32.0181 176.976 32.1183 176.931C32.2185 176.885 32.308 176.819 32.381 176.737C32.4539 176.654 32.5087 176.557 32.5417 176.452C32.5747 176.347 32.5852 176.236 32.5726 176.126C32.461 175.202 32.1123 173.686 31.0348 172.504L29.0625 172.397Z" fill="url(#paint11_linear_719_11098)"/>
      <path d="M28.5979 169.494L29.2221 172.908C29.2221 172.908 29.8394 173.368 31.06 173.034L30.7624 169.361L28.5979 169.494Z" fill="url(#paint12_linear_719_11098)"/>
      <path d="M26.9112 128.748C24.3974 143.959 27.4566 166.341 28.4875 170.722C28.5178 170.853 28.5862 170.973 28.684 171.065C28.7819 171.157 28.9048 171.219 29.0373 171.241C29.4982 171.318 30.256 171.38 31.0038 171.162C31.1295 171.125 31.2404 171.05 31.3209 170.946C31.4015 170.843 31.4476 170.717 31.4527 170.586C31.5908 167.046 31.3418 145.3 33.6841 136.707C33.8033 136.273 34.0686 135.893 34.435 135.633L38.981 132.392L39.3296 127.154L26.9112 128.748Z" fill="url(#paint13_linear_719_11098)"/>
      <path d="M42.9293 99.9279C35.396 99.8015 27.084 101.911 27.084 101.911C24.8382 115.048 26.6912 130.199 26.6912 130.199C32.5234 131.733 39.1021 129.262 39.1021 129.262C40.0718 123.771 44.5944 108.318 44.5944 108.318C48.2747 107.861 51.3074 106.796 53.8042 105.388C51.8995 103.176 51.0016 100.358 50.6114 98.6934C47.9481 99.5234 45.2527 99.9665 42.9293 99.9279Z" fill="url(#paint14_linear_719_11098)"/>
      <path d="M65.1811 88.8027C64.4415 87.907 63.5045 88.3305 63.5045 88.3305C62.3961 93.0254 56.5835 96.8322 50.6113 98.6932C51.0016 100.358 51.8994 103.174 53.8042 105.388C63.7151 99.8014 65.1811 88.8027 65.1811 88.8027Z" fill="url(#paint15_linear_719_11098)"/>
      <path d="M65.002 89.0308C65.0789 89.2773 64.1824 89.6534 63.6546 88.6439C63.6363 88.1597 63.3394 86.0875 63.6307 85.6931C65.1666 83.5944 68.1438 80.9634 68.1438 80.9634C68.6482 81.4609 68.2327 81.9502 68.2327 81.9502L66.7882 83.4585C67.0902 84.0059 67.4585 84.4699 67.6312 85.1298C67.7583 85.635 67.686 86.1699 67.4295 86.623C67.1773 87.0813 66.8305 87.6761 66.5032 88.1401C65.8841 89.0238 65.002 89.0308 65.002 89.0308Z" fill="url(#paint16_linear_719_11098)"/>
      <path d="M66.1565 84.437L64.84 85.5559L64.427 86.6697L65.6004 87.9745C65.6004 87.9745 65.9951 85.7651 66.2882 85.2866C66.5814 84.8081 66.4295 84.5767 66.1565 84.437Z" fill="url(#paint17_linear_719_11098)"/>
      <path d="M29.9736 109.224L27.084 101.911C27.084 101.911 20.0476 106.705 18.8875 112.784C20.2172 112.882 22.6364 113.226 25.0034 114.428C25.5273 111.556 29.9736 109.224 29.9736 109.224Z" fill="url(#paint18_linear_719_11098)"/>
      <path d="M36.1222 116.106C36.1222 116.106 28.222 120.582 25.5562 116.76C25.0033 115.966 24.8709 115.179 25.0071 114.425C22.6389 113.224 20.2196 112.88 18.8912 112.782C18.5425 114.615 18.7272 116.563 19.801 118.534C24.4667 127.098 37.1689 118.061 37.1689 118.061L36.1222 116.106Z" fill="url(#paint19_linear_719_11098)"/>
      <path d="M35.1734 121.769L39.4848 106.673C39.509 106.589 39.557 106.515 39.6231 106.459C39.6891 106.403 39.7702 106.367 39.8562 106.357C40.6374 106.266 42.9009 106.009 45.5143 105.788C48.6631 105.521 52.3188 105.305 54.5035 105.489C54.5751 105.495 54.6442 105.518 54.7048 105.557C54.7654 105.596 54.8156 105.649 54.8511 105.711C54.8866 105.774 54.9063 105.845 54.9084 105.917C54.9106 105.989 54.8952 106.06 54.8635 106.125C53.6214 108.645 48.5111 118.894 45.9519 122.253C45.9104 122.308 45.8566 122.352 45.7948 122.382C45.7331 122.413 45.6651 122.428 45.5963 122.428L35.5927 122.334C35.5247 122.333 35.4578 122.317 35.3972 122.286C35.3366 122.255 35.2839 122.211 35.2434 122.156C35.2028 122.101 35.1753 122.038 35.1632 121.971C35.1511 121.904 35.1546 121.835 35.1734 121.769Z" fill="url(#paint20_linear_719_11098)"/>
      <path d="M45.962 104.477L49.088 103.955C49.1263 103.948 49.1657 103.951 49.2024 103.964C49.2391 103.977 49.2717 104 49.2972 104.029C49.3227 104.059 49.34 104.094 49.3475 104.133C49.3551 104.171 49.3526 104.21 49.3402 104.247L49.0306 105.188C49.0176 105.228 48.9935 105.264 48.9611 105.291C48.9288 105.318 48.8895 105.335 48.8478 105.34L45.8397 105.743C45.8036 105.748 45.767 105.744 45.7328 105.731C45.6986 105.719 45.668 105.698 45.6436 105.671C45.6192 105.644 45.6016 105.612 45.5925 105.576C45.5834 105.541 45.5829 105.504 45.5912 105.469L45.7804 104.647C45.7907 104.604 45.8134 104.565 45.8457 104.535C45.878 104.505 45.9185 104.485 45.962 104.477Z" fill="#98B1DC"/>
      <path d="M43.6209 107.13L43.8788 105.786C43.8911 105.72 43.9243 105.66 43.9735 105.614C44.0227 105.568 44.0852 105.54 44.1518 105.533L50.4657 104.891C50.5147 104.886 50.5642 104.893 50.61 104.911C50.6558 104.929 50.6967 104.958 50.7292 104.995C50.7617 105.032 50.785 105.076 50.7971 105.124C50.8091 105.172 50.8097 105.222 50.7986 105.27L50.397 106.946C50.3814 107.011 50.3452 107.07 50.2937 107.113C50.2422 107.156 50.1783 107.181 50.1114 107.184L43.9412 107.495C43.8947 107.497 43.8483 107.489 43.8055 107.471C43.7626 107.453 43.7244 107.425 43.6936 107.39C43.6628 107.355 43.6403 107.313 43.6277 107.268C43.6152 107.224 43.6128 107.176 43.6209 107.13Z" fill="#98B1DC"/>
      <path d="M36.215 118.122C36.215 118.122 35.6141 115.646 35.8568 114.767C36.0996 113.889 36.568 112.759 38.133 113.01C39.6979 113.261 41.5434 113.922 41.5434 113.922C41.5434 113.922 41.4501 115.067 40.2609 114.697L40.998 115.269C40.998 115.269 40.8927 116.185 39.8883 115.696L40.5743 116.455C40.5743 116.455 40.143 117.207 39.4041 116.725C38.6651 116.242 38.3108 118.42 36.215 118.122Z" fill="url(#paint21_linear_719_11098)"/>
      <path d="M35.2988 93.7959L32.9029 100.746C32.884 100.801 32.885 100.862 32.9058 100.917C32.9266 100.972 32.966 101.018 33.017 101.047C33.6702 101.409 36.0239 102.456 38.8612 100.653C39.0076 100.561 39.1321 100.438 39.2257 100.293C39.3193 100.147 39.3798 99.9824 39.4028 99.8107L40.179 93.7959H35.2988Z" fill="url(#paint22_linear_719_11098)"/>
      <path d="M40.5144 87.3604C40.5144 87.3604 43.1462 92.3277 42.8088 94.3348C42.4715 96.3418 39.2093 96.1971 36.3607 94.5674L34.3727 89.2037L40.5144 87.3604Z" fill="url(#paint23_linear_719_11098)"/>
      <path d="M36.4867 91.9333C36.514 91.9215 36.5383 91.9038 36.558 91.8815C36.5777 91.8592 36.5923 91.8328 36.6008 91.8043C36.6093 91.7757 36.6114 91.7457 36.6071 91.7162C36.6027 91.6867 36.592 91.6586 36.5756 91.6337C36.3651 91.3107 35.9697 90.652 35.8436 90.0748C35.8436 90.0748 35.3701 89.7708 37.0479 89.3687C38.7257 88.9667 41.2269 88.3409 41.7527 86.9097C42.2653 85.5139 40.9186 82.0036 38.7698 84.8002C38.7507 84.825 38.7261 84.8451 38.698 84.8589C38.6699 84.8727 38.639 84.8799 38.6078 84.8799C38.5765 84.8799 38.5456 84.8727 38.5175 84.8589C38.4894 84.8451 38.4649 84.825 38.4457 84.8002C38.0939 84.3407 37.1677 83.3861 35.8815 83.9645C34.6785 84.5063 34.5429 85.39 34.5574 85.8357C34.5587 85.8663 34.5531 85.8969 34.5409 85.9251C34.5288 85.9532 34.5104 85.9783 34.4873 85.9984C34.4641 86.0184 34.4367 86.033 34.4072 86.0409C34.3776 86.0489 34.3466 86.05 34.3165 86.0443C33.7087 85.928 32.2485 85.8281 31.5669 87.3294C31.0058 88.5665 31.3708 89.2663 31.7025 89.6089C31.7271 89.634 31.7448 89.6651 31.7539 89.6991C31.763 89.7331 31.7632 89.7689 31.7545 89.803C31.7457 89.8371 31.7283 89.8684 31.704 89.8937C31.6796 89.9191 31.6491 89.9377 31.6155 89.9478C31.2157 90.0704 30.6993 90.4105 30.751 91.3499C30.8229 92.6483 32.2706 92.5339 32.6829 92.4744C32.716 92.4693 32.7499 92.4724 32.7815 92.4834C32.8132 92.4944 32.8417 92.513 32.8645 92.5377C33.2176 92.9296 34.8102 94.5946 36.534 94.7957C36.5685 94.7993 36.6033 94.7941 36.6353 94.7806C36.6673 94.7672 36.6953 94.7458 36.7169 94.7186C36.7384 94.6914 36.7528 94.6592 36.7586 94.6249C36.7645 94.5906 36.7616 94.5554 36.7503 94.5226L36.0038 92.3486C35.9876 92.3002 35.99 92.2475 36.0105 92.2007C36.0311 92.154 36.0682 92.1166 36.1147 92.0958L36.4867 91.9333Z" fill="url(#paint24_linear_719_11098)"/>
      <path d="M36.7869 92.2418C36.7869 92.2418 34.9124 90.9529 34.7756 92.0383C34.6388 93.1236 36.4635 93.611 37.367 93.2058L36.7869 92.2418Z" fill="url(#paint25_linear_719_11098)"/>
      <path d="M125.973 90.7875C126.001 90.7352 126.043 90.6924 126.095 90.6646C126.147 90.6368 126.206 90.6253 126.265 90.6315C126.323 90.6378 126.379 90.6616 126.424 90.6998C126.469 90.7379 126.501 90.7888 126.517 90.8457C126.781 91.7977 127.419 93.459 128.759 94.0488C128.827 94.0785 128.89 94.1082 128.952 94.1385C128.988 94.0363 128.999 93.927 128.985 93.8196C128.97 93.7122 128.93 93.6098 128.868 93.5209C128.452 92.8831 129.204 92.0114 129.204 92.0114C129.204 92.0114 129.254 92.7788 129.834 93.2624C130.336 93.6783 130.576 94.605 130.233 95.3649C129.508 98.1887 128.423 101.923 132.652 104.652C136.881 107.38 142.839 99.5042 142.839 99.5042L139.883 108.9C139.883 108.9 135.32 112.275 130.012 107.529C124.705 102.782 128.223 95.8738 128.223 95.8738C128.223 95.8738 124.175 94.2352 125.973 90.7875Z" fill="url(#paint26_linear_719_11098)"/>
      <path d="M143.579 85.6976C143.579 85.6976 142.354 80.1872 148.65 81.6456C148.65 81.6456 151.706 81.1449 151.862 84.037C151.862 84.037 153.831 85.3386 152.389 87.8412C152.389 87.8412 158.244 85.5744 160.794 90.7187C163.345 95.8631 161 98.6945 158.543 99.4322C158.543 99.4322 160.534 100.435 159.591 102.698C158.648 104.961 153.875 106.554 151.055 103.805C151.055 103.805 143.031 104.868 143.192 99.185C143.192 99.185 139.46 96.769 143.381 92.0728C147.302 87.3766 143.579 85.6976 143.579 85.6976Z" fill="url(#paint27_linear_719_11098)"/>
      <path d="M143.234 98.4708C144.499 98.0915 148.183 97.3885 151.686 100.63C151.978 100.9 152.191 101.244 152.301 101.626C152.411 102.009 152.415 102.414 152.311 102.798C151.371 106.275 148.887 116.534 151.065 120.974C151.065 120.974 147.228 125.215 143.042 121.796C143.042 121.796 141.164 113.59 138.704 109.987C137.006 107.5 141.412 100.648 142.527 98.9923C142.695 98.7417 142.945 98.5574 143.234 98.4708Z" fill="url(#paint28_linear_719_11098)"/>
      <path d="M146.729 91.5688C146.729 91.5688 148.599 96.8751 148.741 99.2178C148.741 99.2178 146.673 100.161 144.724 98.5698C144.724 98.5698 144.519 93.2693 144.224 92.3205L146.729 91.5688Z" fill="url(#paint29_linear_719_11098)"/>
      <path d="M144.128 84.3329C144.128 84.3329 139.234 91.1992 142.159 93.1936C145.085 95.188 148.568 90.3085 148.568 90.3085C148.568 90.3085 149.703 86.5498 148.517 85.2754C147.33 84.001 144.128 84.3329 144.128 84.3329Z" fill="url(#paint30_linear_719_11098)"/>
      <path d="M146.393 82.6936C146.393 82.6936 144.145 83.2277 143.83 84.2474C143.514 85.267 147.018 86.2133 147.999 86.2595L148.79 90.3747C148.79 90.3747 151.128 86.5035 150.202 84.2676C149.276 82.0317 146.393 82.6936 146.393 82.6936Z" fill="url(#paint31_linear_719_11098)"/>
      <path d="M147.62 89.8049C147.62 89.8049 149.524 87.5924 150.282 89.0356C151.04 90.4788 148.568 91.5598 147.712 90.8518L147.62 89.8049Z" fill="url(#paint32_linear_719_11098)"/>
      <path d="M138.154 139.027C138.168 139.4 137.516 142.354 137.161 143.931C137.018 144.565 137.117 145.229 137.439 145.793L149.734 166.541C149.883 166.792 149.992 167.064 150.057 167.349C150.283 168.323 150.751 170.708 150.506 172.88L149.87 174.207L152.621 173.581L153.219 166.174L152.44 165.698C151.768 165.287 151.244 164.672 150.944 163.941C149.832 161.233 147.071 154.341 146.359 150.982C145.55 147.165 141.322 144.064 141.322 144.064L142.065 142.303L138.154 139.027Z" fill="url(#paint33_linear_719_11098)"/>
      <path d="M155.682 171.029C155.682 171.029 154.196 168.668 154.022 167.749C153.847 166.829 153.36 165.206 152.445 165.695C152.445 165.695 152.014 170.16 152.163 171.904C152.312 173.649 150.196 173.591 150.196 173.591C149.818 173.66 149.467 173.837 149.188 174.102C148.893 174.397 149.104 174.91 149.52 174.937C150.505 175.004 151.495 174.948 152.467 174.77C152.663 174.731 152.841 174.628 152.973 174.477C153.105 174.326 153.183 174.136 153.195 173.935L153.499 168.797L155.374 171.169L155.682 171.029Z" fill="url(#paint34_linear_719_11098)"/>
      <path d="M145.501 142.332C145.501 142.332 145.935 160.892 145.994 163.527C146.052 166.163 145.579 172.005 142.943 173.751L144.09 174.602C144.09 174.602 145.523 173.381 146.924 171.03C148.496 168.39 148.972 167.907 148.972 167.907L148.45 166.836C148.222 166.367 148.155 165.835 148.261 165.324C148.828 162.561 150.73 153.368 151.248 151.388C151.86 149.049 151.903 145.931 149.775 143.319C147.646 140.707 145.501 142.332 145.501 142.332Z" fill="url(#paint35_linear_719_11098)"/>
      <path d="M147.935 175.439C147.974 175.439 148.013 175.425 148.043 175.4C148.073 175.374 148.092 175.339 148.098 175.3C148.186 174.681 148.551 172.202 148.85 171.558C149.192 170.822 150.31 167.726 148.85 167.463C148.85 167.463 145.218 172.783 144.521 173.5C143.823 174.218 142.944 173.753 142.944 173.753C142.474 173.92 142.061 174.217 141.753 174.611C141.699 174.682 141.665 174.767 141.656 174.856C141.648 174.945 141.664 175.035 141.703 175.115C141.742 175.196 141.803 175.264 141.879 175.311C141.954 175.359 142.042 175.385 142.131 175.386L144.577 175.409C144.924 175.412 145.264 175.31 145.552 175.116C145.84 174.922 146.063 174.645 146.191 174.322C146.622 173.243 147.361 171.662 148.223 170.96L147.775 175.258C147.773 175.281 147.775 175.304 147.782 175.325C147.789 175.347 147.801 175.367 147.816 175.384C147.831 175.401 147.849 175.414 147.87 175.424C147.89 175.433 147.912 175.438 147.935 175.439Z" fill="url(#paint36_linear_719_11098)"/>
      <path d="M142.463 119.796C142.463 119.796 143.014 121.558 142.168 124.46L136.914 142.855C136.874 142.994 136.888 143.144 136.954 143.273C137.02 143.403 137.133 143.502 137.269 143.55C138.84 144.116 144.006 145.714 151.058 145.227C151.231 145.216 151.395 145.149 151.527 145.036C151.658 144.923 151.75 144.771 151.788 144.602L154.164 133.88C155.408 128.28 156.797 122.239 150.688 118.586C147.872 119.791 145.246 120.503 142.463 119.796Z" fill="url(#paint37_linear_719_11098)"/>
      <path d="M152.188 101.323C152.188 101.323 158.165 106.304 159.648 113.109C161.131 119.914 150.914 120.638 150.914 120.638C150.914 120.638 149.527 119.084 147.88 119.639C146.233 120.193 147.754 116.928 149.679 116.937C151.605 116.946 150.713 118.473 153.439 117.235C156.094 116.029 157.735 112.3 150.961 106.647C150.566 106.321 150.258 105.901 150.066 105.426C148.75 102.104 149.794 99.9266 152.188 101.323Z" fill="url(#paint38_linear_719_11098)"/>
   </g>
   <defs>
      <linearGradient id="paint0_linear_719_11098" x1="196.031" y1="224.031" x2="42.0291" y2="33.2654" gradientUnits="userSpaceOnUse">
         <stop stop-color="#DBE2F3"/>
         <stop offset="1" stop-color="#EAEFF8"/>
      </linearGradient>
      <linearGradient id="paint1_linear_719_11098" x1="61.0336" y1="151.929" x2="127.953" y2="40.1182" gradientUnits="userSpaceOnUse">
         <stop stop-color="#201B59"/>
         <stop offset="1" stop-color="#2D2D84"/>
      </linearGradient>
      <linearGradient id="paint2_linear_719_11098" x1="94.3218" y1="105.409" x2="87.5891" y2="155.699" gradientUnits="userSpaceOnUse">
         <stop stop-color="#201B59"/>
         <stop offset="1" stop-color="#2D2D84"/>
      </linearGradient>
      <linearGradient id="paint3_linear_719_11098" x1="155.861" y1="-20.3897" x2="53.5584" y2="158.813" gradientUnits="userSpaceOnUse">
         <stop stop-color="#4C57A6"/>
         <stop offset="1" stop-color="#5560AB"/>
      </linearGradient>
      <linearGradient id="paint4_linear_719_11098" x1="140.505" y1="-113.108" x2="124.297" y2="-70.9899" gradientUnits="userSpaceOnUse">
         <stop stop-color="#201B59"/>
         <stop offset="1" stop-color="#2D2D84"/>
      </linearGradient>
      <linearGradient id="paint5_linear_719_11098" x1="143.319" y1="-112.024" x2="127.111" y2="-69.907" gradientUnits="userSpaceOnUse">
         <stop stop-color="#201B59"/>
         <stop offset="1" stop-color="#2D2D84"/>
      </linearGradient>
      <linearGradient id="paint6_linear_719_11098" x1="106.585" y1="-3.10549" x2="80.941" y2="43.8593" gradientUnits="userSpaceOnUse">
         <stop stop-color="#4C57A6"/>
         <stop offset="1" stop-color="#5560AB"/>
      </linearGradient>
      <linearGradient id="paint7_linear_719_11098" x1="76.1008" y1="36.0304" x2="33.8835" y2="121.522" gradientUnits="userSpaceOnUse">
         <stop stop-color="#F37064"/>
         <stop offset="1" stop-color="#F5928F"/>
      </linearGradient>
      <linearGradient id="paint8_linear_719_11098" x1="49.2974" y1="168.804" x2="17.1005" y2="203.735" gradientUnits="userSpaceOnUse">
         <stop stop-color="#201B59"/>
         <stop offset="1" stop-color="#2D2D84"/>
      </linearGradient>
      <linearGradient id="paint9_linear_719_11098" x1="38.8764" y1="171.405" x2="41.7281" y2="171.405" gradientUnits="userSpaceOnUse">
         <stop stop-color="#F9BABA"/>
         <stop offset="1" stop-color="#F5928F"/>
      </linearGradient>
      <linearGradient id="paint10_linear_719_11098" x1="51.8257" y1="129.208" x2="24.4141" y2="166.264" gradientUnits="userSpaceOnUse">
         <stop stop-color="#4C57A6"/>
         <stop offset="1" stop-color="#5560AB"/>
      </linearGradient>
      <linearGradient id="paint11_linear_719_11098" x1="42.0951" y1="162.166" x2="9.89767" y2="197.096" gradientUnits="userSpaceOnUse">
         <stop stop-color="#201B59"/>
         <stop offset="1" stop-color="#2D2D84"/>
      </linearGradient>
      <linearGradient id="paint12_linear_719_11098" x1="28.5979" y1="171.258" x2="31.0607" y2="171.258" gradientUnits="userSpaceOnUse">
         <stop stop-color="#F9BABA"/>
         <stop offset="1" stop-color="#F5928F"/>
      </linearGradient>
      <linearGradient id="paint13_linear_719_11098" x1="46.9569" y1="125.606" x2="19.5446" y2="162.662" gradientUnits="userSpaceOnUse">
         <stop stop-color="#4C57A6"/>
         <stop offset="1" stop-color="#5560AB"/>
      </linearGradient>
      <linearGradient id="paint14_linear_719_11098" x1="47.0137" y1="101.353" x2="4.01391" y2="145.091" gradientUnits="userSpaceOnUse">
         <stop stop-color="#F37064"/>
         <stop offset="1" stop-color="#F5928F"/>
      </linearGradient>
      <linearGradient id="paint15_linear_719_11098" x1="62.9352" y1="79.7896" x2="57.8798" y2="94.1956" gradientUnits="userSpaceOnUse">
         <stop stop-color="#F9BABA"/>
         <stop offset="1" stop-color="#F5928F"/>
      </linearGradient>
      <linearGradient id="paint16_linear_719_11098" x1="67.2359" y1="81.299" x2="62.1805" y2="95.7044" gradientUnits="userSpaceOnUse">
         <stop stop-color="#F9BABA"/>
         <stop offset="1" stop-color="#F5928F"/>
      </linearGradient>
      <linearGradient id="paint17_linear_719_11098" x1="63.3703" y1="90.5081" x2="67.1761" y2="82.85" gradientUnits="userSpaceOnUse">
         <stop stop-color="#F9BABA"/>
         <stop offset="1" stop-color="#F5928F"/>
      </linearGradient>
      <linearGradient id="paint18_linear_719_11098" x1="39.575" y1="94.0403" x2="-3.42416" y2="137.778" gradientUnits="userSpaceOnUse">
         <stop stop-color="#F37064"/>
         <stop offset="1" stop-color="#F5928F"/>
      </linearGradient>
      <linearGradient id="paint19_linear_719_11098" x1="18.7297" y1="117.501" x2="37.1683" y2="117.501" gradientUnits="userSpaceOnUse">
         <stop stop-color="#F9BABA"/>
         <stop offset="1" stop-color="#F5928F"/>
      </linearGradient>
      <linearGradient id="paint20_linear_719_11098" x1="43.2187" y1="106.332" x2="53.407" y2="148.674" gradientUnits="userSpaceOnUse">
         <stop stop-color="#201B59"/>
         <stop offset="1" stop-color="#2D2D84"/>
      </linearGradient>
      <linearGradient id="paint21_linear_719_11098" x1="35.7995" y1="115.563" x2="41.5434" y2="115.563" gradientUnits="userSpaceOnUse">
         <stop stop-color="#F9BABA"/>
         <stop offset="1" stop-color="#F5928F"/>
      </linearGradient>
      <linearGradient id="paint22_linear_719_11098" x1="32.8878" y1="97.7379" x2="40.1777" y2="97.7379" gradientUnits="userSpaceOnUse">
         <stop stop-color="#F9BABA"/>
         <stop offset="1" stop-color="#F5928F"/>
      </linearGradient>
      <linearGradient id="paint23_linear_719_11098" x1="41.4968" y1="94.0789" x2="33.4229" y2="89.1711" gradientUnits="userSpaceOnUse">
         <stop stop-color="#F9BABA"/>
         <stop offset="1" stop-color="#F5928F"/>
      </linearGradient>
      <linearGradient id="paint24_linear_719_11098" x1="29.1648" y1="83.9582" x2="39.6026" y2="92.1745" gradientUnits="userSpaceOnUse">
         <stop stop-color="#201B59"/>
         <stop offset="1" stop-color="#2D2D84"/>
      </linearGradient>
      <linearGradient id="paint25_linear_719_11098" x1="39.3802" y1="95.9184" x2="32.1159" y2="91.5029" gradientUnits="userSpaceOnUse">
         <stop stop-color="#F9BABA"/>
         <stop offset="1" stop-color="#F5928F"/>
      </linearGradient>
      <linearGradient id="paint26_linear_719_11098" x1="124.17" y1="83.6944" x2="140.198" y2="109.065" gradientUnits="userSpaceOnUse">
         <stop stop-color="#F9BABA"/>
         <stop offset="1" stop-color="#F5928F"/>
      </linearGradient>
      <linearGradient id="paint27_linear_719_11098" x1="168.308" y1="81.8166" x2="152.223" y2="92.5148" gradientUnits="userSpaceOnUse">
         <stop stop-color="#201B59"/>
         <stop offset="1" stop-color="#2D2D84"/>
      </linearGradient>
      <linearGradient id="paint28_linear_719_11098" x1="147.956" y1="109.446" x2="187.069" y2="87.8198" gradientUnits="userSpaceOnUse">
         <stop stop-color="#F37064"/>
         <stop offset="1" stop-color="#F5928F"/>
      </linearGradient>
      <linearGradient id="paint29_linear_719_11098" x1="143.753" y1="101.843" x2="146.747" y2="95.2107" gradientUnits="userSpaceOnUse">
         <stop stop-color="#F9BABA"/>
         <stop offset="1" stop-color="#F5928F"/>
      </linearGradient>
      <linearGradient id="paint30_linear_719_11098" x1="143.599" y1="85.7123" x2="149.676" y2="98.8315" gradientUnits="userSpaceOnUse">
         <stop stop-color="#F9BABA"/>
         <stop offset="1" stop-color="#F5928F"/>
      </linearGradient>
      <linearGradient id="paint31_linear_719_11098" x1="163.992" y1="75.327" x2="147.906" y2="86.0256" gradientUnits="userSpaceOnUse">
         <stop stop-color="#201B59"/>
         <stop offset="1" stop-color="#2D2D84"/>
      </linearGradient>
      <linearGradient id="paint32_linear_719_11098" x1="146.445" y1="84.3945" x2="152.522" y2="97.5137" gradientUnits="userSpaceOnUse">
         <stop stop-color="#F9BABA"/>
         <stop offset="1" stop-color="#F5928F"/>
      </linearGradient>
      <linearGradient id="paint33_linear_719_11098" x1="160.384" y1="184.571" x2="138.106" y2="144.416" gradientUnits="userSpaceOnUse">
         <stop stop-color="#F9BABA"/>
         <stop offset="1" stop-color="#F5928F"/>
      </linearGradient>
      <linearGradient id="paint34_linear_719_11098" x1="155.601" y1="170.388" x2="148.998" y2="170.322" gradientUnits="userSpaceOnUse">
         <stop stop-color="#201B59"/>
         <stop offset="1" stop-color="#2D2D84"/>
      </linearGradient>
      <linearGradient id="paint35_linear_719_11098" x1="155.954" y1="152.805" x2="177.845" y2="141.782" gradientUnits="userSpaceOnUse">
         <stop stop-color="#F9BABA"/>
         <stop offset="1" stop-color="#F5928F"/>
      </linearGradient>
      <linearGradient id="paint36_linear_719_11098" x1="149.468" y1="171.522" x2="141.597" y2="171.443" gradientUnits="userSpaceOnUse">
         <stop stop-color="#201B59"/>
         <stop offset="1" stop-color="#2D2D84"/>
      </linearGradient>
      <linearGradient id="paint37_linear_719_11098" x1="139.249" y1="118.341" x2="157.766" y2="160.638" gradientUnits="userSpaceOnUse">
         <stop stop-color="#201B59"/>
         <stop offset="1" stop-color="#2D2D84"/>
      </linearGradient>
      <linearGradient id="paint38_linear_719_11098" x1="158.422" y1="121.762" x2="126.354" y2="74.7869" gradientUnits="userSpaceOnUse">
         <stop stop-color="#F9BABA"/>
         <stop offset="1" stop-color="#F5928F"/>
      </linearGradient>
      <clipPath id="clip0_719_11098">
         <rect width="175" height="177" fill="white"/>
      </clipPath>
   </defs>
</svg>
