<svg width="53" height="53" viewBox="0 0 54 54" fill="none" xmlns="http://www.w3.org/2000/svg">
<path opacity="0.1" d="M5.37605 25.0992C0.583012 39.2235 6.67205 41.0055 20.7812 48.4445C40.8087 59.0048 57.1512 42.0271 45.4268 19.0253C32.8145 -5.71533 11.6876 6.50379 5.37605 25.0992Z" fill="#002D47"/>
<path d="M24.6047 46.7834C24.6047 44.537 13.1783 41.9018 12.6167 42.917C12.6167 42.917 23.3087 50.153 24.6047 46.7834Z" fill="#151244"/>
<path d="M28.661 43.8696C27.9503 42.8501 36.2879 36.1973 38.6207 36.6725C40.0053 38.3595 31.6396 44.8459 28.661 43.8696Z" fill="#9B4018"/>
<path d="M5.68311 53.9546C7.51047 51.8054 19.5114 34.0675 20.7988 31.7995C21.2934 30.9269 21.3496 29.9138 20.9694 28.998C20.9392 28.9267 20.9111 28.8511 20.8809 28.7733C19.6864 27.6847 18.5049 26.4168 18.4444 25.6176C18.3925 24.9177 17.9065 24.1985 17.3601 23.4554C17.3255 23.4079 17.2045 23.2869 17.2456 23.1854C17.3665 22.8981 16.6041 22.3949 16.3405 22.1054C16.0122 21.7469 15.7811 21.5222 15.7811 21.5222C15.7811 21.5222 15.2865 19.4465 17.6409 20.3213C18.7122 20.7187 19.3451 21.5827 20.1378 22.464C20.2199 21.2241 20.4251 19.8957 20.8009 18.5198C20.8009 18.5198 20.8009 8.69182 23.2785 10.4393C23.2785 10.4393 22.8918 7.50166 24.393 7.49086C25.648 7.48006 25.6609 8.57518 25.6609 8.57518C25.6609 8.57518 28.0283 7.6615 27.9873 12.8433L29.3502 27.972L24.8639 43.7357C24.5507 44.8351 24.3023 45.9518 24.1209 47.0793C24.1209 47.0793 22.8443 52.4577 22.5765 53.9568H5.68311V53.9546Z" fill="#B0734B"/>
<mask id="mask0_1807_8939" style="mask-type:luminance" maskUnits="userSpaceOnUse" x="5" y="7" width="25" height="47">
<path d="M5.68311 53.9546C7.51047 51.8054 19.5114 34.0675 20.7988 31.7995C21.2934 30.9269 21.3496 29.9138 20.9694 28.998C20.9392 28.9267 20.9111 28.8511 20.8809 28.7733C19.6864 27.6847 18.5049 26.4168 18.4444 25.6176C18.3925 24.9177 17.9065 24.1985 17.3601 23.4554C17.3255 23.4079 17.2045 23.2869 17.2456 23.1854C17.3665 22.8981 16.6041 22.3949 16.3405 22.1054C16.0122 21.7469 15.7811 21.5222 15.7811 21.5222C15.7811 21.5222 15.2865 19.4465 17.6409 20.3213C18.7122 20.7187 19.3451 21.5827 20.1378 22.464C20.2199 21.2241 20.4251 19.8957 20.8009 18.5198C20.8009 18.5198 20.8009 8.69182 23.2785 10.4393C23.2785 10.4393 22.8918 7.50166 24.393 7.49086C25.648 7.48006 25.6609 8.57518 25.6609 8.57518C25.6609 8.57518 28.0283 7.6615 27.9873 12.8433L29.3502 27.972L24.8639 43.7357C24.5507 44.8351 24.3023 45.9518 24.1209 47.0793C24.1209 47.0793 22.8443 52.4577 22.5765 53.9568H5.68311V53.9546Z" fill="white"/>
</mask>
<g mask="url(#mask0_1807_8939)">
<path d="M23.6348 9.808C23.6306 9.808 23.6265 9.80382 23.6265 9.79963C23.6265 9.79545 23.6306 9.79126 23.6348 9.79126C23.639 9.79126 23.6432 9.79545 23.6432 9.79963C23.6432 9.80382 23.639 9.808 23.6348 9.808Z" fill="#895234"/>
</g>
<mask id="mask1_1807_8939" style="mask-type:luminance" maskUnits="userSpaceOnUse" x="5" y="7" width="25" height="47">
<path d="M5.68311 53.9546C7.51047 51.8054 19.5114 34.0675 20.7988 31.7995C21.2934 30.9269 21.3496 29.9138 20.9694 28.998C20.9392 28.9267 20.9111 28.8511 20.8809 28.7733C19.6864 27.6847 18.5049 26.4168 18.4444 25.6176C18.3925 24.9177 17.9065 24.1985 17.3601 23.4554C17.3255 23.4079 17.2045 23.2869 17.2456 23.1854C17.3665 22.8981 16.6041 22.3949 16.3405 22.1054C16.0122 21.7469 15.7811 21.5222 15.7811 21.5222C15.7811 21.5222 15.2865 19.4465 17.6409 20.3213C18.7122 20.7187 19.3451 21.5827 20.1378 22.464C20.2199 21.2241 20.4251 19.8957 20.8009 18.5198C20.8009 18.5198 20.8009 8.69182 23.2785 10.4393C23.2785 10.4393 22.8918 7.50166 24.393 7.49086C25.648 7.48006 25.6609 8.57518 25.6609 8.57518C25.6609 8.57518 28.0283 7.6615 27.9873 12.8433L29.3502 27.972L24.8639 43.7357C24.5507 44.8351 24.3023 45.9518 24.1209 47.0793C24.1209 47.0793 22.8443 52.4577 22.5765 53.9568H5.68311V53.9546Z" fill="white"/>
</mask>
<g mask="url(#mask1_1807_8939)">
<path d="M23.2808 10.4328C23.8618 10.6553 23.7624 12.8736 23.7452 13.4438C23.7387 14.459 23.6566 15.5131 23.6285 16.5283C23.6048 17.2109 23.6112 17.8978 23.594 18.589C23.3909 17.5716 23.3132 16.5305 23.3283 15.4915C23.3348 15.0163 23.3628 14.4223 23.3823 13.945C23.3974 13.4287 23.4471 12.9146 23.4816 12.4006C23.4946 12.0096 23.6285 10.6229 23.2808 10.4328Z" fill="#9E6343"/>
</g>
<mask id="mask2_1807_8939" style="mask-type:luminance" maskUnits="userSpaceOnUse" x="5" y="7" width="25" height="47">
<path d="M5.68311 53.9546C7.51047 51.8054 19.5114 34.0675 20.7988 31.7995C21.2934 30.9269 21.3496 29.9138 20.9694 28.998C20.9392 28.9267 20.9111 28.8511 20.8809 28.7733C19.6864 27.6847 18.5049 26.4168 18.4444 25.6176C18.3925 24.9177 17.9065 24.1985 17.3601 23.4554C17.3255 23.4079 17.2045 23.2869 17.2456 23.1854C17.3665 22.8981 16.6041 22.3949 16.3405 22.1054C16.0122 21.7469 15.7811 21.5222 15.7811 21.5222C15.7811 21.5222 15.2865 19.4465 17.6409 20.3213C18.7122 20.7187 19.3451 21.5827 20.1378 22.464C20.2199 21.2241 20.4251 19.8957 20.8009 18.5198C20.8009 18.5198 20.8009 8.69182 23.2785 10.4393C23.2785 10.4393 22.8918 7.50166 24.393 7.49086C25.648 7.48006 25.6609 8.57518 25.6609 8.57518C25.6609 8.57518 28.0283 7.6615 27.9873 12.8433L29.3502 27.972L24.8639 43.7357C24.5507 44.8351 24.3023 45.9518 24.1209 47.0793C24.1209 47.0793 22.8443 52.4577 22.5765 53.9568H5.68311V53.9546Z" fill="white"/>
</mask>
<g mask="url(#mask2_1807_8939)">
<path d="M25.6587 8.57086C25.7667 8.7091 25.8099 8.88838 25.8574 9.0547C25.9827 9.5623 26.0388 10.0829 26.082 10.6013C26.1123 10.9922 26.1317 11.381 26.1339 11.772C26.1317 12.0679 26.1209 12.3854 26.1036 12.6835C26.082 13.0291 26.054 13.3725 26.0216 13.716C25.92 14.7117 25.8315 15.8047 25.7321 16.8005C25.6716 16.2842 25.6457 15.7658 25.6392 15.2453C25.6241 14.2106 25.7235 13.176 25.7732 12.15C25.8142 11.2968 25.8099 10.4393 25.7904 9.5839C25.7861 9.41326 25.7775 9.24262 25.7624 9.07198C25.7386 8.90134 25.7321 8.72638 25.6587 8.57086Z" fill="#9E6343"/>
</g>
<mask id="mask3_1807_8939" style="mask-type:luminance" maskUnits="userSpaceOnUse" x="5" y="7" width="25" height="47">
<path d="M5.68311 53.9546C7.51047 51.8054 19.5114 34.0675 20.7988 31.7995C21.2934 30.9269 21.3496 29.9138 20.9694 28.998C20.9392 28.9267 20.9111 28.8511 20.8809 28.7733C19.6864 27.6847 18.5049 26.4168 18.4444 25.6176C18.3925 24.9177 17.9065 24.1985 17.3601 23.4554C17.3255 23.4079 17.2045 23.2869 17.2456 23.1854C17.3665 22.8981 16.6041 22.3949 16.3405 22.1054C16.0122 21.7469 15.7811 21.5222 15.7811 21.5222C15.7811 21.5222 15.2865 19.4465 17.6409 20.3213C18.7122 20.7187 19.3451 21.5827 20.1378 22.464C20.2199 21.2241 20.4251 19.8957 20.8009 18.5198C20.8009 18.5198 20.8009 8.69182 23.2785 10.4393C23.2785 10.4393 22.8918 7.50166 24.393 7.49086C25.648 7.48006 25.6609 8.57518 25.6609 8.57518C25.6609 8.57518 28.0283 7.6615 27.9873 12.8433L29.3502 27.972L24.8639 43.7357C24.5507 44.8351 24.3023 45.9518 24.1209 47.0793C24.1209 47.0793 22.8443 52.4577 22.5765 53.9568H5.68311V53.9546Z" fill="white"/>
</mask>
<g mask="url(#mask3_1807_8939)">
<path d="M21.4727 19.0036C21.8658 18.6624 22.557 18.576 23.0235 18.8049C23.0559 18.8222 23.0883 18.8395 23.1186 18.8589C22.935 18.8697 22.7708 18.8654 22.5959 18.8784C22.2157 18.8956 21.8528 18.9561 21.4727 19.0036Z" fill="#9E6343"/>
</g>
<mask id="mask4_1807_8939" style="mask-type:luminance" maskUnits="userSpaceOnUse" x="5" y="7" width="25" height="47">
<path d="M5.68311 53.9546C7.51047 51.8054 19.5114 34.0675 20.7988 31.7995C21.2934 30.9269 21.3496 29.9138 20.9694 28.998C20.9392 28.9267 20.9111 28.8511 20.8809 28.7733C19.6864 27.6847 18.5049 26.4168 18.4444 25.6176C18.3925 24.9177 17.9065 24.1985 17.3601 23.4554C17.3255 23.4079 17.2045 23.2869 17.2456 23.1854C17.3665 22.8981 16.6041 22.3949 16.3405 22.1054C16.0122 21.7469 15.7811 21.5222 15.7811 21.5222C15.7811 21.5222 15.2865 19.4465 17.6409 20.3213C18.7122 20.7187 19.3451 21.5827 20.1378 22.464C20.2199 21.2241 20.4251 19.8957 20.8009 18.5198C20.8009 18.5198 20.8009 8.69182 23.2785 10.4393C23.2785 10.4393 22.8918 7.50166 24.393 7.49086C25.648 7.48006 25.6609 8.57518 25.6609 8.57518C25.6609 8.57518 28.0283 7.6615 27.9873 12.8433L29.3502 27.972L24.8639 43.7357C24.5507 44.8351 24.3023 45.9518 24.1209 47.0793C24.1209 47.0793 22.8443 52.4577 22.5765 53.9568H5.68311V53.9546Z" fill="white"/>
</mask>
<g mask="url(#mask4_1807_8939)">
<path d="M24.1035 18.2001C24.5312 17.874 25.2678 17.8221 25.7494 18.0554C25.4751 18.0986 25.2008 18.1072 24.9265 18.1332C24.6478 18.1548 24.3843 18.1828 24.1035 18.2001Z" fill="#9E6343"/>
</g>
<mask id="mask5_1807_8939" style="mask-type:luminance" maskUnits="userSpaceOnUse" x="5" y="7" width="25" height="47">
<path d="M5.68311 53.9546C7.51047 51.8054 19.5114 34.0675 20.7988 31.7995C21.2934 30.9269 21.3496 29.9138 20.9694 28.998C20.9392 28.9267 20.9111 28.8511 20.8809 28.7733C19.6864 27.6847 18.5049 26.4168 18.4444 25.6176C18.3925 24.9177 17.9065 24.1985 17.3601 23.4554C17.3255 23.4079 17.2045 23.2869 17.2456 23.1854C17.3665 22.8981 16.6041 22.3949 16.3405 22.1054C16.0122 21.7469 15.7811 21.5222 15.7811 21.5222C15.7811 21.5222 15.2865 19.4465 17.6409 20.3213C18.7122 20.7187 19.3451 21.5827 20.1378 22.464C20.2199 21.2241 20.4251 19.8957 20.8009 18.5198C20.8009 18.5198 20.8009 8.69182 23.2785 10.4393C23.2785 10.4393 22.8918 7.50166 24.393 7.49086C25.648 7.48006 25.6609 8.57518 25.6609 8.57518C25.6609 8.57518 28.0283 7.6615 27.9873 12.8433L29.3502 27.972L24.8639 43.7357C24.5507 44.8351 24.3023 45.9518 24.1209 47.0793C24.1209 47.0793 22.8443 52.4577 22.5765 53.9568H5.68311V53.9546Z" fill="white"/>
</mask>
<g mask="url(#mask5_1807_8939)">
<path d="M23.5679 21.7015C23.7709 21.8008 23.974 21.8872 24.1878 21.952C24.2245 21.9607 24.3239 21.9888 24.3628 21.9974C24.4794 22.0233 24.5982 22.0471 24.717 22.0665C25.6048 22.1983 26.5033 22.2112 27.3889 22.3732C26.6092 22.4359 25.8229 22.4316 25.0475 22.3214C24.8876 22.2976 24.7148 22.2631 24.5572 22.2199C24.3541 22.1659 24.1576 22.0903 23.974 21.9888C23.9588 21.978 23.8552 21.9175 23.84 21.9088C23.745 21.8462 23.6521 21.7771 23.5679 21.7015Z" fill="#9E6343"/>
</g>
<mask id="mask6_1807_8939" style="mask-type:luminance" maskUnits="userSpaceOnUse" x="5" y="7" width="25" height="47">
<path d="M5.68311 53.9546C7.51047 51.8054 19.5114 34.0675 20.7988 31.7995C21.2934 30.9269 21.3496 29.9138 20.9694 28.998C20.9392 28.9267 20.9111 28.8511 20.8809 28.7733C19.6864 27.6847 18.5049 26.4168 18.4444 25.6176C18.3925 24.9177 17.9065 24.1985 17.3601 23.4554C17.3255 23.4079 17.2045 23.2869 17.2456 23.1854C17.3665 22.8981 16.6041 22.3949 16.3405 22.1054C16.0122 21.7469 15.7811 21.5222 15.7811 21.5222C15.7811 21.5222 15.2865 19.4465 17.6409 20.3213C18.7122 20.7187 19.3451 21.5827 20.1378 22.464C20.2199 21.2241 20.4251 19.8957 20.8009 18.5198C20.8009 18.5198 20.8009 8.69182 23.2785 10.4393C23.2785 10.4393 22.8918 7.50166 24.393 7.49086C25.648 7.48006 25.6609 8.57518 25.6609 8.57518C25.6609 8.57518 28.0283 7.6615 27.9873 12.8433L29.3502 27.972L24.8639 43.7357C24.5507 44.8351 24.3023 45.9518 24.1209 47.0793C24.1209 47.0793 22.8443 52.4577 22.5765 53.9568H5.68311V53.9546Z" fill="white"/>
</mask>
<g mask="url(#mask6_1807_8939)">
<path d="M22.354 21.7706C22.8681 21.9521 23.3519 22.248 23.7537 22.6217C24.0777 22.9154 24.3736 23.2675 24.6803 23.5785C25.0907 24.0019 25.5486 24.3561 26.0303 24.7039C25.4342 24.4533 24.8877 24.0775 24.4276 23.6217C24.3304 23.5245 24.2116 23.4014 24.1166 23.2999C23.8833 23.0493 23.6565 22.7945 23.4059 22.5633C23.0862 22.2631 22.7298 22.0125 22.354 21.7706Z" fill="#9E6343"/>
</g>
<mask id="mask7_1807_8939" style="mask-type:luminance" maskUnits="userSpaceOnUse" x="5" y="7" width="25" height="47">
<path d="M5.68311 53.9546C7.51047 51.8054 19.5114 34.0675 20.7988 31.7995C21.2934 30.9269 21.3496 29.9138 20.9694 28.998C20.9392 28.9267 20.9111 28.8511 20.8809 28.7733C19.6864 27.6847 18.5049 26.4168 18.4444 25.6176C18.3925 24.9177 17.9065 24.1985 17.3601 23.4554C17.3255 23.4079 17.2045 23.2869 17.2456 23.1854C17.3665 22.8981 16.6041 22.3949 16.3405 22.1054C16.0122 21.7469 15.7811 21.5222 15.7811 21.5222C15.7811 21.5222 15.2865 19.4465 17.6409 20.3213C18.7122 20.7187 19.3451 21.5827 20.1378 22.464C20.2199 21.2241 20.4251 19.8957 20.8009 18.5198C20.8009 18.5198 20.8009 8.69182 23.2785 10.4393C23.2785 10.4393 22.8918 7.50166 24.393 7.49086C25.648 7.48006 25.6609 8.57518 25.6609 8.57518C25.6609 8.57518 28.0283 7.6615 27.9873 12.8433L29.3502 27.972L24.8639 43.7357C24.5507 44.8351 24.3023 45.9518 24.1209 47.0793C24.1209 47.0793 22.8443 52.4577 22.5765 53.9568H5.68311V53.9546Z" fill="white"/>
</mask>
<g mask="url(#mask7_1807_8939)">
<path d="M20.1333 22.4575C20.5739 22.8398 21.0967 23.1142 21.6431 23.3086C22.0751 23.4641 22.5136 23.5548 22.9672 23.6477C22.7015 23.6844 22.4337 23.6779 22.1659 23.6434C21.4055 23.5462 20.5329 23.1379 20.1333 22.4575Z" fill="#9E6343"/>
</g>
<mask id="mask8_1807_8939" style="mask-type:luminance" maskUnits="userSpaceOnUse" x="5" y="7" width="25" height="47">
<path d="M5.68311 53.9546C7.51047 51.8054 19.5114 34.0675 20.7988 31.7995C21.2934 30.9269 21.3496 29.9138 20.9694 28.998C20.9392 28.9267 20.9111 28.8511 20.8809 28.7733C19.6864 27.6847 18.5049 26.4168 18.4444 25.6176C18.3925 24.9177 17.9065 24.1985 17.3601 23.4554C17.3255 23.4079 17.2045 23.2869 17.2456 23.1854C17.3665 22.8981 16.6041 22.3949 16.3405 22.1054C16.0122 21.7469 15.7811 21.5222 15.7811 21.5222C15.7811 21.5222 15.2865 19.4465 17.6409 20.3213C18.7122 20.7187 19.3451 21.5827 20.1378 22.464C20.2199 21.2241 20.4251 19.8957 20.8009 18.5198C20.8009 18.5198 20.8009 8.69182 23.2785 10.4393C23.2785 10.4393 22.8918 7.50166 24.393 7.49086C25.648 7.48006 25.6609 8.57518 25.6609 8.57518C25.6609 8.57518 28.0283 7.6615 27.9873 12.8433L29.3502 27.972L24.8639 43.7357C24.5507 44.8351 24.3023 45.9518 24.1209 47.0793C24.1209 47.0793 22.8443 52.4577 22.5765 53.9568H5.68311V53.9546Z" fill="white"/>
</mask>
<g mask="url(#mask8_1807_8939)">
<path d="M20.8291 28.741C21.3065 29.0801 21.8486 29.3134 22.4081 29.4818C22.6305 29.5531 22.8595 29.6071 23.0885 29.6654C23.2029 29.6914 23.3196 29.7151 23.4384 29.7497C23.3779 29.7562 23.3174 29.7605 23.2569 29.7648C23.0755 29.7756 22.8941 29.767 22.7126 29.7454C22.637 29.7346 22.5614 29.7238 22.488 29.7108C22.4037 29.6914 22.3065 29.6698 22.2223 29.6482C22.1942 29.6395 22.0365 29.5877 22.0041 29.579C21.5592 29.4106 21.0948 29.1427 20.8291 28.741Z" fill="#9E6343"/>
</g>
<path d="M15.8502 21.6821C15.8502 21.6821 15.7422 21.2263 15.8502 21.2263C15.9582 21.2263 17.3644 22.5828 17.3277 22.883C17.291 23.1833 17.237 23.1898 17.237 23.1898L15.8502 21.6821Z" fill="#9E6343"/>
<path d="M49.2717 53.9546C49.2717 53.9546 37.3614 35.5882 36.4931 34.3872C35.8278 33.467 34.3936 31.5533 34.4325 29.5531C35.8818 27.0346 38.3766 22.6022 38.3766 21.9046C38.3766 20.9218 39.8627 18.846 38.625 18.6278C37.3852 18.4097 36.3916 19.8526 36.2685 20.6604C36.1929 21.1594 35.5017 21.9326 34.8386 22.451C34.7586 21.4229 34.6571 20.7036 34.6571 20.7036C34.5426 19.9411 34.4606 18.5998 34.3958 17.1115C34.385 16.8674 34.3742 16.6212 34.3655 16.3728C34.3526 16.0272 34.3396 15.6773 34.3266 15.3295C34.2662 13.5972 34.2165 11.9016 34.1625 10.8734C34.0394 8.57952 32.428 9.67248 32.428 9.67248C32.428 8.57952 31.4366 8.57952 31.4366 8.57952C29.9829 8.4996 29.9699 10.085 29.9699 10.085C27.4924 9.43056 27.9654 13.6037 27.9654 13.6037C24.6952 13.2559 25.4879 21.6842 24.1466 25.434C22.8052 29.1816 27.9006 35.3678 28.7085 39.5107C29.3975 43.0466 30.6287 49.2458 32.2271 53.9633L49.2717 53.9546Z" fill="#CC885A"/>
<mask id="mask9_1807_8939" style="mask-type:luminance" maskUnits="userSpaceOnUse" x="23" y="8" width="27" height="46">
<path d="M49.2717 53.9546C49.2717 53.9546 37.3614 35.5882 36.4931 34.3872C35.8278 33.467 34.3936 31.5533 34.4325 29.5531C35.8818 27.0346 38.3766 22.6022 38.3766 21.9046C38.3766 20.9218 39.8627 18.846 38.625 18.6278C37.3852 18.4097 36.3916 19.8526 36.2685 20.6604C36.1929 21.1594 35.5017 21.9326 34.8386 22.451C34.7586 21.4229 34.6571 20.7036 34.6571 20.7036C34.5426 19.9411 34.4606 18.5998 34.3958 17.1115C34.385 16.8674 34.3742 16.6212 34.3655 16.3728C34.3526 16.0272 34.3396 15.6773 34.3266 15.3295C34.2662 13.5972 34.2165 11.9016 34.1625 10.8734C34.0394 8.57952 32.428 9.67248 32.428 9.67248C32.428 8.57952 31.4366 8.57952 31.4366 8.57952C29.9829 8.4996 29.9699 10.085 29.9699 10.085C27.4924 9.43056 27.9654 13.6037 27.9654 13.6037C24.6952 13.2559 25.4879 21.6842 24.1466 25.434C22.8052 29.1816 27.9006 35.3678 28.7085 39.5107C29.3975 43.0466 30.6287 49.2458 32.2271 53.9633L49.2717 53.9546Z" fill="white"/>
</mask>
<g mask="url(#mask9_1807_8939)">
<path d="M34.9314 21.8679C34.9119 22.4554 35.0199 23.0343 35.1668 23.6002C35.2338 23.8594 35.3353 24.1272 35.359 24.3994C35.426 25.0582 35.2878 25.7235 35.0653 26.3412C35.0286 26.4427 34.9875 26.5443 34.9443 26.6436C34.9011 26.743 34.8536 26.8402 34.8018 26.9352C34.9832 26.1058 35.1668 25.272 35.0977 24.4253C35.0804 24.2136 35.0264 24.0235 34.9746 23.8119C34.8342 23.1941 34.7607 22.4878 34.9314 21.8679Z" fill="#B77446"/>
<path d="M32.4322 9.67682C32.4798 9.8993 32.5057 10.1283 32.5208 10.3572C32.564 11.0398 32.5446 11.7267 32.5381 12.4092C32.4841 15.1395 32.5813 17.8632 32.6785 20.5913C32.2076 17.4312 32.1709 14.2215 32.4171 11.0398C32.4452 10.584 32.4711 10.1304 32.4322 9.67682Z" fill="#B77446"/>
<path d="M30.0737 10.1153C30.6181 10.3054 30.631 12.3531 30.6569 12.8952C30.6785 13.7355 30.6677 14.5843 30.6504 15.4246C30.618 16.9755 30.4474 18.5566 30.4215 20.1075C30.415 20.3386 30.4128 20.5978 30.4107 20.8289C30.4085 21.0687 30.4128 21.3106 30.4128 21.5525C30.1083 19.7683 30.1904 17.9367 30.2703 16.1374C30.2897 15.5779 30.307 14.9019 30.3264 14.3381C30.3502 13.2127 30.4625 11.8606 30.3459 10.7482C30.3113 10.5387 30.2681 10.2233 30.0737 10.1153Z" fill="#B77446"/>
<path d="M27.9587 13.6102C28.1855 13.6642 28.2568 13.7592 28.2698 13.9903C28.2806 14.5001 28.2417 14.999 28.2395 15.5045C28.2266 16.1611 28.2309 16.8566 28.2287 17.5133C28.2244 18.0187 28.2136 18.5371 28.1467 19.0404C28.0797 19.548 27.9242 20.0491 27.7471 20.5222C27.6283 20.8375 27.503 21.1507 27.3647 21.4596C27.4317 21.1291 27.5095 20.8008 27.5851 20.4725C27.7449 19.8223 27.8572 19.1808 27.8615 18.5112C27.8767 17.8524 27.8572 17.1569 27.8788 16.4981C27.9026 15.7378 27.9803 14.9774 28.1229 14.2301C28.138 14.148 28.1531 14.0659 28.1618 13.9838C28.1704 13.9082 28.1791 13.8262 28.1423 13.7592C28.1056 13.6922 28.0257 13.6512 27.9587 13.6102Z" fill="#B77446"/>
<path d="M27.693 22.2955C27.8702 22.7988 27.6412 23.598 27.0796 23.7492C27.1595 23.6369 27.2308 23.5289 27.2913 23.4079C27.4749 23.0515 27.557 22.6757 27.693 22.2955Z" fill="#B77446"/>
<path d="M30.4582 22.2718C30.7758 22.734 30.5986 23.5224 30.0327 23.6952C30.1083 23.5764 30.1753 23.4706 30.2271 23.3583C30.3913 23.0148 30.4172 22.6519 30.4582 22.2718Z" fill="#B77446"/>
<path d="M32.7457 21.3754C33.1712 21.7901 33.2187 22.5871 32.7133 22.963C32.6463 23.0148 32.5729 23.0537 32.4951 23.0818C32.5902 22.9457 32.6744 22.8204 32.7327 22.6865C32.9163 22.2653 32.8342 21.8182 32.7457 21.3754Z" fill="#B77446"/>
<path d="M32.1862 16.9798C31.9767 17.2563 31.5619 17.401 31.2423 17.2282C31.1386 17.172 31.0522 17.09 30.9917 16.9928C31.0867 17.0532 31.1818 17.1072 31.2811 17.1418C31.59 17.2498 31.9075 17.1288 32.1862 16.9798Z" fill="#B77446"/>
<path d="M30.9463 16.632C31.1558 16.3555 31.5727 16.2151 31.8902 16.3879C31.9939 16.4441 32.0803 16.5262 32.1408 16.6234C32.0457 16.5607 31.9507 16.5089 31.8535 16.4743C31.5446 16.3642 31.2249 16.483 30.9463 16.632Z" fill="#B77446"/>
<path d="M31.0151 16.8847C31.3154 16.7724 31.8251 16.727 32.1211 16.8588C31.7582 16.889 31.3802 16.9344 31.0151 16.8847Z" fill="#B77446"/>
<path d="M29.7711 18.0123C29.5616 18.2887 29.1469 18.4335 28.8272 18.2607C28.7235 18.2045 28.6371 18.1224 28.5767 18.0252C28.6717 18.0857 28.7667 18.1397 28.8661 18.1743C29.175 18.2823 29.4947 18.1613 29.7711 18.0123Z" fill="#B77446"/>
<path d="M28.5312 17.6645C28.7408 17.388 29.1576 17.2476 29.4752 17.4204C29.5788 17.4766 29.6652 17.5586 29.7257 17.6558C29.6307 17.5932 29.5356 17.5414 29.4384 17.5068C29.1296 17.3988 28.8099 17.5176 28.5312 17.6645Z" fill="#B77446"/>
<path d="M28.6006 17.9172C28.9008 17.8049 29.4106 17.7595 29.7065 17.8913C29.3436 17.9237 28.9656 17.9669 28.6006 17.9172Z" fill="#B77446"/>
<path d="M27.298 19.2003C27.0885 19.4767 26.6738 19.6215 26.3541 19.4487C26.2504 19.3925 26.164 19.3104 26.1035 19.2132C26.1986 19.2737 26.2936 19.3277 26.393 19.3623C26.7018 19.4703 27.0194 19.3515 27.298 19.2003Z" fill="#B77446"/>
<path d="M26.0581 18.8547C26.2676 18.5782 26.6845 18.4378 27.002 18.6106C27.1057 18.6668 27.1921 18.7488 27.2526 18.846C27.1575 18.7834 27.0625 18.7316 26.9653 18.697C26.6543 18.5868 26.3367 18.7056 26.0581 18.8547Z" fill="#B77446"/>
<path d="M26.1274 19.1052C26.4277 18.9929 26.9374 18.9476 27.2334 19.0793C26.8705 19.1117 26.4903 19.1549 26.1274 19.1052Z" fill="#B77446"/>
<path d="M34.0719 17.1828C33.8624 17.4593 33.4477 17.604 33.128 17.4312C33.0243 17.375 32.9379 17.293 32.8774 17.1958C32.9725 17.2562 33.0675 17.3102 33.1669 17.3448C33.4758 17.4528 33.7954 17.3318 34.0719 17.1828Z" fill="#B77446"/>
<path d="M32.832 16.8372C33.0416 16.5607 33.4584 16.4203 33.776 16.5931C33.8796 16.6493 33.966 16.7314 34.0265 16.8286C33.9315 16.7659 33.8364 16.7141 33.7392 16.6795C33.4304 16.5694 33.1107 16.6882 32.832 16.8372Z" fill="#B77446"/>
<path d="M32.9009 17.0878C33.2011 16.9755 33.7109 16.9301 34.0068 17.0619C33.6439 17.0943 33.2659 17.1375 32.9009 17.0878Z" fill="#B77446"/>
</g>
<mask id="mask10_1807_8939" style="mask-type:luminance" maskUnits="userSpaceOnUse" x="23" y="8" width="27" height="46">
<path d="M49.2717 53.9546C49.2717 53.9546 37.3614 35.5882 36.4931 34.3872C35.8278 33.467 34.3936 31.5533 34.4325 29.5531C35.8818 27.0346 38.3766 22.6022 38.3766 21.9046C38.3766 20.9218 39.8627 18.846 38.625 18.6278C37.3852 18.4097 36.3916 19.8526 36.2685 20.6604C36.1929 21.1594 35.5017 21.9326 34.8386 22.451C34.7586 21.4229 34.6571 20.7036 34.6571 20.7036C34.5426 19.9411 34.4606 18.5998 34.3958 17.1115C34.385 16.8674 34.3742 16.6212 34.3655 16.3728C34.3526 16.0272 34.3396 15.6773 34.3266 15.3295C34.2662 13.5972 34.2165 11.9016 34.1625 10.8734C34.0394 8.57952 32.428 9.67248 32.428 9.67248C32.428 8.57952 31.4366 8.57952 31.4366 8.57952C29.9829 8.4996 29.9699 10.085 29.9699 10.085C27.4924 9.43056 27.9654 13.6037 27.9654 13.6037C24.6952 13.2559 25.4879 21.6842 24.1466 25.434C22.8052 29.1816 27.9006 35.3678 28.7085 39.5107C29.3975 43.0466 30.6287 49.2458 32.2271 53.9633L49.2717 53.9546Z" fill="white"/>
</mask>
<g mask="url(#mask10_1807_8939)">
<path d="M32.5663 9.9295C32.6203 9.6703 33.2251 9.21454 33.7629 9.92302C33.7629 9.92302 34.1237 10.6142 33.9055 10.8842C33.3461 11.5754 32.6916 11.0052 32.6916 11.0052C32.6916 11.0052 32.5123 10.1865 32.5663 9.9295Z" fill="#D6966B"/>
</g>
<path d="M39.1501 19.183C39.1501 19.183 38.6728 18.779 38.5129 19.3018C38.3531 19.8223 37.9232 21.2285 38.3012 21.5244C38.6792 21.8203 39.1501 19.183 39.1501 19.183Z" fill="#D6966B"/>
<path d="M30.6869 9.05255C30.6869 9.05255 31.5769 8.59031 32.1039 9.05255C32.1039 9.05255 32.3177 9.85607 32.1838 10.4414C32.0499 11.0268 30.8187 10.8237 30.8187 10.8237C30.8187 10.8237 30.458 9.81719 30.6869 9.05255Z" fill="#D6966B"/>
<path d="M30.1017 10.4091C30.1017 10.4091 29.4105 10.0116 28.8187 10.4091C28.8187 10.4091 28.5876 10.962 28.6826 11.7072C28.7776 12.4524 30.0045 12.0787 30.0045 12.0787C30.0045 12.0787 30.3069 11.934 30.1017 10.4091Z" fill="#D6966B"/>
<path d="M28.0261 13.9644C28.0261 13.9644 27.3889 13.5886 27.0995 14.0422C26.8122 14.4936 26.6524 15.0509 26.8338 15.1913C27.0152 15.3339 27.8274 15.3965 27.8641 15.2626C27.9008 15.1287 28.0261 13.9644 28.0261 13.9644Z" fill="#D6966B"/>
<path d="M50.2589 53.9546L31.4194 53.9633C31.4194 53.9633 28.6201 45.077 28.6611 43.8717C30.5857 44.1266 39.0745 38.2082 38.6209 36.6746C39.6598 38.1434 50.2589 53.9546 50.2589 53.9546Z" fill="#FD5907"/>
<mask id="mask11_1807_8939" style="mask-type:luminance" maskUnits="userSpaceOnUse" x="28" y="36" width="23" height="18">
<path d="M50.2589 53.9546L31.4194 53.9633C31.4194 53.9633 28.6201 45.077 28.6611 43.8717C30.5857 44.1266 39.0745 38.2082 38.6209 36.6746C39.6598 38.1434 50.2589 53.9546 50.2589 53.9546Z" fill="white"/>
</mask>
<g mask="url(#mask11_1807_8939)">
<path d="M28.9266 44.8113C29.5811 44.8999 30.255 44.9172 30.9051 44.7638C31.4581 44.6191 31.9679 44.3556 32.4906 44.1266C33.0155 43.9236 33.4928 43.6147 33.9702 43.3188C34.4346 43.0012 34.9033 42.6816 35.3353 42.3208C36.1755 41.6361 36.8084 40.7397 37.3635 39.8174C37.6271 39.3962 37.8863 38.9707 38.1001 38.5192C38.1908 38.34 38.2902 38.1628 38.2772 37.9555C38.2599 37.6574 37.8884 37.5148 37.6595 37.6639C37.5925 37.6142 37.4931 37.6099 37.4327 37.692C37.1087 38.2341 36.7717 38.7223 36.4045 39.2472C36.4088 39.2407 36.4131 39.2364 36.4153 39.2299C35.8429 40.055 34.994 40.6209 34.2078 41.2279C33.7758 41.5648 33.3546 41.8392 32.8837 42.1351C32.6115 42.3208 32.307 42.5001 31.9959 42.6427C31.5855 42.8457 31.1838 43.0725 30.7453 43.2129C30.2744 43.3771 29.7992 43.5434 29.2981 43.5736C28.905 43.6341 28.5097 43.6233 28.1166 43.6017C28.0734 43.5844 28.0194 43.5996 28.0043 43.6492C27.9935 43.686 28.0172 43.7313 28.0561 43.74C28.3239 43.7961 28.5875 43.8674 28.8618 43.8782C29.1966 43.8804 29.5335 43.8674 29.8662 43.8285C30.2485 43.768 30.6157 43.6384 30.9872 43.5304C31.2918 43.4397 31.5791 43.3015 31.8642 43.1589C32.294 42.9494 32.7239 42.7377 33.117 42.4612C33.6116 42.1567 34.1019 41.8262 34.5663 41.472C35.0156 41.1458 35.4671 40.8218 35.8904 40.4632C35.7263 40.7008 35.5535 40.932 35.3634 41.1523C34.6679 41.9018 33.8319 42.5066 32.9701 43.0488C32.5079 43.3468 31.9916 43.5477 31.5078 43.8048C31.2853 43.9084 31.0585 44.0078 30.8252 44.0877C30.4753 44.1914 30.1103 44.226 29.7495 44.254C29.5206 44.2605 29.2959 44.2432 29.067 44.2324C28.6436 44.2411 28.2116 44.2648 27.8055 44.118C27.7062 44.0791 27.5982 44.0402 27.5226 43.9624C27.4902 43.9192 27.4319 43.9041 27.3822 43.9322C27.339 43.956 27.3195 44.0056 27.3282 44.0532C27.3606 44.4506 27.7796 44.6191 28.1144 44.7098C28.3736 44.7962 28.6523 44.8005 28.9266 44.8113Z" fill="#E84B0E"/>
<path d="M30.5208 48.3083C31.0154 47.8699 30.1666 47.2586 29.8858 46.9411C29.6266 46.6819 29.3825 46.4075 29.1427 46.1289C28.8403 45.7833 28.5768 45.4075 28.309 45.0338C28.2096 44.9085 28.0498 44.7422 27.8705 44.7983C27.7711 44.8286 27.6955 44.9128 27.6934 45.0208C27.6934 45.1223 27.7452 45.2001 27.7992 45.28C27.877 45.401 27.9439 45.5327 28.013 45.6602C28.458 46.5047 29.0693 47.2413 29.7086 47.9433C29.8987 48.1831 30.1903 48.5503 30.5208 48.3083Z" fill="#E84B0E"/>
<path d="M30.6568 46.6257C30.4105 46.3579 30.1837 46.0728 29.9505 45.7941C29.8425 45.6689 29.7388 45.5414 29.6157 45.4313C29.5444 45.3665 29.4666 45.2887 29.3673 45.2757C29.2506 45.2606 29.1664 45.3773 29.1966 45.4853C29.337 45.8373 29.6005 46.1333 29.8014 46.4529C29.9548 46.6797 30.1103 46.9065 30.2939 47.1096C30.4343 47.2759 30.6438 47.4638 30.849 47.2716C31.0607 47.0556 30.8037 46.7964 30.6568 46.6257Z" fill="#E84B0E"/>
<path d="M31.0303 45.9C30.9979 45.7661 30.9634 45.6321 30.9396 45.4961C30.9202 45.1807 30.6372 45.1699 30.5983 45.4831C30.5681 45.6689 30.5443 45.8546 30.5314 46.0404C30.4882 46.2305 30.6264 46.4378 30.8316 46.4097C31.0908 46.3752 31.1059 46.1009 31.0303 45.9Z" fill="#E84B0E"/>
<path d="M31.8663 47.4335C31.9074 46.9562 31.9009 46.4788 31.9203 46.0015C31.9311 45.7315 31.9333 45.4615 31.9398 45.1915C31.9376 45.0964 31.9614 44.9927 31.9225 44.902C31.8987 44.8545 31.8404 44.8459 31.7972 44.8675C31.7302 44.8999 31.7108 44.9819 31.6892 45.0467C31.6374 45.2152 31.6028 45.388 31.5704 45.5608C31.4797 46.103 31.4235 46.6473 31.3328 47.1895C31.3112 47.4616 31.1362 47.9433 31.5164 48.0232C31.8555 48.0556 31.8555 47.6755 31.8663 47.4335Z" fill="#E84B0E"/>
<path d="M32.8298 46.6732C32.819 46.3708 32.8039 46.0965 32.7823 45.7768C32.7694 45.5306 32.7694 45.2757 32.7629 45.0273C32.7607 44.9884 32.7586 44.9517 32.7542 44.9128C32.7521 44.8286 32.6506 44.7573 32.5836 44.8264C32.5469 44.861 32.5404 44.9171 32.5318 44.9647C32.4367 45.442 32.4324 45.928 32.3978 46.4119C32.3978 46.6387 32.2639 47.0599 32.6009 47.0879C32.8406 47.0771 32.8536 46.859 32.8298 46.6732Z" fill="#E84B0E"/>
<path d="M35.5902 46.0188C35.8667 45.954 35.9747 45.5824 35.7695 45.3859C35.48 45.1461 35.1193 44.9971 34.778 44.8416C34.3396 44.6666 33.8989 44.4873 33.4453 44.3577C33.2984 44.3296 33.1213 44.2929 32.9939 44.3923C32.9096 44.4636 32.8729 44.5824 32.9312 44.6817C33.0068 44.8027 33.1451 44.8653 33.2639 44.9388C33.7693 45.2304 34.2985 45.4788 34.8104 45.7552C35.0502 45.8784 35.3008 46.0879 35.5902 46.0188Z" fill="#E84B0E"/>
<path d="M34.2187 45.7596C34.0156 45.6667 33.7888 45.6386 33.5728 45.5825C33.3352 45.4831 33.1581 45.6494 33.3309 45.8654C33.4929 46.0663 33.7197 46.1916 33.9314 46.3298C34.3267 46.5372 34.6226 45.9475 34.2187 45.7596Z" fill="#E84B0E"/>
<path d="M34.9985 44.4506C35.4176 44.5521 35.5861 43.943 35.1757 43.8178C35.0029 43.781 34.8279 43.7465 34.6594 43.6903C34.5449 43.6622 34.4175 43.6126 34.3009 43.6558C34.141 43.7314 34.2425 43.9128 34.3397 43.9949C34.5277 44.185 34.7372 44.375 34.9985 44.4506Z" fill="#E84B0E"/>
<path d="M36.4282 45.401C36.5967 45.334 36.6896 45.1504 36.6507 44.9711C36.5989 44.7573 36.5297 44.5478 36.4865 44.3296C36.3893 43.9019 36.3094 43.4699 36.1798 43.0509C36.0977 42.8608 36.02 42.2668 35.7068 42.4504C35.5145 42.6275 35.6096 42.9235 35.6333 43.1481C35.6657 43.3684 35.696 43.5887 35.7197 43.8091C35.7457 44.0337 35.7737 44.2562 35.8018 44.4808C35.8623 44.8415 35.8861 45.5695 36.4282 45.401Z" fill="#E84B0E"/>
<path d="M39.3873 42.8349C39.8409 42.7205 39.8063 42.0509 39.3484 41.9925C39.2123 41.9817 39.0741 41.9904 38.938 41.9839C38.6896 41.958 38.4542 41.8759 38.2079 41.8392C38.0006 41.8046 37.7867 41.7981 37.575 41.7917C37.2532 41.7981 36.5663 41.6815 36.3438 41.9364C36.1602 42.215 36.521 42.3662 36.7434 42.4029C37.1279 42.5001 37.521 42.5585 37.9098 42.6341C38.3937 42.7529 38.8818 42.9797 39.3873 42.8349Z" fill="#E84B0E"/>
<path d="M39.9188 41.7355C40.2515 41.4504 39.9815 41.1523 39.7698 40.9039C39.5322 40.6166 39.3162 40.3142 39.111 40.001C38.9727 39.8261 38.7373 39.2493 38.4997 39.2839C38.4176 39.2925 38.3571 39.3725 38.355 39.4524C38.3874 39.8477 38.5904 40.2084 38.7481 40.5648C38.882 40.8477 39.0332 41.1221 39.1952 41.3899C39.3486 41.6664 39.5797 41.9601 39.9188 41.7355Z" fill="#E84B0E"/>
<path d="M38.7372 38.7504C38.9079 38.8411 39.1088 38.8713 39.2967 38.9167C39.6488 38.9944 40.0095 39.0376 40.368 39.0031C40.5668 38.9793 40.7763 38.9944 40.9556 38.8929C41.2493 38.7439 41.1629 38.2665 40.8368 38.2341C40.7072 38.2233 40.5754 38.2147 40.4458 38.2276C40.2384 38.26 40.0354 38.3248 39.8237 38.3313C39.5343 38.34 39.2448 38.3335 38.9597 38.3875C38.7804 38.4069 38.5644 38.584 38.7372 38.7504Z" fill="#E84B0E"/>
<path d="M39.4023 39.4394C39.3678 39.4783 39.357 39.528 39.3656 39.5755C39.3829 39.6813 39.4585 39.7699 39.5017 39.8692C39.5665 40.0096 39.6248 40.1565 39.7155 40.2904C39.8192 40.4438 40.0482 40.4654 40.1929 40.3574C40.545 40.0464 40.1519 39.7396 39.9121 39.5301C39.776 39.4156 39.5535 39.2666 39.4023 39.4394Z" fill="#E84B0E"/>
<path d="M40.0374 39.4351C39.9856 39.636 40.3744 39.7332 40.491 39.6101C40.612 39.4999 40.5256 39.2753 40.3593 39.2818C40.2426 39.2861 40.0806 39.3012 40.0374 39.4351Z" fill="#E84B0E"/>
<path d="M38.3529 40.5388C38.3032 40.4611 38.26 40.379 38.2168 40.2969C38.1564 40.1846 38.0872 40.0377 37.9468 40.0161C37.8388 39.9967 37.7459 40.1176 37.7891 40.217C37.9058 40.4762 38.1348 41.5173 38.5646 41.2365C38.8281 41.0119 38.4631 40.744 38.3529 40.5388Z" fill="#E84B0E"/>
<path d="M37.8063 41.2927C38.0849 41.2538 38.0395 40.8412 37.7587 40.8671C37.5514 40.8931 37.344 40.9319 37.1431 40.9903C36.9466 41.0594 37.0006 41.3445 37.2101 41.3143C37.4196 41.3294 37.5881 41.3121 37.8063 41.2927Z" fill="#E84B0E"/>
<path d="M37.1365 44.5392C37.3504 44.4484 37.2748 44.2389 37.21 44.0748C37.1365 43.8285 37.1063 43.5715 37.0653 43.3166C37.0566 43.2194 36.9745 43.1028 36.8665 43.1632C36.8104 43.1956 36.7909 43.2583 36.7845 43.3188C36.7715 43.47 36.778 43.6212 36.778 43.7745C36.8082 44.0251 36.7132 44.6536 37.1365 44.5392Z" fill="#E84B0E"/>
<path d="M37.5837 43.5369C37.6225 43.5542 37.6614 43.5758 37.7003 43.5931C37.7673 43.6233 37.8364 43.6471 37.9055 43.6687C38.3137 43.7335 38.4541 43.0919 37.7089 43.1287C37.3309 43.0163 37.1754 43.5801 37.5837 43.5369Z" fill="#E84B0E"/>
<path d="M29.2417 48.2695C29.3821 48.1248 29.2223 47.9844 29.1229 47.8764C29.0646 47.8094 29.0085 47.7381 28.9566 47.6669C28.9653 47.6064 28.9048 47.5805 28.8745 47.5373C28.8076 47.466 28.6845 47.5157 28.6693 47.6085C28.6456 47.736 28.7255 47.8548 28.7838 47.9628C28.84 48.0621 28.8983 48.1593 28.9653 48.2522C29.0322 48.3386 29.1661 48.3451 29.2417 48.2695Z" fill="#E84B0E"/>
<path d="M29.7994 43.1287C29.8405 43.1135 29.8621 43.0768 29.8707 43.0379C29.9355 42.8198 30.009 42.6059 30.0932 42.3943C30.2271 42.053 30.441 41.7527 30.7218 41.5065C31.0479 41.5735 30.9291 42.0163 30.8341 42.2366C30.8578 42.1199 30.7758 42.0033 30.6591 41.9882C30.4539 41.9601 30.3891 42.1977 30.3783 42.3597C30.333 42.6599 30.7498 42.9472 30.968 42.6772C31.238 42.4288 31.3438 42.04 31.3201 41.6836C31.305 41.4374 31.1408 41.2084 30.9421 41.0723C30.6354 40.8931 30.374 41.0594 30.1537 41.2883C29.8189 41.6015 29.6547 42.053 29.6029 42.5001C29.5791 42.6772 29.497 43.1783 29.7994 43.1287Z" fill="#E84B0E"/>
<path d="M31.888 41.6534C31.8469 41.7657 31.7972 41.8737 31.7497 41.9817C31.7368 42.0141 31.726 42.053 31.7368 42.0876C31.7692 42.202 31.9139 42.1675 31.9808 42.1048C32.1774 41.9493 32.2832 41.7074 32.3869 41.4871C32.5532 41.1091 32.6375 40.6814 32.5273 40.2796C32.4582 40.0723 32.3696 39.8023 32.1407 39.7332C31.7303 39.6597 31.3004 40.1824 31.3501 40.5712C31.3631 40.7332 31.5078 40.8931 31.6784 40.8218C31.8145 40.7678 31.8512 40.6144 31.7951 40.4892C31.808 40.3768 31.8901 40.258 31.9916 40.2062C32.2033 40.6663 32.0305 41.1976 31.888 41.6534Z" fill="#E84B0E"/>
<path d="M32.8947 40.8326C32.9076 40.9514 32.9141 41.0724 32.9227 41.1912C32.9271 41.2322 32.9335 41.2732 32.9681 41.2992C33.1863 41.418 33.1344 40.8434 33.1582 40.7268C33.1906 40.4503 33.2964 39.9751 33.5513 39.8282C33.7047 39.947 33.6701 40.2084 33.5643 40.3531C33.48 40.4848 33.6161 40.6663 33.7651 40.6209C34.0243 40.4935 34.1129 40.0939 34.0783 39.8304C34.0481 39.474 33.6377 39.1651 33.3094 39.3919C32.9055 39.664 32.8385 40.392 32.8947 40.8326Z" fill="#E84B0E"/>
<path d="M35.2124 40.1284C35.5947 39.7656 35.5558 39.0636 35.3484 38.6229C35.2102 38.314 34.9488 37.9944 34.5687 38.1024C34.1799 38.2039 33.9812 38.7136 34.1475 39.0636C34.2447 39.2493 34.5147 39.4999 34.7004 39.2774C34.7696 39.1867 34.7609 39.0592 34.6832 38.9772C34.6205 38.9188 34.5687 38.8454 34.5795 38.7547C34.6702 38.3076 34.8711 38.7806 34.9316 38.9599C34.9856 39.2148 35.0482 39.6662 34.7566 39.7936C34.7523 39.7245 34.7112 39.6446 34.6292 39.664C34.5104 39.7051 34.4456 39.8541 34.4391 39.9708C34.465 40.3747 34.9834 40.3509 35.2124 40.1284Z" fill="#E84B0E"/>
<path d="M35.8947 39.0938C35.8839 39.1089 35.8796 39.1284 35.8774 39.1478C35.8774 39.1953 35.9077 39.2385 35.9552 39.2515C36.0006 39.2644 36.0524 39.2428 36.0762 39.2018C36.0934 39.1737 36.0934 39.1413 36.0826 39.1111C36.0891 39.0571 36.0848 39.0009 36.0718 38.9469C36.0351 38.7201 35.9984 38.4458 36.1712 38.2622C36.1842 38.2708 36.1842 38.2881 36.1885 38.3032C36.2014 38.3853 36.2684 38.4501 36.3526 38.4523C36.5773 38.4458 36.56 38.1391 36.4498 38.0095C36.357 37.895 36.1928 37.8021 36.0416 37.8583C35.6031 38.0937 35.6182 38.7439 35.8947 39.0938Z" fill="#E84B0E"/>
<path d="M30.2156 49.6886C30.2114 49.6886 30.2093 49.6886 30.2051 49.6886C30.2093 49.6865 30.2114 49.6886 30.2156 49.6886Z" fill="#E84B0E"/>
<path d="M30.2214 49.6865H30.2183C30.2183 49.6896 30.2183 49.6896 30.2214 49.6865Z" fill="#E84B0E"/>
<path d="M31.78 49.3452C32.2249 49.2545 32.644 49.073 33.0738 48.9305C33.4756 48.749 33.8752 48.5633 34.2834 48.3948C34.8601 48.1529 35.4628 47.9736 36.0049 47.6582C36.8905 47.1161 37.774 46.548 38.5321 45.833C38.9836 45.3751 39.4048 44.8869 39.7871 44.3707C40.029 44.0273 40.2623 43.6795 40.5258 43.3533C41.0096 42.6837 41.4676 41.9882 41.8607 41.2603C42.1566 40.6015 42.4136 39.9081 42.513 39.191C42.5195 39.0873 42.5497 38.9858 42.5476 38.88C42.5346 38.664 42.2192 38.6035 42.1177 38.7914C42.027 38.9815 42.0292 39.1997 41.9665 39.3984C41.8369 39.9513 41.6296 40.487 41.4071 41.0076C41.0399 41.7031 40.6057 42.3554 40.1586 43.0013C39.934 43.295 39.7158 43.5931 39.5106 43.902C39.1585 44.4204 38.746 44.8956 38.314 45.3513C37.9921 45.6948 37.6184 45.9777 37.234 46.2477C36.6205 46.6776 35.9876 47.0966 35.3008 47.4033C34.7262 47.6301 34.1387 47.831 33.5728 48.0837C33.1991 48.2371 32.8492 48.4423 32.4582 48.5568C31.8253 48.8268 31.1471 48.9715 30.5336 49.2869C30.4516 49.3257 30.3673 49.3625 30.2852 49.4013C30.2204 49.4316 30.1405 49.4553 30.1081 49.5266C30.0736 49.5957 30.1297 49.68 30.201 49.6886C30.741 49.667 31.2572 49.464 31.78 49.3452Z" fill="#E84B0E"/>
<path d="M30.7499 50.3258C30.9788 50.2459 31.238 50.2156 31.4778 50.1573C31.6679 50.1098 31.8471 50.045 32.0351 49.9867C32.3418 49.8895 32.7155 49.8333 33.0222 49.6951C33.3267 49.5611 33.6486 49.4704 33.951 49.33C34.4543 49.0816 34.9813 48.8224 35.4695 48.533C35.7719 48.3623 36.0656 48.1787 36.3788 48.0275C36.5991 47.9282 36.854 47.7748 37.0592 47.6301C37.7979 47.1074 38.5626 46.6019 39.1868 45.9388C39.6707 45.4226 40.1955 44.9387 40.6146 44.3685C41.0639 43.7788 41.4267 43.1351 41.7788 42.4828C42.0035 42.1005 42.1633 41.6879 42.3361 41.2819C42.5931 40.7527 42.8739 40.2191 42.9841 39.6381C42.9906 39.5647 42.9517 39.4934 42.8761 39.4739C42.8005 39.4545 42.7314 39.4934 42.699 39.5603C42.5867 39.7979 42.5327 40.0507 42.4268 40.2926C42.2497 40.7138 42.0013 41.0983 41.8242 41.5173C41.6298 41.9255 41.3706 42.2949 41.1567 42.6902C40.7895 43.3641 40.3813 44.0251 39.8629 44.5953C39.5195 44.9603 39.1242 45.3513 38.7786 45.7271C38.4049 46.1267 37.9751 46.4572 37.5171 46.7618C37.1262 47.021 36.7676 47.332 36.3443 47.5372C36.0764 47.6431 35.8151 47.7683 35.5688 47.9174C35.1131 48.1852 34.6616 48.4574 34.1994 48.7101C33.8797 48.9067 33.5406 49.06 33.1842 49.1788C32.9919 49.2544 32.8062 49.343 32.6096 49.4099C32.2143 49.5071 31.8277 49.6303 31.4475 49.775C31.1603 49.8657 30.8579 49.9175 30.5922 50.0666C30.5015 50.1163 30.3632 50.2048 30.387 50.3258C30.3956 50.3711 30.4388 50.4035 30.482 50.41C30.5749 50.41 30.6591 50.3474 30.7499 50.3258Z" fill="#E84B0E"/>
<path d="M31.6847 51.8616C31.8856 51.4425 32.121 51.017 32.4861 50.7124C32.5401 50.6498 32.6157 50.6282 32.6978 50.639C32.7626 50.6627 32.7388 50.7643 32.715 50.814C32.6502 50.896 32.5358 50.9479 32.5379 51.0667C32.5293 51.2546 32.7798 51.3431 32.9008 51.2006C33.4257 50.7621 33.1427 49.9932 32.4342 50.1573C32.0951 50.2912 31.8251 50.6563 31.6674 50.976C31.5875 51.2092 31.4579 51.4598 31.4752 51.7255C31.4709 51.8399 31.5789 51.9717 31.6847 51.8616Z" fill="#E84B0E"/>
<path d="M32.2874 51.4015C32.0476 51.5505 32.1081 51.9933 32.363 52.0927C32.8209 52.2266 33.1968 51.7449 33.5316 51.5009C33.9398 51.1661 34.3135 50.5483 34.3113 50.0126C34.2984 49.7772 34.1688 49.5115 33.8901 49.5763C33.6093 49.6238 33.1536 50.1077 33.5272 50.315C33.7152 50.3928 33.8188 50.2243 33.9117 50.0904C33.8728 50.4122 33.6871 50.7125 33.4905 50.963C33.2248 51.233 32.8771 51.4145 32.5315 51.5613C32.6373 51.3993 32.3954 51.3432 32.2874 51.4015Z" fill="#E84B0E"/>
<path d="M34.4992 50.4446C34.4107 50.7362 34.564 51.084 34.9118 50.9932C35.1839 50.9025 35.4107 50.7081 35.6332 50.531C36.035 50.1595 36.3136 49.6108 36.2855 49.06C36.2013 48.3818 35.3719 48.5676 35.0975 49.0233C34.9615 49.194 34.8189 49.5461 35.1083 49.6389C35.2358 49.6735 35.3632 49.5936 35.4021 49.4704C35.4885 49.3236 35.5965 49.1486 35.7779 49.1205C35.752 49.4661 35.5641 49.7815 35.3438 50.0428C35.1861 50.2113 34.9895 50.3366 34.8059 50.4727C34.7563 50.3776 34.7887 50.2675 34.7541 50.1789C34.6418 50.0774 34.523 50.3604 34.4992 50.4446Z" fill="#E84B0E"/>
<path d="M37.8344 48.3969C37.6854 48.5848 37.9295 48.8311 38.1217 48.6885C39.0678 47.9951 38.0915 47.0231 37.3117 47.8504C36.9661 48.1593 36.8214 48.6323 36.7393 49.0751C36.7069 49.235 36.6831 49.3948 36.6702 49.5547C36.6507 49.6065 36.7026 49.6648 36.7587 49.6411C36.9164 49.5244 36.9531 49.2868 37.0503 49.1205C37.2167 48.8051 37.4046 48.4898 37.6983 48.2781C37.7847 48.2198 37.8776 48.0988 37.9899 48.1204C38.0094 48.2349 37.8992 48.3127 37.8344 48.3969Z" fill="#E84B0E"/>
<path d="M39.109 46.4378C38.8606 46.5653 38.7181 46.8396 38.6187 47.0901C38.4999 47.3774 38.9081 47.5761 39.0637 47.3105C39.1393 47.1701 39.2019 47.021 39.3099 46.9022C39.3531 47.4919 38.2774 49.0341 37.6791 49.1313C37.6575 49.1097 37.6381 49.086 37.6208 49.0622C37.5992 48.9931 37.5128 48.9521 37.4458 49.0039C37.394 49.0406 37.3853 49.1205 37.4285 49.1681C37.4653 49.7793 38.2169 49.4553 38.4913 49.194C39.0183 48.7361 39.8737 47.6129 39.7916 46.8957C39.7613 46.5415 39.4589 46.2564 39.109 46.4378Z" fill="#E84B0E"/>
<path d="M40.301 46.6689C40.3183 46.5955 40.3399 46.522 40.3572 46.4486C40.4803 45.9107 40.7568 45.401 41.1758 45.0381C41.1866 45.0446 41.1996 45.0532 41.2082 45.0619C41.2147 45.1979 41.1283 45.3189 41.0657 45.4334C40.9555 45.6299 41.2082 45.8265 41.3702 45.6688C41.5409 45.4917 41.6683 45.2476 41.6597 44.9992C41.6424 44.6796 41.2838 44.4355 40.9858 44.5737C40.4566 44.8956 40.0742 45.7207 40.0548 46.3276C40.0613 46.4659 39.9857 46.8611 40.2146 46.8223C40.2838 46.805 40.3183 46.7316 40.301 46.6689Z" fill="#E84B0E"/>
<path d="M42.2256 44.442C42.0939 44.9949 41.6856 45.766 41.1629 46.0274C41.1391 46.0036 41.1262 45.9842 41.1111 45.9518C41.0916 45.9259 41.0614 45.9151 41.0311 45.9216C40.9318 45.9259 40.9102 46.0555 40.921 46.1354C40.962 46.4702 41.3703 46.4464 41.5841 46.2866C41.7871 46.144 41.9427 45.941 42.0679 45.7293C42.3682 45.252 42.7073 44.7984 42.7462 44.2108C42.8002 43.8091 42.703 43.1762 42.2861 43.0034C41.9988 42.9148 41.7418 43.1632 41.6489 43.4181C41.5798 43.6276 41.448 44.0488 41.7807 44.0791C42.1392 44.0618 41.9232 43.5758 42.1479 43.4095C42.366 43.7032 42.2818 44.1028 42.2256 44.442Z" fill="#E84B0E"/>
<path d="M43.366 41.3899C43.3012 41.6296 43.6295 41.7657 43.7569 41.5519C43.9168 41.2862 43.9902 40.8887 43.7699 40.6403C43.4027 40.3034 43.0636 40.6447 42.9016 41.0011C42.638 41.4957 42.6121 42.0703 42.6942 42.6124C42.718 42.7615 42.759 42.9062 42.7871 43.0552C42.7828 43.1222 42.8519 43.1762 42.9145 43.1589C42.9642 43.1459 42.9988 43.0984 42.9944 43.0487C43.0225 42.8997 43.0117 42.7463 43.0247 42.5951C43.0571 42.0616 43.0787 41.4827 43.4243 41.0421C43.4351 41.1609 43.4005 41.2754 43.366 41.3899Z" fill="#E84B0E"/>
<path d="M43.8822 40.068C44.1436 40.7332 44.1112 41.6167 43.6727 42.2042C43.6338 41.9904 43.3185 41.9558 43.312 42.1999C43.2709 42.6535 43.6749 42.8716 44.0053 42.5347C44.6145 41.8521 44.6317 40.7635 44.4222 39.9211C44.0464 38.8778 43.1003 40.0183 43.8822 40.068Z" fill="#E84B0E"/>
<path d="M35.1385 55.2981C35.3156 55.2355 35.3416 54.9633 35.1731 54.8769C35.0651 54.8229 34.9549 54.7711 34.8469 54.7193C34.5143 54.5529 34.227 54.3132 33.9181 54.1058C33.633 53.9071 33.3414 53.7084 33.1081 53.4492C32.9915 53.3477 32.6999 52.9049 32.5595 52.9394C32.4169 52.9977 32.5379 53.1619 32.5854 53.2505C32.7236 53.4794 32.864 53.7084 33.0476 53.9049C33.363 54.2376 33.7432 54.5011 34.1017 54.7884C34.2788 54.9288 34.9333 55.3932 35.1385 55.2981Z" fill="#E84B0E"/>
<path d="M34.7542 54.4406C34.8751 54.5205 35.0501 54.4644 35.1214 54.3413C35.3331 53.9589 34.5187 53.6997 34.2898 53.4816C33.9852 53.3541 33.2098 52.4469 32.9808 52.6392C32.7972 52.7969 33.0305 52.9567 33.1385 53.0669C33.6202 53.5896 34.1645 54.0453 34.7542 54.4406Z" fill="#E84B0E"/>
<path d="M33.6593 52.4188C33.6053 52.5355 33.7285 52.6327 33.7933 52.7126C33.9531 52.8724 34.3181 53.3455 34.5622 53.2526C34.7955 53.136 34.7091 52.8768 34.4845 52.8141C34.2879 52.7148 34.1216 52.5744 33.9574 52.4318C33.871 52.3389 33.7306 52.2784 33.6593 52.4188Z" fill="#E84B0E"/>
<path d="M35.6724 54.9093C35.9445 54.8316 35.8322 54.5076 35.8041 54.3067C35.7285 53.825 35.6529 53.3174 35.5557 52.8336C35.4888 52.4858 35.4521 52.1251 35.3268 51.7924C35.2771 51.6628 35.0719 51.6888 35.0503 51.8248C35.0611 52.1661 35.1324 52.5463 35.154 52.8962C35.1993 53.3066 35.2512 53.717 35.2879 54.1274C35.3095 54.3412 35.3289 54.5594 35.3959 54.7646C35.4305 54.8769 35.5622 54.9352 35.6724 54.9093Z" fill="#E84B0E"/>
<path d="M36.3852 54.1965C36.4889 54.1382 36.5364 54.0021 36.4868 53.892C36.4608 53.7386 36.4349 53.5853 36.4112 53.4319C36.342 52.9567 36.2535 52.4858 36.1887 52.0106C36.1498 51.7687 36.1606 51.5138 36.139 51.2762C36.1109 51.2373 36.0548 51.2503 36.031 51.2892C35.9705 51.3453 35.9489 51.4296 35.936 51.5073C35.8928 51.7817 35.9014 52.0625 35.9144 52.3389C35.9381 52.7601 35.9705 53.1857 35.9878 53.6069C36.0051 53.7645 35.9835 53.9352 36.0483 54.0821C36.1088 54.2073 36.2664 54.2657 36.3852 54.1965Z" fill="#E84B0E"/>
<path d="M36.5339 51.9307C36.5318 52.1315 36.5318 52.3346 36.5404 52.5355C36.5469 52.6348 36.6549 52.7061 36.7499 52.6802C36.9292 52.6327 36.8709 52.4404 36.845 52.3087C36.819 52.1596 36.7974 52.0106 36.778 51.8615C36.7607 51.7255 36.7478 51.5894 36.7391 51.4511C36.7413 51.395 36.7218 51.3237 36.6549 51.3302C36.5037 51.3388 36.5512 51.8097 36.5339 51.9307Z" fill="#E84B0E"/>
<path d="M37.4435 50.6066C37.4262 50.5202 37.3052 50.4964 37.2512 50.5656C37.2145 50.6109 37.2058 50.6692 37.1972 50.7254C37.141 51.3216 37.208 51.922 37.2296 52.5182C37.2404 52.7688 37.2426 53.0193 37.2383 53.2699C37.2167 53.4902 37.3031 53.7796 37.5795 53.7213C37.9165 53.6133 37.7329 53.1684 37.7372 52.9113C37.6443 52.1445 37.5147 51.3777 37.4435 50.6066Z" fill="#E84B0E"/>
<path d="M38.3615 52.7623C38.6834 52.8962 38.8627 52.3778 38.5279 52.2849C38.4328 52.2568 38.3378 52.2288 38.2449 52.1985C37.9339 51.9717 37.6725 52.4793 38.3615 52.7623Z" fill="#E84B0E"/>
<path d="M38.1044 51.7428C38.342 51.8789 38.5644 52.0538 38.8409 52.1013C39.0569 52.1445 39.2211 51.8616 39.0828 51.6931C39.0483 51.6456 39.0008 51.6197 38.9468 51.6002C38.8042 51.5527 38.6595 51.5095 38.5169 51.462C38.3484 51.4209 38.1476 51.2978 37.9834 51.4037C37.8927 51.4641 37.897 51.6175 37.9877 51.6737C38.0244 51.7039 38.0676 51.719 38.1044 51.7428Z" fill="#E84B0E"/>
<path d="M40.2322 51.5268C40.3855 51.3842 40.3337 51.1034 40.1393 51.03C39.8585 50.9328 39.5561 50.9025 39.2753 50.801C38.9664 50.6865 38.6748 50.531 38.3789 50.3863C38.2428 50.3215 38.0398 50.1876 37.9145 50.3388C37.7136 50.6023 38.4091 50.963 38.5819 51.112C38.9038 51.3604 39.8693 51.8184 40.2322 51.5268Z" fill="#E84B0E"/>
<path d="M39.6467 50.0342C39.6165 49.978 39.5625 49.9478 39.5041 49.9305C39.3724 49.8873 39.2341 49.8355 39.1045 49.7836C39.003 49.7555 38.8885 49.667 38.7827 49.7145C38.6682 49.7944 38.7978 49.9132 38.8691 49.9672C39.0268 50.0903 39.1931 50.2048 39.3616 50.3107C39.5366 50.4187 39.7482 50.2091 39.6467 50.0342Z" fill="#E84B0E"/>
<path d="M40.852 51.1553C40.9406 51.1056 40.9838 50.9932 40.9449 50.8982C40.8671 50.6995 40.7678 50.5094 40.6835 50.3129C40.4999 49.8917 40.3293 49.4618 40.1457 49.0385C40.0874 48.9369 40.0118 48.6216 39.8476 48.7166C39.7288 48.803 39.9102 49.1853 39.934 49.3193C40.0226 49.6109 40.1111 49.9046 40.2083 50.1941C40.3098 50.4943 40.4157 50.7967 40.5669 51.0753C40.623 51.1769 40.7526 51.2114 40.852 51.1553Z" fill="#E84B0E"/>
<path d="M40.9579 50.2696C41.0745 50.2415 41.1523 50.1249 41.1393 50.0083C41.122 49.7231 41.0248 49.4531 40.9492 49.181C40.8455 48.8181 40.7635 48.4444 40.7354 48.0664C40.6879 47.9131 40.4891 47.9455 40.4416 48.088C40.3876 48.2414 40.4071 48.4099 40.4135 48.5697C40.4351 48.9067 40.4956 49.2415 40.5583 49.5719C40.6274 49.8095 40.5907 50.3366 40.9579 50.2696Z" fill="#E84B0E"/>
<path d="M41.5174 49.2868C41.7464 49.1464 41.539 48.911 41.4612 48.7447C41.3835 48.5762 41.3252 48.3991 41.2625 48.2241C41.2301 48.1399 41.1956 48.0319 41.0854 48.0427C40.9904 48.0513 40.9407 48.1939 41.0098 48.2587C41.0595 48.492 41.1005 48.7252 41.1545 48.9585C41.1891 49.1421 41.282 49.3992 41.5174 49.2868Z" fill="#E84B0E"/>
<path d="M41.7982 48.3321C41.7269 48.3796 41.7636 48.4574 41.8046 48.5114C41.8414 48.5956 41.8954 48.7144 42.0077 48.6539C42.066 48.6215 42.0854 48.5395 42.0444 48.4876C41.9796 48.4228 41.904 48.2738 41.7982 48.3321Z" fill="#E84B0E"/>
<path d="M42.5628 48.3343C42.7313 48.4012 42.8976 48.4747 43.0769 48.5092C43.375 48.5546 43.4938 48.1269 43.2173 48.0103C42.66 47.7705 42.0142 47.7986 41.4936 47.4638C41.4785 47.4292 41.4418 47.4098 41.4029 47.412C41.3424 47.3817 41.2582 47.4249 41.2517 47.494C41.2344 47.6172 41.3511 47.6992 41.4288 47.7748C41.7507 48.0578 42.1697 48.1809 42.5628 48.3343Z" fill="#E84B0E"/>
<path d="M43.0399 47.2197C42.7699 47.1052 42.4632 47.1247 42.1867 47.0275C42.1111 46.9994 42.0355 46.9692 41.9599 46.9389C41.9297 46.9065 41.8843 46.8871 41.8389 46.8871C41.6078 46.8914 41.6121 47.2348 41.8411 47.2284C42.1737 47.4292 42.5582 47.5178 42.9341 47.5999C43.1609 47.6301 43.2494 47.3104 43.0399 47.2197Z" fill="#E84B0E"/>
<path d="M42.8694 46.5113C42.7528 46.3709 42.5368 46.4486 42.377 46.4054C42.3251 46.3989 42.2711 46.3903 42.2171 46.4033C42.1242 46.4249 42.0897 46.5588 42.1696 46.6149H42.1674C42.3186 46.7208 42.4893 46.8029 42.6707 46.8396C42.85 46.872 42.9796 46.6452 42.8694 46.5113Z" fill="#E84B0E"/>
<path d="M43.9385 47.818C44.2063 47.6949 44.0033 47.3839 43.9514 47.1852C43.8391 46.8417 43.7182 46.5004 43.608 46.157C43.5259 45.8848 43.4525 45.6105 43.3834 45.3362C43.3488 45.226 43.3315 45.0964 43.2386 45.0187C43.1976 44.9863 43.135 44.9863 43.0939 45.0187C43.0054 45.0835 43.068 45.1828 43.081 45.2671C43.1263 45.5414 43.163 45.8179 43.2235 46.09C43.3013 46.4508 43.3963 46.805 43.4935 47.1614C43.5821 47.3774 43.5886 47.926 43.9385 47.818Z" fill="#E84B0E"/>
<path d="M44.282 46.5545C44.349 46.5285 44.3814 46.4508 44.3554 46.386C44.3122 46.2521 44.2669 46.1203 44.2302 45.9864C44.1265 45.5954 44.0228 45.2045 43.9321 44.8092C43.9407 44.7876 43.9342 44.766 43.9213 44.7487C43.9148 44.7185 43.9018 44.6861 43.8673 44.6796C43.6772 44.6364 43.8435 45.1483 43.8478 45.2498C43.9062 45.5479 43.958 45.846 44.0228 46.1441C44.066 46.2801 44.066 46.6193 44.282 46.5545Z" fill="#E84B0E"/>
<path d="M44.7164 45.8222C44.8676 45.7509 44.8114 45.6148 44.7488 45.5004C44.6796 45.3513 44.6235 45.1936 44.5544 45.0446C44.5436 45.0208 44.5284 44.9971 44.5047 44.982C44.4291 44.9366 44.3556 45.0273 44.3859 45.1008C44.414 45.2304 44.4464 45.36 44.4701 45.4896C44.4939 45.6386 44.5004 45.8892 44.7164 45.8222Z" fill="#E84B0E"/>
<path d="M45.7788 44.7249C45.9861 44.6515 45.9883 44.3383 45.7852 44.2605C45.7226 44.2324 45.6556 44.2238 45.5887 44.2152C45.0379 44.1504 44.4871 44.0683 43.932 44.0402C43.8045 44.0402 43.6512 44.0208 43.5475 44.1115C43.4546 44.1936 43.5129 44.3534 43.6404 44.3232C44.0032 44.3858 44.3575 44.5068 44.716 44.591C45.0616 44.6731 45.4267 44.8308 45.7788 44.7249Z" fill="#E84B0E"/>
<path d="M45.2779 43.4613C45.077 43.4419 44.8847 43.3965 44.6925 43.3404C44.5413 43.308 44.3728 43.2324 44.2195 43.2885C44.1007 43.3339 44.0855 43.5089 44.1957 43.5715C44.2454 43.6017 44.3015 43.6233 44.3534 43.6471C44.6514 43.7659 44.9344 44.0035 45.2692 43.9797C45.5673 43.9365 45.5759 43.5067 45.2779 43.4613Z" fill="#E84B0E"/>
<path d="M45.0594 42.5822C44.9536 42.5779 44.8456 42.5779 44.7397 42.5714C44.6468 42.5628 44.5367 42.539 44.4654 42.6103C44.3596 42.7161 44.474 42.8479 44.582 42.8911C44.7289 42.9602 44.8888 43.0099 45.0529 43.0229C45.3402 43.0229 45.3488 42.593 45.0594 42.5822Z" fill="#E84B0E"/>
<path d="M45.7314 42.9321C45.7314 42.9342 45.7335 42.9363 45.7335 42.9405V42.9384C45.7335 42.9363 45.7314 42.9321 45.7314 42.93C45.7314 42.93 45.7314 42.93 45.7314 42.9321Z" fill="#E84B0E"/>
<path d="M46.5587 44.2065C46.8438 44.0164 46.4982 43.7032 46.3988 43.5023C46.2455 43.2583 46.1223 42.9969 46.0165 42.7269C45.8458 42.2906 45.7033 41.8435 45.5089 41.4179C45.4916 41.3855 45.4722 41.3575 45.4441 41.3337C45.3879 41.2862 45.2972 41.3402 45.308 41.4115C45.4484 41.9191 45.5845 42.4288 45.7335 42.9343C45.8545 43.349 46.0381 43.7486 46.2606 44.1201C46.3167 44.2259 46.455 44.267 46.5587 44.2065Z" fill="#E84B0E"/>
<path d="M46.8782 42.9451C47.0596 42.7982 46.8458 42.6081 46.768 42.4677C46.5628 42.1437 46.4332 41.783 46.3122 41.4201C46.2755 41.3229 46.2906 41.1674 46.1481 41.1652C46.0595 41.1652 45.999 41.2451 46.012 41.3294C46.12 41.7765 46.2582 42.2236 46.4678 42.6427C46.5434 42.796 46.6665 43.0876 46.8782 42.9451Z" fill="#E84B0E"/>
<path d="M46.6949 41.5216C46.6495 41.5562 46.6408 41.621 46.6711 41.6663C46.7229 41.7549 46.7661 41.8478 46.8158 41.9385C46.8957 42.0681 47.0037 42.3748 47.196 42.2215C47.2716 42.148 47.2349 42.0422 47.1657 41.9817C47.1053 41.9104 47.0469 41.8348 46.9929 41.7592C46.9109 41.6728 46.8504 41.4309 46.6949 41.5216Z" fill="#E84B0E"/>
<path d="M45.3492 40.8628C45.4658 40.9471 45.8697 41.0853 45.982 40.9579C46.1008 40.8477 46.0144 40.6317 45.8546 40.636C45.7488 40.6382 45.6429 40.6468 45.5371 40.649C45.3967 40.4956 45.2001 40.7376 45.3492 40.8628Z" fill="#E84B0E"/>
<path d="M35.7437 56.6265C36.5537 56.2118 37.3442 55.7603 38.1197 55.2851C39.6209 54.3974 41.0227 53.3368 42.3101 52.1575C44.7422 49.8484 46.5739 46.9713 48.0168 43.9667C48.2004 43.5455 48.4056 43.1351 48.613 42.7269C48.7015 42.5411 48.4229 42.4051 48.3214 42.5735C47.6885 43.5585 47.2522 44.6515 46.5761 45.6127C44.9302 48.304 42.9732 50.8787 40.4417 52.8011C38.8303 54.0777 36.9965 55.0259 35.2858 56.1556C35.046 56.3219 34.3246 56.7129 34.8062 56.9894C35.1497 57.0283 35.4391 56.7518 35.7437 56.6265Z" fill="#E84B0E"/>
<path d="M48.8461 42.9386C48.5934 43.4613 48.3191 43.9754 48.0577 44.4938C47.8007 45.0641 47.5825 45.6516 47.278 46.2024C46.8805 46.967 46.4334 47.7057 45.982 48.4401C45.5996 49.1011 45.1719 49.7318 44.6838 50.3193C43.7442 51.4879 42.6339 52.5161 41.3876 53.3477C40.718 53.8013 40.0787 54.2981 39.4004 54.7409C39.0095 54.9806 38.6163 55.2204 38.234 55.4753C37.6832 55.7928 37.2167 56.2032 36.6421 56.484C36.4779 56.5704 36.1064 56.6784 36.2382 56.9419C36.2943 57.0456 36.4261 57.0801 36.5298 57.0261C37.0914 56.7648 37.5839 56.3889 38.0979 56.0455C38.9339 55.5012 39.7828 54.9763 40.582 54.365C41.5431 53.6457 42.5627 52.9956 43.4353 52.1618C44.6536 51.0149 45.7141 49.6886 46.5263 48.222C47.1419 47.196 47.7553 46.157 48.1592 45.0273C48.412 44.3189 48.8137 43.6579 49.0362 42.9386C49.0427 42.8954 49.0232 42.8501 48.98 42.8328C48.9152 42.8069 48.8202 42.8673 48.8461 42.9386Z" fill="#E84B0E"/>
<path d="M42.4955 54.149C42.4825 54.0324 42.4847 53.8984 42.422 53.7948C42.3702 53.73 42.2579 53.7343 42.2104 53.8034C42.2082 53.8056 42.2082 53.8077 42.206 53.8099C42.1304 53.6976 41.9512 53.6544 41.8453 53.8034C41.666 54.1188 41.3528 55.2636 41.7179 55.4882C41.7676 55.5163 41.8194 55.5033 41.8561 55.4731C41.8604 55.4774 41.8648 55.4817 41.8712 55.486C42.1002 55.6135 42.2233 55.2808 42.3205 55.1275C42.4782 54.8272 42.5214 54.4838 42.4955 54.149ZM42.1607 54.5162C42.1326 54.6933 42.07 54.8618 41.9792 55.0152C41.949 55.0735 41.8972 55.134 41.8561 55.1944C41.8367 54.8316 42.0052 54.3801 42.1844 54.0734C42.1866 54.2203 42.1823 54.3693 42.1607 54.5162Z" fill="#E84B0E"/>
<path d="M43.5174 55.0173C43.5649 55 43.6146 54.9871 43.6664 54.9806C43.7506 54.9655 43.8003 55.0411 43.8824 55.0454C43.9904 55.0519 44.0876 54.9633 44.0811 54.8532C44.0682 54.7689 44.0185 54.6912 44.0271 54.6026C44.0358 54.4536 44.0746 54.3088 44.12 54.1663C44.1481 54.0496 44.0552 53.9373 43.9407 53.92C43.7334 53.8833 43.5282 53.9589 43.3186 53.9503C43.1696 53.9265 43.0227 54.0302 43.0465 54.1944C43.0702 54.3045 43.0918 54.4147 43.0854 54.5292C43.0702 54.6501 43.0832 54.9331 43.2711 54.8143C43.2517 54.9482 43.3921 55.0627 43.5174 55.0173ZM43.3878 54.3542C43.4806 54.3607 43.5735 54.3585 43.6642 54.3477C43.6491 54.4233 43.6405 54.5011 43.6362 54.5767C43.6362 54.5896 43.6362 54.6026 43.6362 54.6156C43.567 54.6177 43.4958 54.6285 43.4288 54.6458C43.3921 54.6544 43.3597 54.6696 43.3338 54.6933C43.3662 54.5832 43.3856 54.4708 43.3878 54.3542Z" fill="#E84B0E"/>
<path d="M43.3273 53.1533C43.4612 53.2742 43.647 53.3131 43.8133 53.3736C44.0941 53.4643 44.3943 53.5291 44.6903 53.4686C44.8307 53.4405 44.8674 53.298 44.8156 53.2008C44.9063 53.1295 44.9257 52.974 44.8285 52.8919C44.5369 52.637 44.12 52.5247 43.7377 52.5938C43.5433 52.6284 43.3532 52.7364 43.2755 52.9243C43.2344 53.0021 43.2517 53.0993 43.3187 53.1425C43.3208 53.1468 43.3252 53.1511 43.3273 53.1533ZM44.2324 53.0215C44.2972 53.0496 44.3598 53.0798 44.4224 53.1144C44.2928 53.1144 44.1654 53.1036 44.0358 53.0841C43.8803 53.0539 43.7248 53.0237 43.5736 52.9826C43.768 52.8725 44.0336 52.9567 44.2324 53.0215Z" fill="#E84B0E"/>
<path d="M45.0811 52.5031C45.0833 52.5031 45.0854 52.5053 45.0876 52.5053C45.3338 52.5701 45.3554 52.2417 45.4267 52.0819C45.5304 51.7709 45.6189 51.4188 45.4893 51.1056C45.4332 50.9933 45.3511 50.8032 45.1977 50.8334C45.1653 50.8442 45.1437 50.868 45.1329 50.8982C45.1092 50.8874 45.0833 50.8853 45.0552 50.8917C44.7809 50.976 44.7765 51.3929 44.729 51.6305C44.6966 51.9739 44.6923 52.3973 44.9429 52.6608C45.0595 52.7018 45.1308 52.596 45.0811 52.5031ZM44.9753 51.6218C45.0185 51.4512 45.0573 51.2611 45.1869 51.1315C45.1913 51.1272 45.1956 51.1207 45.1999 51.1164C45.2107 51.1445 45.2193 51.1725 45.2258 51.2028C45.2906 51.4685 45.1913 51.7385 45.0984 51.9869C45.0725 52.0733 45.0033 52.1877 44.9796 52.2914C44.9234 52.0733 44.9364 51.84 44.9753 51.6218Z" fill="#E84B0E"/>
<path d="M45.2152 55.4342C45.6083 55.5508 45.604 54.7365 45.6731 54.4859C45.6839 54.2505 45.8697 53.4016 45.442 53.5096C45.3319 53.5593 45.3383 53.6824 45.3643 53.7818C45.3794 53.9611 45.3578 54.1403 45.3362 54.3196C45.3038 54.5291 45.2649 54.7365 45.2109 54.9395C45.1958 54.9093 45.1828 54.8812 45.1742 54.8531C45.1137 54.6933 45.0683 54.527 45.0511 54.3542C45.0489 54.3261 45.0489 54.2959 45.0489 54.2678C45.0619 54.2678 45.077 54.2656 45.0921 54.2613C45.1483 54.2376 45.1634 54.1771 45.1655 54.1231C45.1893 54.0367 45.2282 53.9373 45.2779 53.8552C45.3707 53.7083 45.1591 53.5658 45.0597 53.7083C45.0295 53.7559 44.9819 53.8552 44.9495 53.9567C44.915 53.9611 44.8783 53.9783 44.8545 54.0107C44.8048 54.0734 44.7854 54.1533 44.7724 54.2311C44.7249 54.6177 44.8264 55.0195 45.0057 55.3586C45.0511 55.4299 45.1396 55.4558 45.2152 55.4342Z" fill="#E84B0E"/>
<path d="M47.0879 52.9805C47.1419 52.9351 47.1614 52.8725 47.157 52.8141C47.1614 52.8163 47.1657 52.8185 47.17 52.8206C47.237 52.853 47.3212 52.8249 47.3536 52.7601C47.4076 52.6478 47.3126 52.5787 47.224 52.5333C47.0512 52.4232 46.8719 52.326 46.6754 52.2633C46.2606 52.0819 45.9993 52.4037 45.7185 52.6629C45.671 52.7061 45.6256 52.758 45.5716 52.7947C45.5327 52.8206 45.5198 52.8811 45.5543 52.9178C45.563 52.9265 45.5716 52.9329 45.5802 52.9373C45.5068 53.0021 45.5111 53.1338 45.604 53.2094C45.928 53.5766 46.7704 53.2418 47.0879 52.9805ZM46.36 52.5139C46.5263 52.529 46.6818 52.5938 46.8352 52.6651C46.5652 52.7753 46.3082 52.9221 46.0166 52.961C45.9496 52.9675 45.8805 52.974 45.8178 52.9459C45.7876 52.9308 45.7617 52.9092 45.7293 52.9005C45.7401 52.8941 45.7509 52.8854 45.7617 52.8789C45.9604 52.7601 46.131 52.5722 46.36 52.5139Z" fill="#E84B0E"/>
<path d="M46.9712 51.4922C47.1029 51.4965 47.2217 51.3626 47.1591 51.2352C47.0554 51.0926 46.9021 50.9911 46.982 50.7881C47.09 50.6455 47.0338 50.4425 46.8373 50.4489C46.753 50.4511 46.6861 50.5116 46.6234 50.5613C46.5543 50.6109 46.4722 50.639 46.3923 50.6736C46.3685 50.6822 46.3426 50.6887 46.3167 50.693C46.1893 50.7125 46.1137 50.868 46.1741 50.9803C46.0705 50.976 46.0165 51.0883 46.0489 51.1769C46.0445 51.3065 46.0165 51.4317 46.0121 51.5613C46.0057 51.6564 46.0748 51.7471 46.1741 51.7514C46.28 51.7536 46.3664 51.6823 46.4549 51.6348C46.6169 51.5462 46.7919 51.4987 46.9712 51.4922ZM46.3124 51.0797C46.4333 51.0969 46.5521 51.0581 46.658 51.0019C46.6601 51.0127 46.6623 51.0213 46.6645 51.0321C46.6753 51.0753 46.6882 51.1185 46.7055 51.1574C46.6731 51.1661 46.6385 51.1747 46.6061 51.1855C46.5737 51.1963 46.5392 51.2093 46.5068 51.2222C46.4485 51.246 46.3923 51.2719 46.3383 51.3043C46.3426 51.2309 46.3469 51.1488 46.3124 51.0797Z" fill="#E84B0E"/>
<path d="M47.4873 49.8701C47.5132 49.8528 47.5305 49.8334 47.5456 49.8118C47.6666 49.7642 47.6968 49.5742 47.5607 49.5072C47.0229 49.1918 46.2669 49.2307 45.8392 49.721C45.7917 49.7556 45.7723 49.8247 45.7982 49.8787C45.7831 49.9154 45.7852 49.9586 45.809 49.9954C46.0919 50.3971 47.1482 50.1077 47.4873 49.8701ZM46.8825 49.6649C46.9084 49.6692 46.9322 49.6735 46.9581 49.68C46.673 49.7858 46.3727 49.8722 46.0747 49.829C46.1179 49.7966 46.1632 49.7686 46.2064 49.7405C46.4138 49.6346 46.6578 49.6411 46.8825 49.6649Z" fill="#E84B0E"/>
<path d="M47.8634 48.8699C47.8008 49.0557 48.06 49.1572 48.1334 48.9758C48.2393 48.6129 48.2825 48.2068 48.1593 47.8396C48.0989 47.6474 47.9001 47.3882 47.682 47.3903C47.5783 47.4098 47.5437 47.5286 47.5092 47.6128C47.4444 47.8591 47.4077 48.1118 47.3947 48.3667C47.3688 48.6691 47.4681 48.9693 47.6539 49.2047C47.7079 49.2674 47.7727 49.3819 47.8699 49.3495C47.9239 49.3279 47.9325 49.2458 47.8872 49.2134C47.5286 48.7749 47.6129 48.2716 47.7597 47.764C47.9952 48.0729 47.9066 48.5071 47.8634 48.8699Z" fill="#E84B0E"/>
<path d="M48.5416 51.6542C48.6237 51.3885 48.6755 51.1142 48.6669 50.8356C48.669 50.6001 48.574 50.382 48.4854 50.1682C48.4573 50.1034 48.4314 50.0364 48.3904 49.9781C48.3299 49.883 48.1787 49.8895 48.129 49.9932C47.8245 49.8398 47.8029 50.4057 47.7964 50.5915C47.8029 50.8593 47.9908 51.8162 48.2845 51.8616C48.412 51.8918 48.5459 51.7838 48.5416 51.6542ZM48.1636 50.2027C48.2284 50.3669 48.304 50.5461 48.3321 50.7341C48.3342 50.8701 48.3169 51.0084 48.2975 51.1445C48.1873 50.8442 48.0966 50.5224 48.1636 50.2027Z" fill="#E84B0E"/>
<path d="M48.4226 49.6821C48.5608 49.7685 48.7315 49.7988 48.8913 49.7815C49.1289 49.7556 49.3492 49.6303 49.5134 49.4575C49.8892 49.0925 50.129 48.4596 49.332 48.641C49.008 48.7253 48.7444 48.924 48.4896 49.14C48.3664 49.2739 48.036 49.4553 48.2282 49.6541C48.28 49.6994 48.3621 49.7124 48.4226 49.6821ZM49.3752 48.9672C49.3708 48.9715 49.3665 48.978 49.3622 48.9823C49.1894 49.181 48.9972 49.4057 48.7142 49.4229C48.9151 49.2458 49.1224 49.0665 49.3752 48.9672Z" fill="#E84B0E"/>
<path d="M49.17 48.0254C49.2521 47.9628 49.3622 48.0103 49.4551 47.9909C49.6171 47.9693 49.6819 47.7857 49.6063 47.6539C49.5653 47.574 49.5437 47.4854 49.5329 47.3969C49.5242 47.2781 49.5286 47.1614 49.5372 47.0426C49.5437 46.9541 49.5523 46.8612 49.4918 46.7877C49.4054 46.6797 49.2348 46.7251 49.1786 46.8439C49.1009 46.926 48.9972 46.98 48.9 47.0383C48.7574 47.1312 48.4874 47.0707 48.4658 47.2975C48.4615 47.3558 48.4853 47.4033 48.5177 47.4465C48.5566 47.507 48.5738 47.5783 48.5933 47.6453C48.6235 47.7749 48.6365 47.9066 48.6235 48.0384C48.5976 48.1831 48.6646 48.3451 48.8352 48.2846C48.9238 48.3084 49.0253 48.2673 49.0642 48.1809C49.0944 48.1248 49.1225 48.0665 49.17 48.0254ZM48.9151 47.5092C48.913 47.5027 48.9108 47.4962 48.9108 47.4897C49.0015 47.4703 49.0858 47.4379 49.1657 47.3925C49.17 47.4617 49.1765 47.5308 49.1894 47.5999C49.1527 47.6042 49.116 47.6107 49.0793 47.6258C49.0339 47.6431 48.9907 47.6625 48.9497 47.6885C48.941 47.6258 48.9324 47.5675 48.9151 47.5092Z" fill="#E84B0E"/>
<path d="M49.859 45.7617C49.9001 45.6839 49.8763 45.5911 49.8158 45.5371C49.751 45.3146 49.3255 45.4075 49.1462 45.4118C48.7358 45.4247 48.2952 45.9172 48.1872 46.3017C48.1634 46.3039 48.1418 46.3082 48.1181 46.3147C48.0101 46.3449 47.9971 46.5047 48.0986 46.5523C48.5112 46.684 49.1613 46.5933 49.4702 46.265C49.6193 46.1181 49.7575 45.9496 49.859 45.7617ZM48.401 46.2736C48.4723 46.1591 48.5673 46.0598 48.6732 45.9799C48.7812 45.9043 48.8913 45.8157 49.0274 45.8006C49.1311 45.7984 49.2326 45.7941 49.3341 45.7876C49.2521 45.887 49.1765 45.9777 49.0685 46.0598C48.8676 46.1851 48.6343 46.2347 48.401 46.2736Z" fill="#E84B0E"/>
<path d="M50.0665 45.2606C50.3344 45.2519 50.2307 44.6903 50.1897 44.5197C50.1033 44.1806 49.8657 43.9019 49.5741 43.7205C49.5179 43.6838 49.4596 43.6449 49.3905 43.6384C48.9261 43.673 49.1075 44.5111 49.3041 44.7508C49.3905 44.8739 49.7641 45.3211 49.9218 45.1915C49.9283 45.2023 49.9369 45.2109 49.9477 45.2195C49.978 45.2476 50.0233 45.2627 50.0665 45.2606ZM49.4315 44.0899C49.7145 44.3037 49.8527 44.645 49.8765 44.9927C49.6345 44.7573 49.3926 44.4506 49.4315 44.0899Z" fill="#E84B0E"/>
<path d="M50.9802 47.5415C50.963 47.5221 50.963 47.494 50.9586 47.4681C50.95 47.2823 50.9932 47.0944 50.9349 46.913C50.8463 46.5933 50.7124 46.2823 50.5374 45.9993C50.4273 45.8438 50.2005 46.0144 50.3193 46.1635C50.5418 46.5155 50.7729 46.9238 50.7642 47.3558C50.4726 47.0296 50.1962 46.5933 50.2394 46.1354C50.2761 46.0814 50.2588 45.9971 50.1962 45.9647C49.9996 45.8956 50.0039 46.1786 50.0039 46.306C50.032 46.7488 50.2566 47.1635 50.5245 47.507C50.6174 47.6107 50.7124 47.764 50.8658 47.7683C50.9867 47.7727 51.0602 47.6301 50.9802 47.5415Z" fill="#E84B0E"/>
<path d="M37.8821 61.6636C37.9469 61.6485 37.9512 61.5816 37.9879 61.5384C38.2255 61.2705 38.5517 61.1064 38.8519 60.9206C39.2775 60.67 39.7138 60.4303 40.176 60.251C40.8219 60.0242 41.4223 59.6959 42.0034 59.3373C42.4138 59.0889 42.8307 58.8535 43.2238 58.5813C44.5932 57.6396 45.9389 56.6654 47.1118 55.4796L47.0923 55.4968C47.5827 55.0519 47.9607 54.5054 48.3754 53.9956C48.667 53.6652 48.9046 53.2958 49.1487 52.9308C49.3863 52.5808 49.6584 52.2547 49.8615 51.881C50.1682 51.2892 50.4447 50.6822 50.7859 50.1098C50.9825 49.7664 51.1294 49.3992 51.3216 49.0536C51.4469 48.8138 51.5419 48.5589 51.6867 48.33C51.9739 47.9304 52.2072 47.4984 52.4362 47.0642C52.704 46.5825 53.0302 46.1073 53.0928 45.5479C53.1166 45.3016 52.7818 45.239 52.6975 45.4507C52.6587 45.5479 52.6284 45.6494 52.5939 45.7466C52.4599 46.1311 52.231 46.4702 52.0323 46.8244C51.7968 47.2456 51.5635 47.669 51.2698 48.0556C51.1596 48.2198 51.0797 48.3969 50.9976 48.574C50.8313 48.9024 50.6542 49.2242 50.5095 49.5612C50.3604 49.8744 50.1768 50.1703 50.0256 50.4835C49.9068 50.7578 49.7686 51.0235 49.6303 51.2892C49.4489 51.7168 49.1854 52.0927 48.9046 52.4577C48.7015 52.732 48.5244 53.0215 48.3322 53.3044C48.06 53.676 47.7771 54.0388 47.5114 54.4147C46.5264 55.6718 45.265 56.6935 43.9344 57.5661C43.1439 58.1191 42.3101 58.5986 41.4742 59.076C40.9385 59.4086 40.3575 59.6527 39.7872 59.914C39.1846 60.2229 38.6295 60.616 38.1089 61.0502C37.9642 61.1949 37.7741 61.3461 37.7352 61.5556C37.7287 61.6291 37.813 61.6831 37.8821 61.6636Z" fill="#E84B0E"/>
<path d="M38.234 62.1302C38.2318 62.113 38.2232 62.0935 38.2254 62.0762C38.2362 62.0568 38.2513 62.0438 38.2664 62.0266C38.4068 61.9034 38.545 61.7803 38.6962 61.6723C38.8258 61.5838 38.9965 61.5082 39.1369 61.4239C39.4155 61.2468 39.7028 61.0848 39.9901 60.925C40.286 60.7824 40.5819 60.6355 40.8692 60.4714C41.1154 60.3461 41.379 60.264 41.6166 60.1214C42.2948 59.8104 42.9471 59.454 43.5843 59.0652C44.39 58.6073 45.1352 58.0457 45.7962 57.3955C46.591 56.6741 47.3989 55.9116 48.1635 55.147C48.6495 54.661 49.0534 54.1058 49.4487 53.5464C49.8613 53.0086 50.2414 52.4383 50.6043 51.8659C50.7706 51.5786 50.8808 51.2611 51.0493 50.976C51.2804 50.6023 51.4986 50.22 51.6865 49.8226C51.9457 49.3236 52.1358 48.7944 52.3777 48.2868C52.5958 47.8332 52.8421 47.3969 53.0948 46.9606C53.2309 46.6798 53.4058 46.4227 53.5808 46.1657C53.6197 46.103 53.5959 46.0166 53.5398 45.9756C53.3022 45.7877 52.8529 46.6841 52.719 46.9152C52.4252 47.3904 52.1574 47.8807 51.937 48.3926C51.721 48.8851 51.531 49.3884 51.2912 49.8701C51.1378 50.1919 50.9629 50.503 50.7685 50.801C50.6281 51.03 50.5222 51.2762 50.397 51.5138C50.2177 51.8594 49.9736 52.1597 49.7554 52.4794C49.6345 52.663 49.5157 52.8466 49.3861 53.0215C49.1096 53.3779 48.872 53.7624 48.589 54.1145C48.0123 54.7949 47.3341 55.3781 46.6969 56.0002C45.6601 56.9678 44.6946 58.0198 43.472 58.7628C43.0033 59.0479 42.5389 59.3438 42.0378 59.5706C41.7202 59.6873 41.4222 59.8428 41.1154 59.9789C40.651 60.1322 40.2234 60.3828 39.7741 60.575C39.3507 60.8018 38.9209 61.0265 38.558 61.344C38.4306 61.4606 38.3096 61.5838 38.1994 61.7177C38.1411 61.789 38.0742 61.8689 38.0677 61.9639C38.0655 62.0006 38.0634 62.0374 38.0742 62.0719C38.0828 62.1065 38.1195 62.1173 38.126 62.154C38.1541 62.2166 38.2448 62.1886 38.234 62.1302Z" fill="#E84B0E"/>
<path d="M50.6885 53.6155C50.4876 53.326 50.1766 53.4189 49.9304 53.5982C49.8418 53.6543 49.7144 53.7105 49.6884 53.8207C49.6582 54.1533 50.114 54.0604 50.304 53.9697C50.3883 54.1792 50.4401 54.6026 50.762 54.4924C51.0147 54.3823 50.8743 54.0863 50.816 53.8963C50.7857 53.7969 50.749 53.6997 50.6885 53.6155Z" fill="#E84B0E"/>
</g>
<path d="M23.1854 53.9633L4.65039 53.9547L12.6165 42.9171C12.6165 42.9171 23.6757 49.0947 24.6045 46.7835L23.1854 53.9633Z" fill="#002D47"/>
<path d="M42.2305 35.0115C42.1808 35.0115 42.1333 34.9942 42.0923 34.9618L36.2776 30.104C36.1868 30.0284 36.1739 29.8923 36.2495 29.7994C36.3251 29.7087 36.4612 29.6957 36.554 29.7713L42.3688 34.6292C42.4595 34.7048 42.4724 34.8408 42.3968 34.9337C42.3536 34.9834 42.291 35.0115 42.2305 35.0115Z" fill="#002D47"/>
<path d="M45.4918 22.4403C45.4896 22.4403 45.4896 22.4403 45.4875 22.4403L41.04 22.3755C40.9212 22.3733 40.8262 22.2761 40.8262 22.1573C40.8283 22.0385 40.9234 21.9435 41.0422 21.9435C41.0443 21.9435 41.0443 21.9435 41.0465 21.9435L45.4939 22.0083C45.6127 22.0104 45.7078 22.1076 45.7078 22.2264C45.7056 22.3452 45.6084 22.4403 45.4918 22.4403Z" fill="#002D47"/>
<path d="M40.1116 16.9128C40.036 16.9128 39.9626 16.8739 39.9237 16.8027C39.8654 16.699 39.9021 16.5672 40.0058 16.5089L45.7082 13.2883C45.8119 13.23 45.9436 13.2667 46.0019 13.3704C46.0603 13.4741 46.0235 13.6059 45.9199 13.6642L40.2175 16.8847C40.1851 16.9042 40.1483 16.9128 40.1116 16.9128Z" fill="#002D47"/>
<path d="M38.3249 11.4912C38.2688 11.4912 38.2148 11.4696 38.1716 11.4286C38.0873 11.3443 38.0873 11.2083 38.1716 11.124L41.2345 8.0525C41.3187 7.96826 41.4548 7.96826 41.539 8.0525C41.6233 8.13674 41.6233 8.27282 41.539 8.35706L38.4783 11.4286C38.4373 11.4696 38.3811 11.4912 38.3249 11.4912Z" fill="#002D47"/>
<path d="M34.3938 7.884C34.3593 7.884 34.3225 7.87536 34.2901 7.85808C34.1865 7.79976 34.1476 7.668 34.2059 7.56432L36.4674 3.46464C36.5257 3.36096 36.6575 3.32208 36.7612 3.3804C36.8649 3.43872 36.9037 3.57048 36.8454 3.67416L34.5817 7.77384C34.5429 7.84512 34.4694 7.884 34.3938 7.884Z" fill="#002D47"/>
<path d="M18.9996 12.1133C18.9456 12.1133 18.8894 12.0917 18.8484 12.0507L14.5154 7.80194C14.4312 7.7177 14.429 7.58162 14.5133 7.49738C14.5975 7.41314 14.7336 7.41098 14.8178 7.49522L19.1508 11.7439C19.235 11.8282 19.2372 11.9643 19.153 12.0485C19.1119 12.0917 19.0558 12.1133 18.9996 12.1133Z" fill="#002D47"/>
<path d="M16.8333 17.4766C16.7987 17.4766 16.762 17.4679 16.7296 17.4485L13.2477 15.5218C13.144 15.4634 13.1051 15.3317 13.1634 15.228C13.2217 15.1243 13.3535 15.0854 13.4572 15.1438L16.9391 17.0705C17.0428 17.1288 17.0817 17.2606 17.0233 17.3642C16.9823 17.4355 16.9089 17.4766 16.8333 17.4766Z" fill="#002D47"/>
<path d="M8.01599 24.7083C7.91015 24.7083 7.81943 24.6327 7.80215 24.5247C7.78487 24.4059 7.86479 24.2957 7.98359 24.2784L13.9582 23.3669C14.077 23.3496 14.1871 23.4295 14.2044 23.5483C14.2217 23.6671 14.1418 23.7773 14.023 23.7946L8.04839 24.7061C8.03759 24.7061 8.02679 24.7083 8.01599 24.7083Z" fill="#002D47"/>
<path d="M13.3403 31.873C13.2604 31.873 13.1848 31.8298 13.1459 31.752C13.094 31.644 13.1372 31.5166 13.2452 31.4626L16.738 29.7432C16.846 29.6914 16.9734 29.7346 17.0274 29.8426C17.0792 29.9506 17.036 30.078 16.928 30.132L13.4353 31.8514C13.4051 31.8665 13.3727 31.873 13.3403 31.873Z" fill="#002D47"/>
<path d="M26.2898 6.19274C26.1775 6.19274 26.0824 6.10634 26.0738 5.99186L25.901 3.57698C25.8923 3.45818 25.9809 3.3545 26.1019 3.34586C26.2207 3.33722 26.3243 3.42578 26.333 3.54674L26.5058 5.96162C26.5144 6.08042 26.4259 6.1841 26.3049 6.19274C26.3006 6.19274 26.2941 6.19274 26.2898 6.19274Z" fill="#002D47"/>
<path d="M42.2304 27.7323C42.2001 27.7323 42.1699 27.7258 42.1397 27.7128L39.8306 26.6523C39.7226 26.6026 39.6751 26.4751 39.7248 26.365C39.7745 26.257 39.9019 26.2095 40.0121 26.2591L42.3211 27.3197C42.4291 27.3694 42.4766 27.4968 42.4269 27.607C42.3902 27.6847 42.3103 27.7323 42.2304 27.7323Z" fill="#002D47"/>
</svg>
