<svg fill="none" height="43" viewBox="0 0 105 43" width="105" xmlns="http://www.w3.org/2000/svg"><path d="m82.4027 10.8608c3.0334 0 5.5102-2.43812 5.5102-5.43039s-2.4768-5.43041-5.5102-5.43041-5.5102 2.43814-5.5102 5.43041 2.4768 5.43039 5.5102 5.43039z" fill="#ec632d"/><path d="m81.8461 15.2106s.5566 1.1083 1.141 0l4.7866-9.28155s.5566-1.10825-.6679-1.10825h-9.3785s-1.2523 0-.6679 1.10825z" fill="#ec632d"/><path d="m82.4027 9.39223c2.2263 0 4.0352-1.77319 4.0352-3.96198s-1.8089-3.96199-4.0352-3.96199c-2.2264 0-4.0353 1.7732-4.0353 3.96199s1.8089 3.96198 4.0353 3.96198z" fill="#fff"/><g fill="#000"><path clip-rule="evenodd" d="m81.4898 3.02539h1.8535v1.49613h1.5306v1.81753h-1.5306v1.49613h-1.8535v-1.49613h-1.5584v-1.81753h1.5584z" fill-rule="evenodd"/><path d="m0 10.9163v4.2113h8.20965v21.971h4.59185v-21.971h8.2096v-4.2113z"/><path d="m29.5826 28.6483c0 3.02-1.8089 4.8209-4.397 4.8209-2.6717 0-4.1744-1.7455-4.1744-4.7655v-11.0548h-4.4806v12.3847c0 4.5438 2.5603 7.0928 6.9574 7.0928 3.0334 0 4.8423-1.1914 6.0946-3.0477v3.02h4.4805v-19.4498h-4.4805z"/><path d="m52.9592 27.3736c0 3.8789-2.5047 6.2616-5.5937 6.2616-3.0334 0-5.705-2.4658-5.705-6.2616 0-3.7957 2.6716-6.2616 5.705-6.2616s5.5937 2.4382 5.5937 6.2616zm4.564 0c0-6.4832-4.4805-10.1404-9.1002-10.1404-3.1447 0-5.1763 1.6346-6.6234 3.6572v-3.2417h-4.5083v25.3512h4.4805v-8.9214c1.3636 1.8009 3.3952 3.0477 6.6234 3.0477 4.6753 0 9.128-3.2693 9.128-9.7526z"/><path d="m72.6624 30.0616c0 2.4382-2.2264 4.1005-5.1763 4.1005-2.115 0-3.7848-1.0251-3.7848-2.8814v-.0831c0-1.9949 1.6698-3.1308 4.4806-3.1308 1.7532 0 3.3395.3325 4.4805.7757zm4.3414 7.0374v-11.5258c0-5.2087-2.8108-8.2287-8.5993-8.2287-3.1725 0-5.2876.6649-7.4304 1.6346l1.2245 3.5741c1.781-.748 3.3951-1.219 5.5937-1.219 3.1168 0 4.8144 1.4684 4.8144 4.1559v.471c-1.5306-.471-3.0334-.8035-5.3989-.8035-4.564 0-7.9313 2.0503-7.9313 6.2616v.0831c0 3.9066 3.256 5.6244 6.9573 5.6244 2.9499 0 5.0093-.8312 6.3173-2.4104v2.3827z"/><path d="m84.6568 17.6489h-4.4805v19.4498h4.4805z"/><path d="m100.686 30.0611c0 2.4382-2.2259 4.1005-5.1758 4.1005-2.115 0-3.7848-1.0251-3.7848-2.8814v-.0831c0-1.9949 1.6698-3.1308 4.4805-3.1308 1.7533 0 3.3395.3325 4.4801.7758zm4.314 7.0374v-11.5258c0-5.2087-2.811-8.2287-8.5993-8.2287-3.1725 0-5.2875.6649-7.4304 1.6347l1.2245 3.5741c1.7811-.7481 3.3952-1.2191 5.5937-1.2191 3.1169 0 4.8145 1.4684 4.8145 4.1559v.471c-1.5307-.471-3.0334-.8035-5.3989-.8035-4.564 0-7.9314 2.0503-7.9314 6.2616v.0832c0 3.9065 3.256 5.6243 6.9573 5.6243 2.9499 0 5.0093-.8312 6.317-2.4104v2.3827z"/></g></svg>