<svg width="16" height="23" viewBox="0 0 16 23" fill="none" xmlns="http://www.w3.org/2000/svg">
<ellipse cx="7.99971" cy="7.85366" rx="6.85713" ry="6.73171" fill="white"/>
<path d="M8.00529 0C3.65321 0 0.137654 3.45816 0.0211745 7.74627C0.0211745 7.82076 0 7.8846 0 7.95908C0 10.4702 1.18597 12.6728 3.00728 14.1412L7.17935 22.2812C7.17935 22.2812 8.00529 23.8985 8.83123 22.2812L13.0033 14.1306C14.8246 12.6728 16 10.4596 16 7.95908C16 3.56456 12.4209 0 8.00529 0ZM8.00529 13.7794C4.77564 13.7794 2.16016 11.1725 2.16016 7.95908C2.16016 4.74566 4.77564 2.14938 8.00529 2.14938C11.2349 2.14938 13.8504 4.7563 13.8504 7.95908C13.8504 11.1619 11.2244 13.7794 8.00529 13.7794Z" fill="#EC642D"/>
<path d="M7.4047 7.28842H5.14258V8.41899H7.4047L7.41541 10.6586H8.60544L8.59473 8.41899H10.8568V7.28842H8.59473V5.04883H7.39398L7.4047 7.28842Z" fill="white"/>
<path d="M9.30139 11.2195H6.7287L6.71858 9.12091H4.57129V6.59652H6.70845L6.69831 4.48779H9.29126V6.59652H11.4284V9.12091H9.29126L9.30139 11.2195Z" fill="#2E2F33"/>
</svg>
