<svg width="69" height="99" viewBox="0 0 69 99" fill="none" xmlns="http://www.w3.org/2000/svg">
<ellipse cx="34.5001" cy="33.8048" rx="29.5714" ry="28.9756" fill="white"/>
<path d="M34.5228 0C15.7545 0 0.593631 14.8851 0.0913149 33.3427C0.0913149 33.6633 0 33.9381 0 34.2587C0 45.0675 5.11448 54.5482 12.9689 60.8687L30.9609 95.9059C30.9609 95.9059 34.5228 102.868 38.0847 95.9059L56.0768 60.8229C63.9312 54.5482 69 45.0217 69 34.2587C69 15.3431 53.5652 0 34.5228 0ZM34.5228 59.3114C20.595 59.3114 9.31569 48.0904 9.31569 34.2587C9.31569 20.427 20.595 9.25167 34.5228 9.25167C48.4507 9.25167 59.73 20.4728 59.73 34.2587C59.73 48.0446 48.405 59.3114 34.5228 59.3114Z" fill="#EC642D"/>
<path d="M31.9341 31.3718H22.1787V36.2382H31.9341L31.9803 45.8782H37.1123L37.0661 36.2382H46.8215V31.3718H37.0661V21.7318H31.8879L31.9341 31.3718Z" fill="white"/>
<path d="M40.1129 48.2927H29.0182L28.9745 39.2596H19.7144V28.3938H28.9308L28.8871 19.3171H40.0692V28.3938H49.2857V39.2596H40.0692L40.1129 48.2927Z" fill="#0A7EC3"/>
</svg>
