<svg width="168" height="96" viewBox="0 0 168 96" fill="none" xmlns="http://www.w3.org/2000/svg">
    <path d="M24.52 70.0376V74H22.667V63.3359H26.7466C27.938 63.3359 28.8828 63.646 29.5811 64.2661C30.2842 64.8862 30.6357 65.7065 30.6357 66.7271C30.6357 67.772 30.2915 68.585 29.603 69.166C28.9194 69.7471 27.96 70.0376 26.7246 70.0376H24.52ZM24.52 68.5508H26.7466C27.4058 68.5508 27.9087 68.397 28.2554 68.0894C28.6021 67.7769 28.7754 67.3276 28.7754 66.7417C28.7754 66.1655 28.5996 65.7065 28.248 65.3647C27.8965 65.0181 27.4131 64.8398 26.7979 64.8301H24.52V68.5508ZM36.7368 74C36.6587 73.8486 36.5903 73.6021 36.5317 73.2603C35.9653 73.8511 35.272 74.1465 34.4517 74.1465C33.6558 74.1465 33.0063 73.9194 32.5034 73.4653C32.0005 73.0112 31.749 72.4497 31.749 71.7808C31.749 70.936 32.0615 70.2891 32.6865 69.8398C33.3164 69.3857 34.2148 69.1587 35.3818 69.1587H36.4731V68.6387C36.4731 68.2285 36.3584 67.9014 36.1289 67.6572C35.8994 67.4082 35.5503 67.2837 35.0815 67.2837C34.6763 67.2837 34.3442 67.3862 34.0854 67.5913C33.8267 67.7915 33.6973 68.0479 33.6973 68.3604H31.9175C31.9175 67.9258 32.0615 67.5205 32.3496 67.1445C32.6377 66.7637 33.0283 66.4658 33.5215 66.251C34.0195 66.0361 34.5737 65.9287 35.1841 65.9287C36.1118 65.9287 36.8516 66.1631 37.4033 66.6318C37.9551 67.0957 38.2383 67.75 38.2529 68.5947V72.1689C38.2529 72.8818 38.353 73.4507 38.5532 73.8755V74H36.7368ZM34.7812 72.7183C35.1328 72.7183 35.4624 72.6328 35.77 72.4619C36.0825 72.291 36.3169 72.0615 36.4731 71.7734V70.2793H35.5137C34.8545 70.2793 34.3589 70.394 34.0269 70.6235C33.6948 70.853 33.5288 71.1777 33.5288 71.5977C33.5288 71.9395 33.6411 72.2129 33.8657 72.418C34.0952 72.6182 34.4004 72.7183 34.7812 72.7183ZM43.3726 72.7256C43.8169 72.7256 44.1855 72.5962 44.4785 72.3374C44.7715 72.0786 44.9277 71.7588 44.9473 71.3779H46.6245C46.605 71.8711 46.4512 72.3325 46.1631 72.7622C45.875 73.187 45.4844 73.5239 44.9912 73.7729C44.498 74.022 43.9658 74.1465 43.3945 74.1465C42.2861 74.1465 41.4072 73.7876 40.7578 73.0698C40.1084 72.3521 39.7837 71.3608 39.7837 70.0962V69.9131C39.7837 68.707 40.106 67.7427 40.7505 67.02C41.395 66.2925 42.2739 65.9287 43.3872 65.9287C44.3296 65.9287 45.0962 66.2046 45.687 66.7563C46.2827 67.3032 46.5952 68.0234 46.6245 68.917H44.9473C44.9277 68.4629 44.7715 68.0894 44.4785 67.7964C44.1904 67.5034 43.8218 67.3569 43.3726 67.3569C42.7964 67.3569 42.3521 67.5669 42.0396 67.9868C41.7271 68.4019 41.5684 69.0342 41.5635 69.8838V70.1694C41.5635 71.0288 41.7173 71.6709 42.0249 72.0957C42.3374 72.5156 42.7866 72.7256 43.3726 72.7256ZM49.8618 74H48.082V66.0752H49.8618V74ZM47.9722 64.0171C47.9722 63.7437 48.0576 63.5166 48.2285 63.3359C48.4043 63.1553 48.6533 63.0649 48.9756 63.0649C49.2979 63.0649 49.5469 63.1553 49.7227 63.3359C49.8984 63.5166 49.9863 63.7437 49.9863 64.0171C49.9863 64.2856 49.8984 64.5103 49.7227 64.6909C49.5469 64.8667 49.2979 64.9546 48.9756 64.9546C48.6533 64.9546 48.4043 64.8667 48.2285 64.6909C48.0576 64.5103 47.9722 64.2856 47.9722 64.0171ZM52.2788 74V67.3936H51.0703V66.0752H52.2788V65.5332C52.2837 64.9131 52.4155 64.3809 52.6743 63.9365C52.9331 63.4922 53.2993 63.1577 53.7729 62.9331C54.2466 62.7085 54.8154 62.5962 55.4795 62.5962C55.8701 62.5962 56.2437 62.6377 56.6001 62.7207C56.9614 62.8037 57.335 62.9087 57.7207 63.0356L57.4497 64.5078C56.7759 64.2734 56.1606 64.1562 55.604 64.1562C55.062 64.1562 54.6689 64.2759 54.4248 64.5151C54.1807 64.7495 54.0586 65.1035 54.0586 65.5771V66.0752H55.6187V67.3936H54.0586V74H52.2788ZM58.563 74H56.7832V66.0752H58.563V74ZM63.7925 72.7256C64.2368 72.7256 64.6055 72.5962 64.8984 72.3374C65.1914 72.0786 65.3477 71.7588 65.3672 71.3779H67.0444C67.0249 71.8711 66.8711 72.3325 66.583 72.7622C66.2949 73.187 65.9043 73.5239 65.4111 73.7729C64.918 74.022 64.3857 74.1465 63.8145 74.1465C62.7061 74.1465 61.8271 73.7876 61.1777 73.0698C60.5283 72.3521 60.2036 71.3608 60.2036 70.0962V69.9131C60.2036 68.707 60.5259 67.7427 61.1704 67.02C61.8149 66.2925 62.6938 65.9287 63.8071 65.9287C64.7495 65.9287 65.5161 66.2046 66.1069 66.7563C66.7026 67.3032 67.0151 68.0234 67.0444 68.917H65.3672C65.3477 68.4629 65.1914 68.0894 64.8984 67.7964C64.6104 67.5034 64.2417 67.3569 63.7925 67.3569C63.2163 67.3569 62.772 67.5669 62.4595 67.9868C62.147 68.4019 61.9883 69.0342 61.9834 69.8838V70.1694C61.9834 71.0288 62.1372 71.6709 62.4448 72.0957C62.7573 72.5156 63.2065 72.7256 63.7925 72.7256ZM77.8696 71.2534C77.8696 70.7847 77.7036 70.4233 77.3716 70.1694C77.0444 69.9155 76.4512 69.6592 75.5918 69.4004C74.7324 69.1416 74.0488 68.8535 73.541 68.5361C72.5693 67.9258 72.0835 67.1299 72.0835 66.1484C72.0835 65.2891 72.4326 64.5811 73.1309 64.0244C73.834 63.4678 74.7446 63.1895 75.8628 63.1895C76.605 63.1895 77.2666 63.3262 77.8477 63.5996C78.4287 63.873 78.8853 64.2637 79.2173 64.7715C79.5493 65.2744 79.7153 65.8335 79.7153 66.4487H77.8696C77.8696 65.8921 77.6938 65.4575 77.3423 65.145C76.9956 64.8276 76.4976 64.6689 75.8481 64.6689C75.2427 64.6689 74.7715 64.7983 74.4346 65.0571C74.1025 65.3159 73.9365 65.6772 73.9365 66.1411C73.9365 66.5317 74.1172 66.8589 74.4785 67.1226C74.8398 67.3813 75.4355 67.6353 76.2656 67.8843C77.0957 68.1284 77.7622 68.4092 78.2651 68.7266C78.7681 69.0391 79.1367 69.4004 79.3711 69.8105C79.6055 70.2158 79.7227 70.6919 79.7227 71.2388C79.7227 72.1274 79.3809 72.8354 78.6973 73.3628C78.0186 73.8853 77.0957 74.1465 75.9287 74.1465C75.1572 74.1465 74.4468 74.0049 73.7974 73.7217C73.1528 73.4336 72.6499 73.0381 72.2886 72.5352C71.9321 72.0322 71.7539 71.4463 71.7539 70.7773H73.6069C73.6069 71.3828 73.8071 71.8516 74.2075 72.1836C74.6079 72.5156 75.1816 72.6816 75.9287 72.6816C76.5732 72.6816 77.0566 72.5522 77.3789 72.2935C77.7061 72.0298 77.8696 71.6831 77.8696 71.2534ZM83.9487 71.4512L85.5601 66.0752H87.457L84.3076 75.2012C83.8242 76.5342 83.0039 77.2007 81.8467 77.2007C81.5879 77.2007 81.3022 77.1567 80.9897 77.0688V75.6919L81.3267 75.7139C81.7759 75.7139 82.1128 75.6309 82.3374 75.4648C82.5669 75.3037 82.7476 75.0303 82.8794 74.6445L83.1357 73.9634L80.3525 66.0752H82.2715L83.9487 71.4512ZM90.1377 66.0752L90.189 66.9907C90.7749 66.2827 91.5439 65.9287 92.4961 65.9287C94.1465 65.9287 94.9863 66.8735 95.0156 68.7632V74H93.2358V68.8657C93.2358 68.3628 93.126 67.9917 92.9062 67.7524C92.6914 67.5083 92.3374 67.3862 91.8442 67.3862C91.1265 67.3862 90.5918 67.7109 90.2402 68.3604V74H88.4604V66.0752H90.1377ZM96.5024 69.979C96.5024 68.7583 96.7856 67.7793 97.3521 67.042C97.9185 66.2998 98.6777 65.9287 99.6299 65.9287C100.47 65.9287 101.148 66.2217 101.666 66.8076V62.75H103.446V74H101.834L101.747 73.1797C101.214 73.8242 100.504 74.1465 99.6152 74.1465C98.6875 74.1465 97.9355 73.7729 97.3594 73.0259C96.7881 72.2788 96.5024 71.2632 96.5024 69.979ZM98.2822 70.1328C98.2822 70.9385 98.436 71.5684 98.7437 72.0225C99.0562 72.4717 99.498 72.6963 100.069 72.6963C100.797 72.6963 101.329 72.3716 101.666 71.7222V68.3384C101.339 67.7036 100.812 67.3862 100.084 67.3862C99.5078 67.3862 99.0635 67.6157 98.751 68.0747C98.4385 68.5288 98.2822 69.2148 98.2822 70.1328ZM109.452 67.7012C109.217 67.6621 108.976 67.6426 108.727 67.6426C107.911 67.6426 107.362 67.9551 107.079 68.5801V74H105.299V66.0752H106.998L107.042 66.9614C107.472 66.2729 108.067 65.9287 108.829 65.9287C109.083 65.9287 109.293 65.9629 109.459 66.0312L109.452 67.7012ZM109.979 69.9644C109.979 69.188 110.133 68.4897 110.44 67.8696C110.748 67.2446 111.18 66.7661 111.737 66.4341C112.293 66.0972 112.933 65.9287 113.656 65.9287C114.725 65.9287 115.592 66.2729 116.256 66.9614C116.925 67.6499 117.286 68.563 117.34 69.7007L117.347 70.1182C117.347 70.8994 117.196 71.5977 116.893 72.2129C116.595 72.8281 116.166 73.3042 115.604 73.6411C115.047 73.978 114.403 74.1465 113.67 74.1465C112.552 74.1465 111.656 73.7754 110.982 73.0332C110.313 72.2861 109.979 71.2925 109.979 70.0522V69.9644ZM111.759 70.1182C111.759 70.9336 111.927 71.5732 112.264 72.0371C112.601 72.4961 113.07 72.7256 113.67 72.7256C114.271 72.7256 114.737 72.4912 115.069 72.0225C115.406 71.5537 115.575 70.8677 115.575 69.9644C115.575 69.1636 115.401 68.5288 115.055 68.0601C114.713 67.5913 114.247 67.3569 113.656 67.3569C113.075 67.3569 112.613 67.5889 112.271 68.0527C111.93 68.5117 111.759 69.2002 111.759 70.1182ZM120.526 66.0752L120.577 66.9028C121.134 66.2534 121.896 65.9287 122.862 65.9287C123.922 65.9287 124.647 66.334 125.038 67.1445C125.614 66.334 126.424 65.9287 127.469 65.9287C128.343 65.9287 128.993 66.1704 129.417 66.6538C129.847 67.1372 130.067 67.8501 130.077 68.7925V74H128.297V68.8438C128.297 68.3408 128.187 67.9722 127.967 67.7378C127.748 67.5034 127.384 67.3862 126.876 67.3862C126.471 67.3862 126.139 67.4961 125.88 67.7158C125.626 67.9307 125.448 68.2139 125.345 68.5654L125.353 74H123.573V68.7852C123.548 67.8525 123.072 67.3862 122.145 67.3862C121.432 67.3862 120.926 67.6768 120.628 68.2578V74H118.849V66.0752H120.526ZM133.797 74H132.018V66.0752H133.797V74ZM131.908 64.0171C131.908 63.7437 131.993 63.5166 132.164 63.3359C132.34 63.1553 132.589 63.0649 132.911 63.0649C133.233 63.0649 133.482 63.1553 133.658 63.3359C133.834 63.5166 133.922 63.7437 133.922 64.0171C133.922 64.2856 133.834 64.5103 133.658 64.6909C133.482 64.8667 133.233 64.9546 132.911 64.9546C132.589 64.9546 132.34 64.8667 132.164 64.6909C131.993 64.5103 131.908 64.2856 131.908 64.0171ZM138.998 72.7256C139.442 72.7256 139.811 72.5962 140.104 72.3374C140.396 72.0786 140.553 71.7588 140.572 71.3779H142.25C142.23 71.8711 142.076 72.3325 141.788 72.7622C141.5 73.187 141.109 73.5239 140.616 73.7729C140.123 74.022 139.591 74.1465 139.02 74.1465C137.911 74.1465 137.032 73.7876 136.383 73.0698C135.733 72.3521 135.409 71.3608 135.409 70.0962V69.9131C135.409 68.707 135.731 67.7427 136.375 67.02C137.02 66.2925 137.899 65.9287 139.012 65.9287C139.955 65.9287 140.721 66.2046 141.312 66.7563C141.908 67.3032 142.22 68.0234 142.25 68.917H140.572C140.553 68.4629 140.396 68.0894 140.104 67.7964C139.815 67.5034 139.447 67.3569 138.998 67.3569C138.421 67.3569 137.977 67.5669 137.665 67.9868C137.352 68.4019 137.193 69.0342 137.188 69.8838V70.1694C137.188 71.0288 137.342 71.6709 137.65 72.0957C137.962 72.5156 138.412 72.7256 138.998 72.7256ZM6.72949 89.2534C6.72949 88.7847 6.56348 88.4233 6.23145 88.1694C5.9043 87.9155 5.31104 87.6592 4.45166 87.4004C3.59229 87.1416 2.90869 86.8535 2.40088 86.5361C1.4292 85.9258 0.943359 85.1299 0.943359 84.1484C0.943359 83.2891 1.29248 82.5811 1.99072 82.0244C2.69385 81.4678 3.60449 81.1895 4.72266 81.1895C5.46484 81.1895 6.12646 81.3262 6.70752 81.5996C7.28857 81.873 7.74512 82.2637 8.07715 82.7715C8.40918 83.2744 8.5752 83.8335 8.5752 84.4487H6.72949C6.72949 83.8921 6.55371 83.4575 6.20215 83.145C5.85547 82.8276 5.35742 82.6689 4.70801 82.6689C4.10254 82.6689 3.63135 82.7983 3.29443 83.0571C2.9624 83.3159 2.79639 83.6772 2.79639 84.1411C2.79639 84.5317 2.97705 84.8589 3.33838 85.1226C3.69971 85.3813 4.29541 85.6353 5.12549 85.8843C5.95557 86.1284 6.62207 86.4092 7.125 86.7266C7.62793 87.0391 7.99658 87.4004 8.23096 87.8105C8.46533 88.2158 8.58252 88.6919 8.58252 89.2388C8.58252 90.1274 8.24072 90.8354 7.55713 91.3628C6.87842 91.8853 5.95557 92.1465 4.78857 92.1465C4.01709 92.1465 3.30664 92.0049 2.65723 91.7217C2.0127 91.4336 1.50977 91.0381 1.14844 90.5352C0.791992 90.0322 0.61377 89.4463 0.61377 88.7773H2.4668C2.4668 89.3828 2.66699 89.8516 3.06738 90.1836C3.46777 90.5156 4.0415 90.6816 4.78857 90.6816C5.43311 90.6816 5.9165 90.5522 6.23877 90.2935C6.56592 90.0298 6.72949 89.6831 6.72949 89.2534ZM14.8374 91.2236C14.3149 91.8389 13.5728 92.1465 12.6108 92.1465C11.7515 92.1465 11.0996 91.895 10.6553 91.3921C10.2158 90.8892 9.99609 90.1616 9.99609 89.2095V84.0752H11.7759V89.1875C11.7759 90.1934 12.1934 90.6963 13.0283 90.6963C13.8926 90.6963 14.4761 90.3862 14.7788 89.7661V84.0752H16.5586V92H14.8813L14.8374 91.2236ZM22.5205 85.7012C22.2861 85.6621 22.0444 85.6426 21.7954 85.6426C20.98 85.6426 20.4307 85.9551 20.1475 86.5801V92H18.3677V84.0752H20.0669L20.1108 84.9614C20.5405 84.2729 21.1362 83.9287 21.8979 83.9287C22.1519 83.9287 22.3618 83.9629 22.5278 84.0312L22.5205 85.7012ZM26.5708 89.7441L28.248 84.0752H30.0864L27.3398 92H25.7944L23.0259 84.0752H24.8716L26.5708 89.7441ZM34.5908 92.1465C33.4629 92.1465 32.5474 91.7925 31.8442 91.0845C31.146 90.3716 30.7969 89.4243 30.7969 88.2427V88.0229C30.7969 87.2319 30.9482 86.5264 31.251 85.9062C31.5586 85.2812 31.9883 84.7954 32.54 84.4487C33.0918 84.1021 33.707 83.9287 34.3857 83.9287C35.4648 83.9287 36.2974 84.2729 36.8833 84.9614C37.4741 85.6499 37.7695 86.624 37.7695 87.8838V88.6016H32.5913C32.645 89.2559 32.8623 89.7734 33.2432 90.1543C33.6289 90.5352 34.1123 90.7256 34.6934 90.7256C35.5088 90.7256 36.1729 90.396 36.6855 89.7368L37.645 90.6523C37.3276 91.126 36.9028 91.4946 36.3706 91.7583C35.8433 92.0171 35.25 92.1465 34.5908 92.1465ZM34.3784 85.3569C33.8901 85.3569 33.4946 85.5278 33.1919 85.8696C32.894 86.2114 32.7036 86.6875 32.6206 87.2979H36.0117V87.166C35.9727 86.5703 35.814 86.1211 35.5356 85.8184C35.2573 85.5107 34.8716 85.3569 34.3784 85.3569ZM41.0508 92H39.271V84.0752H41.0508V92ZM39.1611 82.0171C39.1611 81.7437 39.2466 81.5166 39.4175 81.3359C39.5933 81.1553 39.8423 81.0649 40.1646 81.0649C40.4868 81.0649 40.7358 81.1553 40.9116 81.3359C41.0874 81.5166 41.1753 81.7437 41.1753 82.0171C41.1753 82.2856 41.0874 82.5103 40.9116 82.6909C40.7358 82.8667 40.4868 82.9546 40.1646 82.9546C39.8423 82.9546 39.5933 82.8667 39.4175 82.6909C39.2466 82.5103 39.1611 82.2856 39.1611 82.0171ZM44.8887 92H43.1089V80.75H44.8887V92ZM48.7266 92H46.9468V80.75H48.7266V92ZM55.4062 92C55.3281 91.8486 55.2598 91.6021 55.2012 91.2603C54.6348 91.8511 53.9414 92.1465 53.1211 92.1465C52.3252 92.1465 51.6758 91.9194 51.1729 91.4653C50.6699 91.0112 50.4185 90.4497 50.4185 89.7808C50.4185 88.936 50.731 88.2891 51.356 87.8398C51.9858 87.3857 52.8843 87.1587 54.0513 87.1587H55.1426V86.6387C55.1426 86.2285 55.0278 85.9014 54.7983 85.6572C54.5688 85.4082 54.2197 85.2837 53.751 85.2837C53.3457 85.2837 53.0137 85.3862 52.7549 85.5913C52.4961 85.7915 52.3667 86.0479 52.3667 86.3604H50.5869C50.5869 85.9258 50.731 85.5205 51.019 85.1445C51.3071 84.7637 51.6978 84.4658 52.1909 84.251C52.689 84.0361 53.2432 83.9287 53.8535 83.9287C54.7812 83.9287 55.521 84.1631 56.0728 84.6318C56.6245 85.0957 56.9077 85.75 56.9224 86.5947V90.1689C56.9224 90.8818 57.0225 91.4507 57.2227 91.8755V92H55.4062ZM53.4507 90.7183C53.8022 90.7183 54.1318 90.6328 54.4395 90.4619C54.752 90.291 54.9863 90.0615 55.1426 89.7734V88.2793H54.1831C53.5239 88.2793 53.0283 88.394 52.6963 88.6235C52.3643 88.853 52.1982 89.1777 52.1982 89.5977C52.1982 89.9395 52.3105 90.2129 52.5352 90.418C52.7646 90.6182 53.0698 90.7183 53.4507 90.7183ZM60.438 84.0752L60.4893 84.9907C61.0752 84.2827 61.8442 83.9287 62.7964 83.9287C64.4468 83.9287 65.2866 84.8735 65.3159 86.7632V92H63.5361V86.8657C63.5361 86.3628 63.4263 85.9917 63.2065 85.7524C62.9917 85.5083 62.6377 85.3862 62.1445 85.3862C61.4268 85.3862 60.8921 85.7109 60.5405 86.3604V92H58.7607V84.0752H60.438ZM70.3916 90.7256C70.8359 90.7256 71.2046 90.5962 71.4976 90.3374C71.7905 90.0786 71.9468 89.7588 71.9663 89.3779H73.6436C73.624 89.8711 73.4702 90.3325 73.1821 90.7622C72.894 91.187 72.5034 91.5239 72.0103 91.7729C71.5171 92.022 70.9849 92.1465 70.4136 92.1465C69.3052 92.1465 68.4263 91.7876 67.7769 91.0698C67.1274 90.3521 66.8027 89.3608 66.8027 88.0962V87.9131C66.8027 86.707 67.125 85.7427 67.7695 85.02C68.4141 84.2925 69.293 83.9287 70.4062 83.9287C71.3486 83.9287 72.1152 84.2046 72.7061 84.7563C73.3018 85.3032 73.6143 86.0234 73.6436 86.917H71.9663C71.9468 86.4629 71.7905 86.0894 71.4976 85.7964C71.2095 85.5034 70.8408 85.3569 70.3916 85.3569C69.8154 85.3569 69.3711 85.5669 69.0586 85.9868C68.7461 86.4019 68.5874 87.0342 68.5825 87.8838V88.1694C68.5825 89.0288 68.7363 89.6709 69.0439 90.0957C69.3564 90.5156 69.8057 90.7256 70.3916 90.7256ZM78.4775 92.1465C77.3496 92.1465 76.4341 91.7925 75.731 91.0845C75.0327 90.3716 74.6836 89.4243 74.6836 88.2427V88.0229C74.6836 87.2319 74.835 86.5264 75.1377 85.9062C75.4453 85.2812 75.875 84.7954 76.4268 84.4487C76.9785 84.1021 77.5938 83.9287 78.2725 83.9287C79.3516 83.9287 80.1841 84.2729 80.77 84.9614C81.3608 85.6499 81.6562 86.624 81.6562 87.8838V88.6016H76.478C76.5317 89.2559 76.749 89.7734 77.1299 90.1543C77.5156 90.5352 77.999 90.7256 78.5801 90.7256C79.3955 90.7256 80.0596 90.396 80.5723 89.7368L81.5317 90.6523C81.2144 91.126 80.7896 91.4946 80.2573 91.7583C79.73 92.0171 79.1367 92.1465 78.4775 92.1465ZM78.2651 85.3569C77.7769 85.3569 77.3813 85.5278 77.0786 85.8696C76.7808 86.2114 76.5903 86.6875 76.5073 87.2979H79.8984V87.166C79.8594 86.5703 79.7007 86.1211 79.4224 85.8184C79.144 85.5107 78.7583 85.3569 78.2651 85.3569ZM92.5254 89.2534C92.5254 88.7847 92.3594 88.4233 92.0273 88.1694C91.7002 87.9155 91.1069 87.6592 90.2476 87.4004C89.3882 87.1416 88.7046 86.8535 88.1968 86.5361C87.2251 85.9258 86.7393 85.1299 86.7393 84.1484C86.7393 83.2891 87.0884 82.5811 87.7866 82.0244C88.4897 81.4678 89.4004 81.1895 90.5186 81.1895C91.2607 81.1895 91.9224 81.3262 92.5034 81.5996C93.0845 81.873 93.541 82.2637 93.873 82.7715C94.2051 83.2744 94.3711 83.8335 94.3711 84.4487H92.5254C92.5254 83.8921 92.3496 83.4575 91.998 83.145C91.6514 82.8276 91.1533 82.6689 90.5039 82.6689C89.8984 82.6689 89.4272 82.7983 89.0903 83.0571C88.7583 83.3159 88.5923 83.6772 88.5923 84.1411C88.5923 84.5317 88.7729 84.8589 89.1343 85.1226C89.4956 85.3813 90.0913 85.6353 90.9214 85.8843C91.7515 86.1284 92.418 86.4092 92.9209 86.7266C93.4238 87.0391 93.7925 87.4004 94.0269 87.8105C94.2612 88.2158 94.3784 88.6919 94.3784 89.2388C94.3784 90.1274 94.0366 90.8354 93.353 91.3628C92.6743 91.8853 91.7515 92.1465 90.5845 92.1465C89.813 92.1465 89.1025 92.0049 88.4531 91.7217C87.8086 91.4336 87.3057 91.0381 86.9443 90.5352C86.5879 90.0322 86.4097 89.4463 86.4097 88.7773H88.2627C88.2627 89.3828 88.4629 89.8516 88.8633 90.1836C89.2637 90.5156 89.8374 90.6816 90.5845 90.6816C91.229 90.6816 91.7124 90.5522 92.0347 90.2935C92.3618 90.0298 92.5254 89.6831 92.5254 89.2534ZM100.633 91.2236C100.111 91.8389 99.3687 92.1465 98.4067 92.1465C97.5474 92.1465 96.8955 91.895 96.4512 91.3921C96.0117 90.8892 95.792 90.1616 95.792 89.2095V84.0752H97.5718V89.1875C97.5718 90.1934 97.9893 90.6963 98.8242 90.6963C99.6885 90.6963 100.272 90.3862 100.575 89.7661V84.0752H102.354V92H100.677L100.633 91.2236ZM108.316 85.7012C108.082 85.6621 107.84 85.6426 107.591 85.6426C106.776 85.6426 106.227 85.9551 105.943 86.5801V92H104.164V84.0752H105.863L105.907 84.9614C106.336 84.2729 106.932 83.9287 107.694 83.9287C107.948 83.9287 108.158 83.9629 108.324 84.0312L108.316 85.7012ZM112.367 89.7441L114.044 84.0752H115.882L113.136 92H111.59L108.822 84.0752H110.667L112.367 89.7441ZM120.387 92.1465C119.259 92.1465 118.343 91.7925 117.64 91.0845C116.942 90.3716 116.593 89.4243 116.593 88.2427V88.0229C116.593 87.2319 116.744 86.5264 117.047 85.9062C117.354 85.2812 117.784 84.7954 118.336 84.4487C118.888 84.1021 119.503 83.9287 120.182 83.9287C121.261 83.9287 122.093 84.2729 122.679 84.9614C123.27 85.6499 123.565 86.624 123.565 87.8838V88.6016H118.387C118.441 89.2559 118.658 89.7734 119.039 90.1543C119.425 90.5352 119.908 90.7256 120.489 90.7256C121.305 90.7256 121.969 90.396 122.481 89.7368L123.441 90.6523C123.124 91.126 122.699 91.4946 122.167 91.7583C121.639 92.0171 121.046 92.1465 120.387 92.1465ZM120.174 85.3569C119.686 85.3569 119.291 85.5278 118.988 85.8696C118.69 86.2114 118.5 86.6875 118.417 87.2979H121.808V87.166C121.769 86.5703 121.61 86.1211 121.332 85.8184C121.053 85.5107 120.667 85.3569 120.174 85.3569ZM126.847 92H125.067V84.0752H126.847V92ZM124.957 82.0171C124.957 81.7437 125.042 81.5166 125.213 81.3359C125.389 81.1553 125.638 81.0649 125.96 81.0649C126.283 81.0649 126.532 81.1553 126.708 81.3359C126.883 81.5166 126.971 81.7437 126.971 82.0171C126.971 82.2856 126.883 82.5103 126.708 82.6909C126.532 82.8667 126.283 82.9546 125.96 82.9546C125.638 82.9546 125.389 82.8667 125.213 82.6909C125.042 82.5103 124.957 82.2856 124.957 82.0171ZM130.685 92H128.905V80.75H130.685V92ZM134.522 92H132.743V80.75H134.522V92ZM141.202 92C141.124 91.8486 141.056 91.6021 140.997 91.2603C140.431 91.8511 139.737 92.1465 138.917 92.1465C138.121 92.1465 137.472 91.9194 136.969 91.4653C136.466 91.0112 136.214 90.4497 136.214 89.7808C136.214 88.936 136.527 88.2891 137.152 87.8398C137.782 87.3857 138.68 87.1587 139.847 87.1587H140.938V86.6387C140.938 86.2285 140.824 85.9014 140.594 85.6572C140.365 85.4082 140.016 85.2837 139.547 85.2837C139.142 85.2837 138.81 85.3862 138.551 85.5913C138.292 85.7915 138.163 86.0479 138.163 86.3604H136.383C136.383 85.9258 136.527 85.5205 136.815 85.1445C137.103 84.7637 137.494 84.4658 137.987 84.251C138.485 84.0361 139.039 83.9287 139.649 83.9287C140.577 83.9287 141.317 84.1631 141.869 84.6318C142.42 85.0957 142.704 85.75 142.718 86.5947V90.1689C142.718 90.8818 142.818 91.4507 143.019 91.8755V92H141.202ZM139.247 90.7183C139.598 90.7183 139.928 90.6328 140.235 90.4619C140.548 90.291 140.782 90.0615 140.938 89.7734V88.2793H139.979C139.32 88.2793 138.824 88.394 138.492 88.6235C138.16 88.853 137.994 89.1777 137.994 89.5977C137.994 89.9395 138.106 90.2129 138.331 90.418C138.561 90.6182 138.866 90.7183 139.247 90.7183ZM146.234 84.0752L146.285 84.9907C146.871 84.2827 147.64 83.9287 148.592 83.9287C150.243 83.9287 151.083 84.8735 151.112 86.7632V92H149.332V86.8657C149.332 86.3628 149.222 85.9917 149.002 85.7524C148.788 85.5083 148.434 85.3862 147.94 85.3862C147.223 85.3862 146.688 85.7109 146.336 86.3604V92H144.557V84.0752H146.234ZM156.188 90.7256C156.632 90.7256 157 90.5962 157.293 90.3374C157.586 90.0786 157.743 89.7588 157.762 89.3779H159.439C159.42 89.8711 159.266 90.3325 158.978 90.7622C158.69 91.187 158.299 91.5239 157.806 91.7729C157.313 92.022 156.781 92.1465 156.209 92.1465C155.101 92.1465 154.222 91.7876 153.573 91.0698C152.923 90.3521 152.599 89.3608 152.599 88.0962V87.9131C152.599 86.707 152.921 85.7427 153.565 85.02C154.21 84.2925 155.089 83.9287 156.202 83.9287C157.145 83.9287 157.911 84.2046 158.502 84.7563C159.098 85.3032 159.41 86.0234 159.439 86.917H157.762C157.743 86.4629 157.586 86.0894 157.293 85.7964C157.005 85.5034 156.637 85.3569 156.188 85.3569C155.611 85.3569 155.167 85.5669 154.854 85.9868C154.542 86.4019 154.383 87.0342 154.378 87.8838V88.1694C154.378 89.0288 154.532 89.6709 154.84 90.0957C155.152 90.5156 155.602 90.7256 156.188 90.7256ZM164.273 92.1465C163.146 92.1465 162.23 91.7925 161.527 91.0845C160.829 90.3716 160.479 89.4243 160.479 88.2427V88.0229C160.479 87.2319 160.631 86.5264 160.934 85.9062C161.241 85.2812 161.671 84.7954 162.223 84.4487C162.774 84.1021 163.39 83.9287 164.068 83.9287C165.147 83.9287 165.98 84.2729 166.566 84.9614C167.157 85.6499 167.452 86.624 167.452 87.8838V88.6016H162.274C162.328 89.2559 162.545 89.7734 162.926 90.1543C163.312 90.5352 163.795 90.7256 164.376 90.7256C165.191 90.7256 165.855 90.396 166.368 89.7368L167.328 90.6523C167.01 91.126 166.585 91.4946 166.053 91.7583C165.526 92.0171 164.933 92.1465 164.273 92.1465ZM164.061 85.3569C163.573 85.3569 163.177 85.5278 162.875 85.8696C162.577 86.2114 162.386 86.6875 162.303 87.2979H165.694V87.166C165.655 86.5703 165.497 86.1211 165.218 85.8184C164.94 85.5107 164.554 85.3569 164.061 85.3569Z" fill="#3884B8"/>
    <g clip-path="url(#clip0)">
        <path fill-rule="evenodd" clip-rule="evenodd" d="M77.9491 26.4471V31.0509H83.9933C87.2868 31.0509 90.0509 28.2868 90.0509 24.9933C90.0509 21.7042 87.2913 18.9446 84.0022 18.9446H83.9978C80.7042 18.9446 77.9446 21.7042 77.9446 24.9978V26.4471H77.9491ZM84.0022 0H84.0067C97.7553 0 109 11.2492 109 24.9933C109 38.7463 97.7463 50 83.9933 50H77.9491V38.6341H83.9933C91.4733 38.6341 97.6296 32.4733 97.6296 24.9978C97.6296 17.5267 91.4733 11.3704 84.0022 11.3704H83.9978C76.5222 11.3704 70.3659 17.5267 70.3659 25.0022V26.4516V38.6341V50.0045H59V25.0022C59 11.2492 70.2492 0 84.0022 0Z" fill="#3884B8"/>
    </g>
    <defs>
        <clipPath id="clip0">
            <rect x="59" width="50" height="50" fill="white"/>
        </clipPath>
    </defs>
</svg>
