<svg width="125" height="96" viewBox="0 0 125 96" fill="none" xmlns="http://www.w3.org/2000/svg">
<path d="M3.02002 70.0376V74H1.16699V63.3359H5.24658C6.43799 63.3359 7.38281 63.646 8.08105 64.2661C8.78418 64.8862 9.13574 65.7065 9.13574 66.7271C9.13574 67.772 8.7915 68.585 8.10303 69.166C7.41943 69.7471 6.45996 70.0376 5.22461 70.0376H3.02002ZM3.02002 68.5508H5.24658C5.90576 68.5508 6.40869 68.397 6.75537 68.0894C7.10205 67.7769 7.27539 67.3276 7.27539 66.7417C7.27539 66.1655 7.09961 65.7065 6.74805 65.3647C6.39648 65.0181 5.91309 64.8398 5.29785 64.8301H3.02002V68.5508ZM15.2368 74C15.1587 73.8486 15.0903 73.6021 15.0317 73.2603C14.4653 73.8511 13.772 74.1465 12.9517 74.1465C12.1558 74.1465 11.5063 73.9194 11.0034 73.4653C10.5005 73.0112 10.249 72.4497 10.249 71.7808C10.249 70.936 10.5615 70.2891 11.1865 69.8398C11.8164 69.3857 12.7148 69.1587 13.8818 69.1587H14.9731V68.6387C14.9731 68.2285 14.8584 67.9014 14.6289 67.6572C14.3994 67.4082 14.0503 67.2837 13.5815 67.2837C13.1763 67.2837 12.8442 67.3862 12.5854 67.5913C12.3267 67.7915 12.1973 68.0479 12.1973 68.3604H10.4175C10.4175 67.9258 10.5615 67.5205 10.8496 67.1445C11.1377 66.7637 11.5283 66.4658 12.0215 66.251C12.5195 66.0361 13.0737 65.9287 13.6841 65.9287C14.6118 65.9287 15.3516 66.1631 15.9033 66.6318C16.4551 67.0957 16.7383 67.75 16.7529 68.5947V72.1689C16.7529 72.8818 16.853 73.4507 17.0532 73.8755V74H15.2368ZM13.2812 72.7183C13.6328 72.7183 13.9624 72.6328 14.27 72.4619C14.5825 72.291 14.8169 72.0615 14.9731 71.7734V70.2793H14.0137C13.3545 70.2793 12.8589 70.394 12.5269 70.6235C12.1948 70.853 12.0288 71.1777 12.0288 71.5977C12.0288 71.9395 12.1411 72.2129 12.3657 72.418C12.5952 72.6182 12.9004 72.7183 13.2812 72.7183ZM21.8726 72.7256C22.3169 72.7256 22.6855 72.5962 22.9785 72.3374C23.2715 72.0786 23.4277 71.7588 23.4473 71.3779H25.1245C25.105 71.8711 24.9512 72.3325 24.6631 72.7622C24.375 73.187 23.9844 73.5239 23.4912 73.7729C22.998 74.022 22.4658 74.1465 21.8945 74.1465C20.7861 74.1465 19.9072 73.7876 19.2578 73.0698C18.6084 72.3521 18.2837 71.3608 18.2837 70.0962V69.9131C18.2837 68.707 18.606 67.7427 19.2505 67.02C19.895 66.2925 20.7739 65.9287 21.8872 65.9287C22.8296 65.9287 23.5962 66.2046 24.187 66.7563C24.7827 67.3032 25.0952 68.0234 25.1245 68.917H23.4473C23.4277 68.4629 23.2715 68.0894 22.9785 67.7964C22.6904 67.5034 22.3218 67.3569 21.8726 67.3569C21.2964 67.3569 20.8521 67.5669 20.5396 67.9868C20.2271 68.4019 20.0684 69.0342 20.0635 69.8838V70.1694C20.0635 71.0288 20.2173 71.6709 20.5249 72.0957C20.8374 72.5156 21.2866 72.7256 21.8726 72.7256ZM28.3618 74H26.582V66.0752H28.3618V74ZM26.4722 64.0171C26.4722 63.7437 26.5576 63.5166 26.7285 63.3359C26.9043 63.1553 27.1533 63.0649 27.4756 63.0649C27.7979 63.0649 28.0469 63.1553 28.2227 63.3359C28.3984 63.5166 28.4863 63.7437 28.4863 64.0171C28.4863 64.2856 28.3984 64.5103 28.2227 64.6909C28.0469 64.8667 27.7979 64.9546 27.4756 64.9546C27.1533 64.9546 26.9043 64.8667 26.7285 64.6909C26.5576 64.5103 26.4722 64.2856 26.4722 64.0171ZM30.7788 74V67.3936H29.5703V66.0752H30.7788V65.5332C30.7837 64.9131 30.9155 64.3809 31.1743 63.9365C31.4331 63.4922 31.7993 63.1577 32.2729 62.9331C32.7466 62.7085 33.3154 62.5962 33.9795 62.5962C34.3701 62.5962 34.7437 62.6377 35.1001 62.7207C35.4614 62.8037 35.835 62.9087 36.2207 63.0356L35.9497 64.5078C35.2759 64.2734 34.6606 64.1562 34.104 64.1562C33.562 64.1562 33.1689 64.2759 32.9248 64.5151C32.6807 64.7495 32.5586 65.1035 32.5586 65.5771V66.0752H34.1187V67.3936H32.5586V74H30.7788ZM37.063 74H35.2832V66.0752H37.063V74ZM42.2925 72.7256C42.7368 72.7256 43.1055 72.5962 43.3984 72.3374C43.6914 72.0786 43.8477 71.7588 43.8672 71.3779H45.5444C45.5249 71.8711 45.3711 72.3325 45.083 72.7622C44.7949 73.187 44.4043 73.5239 43.9111 73.7729C43.418 74.022 42.8857 74.1465 42.3145 74.1465C41.2061 74.1465 40.3271 73.7876 39.6777 73.0698C39.0283 72.3521 38.7036 71.3608 38.7036 70.0962V69.9131C38.7036 68.707 39.0259 67.7427 39.6704 67.02C40.3149 66.2925 41.1938 65.9287 42.3071 65.9287C43.2495 65.9287 44.0161 66.2046 44.6069 66.7563C45.2026 67.3032 45.5151 68.0234 45.5444 68.917H43.8672C43.8477 68.4629 43.6914 68.0894 43.3984 67.7964C43.1104 67.5034 42.7417 67.3569 42.2925 67.3569C41.7163 67.3569 41.272 67.5669 40.9595 67.9868C40.647 68.4019 40.4883 69.0342 40.4834 69.8838V70.1694C40.4834 71.0288 40.6372 71.6709 40.9448 72.0957C41.2573 72.5156 41.7065 72.7256 42.2925 72.7256ZM56.3696 71.2534C56.3696 70.7847 56.2036 70.4233 55.8716 70.1694C55.5444 69.9155 54.9512 69.6592 54.0918 69.4004C53.2324 69.1416 52.5488 68.8535 52.041 68.5361C51.0693 67.9258 50.5835 67.1299 50.5835 66.1484C50.5835 65.2891 50.9326 64.5811 51.6309 64.0244C52.334 63.4678 53.2446 63.1895 54.3628 63.1895C55.105 63.1895 55.7666 63.3262 56.3477 63.5996C56.9287 63.873 57.3853 64.2637 57.7173 64.7715C58.0493 65.2744 58.2153 65.8335 58.2153 66.4487H56.3696C56.3696 65.8921 56.1938 65.4575 55.8423 65.145C55.4956 64.8276 54.9976 64.6689 54.3481 64.6689C53.7427 64.6689 53.2715 64.7983 52.9346 65.0571C52.6025 65.3159 52.4365 65.6772 52.4365 66.1411C52.4365 66.5317 52.6172 66.8589 52.9785 67.1226C53.3398 67.3813 53.9355 67.6353 54.7656 67.8843C55.5957 68.1284 56.2622 68.4092 56.7651 68.7266C57.2681 69.0391 57.6367 69.4004 57.8711 69.8105C58.1055 70.2158 58.2227 70.6919 58.2227 71.2388C58.2227 72.1274 57.8809 72.8354 57.1973 73.3628C56.5186 73.8853 55.5957 74.1465 54.4287 74.1465C53.6572 74.1465 52.9468 74.0049 52.2974 73.7217C51.6528 73.4336 51.1499 73.0381 50.7886 72.5352C50.4321 72.0322 50.2539 71.4463 50.2539 70.7773H52.1069C52.1069 71.3828 52.3071 71.8516 52.7075 72.1836C53.1079 72.5156 53.6816 72.6816 54.4287 72.6816C55.0732 72.6816 55.5566 72.5522 55.8789 72.2935C56.2061 72.0298 56.3696 71.6831 56.3696 71.2534ZM62.4487 71.4512L64.0601 66.0752H65.957L62.8076 75.2012C62.3242 76.5342 61.5039 77.2007 60.3467 77.2007C60.0879 77.2007 59.8022 77.1567 59.4897 77.0688V75.6919L59.8267 75.7139C60.2759 75.7139 60.6128 75.6309 60.8374 75.4648C61.0669 75.3037 61.2476 75.0303 61.3794 74.6445L61.6357 73.9634L58.8525 66.0752H60.7715L62.4487 71.4512ZM68.6377 66.0752L68.689 66.9907C69.2749 66.2827 70.0439 65.9287 70.9961 65.9287C72.6465 65.9287 73.4863 66.8735 73.5156 68.7632V74H71.7358V68.8657C71.7358 68.3628 71.626 67.9917 71.4062 67.7524C71.1914 67.5083 70.8374 67.3862 70.3442 67.3862C69.6265 67.3862 69.0918 67.7109 68.7402 68.3604V74H66.9604V66.0752H68.6377ZM75.0024 69.979C75.0024 68.7583 75.2856 67.7793 75.8521 67.042C76.4185 66.2998 77.1777 65.9287 78.1299 65.9287C78.9697 65.9287 79.6484 66.2217 80.166 66.8076V62.75H81.9458V74H80.3345L80.2466 73.1797C79.7144 73.8242 79.0039 74.1465 78.1152 74.1465C77.1875 74.1465 76.4355 73.7729 75.8594 73.0259C75.2881 72.2788 75.0024 71.2632 75.0024 69.979ZM76.7822 70.1328C76.7822 70.9385 76.936 71.5684 77.2437 72.0225C77.5562 72.4717 77.998 72.6963 78.5693 72.6963C79.2969 72.6963 79.8291 72.3716 80.166 71.7222V68.3384C79.8389 67.7036 79.3115 67.3862 78.584 67.3862C78.0078 67.3862 77.5635 67.6157 77.251 68.0747C76.9385 68.5288 76.7822 69.2148 76.7822 70.1328ZM87.9517 67.7012C87.7173 67.6621 87.4756 67.6426 87.2266 67.6426C86.4111 67.6426 85.8618 67.9551 85.5786 68.5801V74H83.7988V66.0752H85.498L85.542 66.9614C85.9717 66.2729 86.5674 65.9287 87.3291 65.9287C87.583 65.9287 87.793 65.9629 87.959 66.0312L87.9517 67.7012ZM88.479 69.9644C88.479 69.188 88.6328 68.4897 88.9404 67.8696C89.248 67.2446 89.6802 66.7661 90.2368 66.4341C90.7935 66.0972 91.4331 65.9287 92.1558 65.9287C93.2251 65.9287 94.0918 66.2729 94.7559 66.9614C95.4248 67.6499 95.7861 68.563 95.8398 69.7007L95.8472 70.1182C95.8472 70.8994 95.6958 71.5977 95.3931 72.2129C95.0952 72.8281 94.6655 73.3042 94.104 73.6411C93.5474 73.978 92.9028 74.1465 92.1704 74.1465C91.0522 74.1465 90.1562 73.7754 89.4824 73.0332C88.8135 72.2861 88.479 71.2925 88.479 70.0522V69.9644ZM90.2588 70.1182C90.2588 70.9336 90.4272 71.5732 90.7642 72.0371C91.1011 72.4961 91.5698 72.7256 92.1704 72.7256C92.771 72.7256 93.2373 72.4912 93.5693 72.0225C93.9062 71.5537 94.0747 70.8677 94.0747 69.9644C94.0747 69.1636 93.9014 68.5288 93.5547 68.0601C93.2129 67.5913 92.7466 67.3569 92.1558 67.3569C91.5747 67.3569 91.1133 67.5889 90.7715 68.0527C90.4297 68.5117 90.2588 69.2002 90.2588 70.1182ZM99.0259 66.0752L99.0771 66.9028C99.6338 66.2534 100.396 65.9287 101.362 65.9287C102.422 65.9287 103.147 66.334 103.538 67.1445C104.114 66.334 104.924 65.9287 105.969 65.9287C106.843 65.9287 107.493 66.1704 107.917 66.6538C108.347 67.1372 108.567 67.8501 108.577 68.7925V74H106.797V68.8438C106.797 68.3408 106.687 67.9722 106.467 67.7378C106.248 67.5034 105.884 67.3862 105.376 67.3862C104.971 67.3862 104.639 67.4961 104.38 67.7158C104.126 67.9307 103.948 68.2139 103.845 68.5654L103.853 74H102.073V68.7852C102.048 67.8525 101.572 67.3862 100.645 67.3862C99.9316 67.3862 99.4263 67.6768 99.1284 68.2578V74H97.3486V66.0752H99.0259ZM112.297 74H110.518V66.0752H112.297V74ZM110.408 64.0171C110.408 63.7437 110.493 63.5166 110.664 63.3359C110.84 63.1553 111.089 63.0649 111.411 63.0649C111.733 63.0649 111.982 63.1553 112.158 63.3359C112.334 63.5166 112.422 63.7437 112.422 64.0171C112.422 64.2856 112.334 64.5103 112.158 64.6909C111.982 64.8667 111.733 64.9546 111.411 64.9546C111.089 64.9546 110.84 64.8667 110.664 64.6909C110.493 64.5103 110.408 64.2856 110.408 64.0171ZM117.498 72.7256C117.942 72.7256 118.311 72.5962 118.604 72.3374C118.896 72.0786 119.053 71.7588 119.072 71.3779H120.75C120.73 71.8711 120.576 72.3325 120.288 72.7622C120 73.187 119.609 73.5239 119.116 73.7729C118.623 74.022 118.091 74.1465 117.52 74.1465C116.411 74.1465 115.532 73.7876 114.883 73.0698C114.233 72.3521 113.909 71.3608 113.909 70.0962V69.9131C113.909 68.707 114.231 67.7427 114.875 67.02C115.52 66.2925 116.399 65.9287 117.512 65.9287C118.455 65.9287 119.221 66.2046 119.812 66.7563C120.408 67.3032 120.72 68.0234 120.75 68.917H119.072C119.053 68.4629 118.896 68.0894 118.604 67.7964C118.315 67.5034 117.947 67.3569 117.498 67.3569C116.921 67.3569 116.477 67.5669 116.165 67.9868C115.852 68.4019 115.693 69.0342 115.688 69.8838V70.1694C115.688 71.0288 115.842 71.6709 116.15 72.0957C116.462 72.5156 116.912 72.7256 117.498 72.7256ZM28.1274 89.2534C28.1274 88.7847 27.9614 88.4233 27.6294 88.1694C27.3022 87.9155 26.709 87.6592 25.8496 87.4004C24.9902 87.1416 24.3066 86.8535 23.7988 86.5361C22.8271 85.9258 22.3413 85.1299 22.3413 84.1484C22.3413 83.2891 22.6904 82.5811 23.3887 82.0244C24.0918 81.4678 25.0024 81.1895 26.1206 81.1895C26.8628 81.1895 27.5244 81.3262 28.1055 81.5996C28.6865 81.873 29.1431 82.2637 29.4751 82.7715C29.8071 83.2744 29.9731 83.8335 29.9731 84.4487H28.1274C28.1274 83.8921 27.9517 83.4575 27.6001 83.145C27.2534 82.8276 26.7554 82.6689 26.106 82.6689C25.5005 82.6689 25.0293 82.7983 24.6924 83.0571C24.3604 83.3159 24.1943 83.6772 24.1943 84.1411C24.1943 84.5317 24.375 84.8589 24.7363 85.1226C25.0977 85.3813 25.6934 85.6353 26.5234 85.8843C27.3535 86.1284 28.02 86.4092 28.5229 86.7266C29.0259 87.0391 29.3945 87.4004 29.6289 87.8105C29.8633 88.2158 29.9805 88.6919 29.9805 89.2388C29.9805 90.1274 29.6387 90.8354 28.9551 91.3628C28.2764 91.8853 27.3535 92.1465 26.1865 92.1465C25.415 92.1465 24.7046 92.0049 24.0552 91.7217C23.4106 91.4336 22.9077 91.0381 22.5464 90.5352C22.1899 90.0322 22.0117 89.4463 22.0117 88.7773H23.8647C23.8647 89.3828 24.0649 89.8516 24.4653 90.1836C24.8657 90.5156 25.4395 90.6816 26.1865 90.6816C26.8311 90.6816 27.3145 90.5522 27.6367 90.2935C27.9639 90.0298 28.1274 89.6831 28.1274 89.2534ZM36.2354 91.2236C35.7129 91.8389 34.9707 92.1465 34.0088 92.1465C33.1494 92.1465 32.4976 91.895 32.0532 91.3921C31.6138 90.8892 31.394 90.1616 31.394 89.2095V84.0752H33.1738V89.1875C33.1738 90.1934 33.5913 90.6963 34.4263 90.6963C35.2905 90.6963 35.874 90.3862 36.1768 89.7661V84.0752H37.9565V92H36.2793L36.2354 91.2236ZM43.9185 85.7012C43.6841 85.6621 43.4424 85.6426 43.1934 85.6426C42.3779 85.6426 41.8286 85.9551 41.5454 86.5801V92H39.7656V84.0752H41.4648L41.5088 84.9614C41.9385 84.2729 42.5342 83.9287 43.2959 83.9287C43.5498 83.9287 43.7598 83.9629 43.9258 84.0312L43.9185 85.7012ZM47.9688 89.7441L49.646 84.0752H51.4844L48.7378 92H47.1924L44.4238 84.0752H46.2695L47.9688 89.7441ZM55.9888 92.1465C54.8608 92.1465 53.9453 91.7925 53.2422 91.0845C52.5439 90.3716 52.1948 89.4243 52.1948 88.2427V88.0229C52.1948 87.2319 52.3462 86.5264 52.6489 85.9062C52.9565 85.2812 53.3862 84.7954 53.938 84.4487C54.4897 84.1021 55.105 83.9287 55.7837 83.9287C56.8628 83.9287 57.6953 84.2729 58.2812 84.9614C58.8721 85.6499 59.1675 86.624 59.1675 87.8838V88.6016H53.9893C54.043 89.2559 54.2603 89.7734 54.6411 90.1543C55.0269 90.5352 55.5103 90.7256 56.0913 90.7256C56.9067 90.7256 57.5708 90.396 58.0835 89.7368L59.043 90.6523C58.7256 91.126 58.3008 91.4946 57.7686 91.7583C57.2412 92.0171 56.6479 92.1465 55.9888 92.1465ZM55.7764 85.3569C55.2881 85.3569 54.8926 85.5278 54.5898 85.8696C54.292 86.2114 54.1016 86.6875 54.0186 87.2979H57.4097V87.166C57.3706 86.5703 57.2119 86.1211 56.9336 85.8184C56.6553 85.5107 56.2695 85.3569 55.7764 85.3569ZM62.4487 92H60.6689V84.0752H62.4487V92ZM60.5591 82.0171C60.5591 81.7437 60.6445 81.5166 60.8154 81.3359C60.9912 81.1553 61.2402 81.0649 61.5625 81.0649C61.8848 81.0649 62.1338 81.1553 62.3096 81.3359C62.4854 81.5166 62.5732 81.7437 62.5732 82.0171C62.5732 82.2856 62.4854 82.5103 62.3096 82.6909C62.1338 82.8667 61.8848 82.9546 61.5625 82.9546C61.2402 82.9546 60.9912 82.8667 60.8154 82.6909C60.6445 82.5103 60.5591 82.2856 60.5591 82.0171ZM66.2866 92H64.5068V80.75H66.2866V92ZM70.1245 92H68.3447V80.75H70.1245V92ZM76.8042 92C76.7261 91.8486 76.6577 91.6021 76.5991 91.2603C76.0327 91.8511 75.3394 92.1465 74.519 92.1465C73.7231 92.1465 73.0737 91.9194 72.5708 91.4653C72.0679 91.0112 71.8164 90.4497 71.8164 89.7808C71.8164 88.936 72.1289 88.2891 72.7539 87.8398C73.3838 87.3857 74.2822 87.1587 75.4492 87.1587H76.5405V86.6387C76.5405 86.2285 76.4258 85.9014 76.1963 85.6572C75.9668 85.4082 75.6177 85.2837 75.1489 85.2837C74.7437 85.2837 74.4116 85.3862 74.1528 85.5913C73.894 85.7915 73.7646 86.0479 73.7646 86.3604H71.9849C71.9849 85.9258 72.1289 85.5205 72.417 85.1445C72.7051 84.7637 73.0957 84.4658 73.5889 84.251C74.0869 84.0361 74.6411 83.9287 75.2515 83.9287C76.1792 83.9287 76.9189 84.1631 77.4707 84.6318C78.0225 85.0957 78.3057 85.75 78.3203 86.5947V90.1689C78.3203 90.8818 78.4204 91.4507 78.6206 91.8755V92H76.8042ZM74.8486 90.7183C75.2002 90.7183 75.5298 90.6328 75.8374 90.4619C76.1499 90.291 76.3843 90.0615 76.5405 89.7734V88.2793H75.5811C74.9219 88.2793 74.4263 88.394 74.0942 88.6235C73.7622 88.853 73.5962 89.1777 73.5962 89.5977C73.5962 89.9395 73.7085 90.2129 73.9331 90.418C74.1626 90.6182 74.4678 90.7183 74.8486 90.7183ZM81.8359 84.0752L81.8872 84.9907C82.4731 84.2827 83.2422 83.9287 84.1943 83.9287C85.8447 83.9287 86.6846 84.8735 86.7139 86.7632V92H84.9341V86.8657C84.9341 86.3628 84.8242 85.9917 84.6045 85.7524C84.3896 85.5083 84.0356 85.3862 83.5425 85.3862C82.8247 85.3862 82.29 85.7109 81.9385 86.3604V92H80.1587V84.0752H81.8359ZM91.7896 90.7256C92.2339 90.7256 92.6025 90.5962 92.8955 90.3374C93.1885 90.0786 93.3447 89.7588 93.3643 89.3779H95.0415C95.022 89.8711 94.8682 90.3325 94.5801 90.7622C94.292 91.187 93.9014 91.5239 93.4082 91.7729C92.915 92.022 92.3828 92.1465 91.8115 92.1465C90.7031 92.1465 89.8242 91.7876 89.1748 91.0698C88.5254 90.3521 88.2007 89.3608 88.2007 88.0962V87.9131C88.2007 86.707 88.5229 85.7427 89.1675 85.02C89.812 84.2925 90.6909 83.9287 91.8042 83.9287C92.7466 83.9287 93.5132 84.2046 94.104 84.7563C94.6997 85.3032 95.0122 86.0234 95.0415 86.917H93.3643C93.3447 86.4629 93.1885 86.0894 92.8955 85.7964C92.6074 85.5034 92.2388 85.3569 91.7896 85.3569C91.2134 85.3569 90.769 85.5669 90.4565 85.9868C90.144 86.4019 89.9854 87.0342 89.9805 87.8838V88.1694C89.9805 89.0288 90.1343 89.6709 90.4419 90.0957C90.7544 90.5156 91.2036 90.7256 91.7896 90.7256ZM99.8755 92.1465C98.7476 92.1465 97.832 91.7925 97.1289 91.0845C96.4307 90.3716 96.0815 89.4243 96.0815 88.2427V88.0229C96.0815 87.2319 96.2329 86.5264 96.5356 85.9062C96.8433 85.2812 97.2729 84.7954 97.8247 84.4487C98.3765 84.1021 98.9917 83.9287 99.6704 83.9287C100.75 83.9287 101.582 84.2729 102.168 84.9614C102.759 85.6499 103.054 86.624 103.054 87.8838V88.6016H97.876C97.9297 89.2559 98.147 89.7734 98.5278 90.1543C98.9136 90.5352 99.397 90.7256 99.978 90.7256C100.793 90.7256 101.458 90.396 101.97 89.7368L102.93 90.6523C102.612 91.126 102.188 91.4946 101.655 91.7583C101.128 92.0171 100.535 92.1465 99.8755 92.1465ZM99.6631 85.3569C99.1748 85.3569 98.7793 85.5278 98.4766 85.8696C98.1787 86.2114 97.9883 86.6875 97.9053 87.2979H101.296V87.166C101.257 86.5703 101.099 86.1211 100.82 85.8184C100.542 85.5107 100.156 85.3569 99.6631 85.3569Z" fill="#3884B8"/>
<g clip-path="url(#clip0)">
<path fill-rule="evenodd" clip-rule="evenodd" d="M55.9491 26.4471V31.0509H61.9933C65.2868 31.0509 68.0509 28.2868 68.0509 24.9933C68.0509 21.7042 65.2913 18.9446 62.0022 18.9446H61.9978C58.7042 18.9446 55.9446 21.7042 55.9446 24.9978V26.4471H55.9491ZM62.0022 0H62.0067C75.7553 0 87 11.2492 87 24.9933C87 38.7463 75.7463 50 61.9933 50H55.9491V38.6341H61.9933C69.4733 38.6341 75.6296 32.4733 75.6296 24.9978C75.6296 17.5267 69.4733 11.3704 62.0022 11.3704H61.9978C54.5222 11.3704 48.3659 17.5267 48.3659 25.0022V26.4516V38.6341V50.0045H37V25.0022C37 11.2492 48.2492 0 62.0022 0Z" fill="#3884B8"/>
</g>
<defs>
<clipPath id="clip0">
<rect width="50" height="50" fill="white" transform="translate(37)"/>
</clipPath>
</defs>
</svg>
