<svg width="112" height="33" viewBox="0 0 112 33" fill="none" xmlns="http://www.w3.org/2000/svg">
<path d="M38.1064 4.04688V14H36.4043V4.04688H38.1064ZM41.2305 4.04688V5.41406H33.3076V4.04688H41.2305ZM46.2549 12.2568V6.60352H47.9092V14H46.3506L46.2549 12.2568ZM46.4873 10.7188L47.041 10.7051C47.041 11.2018 46.9863 11.6598 46.877 12.0791C46.7676 12.4938 46.599 12.8561 46.3711 13.166C46.1432 13.4714 45.8516 13.7106 45.4961 13.8838C45.1406 14.0524 44.7145 14.1367 44.2178 14.1367C43.8577 14.1367 43.5273 14.0843 43.2266 13.9795C42.9258 13.8747 42.666 13.7129 42.4473 13.4941C42.2331 13.2754 42.0667 12.9906 41.9482 12.6396C41.8298 12.2887 41.7705 11.8695 41.7705 11.3818V6.60352H43.418V11.3955C43.418 11.6644 43.4499 11.89 43.5137 12.0723C43.5775 12.25 43.6641 12.3936 43.7734 12.5029C43.8828 12.6123 44.0104 12.6898 44.1562 12.7354C44.3021 12.7809 44.457 12.8037 44.6211 12.8037C45.0905 12.8037 45.4596 12.7126 45.7285 12.5303C46.002 12.3434 46.1956 12.0928 46.3096 11.7783C46.4281 11.4639 46.4873 11.1107 46.4873 10.7188ZM51.252 8.02539V16.8438H49.6045V6.60352H51.1221L51.252 8.02539ZM56.0713 10.2334V10.377C56.0713 10.9147 56.0075 11.4137 55.8799 11.874C55.7568 12.3298 55.5723 12.7285 55.3262 13.0703C55.0846 13.4076 54.7861 13.6696 54.4307 13.8564C54.0752 14.0433 53.665 14.1367 53.2002 14.1367C52.7399 14.1367 52.3366 14.0524 51.9902 13.8838C51.6484 13.7106 51.359 13.4668 51.1221 13.1523C50.8851 12.8379 50.6937 12.4688 50.5479 12.0449C50.4066 11.6165 50.3063 11.1471 50.2471 10.6367V10.083C50.3063 9.54069 50.4066 9.0485 50.5479 8.60645C50.6937 8.16439 50.8851 7.78385 51.1221 7.46484C51.359 7.14583 51.6484 6.89974 51.9902 6.72656C52.332 6.55339 52.7308 6.4668 53.1865 6.4668C53.6514 6.4668 54.0638 6.55794 54.4238 6.74023C54.7839 6.91797 55.0869 7.17318 55.333 7.50586C55.5791 7.83398 55.7637 8.23047 55.8867 8.69531C56.0098 9.1556 56.0713 9.66829 56.0713 10.2334ZM54.4238 10.377V10.2334C54.4238 9.8916 54.3919 9.57487 54.3281 9.2832C54.2643 8.98698 54.1641 8.72721 54.0273 8.50391C53.8906 8.2806 53.7152 8.10742 53.501 7.98438C53.2913 7.85677 53.0384 7.79297 52.7422 7.79297C52.4505 7.79297 52.1999 7.8431 51.9902 7.94336C51.7806 8.03906 51.6051 8.1735 51.4639 8.34668C51.3226 8.51986 51.2132 8.72266 51.1357 8.95508C51.0583 9.18294 51.0036 9.43132 50.9717 9.7002V11.0264C51.0264 11.3545 51.1198 11.6553 51.252 11.9287C51.3841 12.2021 51.571 12.4209 51.8125 12.585C52.0586 12.7445 52.373 12.8242 52.7559 12.8242C53.0521 12.8242 53.305 12.7604 53.5146 12.6328C53.7243 12.5052 53.8952 12.3298 54.0273 12.1064C54.1641 11.8786 54.2643 11.6165 54.3281 11.3203C54.3919 11.0241 54.4238 10.7096 54.4238 10.377ZM61.6426 12.5166V8.98926C61.6426 8.72493 61.5947 8.49707 61.499 8.30566C61.4033 8.11426 61.2575 7.96615 61.0615 7.86133C60.8701 7.75651 60.6286 7.7041 60.3369 7.7041C60.068 7.7041 59.8356 7.74967 59.6396 7.84082C59.4437 7.93197 59.291 8.05501 59.1816 8.20996C59.0723 8.36491 59.0176 8.54036 59.0176 8.73633H57.377C57.377 8.44466 57.4476 8.16211 57.5889 7.88867C57.7301 7.61523 57.9352 7.37142 58.2041 7.15723C58.473 6.94303 58.7943 6.77441 59.168 6.65137C59.5417 6.52832 59.9609 6.4668 60.4258 6.4668C60.9818 6.4668 61.474 6.56022 61.9023 6.74707C62.3353 6.93392 62.6748 7.21647 62.9209 7.59473C63.1715 7.96842 63.2969 8.43783 63.2969 9.00293V12.291C63.2969 12.6283 63.3197 12.9313 63.3652 13.2002C63.4154 13.4645 63.486 13.6947 63.5771 13.8906V14H61.8887C61.8112 13.8223 61.7497 13.5967 61.7041 13.3232C61.6631 13.0452 61.6426 12.7764 61.6426 12.5166ZM61.8818 9.50195L61.8955 10.5205H60.7129C60.4076 10.5205 60.1387 10.5501 59.9062 10.6094C59.6738 10.6641 59.4801 10.7461 59.3252 10.8555C59.1702 10.9648 59.054 11.097 58.9766 11.252C58.8991 11.4069 58.8604 11.5824 58.8604 11.7783C58.8604 11.9743 58.9059 12.1543 58.9971 12.3184C59.0882 12.4779 59.2204 12.6032 59.3936 12.6943C59.5713 12.7855 59.7855 12.8311 60.0361 12.8311C60.3734 12.8311 60.6673 12.7627 60.918 12.626C61.1732 12.4847 61.3737 12.3138 61.5195 12.1133C61.6654 11.9082 61.7428 11.7145 61.752 11.5322L62.2852 12.2637C62.2305 12.4505 62.137 12.651 62.0049 12.8652C61.8727 13.0794 61.6995 13.2845 61.4854 13.4805C61.2757 13.6719 61.0228 13.8291 60.7266 13.9521C60.4349 14.0752 60.0977 14.1367 59.7148 14.1367C59.2318 14.1367 58.8011 14.041 58.4229 13.8496C58.0446 13.6536 57.7484 13.3916 57.5342 13.0635C57.32 12.7308 57.2129 12.3548 57.2129 11.9355C57.2129 11.5436 57.2858 11.1973 57.4316 10.8965C57.582 10.5911 57.8008 10.3359 58.0879 10.1309C58.3796 9.92578 58.735 9.77083 59.1543 9.66602C59.5736 9.55664 60.0521 9.50195 60.5898 9.50195H61.8818ZM66.7832 6.60352V14H65.1289V6.60352H66.7832ZM65.0195 4.66211C65.0195 4.41146 65.1016 4.2041 65.2656 4.04004C65.4342 3.87142 65.6667 3.78711 65.9629 3.78711C66.2546 3.78711 66.4847 3.87142 66.6533 4.04004C66.8219 4.2041 66.9062 4.41146 66.9062 4.66211C66.9062 4.9082 66.8219 5.11328 66.6533 5.27734C66.4847 5.44141 66.2546 5.52344 65.9629 5.52344C65.6667 5.52344 65.4342 5.44141 65.2656 5.27734C65.1016 5.11328 65.0195 4.9082 65.0195 4.66211ZM72.7578 12.5166V8.98926C72.7578 8.72493 72.71 8.49707 72.6143 8.30566C72.5186 8.11426 72.3727 7.96615 72.1768 7.86133C71.9854 7.75651 71.7438 7.7041 71.4521 7.7041C71.1833 7.7041 70.9508 7.74967 70.7549 7.84082C70.5589 7.93197 70.4062 8.05501 70.2969 8.20996C70.1875 8.36491 70.1328 8.54036 70.1328 8.73633H68.4922C68.4922 8.44466 68.5628 8.16211 68.7041 7.88867C68.8454 7.61523 69.0505 7.37142 69.3193 7.15723C69.5882 6.94303 69.9095 6.77441 70.2832 6.65137C70.6569 6.52832 71.0762 6.4668 71.541 6.4668C72.097 6.4668 72.5892 6.56022 73.0176 6.74707C73.4505 6.93392 73.79 7.21647 74.0361 7.59473C74.2868 7.96842 74.4121 8.43783 74.4121 9.00293V12.291C74.4121 12.6283 74.4349 12.9313 74.4805 13.2002C74.5306 13.4645 74.6012 13.6947 74.6924 13.8906V14H73.0039C72.9264 13.8223 72.8649 13.5967 72.8193 13.3232C72.7783 13.0452 72.7578 12.7764 72.7578 12.5166ZM72.9971 9.50195L73.0107 10.5205H71.8281C71.5228 10.5205 71.2539 10.5501 71.0215 10.6094C70.7891 10.6641 70.5954 10.7461 70.4404 10.8555C70.2855 10.9648 70.1693 11.097 70.0918 11.252C70.0143 11.4069 69.9756 11.5824 69.9756 11.7783C69.9756 11.9743 70.0212 12.1543 70.1123 12.3184C70.2035 12.4779 70.3356 12.6032 70.5088 12.6943C70.6865 12.7855 70.9007 12.8311 71.1514 12.8311C71.4886 12.8311 71.7826 12.7627 72.0332 12.626C72.2884 12.4847 72.4889 12.3138 72.6348 12.1133C72.7806 11.9082 72.8581 11.7145 72.8672 11.5322L73.4004 12.2637C73.3457 12.4505 73.2523 12.651 73.1201 12.8652C72.988 13.0794 72.8148 13.2845 72.6006 13.4805C72.391 13.6719 72.138 13.8291 71.8418 13.9521C71.5501 14.0752 71.2129 14.1367 70.8301 14.1367C70.347 14.1367 69.9163 14.041 69.5381 13.8496C69.1598 13.6536 68.8636 13.3916 68.6494 13.0635C68.4352 12.7308 68.3281 12.3548 68.3281 11.9355C68.3281 11.5436 68.401 11.1973 68.5469 10.8965C68.6973 10.5911 68.916 10.3359 69.2031 10.1309C69.4948 9.92578 69.8503 9.77083 70.2695 9.66602C70.6888 9.55664 71.1673 9.50195 71.7051 9.50195H72.9971ZM37.8877 21.373L34.9141 30H33.1162L36.8623 20.0469H38.0107L37.8877 21.373ZM40.376 30L37.3955 21.373L37.2656 20.0469H38.4209L42.1807 30H40.376ZM40.2324 26.3086V27.6689H34.8184V26.3086H40.2324ZM47.6426 28.4688V19.5H49.2969V30H47.7998L47.6426 28.4688ZM42.8301 26.3838V26.2402C42.8301 25.6797 42.8962 25.1693 43.0283 24.709C43.1605 24.2441 43.3519 23.8454 43.6025 23.5127C43.8532 23.1755 44.1585 22.918 44.5186 22.7402C44.8786 22.5579 45.2842 22.4668 45.7354 22.4668C46.182 22.4668 46.5739 22.5534 46.9111 22.7266C47.2484 22.8997 47.5355 23.1481 47.7725 23.4717C48.0094 23.7907 48.1986 24.1735 48.3398 24.6201C48.4811 25.0622 48.5814 25.5544 48.6406 26.0967V26.5547C48.5814 27.0833 48.4811 27.5664 48.3398 28.0039C48.1986 28.4414 48.0094 28.8197 47.7725 29.1387C47.5355 29.4577 47.2461 29.7038 46.9043 29.877C46.5671 30.0501 46.1729 30.1367 45.7217 30.1367C45.2751 30.1367 44.8717 30.0433 44.5117 29.8564C44.1562 29.6696 43.8532 29.4076 43.6025 29.0703C43.3519 28.7331 43.1605 28.3366 43.0283 27.8809C42.8962 27.4206 42.8301 26.9215 42.8301 26.3838ZM44.4775 26.2402V26.3838C44.4775 26.721 44.5072 27.0355 44.5664 27.3271C44.6302 27.6188 44.7282 27.8763 44.8604 28.0996C44.9925 28.3184 45.1634 28.4915 45.373 28.6191C45.5872 28.7422 45.8424 28.8037 46.1387 28.8037C46.5124 28.8037 46.82 28.7217 47.0615 28.5576C47.3031 28.3936 47.4922 28.1725 47.6289 27.8945C47.7702 27.612 47.8659 27.2975 47.916 26.9512V25.7139C47.8887 25.445 47.8317 25.1943 47.7451 24.9619C47.6631 24.7295 47.5514 24.5267 47.4102 24.3535C47.2689 24.1758 47.0934 24.0391 46.8838 23.9434C46.6787 23.8431 46.4349 23.793 46.1523 23.793C45.8516 23.793 45.5964 23.8568 45.3867 23.9844C45.1771 24.112 45.0039 24.2874 44.8672 24.5107C44.735 24.734 44.637 24.9938 44.5732 25.29C44.5094 25.5863 44.4775 25.903 44.4775 26.2402ZM52.667 24.1074V30H51.0195V22.6035H52.5713L52.667 24.1074ZM52.4004 26.0283L51.8398 26.0215C51.8398 25.5111 51.9036 25.0394 52.0312 24.6064C52.1589 24.1735 52.3457 23.7975 52.5918 23.4785C52.8379 23.1549 53.1432 22.9066 53.5078 22.7334C53.877 22.5557 54.3031 22.4668 54.7861 22.4668C55.1234 22.4668 55.431 22.5169 55.709 22.6172C55.9915 22.7129 56.2354 22.8656 56.4404 23.0752C56.6501 23.2848 56.8096 23.5537 56.9189 23.8818C57.0329 24.21 57.0898 24.6064 57.0898 25.0713V30H55.4424V25.2148C55.4424 24.8548 55.3877 24.5723 55.2783 24.3672C55.1735 24.1621 55.0208 24.0163 54.8203 23.9297C54.6243 23.8385 54.3896 23.793 54.1162 23.793C53.8063 23.793 53.542 23.8522 53.3232 23.9707C53.109 24.0892 52.9336 24.251 52.7969 24.4561C52.6602 24.6611 52.5599 24.8981 52.4961 25.167C52.4323 25.4359 52.4004 25.723 52.4004 26.0283ZM56.9873 25.5908L56.2148 25.7617C56.2148 25.3151 56.2764 24.8936 56.3994 24.4971C56.527 24.096 56.7116 23.7451 56.9531 23.4443C57.1992 23.139 57.5023 22.8997 57.8623 22.7266C58.2223 22.5534 58.6348 22.4668 59.0996 22.4668C59.4779 22.4668 59.8151 22.5192 60.1113 22.624C60.4121 22.7243 60.6673 22.8838 60.877 23.1025C61.0866 23.3213 61.2461 23.6061 61.3555 23.957C61.4648 24.3034 61.5195 24.7227 61.5195 25.2148V30H59.8652V25.208C59.8652 24.8343 59.8105 24.5449 59.7012 24.3398C59.5964 24.1348 59.446 23.9935 59.25 23.916C59.054 23.834 58.8193 23.793 58.5459 23.793C58.2907 23.793 58.0651 23.8408 57.8691 23.9365C57.6777 24.0277 57.516 24.1576 57.3838 24.3262C57.2516 24.4902 57.1514 24.6794 57.083 24.8936C57.0192 25.1077 56.9873 25.3402 56.9873 25.5908ZM64.9785 22.6035V30H63.3242V22.6035H64.9785ZM63.2148 20.6621C63.2148 20.4115 63.2969 20.2041 63.4609 20.04C63.6296 19.8714 63.862 19.7871 64.1582 19.7871C64.4499 19.7871 64.68 19.8714 64.8486 20.04C65.0173 20.2041 65.1016 20.4115 65.1016 20.6621C65.1016 20.9082 65.0173 21.1133 64.8486 21.2773C64.68 21.4414 64.4499 21.5234 64.1582 21.5234C63.862 21.5234 63.6296 21.4414 63.4609 21.2773C63.2969 21.1133 63.2148 20.9082 63.2148 20.6621ZM68.417 24.1826V30H66.7695V22.6035H68.3213L68.417 24.1826ZM68.123 26.0283L67.5898 26.0215C67.5944 25.4974 67.6673 25.0166 67.8086 24.5791C67.9544 24.1416 68.1549 23.7656 68.4102 23.4512C68.6699 23.1367 68.9798 22.8952 69.3398 22.7266C69.6999 22.5534 70.1009 22.4668 70.543 22.4668C70.8984 22.4668 71.2197 22.5169 71.5068 22.6172C71.7985 22.7129 72.0469 22.8701 72.252 23.0889C72.4616 23.3076 72.6211 23.5924 72.7305 23.9434C72.8398 24.2897 72.8945 24.7158 72.8945 25.2217V30H71.2402V25.2148C71.2402 24.8594 71.1878 24.5791 71.083 24.374C70.9827 24.1644 70.8346 24.0163 70.6387 23.9297C70.4473 23.8385 70.208 23.793 69.9209 23.793C69.6383 23.793 69.3854 23.8522 69.1621 23.9707C68.9388 24.0892 68.7497 24.251 68.5947 24.4561C68.4443 24.6611 68.3281 24.8981 68.2461 25.167C68.1641 25.4359 68.123 25.723 68.123 26.0283ZM82.0068 26.2881H79.416V24.9277H82.0068C82.458 24.9277 82.8226 24.8548 83.1006 24.709C83.3786 24.5632 83.5814 24.3626 83.709 24.1074C83.8411 23.8477 83.9072 23.5514 83.9072 23.2188C83.9072 22.9043 83.8411 22.6104 83.709 22.3369C83.5814 22.0589 83.3786 21.8356 83.1006 21.667C82.8226 21.4984 82.458 21.4141 82.0068 21.4141H79.9424V30H78.2266V20.0469H82.0068C82.777 20.0469 83.431 20.1836 83.9688 20.457C84.5111 20.7259 84.9235 21.0996 85.2061 21.5781C85.4886 22.0521 85.6299 22.5944 85.6299 23.2051C85.6299 23.8477 85.4886 24.3991 85.2061 24.8594C84.9235 25.3197 84.5111 25.6729 83.9688 25.9189C83.431 26.165 82.777 26.2881 82.0068 26.2881ZM91.0918 28.5166V24.9893C91.0918 24.7249 91.0439 24.4971 90.9482 24.3057C90.8525 24.1143 90.7067 23.9661 90.5107 23.8613C90.3193 23.7565 90.0778 23.7041 89.7861 23.7041C89.5173 23.7041 89.2848 23.7497 89.0889 23.8408C88.8929 23.932 88.7402 24.055 88.6309 24.21C88.5215 24.3649 88.4668 24.5404 88.4668 24.7363H86.8262C86.8262 24.4447 86.8968 24.1621 87.0381 23.8887C87.1794 23.6152 87.3844 23.3714 87.6533 23.1572C87.9222 22.943 88.2435 22.7744 88.6172 22.6514C88.9909 22.5283 89.4102 22.4668 89.875 22.4668C90.431 22.4668 90.9232 22.5602 91.3516 22.7471C91.7845 22.9339 92.124 23.2165 92.3701 23.5947C92.6208 23.9684 92.7461 24.4378 92.7461 25.0029V28.291C92.7461 28.6283 92.7689 28.9313 92.8145 29.2002C92.8646 29.4645 92.9352 29.6947 93.0264 29.8906V30H91.3379C91.2604 29.8223 91.1989 29.5967 91.1533 29.3232C91.1123 29.0452 91.0918 28.7764 91.0918 28.5166ZM91.3311 25.502L91.3447 26.5205H90.1621C89.8568 26.5205 89.5879 26.5501 89.3555 26.6094C89.123 26.6641 88.9294 26.7461 88.7744 26.8555C88.6195 26.9648 88.5033 27.097 88.4258 27.252C88.3483 27.4069 88.3096 27.5824 88.3096 27.7783C88.3096 27.9743 88.3551 28.1543 88.4463 28.3184C88.5374 28.4779 88.6696 28.6032 88.8428 28.6943C89.0205 28.7855 89.2347 28.8311 89.4854 28.8311C89.8226 28.8311 90.1165 28.7627 90.3672 28.626C90.6224 28.4847 90.8229 28.3138 90.9688 28.1133C91.1146 27.9082 91.1921 27.7145 91.2012 27.5322L91.7344 28.2637C91.6797 28.4505 91.5863 28.651 91.4541 28.8652C91.3219 29.0794 91.1488 29.2845 90.9346 29.4805C90.7249 29.6719 90.472 29.8291 90.1758 29.9521C89.8841 30.0752 89.5469 30.1367 89.1641 30.1367C88.681 30.1367 88.2503 30.041 87.8721 29.8496C87.4938 29.6536 87.1976 29.3916 86.9834 29.0635C86.7692 28.7308 86.6621 28.3548 86.6621 27.9355C86.6621 27.5436 86.735 27.1973 86.8809 26.8965C87.0312 26.5911 87.25 26.3359 87.5371 26.1309C87.8288 25.9258 88.1842 25.7708 88.6035 25.666C89.0228 25.5566 89.5013 25.502 90.0391 25.502H91.3311ZM96.1025 24.1826V30H94.4551V22.6035H96.0068L96.1025 24.1826ZM95.8086 26.0283L95.2754 26.0215C95.2799 25.4974 95.3529 25.0166 95.4941 24.5791C95.64 24.1416 95.8405 23.7656 96.0957 23.4512C96.3555 23.1367 96.6654 22.8952 97.0254 22.7266C97.3854 22.5534 97.7865 22.4668 98.2285 22.4668C98.584 22.4668 98.9053 22.5169 99.1924 22.6172C99.484 22.7129 99.7324 22.8701 99.9375 23.0889C100.147 23.3076 100.307 23.5924 100.416 23.9434C100.525 24.2897 100.58 24.7158 100.58 25.2217V30H98.9258V25.2148C98.9258 24.8594 98.8734 24.5791 98.7686 24.374C98.6683 24.1644 98.5202 24.0163 98.3242 23.9297C98.1328 23.8385 97.8936 23.793 97.6064 23.793C97.3239 23.793 97.071 23.8522 96.8477 23.9707C96.6243 24.0892 96.4352 24.251 96.2803 24.4561C96.1299 24.6611 96.0137 24.8981 95.9316 25.167C95.8496 25.4359 95.8086 25.723 95.8086 26.0283ZM105.522 30.1367C104.976 30.1367 104.481 30.0479 104.039 29.8701C103.602 29.6878 103.228 29.4349 102.918 29.1113C102.613 28.7878 102.378 28.4072 102.214 27.9697C102.05 27.5322 101.968 27.0605 101.968 26.5547V26.2812C101.968 25.7025 102.052 25.1784 102.221 24.709C102.389 24.2396 102.624 23.8385 102.925 23.5059C103.226 23.1686 103.581 22.9111 103.991 22.7334C104.401 22.5557 104.846 22.4668 105.324 22.4668C105.853 22.4668 106.315 22.5557 106.712 22.7334C107.108 22.9111 107.437 23.1618 107.696 23.4854C107.961 23.8044 108.157 24.1849 108.284 24.627C108.416 25.069 108.482 25.5566 108.482 26.0898V26.7939H102.768V25.6113H106.855V25.4814C106.846 25.1852 106.787 24.9072 106.678 24.6475C106.573 24.3877 106.411 24.1781 106.192 24.0186C105.974 23.859 105.682 23.7793 105.317 23.7793C105.044 23.7793 104.8 23.8385 104.586 23.957C104.376 24.071 104.201 24.2373 104.06 24.4561C103.918 24.6748 103.809 24.9391 103.731 25.249C103.659 25.5544 103.622 25.8984 103.622 26.2812V26.5547C103.622 26.8783 103.665 27.179 103.752 27.457C103.843 27.7305 103.975 27.9697 104.148 28.1748C104.322 28.3799 104.531 28.5417 104.777 28.6602C105.023 28.7741 105.304 28.8311 105.618 28.8311C106.015 28.8311 106.368 28.7513 106.678 28.5918C106.988 28.4323 107.257 28.2067 107.484 27.915L108.353 28.7559C108.193 28.9883 107.986 29.2116 107.73 29.4258C107.475 29.6354 107.163 29.8063 106.794 29.9385C106.429 30.0706 106.006 30.1367 105.522 30.1367ZM111.531 19.5V30H109.877V19.5H111.531Z" fill="white"/>
<ellipse cx="11" cy="10.5853" rx="9.42856" ry="9.07317" fill="white"/>
<path d="M11.0073 0C5.02316 0 0.189274 4.661 0.0291149 10.4406C0.0291149 10.541 0 10.6271 0 10.7275C0 14.1121 1.6307 17.0808 4.135 19.0599L9.87161 30.0311C9.87161 30.0311 11.0073 32.2111 12.1429 30.0311L17.8795 19.0455C20.3839 17.0808 22 14.0977 22 10.7275C22 4.80441 17.0788 0 11.0073 0ZM11.0073 18.5723C6.56651 18.5723 2.97022 15.0586 2.97022 10.7275C2.97022 6.39632 6.56651 2.89699 11.0073 2.89699C15.448 2.89699 19.0443 6.41066 19.0443 10.7275C19.0443 15.0443 15.4335 18.5723 11.0073 18.5723Z" fill="#EC642D"/>
<path d="M10.1819 9.82349H7.07147V11.3473H10.1819L10.1966 14.3659H11.8329L11.8182 11.3473H14.9286V9.82349H11.8182V6.8049H10.1671L10.1819 9.82349Z" fill="white"/>
<path d="M12.7897 15.1219H9.2522L9.23829 12.2934H6.28577V8.89096H9.22436L9.21043 6.04877H12.7757V8.89096H15.7143V12.2934H12.7757L12.7897 15.1219Z" fill="#2E2F33"/>
</svg>
