<svg width="115" height="101" viewBox="0 0 115 101" fill="none" xmlns="http://www.w3.org/2000/svg">
<path d="M12.2979 64.9961H8.30762V76H6.10156V64.9961H2.14648V63.2031H12.2979V64.9961ZM18.96 75.0684C18.333 75.8066 17.4424 76.1758 16.2881 76.1758C15.2568 76.1758 14.4746 75.874 13.9414 75.2705C13.4141 74.667 13.1504 73.7939 13.1504 72.6514V66.4902H15.2861V72.625C15.2861 73.832 15.7871 74.4355 16.7891 74.4355C17.8262 74.4355 18.5264 74.0635 18.8896 73.3193V66.4902H21.0254V76H19.0127L18.96 75.0684ZM31.5283 71.3418C31.5283 72.8125 31.1943 73.9873 30.5264 74.8662C29.8584 75.7393 28.9619 76.1758 27.8369 76.1758C26.7939 76.1758 25.959 75.833 25.332 75.1475V79.6562H23.1963V66.4902H25.165L25.2529 67.457C25.8799 66.6953 26.7324 66.3145 27.8105 66.3145C28.9707 66.3145 29.8789 66.748 30.5352 67.6152C31.1973 68.4766 31.5283 69.6748 31.5283 71.21V71.3418ZM29.4014 71.1572C29.4014 70.208 29.2109 69.4551 28.8301 68.8984C28.4551 68.3418 27.916 68.0635 27.2129 68.0635C26.3398 68.0635 25.7129 68.4238 25.332 69.1445V73.3633C25.7188 74.1016 26.3516 74.4707 27.2305 74.4707C27.9102 74.4707 28.4404 74.1982 28.8213 73.6533C29.208 73.1025 29.4014 72.2705 29.4014 71.1572ZM39.0254 76C38.9316 75.8184 38.8496 75.5225 38.7793 75.1123C38.0996 75.8213 37.2676 76.1758 36.2832 76.1758C35.3281 76.1758 34.5488 75.9033 33.9453 75.3584C33.3418 74.8135 33.04 74.1396 33.04 73.3369C33.04 72.3232 33.415 71.5469 34.165 71.0078C34.9209 70.4629 35.999 70.1904 37.3994 70.1904H38.709V69.5664C38.709 69.0742 38.5713 68.6816 38.2959 68.3887C38.0205 68.0898 37.6016 67.9404 37.0391 67.9404C36.5527 67.9404 36.1543 68.0635 35.8438 68.3096C35.5332 68.5498 35.3779 68.8574 35.3779 69.2324H33.2422C33.2422 68.7109 33.415 68.2246 33.7607 67.7734C34.1064 67.3164 34.5752 66.959 35.167 66.7012C35.7646 66.4434 36.4297 66.3145 37.1621 66.3145C38.2754 66.3145 39.1631 66.5957 39.8252 67.1582C40.4873 67.7148 40.8271 68.5 40.8447 69.5137V73.8027C40.8447 74.6582 40.9648 75.3408 41.2051 75.8506V76H39.0254ZM36.6787 74.4619C37.1006 74.4619 37.4961 74.3594 37.8652 74.1543C38.2402 73.9492 38.5215 73.6738 38.709 73.3281V71.5352H37.5576C36.7666 71.5352 36.1719 71.6729 35.7734 71.9482C35.375 72.2236 35.1758 72.6133 35.1758 73.1172C35.1758 73.5273 35.3105 73.8555 35.5801 74.1016C35.8555 74.3418 36.2217 74.4619 36.6787 74.4619ZM45.3535 76H43.2178V66.4902H45.3535V76ZM43.0859 64.0205C43.0859 63.6924 43.1885 63.4199 43.3936 63.2031C43.6045 62.9863 43.9033 62.8779 44.29 62.8779C44.6768 62.8779 44.9756 62.9863 45.1865 63.2031C45.3975 63.4199 45.5029 63.6924 45.5029 64.0205C45.5029 64.3428 45.3975 64.6123 45.1865 64.8291C44.9756 65.04 44.6768 65.1455 44.29 65.1455C43.9033 65.1455 43.6045 65.04 43.3936 64.8291C43.1885 64.6123 43.0859 64.3428 43.0859 64.0205ZM53.3691 76C53.2754 75.8184 53.1934 75.5225 53.123 75.1123C52.4434 75.8213 51.6113 76.1758 50.627 76.1758C49.6719 76.1758 48.8926 75.9033 48.2891 75.3584C47.6855 74.8135 47.3838 74.1396 47.3838 73.3369C47.3838 72.3232 47.7588 71.5469 48.5088 71.0078C49.2646 70.4629 50.3428 70.1904 51.7432 70.1904H53.0527V69.5664C53.0527 69.0742 52.915 68.6816 52.6396 68.3887C52.3643 68.0898 51.9453 67.9404 51.3828 67.9404C50.8965 67.9404 50.498 68.0635 50.1875 68.3096C49.877 68.5498 49.7217 68.8574 49.7217 69.2324H47.5859C47.5859 68.7109 47.7588 68.2246 48.1045 67.7734C48.4502 67.3164 48.9189 66.959 49.5107 66.7012C50.1084 66.4434 50.7734 66.3145 51.5059 66.3145C52.6191 66.3145 53.5068 66.5957 54.1689 67.1582C54.8311 67.7148 55.1709 68.5 55.1885 69.5137V73.8027C55.1885 74.6582 55.3086 75.3408 55.5488 75.8506V76H53.3691ZM51.0225 74.4619C51.4443 74.4619 51.8398 74.3594 52.209 74.1543C52.584 73.9492 52.8652 73.6738 53.0527 73.3281V71.5352H51.9014C51.1104 71.5352 50.5156 71.6729 50.1172 71.9482C49.7188 72.2236 49.5195 72.6133 49.5195 73.1172C49.5195 73.5273 49.6543 73.8555 49.9238 74.1016C50.1992 74.3418 50.5654 74.4619 51.0225 74.4619ZM69.2773 73.0205H64.3203L63.2832 76H60.9717L65.8057 63.2031H67.8008L72.6436 76H70.3232L69.2773 73.0205ZM64.9443 71.2275H68.6533L66.7988 65.9189L64.9443 71.2275ZM73.4961 71.1748C73.4961 69.71 73.8359 68.5352 74.5156 67.6504C75.1953 66.7598 76.1064 66.3145 77.249 66.3145C78.2568 66.3145 79.0713 66.666 79.6924 67.3691V62.5H81.8281V76H79.8945L79.7891 75.0156C79.1504 75.7891 78.2979 76.1758 77.2314 76.1758C76.1182 76.1758 75.2158 75.7275 74.5244 74.8311C73.8389 73.9346 73.4961 72.7158 73.4961 71.1748ZM75.6318 71.3594C75.6318 72.3262 75.8164 73.082 76.1855 73.627C76.5605 74.166 77.0908 74.4355 77.7764 74.4355C78.6494 74.4355 79.2881 74.0459 79.6924 73.2666V69.2061C79.2998 68.4443 78.667 68.0635 77.7939 68.0635C77.1025 68.0635 76.5693 68.3389 76.1943 68.8896C75.8193 69.4346 75.6318 70.2578 75.6318 71.3594ZM86.0645 66.4902L86.126 67.4834C86.7939 66.7041 87.708 66.3145 88.8682 66.3145C90.1396 66.3145 91.0098 66.8008 91.4785 67.7734C92.1699 66.8008 93.1426 66.3145 94.3965 66.3145C95.4453 66.3145 96.2246 66.6045 96.7344 67.1846C97.25 67.7646 97.5137 68.6201 97.5254 69.751V76H95.3896V69.8125C95.3896 69.209 95.2578 68.7666 94.9941 68.4854C94.7305 68.2041 94.2939 68.0635 93.6846 68.0635C93.1982 68.0635 92.7998 68.1953 92.4893 68.459C92.1846 68.7168 91.9707 69.0566 91.8477 69.4785L91.8564 76H89.7207V69.7422C89.6914 68.623 89.1201 68.0635 88.0068 68.0635C87.1514 68.0635 86.5449 68.4121 86.1875 69.1094V76H84.0518V66.4902H86.0645ZM101.99 76H99.8545V66.4902H101.99V76ZM99.7227 64.0205C99.7227 63.6924 99.8252 63.4199 100.03 63.2031C100.241 62.9863 100.54 62.8779 100.927 62.8779C101.313 62.8779 101.612 62.9863 101.823 63.2031C102.034 63.4199 102.14 63.6924 102.14 64.0205C102.14 64.3428 102.034 64.6123 101.823 64.8291C101.612 65.04 101.313 65.1455 100.927 65.1455C100.54 65.1455 100.241 65.04 100.03 64.8291C99.8252 64.6123 99.7227 64.3428 99.7227 64.0205ZM106.306 66.4902L106.367 67.5889C107.07 66.7393 107.993 66.3145 109.136 66.3145C111.116 66.3145 112.124 67.4482 112.159 69.7158V76H110.023V69.8389C110.023 69.2354 109.892 68.79 109.628 68.5029C109.37 68.21 108.945 68.0635 108.354 68.0635C107.492 68.0635 106.851 68.4531 106.429 69.2324V76H104.293V66.4902H106.306ZM38.3047 92.2451V97H36.0811V84.2031H40.9766C42.4062 84.2031 43.54 84.5752 44.3779 85.3193C45.2217 86.0635 45.6436 87.0479 45.6436 88.2725C45.6436 89.5264 45.2305 90.502 44.4043 91.1992C43.584 91.8965 42.4326 92.2451 40.9502 92.2451H38.3047ZM38.3047 90.4609H40.9766C41.7676 90.4609 42.3711 90.2764 42.7871 89.9072C43.2031 89.5322 43.4111 88.9932 43.4111 88.29C43.4111 87.5986 43.2002 87.0479 42.7783 86.6377C42.3564 86.2217 41.7764 86.0078 41.0381 85.9961H38.3047V90.4609ZM52.9648 97C52.8711 96.8184 52.7891 96.5225 52.7188 96.1123C52.0391 96.8213 51.207 97.1758 50.2227 97.1758C49.2676 97.1758 48.4883 96.9033 47.8848 96.3584C47.2812 95.8135 46.9795 95.1396 46.9795 94.3369C46.9795 93.3232 47.3545 92.5469 48.1045 92.0078C48.8604 91.4629 49.9385 91.1904 51.3389 91.1904H52.6484V90.5664C52.6484 90.0742 52.5107 89.6816 52.2354 89.3887C51.96 89.0898 51.541 88.9404 50.9785 88.9404C50.4922 88.9404 50.0938 89.0635 49.7832 89.3096C49.4727 89.5498 49.3174 89.8574 49.3174 90.2324H47.1816C47.1816 89.7109 47.3545 89.2246 47.7002 88.7734C48.0459 88.3164 48.5146 87.959 49.1064 87.7012C49.7041 87.4434 50.3691 87.3145 51.1016 87.3145C52.2148 87.3145 53.1025 87.5957 53.7646 88.1582C54.4268 88.7148 54.7666 89.5 54.7842 90.5137V94.8027C54.7842 95.6582 54.9043 96.3408 55.1445 96.8506V97H52.9648ZM50.6182 95.4619C51.04 95.4619 51.4355 95.3594 51.8047 95.1543C52.1797 94.9492 52.4609 94.6738 52.6484 94.3281V92.5352H51.4971C50.7061 92.5352 50.1113 92.6729 49.7129 92.9482C49.3145 93.2236 49.1152 93.6133 49.1152 94.1172C49.1152 94.5273 49.25 94.8555 49.5195 95.1016C49.7949 95.3418 50.1611 95.4619 50.6182 95.4619ZM59.0029 87.4902L59.0645 88.5889C59.7676 87.7393 60.6904 87.3145 61.833 87.3145C63.8135 87.3145 64.8213 88.4482 64.8564 90.7158V97H62.7207V90.8389C62.7207 90.2354 62.5889 89.79 62.3252 89.5029C62.0674 89.21 61.6426 89.0635 61.0508 89.0635C60.1895 89.0635 59.5479 89.4531 59.126 90.2324V97H56.9902V87.4902H59.0029ZM71.2285 97.1758C69.875 97.1758 68.7764 96.751 67.9326 95.9014C67.0947 95.0459 66.6758 93.9092 66.6758 92.4912V92.2275C66.6758 91.2783 66.8574 90.4316 67.2207 89.6875C67.5898 88.9375 68.1055 88.3545 68.7676 87.9385C69.4297 87.5225 70.168 87.3145 70.9824 87.3145C72.2773 87.3145 73.2764 87.7275 73.9795 88.5537C74.6885 89.3799 75.043 90.5488 75.043 92.0605V92.9219H68.8291C68.8936 93.707 69.1543 94.3281 69.6113 94.7852C70.0742 95.2422 70.6543 95.4707 71.3516 95.4707C72.3301 95.4707 73.127 95.0752 73.7422 94.2842L74.8936 95.3828C74.5127 95.9512 74.0029 96.3936 73.3643 96.71C72.7314 97.0205 72.0195 97.1758 71.2285 97.1758ZM70.9736 89.0283C70.3877 89.0283 69.9131 89.2334 69.5498 89.6436C69.1924 90.0537 68.9639 90.625 68.8643 91.3574H72.9336V91.1992C72.8867 90.4844 72.6963 89.9453 72.3623 89.582C72.0283 89.2129 71.5654 89.0283 70.9736 89.0283ZM78.9805 97H76.8447V83.5H78.9805V97Z" fill="#3884B8"/>
<g clip-path="url(#clip0)">
<path d="M59.5306 31.0772C51.3904 31.0772 44.7811 24.6335 44.7811 16.7116C44.7811 8.76093 51.3904 2.33154 59.5306 2.33154C67.6708 2.33154 74.2801 8.76093 74.2801 16.7116C74.2801 24.6335 67.6708 31.0772 59.5306 31.0772Z" fill="white"/>
<path fill-rule="evenodd" clip-rule="evenodd" d="M59.5306 4.31231C52.5041 4.31231 46.808 9.86051 46.808 16.7117C46.808 23.5342 52.5041 29.0968 59.5306 29.0968C66.5571 29.0968 72.2532 23.5342 72.2532 16.7117C72.2532 9.86051 66.5571 4.31231 59.5306 4.31231ZM42.7543 16.7117C42.7543 7.66165 50.2767 0.351074 59.5306 0.351074C68.7845 0.351074 76.3069 7.66165 76.3069 16.7117C76.3069 25.7331 68.7845 33.058 59.5306 33.058C50.2767 33.058 42.7543 25.7331 42.7543 16.7117Z" fill="#E37F49"/>
<path d="M48.8364 29.0496L59.5183 30.37L70.2149 29.0496L64.8593 39.5249L59.5183 50.3524L54.1774 39.877L48.8364 29.0496Z" fill="#E37F49"/>
<path d="M61.5767 9.37836H61.5914H61.6061H61.6208V9.39272H61.6356H61.6503L61.665 9.40707L61.6797 9.42142H61.6944H61.7092V9.43577H61.7239V9.45012L61.7386 9.46447L61.7533 9.47882L61.7681 9.49317V9.50753V9.52188V9.53623H61.7828V9.55058V9.56493V9.57928H61.7975V9.59363V9.60799V9.62234V14.5018H66.817H66.8317L66.8465 14.5161H66.8612H66.8759H66.8906V14.5305H66.9053H66.9201V14.5448H66.9348H66.9495V14.5592H66.9642V14.5735H66.9789L66.9937 14.5879L67.0084 14.6022V14.6166H67.0231V14.6309L67.0378 14.6453V14.6596V14.674L67.0525 14.6883V14.7027V14.717V14.7314V14.7457V14.7601V18.6637V18.678V18.6924V18.7067V18.7211V18.7354L67.0378 18.7498V18.7641V18.7785L67.0231 18.7928V18.8072H67.0084V18.8215L66.9937 18.8359L66.9789 18.8502H66.9642V18.8646H66.9495V18.8789H66.9348H66.9201V18.8933H66.9053H66.8906V18.9076H66.8759H66.8612H66.8465L66.8317 18.922H66.817H61.7975V23.8014V23.8158V23.8301V23.8445H61.7828V23.8588V23.8732V23.8875H61.7681V23.9019V23.9162V23.9306H61.7533V23.9449L61.7386 23.9593L61.7239 23.9736V23.988H61.7092H61.6944V24.0023H61.6797L61.665 24.0167L61.6503 24.031H61.6356H61.6208V24.0454H61.6061H61.5914H61.5767H61.562H61.5472H57.5287H57.514H57.4992H57.4845H57.4698H57.4551V24.031H57.4404H57.4256L57.4109 24.0167L57.3962 24.0023H57.3815V23.988H57.3668H57.352V23.9736L57.3373 23.9593L57.3226 23.9449V23.9306H57.3079V23.9162V23.9019L57.2932 23.8875V23.8732V23.8588V23.8445H57.2784V23.8301V23.8158V23.8014V18.922H52.2589H52.2442H52.2295V18.9076H52.2147H52.2H52.1853H52.1706V18.8933H52.1559L52.1411 18.8789H52.1264L52.1117 18.8646L52.097 18.8502H52.0823V18.8359H52.0675V18.8215L52.0528 18.8072L52.0381 18.7928V18.7785H52.0234V18.7641V18.7498V18.7354V18.7211V18.7067L52.0087 18.6924V18.678V18.6637V14.7601V14.7457V14.7314L52.0234 14.717V14.7027V14.6883V14.674V14.6596V14.6453H52.0381V14.6309L52.0528 14.6166L52.0675 14.6022V14.5879H52.0823V14.5735H52.097L52.1117 14.5592L52.1264 14.5448H52.1411L52.1559 14.5305H52.1706V14.5161H52.1853H52.2H52.2147H52.2295V14.5018H52.2442H52.2589H57.2784V9.62234V9.60799V9.59363V9.57928L57.2932 9.56493V9.55058V9.53623L57.3079 9.52188V9.50753V9.49317L57.3226 9.47882L57.3373 9.46447L57.352 9.45012V9.43577H57.3668V9.42142H57.3815H57.3962L57.4109 9.40707L57.4256 9.39272H57.4404H57.4551V9.37836H57.4698H57.4845H57.4992H57.514H57.5287V9.36401H61.5472V9.37836H61.562H61.5767Z" fill="#3C90C8"/>
</g>
<defs>
<clipPath id="clip0">
<rect width="37.5" height="50" fill="white" transform="translate(40.25)"/>
</clipPath>
</defs>
</svg>
