<svg width="188" height="32" viewBox="0 0 188 32" fill="none" xmlns="http://www.w3.org/2000/svg">
<path d="M47.0312 7.66406H44.3711V15H42.9004V7.66406H40.2637V6.46875H47.0312V7.66406ZM51.4727 14.3789C51.0547 14.8711 50.4609 15.1172 49.6914 15.1172C49.0039 15.1172 48.4824 14.916 48.127 14.5137C47.7754 14.1113 47.5996 13.5293 47.5996 12.7676V8.66016H49.0234V12.75C49.0234 13.5547 49.3574 13.957 50.0254 13.957C50.7168 13.957 51.1836 13.709 51.4258 13.2129V8.66016H52.8496V15H51.5078L51.4727 14.3789ZM59.8516 11.8945C59.8516 12.875 59.6289 13.6582 59.1836 14.2441C58.7383 14.8262 58.1406 15.1172 57.3906 15.1172C56.6953 15.1172 56.1387 14.8887 55.7207 14.4316V17.4375H54.2969V8.66016H55.6094L55.668 9.30469C56.0859 8.79688 56.6543 8.54297 57.373 8.54297C58.1465 8.54297 58.752 8.83203 59.1895 9.41016C59.6309 9.98438 59.8516 10.7832 59.8516 11.8066V11.8945ZM58.4336 11.7715C58.4336 11.1387 58.3066 10.6367 58.0527 10.2656C57.8027 9.89453 57.4434 9.70898 56.9746 9.70898C56.3926 9.70898 55.9746 9.94922 55.7207 10.4297V13.2422C55.9785 13.7344 56.4004 13.9805 56.9863 13.9805C57.4395 13.9805 57.793 13.7988 58.0469 13.4355C58.3047 13.0684 58.4336 12.5137 58.4336 11.7715ZM64.8496 15C64.7871 14.8789 64.7324 14.6816 64.6855 14.4082C64.2324 14.8809 63.6777 15.1172 63.0215 15.1172C62.3848 15.1172 61.8652 14.9355 61.4629 14.5723C61.0605 14.209 60.8594 13.7598 60.8594 13.2246C60.8594 12.5488 61.1094 12.0312 61.6094 11.6719C62.1133 11.3086 62.832 11.127 63.7656 11.127H64.6387V10.7109C64.6387 10.3828 64.5469 10.1211 64.3633 9.92578C64.1797 9.72656 63.9004 9.62695 63.5254 9.62695C63.2012 9.62695 62.9355 9.70898 62.7285 9.87305C62.5215 10.0332 62.418 10.2383 62.418 10.4883H60.9941C60.9941 10.1406 61.1094 9.81641 61.3398 9.51562C61.5703 9.21094 61.8828 8.97266 62.2773 8.80078C62.6758 8.62891 63.1191 8.54297 63.6074 8.54297C64.3496 8.54297 64.9414 8.73047 65.3828 9.10547C65.8242 9.47656 66.0508 10 66.0625 10.6758V13.5352C66.0625 14.1055 66.1426 14.5605 66.3027 14.9004V15H64.8496ZM63.2852 13.9746C63.5664 13.9746 63.8301 13.9062 64.0762 13.7695C64.3262 13.6328 64.5137 13.4492 64.6387 13.2188V12.0234H63.8711C63.3438 12.0234 62.9473 12.1152 62.6816 12.2988C62.416 12.4824 62.2832 12.7422 62.2832 13.0781C62.2832 13.3516 62.373 13.5703 62.5527 13.7344C62.7363 13.8945 62.9805 13.9746 63.2852 13.9746ZM69.0684 15H67.6445V8.66016H69.0684V15ZM67.5566 7.01367C67.5566 6.79492 67.625 6.61328 67.7617 6.46875C67.9023 6.32422 68.1016 6.25195 68.3594 6.25195C68.6172 6.25195 68.8164 6.32422 68.957 6.46875C69.0977 6.61328 69.168 6.79492 69.168 7.01367C69.168 7.22852 69.0977 7.4082 68.957 7.55273C68.8164 7.69336 68.6172 7.76367 68.3594 7.76367C68.1016 7.76367 67.9023 7.69336 67.7617 7.55273C67.625 7.4082 67.5566 7.22852 67.5566 7.01367ZM74.4121 15C74.3496 14.8789 74.2949 14.6816 74.248 14.4082C73.7949 14.8809 73.2402 15.1172 72.584 15.1172C71.9473 15.1172 71.4277 14.9355 71.0254 14.5723C70.623 14.209 70.4219 13.7598 70.4219 13.2246C70.4219 12.5488 70.6719 12.0312 71.1719 11.6719C71.6758 11.3086 72.3945 11.127 73.3281 11.127H74.2012V10.7109C74.2012 10.3828 74.1094 10.1211 73.9258 9.92578C73.7422 9.72656 73.4629 9.62695 73.0879 9.62695C72.7637 9.62695 72.498 9.70898 72.291 9.87305C72.084 10.0332 71.9805 10.2383 71.9805 10.4883H70.5566C70.5566 10.1406 70.6719 9.81641 70.9023 9.51562C71.1328 9.21094 71.4453 8.97266 71.8398 8.80078C72.2383 8.62891 72.6816 8.54297 73.1699 8.54297C73.9121 8.54297 74.5039 8.73047 74.9453 9.10547C75.3867 9.47656 75.6133 10 75.625 10.6758V13.5352C75.625 14.1055 75.7051 14.5605 75.8652 14.9004V15H74.4121ZM72.8477 13.9746C73.1289 13.9746 73.3926 13.9062 73.6387 13.7695C73.8887 13.6328 74.0762 13.4492 74.2012 13.2188V12.0234H73.4336C72.9062 12.0234 72.5098 12.1152 72.2441 12.2988C71.9785 12.4824 71.8457 12.7422 71.8457 13.0781C71.8457 13.3516 71.9355 13.5703 72.1152 13.7344C72.2988 13.8945 72.543 13.9746 72.8477 13.9746ZM45.6426 27.0137H42.3379L41.6465 29H40.1055L43.3281 20.4688H44.6582L47.8867 29H46.3398L45.6426 27.0137ZM42.7539 25.8184H45.2266L43.9902 22.2793L42.7539 25.8184ZM48.4551 25.7832C48.4551 24.8066 48.6816 24.0234 49.1348 23.4336C49.5879 22.8398 50.1953 22.543 50.957 22.543C51.6289 22.543 52.1719 22.7773 52.5859 23.2461V20H54.0098V29H52.7207L52.6504 28.3438C52.2246 28.8594 51.6562 29.1172 50.9453 29.1172C50.2031 29.1172 49.6016 28.8184 49.1406 28.2207C48.6836 27.623 48.4551 26.8105 48.4551 25.7832ZM49.8789 25.9062C49.8789 26.5508 50.002 27.0547 50.248 27.418C50.498 27.7773 50.8516 27.957 51.3086 27.957C51.8906 27.957 52.3164 27.6973 52.5859 27.1777V24.4707C52.3242 23.9629 51.9023 23.709 51.3203 23.709C50.8594 23.709 50.5039 23.8926 50.2539 24.2598C50.0039 24.623 49.8789 25.1719 49.8789 25.9062ZM56.834 22.6602L56.875 23.3223C57.3203 22.8027 57.9297 22.543 58.7031 22.543C59.5508 22.543 60.1309 22.8672 60.4434 23.5156C60.9043 22.8672 61.5527 22.543 62.3887 22.543C63.0879 22.543 63.6074 22.7363 63.9473 23.123C64.291 23.5098 64.4668 24.0801 64.4746 24.834V29H63.0508V24.875C63.0508 24.4727 62.9629 24.1777 62.7871 23.9902C62.6113 23.8027 62.3203 23.709 61.9141 23.709C61.5898 23.709 61.3242 23.7969 61.1172 23.9727C60.9141 24.1445 60.7715 24.3711 60.6895 24.6523L60.6953 29H59.2715V24.8281C59.252 24.082 58.8711 23.709 58.1289 23.709C57.5586 23.709 57.1543 23.9414 56.916 24.4062V29H55.4922V22.6602H56.834ZM67.4512 29H66.0273V22.6602H67.4512V29ZM65.9395 21.0137C65.9395 20.7949 66.0078 20.6133 66.1445 20.4688C66.2852 20.3242 66.4844 20.252 66.7422 20.252C67 20.252 67.1992 20.3242 67.3398 20.4688C67.4805 20.6133 67.5508 20.7949 67.5508 21.0137C67.5508 21.2285 67.4805 21.4082 67.3398 21.5527C67.1992 21.6934 67 21.7637 66.7422 21.7637C66.4844 21.7637 66.2852 21.6934 66.1445 21.5527C66.0078 21.4082 65.9395 21.2285 65.9395 21.0137ZM70.3281 22.6602L70.3691 23.3926C70.8379 22.8262 71.4531 22.543 72.2148 22.543C73.5352 22.543 74.207 23.2988 74.2305 24.8105V29H72.8066V24.8926C72.8066 24.4902 72.7188 24.1934 72.543 24.002C72.3711 23.8066 72.0879 23.709 71.6934 23.709C71.1191 23.709 70.6914 23.9688 70.4102 24.4883V29H68.9863V22.6602H70.3281ZM80.2949 25.8301V29H78.8125V20.4688H82.0762C83.0293 20.4688 83.7852 20.7168 84.3438 21.2129C84.9062 21.709 85.1875 22.3652 85.1875 23.1816C85.1875 24.0176 84.9121 24.668 84.3613 25.1328C83.8145 25.5977 83.0469 25.8301 82.0586 25.8301H80.2949ZM80.2949 24.6406H82.0762C82.6035 24.6406 83.0059 24.5176 83.2832 24.2715C83.5605 24.0215 83.6992 23.6621 83.6992 23.1934C83.6992 22.7324 83.5586 22.3652 83.2773 22.0918C82.9961 21.8145 82.6094 21.6719 82.1172 21.6641H80.2949V24.6406ZM90.0684 29C90.0059 28.8789 89.9512 28.6816 89.9043 28.4082C89.4512 28.8809 88.8965 29.1172 88.2402 29.1172C87.6035 29.1172 87.084 28.9355 86.6816 28.5723C86.2793 28.209 86.0781 27.7598 86.0781 27.2246C86.0781 26.5488 86.3281 26.0312 86.8281 25.6719C87.332 25.3086 88.0508 25.127 88.9844 25.127H89.8574V24.7109C89.8574 24.3828 89.7656 24.1211 89.582 23.9258C89.3984 23.7266 89.1191 23.627 88.7441 23.627C88.4199 23.627 88.1543 23.709 87.9473 23.873C87.7402 24.0332 87.6367 24.2383 87.6367 24.4883H86.2129C86.2129 24.1406 86.3281 23.8164 86.5586 23.5156C86.7891 23.2109 87.1016 22.9727 87.4961 22.8008C87.8945 22.6289 88.3379 22.543 88.8262 22.543C89.5684 22.543 90.1602 22.7305 90.6016 23.1055C91.043 23.4766 91.2695 24 91.2812 24.6758V27.5352C91.2812 28.1055 91.3613 28.5605 91.5215 28.9004V29H90.0684ZM88.5039 27.9746C88.7852 27.9746 89.0488 27.9062 89.2949 27.7695C89.5449 27.6328 89.7324 27.4492 89.8574 27.2188V26.0234H89.0898C88.5625 26.0234 88.166 26.1152 87.9004 26.2988C87.6348 26.4824 87.502 26.7422 87.502 27.0781C87.502 27.3516 87.5918 27.5703 87.7715 27.7344C87.9551 27.8945 88.1992 27.9746 88.5039 27.9746ZM94.0938 22.6602L94.1348 23.3926C94.6035 22.8262 95.2188 22.543 95.9805 22.543C97.3008 22.543 97.9727 23.2988 97.9961 24.8105V29H96.5723V24.8926C96.5723 24.4902 96.4844 24.1934 96.3086 24.002C96.1367 23.8066 95.8535 23.709 95.459 23.709C94.8848 23.709 94.457 23.9688 94.1758 24.4883V29H92.752V22.6602H94.0938ZM102.244 29.1172C101.342 29.1172 100.609 28.834 100.047 28.2676C99.4883 27.6973 99.209 26.9395 99.209 25.9941V25.8184C99.209 25.1855 99.3301 24.6211 99.5723 24.125C99.8184 23.625 100.162 23.2363 100.604 22.959C101.045 22.6816 101.537 22.543 102.08 22.543C102.943 22.543 103.609 22.8184 104.078 23.3691C104.551 23.9199 104.787 24.6992 104.787 25.707V26.2812H100.645C100.688 26.8047 100.861 27.2188 101.166 27.5234C101.475 27.8281 101.861 27.9805 102.326 27.9805C102.979 27.9805 103.51 27.7168 103.92 27.1895L104.688 27.9219C104.434 28.3008 104.094 28.5957 103.668 28.8066C103.246 29.0137 102.771 29.1172 102.244 29.1172ZM102.074 23.6855C101.684 23.6855 101.367 23.8223 101.125 24.0957C100.887 24.3691 100.734 24.75 100.668 25.2383H103.381V25.1328C103.35 24.6562 103.223 24.2969 103 24.0547C102.777 23.8086 102.469 23.6855 102.074 23.6855ZM107.412 29H105.988V20H107.412V29Z" fill="white"/>
<g clip-path="url(#clip0)">
<path d="M16.3396 19.8894C11.1298 19.8894 6.8999 15.7654 6.8999 10.6954C6.8999 5.60699 11.1298 1.49219 16.3396 1.49219C21.5493 1.49219 25.7792 5.60699 25.7792 10.6954C25.7792 15.7654 21.5493 19.8894 16.3396 19.8894Z" fill="white"/>
<path fill-rule="evenodd" clip-rule="evenodd" d="M16.3395 2.7598C11.8426 2.7598 8.19703 6.31065 8.19703 10.6954C8.19703 15.0618 11.8426 18.6218 16.3395 18.6218C20.8365 18.6218 24.482 15.0618 24.482 10.6954C24.482 6.31065 20.8365 2.7598 16.3395 2.7598ZM5.60266 10.6954C5.60266 4.90338 10.417 0.224609 16.3395 0.224609C22.262 0.224609 27.0763 4.90338 27.0763 10.6954C27.0763 16.4691 22.262 21.157 16.3395 21.157C10.417 21.157 5.60266 16.4691 5.60266 10.6954Z" fill="#E37F49"/>
<path d="M9.49524 18.5916L16.3317 19.4366L23.1775 18.5916L19.7499 25.2958L16.3317 32.2254L12.9135 25.5211L9.49524 18.5916Z" fill="#E37F49"/>
<path d="M17.649 6.00198H17.6585H17.6679H17.6773V6.01117H17.6867H17.6962L17.7056 6.02035L17.715 6.02954H17.7244H17.7338V6.03872H17.7433V6.04791L17.7527 6.05709L17.7621 6.06628L17.7715 6.07546V6.08465V6.09383V6.10302H17.7809V6.1122V6.12138V6.13057H17.7904V6.13975V6.14894V6.15812V9.28097H21.0029H21.0123L21.0217 9.29015H21.0311H21.0405H21.05V9.29934H21.0594H21.0688V9.30852H21.0782H21.0876V9.31771H21.0971V9.32689H21.1065L21.1159 9.33608L21.1253 9.34526V9.35445H21.1348V9.36363L21.1442 9.37281V9.382V9.39118L21.1536 9.40037V9.40955V9.41874V9.42792V9.43711V9.44629V11.9446V11.9538V11.9629V11.9721V11.9813V11.9905L21.1442 11.9997V12.0089V12.018L21.1348 12.0272V12.0364H21.1253V12.0456L21.1159 12.0548L21.1065 12.064H21.0971V12.0732H21.0876V12.0823H21.0782H21.0688V12.0915H21.0594H21.05V12.1007H21.0405H21.0311H21.0217L21.0123 12.1099H21.0029H17.7904V15.2327V15.2419V15.2511V15.2603H17.7809V15.2695V15.2787V15.2878H17.7715V15.297V15.3062V15.3154H17.7621V15.3246L17.7527 15.3338L17.7433 15.343V15.3521H17.7338H17.7244V15.3613H17.715L17.7056 15.3705L17.6962 15.3797H17.6867H17.6773V15.3889H17.6679H17.6585H17.649H17.6396H17.6302H15.0583H15.0489H15.0395H15.0301H15.0206H15.0112V15.3797H15.0018H14.9924L14.983 15.3705L14.9735 15.3613H14.9641V15.3521H14.9547H14.9453V15.343L14.9359 15.3338L14.9264 15.3246V15.3154H14.917V15.3062V15.297L14.9076 15.2878V15.2787V15.2695V15.2603H14.8982V15.2511V15.2419V15.2327V12.1099H11.6857H11.6762H11.6668V12.1007H11.6574H11.648H11.6386H11.6291V12.0915H11.6197L11.6103 12.0823H11.6009L11.5915 12.0732L11.582 12.064H11.5726V12.0548H11.5632V12.0456L11.5538 12.0364L11.5444 12.0272V12.018H11.5349V12.0089V11.9997V11.9905V11.9813V11.9721L11.5255 11.9629V11.9538V11.9446V9.44629V9.43711V9.42792L11.5349 9.41874V9.40955V9.40037V9.39118V9.382V9.37281H11.5444V9.36363L11.5538 9.35445L11.5632 9.34526V9.33608H11.5726V9.32689H11.582L11.5915 9.31771L11.6009 9.30852H11.6103L11.6197 9.29934H11.6291V9.29015H11.6386H11.648H11.6574H11.6668V9.28097H11.6762H11.6857H14.8982V6.15812V6.14894V6.13975V6.13057L14.9076 6.12138V6.1122V6.10302L14.917 6.09383V6.08465V6.07546L14.9264 6.06628L14.9359 6.05709L14.9453 6.04791V6.03872H14.9547V6.02954H14.9641H14.9735L14.983 6.02035L14.9924 6.01117H15.0018H15.0112V6.00198H15.0206H15.0301H15.0395H15.0489H15.0583V5.9928H17.6302V6.00198H17.6396H17.649Z" fill="#3C90C8"/>
</g>
<defs>
<clipPath id="clip0">
<rect width="24" height="32" fill="white" transform="translate(4)"/>
</clipPath>
</defs>
</svg>
