<svg width="192" height="283" viewBox="0 0 192 283" fill="none" xmlns="http://www.w3.org/2000/svg">
<path d="M96.0277 175.519C49.5745 175.519 11.8574 138.918 11.8574 93.9216C11.8574 48.7621 49.5745 12.2432 96.0277 12.2432C142.481 12.2432 180.198 48.7621 180.198 93.9216C180.198 138.918 142.481 175.519 96.0277 175.519Z" fill="white"/>
<path fill-rule="evenodd" clip-rule="evenodd" d="M96.0279 23.4932C55.9301 23.4932 23.4241 55.007 23.4241 93.9218C23.4241 132.674 55.9301 164.269 96.0279 164.269C136.126 164.269 168.632 132.674 168.632 93.9218C168.632 55.007 136.126 23.4932 96.0279 23.4932ZM0.291016 93.9218C0.291016 42.5175 43.2191 0.993408 96.0279 0.993408C148.837 0.993408 191.765 42.5175 191.765 93.9218C191.765 145.163 148.837 186.769 96.0279 186.769C43.2191 186.769 0.291016 145.163 0.291016 93.9218Z" fill="#E37F49"/>
<path d="M35 164L95.9581 171.5L157 164L126.437 223.5L95.9581 285L65.4791 225.5L35 164Z" fill="#E37F49"/>
<path d="M107.704 52.2678H107.788H107.872H107.956V52.3493H108.04H108.124L108.208 52.4309L108.292 52.5124H108.376H108.46V52.5939H108.544V52.6754L108.628 52.7569L108.712 52.8384L108.796 52.9199V53.0015V53.083V53.1645H108.88V53.246V53.3275V53.409H108.964V53.4906V53.5721V53.6536V81.3688H137.609H137.693L137.777 81.4503H137.861H137.945H138.029V81.5319H138.113H138.197V81.6134H138.281H138.365V81.6949H138.449V81.7764H138.533L138.617 81.8579L138.701 81.9394V82.021H138.785V82.1025L138.869 82.184V82.2655V82.347L138.953 82.4285V82.51V82.5916V82.6731V82.7546V82.8361V105.008V105.09V105.171V105.253V105.334V105.416L138.869 105.497V105.579V105.66L138.785 105.742V105.823H138.701V105.905L138.617 105.986L138.533 106.068H138.449V106.15H138.365V106.231H138.281H138.197V106.313H138.113H138.029V106.394H137.945H137.861H137.777L137.693 106.476H137.609H108.964V134.191V134.272V134.354V134.435H108.88V134.517V134.598V134.68H108.796V134.761V134.843V134.924H108.712V135.006L108.628 135.088L108.544 135.169V135.251H108.46H108.376V135.332H108.292L108.208 135.414L108.124 135.495H108.04H107.956V135.577H107.872H107.788H107.704H107.62H107.536H84.6035H84.5195H84.4355H84.3515H84.2675H84.1835V135.495H84.0995H84.0155L83.9315 135.414L83.8475 135.332H83.7635V135.251H83.6795H83.5955V135.169L83.5115 135.088L83.4275 135.006V134.924H83.3435V134.843V134.761L83.2595 134.68V134.598V134.517V134.435H83.1755V134.354V134.272V134.191V106.476H54.5307H54.4467H54.3627V106.394H54.2787H54.1947H54.1107H54.0267V106.313H53.9427L53.8587 106.231H53.7747L53.6907 106.15L53.6067 106.068H53.5227V105.986H53.4387V105.905L53.3547 105.823L53.2707 105.742V105.66H53.1867V105.579V105.497V105.416V105.334V105.253L53.1027 105.171V105.09V105.008V82.8361V82.7546V82.6731L53.1867 82.5916V82.51V82.4285V82.347V82.2655V82.184H53.2707V82.1025L53.3547 82.021L53.4387 81.9394V81.8579H53.5227V81.7764H53.6067L53.6907 81.6949L53.7747 81.6134H53.8587L53.9427 81.5319H54.0267V81.4503H54.1107H54.1947H54.2787H54.3627V81.3688H54.4467H54.5307H83.1755V53.6536V53.5721V53.4906V53.409L83.2595 53.3275V53.246V53.1645L83.3435 53.083V53.0015V52.9199L83.4275 52.8384L83.5115 52.7569L83.5955 52.6754V52.5939H83.6795V52.5124H83.7635H83.8475L83.9315 52.4309L84.0155 52.3493H84.0995H84.1835V52.2678H84.2675H84.3515H84.4355H84.5195H84.6035V52.1863H107.536V52.2678H107.62H107.704Z" fill="#3C90C8"/>
</svg>
