<svg width="79" height="33" viewBox="0 0 79 33" fill="none" xmlns="http://www.w3.org/2000/svg">
<path d="M61.9962 0C59.7411 0 57.9195 1.78219 57.8591 3.9921C57.8591 4.03048 57.8481 4.06338 57.8481 4.10177C57.8481 5.39591 58.4627 6.53103 59.4064 7.28777L61.5682 11.4828C61.5682 11.4828 61.9962 12.3163 62.4242 11.4828L64.586 7.28229C65.5298 6.53103 66.1388 5.39043 66.1388 4.10177C66.1388 1.83702 64.2842 0 61.9962 0ZM61.9962 7.10133C60.3227 7.10133 58.9675 5.75783 58.9675 4.10177C58.9675 2.44571 60.3227 1.1077 61.9962 1.1077C63.6697 1.1077 65.025 2.45119 65.025 4.10177C65.025 5.75235 63.6642 7.10133 61.9962 7.10133Z" fill="#EC642D"/>
<path d="M61.6944 3.81662H60.5366V4.39241H61.6944L61.6998 5.53301H62.3089L62.3034 4.39241H63.4611V3.81662H62.3034V2.67603H61.6889L61.6944 3.81662Z" fill="white"/>
<path d="M62.704 5.92233H61.3103L61.3048 4.78722H60.1416V3.42179H61.2993L61.2938 2.28119H62.6985V3.42179H63.8562V4.78722H62.6985L62.704 5.92233Z" fill="#0A7EC2"/>
<path d="M0 8.25287V11.4224H6.18371V28.0269H9.63495V11.4224H15.8187V8.25287H0Z" fill="#010101"/>
<path d="M22.2602 21.6275C22.2602 23.9087 20.894 25.2741 18.9461 25.2741C16.9434 25.2741 15.8022 23.9635 15.8022 21.6823V13.3362H12.4332V22.6859C12.4332 26.1076 14.3536 28.0379 17.6677 28.0379C19.9502 28.0379 21.3165 27.1386 22.2602 25.7457V28.0269H25.6292V13.3307H22.2602V21.6275Z" fill="#010101"/>
<path d="M39.8401 20.6789C39.8401 23.6016 37.9472 25.4112 35.6372 25.4112C33.3547 25.4112 31.3465 23.5468 31.3465 20.6789C31.3465 17.8109 33.3492 15.9465 35.6372 15.9465C37.9252 15.9465 39.8401 17.7835 39.8401 20.6789ZM43.2694 20.6789C43.2694 15.782 39.9005 13.0237 36.4218 13.0237C34.057 13.0237 32.5261 14.2465 31.4397 15.7765V13.3253H28.0708V32.4742H31.4397V25.7457C32.4713 27.1112 34.0021 28.0379 36.4218 28.0379C39.9279 28.0379 43.2694 25.5758 43.2694 20.6789Z" fill="#010101"/>
<path d="M54.6657 22.7133C54.6657 24.5503 52.9977 25.8006 50.7645 25.8006C49.1788 25.8006 47.9223 25.0219 47.9223 23.6291V23.5743C47.9223 22.0717 49.1733 21.2108 51.2913 21.2108C52.6026 21.2108 53.7988 21.463 54.6602 21.7975L54.6657 22.7133ZM57.9249 28.027V19.3189C57.9249 15.3926 55.807 13.1115 51.4668 13.1115C49.0746 13.1115 47.4834 13.6105 45.8702 14.3343L46.7865 17.0323C48.1253 16.4784 49.3489 16.1165 50.9895 16.1165C53.3269 16.1165 54.6108 17.2297 54.6108 19.2586V19.6205C53.4695 19.2586 52.3283 19.0064 50.545 19.0064C47.1212 19.0064 44.5863 20.5637 44.5863 23.7388V23.7936C44.5863 26.7438 47.0389 28.0325 49.8208 28.0325C52.0484 28.0325 53.5793 27.4128 54.5834 26.2119V28.0215L57.9249 28.027Z" fill="#010101"/>
<path d="M63.6751 13.3362H60.3062V28.0324H63.6751V13.3362Z" fill="#010101"/>
<path d="M75.7463 22.7133C75.7463 24.5503 74.0782 25.8006 71.8506 25.8006C70.2649 25.8006 69.0084 25.0219 69.0084 23.629V23.5742C69.0084 22.0717 70.2594 21.2107 72.3773 21.2107C73.6887 21.2107 74.8848 21.463 75.7463 21.7975V22.7133ZM79 28.0269V19.3189C79 15.3926 76.882 13.1114 72.5419 13.1114C70.1496 13.1114 68.5585 13.6104 66.9453 14.3342L67.8671 17.0322C69.2059 16.4783 70.4295 16.1164 72.0701 16.1164C74.4075 16.1164 75.6914 17.2296 75.6914 19.2586V19.6205C74.5501 19.2586 73.4088 19.0063 71.6256 19.0063C68.2018 19.0063 65.6669 20.5637 65.6669 23.7387V23.7935C65.6669 26.7437 68.1195 28.0324 70.9013 28.0324C73.129 28.0324 74.6598 27.4127 75.6639 26.2118V28.0214L79 28.0269Z" fill="#010101"/>
</svg>
