<svg width="188" height="32" viewBox="0 0 188 32" fill="none" xmlns="http://www.w3.org/2000/svg">
<path d="M42.3496 11.8301V15H40.8672V6.46875H44.1309C45.084 6.46875 45.8398 6.7168 46.3984 7.21289C46.9609 7.70898 47.2422 8.36523 47.2422 9.18164C47.2422 10.0176 46.9668 10.668 46.416 11.1328C45.8691 11.5977 45.1016 11.8301 44.1133 11.8301H42.3496ZM42.3496 10.6406H44.1309C44.6582 10.6406 45.0605 10.5176 45.3379 10.2715C45.6152 10.0215 45.7539 9.66211 45.7539 9.19336C45.7539 8.73242 45.6133 8.36523 45.332 8.0918C45.0508 7.81445 44.6641 7.67188 44.1719 7.66406H42.3496V10.6406ZM52.123 15C52.0605 14.8789 52.0059 14.6816 51.959 14.4082C51.5059 14.8809 50.9512 15.1172 50.2949 15.1172C49.6582 15.1172 49.1387 14.9355 48.7363 14.5723C48.334 14.209 48.1328 13.7598 48.1328 13.2246C48.1328 12.5488 48.3828 12.0312 48.8828 11.6719C49.3867 11.3086 50.1055 11.127 51.0391 11.127H51.9121V10.7109C51.9121 10.3828 51.8203 10.1211 51.6367 9.92578C51.4531 9.72656 51.1738 9.62695 50.7988 9.62695C50.4746 9.62695 50.209 9.70898 50.002 9.87305C49.7949 10.0332 49.6914 10.2383 49.6914 10.4883H48.2676C48.2676 10.1406 48.3828 9.81641 48.6133 9.51562C48.8438 9.21094 49.1562 8.97266 49.5508 8.80078C49.9492 8.62891 50.3926 8.54297 50.8809 8.54297C51.623 8.54297 52.2148 8.73047 52.6562 9.10547C53.0977 9.47656 53.3242 10 53.3359 10.6758V13.5352C53.3359 14.1055 53.416 14.5605 53.5762 14.9004V15H52.123ZM50.5586 13.9746C50.8398 13.9746 51.1035 13.9062 51.3496 13.7695C51.5996 13.6328 51.7871 13.4492 51.9121 13.2188V12.0234H51.1445C50.6172 12.0234 50.2207 12.1152 49.9551 12.2988C49.6895 12.4824 49.5566 12.7422 49.5566 13.0781C49.5566 13.3516 49.6465 13.5703 49.8262 13.7344C50.0098 13.8945 50.2539 13.9746 50.5586 13.9746ZM57.4316 13.9805C57.7871 13.9805 58.082 13.877 58.3164 13.6699C58.5508 13.4629 58.6758 13.207 58.6914 12.9023H60.0332C60.0176 13.2969 59.8945 13.666 59.6641 14.0098C59.4336 14.3496 59.1211 14.6191 58.7266 14.8184C58.332 15.0176 57.9062 15.1172 57.4492 15.1172C56.5625 15.1172 55.8594 14.8301 55.3398 14.2559C54.8203 13.6816 54.5605 12.8887 54.5605 11.877V11.7305C54.5605 10.7656 54.8184 9.99414 55.334 9.41602C55.8496 8.83398 56.5527 8.54297 57.4434 8.54297C58.1973 8.54297 58.8105 8.76367 59.2832 9.20508C59.7598 9.64258 60.0098 10.2188 60.0332 10.9336H58.6914C58.6758 10.5703 58.5508 10.2715 58.3164 10.0371C58.0859 9.80273 57.791 9.68555 57.4316 9.68555C56.9707 9.68555 56.6152 9.85352 56.3652 10.1895C56.1152 10.5215 55.9883 11.0273 55.9844 11.707V11.9355C55.9844 12.623 56.1074 13.1367 56.3535 13.4766C56.6035 13.8125 56.9629 13.9805 57.4316 13.9805ZM62.623 15H61.1992V8.66016H62.623V15ZM61.1113 7.01367C61.1113 6.79492 61.1797 6.61328 61.3164 6.46875C61.457 6.32422 61.6562 6.25195 61.9141 6.25195C62.1719 6.25195 62.3711 6.32422 62.5117 6.46875C62.6523 6.61328 62.7227 6.79492 62.7227 7.01367C62.7227 7.22852 62.6523 7.4082 62.5117 7.55273C62.3711 7.69336 62.1719 7.76367 61.9141 7.76367C61.6562 7.76367 61.457 7.69336 61.3164 7.55273C61.1797 7.4082 61.1113 7.22852 61.1113 7.01367ZM64.5566 15V9.71484H63.5898V8.66016H64.5566V8.22656C64.5605 7.73047 64.666 7.30469 64.873 6.94922C65.0801 6.59375 65.373 6.32617 65.752 6.14648C66.1309 5.9668 66.5859 5.87695 67.1172 5.87695C67.4297 5.87695 67.7285 5.91016 68.0137 5.97656C68.3027 6.04297 68.6016 6.12695 68.9102 6.22852L68.6934 7.40625C68.1543 7.21875 67.6621 7.125 67.2168 7.125C66.7832 7.125 66.4688 7.2207 66.2734 7.41211C66.0781 7.59961 65.9805 7.88281 65.9805 8.26172V8.66016H67.2285V9.71484H65.9805V15H64.5566ZM69.584 15H68.1602V8.66016H69.584V15ZM73.7676 13.9805C74.123 13.9805 74.418 13.877 74.6523 13.6699C74.8867 13.4629 75.0117 13.207 75.0273 12.9023H76.3691C76.3535 13.2969 76.2305 13.666 76 14.0098C75.7695 14.3496 75.457 14.6191 75.0625 14.8184C74.668 15.0176 74.2422 15.1172 73.7852 15.1172C72.8984 15.1172 72.1953 14.8301 71.6758 14.2559C71.1562 13.6816 70.8965 12.8887 70.8965 11.877V11.7305C70.8965 10.7656 71.1543 9.99414 71.6699 9.41602C72.1855 8.83398 72.8887 8.54297 73.7793 8.54297C74.5332 8.54297 75.1465 8.76367 75.6191 9.20508C76.0957 9.64258 76.3457 10.2188 76.3691 10.9336H75.0273C75.0117 10.5703 74.8867 10.2715 74.6523 10.0371C74.4219 9.80273 74.127 9.68555 73.7676 9.68555C73.3066 9.68555 72.9512 9.85352 72.7012 10.1895C72.4512 10.5215 72.3242 11.0273 72.3203 11.707V11.9355C72.3203 12.623 72.4434 13.1367 72.6895 13.4766C72.9395 13.8125 73.2988 13.9805 73.7676 13.9805ZM85.0293 12.8027C85.0293 12.4277 84.8965 12.1387 84.6309 11.9355C84.3691 11.7324 83.8945 11.5273 83.207 11.3203C82.5195 11.1133 81.9727 10.8828 81.5664 10.6289C80.7891 10.1406 80.4004 9.50391 80.4004 8.71875C80.4004 8.03125 80.6797 7.46484 81.2383 7.01953C81.8008 6.57422 82.5293 6.35156 83.4238 6.35156C84.0176 6.35156 84.5469 6.46094 85.0117 6.67969C85.4766 6.89844 85.8418 7.21094 86.1074 7.61719C86.373 8.01953 86.5059 8.4668 86.5059 8.95898H85.0293C85.0293 8.51367 84.8887 8.16602 84.6074 7.91602C84.3301 7.66211 83.9316 7.53516 83.4121 7.53516C82.9277 7.53516 82.5508 7.63867 82.2812 7.8457C82.0156 8.05273 81.8828 8.3418 81.8828 8.71289C81.8828 9.02539 82.0273 9.28711 82.3164 9.49805C82.6055 9.70508 83.082 9.9082 83.7461 10.1074C84.4102 10.3027 84.9434 10.5273 85.3457 10.7812C85.748 11.0312 86.043 11.3203 86.2305 11.6484C86.418 11.9727 86.5117 12.3535 86.5117 12.791C86.5117 13.502 86.2383 14.0684 85.6914 14.4902C85.1484 14.9082 84.4102 15.1172 83.4766 15.1172C82.8594 15.1172 82.291 15.0039 81.7715 14.7773C81.2559 14.5469 80.8535 14.2305 80.5645 13.8281C80.2793 13.4258 80.1367 12.957 80.1367 12.4219H81.6191C81.6191 12.9062 81.7793 13.2812 82.0996 13.5469C82.4199 13.8125 82.8789 13.9453 83.4766 13.9453C83.9922 13.9453 84.3789 13.8418 84.6367 13.6348C84.8984 13.4238 85.0293 13.1465 85.0293 12.8027ZM89.8926 12.9609L91.1816 8.66016H92.6992L90.1797 15.9609C89.793 17.0273 89.1367 17.5605 88.2109 17.5605C88.0039 17.5605 87.7754 17.5254 87.5254 17.4551V16.3535L87.7949 16.3711C88.1543 16.3711 88.4238 16.3047 88.6035 16.1719C88.7871 16.043 88.9316 15.8242 89.0371 15.5156L89.2422 14.9707L87.0156 8.66016H88.5508L89.8926 12.9609ZM94.8438 8.66016L94.8848 9.39258C95.3535 8.82617 95.9688 8.54297 96.7305 8.54297C98.0508 8.54297 98.7227 9.29883 98.7461 10.8105V15H97.3223V10.8926C97.3223 10.4902 97.2344 10.1934 97.0586 10.002C96.8867 9.80664 96.6035 9.70898 96.209 9.70898C95.6348 9.70898 95.207 9.96875 94.9258 10.4883V15H93.502V8.66016H94.8438ZM99.9355 11.7832C99.9355 10.8066 100.162 10.0234 100.615 9.43359C101.068 8.83984 101.676 8.54297 102.438 8.54297C103.109 8.54297 103.652 8.77734 104.066 9.24609V6H105.49V15H104.201L104.131 14.3438C103.705 14.8594 103.137 15.1172 102.426 15.1172C101.684 15.1172 101.082 14.8184 100.621 14.2207C100.164 13.623 99.9355 12.8105 99.9355 11.7832ZM101.359 11.9062C101.359 12.5508 101.482 13.0547 101.729 13.418C101.979 13.7773 102.332 13.957 102.789 13.957C103.371 13.957 103.797 13.6973 104.066 13.1777V10.4707C103.805 9.96289 103.383 9.70898 102.801 9.70898C102.34 9.70898 101.984 9.89258 101.734 10.2598C101.484 10.623 101.359 11.1719 101.359 11.9062ZM110.295 9.96094C110.107 9.92969 109.914 9.91406 109.715 9.91406C109.062 9.91406 108.623 10.1641 108.396 10.6641V15H106.973V8.66016H108.332L108.367 9.36914C108.711 8.81836 109.188 8.54297 109.797 8.54297C110 8.54297 110.168 8.57031 110.301 8.625L110.295 9.96094ZM110.717 11.7715C110.717 11.1504 110.84 10.5918 111.086 10.0957C111.332 9.5957 111.678 9.21289 112.123 8.94727C112.568 8.67773 113.08 8.54297 113.658 8.54297C114.514 8.54297 115.207 8.81836 115.738 9.36914C116.273 9.91992 116.562 10.6504 116.605 11.5605L116.611 11.8945C116.611 12.5195 116.49 13.0781 116.248 13.5703C116.01 14.0625 115.666 14.4434 115.217 14.7129C114.771 14.9824 114.256 15.1172 113.67 15.1172C112.775 15.1172 112.059 14.8203 111.52 14.2266C110.984 13.6289 110.717 12.834 110.717 11.8418V11.7715ZM112.141 11.8945C112.141 12.5469 112.275 13.0586 112.545 13.4297C112.814 13.7969 113.189 13.9805 113.67 13.9805C114.15 13.9805 114.523 13.793 114.789 13.418C115.059 13.043 115.193 12.4941 115.193 11.7715C115.193 11.1309 115.055 10.623 114.777 10.248C114.504 9.87305 114.131 9.68555 113.658 9.68555C113.193 9.68555 112.824 9.87109 112.551 10.2422C112.277 10.6094 112.141 11.1602 112.141 11.8945ZM119.154 8.66016L119.195 9.32227C119.641 8.80273 120.25 8.54297 121.023 8.54297C121.871 8.54297 122.451 8.86719 122.764 9.51562C123.225 8.86719 123.873 8.54297 124.709 8.54297C125.408 8.54297 125.928 8.73633 126.268 9.12305C126.611 9.50977 126.787 10.0801 126.795 10.834V15H125.371V10.875C125.371 10.4727 125.283 10.1777 125.107 9.99023C124.932 9.80273 124.641 9.70898 124.234 9.70898C123.91 9.70898 123.645 9.79688 123.438 9.97266C123.234 10.1445 123.092 10.3711 123.01 10.6523L123.016 15H121.592V10.8281C121.572 10.082 121.191 9.70898 120.449 9.70898C119.879 9.70898 119.475 9.94141 119.236 10.4062V15H117.812V8.66016H119.154ZM129.771 15H128.348V8.66016H129.771V15ZM128.26 7.01367C128.26 6.79492 128.328 6.61328 128.465 6.46875C128.605 6.32422 128.805 6.25195 129.062 6.25195C129.32 6.25195 129.52 6.32422 129.66 6.46875C129.801 6.61328 129.871 6.79492 129.871 7.01367C129.871 7.22852 129.801 7.4082 129.66 7.55273C129.52 7.69336 129.32 7.76367 129.062 7.76367C128.805 7.76367 128.605 7.69336 128.465 7.55273C128.328 7.4082 128.26 7.22852 128.26 7.01367ZM133.932 13.9805C134.287 13.9805 134.582 13.877 134.816 13.6699C135.051 13.4629 135.176 13.207 135.191 12.9023H136.533C136.518 13.2969 136.395 13.666 136.164 14.0098C135.934 14.3496 135.621 14.6191 135.227 14.8184C134.832 15.0176 134.406 15.1172 133.949 15.1172C133.062 15.1172 132.359 14.8301 131.84 14.2559C131.32 13.6816 131.061 12.8887 131.061 11.877V11.7305C131.061 10.7656 131.318 9.99414 131.834 9.41602C132.35 8.83398 133.053 8.54297 133.943 8.54297C134.697 8.54297 135.311 8.76367 135.783 9.20508C136.26 9.64258 136.51 10.2188 136.533 10.9336H135.191C135.176 10.5703 135.051 10.2715 134.816 10.0371C134.586 9.80273 134.291 9.68555 133.932 9.68555C133.471 9.68555 133.115 9.85352 132.865 10.1895C132.615 10.5215 132.488 11.0273 132.484 11.707V11.9355C132.484 12.623 132.607 13.1367 132.854 13.4766C133.104 13.8125 133.463 13.9805 133.932 13.9805ZM45.3262 26.8027C45.3262 26.4277 45.1934 26.1387 44.9277 25.9355C44.666 25.7324 44.1914 25.5273 43.5039 25.3203C42.8164 25.1133 42.2695 24.8828 41.8633 24.6289C41.0859 24.1406 40.6973 23.5039 40.6973 22.7188C40.6973 22.0312 40.9766 21.4648 41.5352 21.0195C42.0977 20.5742 42.8262 20.3516 43.7207 20.3516C44.3145 20.3516 44.8438 20.4609 45.3086 20.6797C45.7734 20.8984 46.1387 21.2109 46.4043 21.6172C46.6699 22.0195 46.8027 22.4668 46.8027 22.959H45.3262C45.3262 22.5137 45.1855 22.166 44.9043 21.916C44.627 21.6621 44.2285 21.5352 43.709 21.5352C43.2246 21.5352 42.8477 21.6387 42.5781 21.8457C42.3125 22.0527 42.1797 22.3418 42.1797 22.7129C42.1797 23.0254 42.3242 23.2871 42.6133 23.498C42.9023 23.7051 43.3789 23.9082 44.043 24.1074C44.707 24.3027 45.2402 24.5273 45.6426 24.7812C46.0449 25.0312 46.3398 25.3203 46.5273 25.6484C46.7148 25.9727 46.8086 26.3535 46.8086 26.791C46.8086 27.502 46.5352 28.0684 45.9883 28.4902C45.4453 28.9082 44.707 29.1172 43.7734 29.1172C43.1562 29.1172 42.5879 29.0039 42.0684 28.7773C41.5527 28.5469 41.1504 28.2305 40.8613 27.8281C40.5762 27.4258 40.4336 26.957 40.4336 26.4219H41.916C41.916 26.9062 42.0762 27.2812 42.3965 27.5469C42.7168 27.8125 43.1758 27.9453 43.7734 27.9453C44.2891 27.9453 44.6758 27.8418 44.9336 27.6348C45.1953 27.4238 45.3262 27.1465 45.3262 26.8027ZM51.8125 28.3789C51.3945 28.8711 50.8008 29.1172 50.0312 29.1172C49.3438 29.1172 48.8223 28.916 48.4668 28.5137C48.1152 28.1113 47.9395 27.5293 47.9395 26.7676V22.6602H49.3633V26.75C49.3633 27.5547 49.6973 27.957 50.3652 27.957C51.0566 27.957 51.5234 27.709 51.7656 27.2129V22.6602H53.1895V29H51.8477L51.8125 28.3789ZM57.959 23.9609C57.7715 23.9297 57.5781 23.9141 57.3789 23.9141C56.7266 23.9141 56.2871 24.1641 56.0605 24.6641V29H54.6367V22.6602H55.9961L56.0312 23.3691C56.375 22.8184 56.8516 22.543 57.4609 22.543C57.6641 22.543 57.832 22.5703 57.9648 22.625L57.959 23.9609ZM61.1992 27.1953L62.541 22.6602H64.0117L61.8145 29H60.5781L58.3633 22.6602H59.8398L61.1992 27.1953ZM67.6152 29.1172C66.7129 29.1172 65.9805 28.834 65.418 28.2676C64.8594 27.6973 64.5801 26.9395 64.5801 25.9941V25.8184C64.5801 25.1855 64.7012 24.6211 64.9434 24.125C65.1895 23.625 65.5332 23.2363 65.9746 22.959C66.416 22.6816 66.9082 22.543 67.4512 22.543C68.3145 22.543 68.9805 22.8184 69.4492 23.3691C69.9219 23.9199 70.1582 24.6992 70.1582 25.707V26.2812H66.0156C66.0586 26.8047 66.2324 27.2188 66.5371 27.5234C66.8457 27.8281 67.2324 27.9805 67.6973 27.9805C68.3496 27.9805 68.8809 27.7168 69.291 27.1895L70.0586 27.9219C69.8047 28.3008 69.4648 28.5957 69.0391 28.8066C68.6172 29.0137 68.1426 29.1172 67.6152 29.1172ZM67.4453 23.6855C67.0547 23.6855 66.7383 23.8223 66.4961 24.0957C66.2578 24.3691 66.1055 24.75 66.0391 25.2383H68.752V25.1328C68.7207 24.6562 68.5938 24.2969 68.3711 24.0547C68.1484 23.8086 67.8398 23.6855 67.4453 23.6855ZM72.7832 29H71.3594V22.6602H72.7832V29ZM71.2715 21.0137C71.2715 20.7949 71.3398 20.6133 71.4766 20.4688C71.6172 20.3242 71.8164 20.252 72.0742 20.252C72.332 20.252 72.5312 20.3242 72.6719 20.4688C72.8125 20.6133 72.8828 20.7949 72.8828 21.0137C72.8828 21.2285 72.8125 21.4082 72.6719 21.5527C72.5312 21.6934 72.332 21.7637 72.0742 21.7637C71.8164 21.7637 71.6172 21.6934 71.4766 21.5527C71.3398 21.4082 71.2715 21.2285 71.2715 21.0137ZM75.8535 29H74.4297V20H75.8535V29ZM78.9238 29H77.5V20H78.9238V29ZM84.2676 29C84.2051 28.8789 84.1504 28.6816 84.1035 28.4082C83.6504 28.8809 83.0957 29.1172 82.4395 29.1172C81.8027 29.1172 81.2832 28.9355 80.8809 28.5723C80.4785 28.209 80.2773 27.7598 80.2773 27.2246C80.2773 26.5488 80.5273 26.0312 81.0273 25.6719C81.5312 25.3086 82.25 25.127 83.1836 25.127H84.0566V24.7109C84.0566 24.3828 83.9648 24.1211 83.7812 23.9258C83.5977 23.7266 83.3184 23.627 82.9434 23.627C82.6191 23.627 82.3535 23.709 82.1465 23.873C81.9395 24.0332 81.8359 24.2383 81.8359 24.4883H80.4121C80.4121 24.1406 80.5273 23.8164 80.7578 23.5156C80.9883 23.2109 81.3008 22.9727 81.6953 22.8008C82.0938 22.6289 82.5371 22.543 83.0254 22.543C83.7676 22.543 84.3594 22.7305 84.8008 23.1055C85.2422 23.4766 85.4688 24 85.4805 24.6758V27.5352C85.4805 28.1055 85.5605 28.5605 85.7207 28.9004V29H84.2676ZM82.7031 27.9746C82.9844 27.9746 83.248 27.9062 83.4941 27.7695C83.7441 27.6328 83.9316 27.4492 84.0566 27.2188V26.0234H83.2891C82.7617 26.0234 82.3652 26.1152 82.0996 26.2988C81.834 26.4824 81.7012 26.7422 81.7012 27.0781C81.7012 27.3516 81.791 27.5703 81.9707 27.7344C82.1543 27.8945 82.3984 27.9746 82.7031 27.9746ZM88.293 22.6602L88.334 23.3926C88.8027 22.8262 89.418 22.543 90.1797 22.543C91.5 22.543 92.1719 23.2988 92.1953 24.8105V29H90.7715V24.8926C90.7715 24.4902 90.6836 24.1934 90.5078 24.002C90.3359 23.8066 90.0527 23.709 89.6582 23.709C89.084 23.709 88.6562 23.9688 88.375 24.4883V29H86.9512V22.6602H88.293ZM96.2559 27.9805C96.6113 27.9805 96.9062 27.877 97.1406 27.6699C97.375 27.4629 97.5 27.207 97.5156 26.9023H98.8574C98.8418 27.2969 98.7188 27.666 98.4883 28.0098C98.2578 28.3496 97.9453 28.6191 97.5508 28.8184C97.1562 29.0176 96.7305 29.1172 96.2734 29.1172C95.3867 29.1172 94.6836 28.8301 94.1641 28.2559C93.6445 27.6816 93.3848 26.8887 93.3848 25.877V25.7305C93.3848 24.7656 93.6426 23.9941 94.1582 23.416C94.6738 22.834 95.377 22.543 96.2676 22.543C97.0215 22.543 97.6348 22.7637 98.1074 23.2051C98.584 23.6426 98.834 24.2188 98.8574 24.9336H97.5156C97.5 24.5703 97.375 24.2715 97.1406 24.0371C96.9102 23.8027 96.6152 23.6855 96.2559 23.6855C95.7949 23.6855 95.4395 23.8535 95.1895 24.1895C94.9395 24.5215 94.8125 25.0273 94.8086 25.707V25.9355C94.8086 26.623 94.9316 27.1367 95.1777 27.4766C95.4277 27.8125 95.7871 27.9805 96.2559 27.9805ZM102.725 29.1172C101.822 29.1172 101.09 28.834 100.527 28.2676C99.9688 27.6973 99.6895 26.9395 99.6895 25.9941V25.8184C99.6895 25.1855 99.8105 24.6211 100.053 24.125C100.299 23.625 100.643 23.2363 101.084 22.959C101.525 22.6816 102.018 22.543 102.561 22.543C103.424 22.543 104.09 22.8184 104.559 23.3691C105.031 23.9199 105.268 24.6992 105.268 25.707V26.2812H101.125C101.168 26.8047 101.342 27.2188 101.646 27.5234C101.955 27.8281 102.342 27.9805 102.807 27.9805C103.459 27.9805 103.99 27.7168 104.4 27.1895L105.168 27.9219C104.914 28.3008 104.574 28.5957 104.148 28.8066C103.727 29.0137 103.252 29.1172 102.725 29.1172ZM102.555 23.6855C102.164 23.6855 101.848 23.8223 101.605 24.0957C101.367 24.3691 101.215 24.75 101.148 25.2383H103.861V25.1328C103.83 24.6562 103.703 24.2969 103.48 24.0547C103.258 23.8086 102.949 23.6855 102.555 23.6855Z" fill="white"/>
<g clip-path="url(#clip0)">
<path fill-rule="evenodd" clip-rule="evenodd" d="M12.1274 16.9261V19.8726H15.9957C18.1036 19.8726 19.8726 18.1036 19.8726 15.9957C19.8726 13.8907 18.1064 12.1246 16.0014 12.1246H15.9986C13.8907 12.1246 12.1246 13.8907 12.1246 15.9986V16.9261H12.1274ZM16.0014 0H16.0043C24.8034 0 32 7.1995 32 15.9957C32 24.7976 24.7976 32 15.9957 32H12.1274V24.7258H15.9957C20.7829 24.7258 24.723 20.7829 24.723 15.9986C24.723 11.2171 20.7829 7.27703 16.0014 7.27703H15.9986C11.2142 7.27703 7.27416 11.2171 7.27416 16.0014V16.929V24.7258V32.0029H0V16.0014C0 7.1995 7.1995 0 16.0014 0Z" fill="white"/>
</g>
<defs>
<clipPath id="clip0">
<rect width="32" height="32" fill="white"/>
</clipPath>
</defs>
</svg>
