<svg width="144" height="30" viewBox="0 0 144 30" fill="none" xmlns="http://www.w3.org/2000/svg">
<path d="M37.916 9.95313V13.123H36.4336V4.5918H39.6973C40.6504 4.5918 41.4062 4.83985 41.9648 5.33594C42.5273 5.83203 42.8086 6.48828 42.8086 7.30469C42.8086 8.14063 42.5332 8.79102 41.9824 9.25586C41.4355 9.72071 40.668 9.95313 39.6797 9.95313H37.916ZM37.916 8.76367H39.6973C40.2246 8.76367 40.627 8.64063 40.9043 8.39453C41.1816 8.14453 41.3203 7.78516 41.3203 7.31641C41.3203 6.85547 41.1797 6.48828 40.8984 6.21485C40.6172 5.9375 40.2305 5.79493 39.7383 5.78711H37.916V8.76367ZM47.6894 13.123C47.6269 13.002 47.5723 12.8047 47.5254 12.5312C47.0723 13.0039 46.5176 13.2402 45.8613 13.2402C45.2246 13.2402 44.7051 13.0586 44.3027 12.6953C43.9004 12.332 43.6992 11.8828 43.6992 11.3477C43.6992 10.6719 43.9492 10.1543 44.4492 9.79493C44.9531 9.43164 45.6719 9.25 46.6055 9.25H47.4785V8.83399C47.4785 8.50586 47.3867 8.24414 47.2031 8.04883C47.0195 7.84961 46.7402 7.75 46.3652 7.75C46.041 7.75 45.7754 7.83203 45.5684 7.9961C45.3613 8.15625 45.2578 8.36133 45.2578 8.61133H43.834C43.834 8.26367 43.9492 7.93946 44.1797 7.63867C44.4102 7.33399 44.7227 7.09571 45.1172 6.92383C45.5156 6.75196 45.959 6.66602 46.4473 6.66602C47.1894 6.66602 47.7812 6.85352 48.2226 7.22852C48.6641 7.59961 48.8906 8.12305 48.9023 8.79883V11.6582C48.9023 12.2285 48.9824 12.6836 49.1426 13.0234V13.123H47.6894ZM46.125 12.0977C46.4062 12.0977 46.6699 12.0293 46.916 11.8926C47.166 11.7559 47.3535 11.5723 47.4785 11.3418V10.1465H46.7109C46.1836 10.1465 45.7871 10.2383 45.5215 10.4219C45.2559 10.6055 45.123 10.8652 45.123 11.2012C45.123 11.4746 45.2129 11.6934 45.3926 11.8574C45.5762 12.0176 45.8203 12.0977 46.125 12.0977ZM52.998 12.1035C53.3535 12.1035 53.6484 12 53.8828 11.793C54.1172 11.5859 54.2422 11.3301 54.2578 11.0254H55.5996C55.584 11.4199 55.4609 11.7891 55.2305 12.1328C55 12.4727 54.6875 12.7422 54.293 12.9414C53.8984 13.1406 53.4726 13.2402 53.0156 13.2402C52.1289 13.2402 51.4258 12.9531 50.9062 12.3789C50.3867 11.8047 50.1269 11.0117 50.1269 10V9.85352C50.1269 8.88867 50.3848 8.11719 50.9004 7.53907C51.416 6.95703 52.1191 6.66602 53.0098 6.66602C53.7637 6.66602 54.3769 6.88672 54.8496 7.32813C55.3262 7.76563 55.5762 8.3418 55.5996 9.05664H54.2578C54.2422 8.69336 54.1172 8.39453 53.8828 8.16016C53.6523 7.92578 53.3574 7.8086 52.998 7.8086C52.5371 7.8086 52.1816 7.97657 51.9316 8.3125C51.6816 8.64453 51.5547 9.15039 51.5508 9.83008V10.0586C51.5508 10.7461 51.6738 11.2598 51.9199 11.5996C52.1699 11.9355 52.5293 12.1035 52.998 12.1035ZM58.1894 13.123H56.7656V6.78321H58.1894V13.123ZM56.6777 5.13672C56.6777 4.91797 56.7461 4.73633 56.8828 4.5918C57.0234 4.44727 57.2226 4.375 57.4805 4.375C57.7383 4.375 57.9375 4.44727 58.0781 4.5918C58.2187 4.73633 58.2891 4.91797 58.2891 5.13672C58.2891 5.35157 58.2187 5.53125 58.0781 5.67578C57.9375 5.81641 57.7383 5.88672 57.4805 5.88672C57.2226 5.88672 57.0234 5.81641 56.8828 5.67578C56.7461 5.53125 56.6777 5.35157 56.6777 5.13672ZM60.123 13.123V7.83789H59.1562V6.78321H60.123V6.34961C60.1269 5.85352 60.2324 5.42774 60.4394 5.07227C60.6465 4.7168 60.9394 4.44922 61.3184 4.26953C61.6973 4.08984 62.1523 4 62.6836 4C62.9961 4 63.2949 4.0332 63.5801 4.09961C63.8691 4.16602 64.168 4.25 64.4766 4.35157L64.2598 5.5293C63.7207 5.3418 63.2285 5.24805 62.7832 5.24805C62.3496 5.24805 62.0352 5.34375 61.8398 5.53516C61.6445 5.72266 61.5469 6.00586 61.5469 6.38477V6.78321H62.7949V7.83789H61.5469V13.123H60.123ZM65.1504 13.123H63.7266V6.78321H65.1504V13.123ZM69.334 12.1035C69.6894 12.1035 69.9844 12 70.2187 11.793C70.4531 11.5859 70.5781 11.3301 70.5937 11.0254H71.9355C71.9199 11.4199 71.7969 11.7891 71.5664 12.1328C71.3359 12.4727 71.0234 12.7422 70.6289 12.9414C70.2344 13.1406 69.8086 13.2402 69.3516 13.2402C68.4648 13.2402 67.7617 12.9531 67.2422 12.3789C66.7226 11.8047 66.4629 11.0117 66.4629 10V9.85352C66.4629 8.88867 66.7207 8.11719 67.2363 7.53907C67.7519 6.95703 68.4551 6.66602 69.3457 6.66602C70.0996 6.66602 70.7129 6.88672 71.1855 7.32813C71.6621 7.76563 71.9121 8.3418 71.9355 9.05664H70.5937C70.5781 8.69336 70.4531 8.39453 70.2187 8.16016C69.9883 7.92578 69.6934 7.8086 69.334 7.8086C68.873 7.8086 68.5176 7.97657 68.2676 8.3125C68.0176 8.64453 67.8906 9.15039 67.8867 9.83008V10.0586C67.8867 10.7461 68.0098 11.2598 68.2559 11.5996C68.5059 11.9355 68.8652 12.1035 69.334 12.1035ZM80.5957 10.9258C80.5957 10.5508 80.4629 10.2617 80.1973 10.0586C79.9355 9.85547 79.4609 9.65039 78.7734 9.44336C78.0859 9.23633 77.5391 9.00586 77.1328 8.75196C76.3555 8.26367 75.9668 7.62696 75.9668 6.8418C75.9668 6.1543 76.2461 5.58789 76.8047 5.14258C77.3672 4.69727 78.0957 4.47461 78.9902 4.47461C79.584 4.47461 80.1133 4.58399 80.5781 4.80274C81.043 5.02149 81.4082 5.33399 81.6738 5.74024C81.9394 6.14258 82.0723 6.58985 82.0723 7.08203H80.5957C80.5957 6.63672 80.4551 6.28907 80.1738 6.03907C79.8965 5.78516 79.498 5.65821 78.9785 5.65821C78.4941 5.65821 78.1172 5.76172 77.8476 5.96875C77.582 6.17578 77.4492 6.46485 77.4492 6.83594C77.4492 7.14844 77.5937 7.41016 77.8828 7.6211C78.1719 7.82813 78.6484 8.03125 79.3125 8.23047C79.9766 8.42578 80.5098 8.65039 80.9121 8.9043C81.3144 9.1543 81.6094 9.44336 81.7969 9.77149C81.9844 10.0957 82.0781 10.4766 82.0781 10.9141C82.0781 11.625 81.8047 12.1914 81.2578 12.6133C80.7148 13.0312 79.9766 13.2402 79.043 13.2402C78.4258 13.2402 77.8574 13.1269 77.3379 12.9004C76.8223 12.6699 76.4199 12.3535 76.1309 11.9512C75.8457 11.5488 75.7031 11.0801 75.7031 10.5449H77.1855C77.1855 11.0293 77.3457 11.4043 77.666 11.6699C77.9863 11.9355 78.4453 12.0684 79.043 12.0684C79.5586 12.0684 79.9453 11.9648 80.2031 11.7578C80.4648 11.5469 80.5957 11.2695 80.5957 10.9258ZM85.459 11.084L86.748 6.78321H88.2656L85.7461 14.0839C85.3594 15.1503 84.7031 15.6835 83.7773 15.6835C83.5703 15.6835 83.3418 15.6484 83.0918 15.5781V14.4765L83.3613 14.4941C83.7207 14.4941 83.9902 14.4277 84.1699 14.2949C84.3535 14.166 84.498 13.9472 84.6035 13.6386L84.8086 13.0937L82.582 6.78321H84.1172L85.459 11.084ZM90.4102 6.78321L90.4512 7.51563C90.9199 6.94922 91.5352 6.66602 92.2969 6.66602C93.6172 6.66602 94.2891 7.42188 94.3125 8.9336V13.123H92.8887V9.01563C92.8887 8.61328 92.8008 8.31641 92.625 8.125C92.4531 7.92969 92.1699 7.83203 91.7754 7.83203C91.2012 7.83203 90.7734 8.0918 90.4922 8.61133V13.123H89.0684V6.78321H90.4102ZM95.5019 9.90625C95.5019 8.92969 95.7285 8.14649 96.1816 7.55664C96.6348 6.96289 97.2422 6.66602 98.0039 6.66602C98.6758 6.66602 99.2187 6.90039 99.6328 7.36914V4.12305H101.057V13.123H99.7676L99.6973 12.4668C99.2715 12.9824 98.7031 13.2402 97.9922 13.2402C97.25 13.2402 96.6484 12.9414 96.1875 12.3437C95.7305 11.7461 95.5019 10.9336 95.5019 9.90625ZM96.9258 10.0293C96.9258 10.6738 97.0488 11.1777 97.2949 11.541C97.5449 11.9004 97.8984 12.0801 98.3555 12.0801C98.9375 12.0801 99.3633 11.8203 99.6328 11.3008V8.59375C99.3711 8.08594 98.9492 7.83203 98.3672 7.83203C97.9062 7.83203 97.5508 8.01563 97.3008 8.38282C97.0508 8.7461 96.9258 9.29493 96.9258 10.0293ZM105.861 8.08399C105.674 8.05274 105.481 8.03711 105.281 8.03711C104.629 8.03711 104.189 8.28711 103.963 8.78711V13.123H102.539V6.78321H103.898L103.934 7.49219C104.277 6.94141 104.754 6.66602 105.363 6.66602C105.566 6.66602 105.734 6.69336 105.867 6.74805L105.861 8.08399ZM106.283 9.89453C106.283 9.27344 106.406 8.71485 106.652 8.21875C106.898 7.71875 107.244 7.33594 107.689 7.07032C108.135 6.80078 108.647 6.66602 109.225 6.66602C110.08 6.66602 110.773 6.94141 111.305 7.49219C111.84 8.04297 112.129 8.77344 112.172 9.6836L112.178 10.0176C112.178 10.6426 112.057 11.2012 111.814 11.6934C111.576 12.1855 111.232 12.5664 110.783 12.8359C110.338 13.1055 109.822 13.2402 109.236 13.2402C108.342 13.2402 107.625 12.9434 107.086 12.3496C106.551 11.752 106.283 10.957 106.283 9.96485V9.89453ZM107.707 10.0176C107.707 10.6699 107.842 11.1816 108.111 11.5527C108.381 11.9199 108.756 12.1035 109.236 12.1035C109.717 12.1035 110.09 11.916 110.356 11.541C110.625 11.166 110.76 10.6172 110.76 9.89453C110.76 9.25391 110.621 8.7461 110.344 8.3711C110.07 7.9961 109.697 7.8086 109.225 7.8086C108.76 7.8086 108.391 7.99414 108.117 8.36524C107.844 8.73243 107.707 9.28321 107.707 10.0176ZM114.721 6.78321L114.762 7.44532C115.207 6.92578 115.816 6.66602 116.59 6.66602C117.438 6.66602 118.018 6.99024 118.33 7.63867C118.791 6.99024 119.439 6.66602 120.275 6.66602C120.975 6.66602 121.494 6.85938 121.834 7.2461C122.178 7.63282 122.354 8.20313 122.361 8.95703V13.123H120.938V8.99805C120.938 8.59571 120.85 8.30078 120.674 8.11328C120.498 7.92578 120.207 7.83203 119.801 7.83203C119.477 7.83203 119.211 7.91993 119.004 8.09571C118.801 8.26758 118.658 8.49414 118.576 8.77539L118.582 13.123H117.158V8.95117C117.139 8.20508 116.758 7.83203 116.016 7.83203C115.445 7.83203 115.041 8.06446 114.803 8.5293V13.123H113.379V6.78321H114.721ZM125.338 13.123H123.914V6.78321H125.338V13.123ZM123.826 5.13672C123.826 4.91797 123.895 4.73633 124.031 4.5918C124.172 4.44727 124.371 4.375 124.629 4.375C124.887 4.375 125.086 4.44727 125.227 4.5918C125.367 4.73633 125.438 4.91797 125.438 5.13672C125.438 5.35157 125.367 5.53125 125.227 5.67578C125.086 5.81641 124.887 5.88672 124.629 5.88672C124.371 5.88672 124.172 5.81641 124.031 5.67578C123.895 5.53125 123.826 5.35157 123.826 5.13672ZM129.498 12.1035C129.854 12.1035 130.148 12 130.383 11.793C130.617 11.5859 130.742 11.3301 130.758 11.0254H132.1C132.084 11.4199 131.961 11.7891 131.731 12.1328C131.5 12.4727 131.188 12.7422 130.793 12.9414C130.398 13.1406 129.973 13.2402 129.516 13.2402C128.629 13.2402 127.926 12.9531 127.406 12.3789C126.887 11.8047 126.627 11.0117 126.627 10V9.85352C126.627 8.88867 126.885 8.11719 127.4 7.53907C127.916 6.95703 128.619 6.66602 129.51 6.66602C130.264 6.66602 130.877 6.88672 131.35 7.32813C131.826 7.76563 132.076 8.3418 132.1 9.05664H130.758C130.742 8.69336 130.617 8.39453 130.383 8.16016C130.152 7.92578 129.857 7.8086 129.498 7.8086C129.037 7.8086 128.682 7.97657 128.432 8.3125C128.182 8.64453 128.055 9.15039 128.051 9.83008V10.0586C128.051 10.7461 128.174 11.2598 128.42 11.5996C128.67 11.9355 129.029 12.1035 129.498 12.1035ZM40.8926 24.9257C40.8926 24.5507 40.7598 24.2617 40.4941 24.0585C40.2324 23.8554 39.7578 23.6503 39.0703 23.4433C38.3828 23.2363 37.8359 23.0058 37.4297 22.7519C36.6523 22.2636 36.2637 21.6269 36.2637 20.8418C36.2637 20.1542 36.543 19.5878 37.1016 19.1425C37.6641 18.6972 38.3926 18.4746 39.2871 18.4746C39.8809 18.4746 40.4102 18.5839 40.875 18.8027C41.3398 19.0214 41.7051 19.3339 41.9707 19.7402C42.2363 20.1425 42.3691 20.5898 42.3691 21.082H40.8926C40.8926 20.6367 40.752 20.289 40.4707 20.039C40.1934 19.7851 39.7949 19.6582 39.2754 19.6582C38.791 19.6582 38.4141 19.7617 38.1445 19.9687C37.8789 20.1757 37.7461 20.4648 37.7461 20.8359C37.7461 21.1484 37.8906 21.4101 38.1797 21.621C38.4687 21.8281 38.9453 22.0312 39.6094 22.2304C40.2734 22.4257 40.8066 22.6503 41.209 22.9042C41.6113 23.1542 41.9062 23.4433 42.0937 23.7714C42.2812 24.0957 42.375 24.4765 42.375 24.914C42.375 25.625 42.1016 26.1914 41.5547 26.6132C41.0117 27.0312 40.2734 27.2402 39.3398 27.2402C38.7227 27.2402 38.1543 27.1269 37.6348 26.9003C37.1191 26.6699 36.7168 26.3535 36.4277 25.9511C36.1426 25.5488 36 25.08 36 24.5449H37.4824C37.4824 25.0292 37.6426 25.4042 37.9629 25.6699C38.2832 25.9355 38.7422 26.0683 39.3398 26.0683C39.8555 26.0683 40.2422 25.9648 40.5 25.7578C40.7617 25.5468 40.8926 25.2695 40.8926 24.9257ZM47.3789 26.5019C46.9609 26.9941 46.3672 27.2402 45.5976 27.2402C44.9102 27.2402 44.3887 27.039 44.0332 26.6367C43.6816 26.2343 43.5059 25.6523 43.5059 24.8906V20.7832H44.9297V24.873C44.9297 25.6777 45.2637 26.08 45.9316 26.08C46.623 26.08 47.0898 25.832 47.332 25.3359V20.7832H48.7559V27.123H47.4141L47.3789 26.5019ZM53.5254 22.0839C53.3379 22.0527 53.1445 22.0371 52.9453 22.0371C52.293 22.0371 51.8535 22.2871 51.6269 22.7871V27.123H50.2031V20.7832H51.5625L51.5976 21.4921C51.9414 20.9414 52.418 20.666 53.0273 20.666C53.2305 20.666 53.3984 20.6933 53.5312 20.748L53.5254 22.0839ZM56.7656 25.3183L58.1074 20.7832H59.5781L57.3809 27.123H56.1445L53.9297 20.7832H55.4062L56.7656 25.3183ZM63.1816 27.2402C62.2793 27.2402 61.5469 26.957 60.9844 26.3906C60.4258 25.8203 60.1465 25.0625 60.1465 24.1171V23.9414C60.1465 23.3085 60.2676 22.7441 60.5098 22.248C60.7559 21.748 61.0996 21.3593 61.541 21.082C61.9824 20.8046 62.4746 20.666 63.0176 20.666C63.8809 20.666 64.5469 20.9414 65.0156 21.4921C65.4883 22.0429 65.7246 22.8222 65.7246 23.83V24.4042H61.582C61.625 24.9277 61.7988 25.3418 62.1035 25.6464C62.4121 25.9511 62.7988 26.1035 63.2637 26.1035C63.916 26.1035 64.4473 25.8398 64.8574 25.3125L65.625 26.0449C65.3711 26.4238 65.0312 26.7187 64.6055 26.9296C64.1836 27.1367 63.709 27.2402 63.1816 27.2402ZM63.0117 21.8085C62.6211 21.8085 62.3047 21.9453 62.0625 22.2187C61.8242 22.4921 61.6719 22.873 61.6055 23.3613H64.3184V23.2558C64.2871 22.7792 64.1602 22.4199 63.9375 22.1777C63.7148 21.9316 63.4062 21.8085 63.0117 21.8085ZM68.3496 27.123H66.9258V20.7832H68.3496V27.123ZM66.8379 19.1367C66.8379 18.9179 66.9062 18.7363 67.043 18.5918C67.1836 18.4472 67.3828 18.375 67.6406 18.375C67.8984 18.375 68.0976 18.4472 68.2383 18.5918C68.3789 18.7363 68.4492 18.9179 68.4492 19.1367C68.4492 19.3515 68.3789 19.5312 68.2383 19.6757C68.0976 19.8164 67.8984 19.8867 67.6406 19.8867C67.3828 19.8867 67.1836 19.8164 67.043 19.6757C66.9062 19.5312 66.8379 19.3515 66.8379 19.1367ZM71.4199 27.123H69.9961V18.123H71.4199V27.123ZM74.4902 27.123H73.0664V18.123H74.4902V27.123ZM79.834 27.123C79.7715 27.0019 79.7168 26.8046 79.6699 26.5312C79.2168 27.0039 78.6621 27.2402 78.0059 27.2402C77.3691 27.2402 76.8496 27.0585 76.4473 26.6953C76.0449 26.332 75.8437 25.8828 75.8437 25.3476C75.8437 24.6718 76.0937 24.1542 76.5937 23.7949C77.0976 23.4316 77.8164 23.25 78.75 23.25H79.623V22.8339C79.623 22.5058 79.5312 22.2441 79.3476 22.0488C79.1641 21.8496 78.8848 21.75 78.5098 21.75C78.1855 21.75 77.9199 21.832 77.7129 21.996C77.5059 22.1562 77.4023 22.3613 77.4023 22.6113H75.9785C75.9785 22.2636 76.0937 21.9394 76.3242 21.6386C76.5547 21.3339 76.8672 21.0957 77.2617 20.9238C77.6602 20.7519 78.1035 20.666 78.5918 20.666C79.334 20.666 79.9258 20.8535 80.3672 21.2285C80.8086 21.5996 81.0352 22.123 81.0469 22.7988V25.6582C81.0469 26.2285 81.1269 26.6835 81.2871 27.0234V27.123H79.834ZM78.2695 26.0976C78.5508 26.0976 78.8144 26.0292 79.0605 25.8925C79.3105 25.7558 79.498 25.5722 79.623 25.3418V24.1464H78.8555C78.3281 24.1464 77.9316 24.2382 77.666 24.4218C77.4004 24.6054 77.2676 24.8652 77.2676 25.2011C77.2676 25.4746 77.3574 25.6933 77.5371 25.8574C77.7207 26.0175 77.9648 26.0976 78.2695 26.0976ZM83.8594 20.7832L83.9004 21.5156C84.3691 20.9492 84.9844 20.666 85.7461 20.666C87.0664 20.666 87.7383 21.4218 87.7617 22.9335V27.123H86.3379V23.0156C86.3379 22.6132 86.25 22.3164 86.0742 22.125C85.9023 21.9296 85.6191 21.832 85.2246 21.832C84.6504 21.832 84.2226 22.0918 83.9414 22.6113V27.123H82.5176V20.7832H83.8594ZM91.8223 26.1035C92.1777 26.1035 92.4726 26 92.707 25.7929C92.9414 25.5859 93.0664 25.33 93.082 25.0253H94.4238C94.4082 25.4199 94.2852 25.789 94.0547 26.1328C93.8242 26.4726 93.5117 26.7421 93.1172 26.9414C92.7226 27.1406 92.2969 27.2402 91.8398 27.2402C90.9531 27.2402 90.25 26.9531 89.7305 26.3789C89.2109 25.8046 88.9512 25.0117 88.9512 24V23.8535C88.9512 22.8886 89.209 22.1171 89.7246 21.539C90.2402 20.957 90.9434 20.666 91.834 20.666C92.5879 20.666 93.2012 20.8867 93.6738 21.3281C94.1504 21.7656 94.4004 22.3418 94.4238 23.0566H93.082C93.0664 22.6933 92.9414 22.3945 92.707 22.1601C92.4766 21.9257 92.1816 21.8085 91.8223 21.8085C91.3613 21.8085 91.0059 21.9765 90.7559 22.3125C90.5059 22.6445 90.3789 23.1503 90.375 23.83V24.0585C90.375 24.746 90.498 25.2597 90.7441 25.5996C90.9941 25.9355 91.3535 26.1035 91.8223 26.1035ZM98.291 27.2402C97.3887 27.2402 96.6562 26.957 96.0937 26.3906C95.5352 25.8203 95.2559 25.0625 95.2559 24.1171V23.9414C95.2559 23.3085 95.3769 22.7441 95.6191 22.248C95.8652 21.748 96.209 21.3593 96.6504 21.082C97.0918 20.8046 97.584 20.666 98.1269 20.666C98.9902 20.666 99.6562 20.9414 100.125 21.4921C100.598 22.0429 100.834 22.8222 100.834 23.83V24.4042H96.6914C96.7344 24.9277 96.9082 25.3418 97.2129 25.6464C97.5215 25.9511 97.9082 26.1035 98.373 26.1035C99.0254 26.1035 99.5566 25.8398 99.9668 25.3125L100.734 26.0449C100.481 26.4238 100.141 26.7187 99.7148 26.9296C99.293 27.1367 98.8184 27.2402 98.291 27.2402ZM98.1211 21.8085C97.7305 21.8085 97.4141 21.9453 97.1719 22.2187C96.9336 22.4921 96.7812 22.873 96.7148 23.3613H99.4277V23.2558C99.3965 22.7792 99.2695 22.4199 99.0469 22.1777C98.8242 21.9316 98.5156 21.8085 98.1211 21.8085ZM109.529 24.9257C109.529 24.5507 109.397 24.2617 109.131 24.0585C108.869 23.8554 108.395 23.6503 107.707 23.4433C107.02 23.2363 106.473 23.0058 106.066 22.7519C105.289 22.2636 104.9 21.6269 104.9 20.8418C104.9 20.1542 105.18 19.5878 105.738 19.1425C106.301 18.6972 107.029 18.4746 107.924 18.4746C108.518 18.4746 109.047 18.5839 109.512 18.8027C109.977 19.0214 110.342 19.3339 110.607 19.7402C110.873 20.1425 111.006 20.5898 111.006 21.082H109.529C109.529 20.6367 109.389 20.289 109.107 20.039C108.83 19.7851 108.432 19.6582 107.912 19.6582C107.428 19.6582 107.051 19.7617 106.781 19.9687C106.516 20.1757 106.383 20.4648 106.383 20.8359C106.383 21.1484 106.527 21.4101 106.816 21.621C107.106 21.8281 107.582 22.0312 108.246 22.2304C108.91 22.4257 109.443 22.6503 109.846 22.9042C110.248 23.1542 110.543 23.4433 110.731 23.7714C110.918 24.0957 111.012 24.4765 111.012 24.914C111.012 25.625 110.738 26.1914 110.191 26.6132C109.648 27.0312 108.91 27.2402 107.977 27.2402C107.359 27.2402 106.791 27.1269 106.272 26.9003C105.756 26.6699 105.354 26.3535 105.064 25.9511C104.779 25.5488 104.637 25.08 104.637 24.5449H106.119C106.119 25.0292 106.279 25.4042 106.6 25.6699C106.92 25.9355 107.379 26.0683 107.977 26.0683C108.492 26.0683 108.879 25.9648 109.137 25.7578C109.398 25.5468 109.529 25.2695 109.529 24.9257ZM114.393 25.0839L115.682 20.7832H117.199L114.68 28.0839C114.293 29.1503 113.637 29.6835 112.711 29.6835C112.504 29.6835 112.275 29.6484 112.025 29.5781V28.4765L112.295 28.4941C112.654 28.4941 112.924 28.4277 113.104 28.2949C113.287 28.166 113.432 27.9472 113.537 27.6386L113.742 27.0937L111.516 20.7832H113.051L114.393 25.0839ZM121.576 25.4003C121.576 25.1464 121.471 24.9531 121.26 24.8203C121.053 24.6875 120.707 24.5703 120.223 24.4687C119.738 24.3671 119.334 24.2382 119.01 24.082C118.299 23.7382 117.943 23.2402 117.943 22.5878C117.943 22.041 118.174 21.5839 118.635 21.2168C119.096 20.8496 119.682 20.666 120.393 20.666C121.15 20.666 121.762 20.8535 122.227 21.2285C122.695 21.6035 122.93 22.0898 122.93 22.6875H121.506C121.506 22.414 121.404 22.1875 121.201 22.0078C120.998 21.8242 120.729 21.7324 120.393 21.7324C120.08 21.7324 119.824 21.8046 119.625 21.9492C119.43 22.0937 119.332 22.2871 119.332 22.5292C119.332 22.748 119.424 22.9179 119.607 23.039C119.791 23.1601 120.162 23.2832 120.721 23.4082C121.279 23.5292 121.717 23.6757 122.033 23.8476C122.354 24.0156 122.59 24.2187 122.742 24.457C122.898 24.6953 122.977 24.9843 122.977 25.3242C122.977 25.8945 122.74 26.3574 122.268 26.7128C121.795 27.0644 121.176 27.2402 120.41 27.2402C119.891 27.2402 119.428 27.1464 119.022 26.9589C118.615 26.7714 118.299 26.5136 118.072 26.1855C117.846 25.8574 117.732 25.5039 117.732 25.125H119.115C119.135 25.4609 119.262 25.7207 119.496 25.9042C119.731 26.0839 120.041 26.1738 120.428 26.1738C120.803 26.1738 121.088 26.1035 121.283 25.9628C121.479 25.8183 121.576 25.6308 121.576 25.4003ZM126.006 19.2421V20.7832H127.125V21.8378H126.006V25.3769C126.006 25.6191 126.053 25.7949 126.147 25.9042C126.244 26.0097 126.416 26.0625 126.662 26.0625C126.826 26.0625 126.992 26.0429 127.16 26.0039V27.1054C126.836 27.1953 126.523 27.2402 126.223 27.2402C125.129 27.2402 124.582 26.6367 124.582 25.4296V21.8378H123.539V20.7832H124.582V19.2421H126.006ZM131.01 27.2402C130.107 27.2402 129.375 26.957 128.813 26.3906C128.254 25.8203 127.975 25.0625 127.975 24.1171V23.9414C127.975 23.3085 128.096 22.7441 128.338 22.248C128.584 21.748 128.928 21.3593 129.369 21.082C129.811 20.8046 130.303 20.666 130.846 20.666C131.709 20.666 132.375 20.9414 132.844 21.4921C133.316 22.0429 133.553 22.8222 133.553 23.83V24.4042H129.41C129.453 24.9277 129.627 25.3418 129.932 25.6464C130.24 25.9511 130.627 26.1035 131.092 26.1035C131.744 26.1035 132.275 25.8398 132.686 25.3125L133.453 26.0449C133.199 26.4238 132.859 26.7187 132.434 26.9296C132.012 27.1367 131.537 27.2402 131.01 27.2402ZM130.84 21.8085C130.449 21.8085 130.133 21.9453 129.891 22.2187C129.652 22.4921 129.5 22.873 129.434 23.3613H132.147V23.2558C132.115 22.7792 131.988 22.4199 131.766 22.1777C131.543 21.9316 131.234 21.8085 130.84 21.8085ZM136.002 20.7832L136.043 21.4453C136.488 20.9257 137.097 20.666 137.871 20.666C138.718 20.666 139.298 20.9902 139.611 21.6386C140.072 20.9902 140.72 20.666 141.556 20.666C142.255 20.666 142.775 20.8593 143.115 21.246C143.459 21.6328 143.634 22.2031 143.642 22.957V27.123H142.218V22.998C142.218 22.5957 142.13 22.3007 141.955 22.1132C141.779 21.9257 141.488 21.832 141.082 21.832C140.757 21.832 140.492 21.9199 140.285 22.0957C140.082 22.2675 139.939 22.4941 139.857 22.7753L139.863 27.123H138.439V22.9511C138.42 22.205 138.039 21.832 137.296 21.832C136.726 21.832 136.322 22.0644 136.084 22.5292V27.123H134.66V20.7832H136.002Z" fill="white"/>
<g clip-path="url(#clip0)">
<path fill-rule="evenodd" clip-rule="evenodd" d="M11.3695 15.8683V18.6305H14.996C16.9721 18.6305 18.6305 16.9721 18.6305 14.996C18.6305 13.0225 16.9748 11.3668 15.0013 11.3668H14.9987C13.0225 11.3668 11.3668 13.0225 11.3668 14.9987V15.8683H11.3695ZM15.0013 0H15.004C23.2532 0 30 6.74953 30 14.996C30 23.2478 23.2478 30 14.996 30H11.3695V23.1805H14.996C19.484 23.1805 23.1778 19.484 23.1778 14.9987C23.1778 10.516 19.484 6.82222 15.0013 6.82222H14.9987C10.5133 6.82222 6.81953 10.516 6.81953 15.0013V15.871V23.1805V30.0027H0V15.0013C0 6.74953 6.74953 0 15.0013 0Z" fill="#9CC7E9"/>
</g>
<defs>
<clipPath id="clip0">
<rect width="30" height="30" fill="white"/>
</clipPath>
</defs>
</svg>
