<svg xmlns="http://www.w3.org/2000/svg" xmlns:xlink="http://www.w3.org/1999/xlink" version="1.1" x="0px" y="0px" viewBox="0 0 100 100.003" enable-background="new 0 0 100 100.003" xml:space="preserve"><path d="M51.614,22.663c-0.533-0.029-1.067-0.084-1.608-0.084c-4.811,0-9.329,1.247-13.262,3.424C43.776,2.086,61.296,0,61.296,0  S22.584,3.226,22.584,48.385c0.033,0,0.046,0,0.078,0c-0.032,0.534-0.078,1.068-0.078,1.615c0,4.808,1.244,9.327,3.418,13.258  C2.09,56.227,0,38.708,0,38.708s3.229,38.718,48.392,38.718c0-0.039,0-0.059,0-0.091c0.534,0.032,1.067,0.091,1.614,0.091  c4.805,0,9.323-1.25,13.249-3.425c-7.024,23.913-24.544,26.003-24.544,26.003s38.711-3.229,38.711-48.389c-0.032,0-0.052,0-0.085,0  c0.033-0.54,0.085-1.068,0.085-1.615c0-4.811-1.243-9.326-3.425-13.255C97.917,43.773,100,61.292,100,61.292  s-3.223-38.714-48.386-38.714C51.614,22.614,51.614,22.633,51.614,22.663z"></path></svg>