<svg xmlns="http://www.w3.org/2000/svg" xmlns:xlink="http://www.w3.org/1999/xlink" version="1.1" x="0px" y="0px" viewBox="0 0 100 97.629" enable-background="new 0 0 100 97.629" xml:space="preserve"><g><polygon points="55.866,66.478 54.167,72.63 59.723,72.63 56.944,87.908 65.277,87.908 67.328,93.003 99.981,97.629 100,97.629    100,72.63  "></polygon><polygon points="47.223,79.575 41.667,79.575 47.223,67.075 0,67.075 0,92.076 43.376,92.076  "></polygon></g><path d="M77.28,6.2L60.693,4.575V4.573c0.224-2.289-1.451-4.328-3.741-4.553c-2.289-0.225-4.329,1.452-4.553,3.741L52.04,3.726  L34.43,2l-0.678,6.912l1.383,0.135l-5.277,53.86h13.198l11.111-22.222l-2.778,16.667h6.944l-1.33,4.959l14.575,2.083l5.025-51.284  l1.382,0.136l0.677-6.911L77.28,6.2z M48.065,47.994l-9.676-0.949l1.218-12.44l9.677,0.95L48.065,47.994z M50.097,27.26  l-9.675-0.948l1.218-12.44l9.676,0.948L50.097,27.26z M66.034,49.754l-9.676-0.949l1.22-12.44l9.676,0.949L66.034,49.754z   M68.066,29.02l-9.676-0.948l1.219-12.44l9.675,0.948L68.066,29.02z"></path></svg>