<?xml version="1.0" encoding="utf-8"?><!DOCTYPE svg PUBLIC "-//W3C//DTD SVG 1.1//EN" "http://www.w3.org/Graphics/SVG/1.1/DTD/svg11.dtd"><svg version="1.1" xmlns="http://www.w3.org/2000/svg" xmlns:xlink="http://www.w3.org/1999/xlink" x="0px" y="0px" viewBox="0 0 100 95.587" enable-background="new 0 0 100 95.587" xml:space="preserve"><path d="M58.393,27.415c6.295,2.154,14.649,4.696,16.43-5.482c1.404-7.899,11.952-4.971,16.448-5.483
	c8.137-0.931,1.998-16.217-8.225-16.442C72.699-0.217,67.99,4.323,63.863,13.708c-1.961,4.508-3.647,7.912-10.953,5.482
	c-7.306-2.435-12.658,3.566-8.218,10.959c3.934,6.557-0.062,13.7-0.062,13.7h11.021c0,0-0.088-4.071-2.741-8.224
	C49.812,30.793,51.942,25.192,58.393,27.415z"></path><path d="M0,95.587c28.35-20.67,35.432-49.226,35.432-49.226h29.137c0,0,7.081,28.556,35.432,49.226H0z"></path></svg>