<svg width="289" height="404" viewBox="0 0 289 404" fill="none" xmlns="http://www.w3.org/2000/svg">
<path d="M27.1781 232.73C0.850163 310.324 34.2923 320.112 111.78 360.986C221.774 419.004 311.528 325.732 247.136 199.364C177.875 63.4403 61.8412 130.569 27.1781 232.73Z" fill="#DDEFF8"/>
<mask id="mask0_1355_2959" style="mask-type:luminance" maskUnits="userSpaceOnUse" x="18" y="122" width="251" height="257">
<path d="M27.1781 232.73C0.850163 310.324 34.2923 320.112 111.78 360.986C221.774 419.004 311.528 325.732 247.136 199.364C177.875 63.4403 61.8412 130.569 27.1781 232.73Z" fill="white"/>
</mask>
<g mask="url(#mask0_1355_2959)">
<path d="M12.4343 344.448C72.7245 325.848 133.716 309.519 195.234 295.513C200.674 294.274 206.493 293.072 211.719 295.031C218.248 297.476 222.075 304.139 225.003 310.468C242.996 349.341 247.064 394.489 236.306 435.951C233.623 446.289 229.697 456.93 221.482 463.752C208.75 474.325 190.078 472.56 173.867 469.218C160.27 466.416 146.641 462.839 134.527 456.055C109.341 441.948 92.7642 415.2 66.8072 402.564C58.6189 398.577 49.6623 396.096 42.0568 391.085C27.9391 381.786 20.5792 365.342 13.9419 349.791" fill="#85A4B6"/>
<path d="M196.556 157.449C196.4 211.275 197.524 304.491 197.368 358.317C256.047 371.926 280.874 377.332 339.293 389.594L378.277 176.334L196.556 157.449Z" fill="#E6DBCC"/>
<path d="M244.029 185.686C243.969 207.228 244.398 244.537 244.337 266.079C268.327 270.061 286.577 269.969 308.809 274.877L313.185 193.245L244.027 185.688L244.029 185.686Z" fill="#ECFEFD"/>
<path d="M241.077 185.686C241.065 190.41 241.074 195.134 241.091 199.858C241.11 205.315 241.139 210.769 241.173 216.226C241.207 221.969 241.245 227.71 241.279 233.453C241.313 238.945 241.344 244.436 241.366 249.928C241.385 254.787 241.399 259.649 241.39 264.508C241.39 265.031 241.39 265.556 241.387 266.079C241.387 266.736 241.626 267.356 242.021 267.869C242.38 268.334 242.953 268.827 243.555 268.929C250.057 270.005 256.593 270.861 263.142 271.595C268.987 272.253 274.844 272.814 280.691 273.455C283.952 273.812 287.208 274.195 290.459 274.631L289.674 274.525C295.83 275.354 301.957 276.387 308.026 277.724C309.969 278.153 311.66 276.857 311.766 274.874C311.805 274.144 311.845 273.414 311.884 272.684L312.202 266.753C312.358 263.819 312.517 260.885 312.674 257.948C312.864 254.38 313.057 250.815 313.247 247.247C313.457 243.34 313.666 239.434 313.876 235.527C314.088 231.569 314.3 227.611 314.512 223.653C314.709 219.976 314.906 216.298 315.104 212.622C315.27 209.502 315.439 206.385 315.605 203.265C315.725 201.032 315.843 198.796 315.964 196.563C316.022 195.503 316.094 194.443 316.135 193.38C316.135 193.335 316.14 193.289 316.142 193.241C316.18 192.54 315.793 191.624 315.277 191.152C314.666 190.591 314.011 190.376 313.189 190.287C312.57 190.22 311.954 190.152 311.335 190.085C309.661 189.902 307.99 189.719 306.316 189.536C303.833 189.263 301.348 188.993 298.865 188.721C295.847 188.391 292.829 188.061 289.812 187.731C286.491 187.367 283.172 187.006 279.851 186.642C276.498 186.276 273.146 185.91 269.796 185.544C266.684 185.204 263.573 184.864 260.459 184.522C257.817 184.233 255.175 183.944 252.533 183.655C250.635 183.448 248.735 183.241 246.837 183.033C245.941 182.935 245.048 182.817 244.15 182.74C244.111 182.737 244.073 182.73 244.034 182.728C243.331 182.65 242.425 183.113 241.946 183.592C241.433 184.106 241.048 184.946 241.081 185.681C241.115 186.416 241.366 187.237 241.946 187.77C242.558 188.331 243.213 188.545 244.034 188.635C244.653 188.702 245.27 188.769 245.888 188.837C247.562 189.02 249.234 189.203 250.907 189.386C253.39 189.658 255.876 189.928 258.359 190.2C261.376 190.53 264.394 190.861 267.412 191.191C270.733 191.554 274.051 191.916 277.373 192.279C280.725 192.646 284.077 193.012 287.427 193.378C290.539 193.718 293.651 194.057 296.764 194.399C299.406 194.689 302.048 194.978 304.69 195.267C306.588 195.474 308.488 195.681 310.386 195.888C311.282 195.987 312.175 196.098 313.074 196.182C313.112 196.187 313.151 196.192 313.189 196.194L310.234 193.238C310.196 193.968 310.155 194.698 310.116 195.428L309.798 201.359C309.642 204.293 309.483 207.228 309.326 210.164C309.136 213.732 308.943 217.298 308.753 220.865C308.544 224.773 308.334 228.678 308.125 232.586C307.913 236.544 307.701 240.502 307.489 244.46C307.291 248.136 307.094 251.815 306.896 255.491C306.73 258.611 306.562 261.728 306.395 264.848C306.275 267.081 306.157 269.316 306.037 271.55C305.979 272.61 305.907 273.67 305.866 274.732C305.866 274.778 305.861 274.824 305.858 274.872C307.106 273.923 308.351 272.971 309.599 272.022C302.258 270.405 294.831 269.247 287.372 268.317C280.373 267.445 273.351 266.785 266.338 266.031C262.162 265.582 257.99 265.098 253.829 264.539L254.614 264.645C251.444 264.219 248.28 263.747 245.125 263.224C245.848 264.173 246.57 265.125 247.295 266.074C247.307 261.35 247.297 256.626 247.28 251.901C247.261 246.445 247.232 240.991 247.199 235.534C247.165 229.791 247.126 224.05 247.093 218.307C247.059 212.814 247.028 207.324 247.006 201.831C246.987 196.972 246.972 192.111 246.982 187.252C246.982 186.729 246.982 186.204 246.984 185.681C246.989 184.134 245.624 182.655 244.029 182.725C242.435 182.795 241.079 184.024 241.074 185.681L241.077 185.686Z" fill="#999DB9"/>
<path d="M232.9 106.269C218.32 125.009 200.344 146.89 183.527 163.648C197.652 166.006 298.224 166.382 312.493 165.168C352.012 161.807 345.56 162.961 385.182 164.756V110.33L232.903 106.269H232.9Z" fill="#004167"/>
</g>
<path d="M104.158 204.39C104.425 204.291 104.707 204.192 104.989 204.236C105.427 204.303 105.743 204.701 105.921 205.108C106.27 205.91 106.241 206.888 105.767 207.625C105.295 208.362 104.365 208.803 103.508 208.627C103.566 207.404 103.734 206.187 104.014 204.992" fill="#BA8057"/>
<path d="M81.38 209.285C80.9899 209.63 80.3637 209.589 79.9254 209.304C79.4895 209.02 79.2125 208.545 79.0126 208.066C78.8175 207.601 78.6779 207.105 78.6803 206.601C78.6827 206.098 78.8416 205.582 79.1836 205.211C79.5352 204.831 80.0699 204.628 80.5853 204.681C80.6527 204.689 80.7249 204.701 80.7755 204.746C80.8405 204.804 80.855 204.898 80.867 204.985C81.0115 206.091 81.1536 207.196 81.2981 208.305" fill="#BA8057"/>
<path d="M46.9481 188.468C45.8258 186.392 45.8812 183.59 46.1774 181.248C46.4255 179.297 46.1052 175.618 47.0203 173.877C47.461 173.036 47.0035 172.605 45.597 172.407C44.164 172.643 43.4199 175.346 43.4704 176.804C43.5066 177.856 41.2813 170.576 41.0091 167.447C40.8767 165.912 40.7177 165.719 40.2649 164.662C40.0073 164.064 38.9235 163.705 38.03 164.12C37.3725 164.423 39.186 170.082 38.9909 172.73C38.9404 173.407 36.3659 169.095 35.5422 166.319C34.5692 163.754 33.0809 164.178 32.6787 164.715C32.1922 165.363 32.1609 165.601 32.4499 166.266C33.5144 168.724 34.5789 171.181 35.6434 173.638C35.323 173.872 34.9112 173.515 34.6848 173.19C33.6468 171.692 30.9543 166.801 30.4895 166.249C29.8585 165.505 29.3143 165.3 28.44 166.103C28.0258 166.483 31.082 173.089 32.026 174.334C32.4234 174.859 32.8786 176.293 32.4788 176.124C32.079 175.956 29.5238 172.154 27.4887 170.769C27.1973 170.571 26.7951 170.562 26.5278 170.791C26.1353 171.123 26.3592 171.677 26.6073 172.075C27.6549 173.754 29.0228 175.204 30.2704 176.739C31.9466 178.801 33.3217 181.046 35.087 183.053C36.9414 185.161 37.228 183.571 38.018 187.553C41.3029 204.108 44.2074 213.773 45.9655 219.148C46.8397 221.817 54.7149 228.921 60.2228 234.951C63.2404 238.256 73.0255 224.729 70.4871 222.944C65.5645 219.483 62.6408 218.076 59.6785 215.016C51.7479 206.821 56.5573 206.242 46.9433 188.468H46.9481Z" fill="#BA8057"/>
<path d="M73.2543 369.447C73.4975 372.352 73.7407 375.257 73.9864 378.16C74.0803 379.273 74.1646 380.437 73.7191 381.461C73.0255 383.056 71.2698 383.855 69.6634 384.515C67.2985 385.489 64.9335 386.46 62.5709 387.433C62.1278 387.616 61.6702 387.809 61.3499 388.165C60.6659 388.929 60.873 390.158 61.4053 391.034C62.7708 393.289 65.7957 394.101 68.375 393.552C70.9519 393.003 73.1555 391.362 75.1255 389.613C77.1004 387.859 82.1699 384.13 81.5919 379.926C81.0139 375.722 82.9984 372.583 82.9719 368.883C82.9719 368.669 79.711 368.478 79.5834 368.305C79.3473 367.982 78.8585 368.033 78.4683 368.119C77.5507 368.319 76.6332 368.522 75.7132 368.722" fill="#BA8057"/>
<path d="M96.0781 368.423C97.4147 372.249 98.8308 376.399 97.6627 380.28C97.3473 381.326 96.9402 382.379 96.998 383.468C97.0655 384.718 97.735 385.848 98.4238 386.896C99.3606 388.319 100.362 389.7 101.429 391.03C101.815 391.511 102.219 391.993 102.752 392.306C103.45 392.718 104.295 392.793 105.107 392.788C106.826 392.779 108.546 392.463 110.157 391.858C110.663 391.668 111.188 391.427 111.484 390.974C112 390.184 111.614 389.136 111.171 388.305C110.15 386.399 108.852 384.643 107.327 383.109C106.61 382.386 105.837 381.707 105.235 380.887C103.305 378.264 103.414 374.711 103.66 371.461C103.787 369.774 103.65 367.618 102.063 367.033C100.912 366.609 99.5942 367.322 98.4142 366.987" fill="#BA8057"/>
<path d="M122.606 246.633C123.928 247.24 125.123 248.119 126.093 249.203C126.428 249.577 126.758 249.991 127.227 250.174C127.878 250.425 128.6 250.164 129.25 249.914C139.202 246.064 149.842 244.176 160.499 243.636C160.807 243.621 161.134 243.609 161.409 243.754C161.794 243.956 161.968 244.404 162.093 244.821C162.777 247.103 153.921 254.255 150.74 254.939C142.523 256.705 134.831 260.475 126.589 262.123C125.804 262.28 124.966 262.415 124.222 262.118C123.48 261.824 122.962 261.157 122.483 260.519C121.409 259.092 120.335 257.666 119.261 256.24C118.822 255.657 118.367 255.038 118.276 254.313C118.199 253.699 118.394 253.084 118.615 252.506C119.345 250.603 120.397 248.825 121.712 247.271" fill="#BA8057"/>
<path d="M85.4983 217.047C86.175 219.755 87.107 222.108 85.1153 225.363C84.3013 226.695 85.0864 228.492 85.5874 229.972C86.163 231.672 87.1022 233.315 88.5713 234.351C90.0404 235.385 92.1043 235.691 93.6481 234.771C94.7583 234.108 95.4543 232.94 96.0395 231.788C96.8054 230.282 97.4653 228.702 97.7157 227.03C98.2696 223.337 95.8469 221.651 96.9981 215.209C97.0848 214.725 94.9124 215.305 94.4982 215.04C94.0743 214.768 93.53 214.78 93.0267 214.831C91.1 215.023 89.2143 215.628 87.5333 216.594" fill="#AF7751"/>
<path d="M74.391 275.729C88.7808 274.58 103.168 273.434 117.558 272.284C118.025 272.246 118.531 272.219 118.928 272.47C119.355 272.74 119.538 273.258 119.689 273.74C122.883 283.841 121.467 294.106 121.375 304.698C121.18 327.351 116.428 349.514 108.765 370.832C108.585 371.333 108.375 371.873 107.922 372.152C107.58 372.364 107.156 372.388 106.754 372.405C104.813 372.492 97.8144 372.579 95.8733 372.665C95.3989 372.687 94.8883 372.699 94.4958 372.432C93.9178 372.041 93.8383 371.239 93.8118 370.54C93.1736 354.022 97.2461 327.96 94.5849 311.644C90.8231 327.845 87.3454 353.848 85.5151 370.379C85.4501 370.962 85.3441 371.62 84.86 371.947C84.5012 372.191 84.0364 372.181 83.6053 372.162C81.6015 372.075 74.5355 372.217 72.5318 372.13C71.9562 372.106 71.342 372.068 70.8821 371.723C70.3185 371.302 70.0801 370.557 70.003 369.859C62.3855 300.213 74.391 275.729 74.391 275.729Z" fill="#D1B08A"/>
<path d="M70.7809 260.528C71.4697 251.557 70.4775 247.539 69.0903 246.375C67.7031 245.211 65.8703 244.761 64.1098 244.347C61.2825 243.679 58.4551 243.012 55.6253 242.345C60.8899 234.585 64.0304 225.399 64.618 216.04C68.3846 219.707 72.9894 222.383 77.6519 224.811C79.133 225.582 80.6599 226.358 81.7774 227.601C83.35 229.35 90.0982 238.442 97.8289 228.514C99.1463 226.821 101.86 226.96 103.963 227.377C106.068 227.794 108.002 228.796 109.904 229.786C109.904 229.786 123.331 244.539 126.091 244.539C128.851 244.539 118.271 259.952 118.271 259.952L70.7785 260.528H70.7809Z" fill="#004167"/>
<path d="M75.2652 224.525C79.6339 226.365 79.6339 226.594 84.0051 230.275C82.7407 232.692 85.3851 232.805 78.4852 231.424" fill="#DF6436"/>
<path d="M75.2074 224.734C76.4285 225.247 77.6615 225.761 78.8031 226.438C79.7833 227.018 80.6647 227.741 81.5365 228.471C82.3096 229.121 83.0779 229.779 83.8509 230.429L83.8172 230.167C83.627 230.535 83.48 230.923 83.4078 231.333C83.3837 231.475 83.3669 231.617 83.35 231.759C83.3356 231.887 83.3452 231.88 83.3115 232.007C83.297 232.063 83.2922 232.07 83.2753 232.075C83.2248 232.089 83.2994 232.075 83.2681 232.08C83.2489 232.082 83.2296 232.092 83.2103 232.094C83.1862 232.099 83.2368 232.094 83.1838 232.096C83.1501 232.099 83.1164 232.099 83.0827 232.099C82.6492 232.099 82.2036 231.976 81.7822 231.889C80.7008 231.668 79.6219 231.434 78.5406 231.217C78.2684 231.162 78.1504 231.581 78.425 231.636C79.4678 231.846 80.5082 232.068 81.551 232.284C82.0326 232.383 82.5312 232.511 83.0249 232.53C83.2633 232.54 83.5258 232.504 83.6607 232.284C83.7787 232.092 83.7715 231.839 83.798 231.622C83.8461 231.229 83.9906 230.771 84.1881 230.388C84.229 230.309 84.229 230.188 84.1544 230.126C82.0977 228.391 80.1349 226.534 77.6856 225.363C76.9077 224.992 76.113 224.655 75.3182 224.32C75.0605 224.212 74.9497 224.631 75.2026 224.739L75.2074 224.734Z" fill="white"/>
<path d="M121.681 294.496C121.903 287.469 121.85 280.567 119.692 273.74C119.54 273.258 119.355 272.74 118.931 272.47C118.533 272.219 118.028 272.246 117.56 272.284C103.171 273.434 88.7832 274.58 74.3934 275.729C74.3934 275.729 71.3686 281.897 69.3191 296.845C69.3191 296.845 75.1135 293.699 82.9912 292.822C90.8688 291.947 121.683 294.496 121.683 294.496H121.681Z" fill="#BC9B7A"/>
<path d="M109.302 233.956C106.313 231.195 99.6424 230.046 100.562 227.514C105.622 227.974 106.082 228.663 108.842 229.815" fill="#DF6436"/>
<path d="M109.456 233.804C108.19 232.646 106.593 231.899 105.056 231.169C104.312 230.817 103.563 230.473 102.836 230.082C102.26 229.774 101.67 229.442 101.203 228.979C100.81 228.589 100.582 228.119 100.772 227.572L100.562 227.731C101.969 227.861 103.385 228.018 104.753 228.384C105.61 228.615 106.419 228.96 107.224 229.331C107.742 229.569 108.259 229.803 108.784 230.022C109.042 230.131 109.153 229.709 108.9 229.603C108.023 229.237 107.176 228.808 106.297 228.447C105.338 228.054 104.339 227.803 103.317 227.632C102.405 227.478 101.482 227.377 100.562 227.293C100.464 227.283 100.382 227.367 100.353 227.452C99.929 228.668 101.087 229.552 101.998 230.104C103.491 231.008 105.136 231.631 106.675 232.451C107.551 232.918 108.414 233.433 109.148 234.106C109.353 234.293 109.661 233.988 109.454 233.8L109.456 233.804Z" fill="white"/>
<path d="M86.0931 222.487C84.5735 224.722 82.6781 226.7 80.513 228.319C81.9291 232.713 83.3428 237.107 84.7589 241.501C85.3658 239.873 85.9727 238.244 86.5772 236.613C86.883 235.79 87.2034 234.942 87.7982 234.294C88.3931 233.645 89.3371 233.236 90.168 233.52C90.8616 233.759 91.3216 234.402 91.7334 235.009C92.9448 236.792 94.1538 238.572 95.3652 240.355C97.3328 236.789 99.298 233.221 101.266 229.656C101.632 228.991 102.01 228.285 101.988 227.526C101.954 226.307 100.933 225.378 99.994 224.602C99.0572 223.829 98.1179 223.055 97.1811 222.282C97.5182 225.484 96.3093 228.815 93.9949 231.053C92.6101 232.393 90.4546 233.352 88.788 232.386C87.8367 231.834 87.2925 230.786 86.9168 229.75C86.0666 227.399 85.8402 224.826 86.2665 222.364" fill="#EC642D"/>
<path d="M116.202 260.644C119.123 259.064 121.722 254.893 123.331 251.441C121.402 246.132 115.051 239.249 113.211 237.637" fill="#00314D"/>
<path d="M116.375 260.94C118.268 259.902 119.716 258.148 120.925 256.397C121.594 255.426 122.199 254.412 122.753 253.371C123.018 252.875 123.271 252.369 123.514 251.86C123.637 251.603 123.706 251.453 123.6 251.179C123.516 250.952 123.425 250.731 123.328 250.509C122.546 248.683 121.476 246.982 120.332 245.366C119.188 243.749 117.931 242.178 116.619 240.68C115.622 239.543 114.596 238.396 113.457 237.396C113.124 237.105 112.635 237.592 112.968 237.885C114.299 239.054 115.487 240.41 116.636 241.754C118.295 243.696 119.86 245.737 121.19 247.922C121.891 249.073 122.534 250.27 122.998 251.538L123.032 251.273C122.18 253.094 121.195 254.865 120.017 256.495C118.94 257.987 117.659 259.456 116.026 260.35C115.636 260.564 115.985 261.159 116.375 260.945V260.94Z" fill="#00314D"/>
<path d="M79.186 196.922C79.0584 199.018 80.9007 202.137 80.566 204.212C79.8483 208.656 82.0712 212.846 84.0822 216.871C86.9264 222.561 90.51 221.477 94.7438 219.952C99.3462 218.295 102.381 213.691 103.491 208.926C104.601 204.161 104.105 199.186 103.602 194.318C103.363 192.01 99.0572 190.066 98.8187 187.758" fill="#BA8057"/>
<path d="M72.0453 246.148C71.6985 260.921 66.9276 277.006 65.078 291.665C74.9931 287.317 86.2762 287.772 97.0727 288.56C107.872 289.35 117.399 290.588 127.683 287.199C126.026 280.222 119.738 258.153 118.122 253.997C116.202 249.054 114.817 243.901 114.003 238.659C113.864 237.755 113.707 236.78 113.059 236.132" fill="#004167"/>
<path d="M77.1052 285.72C73.7528 273.72 80.0939 250.061 70.2053 244.999C77.334 256.963 68.8253 262.253 68.1366 287.1" fill="#DF6436"/>
<path d="M77.4376 285.628C76.7006 282.976 76.4911 280.198 76.3972 277.457C76.2888 274.298 76.3658 271.135 76.4164 267.977C76.467 264.819 76.5104 261.668 76.3153 258.519C76.1491 255.816 75.8336 253.053 74.9353 250.485C74.1911 248.36 72.9894 246.353 71.0699 245.103C70.8459 244.958 70.6148 244.824 70.3787 244.703C70.0825 244.549 69.7237 244.867 69.9067 245.175C71.0844 247.158 72.0212 249.283 72.4403 251.562C72.8015 253.537 72.7365 255.563 72.4523 257.543C72.1175 259.873 71.5395 262.159 70.9929 264.445C70.2872 267.394 69.6225 270.35 69.1168 273.34C68.4472 277.3 68.033 281.302 67.8572 285.315C67.8307 285.91 67.809 286.505 67.7922 287.1C67.7801 287.543 68.4689 287.543 68.481 287.1C68.599 282.896 68.9578 278.7 69.6129 274.547C70.1018 271.458 70.7592 268.403 71.4817 265.363C72.0405 263.012 72.6474 260.661 73.0327 258.273C73.3651 256.216 73.5023 254.135 73.2133 252.065C72.9027 249.818 72.0814 247.678 70.9953 245.693C70.8363 245.402 70.6701 245.113 70.5016 244.828L70.0295 245.301C71.9658 246.3 73.2567 248.085 74.0466 250.078C75.022 252.54 75.3833 255.221 75.5783 257.847C75.8071 260.935 75.783 264.036 75.7373 267.129C75.6915 270.28 75.6072 273.434 75.6795 276.585C75.7445 279.372 75.9131 282.195 76.5417 284.92C76.6115 285.219 76.6862 285.517 76.768 285.814C76.8861 286.24 77.5532 286.059 77.4327 285.631L77.4376 285.628Z" fill="white"/>
<path d="M80.4263 203.455C80.0506 203.959 79.7544 204.52 79.5497 205.113C79.4606 205.373 79.3979 205.691 79.5762 205.9C79.8339 206.204 80.3276 206.018 80.6503 205.789C82.2687 204.65 83.3452 202.915 84.5421 201.338C85.7391 199.76 87.2298 198.227 89.1686 197.82C90.0645 197.632 90.9917 197.7 91.9092 197.669C93.8479 197.601 95.7674 197.076 97.4701 196.146C97.4219 197.967 98.3756 199.702 99.6689 200.986C100.962 202.27 102.576 203.173 104.17 204.055C105.23 200.121 103.216 196.079 101.266 192.501C100.762 191.576 100.194 190.591 99.233 190.157C98.5081 189.829 97.6724 189.875 96.8849 189.998C93.5036 190.526 90.4666 192.328 87.632 194.245C84.4073 196.425 81.103 199.119 80.2385 202.915" fill="#A77150"/>
<path d="M84.3495 286.293C84.3495 286.293 78.8103 285.77 67.7898 288.363C67.5056 288.948 67.8379 289.052 67.561 289.972C74.9208 287.902 78.4828 288.276 84.8095 287.671L84.3495 286.291V286.293Z" fill="#004167"/>
<path d="M79.8676 254.38C79.8676 254.38 80.4311 247.124 71.2385 240.514C70.6099 240.682 66.9444 243.737 66.0654 244.132C72.4595 248.324 74.4464 251.321 79.0584 255.698L79.8676 254.38Z" fill="#004167"/>
<path d="M83.6438 201.547C86.9408 203.807 86.9192 209.372 87.1455 209.866C87.6922 209.09 89.2239 207.796 89.7706 207.02C90.1897 206.425 90.457 205.753 90.6449 205.05C90.6449 205.05 92.0658 199.972 87.9644 199.885C83.863 199.798 83.6438 201.547 83.6438 201.547Z" fill="#A77150"/>
<path d="M95.8228 200.326C95.4928 200.636 95.358 201.099 95.2616 201.54C95.0184 202.648 94.9221 203.788 94.9774 204.922C95.264 205.072 95.6157 205.045 95.9143 204.922C96.2129 204.799 96.4706 204.599 96.7235 204.399C97.3713 203.886 98.0216 203.373 98.6694 202.86C98.8284 202.735 99.0018 202.581 98.997 202.378C98.9945 202.251 98.9199 202.137 98.8428 202.036C98.1372 201.089 97.0775 200.417 95.9215 200.179" fill="#A77150"/>
<path d="M43.179 177.642C43.0658 177.584 42.9309 177.594 42.8057 177.613C41.6377 177.777 40.5371 178.384 39.7736 179.283" fill="#A77150"/>
<path d="M38.7597 178.189C39.0632 177.854 39.1619 177.382 39.2245 176.934C39.3811 175.811 39.3883 174.667 39.2462 173.539" fill="#A77150"/>
<path d="M109.367 247.192C109.389 247.216 109.437 247.211 109.461 247.182C109.623 246.987 109.755 246.78 109.856 246.565C109.897 246.481 109.928 246.38 109.856 246.322C109.827 246.298 109.784 246.286 109.741 246.279C109.63 246.259 109.509 246.257 109.394 246.288C109.278 246.32 109.177 246.394 109.126 246.483C108.992 246.719 109.256 247.064 109.367 247.192Z" fill="#EC642D"/>
<path d="M109.346 246.435C109.471 246.389 109.538 246.365 109.632 246.37C109.726 246.375 109.81 246.445 109.777 246.519C109.767 246.544 109.745 246.563 109.726 246.582C109.656 246.647 109.565 246.705 109.461 246.724C109.358 246.744 109.252 246.715 109.211 246.65C109.17 246.585 109.201 246.488 109.346 246.435Z" fill="#CCD9E1"/>
<path d="M109.495 246.447C109.495 246.447 109.495 246.447 109.495 246.445V246.45C109.495 246.452 109.495 246.457 109.492 246.459C109.492 246.464 109.49 246.469 109.488 246.471C109.488 246.479 109.49 246.467 109.488 246.471C109.488 246.471 109.488 246.476 109.485 246.476C109.476 246.495 109.466 246.512 109.456 246.532C109.437 246.565 109.413 246.597 109.394 246.63C109.384 246.647 109.389 246.671 109.406 246.681C109.423 246.691 109.444 246.686 109.456 246.669C109.478 246.635 109.502 246.601 109.524 246.565C109.545 246.529 109.567 246.491 109.572 246.447C109.572 246.428 109.555 246.409 109.536 246.411C109.514 246.411 109.5 246.428 109.5 246.447H109.495Z" fill="#004167"/>
<path d="M109.649 246.51C109.543 246.505 109.435 246.51 109.329 246.507C109.281 246.507 109.281 246.58 109.329 246.582C109.435 246.587 109.543 246.582 109.649 246.585C109.697 246.585 109.697 246.512 109.649 246.51Z" fill="#004167"/>
<path d="M103.763 247.466C103.741 248.199 103.72 248.933 103.698 249.666C103.693 249.839 103.85 249.986 104.018 249.986C104.197 249.986 104.334 249.839 104.339 249.666L104.404 247.466C104.408 247.293 104.252 247.146 104.083 247.146C103.905 247.146 103.768 247.293 103.763 247.466Z" fill="white"/>
<path d="M103.151 247.705C103.893 247.546 104.642 247.433 105.396 247.37C105.569 247.355 105.716 247.233 105.716 247.05C105.716 246.888 105.569 246.715 105.396 246.729C104.584 246.797 103.777 246.917 102.98 247.088C102.812 247.124 102.713 247.322 102.756 247.483C102.805 247.659 102.98 247.743 103.151 247.707V247.705Z" fill="white"/>
<path d="M104.498 247.984C104.486 248.266 104.486 248.548 104.498 248.83C104.51 249.112 104.512 249.403 104.702 249.625C104.929 249.885 105.338 249.842 105.564 249.608C105.791 249.374 105.808 249.047 105.834 248.75C105.863 248.43 105.863 248.109 105.839 247.789C105.827 247.623 105.702 247.461 105.519 247.469C105.357 247.476 105.184 247.611 105.198 247.789C105.222 248.093 105.222 248.396 105.198 248.7C105.194 248.77 105.186 248.839 105.177 248.912C105.177 248.929 105.172 248.943 105.172 248.96C105.177 248.919 105.177 248.919 105.172 248.955C105.167 248.982 105.162 249.008 105.157 249.037C105.15 249.073 105.141 249.107 105.126 249.141C105.148 249.088 105.121 249.138 105.109 249.16C105.071 249.194 105.153 249.083 105.109 249.16C105.15 249.126 105.018 249.198 105.112 249.16C105.051 249.184 105.165 249.169 105.104 249.162C105.15 249.172 105.157 249.169 105.121 249.162C105.148 249.167 105.169 249.179 105.186 249.201C105.167 249.182 105.167 249.182 105.182 249.201C105.196 249.222 105.196 249.222 105.182 249.201C105.165 249.169 105.167 249.177 105.184 249.218C105.179 249.208 105.177 249.196 105.172 249.186C105.165 249.16 105.16 249.133 105.153 249.109C105.136 249.039 105.155 249.169 105.153 249.102C105.15 249.035 105.143 248.965 105.141 248.895C105.126 248.591 105.126 248.288 105.141 247.984C105.148 247.816 104.989 247.657 104.82 247.664C104.64 247.671 104.507 247.804 104.5 247.984H104.498Z" fill="white"/>
<path d="M105.983 247.857C105.918 248.825 105.897 249.793 105.914 250.764C105.921 251.176 106.561 251.179 106.554 250.764C106.535 249.793 106.559 248.825 106.624 247.857C106.636 247.683 106.468 247.536 106.304 247.536C106.121 247.536 105.996 247.683 105.983 247.857Z" fill="white"/>
<path d="M106.369 247.888C106.395 247.888 106.419 247.885 106.446 247.885C106.458 247.885 106.472 247.885 106.484 247.885C106.518 247.888 106.511 247.885 106.456 247.881C106.501 247.898 106.557 247.902 106.605 247.919C106.663 247.938 106.542 247.885 106.6 247.919C106.622 247.931 106.646 247.943 106.667 247.955C106.68 247.963 106.689 247.97 106.699 247.977C106.725 247.996 106.72 247.991 106.68 247.96C106.689 247.979 106.72 247.996 106.737 248.011C106.754 248.025 106.769 248.044 106.783 248.059C106.798 248.078 106.793 248.069 106.761 248.032C106.769 248.042 106.776 248.054 106.783 248.064C106.798 248.085 106.81 248.11 106.822 248.134C106.836 248.165 106.834 248.158 106.814 248.112C106.819 248.124 106.824 248.136 106.829 248.15C106.836 248.177 106.843 248.201 106.851 248.228C106.851 248.237 106.855 248.247 106.855 248.256C106.86 248.281 106.858 248.269 106.851 248.22C106.843 248.237 106.855 248.283 106.855 248.3C106.855 248.317 106.843 248.365 106.851 248.379C106.858 248.326 106.86 248.319 106.853 248.353C106.851 248.365 106.848 248.379 106.846 248.391C106.838 248.418 106.831 248.442 106.822 248.468C106.805 248.526 106.855 248.408 106.822 248.466C106.81 248.488 106.798 248.507 106.785 248.529C106.759 248.574 106.841 248.466 106.785 248.529C106.771 248.546 106.754 248.56 106.74 248.574C106.696 248.615 106.8 248.536 106.752 248.565C106.733 248.577 106.716 248.589 106.696 248.599C106.687 248.603 106.677 248.608 106.667 248.613C106.636 248.627 106.648 248.623 106.699 248.601C106.677 248.606 106.658 248.615 106.639 248.62C106.629 248.623 106.617 248.625 106.607 248.627C106.574 248.632 106.586 248.632 106.646 248.623C106.631 248.623 106.615 248.623 106.6 248.623C106.59 248.623 106.581 248.623 106.569 248.623C106.535 248.62 106.549 248.623 106.61 248.627C106.593 248.62 106.569 248.615 106.552 248.611C106.605 248.635 106.617 248.64 106.588 248.625C106.578 248.62 106.571 248.615 106.562 248.611C106.518 248.587 106.624 248.668 106.566 248.611C106.448 248.49 106.229 248.483 106.114 248.611C105.998 248.738 105.988 248.936 106.114 249.064C106.292 249.244 106.542 249.292 106.785 249.242C107.009 249.194 107.202 249.047 107.33 248.864C107.616 248.456 107.52 247.818 107.14 247.505C106.925 247.327 106.653 247.218 106.369 247.24C106.203 247.254 106.041 247.377 106.049 247.56C106.056 247.722 106.191 247.895 106.369 247.881V247.888Z" fill="white"/>
<path d="M108.859 247.659C108.628 247.408 108.214 247.401 107.939 247.589C107.645 247.791 107.537 248.124 107.508 248.464C107.496 248.615 107.489 248.784 107.542 248.929C107.612 249.119 107.756 249.268 107.956 249.321C108.298 249.41 108.638 249.227 108.808 248.931C108.895 248.779 108.941 248.611 108.975 248.442C108.992 248.365 109.006 248.285 109.028 248.208C109.03 248.196 109.054 248.088 109.066 248.085C109.066 248.085 109.037 248.148 109.059 248.102C109.071 248.076 109.085 248.052 109.1 248.028L108.515 247.95C108.597 248.268 108.678 248.584 108.76 248.902C108.801 249.063 108.992 249.179 109.155 249.126C109.319 249.073 109.425 248.907 109.379 248.731C109.297 248.413 109.216 248.097 109.134 247.779C109.064 247.51 108.686 247.469 108.548 247.702C108.411 247.936 108.389 248.179 108.322 248.427C108.315 248.454 108.308 248.478 108.3 248.502C108.293 248.524 108.274 248.555 108.274 248.577C108.274 248.536 108.298 248.521 108.283 248.553C108.279 248.565 108.271 248.577 108.267 248.586C108.252 248.615 108.23 248.639 108.216 248.668C108.221 248.661 108.267 248.613 108.23 248.647C108.221 248.656 108.214 248.666 108.204 248.673C108.199 248.678 108.182 248.697 108.175 248.7C108.173 248.7 108.247 248.654 108.202 248.678C108.192 248.683 108.182 248.688 108.175 248.695C108.151 248.709 108.137 248.695 108.209 248.683C108.19 248.688 108.168 248.695 108.149 248.702C108.098 248.719 108.19 248.697 108.187 248.7C108.182 248.702 108.163 248.7 108.156 248.7C108.146 248.7 108.134 248.7 108.125 248.7C108.072 248.702 108.168 248.702 108.163 248.707C108.153 248.714 108.115 248.692 108.105 248.692C108.175 248.702 108.165 248.721 108.141 248.707C108.134 248.705 108.129 248.7 108.122 248.695C108.1 248.68 108.112 248.69 108.158 248.721C108.156 248.717 108.137 248.705 108.137 248.7C108.137 248.7 108.19 248.777 108.158 248.724C108.134 248.685 108.175 248.731 108.165 248.748C108.165 248.748 108.153 248.709 108.153 248.712C108.151 248.7 108.151 248.685 108.146 248.673C108.149 248.68 108.151 248.753 108.151 248.7C108.151 248.671 108.151 248.639 108.151 248.611C108.151 248.562 108.153 248.512 108.158 248.464C108.158 248.452 108.161 248.437 108.163 248.425C108.168 248.37 108.161 248.447 108.158 248.452C108.165 248.42 108.168 248.387 108.175 248.355C108.18 248.329 108.187 248.305 108.194 248.281C108.199 248.268 108.202 248.256 108.206 248.244C108.218 248.211 108.223 248.24 108.197 248.269C108.211 248.254 108.221 248.218 108.233 248.201C108.24 248.189 108.247 248.179 108.252 248.17C108.281 248.122 108.216 248.208 108.243 248.182C108.257 248.165 108.283 248.146 108.296 248.129C108.267 248.172 108.243 248.165 108.269 248.148C108.283 248.138 108.298 248.131 108.312 248.122C108.32 248.117 108.336 248.112 108.341 248.107C108.327 248.119 108.267 248.134 108.32 248.119C108.334 248.114 108.377 248.095 108.392 248.1C108.394 248.1 108.3 248.105 108.356 248.105C108.37 248.105 108.382 248.105 108.397 248.105C108.411 248.105 108.45 248.109 108.394 248.102C108.334 248.095 108.385 248.102 108.399 248.105C108.406 248.105 108.421 248.112 108.428 248.114C108.377 248.093 108.365 248.085 108.387 248.097C108.394 248.1 108.401 248.105 108.409 248.109C108.435 248.122 108.426 248.141 108.382 248.085C108.392 248.097 108.406 248.107 108.416 248.119C108.529 248.242 108.756 248.244 108.869 248.119C108.989 247.987 108.992 247.796 108.869 247.666L108.859 247.659Z" fill="white"/>
<path d="M109.358 247.726L109.432 249.018C109.442 249.184 109.572 249.345 109.753 249.338C109.919 249.331 110.082 249.196 110.073 249.018L109.998 247.726C109.989 247.56 109.859 247.399 109.678 247.406C109.512 247.413 109.348 247.548 109.358 247.726Z" fill="white"/>
<path d="M111.621 247.678C111.352 247.435 110.976 247.423 110.663 247.584C110.374 247.734 110.201 248.049 110.133 248.358C110.102 248.5 110.073 248.659 110.085 248.806C110.102 249.025 110.217 249.215 110.439 249.276C110.579 249.314 110.742 249.304 110.884 249.273C111.036 249.237 111.142 249.145 111.239 249.027C111.354 248.885 111.458 248.736 111.532 248.57C111.619 248.379 111.67 248.196 111.696 247.989L111.068 248.073C111.094 248.148 111.113 248.225 111.128 248.305C111.133 248.329 111.154 248.389 111.128 248.309C111.133 248.326 111.133 248.348 111.135 248.365C111.14 248.401 111.142 248.437 111.145 248.476C111.159 248.649 111.173 248.827 111.222 248.996C111.243 249.078 111.272 249.17 111.32 249.239C111.417 249.377 111.576 249.461 111.744 249.418C111.891 249.379 111.992 249.249 112.014 249.102C112.036 248.938 111.935 248.748 111.759 248.717C111.672 248.702 111.59 248.702 111.511 248.748C111.443 248.786 111.381 248.864 111.364 248.941C111.328 249.097 111.412 249.304 111.588 249.336L111.53 249.309L111.414 249.194C111.308 248.919 111.448 248.808 111.836 248.861C111.867 248.905 111.874 248.917 111.862 248.895C111.85 248.871 111.891 248.974 111.867 248.907C111.85 248.859 111.836 248.808 111.826 248.755C111.821 248.733 111.817 248.709 111.812 248.688C111.807 248.666 111.785 248.601 111.812 248.683C111.8 248.64 111.8 248.584 111.797 248.541C111.778 248.326 111.761 248.11 111.689 247.905C111.636 247.753 111.501 247.654 111.337 247.676C111.27 247.686 111.2 247.712 111.154 247.765C111.092 247.832 111.072 247.902 111.06 247.991C111.072 247.895 111.06 247.984 111.055 248.008C111.051 248.035 111.043 248.061 111.036 248.09C111.022 248.148 111 248.203 110.981 248.259C110.966 248.3 111.007 248.201 110.988 248.24C110.983 248.249 110.978 248.259 110.976 248.269C110.964 248.295 110.952 248.319 110.937 248.343C110.909 248.396 110.88 248.447 110.846 248.497C110.832 248.521 110.815 248.543 110.798 248.567C110.791 248.577 110.759 248.611 110.791 248.577C110.822 248.543 110.791 248.577 110.783 248.587C110.766 248.608 110.747 248.63 110.728 248.649C110.699 248.68 110.641 248.717 110.735 248.656C110.73 248.661 110.723 248.664 110.716 248.666C110.716 248.666 110.803 248.637 110.757 248.647C110.738 248.652 110.721 248.656 110.704 248.661C110.697 248.661 110.689 248.661 110.682 248.666C110.644 248.676 110.762 248.659 110.723 248.661C110.699 248.661 110.677 248.664 110.653 248.664C110.634 248.664 110.615 248.661 110.595 248.661C110.687 248.659 110.653 248.668 110.615 248.661C110.612 248.661 110.593 248.656 110.593 248.654C110.593 248.649 110.675 248.693 110.644 248.673C110.67 248.688 110.701 248.714 110.716 248.741C110.726 248.758 110.74 248.815 110.728 248.765C110.721 248.726 110.733 248.839 110.733 248.799C110.733 248.789 110.733 248.782 110.733 248.772C110.733 248.748 110.733 248.724 110.735 248.702C110.735 248.676 110.74 248.649 110.742 248.623C110.747 248.567 110.742 248.642 110.738 248.649C110.742 248.635 110.742 248.615 110.745 248.601C110.754 248.548 110.764 248.497 110.781 248.447C110.788 248.425 110.793 248.403 110.803 248.382C110.803 248.379 110.817 248.35 110.817 248.346C110.798 248.389 110.793 248.399 110.803 248.377C110.807 248.367 110.81 248.36 110.815 248.35C110.836 248.307 110.863 248.266 110.889 248.225C110.911 248.191 110.846 248.273 110.875 248.244C110.884 248.235 110.892 248.225 110.901 248.216C110.918 248.196 110.942 248.182 110.959 248.163C110.921 248.211 110.911 248.196 110.935 248.182C110.947 248.175 110.959 248.165 110.971 248.158C110.981 248.153 110.99 248.146 111.002 248.141C111.051 248.117 111.002 248.146 110.981 248.148C111.01 248.143 111.036 248.129 111.063 248.122C111.068 248.122 111.096 248.114 111.096 248.114C111.096 248.117 111.012 248.122 111.063 248.119C111.08 248.119 111.133 248.107 111.147 248.119C111.147 248.119 111.058 248.102 111.111 248.114C111.125 248.117 111.137 248.119 111.152 248.124C111.161 248.126 111.173 248.131 111.183 248.134C111.212 248.141 111.113 248.095 111.159 248.124C111.169 248.129 111.178 248.136 111.188 248.141C111.236 248.17 111.13 248.093 111.176 248.134C111.299 248.247 111.508 248.266 111.629 248.134C111.742 248.011 111.761 247.801 111.629 247.681L111.621 247.678Z" fill="white"/>
<path d="M167.993 232.778L143.354 274.838L133.337 266.288L153.245 233.559L167.993 232.778Z" fill="#ADA6AA"/>
<path d="M166.038 234.722L143.758 271.991L134.183 265.416L153.182 234.532L166.038 234.722Z" fill="#33202B"/>
<path d="M169.002 233.33L144.406 275.303L143.375 274.795L167.972 232.822L169.002 233.33Z" fill="#D6D2D5"/>
<path d="M91.3288 210.827C91.9429 211.244 93.0869 211.383 93.1856 210.398C93.2073 210.239 93.1038 210.082 92.9496 210.041C92.6967 209.964 92.5787 210.203 92.4728 210.381C92.2295 210.34 91.9742 210.282 91.7647 210.145C91.5745 209.921 91.259 209.781 90.9868 209.952C90.8038 210.056 90.7315 210.273 90.5389 210.359C90.3799 210.412 90.2691 210.393 90.0644 210.4C89.8067 210.4 89.5298 210.425 89.2986 210.285C89.0578 210.138 88.7519 210.013 88.4629 210.094C88.3641 210.102 88.2461 210.155 88.1667 210.229C88.145 210.157 88.0944 210.092 88.0053 210.046C87.921 210.013 87.5766 209.904 87.7211 209.617C87.8295 209.499 87.9331 209.242 87.7934 209.15C87.4658 208.953 87.2443 209.519 87.2539 209.873C87.2539 210.234 87.4996 210.511 87.7573 210.593C87.9162 210.653 88.0511 210.591 88.1233 210.487C88.1354 210.504 88.145 210.521 88.1618 210.538C88.2823 210.627 88.4412 210.617 88.5809 210.653C88.9927 210.957 89.4551 211.169 89.9729 211.21C90.4522 211.333 91.035 211.273 91.3288 210.824V210.827Z" fill="#4F3041"/>
<path d="M88.7711 208.179C88.853 208.213 88.947 208.186 89.0072 208.124C89.419 207.852 89.7754 207.505 90.0909 207.127C91.1048 205.934 91.4444 204.255 91.4637 202.732C91.3673 202.373 90.8784 202.304 90.6665 202.602C90.4498 202.959 90.5076 203.417 90.4498 203.816C90.3751 205.235 89.8742 206.592 88.8506 207.608C88.6724 207.748 88.4677 208.054 88.7711 208.179Z" fill="#4F3041"/>
<path d="M88.0149 200.34C88.5086 200.075 88.3979 199.304 87.8632 199.167C87.5092 199.061 87.119 199.071 86.7554 199.1C85.886 199.126 83.5041 200.434 83.4222 201.342C83.4222 201.342 83.4222 201.342 83.4222 201.34C83.4487 201.672 83.9448 201.766 84.0773 201.439C84.8335 200.882 85.6548 200.391 86.6109 200.27C87.0853 200.198 87.5646 200.567 88.0149 200.34Z" fill="#4F3041"/>
<path d="M99.5412 201.937C99.0162 201.022 98.1757 200.253 97.1497 199.95C96.6825 199.813 96.2033 199.774 95.7192 199.769C95.2351 199.755 94.9654 200.396 95.317 200.73C95.4494 200.873 95.6445 200.906 95.8324 200.906C97.1835 200.863 98.2407 201.622 99.0427 202.643C99.18 202.836 99.428 203.014 99.652 202.841C99.9795 202.602 99.6905 202.188 99.5412 201.935V201.937Z" fill="#4F3041"/>
<path d="M92.1332 214.125C92.0272 214.007 91.8827 213.959 91.4107 214.173C91.0229 214.421 90.628 214.751 90.1535 214.742C89.8067 214.717 89.4816 214.585 89.1613 214.45C88.8771 214.325 88.6122 214.036 88.2798 214.122C88.1787 214.144 88.1113 214.231 88.0896 214.33C88.0342 214.366 87.9884 214.419 87.9716 214.496C87.9475 215.052 88.2413 215.592 88.3714 216.129C88.487 216.616 88.7567 217.095 89.2335 217.293C89.2504 217.319 89.2697 217.341 89.2889 217.348C89.3491 217.377 89.4118 217.377 89.4744 217.353C90.758 217.546 91.796 215.944 92.2416 214.917C92.2994 214.787 92.3644 214.657 92.3764 214.513C92.4005 214.332 92.2873 214.185 92.1356 214.12L92.1332 214.125Z" fill="#4F3041"/>
<path d="M95.6734 203.79C95.5265 203.761 95.3676 203.771 95.2086 203.795C95.0497 203.814 94.9268 204.079 95.0256 204.192C95.0617 204.24 95.1243 204.243 95.1869 204.233C95.3627 204.2 95.5145 204.216 95.6518 204.269C95.1484 204.192 94.7005 205.284 95.1508 205.643C95.7818 206.042 96.1166 204.92 95.9456 204.467C96.025 204.546 96.0973 204.64 96.1599 204.744C96.196 204.811 96.2683 204.869 96.3526 204.79C96.473 204.679 96.3983 204.532 96.3622 204.44C96.237 204.11 95.9986 203.853 95.6734 203.79Z" fill="#4F3041"/>
<path d="M86.8156 203.708C86.5483 203.496 86.2111 203.378 85.8763 203.429C85.7246 203.453 85.5801 203.508 85.4404 203.578C85.2983 203.643 85.3008 203.881 85.4453 203.937C85.5006 203.963 85.5609 203.944 85.6162 203.918C85.7318 203.855 85.8499 203.821 85.9655 203.809C85.8595 203.845 85.7632 203.906 85.715 204.004C85.4717 204.402 85.1298 205.337 85.8547 205.411C86.5699 205.606 86.9023 204.192 86.3749 203.843C86.5073 203.879 86.635 203.932 86.7602 204.004C86.8252 204.045 86.9167 204.065 86.9601 203.978C87.0251 203.857 86.8903 203.768 86.8156 203.71V203.708Z" fill="#4F3041"/>
<path d="M104.213 205.488C103.857 203.255 99.811 200.453 98.838 198.415C97.8963 196.437 98.077 194.804 98.7537 192.723C98.3539 194.108 96.001 195.616 94.621 196.03C91.9863 196.816 87.3238 196.353 85.3561 198.271C82.8515 200.721 82.0013 203.561 79.2871 205.78C79.4365 201.687 78.0155 197.777 79.0583 193.816C79.6869 191.429 81.3728 189.133 83.2489 187.534C84.8311 186.185 86.9023 185.527 88.9831 185.37C88.8073 185.086 88.658 184.79 88.5496 184.472C88.1932 183.426 88.4075 182.101 89.3323 181.496C89.5948 181.325 89.9127 181.207 90.0861 180.942C90.1969 180.771 90.2282 180.559 90.2956 180.367C90.6015 179.463 91.784 178.984 92.6317 179.42C92.8677 179.54 93.0845 179.723 93.3446 179.76C93.571 179.793 93.7998 179.714 94.0141 179.637C95.1508 179.246 96.3646 178.984 97.5568 179.145C98.7489 179.311 99.9193 179.957 100.485 181.019C100.627 181.289 100.736 181.588 100.933 181.819C101.133 182.051 101.41 182.2 101.653 182.383C102.552 183.074 102.942 184.317 102.718 185.426C102.525 186.387 101.906 187.232 101.097 187.796C105.962 190.6 107.2 197.673 104.209 205.496L104.213 205.488Z" fill="#4F3041"/>
<path d="M163.136 244.265C163.574 244.12 163.757 243.547 163.603 243.113C163.449 242.677 163.056 242.369 162.647 242.157C161.936 241.788 161.12 241.629 160.323 241.709C159.918 241.747 159.453 241.906 159.338 242.296C159.193 242.783 159.711 243.226 160.205 243.335C160.698 243.443 161.24 243.378 161.696 243.6C161.944 243.72 162.165 243.949 162.18 244.226C161.727 244.106 161.274 243.985 160.821 243.862C160.347 243.735 159.848 243.609 159.371 243.725C158.895 243.843 158.464 244.298 158.553 244.78C158.618 245.139 158.952 245.404 159.304 245.498C159.656 245.592 160.031 245.553 160.395 245.513C159.933 245.7 159.41 245.688 158.933 245.838C158.456 245.987 157.982 246.397 158.047 246.893C158.09 247.218 158.36 247.478 158.666 247.601C158.972 247.724 159.306 247.736 159.636 247.748C159.282 247.871 158.895 247.881 158.545 248.013C158.196 248.148 157.869 248.48 157.934 248.851C158.006 249.259 158.495 249.444 158.909 249.444C159.552 249.444 160.19 249.174 160.636 248.712C160.696 248.649 160.756 248.579 160.776 248.493C160.816 248.319 160.672 248.146 160.503 248.09C160.335 248.035 160.152 248.066 159.976 248.095C160.59 248.044 161.262 247.967 161.691 247.526C161.758 247.459 161.818 247.382 161.847 247.29C161.985 246.881 161.488 246.56 161.081 246.411C161.51 246.382 161.939 246.353 162.367 246.324C162.774 246.298 163.263 246.214 163.42 245.835C163.545 245.527 163.362 245.163 163.088 244.975C162.813 244.787 162.473 244.734 162.143 244.684C162.656 244.532 163.278 244.756 163.704 244.431C163.935 244.253 164.041 243.927 163.957 243.648C163.873 243.368 163.605 243.154 163.314 243.132" fill="#BA8057"/>
<path d="M163.227 244.597C163.904 244.33 164.169 243.549 163.885 242.894C163.552 242.128 162.673 241.709 161.912 241.501C161.151 241.294 160.241 241.208 159.547 241.571C158.854 241.935 158.808 242.79 159.381 243.287C159.735 243.595 160.154 243.689 160.609 243.735C160.934 243.768 161.777 243.754 161.835 244.221L162.271 243.889C161.553 243.696 160.824 243.441 160.087 243.352C159.458 243.277 158.81 243.436 158.425 243.971C158.093 244.433 158.138 245.048 158.545 245.45C159.042 245.941 159.75 245.924 160.395 245.855L160.303 245.178C159.429 245.503 158.088 245.358 157.746 246.483C157.611 246.929 157.787 247.384 158.136 247.678C158.557 248.03 159.109 248.073 159.636 248.09L159.545 247.413C158.842 247.637 157.854 247.63 157.613 248.509C157.406 249.263 158.138 249.731 158.791 249.781C159.54 249.842 160.369 249.5 160.879 248.955C161.125 248.692 161.211 248.353 160.99 248.044C160.727 247.678 160.279 247.698 159.882 247.765C159.485 247.832 159.586 248.476 159.974 248.442C160.703 248.379 161.643 248.278 162.078 247.594C162.514 246.91 161.773 246.315 161.173 246.083L161.081 246.76C161.616 246.724 162.163 246.717 162.695 246.638C163.078 246.58 163.48 246.435 163.685 246.081C163.906 245.7 163.796 245.226 163.516 244.905C163.194 244.534 162.702 244.426 162.235 244.356V245.021C162.936 244.843 163.815 245.151 164.215 244.337C164.569 243.617 164.058 242.889 163.314 242.79C162.876 242.732 162.88 243.424 163.314 243.479C163.784 243.542 163.687 244.139 163.302 244.245C162.917 244.351 162.461 244.25 162.052 244.354C161.741 244.433 161.705 244.966 162.052 245.019C162.348 245.064 162.707 245.096 162.943 245.301C163.126 245.462 163.189 245.717 162.953 245.85C162.748 245.965 162.481 245.97 162.252 245.985C161.862 246.011 161.472 246.038 161.081 246.064C160.691 246.091 160.626 246.601 160.99 246.741C161.149 246.801 161.339 246.888 161.452 247.021C161.599 247.196 161.428 247.319 161.269 247.423C160.894 247.671 160.409 247.707 159.974 247.743L160.065 248.42C160.14 248.408 160.359 248.353 160.419 248.427C160.436 248.449 160.335 248.517 160.287 248.558C160.133 248.7 159.949 248.815 159.759 248.902C159.424 249.054 159.005 249.148 158.644 249.054C158.283 248.96 158.143 248.668 158.485 248.423C158.827 248.177 159.338 248.194 159.728 248.069C160.099 247.95 160.031 247.404 159.636 247.392C159.287 247.38 158.878 247.382 158.591 247.151C158.353 246.96 158.333 246.695 158.531 246.467C158.989 245.939 159.88 246.059 160.487 245.833C160.821 245.708 160.812 245.11 160.395 245.156C159.978 245.202 159.456 245.286 159.095 245.009C158.753 244.746 158.897 244.344 159.225 244.147C159.644 243.894 160.183 244.041 160.621 244.154C161.113 244.281 161.602 244.416 162.09 244.546C162.286 244.599 162.555 244.443 162.526 244.214C162.42 243.359 161.609 243.128 160.865 243.06C160.487 243.026 160.046 243.014 159.776 242.704C159.535 242.427 159.742 242.202 160.031 242.109C160.763 241.87 161.71 242.075 162.382 242.4C162.709 242.559 163.068 242.773 163.234 243.113C163.357 243.361 163.357 243.804 163.047 243.927C162.637 244.089 162.815 244.756 163.23 244.592L163.227 244.597Z" fill="#BA8057"/>
<path d="M97.9059 377.816C96.6175 378.984 96.1141 380.846 96.2707 382.579C96.4272 384.311 97.1666 385.939 98.0384 387.445C98.6694 388.539 99.3774 389.587 100.153 390.584C100.558 391.104 100.986 391.615 101.523 391.993C102.665 392.798 104.151 392.913 105.548 392.851C107.12 392.779 108.686 392.516 110.196 392.068C111.113 391.796 112.115 391.355 112.433 390.451C112.818 389.353 111.99 388.228 111.198 387.375C108.375 384.33 105.728 381.198 103.777 377.532C104.054 378.442 104.514 379.75 104.216 381.254C103.997 382.347 102.862 382.456 101.913 382.521C101.066 382.579 100.322 381.962 99.7917 381.297C98.9945 380.297 98.455 379.114 98.0336 377.905" fill="#4F3041"/>
<path d="M73.7986 381.254C73.5794 382.128 72.6112 383.812 73.2398 384.01C73.8684 384.207 74.5451 383.985 75.1617 383.754C77.0137 383.058 78.8488 382.237 80.3829 380.986C81.0236 380.463 81.4282 379.416 81.4571 378.628C81.4595 378.551 82.3313 378.628 82.7913 379.473C83.4897 380.76 83.049 382.47 82.3096 383.733C81.8496 384.518 81.1584 385.139 80.4793 385.747C77.8711 388.081 75.246 390.425 72.2885 392.299C70.7279 393.289 69.0469 394.152 67.231 394.487C66.4989 394.622 65.7403 394.667 65.013 394.508C64.0954 394.308 63.2766 393.793 62.5276 393.224C61.1428 392.174 59.8326 390.728 59.8061 388.992C59.8013 388.698 59.8399 388.387 60.006 388.144C60.1313 387.96 60.3191 387.828 60.507 387.707C62.3277 386.537 64.4542 385.963 66.5085 385.284C68.5628 384.605 73.8756 380.952 73.801 381.254H73.7986Z" fill="#4F3041"/>
<path d="M108.339 120.807C108.344 120.793 108.349 120.778 108.353 120.764C108.486 120.499 108.633 120.239 108.796 119.991C108.948 119.822 109.107 119.661 109.276 119.509C109.432 119.405 109.596 119.309 109.762 119.222C109.885 119.184 110.01 119.147 110.136 119.119C110.256 119.116 110.376 119.116 110.499 119.123C110.726 119.133 110.947 119.114 111.161 119.073C111.031 116.541 110.923 114.009 110.839 111.477C110.388 111.412 110.581 111.419 109.993 111.499C109.933 111.506 109.637 111.525 109.476 111.571C109.408 111.59 108.64 111.913 108.58 111.949C108.573 111.954 108.565 111.959 108.558 111.964C108.529 111.968 108.5 111.973 108.471 111.978C108.108 112.043 107.756 112.149 107.414 112.289C106.783 112.547 106.147 112.795 105.574 113.171C105.17 113.436 104.791 113.746 104.413 114.045C104.266 114.161 104.124 114.284 103.987 114.411C103.498 114.874 103.098 115.421 102.696 115.955C102.455 116.276 102.243 116.62 102.06 116.979C101.991 117.114 101.928 117.252 101.865 117.389L108.344 120.81L108.339 120.807Z" fill="#668DA4"/>
<path d="M123.023 122.595C122.984 122.089 122.907 121.581 122.827 121.08C122.796 120.889 122.758 120.699 122.709 120.511C122.659 120.316 122.601 120.123 122.531 119.935C122.36 119.466 122.163 119.001 121.948 118.55C121.773 118.179 121.561 117.825 121.325 117.49C120.672 116.565 119.952 115.707 119.116 114.946C118.589 114.467 118.025 114.035 117.459 113.599C117.129 113.346 116.787 113.108 116.426 112.898C116.241 112.79 116.053 112.689 115.858 112.597C115.4 112.38 114.933 112.18 114.456 112.007C113.808 111.771 113.122 111.691 112.44 111.617C112.103 111.47 112.243 111.518 111.684 111.443C111.641 111.438 111.605 111.431 111.568 111.426L111.886 119.078C111.959 119.063 112.031 119.044 112.101 119.025C112.18 119.046 112.26 119.073 112.337 119.097C112.7 119.285 113.047 119.502 113.38 119.738C113.958 120.217 114.507 120.74 114.993 121.311C115.159 121.554 115.313 121.807 115.448 122.07C115.518 122.284 115.578 122.501 115.627 122.72C115.641 122.985 115.641 123.253 115.627 123.518C115.566 123.804 115.489 124.088 115.395 124.366C115.272 124.609 115.133 124.845 114.981 125.074C114.776 125.303 114.56 125.519 114.328 125.724C114.295 125.748 114.259 125.77 114.225 125.792C115.969 127.536 117.659 129.338 119.287 131.19C119.581 130.957 119.858 130.701 120.113 130.424C120.246 130.28 120.373 130.13 120.494 129.976C120.795 129.593 121.108 129.21 121.38 128.803C121.597 128.48 121.782 128.136 121.941 127.782C122.221 127.15 122.507 126.51 122.683 125.84C122.861 125.161 122.945 124.45 123.01 123.754C123.047 123.368 123.051 122.978 123.023 122.592V122.595Z" fill="#668DA4"/>
<path d="M109.478 126.601C109.358 126.565 109.24 126.529 109.122 126.488C108.874 126.363 108.63 126.223 108.399 126.071C108.255 125.941 108.115 125.804 107.982 125.659C107.903 125.534 107.826 125.406 107.756 125.276C107.684 125.05 107.626 124.818 107.578 124.585C107.522 123.903 107.535 123.212 107.597 122.53C107.672 122.113 107.773 121.703 107.901 121.301C107.482 121.164 107.075 120.962 106.68 120.759C104.893 119.841 103.144 118.856 101.41 117.839C101.302 118.092 101.198 118.348 101.092 118.601C101.013 118.791 100.938 118.984 100.873 119.179C100.741 119.571 100.635 119.971 100.555 120.379C100.413 121.099 100.317 121.834 100.254 122.564C100.218 122.98 100.204 123.399 100.206 123.816C100.213 124.58 100.317 125.324 100.423 126.081C100.485 126.524 100.579 126.96 100.729 127.384C100.89 127.842 101.085 128.287 101.287 128.728C101.357 128.88 101.434 129.027 101.518 129.172C101.603 129.314 101.692 129.453 101.788 129.588C102.058 129.967 102.342 130.335 102.643 130.689C102.862 130.947 103.103 131.186 103.361 131.402C103.843 131.807 104.346 132.207 104.883 132.537C105.17 132.713 105.471 132.87 105.781 133.002C106.371 133.257 106.961 133.525 107.58 133.701C107.893 133.79 108.214 133.86 108.539 133.908L109.476 126.601H109.478Z" fill="#668DA4"/>
<path d="M113.632 126.257C113.389 126.411 113.139 126.553 112.879 126.681C112.503 126.813 112.118 126.919 111.725 126.999C111.385 127.02 111.048 127.02 110.709 126.999C110.516 126.96 110.323 126.912 110.133 126.859C109.916 129.302 109.618 131.737 109.237 134.161C109.859 134.252 110.487 134.351 111.116 134.358C111.47 134.363 111.824 134.341 112.175 134.296C112.859 134.209 113.546 134.132 114.21 133.954C114.574 133.855 114.928 133.732 115.275 133.587C115.901 133.325 116.53 133.077 117.117 132.732C117.654 132.414 118.146 132.026 118.632 131.638L113.628 126.257H113.632Z" fill="#668DA4"/>
<path d="M133.8 168.528L128.998 167.317C128.66 167.232 128.302 167.447 128.215 167.784L125.176 179.839C125.091 180.176 125.306 180.535 125.643 180.622L130.445 181.834C130.782 181.918 131.141 181.704 131.228 181.366L134.267 169.311C134.351 168.974 134.137 168.615 133.8 168.528Z" fill="#668DA4"/>
<path d="M144.001 165.534L139.199 164.322C138.862 164.238 138.503 164.452 138.417 164.79L134.045 182.128C133.961 182.465 134.175 182.824 134.513 182.911L139.315 184.122C139.652 184.207 140.011 183.992 140.098 183.655L144.469 166.317C144.553 165.98 144.339 165.621 144.001 165.536V165.534Z" fill="#668DA4"/>
<path d="M151.564 173.009L146.761 171.798C146.424 171.713 146.065 171.928 145.979 172.265L142.939 184.32C142.855 184.657 143.069 185.016 143.407 185.103L148.209 186.315C148.546 186.399 148.905 186.184 148.992 185.847L152.031 173.792C152.115 173.455 151.901 173.096 151.564 173.009Z" fill="#668DA4"/>
<path d="M161.717 170.003L156.915 168.791C156.578 168.707 156.219 168.921 156.132 169.258L151.761 186.596C151.677 186.934 151.891 187.293 152.228 187.379L157.031 188.591C157.368 188.675 157.727 188.461 157.813 188.124L162.184 170.786C162.269 170.448 162.103 170.102 161.717 170.005V170.003Z" fill="#668DA4"/>
<path d="M158.138 164.146C158.557 164.917 159.323 165.517 160.236 165.748C162.062 166.209 163.875 165.084 164.325 163.306C164.773 161.528 163.721 159.629 161.895 159.169C160.07 158.709 158.256 159.834 157.806 161.612C157.698 162.043 157.695 162.453 157.743 162.874L153.717 164.26C153.298 163.489 152.532 162.889 151.619 162.658C150.706 162.426 149.745 162.595 149.013 163.072L146.114 159.991C146.354 159.644 146.547 159.282 146.655 158.851C147.115 157.025 145.991 155.211 144.213 154.761C142.436 154.31 140.574 155.426 140.124 157.203C140.016 157.635 140.013 158.044 140.061 158.466L135.953 159.779C135.534 159.008 134.768 158.408 133.855 158.177C132.03 157.717 130.216 158.842 129.766 160.62C129.315 162.397 130.431 164.26 132.208 164.71C133.985 165.158 135.847 164.045 136.297 162.267C136.406 161.836 136.408 161.427 136.36 161.005L140.375 159.668C140.794 160.439 141.559 161.039 142.472 161.27C143.385 161.501 144.346 161.333 145.078 160.856L147.978 163.937C147.737 164.284 147.544 164.645 147.436 165.076C146.976 166.902 148.1 168.716 149.878 169.167C151.703 169.627 153.517 168.502 153.967 166.724C154.076 166.293 154.078 165.883 154.03 165.462L158.138 164.149V164.146ZM161.568 160.465C162.673 160.745 163.355 161.887 163.075 162.99C162.796 164.096 161.655 164.778 160.552 164.498C159.449 164.219 158.765 163.077 159.044 161.973C159.323 160.87 160.465 160.186 161.568 160.465ZM132.523 163.457C131.418 163.178 130.736 162.036 131.016 160.933C131.295 159.827 132.437 159.145 133.54 159.425C134.645 159.704 135.327 160.846 135.047 161.949C134.768 163.053 133.626 163.737 132.523 163.457ZM142.833 160.032C141.728 159.752 141.046 158.61 141.326 157.507C141.605 156.404 142.747 155.719 143.85 155.999C144.955 156.278 145.637 157.42 145.357 158.524C145.078 159.627 143.936 160.311 142.833 160.032ZM150.239 167.926C149.134 167.647 148.452 166.505 148.731 165.402C149.011 164.298 150.152 163.614 151.255 163.893C152.361 164.173 153.042 165.315 152.763 166.418C152.484 167.521 151.39 168.218 150.239 167.926Z" fill="#668DA4"/>
<path d="M95.2809 63.8932L92.6799 64.9267C92.4969 64.999 92.4005 65.2086 92.468 65.382L94.9245 71.5613C94.9919 71.7347 95.2086 71.819 95.3893 71.7468L97.9903 70.7133C98.1733 70.641 98.2696 70.4314 98.2022 70.258L95.7457 64.0787C95.6783 63.9053 95.4615 63.821 95.2809 63.8932Z" fill="#668DA4"/>
<path d="M97.4075 55.2254L94.8065 56.2589C94.6234 56.3312 94.5512 56.6034 94.6499 56.8515L99.6954 69.5473C99.7941 69.793 100.033 69.9424 100.216 69.8701L102.817 68.8366C103 68.7643 103.072 68.4921 102.973 68.244L97.9277 55.5482C97.8289 55.3025 97.5905 55.1531 97.4075 55.2254Z" fill="#668DA4"/>
<path d="M100.936 50.0845L98.3347 51.1179C98.1516 51.1902 98.142 51.6166 98.3106 52.0406L104.36 67.2683C104.529 67.6923 104.83 67.9958 105.013 67.9236L107.614 66.8901C107.797 66.8178 107.807 66.3914 107.638 65.9674L101.588 50.7397C101.42 50.3157 101.119 50.0122 100.938 50.0845H100.936Z" fill="#668DA4"/>
<path d="M109.177 56.8828L106.576 57.9163C106.393 57.9886 106.287 58.1765 106.347 58.3234L109.365 65.9144C109.423 66.0614 109.63 66.1264 109.81 66.0541L112.411 65.0206C112.594 64.9484 112.7 64.7605 112.64 64.6135L109.623 57.0226C109.565 56.8756 109.384 56.8009 109.177 56.8828Z" fill="#668DA4"/>
<path d="M71.4673 108.215L72.1826 107.17L72.9701 110.227C73.1242 110.822 72.7654 111.429 72.1705 111.583L66.299 113.098C65.7042 113.253 65.0973 112.894 64.9431 112.299L63.4283 106.425C63.2741 105.83 63.633 105.223 64.2279 105.069L70.097 103.554C70.5521 103.436 71.0169 103.619 71.277 103.982L70.6196 104.944L70.5305 104.594C70.5088 104.51 70.4221 104.457 70.3354 104.479L64.4663 105.992C64.382 106.013 64.329 106.1 64.3507 106.187L65.8655 112.058C65.8872 112.142 65.9739 112.195 66.0606 112.173L71.9297 110.658C72.014 110.636 72.067 110.55 72.0453 110.463L71.4649 108.215H71.4673ZM66.7494 108.251L66.3857 108.774C66.2846 108.919 66.3207 109.116 66.4652 109.217L68.3196 110.511C68.4521 110.603 68.6134 110.653 68.7724 110.634C68.8013 110.631 68.8302 110.624 68.8591 110.617C69.006 110.578 69.1384 110.487 69.2251 110.359L72.9918 104.859C73.0905 104.715 73.0544 104.515 72.9099 104.416L72.3849 104.057C72.2404 103.958 72.0405 103.994 71.9417 104.139L68.5388 109.107L67.1925 108.167C67.048 108.066 66.8505 108.102 66.7494 108.246V108.251Z" fill="#668DA4"/>
<path d="M71.6238 64.7845C71.4408 64.5027 71.1686 64.257 70.8315 64.1799C70.6629 64.1413 70.4799 64.1245 70.3017 64.1437C69.4154 63.6186 68.5363 63.0789 67.6669 62.5272C67.8885 62.1803 68.1077 61.8334 68.3268 61.4889C68.7435 60.8361 69.1625 60.1832 69.5816 59.5304C69.7622 59.2485 69.8031 58.8342 69.7164 58.5162C69.6321 58.2102 69.3937 57.8802 69.1071 57.7284C68.4521 57.3839 67.691 57.579 67.2936 58.2006C66.6795 59.1594 66.0654 60.1182 65.4537 61.0794C65.1575 60.8819 64.8636 60.6819 64.5674 60.4795C63.987 60.082 63.4114 59.6773 62.8406 59.2702C62.5781 59.0823 62.1205 59.0558 61.8195 59.1377C61.5112 59.222 61.1789 59.4581 61.0272 59.7424C60.8634 60.0483 60.7839 60.4169 60.8923 60.7566C60.9381 60.8626 60.9814 60.9662 61.0272 61.0722C61.1452 61.2697 61.3041 61.4263 61.504 61.5444C62.3421 62.1442 63.1874 62.7296 64.0424 63.3054C63.6522 63.9197 63.2621 64.534 62.8744 65.1483C62.4601 65.8036 62.0483 66.4588 61.6365 67.1165C61.4583 67.4008 61.4149 67.8103 61.5016 68.1307C61.5859 68.4367 61.8243 68.7667 62.1109 68.9185C62.7612 69.2606 63.5342 69.0703 63.9244 68.4463C64.6975 67.2129 65.4729 65.9843 66.2532 64.7532C66.747 65.0664 67.2407 65.3772 67.7392 65.6831C68.3389 66.0493 68.9434 66.4107 69.5503 66.7672C69.9356 66.9912 70.5088 67.0274 70.8893 66.7672L71.1494 66.5889C71.4384 66.3914 71.6624 66.1457 71.7587 65.8012C71.8454 65.4856 71.8069 65.0664 71.6238 64.7869V64.7845Z" fill="#668DA4"/>
<path d="M86.4447 148.615C86.6663 148.268 86.8855 147.921 87.1046 147.577C87.5213 146.924 87.9403 146.271 88.3594 145.618C88.54 145.336 88.5809 144.922 88.4942 144.604C88.4099 144.298 88.1715 143.968 87.8849 143.816C87.2299 143.472 86.4688 143.667 86.0714 144.288C85.4573 145.247 84.8432 146.206 84.2315 147.167C83.9353 146.97 83.6414 146.77 83.3452 146.567C82.7648 146.17 82.1892 145.765 81.6184 145.358C81.3559 145.17 80.8983 145.144 80.5973 145.226C80.289 145.31 79.9567 145.546 79.805 145.83C79.6412 146.136 79.5617 146.505 79.6701 146.844C79.7159 146.95 79.7592 147.054 79.805 147.16C79.923 147.358 80.0819 147.514 80.2818 147.632C81.1199 148.232 81.9652 148.818 82.8202 149.393C82.43 150.008 82.0399 150.622 81.6522 151.236C81.2379 151.891 80.8261 152.547 80.4143 153.204C80.2361 153.489 80.1927 153.898 80.2794 154.219C80.3637 154.525 80.6021 154.855 80.8887 155.006C81.539 155.348 82.312 155.158 82.7022 154.534C83.4753 153.301 84.2507 152.072 85.031 150.841" fill="#668DA4"/>
<path d="M148.06 86.2445C146.441 89.0535 144.823 91.8624 143.204 94.6738C142.776 95.4158 142.896 96.4782 143.688 96.9456C144.421 97.3768 145.499 97.2587 145.959 96.4613C147.578 93.6524 149.196 90.8434 150.815 88.032C151.243 87.29 151.123 86.2276 150.331 85.7603C149.598 85.3291 148.52 85.4471 148.06 86.2445Z" fill="#668DA4"/>
<path d="M157.064 94.3751C157.613 94.2113 158.172 94.1053 158.743 94.0427C158.844 94.0306 159.032 94.0475 158.625 94.0475C158.675 94.0475 158.726 94.0427 158.777 94.0403C158.911 94.0354 159.046 94.033 159.179 94.033C159.465 94.033 159.75 94.0499 160.034 94.0788C160.145 94.0908 160.323 94.1511 160.429 94.1318C160.212 94.1728 160.137 94.0644 160.306 94.1149C160.366 94.1342 160.434 94.1559 160.494 94.1703C160.742 94.2282 160.419 94.1414 160.378 94.1005C160.373 94.0957 160.527 94.2017 160.542 94.1993C160.402 94.2137 160.279 93.9246 160.421 94.1005C160.648 94.3799 160.217 93.7415 160.347 93.9873C160.465 94.2089 160.224 93.5416 160.311 93.8933C160.369 94.127 160.303 93.438 160.291 93.7969C160.287 93.9343 160.181 93.9559 160.335 93.5801C160.318 93.6211 160.311 93.6717 160.296 93.7102C160.287 93.7439 160.272 93.7753 160.26 93.809C160.169 94.1005 160.33 93.6404 160.34 93.6524C160.378 93.6958 160.039 94.1005 160.007 94.1487C160.284 93.7247 160.166 93.9704 160.036 94.1005C159.947 94.1896 159.853 94.2763 159.754 94.3583C159.68 94.4209 159.6 94.4811 159.521 94.5389C159.463 94.5799 159.396 94.6184 159.34 94.6642C159.367 94.6401 159.68 94.445 159.432 94.6016C159.172 94.7678 158.909 94.9316 158.639 95.0858C157.592 95.6808 156.477 96.1506 155.34 96.5481C155.282 96.5674 155.053 96.6565 155.282 96.5698C155.528 96.4758 155.224 96.589 155.169 96.6059C154.993 96.6637 154.82 96.7191 154.644 96.7745C154.328 96.8733 154.01 96.9697 153.693 97.0612C153.023 97.2564 152.349 97.4394 151.674 97.6201C150.877 97.8345 150.314 98.4946 150.372 99.3426C150.429 100.191 151.075 100.815 151.898 100.87C152.356 100.901 152.814 100.949 153.269 101.022C153.363 101.036 153.466 101.072 153.56 101.07C153.324 101.024 153.269 101.014 153.389 101.039C153.437 101.048 153.485 101.058 153.534 101.067C153.758 101.113 153.982 101.166 154.206 101.222C155.048 101.436 155.872 101.725 156.667 102.079C156.778 102.127 157.108 102.325 156.684 102.082C156.768 102.13 156.862 102.168 156.949 102.212C157.153 102.315 157.356 102.424 157.556 102.537C157.926 102.747 158.29 102.971 158.644 103.212C158.998 103.452 159.34 103.705 159.67 103.975C159.713 104.011 160.043 104.288 159.805 104.084C159.567 103.879 159.892 104.163 159.935 104.199C160.106 104.353 160.272 104.512 160.436 104.674C161.045 105.276 162.088 105.457 162.753 104.811C163.357 104.223 163.545 103.139 162.89 102.494C159.998 99.6341 156.159 97.861 152.093 97.5888C152.168 98.6729 152.243 99.7546 152.317 100.839C155.087 100.089 157.941 99.3281 160.419 97.8345C161.647 97.0949 162.794 96.259 163.352 94.8882C163.649 94.1631 163.627 93.3754 163.34 92.6526C163.01 91.8143 162.17 91.2096 161.32 90.9856C159.745 90.5736 157.965 90.6844 156.416 91.147C155.985 91.2771 155.614 91.4722 155.362 91.8625C155.147 92.1949 155.034 92.6888 155.128 93.079C155.323 93.8764 156.18 94.6305 157.059 94.3679L157.064 94.3751Z" fill="#668DA4"/>
<path d="M169.638 100.003C170.151 100.111 170.657 100.186 171.182 100.217C171.389 100.229 171.594 100.239 171.798 100.256C171.986 100.27 172.222 100.34 172.408 100.325C172.165 100.277 172.104 100.265 172.227 100.292C172.273 100.301 172.319 100.313 172.364 100.325C172.456 100.35 172.547 100.376 172.634 100.407C172.971 100.53 172.439 100.282 172.535 100.354C172.6 100.403 172.677 100.439 172.745 100.487C172.882 100.586 172.933 100.747 172.632 100.381C172.675 100.434 172.735 100.482 172.781 100.535C172.827 100.588 172.865 100.648 172.913 100.701C172.586 100.342 172.747 100.436 172.832 100.603C172.865 100.67 172.957 100.921 172.856 100.617C172.755 100.313 172.836 100.595 172.853 100.668C172.909 100.911 172.868 100.244 172.839 100.501C172.81 100.759 172.971 100.101 172.875 100.335C172.75 100.643 172.942 100.186 172.957 100.186C172.933 100.224 172.909 100.263 172.882 100.297C173.048 100.113 173.082 100.065 172.986 100.152C172.887 100.234 172.935 100.203 173.135 100.058C173.072 100.094 173.01 100.126 172.945 100.157C172.846 100.203 172.745 100.241 172.644 100.28C171.707 100.627 170.751 100.933 169.807 101.255C169.564 101.34 169.291 101.624 169.154 101.836C168.959 102.137 168.882 102.489 168.906 102.843C168.947 103.443 169.385 104.156 170.021 104.291C170.503 104.394 170.984 104.5 171.452 104.652C171.565 104.688 171.676 104.727 171.786 104.77C171.859 104.797 172.203 104.951 171.962 104.838C171.724 104.724 172.056 104.893 172.121 104.932C172.234 104.999 172.343 105.076 172.451 105.153C172.559 105.23 172.586 105.339 172.348 105.057C172.376 105.093 172.417 105.122 172.449 105.153C172.514 105.221 172.572 105.293 172.634 105.365C172.815 105.575 172.42 105.004 172.588 105.305C172.641 105.401 172.682 105.5 172.728 105.599C172.81 105.78 172.624 105.233 172.67 105.425C172.68 105.464 172.692 105.503 172.702 105.544C172.723 105.633 172.721 105.736 172.752 105.821C172.81 105.989 172.716 105.563 172.74 105.599C172.752 105.618 172.74 105.724 172.74 105.756C172.74 105.809 172.73 105.859 172.728 105.91C172.716 106.143 172.762 105.717 172.767 105.724C172.793 105.76 172.6 106.141 172.759 105.818C172.894 105.546 172.745 105.818 172.704 105.888C172.617 106.033 172.564 105.888 172.844 105.729C172.81 105.748 172.791 105.789 172.757 105.809C172.627 105.883 172.94 105.693 172.938 105.7C172.914 105.741 172.779 105.789 172.73 105.811C172.67 105.837 172.466 105.917 172.711 105.828C172.957 105.739 172.783 105.804 172.73 105.813C172.62 105.83 172.511 105.859 172.398 105.874C172.35 105.881 172.302 105.886 172.254 105.89C171.981 105.924 172.357 105.874 172.381 105.881C172.283 105.845 172.099 105.888 171.989 105.89C171.507 105.895 171.025 105.874 170.546 105.828C170.315 105.806 170.084 105.78 169.853 105.746C169.737 105.729 169.624 105.712 169.508 105.693C169.443 105.681 169.378 105.666 169.311 105.659C169.38 105.669 169.643 105.727 169.429 105.681C168.352 105.447 167.312 105.12 166.31 104.664C165.958 104.505 165.404 104.59 165.077 104.751C164.711 104.932 164.352 105.315 164.241 105.715C164.13 106.114 164.121 106.572 164.328 106.948C164.554 107.36 164.867 107.591 165.291 107.784C167.406 108.745 169.812 109.251 172.136 109.16C172.873 109.131 173.643 109.061 174.303 108.695C175.026 108.29 175.575 107.678 175.844 106.888C176.285 105.594 175.881 104.064 174.989 103.057C173.98 101.915 172.48 101.47 171.047 101.164C171.119 102.176 171.192 103.187 171.261 104.199C171.81 104.011 172.36 103.821 172.909 103.633C173.434 103.452 174.002 103.313 174.496 103.053C175.914 102.308 176.456 100.802 175.864 99.333C175.464 98.3428 174.537 97.5478 173.523 97.2371C172.969 97.0684 172.384 96.9962 171.808 96.96C171.57 96.9456 171.331 96.9335 171.095 96.9143C170.97 96.9046 170.842 96.8926 170.717 96.8757C170.654 96.8685 170.592 96.8588 170.529 96.8492C170.787 96.8998 170.83 96.9094 170.662 96.8733C170.231 96.7818 169.838 96.7577 169.429 96.96C169.063 97.1407 168.704 97.5238 168.593 97.9237C168.374 98.7066 168.745 99.8027 169.643 99.993L169.638 100.003Z" fill="#668DA4"/>
<path d="M32.7582 140.733C32.7679 140.764 32.7775 140.795 32.804 140.815C32.8425 140.841 32.8979 140.829 32.9461 140.815C33.6228 140.615 34.314 140.46 35.01 140.352C35.6001 140.261 36.1949 140.203 36.7729 140.058C36.8596 140.037 36.9439 140.012 37.021 139.969C37.1077 139.921 37.1799 139.849 37.2522 139.781C37.9506 139.119 38.7887 138.61 39.5762 138.051C39.6172 138.023 39.6605 137.991 39.6822 137.945C39.7063 137.892 39.699 137.832 39.6894 137.777C39.5353 136.893 34.3983 120.607 34.0467 119.781C34.0346 119.755 34.0226 119.728 34.0033 119.706C33.9479 119.653 33.8564 119.663 33.7794 119.675C32.7847 119.841 30.5233 120.118 30.3884 120.171C30.3162 120.2 30.2512 120.244 30.1861 120.289C29.0807 121.048 27.9946 121.634 27.0288 122.554C27.0288 122.554 32.4981 139.851 32.7606 140.73L32.7582 140.733Z" fill="#668DA4"/>
<path d="M32.7582 140.732C32.7678 140.764 32.7774 140.795 32.8039 140.814C32.8425 140.841 32.8979 140.829 32.946 140.814C33.6228 140.614 34.3139 140.46 35.01 140.352C35.6 140.26 36.1949 140.203 36.7729 140.058C36.8596 140.036 36.9439 140.012 37.0209 139.969C37.1076 139.921 37.1799 139.848 37.2521 139.781C37.9505 139.118 38.7886 138.61 39.5762 138.051C39.6171 138.022 39.6605 137.991 39.6821 137.945C39.7062 137.892 39.699 137.832 39.6894 137.777C39.5352 136.892 34.3982 120.607 34.0466 119.781C34.0346 119.754 34.0225 119.728 34.0033 119.706C33.9744 119.677 31.7298 121.655 30.9784 121.939C29.3769 122.197 27.7561 122.395 27.0239 122.551C27.0239 122.551 32.4932 139.848 32.7558 140.728L32.7582 140.732Z" fill="#668DA4"/>
<path d="M36.7753 140.061C36.862 140.039 36.9463 140.015 37.0233 139.971C37.11 139.923 37.1823 139.851 37.2545 139.784C37.953 139.121 38.7911 138.613 39.5786 138.054C39.6195 138.025 39.6629 137.994 39.6846 137.948C39.7086 137.895 39.7014 137.835 39.6918 137.779C39.5376 136.895 34.4007 120.61 34.0491 119.783C34.037 119.757 34.025 119.73 34.0057 119.709C33.9768 119.68 31.7322 121.658 30.9808 121.942C31.371 123.168 36.4068 139.384 36.7753 140.056V140.061Z" fill="#668DA4"/>
<path d="M42.0399 139.675C42.0495 139.706 42.0616 139.74 42.0832 139.762C42.117 139.793 42.1627 139.784 42.2013 139.771C42.7576 139.61 43.3259 139.497 43.9064 139.432C44.3952 139.376 44.8914 139.357 45.3682 139.246C45.4381 139.229 45.5103 139.21 45.5729 139.172C45.6428 139.128 45.6982 139.061 45.7535 138.996C46.2978 138.365 46.9673 137.9 47.5959 137.379C47.6296 137.353 47.6634 137.324 47.6778 137.278C47.6947 137.228 47.685 137.165 47.673 137.107C47.4851 136.194 44.9516 128.418 44.6024 127.553C44.5903 127.524 44.5783 127.495 44.5614 127.473C44.5133 127.415 44.4362 127.42 44.3712 127.427C43.5475 127.533 42.7022 127.536 41.8593 127.435C41.7389 127.42 41.6112 127.403 41.5004 127.449C41.4402 127.473 41.3896 127.514 41.3367 127.555C40.4576 128.259 39.6364 129.054 38.8826 129.93C38.8826 129.93 41.7629 138.765 42.0399 139.675Z" fill="#668DA4"/>
<path d="M42.0399 139.675C42.0495 139.706 42.0615 139.74 42.0832 139.762C42.1169 139.793 42.1627 139.784 42.2012 139.771C42.7575 139.61 43.3259 139.497 43.9063 139.432C44.3952 139.376 44.8913 139.357 45.3682 139.246C45.438 139.229 45.5103 139.21 45.5729 139.172C45.6427 139.128 45.6981 139.061 45.7535 138.996C46.2978 138.365 46.9673 137.9 47.5959 137.379C47.6296 137.353 47.6633 137.324 47.6778 137.278C47.6946 137.228 47.685 137.165 47.673 137.107C47.4851 136.194 44.9515 128.418 44.6023 127.553C44.5903 127.524 44.5782 127.495 44.5614 127.473C44.5349 127.442 42.7768 129.316 42.1651 129.559C40.8381 129.721 39.4894 129.817 38.8849 129.93C38.8849 129.93 41.7653 138.764 42.0423 139.675H42.0399Z" fill="#668DA4"/>
<path d="M45.3682 139.244C45.438 139.227 45.5103 139.208 45.5729 139.169C45.6427 139.126 45.6981 139.058 45.7535 138.993C46.2978 138.362 46.9673 137.897 47.5959 137.377C47.6296 137.35 47.6633 137.322 47.6778 137.276C47.6946 137.225 47.685 137.163 47.673 137.105C47.4851 136.192 44.9515 128.415 44.6023 127.55C44.5903 127.521 44.5782 127.493 44.5614 127.471C44.5349 127.44 42.7768 129.314 42.1651 129.557C42.5721 130.834 45.019 138.533 45.3706 139.244H45.3682Z" fill="#668DA4"/>
<path d="M56.184 242.588C55.2905 242.077 59.0283 238.649 60.56 233.833C63.7992 233.761 70.6364 240.928 73.6902 244.559C77.8879 249.548 78.5093 250.338 78.2853 254.19C78.0926 257.531 77.847 268.637 77.4111 266.447C73.9093 250.468 67.3442 251.345 56.1864 242.588H56.184Z" fill="#00314D"/>
<path d="M56.3574 242.292C56.3117 242.263 56.396 242.349 56.3598 242.292C56.3743 242.316 56.3695 242.316 56.3984 242.359C56.3646 242.311 56.3935 242.349 56.3935 242.364C56.3935 242.345 56.4032 242.26 56.3935 242.308C56.408 242.246 56.4682 242.07 56.5115 241.981C56.7235 241.542 57.0053 241.135 57.2726 240.733C58.1227 239.451 58.9777 238.177 59.6833 236.809C60.1626 235.881 60.5744 234.917 60.8947 233.925L60.5624 234.178C61.4872 234.166 62.4168 234.679 63.1971 235.154C64.3772 235.869 65.4585 236.741 66.4989 237.647C68.7242 239.586 70.7833 241.73 72.722 243.954C73.7962 245.185 74.8534 246.44 75.8577 247.729C76.5465 248.613 77.2497 249.557 77.6278 250.625C77.9698 251.586 78.0059 252.598 77.9698 253.609C77.9337 254.621 77.8759 255.546 77.8373 256.515C77.741 258.926 77.6639 261.338 77.5267 263.747C77.4978 264.233 77.4689 264.718 77.4303 265.202C77.4159 265.392 77.399 265.582 77.3798 265.77C77.3725 265.85 77.3629 265.932 77.3533 266.011C77.3484 266.047 77.3436 266.084 77.3388 266.12C77.3316 266.177 77.346 266.076 77.3316 266.17C77.3171 266.271 77.2955 266.37 77.2762 266.471C77.2714 266.5 77.2497 266.532 77.2497 266.56C77.2497 266.515 77.3244 266.423 77.4424 266.392C77.5676 266.358 77.7001 266.423 77.7699 266.498C77.8494 266.58 77.7747 266.498 77.7795 266.503C77.8301 266.529 77.8012 266.575 77.7795 266.476C77.7097 266.177 77.6447 265.876 77.5748 265.578C76.8933 262.663 75.9901 259.752 74.5379 257.119C73.459 255.161 72.0501 253.412 70.3643 251.942C68.7049 250.494 66.8433 249.307 64.9817 248.141C62.7154 246.722 60.4468 245.308 58.2817 243.735C57.6579 243.282 57.0414 242.817 56.4345 242.342C56.0877 242.072 55.5964 242.557 55.9456 242.831C58.26 244.643 60.6972 246.274 63.185 247.832C65.1382 249.056 67.1371 250.239 68.953 251.665C70.7689 253.091 72.2163 254.645 73.3916 256.529C74.9425 259.015 75.9083 261.819 76.6332 264.645C76.8066 265.322 76.9077 266.04 77.1221 266.705C77.2136 266.989 77.5267 267.221 77.7916 266.956C77.9361 266.813 77.9626 266.57 77.9915 266.38C78.0469 266.026 78.0806 265.667 78.1095 265.31C78.3046 262.964 78.3672 260.605 78.4587 258.254C78.502 257.146 78.5406 256.038 78.5936 254.93C78.6417 253.886 78.7332 252.838 78.6032 251.795C78.4731 250.752 78.095 249.798 77.5411 248.909C76.7151 247.579 75.6698 246.382 74.668 245.182C72.7245 242.86 70.6966 240.617 68.4978 238.533C67.3924 237.488 66.2484 236.479 65.0298 235.568C64.0569 234.84 63.014 234.137 61.8605 233.727C61.4462 233.58 61.0055 233.479 60.5624 233.484C60.4058 233.484 60.2758 233.59 60.23 233.737C59.6544 235.522 58.7609 237.175 57.7518 238.75C57.3569 239.367 56.9426 239.972 56.5405 240.584C56.2731 240.991 55.9938 241.405 55.8131 241.858C55.6686 242.217 55.6397 242.651 56.013 242.879C56.3863 243.108 56.7403 242.516 56.3622 242.284L56.3574 242.292Z" fill="#00314D"/>
<path d="M39.2943 75.7121C39.0077 76.5408 39.08 77.5141 39.5231 78.3428C40.4118 80.0026 42.4661 80.588 44.0797 79.7232C45.6957 78.8583 46.3893 76.801 45.503 75.1411C44.6143 73.4813 42.56 72.8959 40.9465 73.7607C40.5539 73.9703 40.2504 74.245 39.9711 74.563L36.2358 72.5177C36.5223 71.6889 36.4501 70.7157 36.007 69.887C35.5638 69.0582 34.7932 68.4584 33.9454 68.2392L34.2706 64.0209C34.6896 63.9655 35.087 63.8643 35.4795 63.6547C37.1389 62.7658 37.7241 60.7108 36.8595 59.0968C35.9949 57.4827 33.9165 56.8515 32.3029 57.7164C31.9104 57.926 31.6069 58.2006 31.3276 58.5186L27.5898 56.3625C27.8764 55.5338 27.8042 54.5605 27.361 53.7318C26.4724 52.0719 24.4181 51.4865 22.8045 52.3514C21.1451 53.2403 20.5599 55.2953 21.4245 56.9093C22.2891 58.5258 24.3675 59.1546 25.9811 58.2897C26.3736 58.0801 26.6771 57.8055 26.9564 57.4875L30.646 59.5569C30.3594 60.3856 30.4317 61.3589 30.8748 62.1876C31.3179 63.0163 32.0886 63.6162 32.9363 63.8354L32.6112 68.0537C32.1922 68.1091 31.7948 68.2103 31.4022 68.4198C29.7429 69.3088 29.1577 71.3637 30.0223 72.9778C30.8868 74.5919 32.9652 75.223 34.5788 74.3582C34.9714 74.1486 35.2748 73.874 35.5542 73.556L39.2919 75.7121H39.2943ZM44.3253 75.7699C44.8624 76.7745 44.4771 78.0489 43.4728 78.5861C42.4685 79.1233 41.1945 78.7379 40.6575 77.7333C40.1204 76.7287 40.5057 75.4543 41.51 74.9171C42.5143 74.3799 43.7883 74.7653 44.3253 75.7699ZM22.5588 56.3022C22.0218 55.2977 22.4071 54.0233 23.4114 53.4861C24.4157 52.9488 25.6897 53.3343 26.2267 54.3389C26.7638 55.3434 26.3784 56.6178 25.3742 57.1551C24.3699 57.6923 23.0959 57.3068 22.5588 56.3022ZM32.0332 61.6215C31.4962 60.6169 31.8815 59.3425 32.8858 58.8053C33.89 58.268 35.164 58.6535 35.7011 59.6581C36.2382 60.6627 35.8528 61.937 34.8486 62.4743C33.8443 63.0115 32.5703 62.626 32.0332 61.6215ZM31.1831 72.4141C30.646 71.4095 31.0313 70.1351 32.0356 69.5979C33.0399 69.0606 34.3139 69.4461 34.851 70.4507C35.388 71.4553 35.0027 72.7297 33.9984 73.2669C32.9941 73.8041 31.7442 73.462 31.1831 72.4141Z" fill="#668DA4"/>
<path d="M149.266 51.9587C148.893 51.766 148.548 51.7564 148.137 51.819C148.081 51.8286 148.023 51.8359 147.968 51.8455C147.958 51.8455 147.954 51.8455 147.941 51.8503C147.79 51.872 147.638 51.8937 147.486 51.9129C147.296 51.937 147.106 51.9587 146.916 51.9828C146.675 50.2097 146.311 48.4535 145.822 46.7359C145.661 46.1697 145.16 45.7626 144.584 45.6951C143.987 45.6229 143.472 45.912 143.144 46.4082C142.508 47.3719 141.872 48.3355 141.237 49.2991C140.924 49.7713 140.613 50.2459 140.3 50.718C139.989 51.1878 139.633 51.6528 139.363 52.149C138.927 52.9561 138.944 53.9703 139.657 54.6207C140.223 55.1363 140.953 55.1917 141.677 55.1989C142.544 55.2085 143.409 55.1869 144.276 55.1411C144.319 55.9481 144.339 56.7552 144.329 57.5646C144.319 58.3307 145.044 59.051 145.817 59.0052C146.629 58.9546 147.248 58.3379 147.258 57.5164C147.267 56.6395 147.245 55.7602 147.195 54.8833C147.775 54.811 148.356 54.7315 148.936 54.64C149.273 54.587 149.644 54.2401 149.806 53.9606C149.986 53.6451 150.061 53.1825 149.945 52.8308C149.827 52.4767 149.606 52.137 149.266 51.9611V51.9587ZM142.783 52.2623C143.036 51.8792 143.289 51.4938 143.541 51.1107C143.614 50.9999 143.688 50.8891 143.761 50.7783C143.794 50.9589 143.833 51.1372 143.864 51.3179C143.903 51.5371 143.936 51.7563 143.97 51.9756C143.97 51.978 143.97 51.9804 143.97 51.9828C143.97 51.9973 143.975 52.0165 143.977 52.0382C143.985 52.1008 143.994 52.1611 144.001 52.2237C143.633 52.2406 143.262 52.255 142.891 52.2623C142.853 52.2623 142.817 52.2623 142.778 52.2623H142.783Z" fill="#668DA4"/>
<path d="M62.4963 14.8471C62.5276 14.717 62.5637 14.5869 62.5998 14.4544C62.6672 14.4544 62.7323 14.4544 62.7997 14.4544C63.0743 14.4544 63.3488 14.4544 63.6258 14.4544C64.8058 14.4544 65.9835 14.4544 67.1636 14.4568C67.9198 14.4568 68.6447 13.7919 68.6086 13.0114C68.5725 12.2284 67.9728 11.5659 67.1636 11.5659H64.1556C63.645 11.5635 63.1345 11.5635 62.6215 11.5611C62.0266 11.5611 61.4053 11.5972 60.8947 11.9345C59.8904 12.5994 59.7604 13.8618 59.5027 14.941C59.3702 15.4927 59.2089 16.0492 59.1655 16.6177C59.115 17.2778 59.3895 17.9861 59.8904 18.4245C60.6298 19.0726 61.6341 19.3665 62.5107 19.776C62.9249 19.9687 63.3343 20.1783 63.7125 20.4361C63.7317 20.4505 63.7919 20.4939 63.8353 20.5252C63.8738 20.5565 63.9148 20.5903 63.9292 20.6023C64.0785 20.7324 64.2206 20.8745 64.3507 21.0239C64.3627 21.0359 64.3723 21.0504 64.3844 21.0649C64.4277 21.1371 64.4807 21.207 64.5241 21.2817C64.5554 21.3371 64.5843 21.3949 64.6132 21.4503C64.6252 21.484 64.6421 21.5178 64.6493 21.5467C64.6734 21.6238 64.6902 21.7033 64.7095 21.7803C64.7095 21.8623 64.7095 21.9418 64.7095 22.0237C64.7071 22.0357 64.7047 22.0478 64.7047 22.0526C64.6878 22.1321 64.6637 22.2116 64.6397 22.2887C64.553 22.4091 64.4807 22.5657 64.4037 22.6958C64.4012 22.6982 64.3988 22.703 64.3964 22.7054C64.3386 22.7705 64.2808 22.8307 64.2182 22.8909C64.1724 22.9343 64.1243 22.9752 64.0761 23.0162C64.04 23.0403 64.0039 23.0644 63.9677 23.0885C63.8834 23.1415 63.7943 23.1921 63.7052 23.2378C63.6956 23.2426 63.6836 23.2475 63.6715 23.2547C63.5824 23.2812 63.4981 23.3149 63.409 23.3366C63.3801 23.3438 63.2982 23.3583 63.2404 23.3703C63.1778 23.3751 63.1007 23.3824 63.0742 23.3824C62.949 23.3872 62.8262 23.3776 62.701 23.3727C62.6913 23.3727 62.6841 23.3727 62.6769 23.3727C62.6745 23.3727 62.6721 23.3727 62.6672 23.3727C62.5589 23.3535 62.4529 23.3294 62.3469 23.3005C62.241 23.2716 62.1374 23.2402 62.0338 23.2041C62.0266 23.2017 62.0146 23.1969 62.0049 23.1921C62.0627 23.2186 62.0941 23.2451 61.9833 23.1921C61.9664 23.1848 61.952 23.1752 61.9351 23.168C61.9231 23.1631 61.9086 23.1583 61.899 23.1583C61.9062 23.1583 61.9134 23.1607 61.9231 23.1631C61.7448 23.0764 61.569 22.9825 61.3981 22.8741C61.333 22.8331 61.0994 22.7247 61.0826 22.6572C61.0826 22.65 61.3089 22.8451 61.1861 22.7367C61.1379 22.6934 61.0874 22.6548 61.0416 22.6139C60.8634 22.4573 60.6972 22.2862 60.5407 22.108C60.0398 21.5394 59.0018 21.5563 58.496 22.108C57.9397 22.7151 57.9614 23.5462 58.496 24.1533C59.8567 25.6975 61.9182 26.5431 63.9629 26.1745C65.9185 25.8228 67.4574 24.0256 67.5923 22.0718C67.7368 19.9832 66.0317 18.3137 64.3097 17.4513C63.5896 17.0899 62.8262 16.8201 62.1109 16.4467C62.1181 16.4154 62.1254 16.3816 62.1326 16.3503C62.253 15.8516 62.371 15.3506 62.4914 14.8519L62.4963 14.8471ZM62.188 14.4616C62.1711 14.4616 62.1591 14.464 62.1567 14.4616C62.1567 14.4616 62.1687 14.4616 62.188 14.4616ZM61.7762 16.2515C61.6702 16.1576 61.7304 16.2178 61.7762 16.2515V16.2515Z" fill="#668DA4"/>
<path d="M169.897 50.1972C169.871 50.1854 169.843 50.1735 169.819 50.1664C169.824 50.1664 169.826 50.1711 169.831 50.1711C169.854 50.1783 169.876 50.1878 169.899 50.1972H169.897Z" fill="#004167"/>
</svg>
