<svg width="336" height="470" viewBox="0 0 336 470" fill="none" xmlns="http://www.w3.org/2000/svg">
<path d="M31.598 270.75C0.988401 361.02 39.8692 372.407 129.959 419.959C257.841 487.455 362.191 378.946 287.328 231.934C206.802 73.8043 71.8984 151.899 31.598 270.75Z" fill="#DDEFF8"/>
<mask id="mask0_1_361" style="mask-type:luminance" maskUnits="userSpaceOnUse" x="21" y="143" width="292" height="298">
<path d="M31.598 270.75C0.988401 361.02 39.8692 372.407 129.959 419.959C257.841 487.455 362.191 378.946 287.328 231.934C206.802 73.8043 71.8984 151.899 31.598 270.75Z" fill="white"/>
</mask>
<g mask="url(#mask0_1_361)">
<path d="M14.4564 400.719C84.5516 379.08 155.462 360.084 226.985 343.79C233.31 342.349 240.075 340.95 246.151 343.229C253.742 346.074 258.191 353.826 261.596 361.188C282.514 406.411 287.244 458.935 274.736 507.171C271.617 519.197 267.053 531.577 257.502 539.514C242.698 551.814 220.99 549.76 202.143 545.873C186.334 542.613 170.489 538.451 156.405 530.559C127.123 514.147 107.85 483.029 77.672 468.33C68.152 463.691 57.7388 460.805 48.8964 454.975C32.4828 444.157 23.926 425.026 16.2092 406.935" fill="#85A4B6"/>
<path d="M228.522 183.171C228.34 245.79 229.648 354.235 229.466 416.854C297.688 432.686 326.553 438.975 394.472 453.24L439.796 205.141L228.522 183.171Z" fill="#E6DBCC"/>
<path d="M283.716 216.021C283.646 241.082 284.144 284.486 284.074 309.547C311.965 314.18 333.183 314.073 359.03 319.782L364.118 224.815L283.713 216.023L283.716 216.021Z" fill="#ECFEFD"/>
<path d="M280.283 216.021C280.269 221.517 280.28 227.013 280.3 232.509C280.322 238.856 280.356 245.202 280.395 251.55C280.434 258.231 280.479 264.91 280.518 271.591C280.557 277.981 280.594 284.368 280.619 290.758C280.641 296.411 280.658 302.067 280.647 307.72C280.647 308.328 280.647 308.939 280.644 309.547C280.644 310.312 280.921 311.032 281.38 311.629C281.798 312.17 282.464 312.745 283.164 312.863C290.724 314.115 298.323 315.11 305.936 315.965C312.732 316.73 319.542 317.383 326.34 318.129C330.131 318.543 333.917 318.989 337.697 319.496L336.784 319.373C343.941 320.337 351.064 321.539 358.12 323.095C360.38 323.594 362.345 322.086 362.468 319.779C362.513 318.93 362.561 318.081 362.606 317.232L362.975 310.332C363.157 306.918 363.342 303.505 363.524 300.088C363.745 295.937 363.969 291.79 364.19 287.639C364.434 283.093 364.678 278.55 364.921 274.004C365.168 269.399 365.414 264.795 365.66 260.19C365.89 255.913 366.12 251.634 366.349 247.357C366.542 243.727 366.738 240.101 366.932 236.471C367.072 233.873 367.209 231.273 367.349 228.675C367.416 227.441 367.5 226.208 367.548 224.972C367.548 224.919 367.553 224.866 367.556 224.81C367.601 223.994 367.15 222.929 366.551 222.38C365.84 221.727 365.078 221.477 364.123 221.374C363.404 221.295 362.687 221.217 361.967 221.138C360.021 220.925 358.078 220.712 356.132 220.499C353.245 220.183 350.356 219.869 347.469 219.552C343.96 219.168 340.452 218.784 336.944 218.4C333.082 217.977 329.224 217.557 325.363 217.133C321.465 216.707 317.568 216.281 313.673 215.855C310.055 215.46 306.438 215.065 302.817 214.667C299.746 214.331 296.674 213.994 293.602 213.658C291.396 213.417 289.187 213.176 286.98 212.935C285.939 212.82 284.9 212.683 283.856 212.593C283.811 212.59 283.766 212.582 283.721 212.579C282.904 212.489 281.851 213.027 281.294 213.585C280.697 214.182 280.249 215.16 280.288 216.015C280.328 216.87 280.619 217.826 281.294 218.445C282.005 219.098 282.766 219.347 283.721 219.451C284.441 219.53 285.158 219.608 285.877 219.687C287.823 219.9 289.766 220.113 291.712 220.326C294.599 220.642 297.489 220.956 300.376 221.273C303.884 221.657 307.392 222.041 310.901 222.425C314.762 222.848 318.62 223.268 322.482 223.691C326.379 224.117 330.277 224.543 334.172 224.969C337.789 225.365 341.407 225.76 345.027 226.158C348.099 226.494 351.17 226.83 354.242 227.167C356.448 227.408 358.658 227.649 360.864 227.89C361.906 228.005 362.944 228.134 363.989 228.232C364.034 228.237 364.078 228.243 364.123 228.246L360.688 224.807C360.643 225.656 360.595 226.505 360.55 227.354L360.181 234.255C359.999 237.668 359.814 241.082 359.632 244.498C359.411 248.649 359.187 252.797 358.966 256.947C358.722 261.493 358.478 266.036 358.235 270.582C357.988 275.187 357.742 279.792 357.496 284.396C357.266 288.673 357.036 292.953 356.807 297.23C356.614 300.859 356.418 304.486 356.224 308.115C356.084 310.713 355.947 313.314 355.807 315.912C355.74 317.145 355.656 318.378 355.608 319.614C355.608 319.667 355.603 319.721 355.6 319.777C357.05 318.672 358.498 317.565 359.948 316.461C351.414 314.581 342.779 313.232 334.107 312.151C325.97 311.136 317.806 310.368 309.652 309.491C304.797 308.97 299.947 308.406 295.109 307.756L296.022 307.879C292.337 307.383 288.658 306.834 284.99 306.226C285.83 307.33 286.67 308.437 287.512 309.541C287.526 304.045 287.515 298.55 287.496 293.054C287.473 286.706 287.44 280.361 287.4 274.013C287.361 267.331 287.316 260.652 287.277 253.971C287.238 247.581 287.202 241.194 287.176 234.804C287.154 229.151 287.137 223.495 287.148 217.842C287.148 217.234 287.148 216.623 287.151 216.015C287.157 214.216 285.569 212.495 283.716 212.576C281.862 212.658 280.286 214.087 280.28 216.015L280.283 216.021Z" fill="#999DB9"/>
<path d="M270.777 123.629C253.826 145.431 232.926 170.887 213.374 190.382C229.796 193.126 346.724 193.563 363.314 192.151C409.259 188.241 401.758 189.584 447.824 191.671V128.355L270.78 123.629H270.777Z" fill="#004167"/>
</g>
<path d="M121.097 237.78C121.408 237.665 121.736 237.55 122.063 237.601C122.573 237.679 122.94 238.142 123.147 238.615C123.553 239.549 123.519 240.687 122.968 241.544C122.419 242.402 121.338 242.915 120.341 242.71C120.408 241.286 120.604 239.871 120.929 238.481" fill="#BA8057"/>
<path d="M94.6148 243.475C94.1612 243.876 93.4332 243.828 92.9236 243.498C92.4168 243.167 92.0948 242.615 91.8624 242.057C91.6356 241.516 91.4732 240.939 91.476 240.353C91.4788 239.767 91.6636 239.168 92.0612 238.736C92.47 238.293 93.0916 238.058 93.6908 238.119C93.7692 238.128 93.8532 238.142 93.912 238.195C93.9876 238.262 94.0044 238.372 94.0184 238.472C94.1864 239.759 94.3516 241.045 94.5196 242.334" fill="#BA8057"/>
<path d="M54.5832 219.258C53.2784 216.842 53.3428 213.582 53.6872 210.858C53.9756 208.588 53.6032 204.308 54.6672 202.282C55.1796 201.304 54.6476 200.802 53.0124 200.573C51.3464 200.847 50.4812 203.992 50.54 205.687C50.582 206.912 47.9948 198.443 47.6784 194.802C47.5244 193.017 47.3396 192.792 46.8132 191.562C46.5136 190.867 45.2536 190.449 44.2148 190.931C43.4504 191.285 45.5588 197.868 45.332 200.948C45.2732 201.736 42.28 196.719 41.3224 193.49C40.1912 190.506 38.4608 190.999 37.9932 191.624C37.4276 192.378 37.3912 192.655 37.7272 193.429C38.9648 196.287 40.2024 199.146 41.44 202.005C41.0676 202.277 40.5888 201.862 40.3256 201.483C39.1188 199.74 35.9884 194.051 35.448 193.409C34.7144 192.543 34.0816 192.305 33.0652 193.238C32.5836 193.681 36.1368 201.366 37.2344 202.815C37.6964 203.426 38.2256 205.093 37.7608 204.897C37.296 204.701 34.3252 200.278 31.9592 198.667C31.6204 198.437 31.1528 198.426 30.842 198.692C30.3856 199.079 30.646 199.723 30.9344 200.186C32.1524 202.139 33.7428 203.826 35.1932 205.612C37.142 208.011 38.7408 210.623 40.7932 212.957C42.9492 215.41 43.2824 213.56 44.2008 218.193C48.02 237.452 51.3968 248.696 53.4408 254.949C54.4572 258.054 63.6132 266.319 70.0168 273.334C73.5252 277.179 84.9016 261.443 81.9504 259.366C76.2272 255.339 72.828 253.702 69.384 250.143C60.1636 240.608 65.7552 239.935 54.5776 219.258H54.5832Z" fill="#BA8057"/>
<path d="M85.1676 429.802C85.4504 433.182 85.7332 436.562 86.0188 439.939C86.128 441.234 86.226 442.588 85.708 443.779C84.9016 445.634 82.8604 446.564 80.9928 447.332C78.2432 448.465 75.4936 449.594 72.7468 450.726C72.2316 450.939 71.6996 451.164 71.3272 451.578C70.532 452.467 70.7728 453.896 71.3916 454.916C72.9792 457.54 76.496 458.484 79.4948 457.845C82.4908 457.206 85.0528 455.297 87.3432 453.263C89.6392 451.222 95.5332 446.884 94.8612 441.993C94.1892 437.103 96.4964 433.451 96.4656 429.146C96.4656 428.897 92.6744 428.675 92.526 428.474C92.2516 428.098 91.6832 428.157 91.2296 428.258C90.1628 428.49 89.096 428.726 88.0264 428.958" fill="#BA8057"/>
<path d="M111.703 428.611C113.257 433.061 114.904 437.89 113.546 442.405C113.179 443.622 112.706 444.846 112.773 446.113C112.851 447.568 113.63 448.882 114.43 450.101C115.52 451.758 116.684 453.364 117.925 454.911C118.373 455.471 118.843 456.032 119.462 456.396C120.274 456.875 121.257 456.962 122.2 456.957C124.2 456.945 126.199 456.578 128.072 455.875C128.66 455.653 129.27 455.373 129.615 454.846C130.214 453.927 129.766 452.708 129.251 451.741C128.064 449.524 126.554 447.481 124.782 445.696C123.948 444.855 123.049 444.065 122.349 443.112C120.106 440.06 120.232 435.926 120.518 432.145C120.666 430.183 120.506 427.675 118.661 426.994C117.323 426.5 115.791 427.33 114.419 426.94" fill="#BA8057"/>
<path d="M142.545 286.924C144.082 287.63 145.471 288.653 146.6 289.915C146.989 290.349 147.372 290.831 147.918 291.044C148.674 291.336 149.514 291.033 150.27 290.741C161.84 286.263 174.21 284.066 186.6 283.438C186.959 283.421 187.34 283.407 187.659 283.575C188.107 283.811 188.308 284.332 188.454 284.817C189.249 287.471 178.954 295.792 175.255 296.588C165.701 298.642 156.758 303.028 147.176 304.945C146.264 305.127 145.289 305.284 144.424 304.94C143.562 304.598 142.96 303.821 142.402 303.079C141.154 301.419 139.905 299.76 138.656 298.101C138.146 297.423 137.617 296.703 137.511 295.859C137.421 295.144 137.648 294.43 137.906 293.757C138.754 291.543 139.978 289.475 141.506 287.667" fill="#BA8057"/>
<path d="M99.4028 252.505C100.19 255.655 101.273 258.394 98.9576 262.18C98.0112 263.73 98.924 265.82 99.5064 267.541C100.176 269.52 101.268 271.431 102.976 272.636C104.684 273.839 107.083 274.195 108.878 273.124C110.169 272.353 110.978 270.994 111.658 269.654C112.549 267.903 113.316 266.064 113.607 264.119C114.251 259.823 111.434 257.861 112.773 250.367C112.874 249.803 110.348 250.479 109.866 250.171C109.374 249.854 108.741 249.868 108.156 249.927C105.916 250.151 103.723 250.854 101.769 251.978" fill="#AF7751"/>
<path d="M86.4892 320.774C103.219 319.437 119.946 318.103 136.676 316.767C137.22 316.722 137.808 316.691 138.27 316.982C138.765 317.296 138.978 317.899 139.154 318.459C142.867 330.211 141.221 342.153 141.114 354.476C140.888 380.829 135.363 406.613 126.454 431.413C126.244 431.996 126 432.624 125.474 432.949C125.076 433.196 124.583 433.224 124.116 433.244C121.859 433.344 113.722 433.445 111.465 433.546C110.914 433.572 110.32 433.585 109.864 433.274C109.192 432.82 109.099 431.887 109.068 431.074C108.326 411.857 113.061 381.538 109.967 362.556C105.594 381.403 101.55 411.655 99.4224 430.887C99.3468 431.565 99.2236 432.33 98.6608 432.711C98.2436 432.994 97.7032 432.983 97.202 432.961C94.8724 432.86 86.6572 433.025 84.3276 432.924C83.6584 432.896 82.9444 432.851 82.4096 432.45C81.7544 431.96 81.4772 431.094 81.3876 430.281C72.5312 349.257 86.4892 320.774 86.4892 320.774Z" fill="#D1B08A"/>
<path d="M82.292 303.09C83.0928 292.653 81.9392 287.978 80.3264 286.624C78.7136 285.271 76.5828 284.747 74.536 284.265C71.2488 283.488 67.9616 282.712 64.6716 281.936C70.7924 272.908 74.4436 262.222 75.1268 251.334C79.506 255.599 84.8596 258.713 90.2804 261.538C92.0024 262.435 93.7776 263.337 95.0768 264.784C96.9052 266.818 104.751 277.395 113.739 265.846C115.27 263.875 118.426 264.038 120.87 264.523C123.318 265.008 125.566 266.174 127.778 267.326C127.778 267.326 143.388 284.489 146.597 284.489C149.806 284.489 137.505 302.42 137.505 302.42L82.2892 303.09H82.292Z" fill="#004167"/>
<path d="M87.5056 261.205C92.5848 263.346 92.5848 263.612 97.6668 267.894C96.1968 270.705 99.2712 270.837 91.2492 269.231" fill="#DF6436"/>
<path d="M87.4384 261.448C88.858 262.045 90.2916 262.642 91.6188 263.43C92.7584 264.105 93.7832 264.946 94.7968 265.795C95.6956 266.552 96.5888 267.317 97.4876 268.074L97.4484 267.768C97.2272 268.197 97.0564 268.648 96.9724 269.125C96.9444 269.29 96.9248 269.455 96.9052 269.621C96.8884 269.769 96.8996 269.761 96.8604 269.909C96.8436 269.974 96.838 269.982 96.8184 269.988C96.7596 270.005 96.8464 269.988 96.81 269.994C96.7876 269.996 96.7652 270.008 96.7428 270.01C96.7148 270.016 96.7736 270.01 96.712 270.013C96.6728 270.016 96.6336 270.016 96.5944 270.016C96.0904 270.016 95.5724 269.873 95.0824 269.772C93.8252 269.514 92.5708 269.242 91.3136 268.99C90.9972 268.926 90.86 269.413 91.1792 269.478C92.3916 269.722 93.6012 269.98 94.8136 270.232C95.3736 270.347 95.9532 270.495 96.5272 270.518C96.8044 270.529 97.1096 270.487 97.2664 270.232C97.4036 270.008 97.3952 269.713 97.426 269.461C97.482 269.004 97.65 268.472 97.8796 268.026C97.9272 267.934 97.9272 267.794 97.8404 267.721C95.4492 265.703 93.1672 263.542 90.3196 262.18C89.4152 261.748 88.4912 261.356 87.5672 260.966C87.2676 260.84 87.1388 261.328 87.4328 261.454L87.4384 261.448Z" fill="white"/>
<path d="M141.47 342.607C141.728 334.431 141.666 326.402 139.157 318.459C138.981 317.899 138.765 317.296 138.272 316.982C137.81 316.691 137.222 316.722 136.679 316.767C119.949 318.103 103.222 319.437 86.492 320.774C86.492 320.774 82.9752 327.949 80.5924 345.339C80.5924 345.339 87.3292 341.679 96.488 340.659C105.647 339.642 141.473 342.607 141.473 342.607H141.47Z" fill="#BC9B7A"/>
<path d="M127.078 272.177C123.603 268.965 115.847 267.628 116.917 264.682C122.8 265.218 123.334 266.019 126.543 267.359" fill="#DF6436"/>
<path d="M127.257 272C125.784 270.652 123.928 269.783 122.142 268.934C121.276 268.525 120.406 268.124 119.56 267.67C118.891 267.311 118.205 266.925 117.662 266.387C117.205 265.933 116.939 265.386 117.16 264.75L116.917 264.935C118.552 265.086 120.198 265.268 121.789 265.694C122.786 265.963 123.726 266.364 124.662 266.796C125.264 267.073 125.866 267.345 126.476 267.6C126.776 267.726 126.904 267.236 126.61 267.112C125.591 266.686 124.606 266.188 123.584 265.767C122.469 265.31 121.307 265.019 120.12 264.82C119.059 264.641 117.986 264.523 116.917 264.425C116.802 264.413 116.707 264.512 116.673 264.61C116.18 266.025 117.527 267.054 118.586 267.695C120.322 268.746 122.234 269.472 124.023 270.425C125.042 270.969 126.045 271.569 126.899 272.351C127.137 272.569 127.495 272.213 127.254 271.995L127.257 272Z" fill="white"/>
<path d="M100.094 258.833C98.3276 261.434 96.124 263.735 93.6068 265.619C95.2532 270.731 96.8968 275.843 98.5432 280.955C99.2488 279.06 99.9544 277.165 100.657 275.268C101.013 274.31 101.385 273.323 102.077 272.569C102.768 271.815 103.866 271.339 104.832 271.669C105.638 271.947 106.173 272.695 106.652 273.401C108.06 275.475 109.466 277.547 110.874 279.621C113.162 275.473 115.447 271.322 117.734 267.174C118.16 266.401 118.6 265.579 118.574 264.697C118.535 263.278 117.348 262.197 116.256 261.294C115.167 260.395 114.075 259.495 112.986 258.595C113.378 262.32 111.972 266.196 109.281 268.8C107.671 270.358 105.165 271.473 103.228 270.349C102.122 269.708 101.489 268.488 101.052 267.283C100.064 264.548 99.8004 261.555 100.296 258.691" fill="#EC642D"/>
<path d="M135.1 303.224C138.496 301.386 141.518 296.534 143.388 292.518C141.145 286.341 133.762 278.334 131.622 276.459" fill="#00314D"/>
<path d="M135.302 303.569C137.502 302.361 139.185 300.321 140.591 298.283C141.369 297.154 142.072 295.974 142.716 294.763C143.024 294.186 143.318 293.597 143.601 293.006C143.744 292.706 143.825 292.532 143.702 292.213C143.604 291.949 143.497 291.691 143.385 291.434C142.475 289.309 141.232 287.331 139.902 285.45C138.572 283.569 137.11 281.742 135.584 279.999C134.425 278.676 133.232 277.342 131.908 276.179C131.522 275.84 130.953 276.406 131.34 276.748C132.888 278.107 134.268 279.685 135.604 281.249C137.533 283.508 139.353 285.882 140.899 288.424C141.714 289.763 142.461 291.156 143.002 292.63L143.041 292.322C142.05 294.441 140.904 296.501 139.535 298.398C138.284 300.133 136.794 301.843 134.896 302.882C134.442 303.132 134.848 303.824 135.302 303.575V303.569Z" fill="#00314D"/>
<path d="M92.064 229.092C91.9156 231.53 94.0576 235.16 93.6684 237.573C92.834 242.744 95.4184 247.617 97.7564 252.301C101.063 258.92 105.23 257.659 110.152 255.885C115.503 253.957 119.031 248.601 120.322 243.058C121.612 237.514 121.036 231.727 120.45 226.062C120.173 223.378 115.167 221.116 114.89 218.431" fill="#BA8057"/>
<path d="M83.762 286.361C83.3588 303.547 77.812 322.26 75.6616 339.314C87.1892 334.255 100.307 334.785 112.86 335.701C125.415 336.62 136.492 338.061 148.448 334.118C146.521 326.001 139.21 300.326 137.332 295.492C135.1 289.741 133.49 283.746 132.544 277.647C132.381 276.596 132.199 275.461 131.446 274.708" fill="#004167"/>
<path d="M89.6448 332.397C85.7472 318.437 93.1196 290.912 81.6228 285.024C89.9108 298.942 80.0184 305.096 79.2176 334.003" fill="#DF6436"/>
<path d="M90.0312 332.29C89.1744 329.205 88.9308 325.973 88.8216 322.784C88.6956 319.11 88.7852 315.43 88.844 311.755C88.9028 308.081 88.9532 304.415 88.7264 300.752C88.5332 297.608 88.1664 294.393 87.122 291.406C86.2568 288.934 84.8596 286.599 82.628 285.145C82.3676 284.976 82.0988 284.819 81.8244 284.679C81.48 284.5 81.0628 284.87 81.2756 285.229C82.6448 287.535 83.734 290.007 84.2212 292.658C84.6412 294.957 84.5656 297.314 84.2352 299.617C83.846 302.327 83.174 304.987 82.5384 307.647C81.718 311.077 80.9452 314.516 80.3572 317.994C79.5788 322.602 79.0972 327.257 78.8928 331.926C78.862 332.618 78.8368 333.31 78.8172 334.003C78.8032 334.518 79.604 334.518 79.618 334.003C79.7552 329.112 80.1724 324.23 80.934 319.398C81.5024 315.805 82.2668 312.252 83.1068 308.715C83.7564 305.979 84.462 303.244 84.91 300.466C85.2964 298.073 85.456 295.652 85.12 293.244C84.7588 290.629 83.804 288.141 82.5412 285.831C82.3564 285.492 82.1632 285.156 81.9672 284.825L81.4184 285.374C83.6696 286.537 85.1704 288.614 86.0888 290.932C87.2228 293.796 87.6428 296.916 87.8696 299.97C88.1356 303.563 88.1076 307.17 88.0544 310.769C88.0012 314.435 87.9032 318.103 87.9872 321.769C88.0628 325.012 88.2588 328.297 88.9896 331.466C89.0708 331.814 89.1576 332.161 89.2528 332.506C89.39 333.002 90.1656 332.792 90.0256 332.293L90.0312 332.29Z" fill="white"/>
<path d="M93.506 236.693C93.0692 237.278 92.7248 237.932 92.4868 238.621C92.3832 238.924 92.3104 239.294 92.5176 239.537C92.8172 239.891 93.3912 239.675 93.7664 239.408C95.648 238.083 96.8996 236.065 98.2912 234.229C99.6828 232.394 101.416 230.611 103.67 230.137C104.712 229.919 105.79 229.997 106.856 229.961C109.11 229.882 111.342 229.271 113.322 228.19C113.266 230.308 114.374 232.326 115.878 233.82C117.382 235.314 119.258 236.365 121.111 237.391C122.343 232.814 120.002 228.111 117.734 223.949C117.149 222.873 116.488 221.727 115.371 221.222C114.528 220.841 113.557 220.894 112.641 221.037C108.71 221.651 105.179 223.747 101.884 225.978C98.1344 228.515 94.2928 231.648 93.2876 236.065" fill="#A77150"/>
<path d="M98.0672 333.064C98.0672 333.064 91.6272 332.456 78.8144 335.471C78.484 336.152 78.8704 336.273 78.5484 337.343C87.1052 334.936 91.2464 335.37 98.602 334.667L98.0672 333.061V333.064Z" fill="#004167"/>
<path d="M92.8564 295.937C92.8564 295.937 93.5116 287.496 82.824 279.806C82.0932 280.002 77.8316 283.555 76.8096 284.015C84.2436 288.892 86.5536 292.378 91.9156 297.47L92.8564 295.937Z" fill="#004167"/>
<path d="M97.2468 234.473C101.08 237.102 101.055 243.576 101.318 244.151C101.954 243.248 103.734 241.743 104.37 240.841C104.857 240.148 105.168 239.366 105.386 238.548C105.386 238.548 107.038 232.64 102.27 232.539C97.5016 232.438 97.2468 234.473 97.2468 234.473Z" fill="#A77150"/>
<path d="M111.406 233.052C111.023 233.414 110.866 233.952 110.754 234.465C110.471 235.754 110.359 237.08 110.424 238.4C110.757 238.573 111.166 238.543 111.513 238.4C111.86 238.257 112.16 238.024 112.454 237.791C113.207 237.194 113.963 236.598 114.716 236.001C114.901 235.855 115.102 235.675 115.097 235.44C115.094 235.291 115.007 235.16 114.918 235.042C114.097 233.941 112.865 233.159 111.521 232.881" fill="#A77150"/>
<path d="M50.2012 206.663C50.0696 206.595 49.9128 206.607 49.7672 206.629C48.4092 206.82 47.1296 207.526 46.242 208.571" fill="#A77150"/>
<path d="M45.0632 207.299C45.416 206.909 45.5308 206.36 45.6036 205.839C45.7856 204.533 45.794 203.201 45.6288 201.89" fill="#A77150"/>
<path d="M127.154 287.574C127.179 287.602 127.235 287.597 127.263 287.563C127.45 287.336 127.604 287.095 127.722 286.846C127.77 286.748 127.806 286.63 127.722 286.563C127.688 286.535 127.638 286.521 127.588 286.512C127.459 286.49 127.319 286.487 127.184 286.523C127.05 286.56 126.932 286.647 126.874 286.75C126.717 287.025 127.025 287.426 127.154 287.574Z" fill="#EC642D"/>
<path d="M127.128 286.694C127.274 286.641 127.352 286.613 127.462 286.619C127.571 286.624 127.669 286.706 127.63 286.792C127.618 286.82 127.593 286.843 127.571 286.865C127.49 286.941 127.383 287.008 127.263 287.031C127.142 287.053 127.019 287.019 126.972 286.944C126.924 286.868 126.96 286.756 127.128 286.694Z" fill="#CCD9E1"/>
<path d="M127.302 286.708C127.302 286.708 127.302 286.708 127.302 286.706V286.711C127.302 286.714 127.302 286.72 127.299 286.722C127.299 286.728 127.296 286.734 127.294 286.736C127.296 286.731 127.294 286.745 127.294 286.736C127.294 286.736 127.294 286.742 127.291 286.742C127.28 286.764 127.268 286.784 127.257 286.807C127.235 286.846 127.207 286.882 127.184 286.921C127.173 286.941 127.179 286.969 127.198 286.98C127.218 286.991 127.243 286.986 127.257 286.966C127.282 286.927 127.31 286.888 127.336 286.846C127.361 286.804 127.386 286.759 127.392 286.708C127.392 286.686 127.372 286.664 127.35 286.666C127.324 286.666 127.308 286.686 127.308 286.708H127.302Z" fill="#004167"/>
<path d="M127.481 286.781C127.358 286.776 127.232 286.781 127.109 286.778C127.053 286.778 127.053 286.863 127.109 286.865C127.232 286.871 127.358 286.865 127.481 286.868C127.537 286.868 127.537 286.784 127.481 286.781Z" fill="#004167"/>
<path d="M120.638 287.894C120.613 288.746 120.588 289.601 120.562 290.453C120.557 290.654 120.739 290.825 120.935 290.825C121.142 290.825 121.302 290.654 121.307 290.453L121.383 287.894C121.388 287.692 121.206 287.521 121.01 287.521C120.803 287.521 120.644 287.692 120.638 287.894Z" fill="white"/>
<path d="M119.927 288.171C120.789 287.986 121.66 287.855 122.536 287.782C122.738 287.765 122.909 287.622 122.909 287.409C122.909 287.221 122.738 287.019 122.536 287.036C121.593 287.115 120.655 287.255 119.728 287.454C119.532 287.496 119.417 287.726 119.468 287.913C119.524 288.118 119.728 288.216 119.927 288.174V288.171Z" fill="white"/>
<path d="M121.492 288.496C121.478 288.824 121.478 289.152 121.492 289.48C121.506 289.808 121.509 290.147 121.73 290.405C121.993 290.708 122.469 290.657 122.732 290.385C122.996 290.114 123.015 289.732 123.046 289.388C123.08 289.015 123.08 288.642 123.052 288.269C123.038 288.076 122.892 287.888 122.679 287.897C122.492 287.905 122.29 288.062 122.307 288.269C122.335 288.623 122.335 288.976 122.307 289.329C122.301 289.41 122.293 289.491 122.282 289.575C122.282 289.595 122.276 289.612 122.276 289.631C122.282 289.584 122.282 289.584 122.276 289.626C122.27 289.657 122.265 289.688 122.259 289.721C122.251 289.763 122.24 289.802 122.223 289.842C122.248 289.78 122.217 289.839 122.203 289.864C122.254 289.774 122.158 289.903 122.203 289.864C122.251 289.825 122.097 289.909 122.206 289.864C122.136 289.892 122.268 289.875 122.198 289.867C122.251 289.878 122.259 289.875 122.217 289.867C122.248 289.872 122.273 289.887 122.293 289.912C122.27 289.889 122.27 289.889 122.287 289.912C122.304 289.937 122.304 289.937 122.287 289.912C122.268 289.875 122.27 289.884 122.29 289.931C122.284 289.92 122.282 289.906 122.276 289.895C122.268 289.864 122.262 289.833 122.254 289.805C122.234 289.724 122.256 289.875 122.254 289.797C122.251 289.718 122.242 289.637 122.24 289.556C122.223 289.203 122.223 288.85 122.24 288.496C122.248 288.3 122.063 288.115 121.867 288.124C121.657 288.132 121.503 288.286 121.495 288.496H121.492Z" fill="white"/>
<path d="M123.22 288.348C123.144 289.474 123.119 290.601 123.138 291.731C123.147 292.21 123.892 292.213 123.883 291.731C123.861 290.601 123.889 289.474 123.964 288.348C123.978 288.146 123.782 287.975 123.592 287.975C123.379 287.975 123.234 288.146 123.22 288.348Z" fill="white"/>
<path d="M123.668 288.384C123.698 288.384 123.726 288.381 123.757 288.381C123.771 288.381 123.788 288.381 123.802 288.381C123.841 288.384 123.833 288.381 123.768 288.376C123.822 288.395 123.886 288.401 123.942 288.421C124.009 288.443 123.869 288.381 123.936 288.421C123.962 288.435 123.99 288.449 124.015 288.463C124.029 288.471 124.04 288.48 124.051 288.488C124.082 288.51 124.076 288.505 124.029 288.468C124.04 288.491 124.076 288.51 124.096 288.527C124.116 288.544 124.132 288.566 124.149 288.583C124.166 288.606 124.16 288.594 124.124 288.552C124.132 288.564 124.141 288.578 124.149 288.589C124.166 288.614 124.18 288.642 124.194 288.67C124.211 288.707 124.208 288.698 124.186 288.645C124.191 288.659 124.197 288.673 124.202 288.69C124.211 288.721 124.219 288.749 124.228 288.779C124.228 288.791 124.233 288.802 124.233 288.813C124.239 288.841 124.236 288.827 124.228 288.771C124.219 288.791 124.233 288.844 124.233 288.864C124.233 288.883 124.219 288.939 124.228 288.956C124.236 288.894 124.239 288.886 124.23 288.925C124.228 288.939 124.225 288.956 124.222 288.97C124.214 289.001 124.205 289.029 124.194 289.06C124.174 289.127 124.233 288.99 124.194 289.057C124.18 289.082 124.166 289.105 124.152 289.13C124.216 289.057 124.121 289.183 124.152 289.13C124.135 289.149 124.116 289.166 124.099 289.183C124.048 289.231 124.169 289.138 124.113 289.172C124.09 289.186 124.071 289.2 124.048 289.211C124.037 289.217 124.026 289.222 124.015 289.228C123.978 289.245 123.992 289.239 124.051 289.214C124.026 289.219 124.004 289.231 123.981 289.236C123.97 289.239 123.956 289.242 123.945 289.245C123.906 289.25 123.92 289.25 123.99 289.239C123.973 289.239 123.953 289.239 123.936 289.239C123.925 289.239 123.914 289.239 123.9 289.239C123.861 289.236 123.878 289.239 123.948 289.245C123.928 289.236 123.9 289.231 123.88 289.225C123.942 289.253 123.956 289.259 123.922 289.242C123.911 289.236 123.903 289.231 123.892 289.225C123.841 289.197 123.964 289.292 123.897 289.225C123.76 289.085 123.505 289.077 123.371 289.225C123.236 289.374 123.225 289.603 123.371 289.752C123.578 289.962 123.869 290.018 124.152 289.959C124.412 289.903 124.636 289.732 124.785 289.519C125.118 289.046 125.006 288.303 124.564 287.939C124.314 287.731 123.998 287.605 123.668 287.63C123.474 287.647 123.287 287.79 123.295 288.003C123.304 288.191 123.46 288.393 123.668 288.376V288.384Z" fill="white"/>
<path d="M126.563 288.118C126.294 287.827 125.812 287.818 125.493 288.037C125.152 288.272 125.026 288.659 124.992 289.054C124.978 289.231 124.97 289.427 125.031 289.595C125.112 289.816 125.28 289.99 125.513 290.052C125.91 290.156 126.305 289.943 126.504 289.598C126.605 289.421 126.658 289.225 126.697 289.029C126.717 288.939 126.734 288.847 126.759 288.757C126.762 288.743 126.79 288.617 126.804 288.614C126.804 288.614 126.77 288.687 126.795 288.634C126.809 288.603 126.826 288.575 126.843 288.547L126.162 288.457C126.258 288.827 126.353 289.194 126.448 289.564C126.496 289.752 126.717 289.886 126.907 289.825C127.098 289.763 127.221 289.57 127.168 289.365C127.072 288.995 126.977 288.628 126.882 288.258C126.801 287.944 126.361 287.897 126.202 288.168C126.042 288.44 126.017 288.723 125.938 289.012C125.93 289.043 125.922 289.071 125.913 289.099C125.905 289.124 125.882 289.161 125.882 289.186C125.882 289.138 125.91 289.121 125.894 289.158C125.888 289.172 125.88 289.186 125.874 289.197C125.857 289.231 125.832 289.259 125.815 289.292C125.821 289.284 125.874 289.228 125.832 289.267C125.821 289.278 125.812 289.29 125.801 289.298C125.796 289.304 125.776 289.326 125.768 289.329C125.765 289.329 125.852 289.276 125.798 289.304C125.787 289.309 125.776 289.315 125.768 289.323C125.74 289.34 125.723 289.323 125.807 289.309C125.784 289.315 125.759 289.323 125.737 289.332C125.678 289.351 125.784 289.326 125.782 289.329C125.776 289.332 125.754 289.329 125.745 289.329C125.734 289.329 125.72 289.329 125.709 289.329C125.647 289.332 125.759 289.332 125.754 289.337C125.742 289.346 125.698 289.32 125.686 289.32C125.768 289.332 125.756 289.354 125.728 289.337C125.72 289.334 125.714 289.329 125.706 289.323C125.681 289.306 125.695 289.318 125.748 289.354C125.745 289.348 125.723 289.334 125.723 289.329C125.723 289.329 125.784 289.418 125.748 289.357C125.72 289.312 125.768 289.365 125.756 289.385C125.756 289.385 125.742 289.34 125.742 289.343C125.74 289.329 125.74 289.312 125.734 289.298C125.737 289.306 125.74 289.39 125.74 289.329C125.74 289.295 125.74 289.259 125.74 289.225C125.74 289.169 125.742 289.11 125.748 289.054C125.748 289.04 125.751 289.023 125.754 289.009C125.759 288.945 125.751 289.034 125.748 289.04C125.756 289.004 125.759 288.964 125.768 288.928C125.773 288.897 125.782 288.869 125.79 288.841C125.796 288.827 125.798 288.813 125.804 288.799C125.818 288.76 125.824 288.793 125.793 288.827C125.81 288.81 125.821 288.768 125.835 288.749C125.843 288.735 125.852 288.723 125.857 288.712C125.891 288.656 125.815 288.757 125.846 288.726C125.863 288.707 125.894 288.684 125.908 288.665C125.874 288.715 125.846 288.707 125.877 288.687C125.894 288.676 125.91 288.667 125.927 288.656C125.936 288.651 125.955 288.645 125.961 288.639C125.944 288.653 125.874 288.67 125.936 288.653C125.952 288.648 126.003 288.625 126.02 288.631C126.022 288.631 125.913 288.637 125.978 288.637C125.994 288.637 126.008 288.637 126.025 288.637C126.042 288.637 126.087 288.642 126.022 288.634C125.952 288.625 126.011 288.634 126.028 288.637C126.036 288.637 126.053 288.645 126.062 288.648C126.003 288.623 125.989 288.614 126.014 288.628C126.022 288.631 126.031 288.637 126.039 288.642C126.07 288.656 126.059 288.679 126.008 288.614C126.02 288.628 126.036 288.639 126.048 288.653C126.179 288.796 126.442 288.799 126.574 288.653C126.714 288.499 126.717 288.278 126.574 288.126L126.563 288.118Z" fill="white"/>
<path d="M127.142 288.197L127.229 289.699C127.24 289.892 127.392 290.08 127.602 290.071C127.795 290.063 127.985 289.906 127.974 289.699L127.887 288.197C127.876 288.003 127.725 287.815 127.515 287.824C127.322 287.832 127.131 287.989 127.142 288.197Z" fill="white"/>
<path d="M129.774 288.141C129.461 287.857 129.024 287.843 128.66 288.031C128.324 288.205 128.122 288.572 128.044 288.931C128.008 289.096 127.974 289.281 127.988 289.452C128.008 289.707 128.142 289.929 128.4 289.999C128.562 290.043 128.752 290.032 128.918 289.996C129.094 289.954 129.217 289.847 129.329 289.71C129.464 289.545 129.584 289.371 129.671 289.178C129.772 288.956 129.83 288.743 129.861 288.502L129.13 288.6C129.161 288.687 129.184 288.777 129.2 288.869C129.206 288.897 129.231 288.967 129.2 288.875C129.206 288.894 129.206 288.92 129.209 288.939C129.214 288.981 129.217 289.023 129.22 289.068C129.237 289.27 129.254 289.477 129.31 289.674C129.335 289.769 129.368 289.875 129.424 289.957C129.536 290.116 129.721 290.214 129.917 290.164C130.088 290.119 130.206 289.968 130.231 289.797C130.256 289.606 130.138 289.385 129.934 289.348C129.833 289.332 129.738 289.332 129.646 289.385C129.567 289.43 129.494 289.519 129.475 289.609C129.433 289.791 129.531 290.032 129.735 290.069L129.668 290.038L129.534 289.903C129.41 289.584 129.573 289.455 130.024 289.517C130.06 289.567 130.068 289.581 130.054 289.556C130.04 289.528 130.088 289.648 130.06 289.57C130.04 289.514 130.024 289.455 130.012 289.393C130.007 289.368 130.001 289.34 129.996 289.315C129.99 289.29 129.965 289.214 129.996 289.309C129.982 289.259 129.982 289.194 129.979 289.144C129.956 288.894 129.937 288.642 129.853 288.404C129.791 288.227 129.634 288.112 129.444 288.138C129.366 288.149 129.284 288.18 129.231 288.241C129.158 288.32 129.136 288.401 129.122 288.505C129.136 288.393 129.122 288.496 129.116 288.524C129.111 288.555 129.102 288.586 129.094 288.62C129.077 288.687 129.052 288.751 129.03 288.816C129.013 288.864 129.06 288.749 129.038 288.794C129.032 288.805 129.027 288.816 129.024 288.827C129.01 288.858 128.996 288.886 128.979 288.914C128.946 288.976 128.912 289.035 128.873 289.093C128.856 289.121 128.836 289.147 128.817 289.175C128.808 289.186 128.772 289.225 128.808 289.186C128.845 289.147 128.808 289.186 128.8 289.197C128.78 289.222 128.758 289.248 128.736 289.27C128.702 289.306 128.635 289.348 128.744 289.278C128.738 289.284 128.73 289.287 128.722 289.29C128.722 289.29 128.822 289.256 128.769 289.267C128.747 289.273 128.727 289.278 128.708 289.284C128.699 289.284 128.691 289.284 128.682 289.29C128.638 289.301 128.775 289.281 128.73 289.284C128.702 289.284 128.677 289.287 128.649 289.287C128.626 289.287 128.604 289.284 128.582 289.284C128.688 289.281 128.649 289.292 128.604 289.284C128.601 289.284 128.579 289.278 128.579 289.276C128.579 289.27 128.674 289.32 128.638 289.298C128.668 289.315 128.705 289.346 128.722 289.376C128.733 289.396 128.75 289.463 128.736 289.405C128.727 289.36 128.741 289.491 128.741 289.444C128.741 289.433 128.741 289.424 128.741 289.413C128.741 289.385 128.741 289.357 128.744 289.332C128.744 289.301 128.75 289.27 128.752 289.239C128.758 289.175 128.752 289.262 128.747 289.27C128.752 289.253 128.752 289.231 128.755 289.214C128.766 289.152 128.778 289.093 128.797 289.035C128.806 289.009 128.811 288.984 128.822 288.959C128.822 288.956 128.839 288.922 128.839 288.917C128.817 288.967 128.811 288.979 128.822 288.953C128.828 288.942 128.831 288.934 128.836 288.922C128.862 288.872 128.892 288.824 128.923 288.777C128.948 288.737 128.873 288.833 128.906 288.799C128.918 288.788 128.926 288.777 128.937 288.765C128.957 288.743 128.985 288.726 129.004 288.704C128.96 288.76 128.948 288.743 128.976 288.726C128.99 288.718 129.004 288.707 129.018 288.698C129.03 288.693 129.041 288.684 129.055 288.679C129.111 288.651 129.055 288.684 129.03 288.687C129.063 288.681 129.094 288.665 129.125 288.656C129.13 288.656 129.164 288.648 129.164 288.648C129.164 288.651 129.066 288.656 129.125 288.653C129.144 288.653 129.206 288.639 129.223 288.653C129.223 288.653 129.119 288.634 129.181 288.648C129.198 288.651 129.212 288.653 129.228 288.659C129.24 288.662 129.254 288.667 129.265 288.67C129.298 288.679 129.184 288.625 129.237 288.659C129.248 288.665 129.259 288.673 129.27 288.679C129.326 288.712 129.203 288.623 129.256 288.67C129.399 288.802 129.643 288.824 129.783 288.67C129.914 288.527 129.937 288.283 129.783 288.143L129.774 288.141Z" fill="white"/>
<path d="M195.314 270.806L166.667 319.737L155.022 309.791L178.167 271.714L195.314 270.806Z" fill="#ADA6AA"/>
<path d="M193.04 273.068L167.138 316.425L156.005 308.776L178.094 272.847L193.04 273.068Z" fill="#33202B"/>
<path d="M196.487 271.448L167.891 320.278L166.692 319.687L195.289 270.857L196.487 271.448Z" fill="#D6D2D5"/>
<path d="M106.182 245.269C106.896 245.754 108.226 245.916 108.34 244.77C108.366 244.585 108.245 244.403 108.066 244.355C107.772 244.265 107.635 244.543 107.512 244.75C107.229 244.703 106.932 244.635 106.688 244.476C106.467 244.215 106.1 244.052 105.784 244.251C105.571 244.372 105.487 244.624 105.263 244.725C105.078 244.787 104.95 244.764 104.712 244.773C104.412 244.773 104.09 244.801 103.821 244.638C103.541 244.467 103.186 244.321 102.85 244.417C102.735 244.425 102.598 244.487 102.505 244.574C102.48 244.49 102.421 244.414 102.318 244.361C102.22 244.322 101.819 244.195 101.987 243.862C102.113 243.725 102.234 243.425 102.071 243.318C101.69 243.088 101.433 243.747 101.444 244.159C101.444 244.579 101.73 244.902 102.029 244.997C102.214 245.067 102.371 244.994 102.455 244.874C102.469 244.893 102.48 244.913 102.5 244.932C102.64 245.036 102.824 245.025 102.987 245.067C103.466 245.42 104.003 245.667 104.605 245.714C105.162 245.857 105.84 245.787 106.182 245.266V245.269Z" fill="#4F3041"/>
<path d="M103.208 242.189C103.303 242.228 103.412 242.197 103.482 242.124C103.961 241.808 104.376 241.404 104.742 240.964C105.921 239.577 106.316 237.623 106.338 235.852C106.226 235.434 105.658 235.353 105.412 235.701C105.16 236.115 105.227 236.648 105.16 237.113C105.073 238.764 104.49 240.342 103.3 241.524C103.093 241.687 102.855 242.043 103.208 242.189Z" fill="#4F3041"/>
<path d="M102.329 233.069C102.903 232.761 102.774 231.864 102.152 231.704C101.741 231.581 101.287 231.592 100.864 231.626C99.8536 231.656 97.0844 233.178 96.9892 234.235C96.9892 234.235 96.9892 234.235 96.9892 234.232C97.02 234.619 97.5968 234.728 97.7508 234.347C98.63 233.7 99.5848 233.128 100.696 232.988C101.248 232.904 101.805 233.332 102.329 233.069Z" fill="#4F3041"/>
<path d="M115.73 234.927C115.119 233.862 114.142 232.968 112.949 232.615C112.406 232.455 111.849 232.41 111.286 232.405C110.723 232.388 110.41 233.133 110.818 233.523C110.972 233.688 111.199 233.728 111.418 233.728C112.988 233.677 114.218 234.56 115.15 235.748C115.31 235.972 115.598 236.18 115.858 235.978C116.239 235.701 115.903 235.219 115.73 234.924V234.927Z" fill="#4F3041"/>
<path d="M107.117 249.106C106.994 248.968 106.826 248.912 106.277 249.162C105.826 249.45 105.367 249.834 104.815 249.823C104.412 249.795 104.034 249.641 103.662 249.484C103.331 249.338 103.023 249.002 102.637 249.103C102.519 249.128 102.441 249.229 102.416 249.344C102.351 249.386 102.298 249.448 102.278 249.537C102.25 250.185 102.592 250.812 102.743 251.437C102.878 252.004 103.191 252.561 103.746 252.791C103.765 252.822 103.788 252.847 103.81 252.856C103.88 252.889 103.953 252.889 104.026 252.861C105.518 253.085 106.725 251.222 107.243 250.028C107.31 249.876 107.386 249.725 107.4 249.557C107.428 249.347 107.296 249.176 107.12 249.1L107.117 249.106Z" fill="#4F3041"/>
<path d="M111.233 237.082C111.062 237.049 110.877 237.06 110.692 237.088C110.508 237.11 110.365 237.419 110.48 237.55C110.522 237.606 110.594 237.609 110.667 237.598C110.872 237.559 111.048 237.578 111.208 237.64C110.622 237.55 110.102 238.82 110.625 239.238C111.359 239.703 111.748 238.397 111.549 237.87C111.642 237.962 111.726 238.072 111.798 238.192C111.84 238.271 111.924 238.338 112.022 238.245C112.162 238.117 112.076 237.946 112.034 237.839C111.888 237.455 111.611 237.155 111.233 237.082Z" fill="#4F3041"/>
<path d="M100.934 236.987C100.624 236.74 100.232 236.603 99.8424 236.662C99.666 236.69 99.498 236.754 99.3356 236.836C99.1704 236.911 99.1732 237.189 99.3412 237.253C99.4056 237.284 99.4756 237.262 99.54 237.231C99.6744 237.158 99.8116 237.119 99.946 237.105C99.8228 237.147 99.7108 237.217 99.6548 237.332C99.372 237.794 98.9744 238.882 99.8172 238.969C100.649 239.196 101.035 237.55 100.422 237.144C100.576 237.186 100.724 237.248 100.87 237.332C100.946 237.379 101.052 237.402 101.102 237.301C101.178 237.161 101.021 237.057 100.934 236.99V236.987Z" fill="#4F3041"/>
<path d="M121.162 239.058C120.747 236.46 116.043 233.201 114.912 230.83C113.817 228.529 114.027 226.629 114.814 224.207C114.349 225.819 111.614 227.573 110.009 228.055C106.946 228.969 101.525 228.431 99.2376 230.662C96.3256 233.512 95.3372 236.816 92.1816 239.397C92.3552 234.636 90.7032 230.087 91.9156 225.479C92.6464 222.702 94.6064 220.031 96.7876 218.17C98.6272 216.601 101.035 215.836 103.454 215.653C103.25 215.323 103.076 214.978 102.95 214.608C102.536 213.392 102.785 211.85 103.86 211.147C104.166 210.948 104.535 210.811 104.737 210.502C104.866 210.303 104.902 210.057 104.98 209.832C105.336 208.781 106.711 208.224 107.696 208.731C107.971 208.871 108.223 209.084 108.525 209.126C108.788 209.165 109.054 209.073 109.304 208.983C110.625 208.529 112.036 208.224 113.422 208.411C114.808 208.605 116.169 209.356 116.827 210.592C116.992 210.906 117.118 211.253 117.348 211.522C117.58 211.791 117.902 211.965 118.185 212.178C119.23 212.983 119.683 214.429 119.423 215.718C119.199 216.836 118.479 217.82 117.538 218.476C123.194 221.738 124.634 229.966 121.156 239.067L121.162 239.058Z" fill="#4F3041"/>
<path d="M189.666 284.169C190.176 284.001 190.389 283.334 190.21 282.83C190.03 282.322 189.574 281.964 189.098 281.717C188.272 281.288 187.323 281.103 186.396 281.196C185.926 281.24 185.385 281.425 185.251 281.879C185.083 282.446 185.685 282.961 186.259 283.087C186.833 283.214 187.463 283.138 187.992 283.396C188.28 283.536 188.538 283.802 188.555 284.124C188.028 283.984 187.502 283.844 186.976 283.701C186.424 283.553 185.844 283.407 185.29 283.541C184.736 283.679 184.234 284.208 184.338 284.769C184.414 285.187 184.803 285.495 185.212 285.604C185.62 285.713 186.057 285.669 186.48 285.621C185.942 285.84 185.335 285.826 184.78 285.999C184.226 286.173 183.674 286.65 183.75 287.227C183.8 287.605 184.114 287.908 184.47 288.051C184.825 288.194 185.214 288.208 185.598 288.222C185.186 288.365 184.736 288.376 184.33 288.53C183.924 288.687 183.543 289.074 183.618 289.505C183.702 289.979 184.271 290.195 184.752 290.195C185.5 290.195 186.242 289.881 186.76 289.343C186.83 289.27 186.9 289.189 186.922 289.088C186.97 288.886 186.802 288.684 186.606 288.62C186.41 288.555 186.197 288.592 185.993 288.625C186.707 288.567 187.488 288.477 187.986 287.964C188.065 287.885 188.135 287.796 188.168 287.689C188.328 287.213 187.751 286.84 187.278 286.666C187.776 286.633 188.275 286.599 188.773 286.565C189.246 286.535 189.815 286.437 189.997 285.997C190.142 285.638 189.93 285.215 189.61 284.996C189.291 284.777 188.896 284.716 188.513 284.657C189.109 284.48 189.832 284.741 190.327 284.363C190.596 284.155 190.719 283.777 190.621 283.452C190.523 283.127 190.212 282.877 189.874 282.852" fill="#BA8057"/>
<path d="M189.773 284.556C190.56 284.245 190.868 283.337 190.537 282.575C190.151 281.683 189.129 281.196 188.244 280.955C187.359 280.714 186.301 280.613 185.494 281.036C184.688 281.459 184.635 282.454 185.301 283.031C185.713 283.39 186.2 283.499 186.729 283.553C187.107 283.592 188.087 283.575 188.154 284.119L188.661 283.732C187.827 283.508 186.978 283.211 186.122 283.107C185.391 283.02 184.638 283.205 184.19 283.827C183.803 284.365 183.856 285.08 184.33 285.548C184.906 286.12 185.73 286.1 186.48 286.019L186.374 285.231C185.357 285.61 183.798 285.442 183.4 286.75C183.243 287.269 183.448 287.799 183.854 288.141C184.344 288.55 184.985 288.6 185.598 288.62L185.492 287.832C184.674 288.093 183.526 288.084 183.246 289.107C183.005 289.985 183.856 290.528 184.615 290.587C185.486 290.657 186.449 290.259 187.043 289.626C187.328 289.32 187.429 288.925 187.172 288.567C186.866 288.141 186.346 288.163 185.884 288.241C185.422 288.32 185.539 289.068 185.99 289.029C186.838 288.956 187.93 288.838 188.437 288.042C188.944 287.246 188.082 286.554 187.384 286.285L187.278 287.073C187.9 287.031 188.535 287.022 189.154 286.93C189.599 286.863 190.067 286.694 190.305 286.282C190.562 285.84 190.434 285.287 190.109 284.915C189.734 284.483 189.162 284.357 188.619 284.276V285.049C189.434 284.842 190.456 285.201 190.921 284.253C191.332 283.415 190.739 282.569 189.874 282.454C189.364 282.387 189.37 283.191 189.874 283.256C190.42 283.328 190.308 284.023 189.86 284.147C189.412 284.27 188.882 284.152 188.406 284.273C188.045 284.365 188.003 284.985 188.406 285.046C188.751 285.1 189.168 285.136 189.442 285.374C189.655 285.562 189.728 285.859 189.454 286.013C189.216 286.148 188.905 286.153 188.639 286.17C188.185 286.201 187.732 286.232 187.278 286.263C186.824 286.294 186.749 286.888 187.172 287.05C187.356 287.12 187.578 287.221 187.709 287.375C187.88 287.58 187.681 287.723 187.496 287.843C187.06 288.132 186.497 288.174 185.99 288.216L186.096 289.004C186.183 288.99 186.438 288.925 186.508 289.012C186.528 289.037 186.41 289.116 186.354 289.163C186.175 289.329 185.962 289.463 185.741 289.564C185.352 289.741 184.864 289.85 184.444 289.741C184.024 289.632 183.862 289.292 184.26 289.007C184.657 288.721 185.251 288.74 185.704 288.595C186.136 288.457 186.057 287.821 185.598 287.807C185.192 287.793 184.716 287.796 184.383 287.527C184.106 287.305 184.083 286.997 184.313 286.731C184.845 286.117 185.881 286.257 186.586 285.994C186.976 285.848 186.964 285.153 186.48 285.206C185.996 285.259 185.388 285.358 184.968 285.035C184.57 284.73 184.738 284.262 185.119 284.032C185.606 283.738 186.234 283.909 186.743 284.04C187.314 284.189 187.883 284.346 188.451 284.497C188.678 284.559 188.992 284.377 188.958 284.11C188.835 283.115 187.891 282.846 187.026 282.768C186.586 282.729 186.074 282.715 185.76 282.353C185.48 282.031 185.721 281.77 186.057 281.661C186.908 281.383 188.009 281.622 188.79 282C189.171 282.185 189.588 282.434 189.781 282.83C189.924 283.118 189.924 283.634 189.563 283.777C189.087 283.965 189.294 284.741 189.776 284.55L189.773 284.556Z" fill="#BA8057"/>
<path d="M113.828 439.538C112.33 440.898 111.745 443.064 111.927 445.079C112.109 447.094 112.969 448.989 113.982 450.74C114.716 452.013 115.539 453.232 116.441 454.392C116.911 454.998 117.41 455.592 118.034 456.032C119.361 456.968 121.089 457.102 122.713 457.029C124.541 456.945 126.361 456.64 128.117 456.119C129.184 455.802 130.348 455.289 130.718 454.238C131.166 452.96 130.203 451.651 129.282 450.659C126 447.117 122.923 443.473 120.655 439.208C120.977 440.267 121.512 441.789 121.164 443.538C120.91 444.81 119.591 444.936 118.488 445.012C117.502 445.079 116.637 444.362 116.021 443.588C115.094 442.425 114.467 441.049 113.977 439.642" fill="#4F3041"/>
<path d="M85.8004 443.538C85.5456 444.555 84.42 446.514 85.1508 446.744C85.8816 446.974 86.6684 446.716 87.3852 446.447C89.5384 445.637 91.672 444.681 93.4556 443.227C94.2004 442.618 94.6708 441.399 94.7044 440.483C94.7072 440.393 95.7208 440.483 96.2556 441.466C97.0676 442.963 96.5552 444.953 95.6956 446.422C95.1608 447.335 94.3572 448.058 93.5676 448.765C90.5352 451.48 87.4832 454.207 84.0448 456.388C82.2304 457.54 80.276 458.543 78.1648 458.932C77.3136 459.089 76.4316 459.143 75.586 458.958C74.5192 458.725 73.5672 458.125 72.6964 457.464C71.0864 456.242 69.5632 454.56 69.5324 452.54C69.5268 452.198 69.5716 451.836 69.7648 451.553C69.9104 451.34 70.1288 451.186 70.3472 451.046C72.464 449.684 74.9364 449.017 77.3248 448.226C79.7132 447.436 85.89 443.187 85.8032 443.538H85.8004Z" fill="#4F3041"/>
<path d="M125.958 140.543C125.964 140.526 125.969 140.51 125.975 140.493C126.129 140.184 126.3 139.882 126.49 139.593C126.666 139.397 126.851 139.209 127.047 139.033C127.229 138.912 127.42 138.8 127.613 138.699C127.756 138.654 127.901 138.612 128.047 138.579C128.187 138.576 128.327 138.576 128.47 138.584C128.733 138.595 128.99 138.573 129.24 138.525C129.088 135.58 128.962 132.634 128.864 129.689C128.341 129.613 128.565 129.621 127.882 129.714C127.812 129.722 127.467 129.745 127.28 129.798C127.201 129.82 126.308 130.196 126.238 130.238C126.23 130.244 126.221 130.249 126.213 130.255C126.179 130.26 126.146 130.266 126.112 130.272C125.689 130.347 125.28 130.471 124.883 130.633C124.149 130.933 123.41 131.222 122.744 131.659C122.273 131.967 121.834 132.329 121.394 132.676C121.223 132.811 121.058 132.954 120.898 133.102C120.33 133.64 119.865 134.276 119.398 134.899C119.118 135.271 118.871 135.672 118.658 136.09C118.577 136.247 118.504 136.406 118.432 136.566L125.964 140.546L125.958 140.543Z" fill="#668DA4"/>
<path d="M143.03 142.623C142.985 142.034 142.895 141.443 142.803 140.86C142.766 140.638 142.722 140.417 142.666 140.198C142.607 139.971 142.54 139.747 142.458 139.529C142.26 138.982 142.03 138.441 141.781 137.917C141.576 137.486 141.33 137.074 141.056 136.684C140.297 135.608 139.46 134.61 138.488 133.724C137.875 133.167 137.22 132.665 136.562 132.158C136.178 131.863 135.78 131.586 135.36 131.342C135.145 131.216 134.926 131.098 134.7 130.992C134.168 130.74 133.624 130.507 133.07 130.305C132.317 130.031 131.519 129.938 130.726 129.851C130.334 129.68 130.497 129.736 129.847 129.649C129.797 129.644 129.755 129.635 129.713 129.63L130.082 138.531C130.166 138.514 130.25 138.492 130.332 138.469C130.424 138.494 130.516 138.525 130.606 138.553C131.029 138.772 131.432 139.024 131.818 139.299C132.49 139.857 133.129 140.465 133.694 141.129C133.888 141.412 134.067 141.706 134.224 142.012C134.305 142.261 134.375 142.513 134.431 142.768C134.448 143.077 134.448 143.388 134.431 143.696C134.361 144.03 134.271 144.36 134.162 144.683C134.019 144.966 133.857 145.24 133.68 145.507C133.442 145.773 133.19 146.025 132.922 146.263C132.882 146.291 132.84 146.317 132.801 146.342C134.828 148.371 136.794 150.467 138.687 152.622C139.028 152.351 139.35 152.054 139.647 151.731C139.801 151.563 139.95 151.389 140.09 151.21C140.44 150.764 140.804 150.319 141.12 149.845C141.372 149.47 141.588 149.069 141.772 148.657C142.097 147.922 142.43 147.177 142.635 146.398C142.842 145.608 142.94 144.781 143.016 143.971C143.058 143.522 143.063 143.068 143.03 142.62V142.623Z" fill="#668DA4"/>
<path d="M127.282 147.283C127.142 147.241 127.005 147.199 126.868 147.152C126.58 147.006 126.297 146.843 126.028 146.667C125.86 146.516 125.698 146.356 125.544 146.188C125.451 146.042 125.362 145.893 125.28 145.742C125.196 145.479 125.129 145.21 125.073 144.938C125.009 144.145 125.023 143.34 125.096 142.547C125.182 142.062 125.3 141.586 125.448 141.118C124.961 140.958 124.488 140.723 124.029 140.487C121.951 139.419 119.918 138.273 117.902 137.09C117.776 137.385 117.656 137.682 117.533 137.976C117.44 138.197 117.354 138.422 117.278 138.649C117.124 139.105 117.001 139.571 116.908 140.044C116.743 140.882 116.631 141.737 116.558 142.586C116.516 143.071 116.5 143.559 116.502 144.044C116.511 144.932 116.631 145.798 116.754 146.678C116.827 147.194 116.936 147.701 117.11 148.194C117.298 148.727 117.524 149.245 117.76 149.758C117.841 149.935 117.93 150.106 118.028 150.274C118.126 150.439 118.23 150.602 118.342 150.759C118.656 151.199 118.986 151.628 119.336 152.04C119.591 152.339 119.871 152.617 120.17 152.869C120.73 153.34 121.316 153.805 121.94 154.189C122.273 154.394 122.623 154.576 122.984 154.73C123.67 155.027 124.356 155.338 125.076 155.543C125.44 155.647 125.812 155.728 126.19 155.784L127.28 147.283H127.282Z" fill="#668DA4"/>
<path d="M132.112 146.883C131.83 147.062 131.538 147.227 131.236 147.376C130.799 147.53 130.351 147.653 129.895 147.746C129.5 147.771 129.108 147.771 128.713 147.746C128.489 147.701 128.265 147.645 128.044 147.583C127.792 150.425 127.445 153.259 127.002 156.078C127.725 156.185 128.456 156.299 129.186 156.308C129.598 156.314 130.01 156.288 130.418 156.235C131.214 156.134 132.012 156.044 132.784 155.837C133.207 155.722 133.619 155.579 134.022 155.411C134.75 155.106 135.481 154.817 136.164 154.416C136.788 154.046 137.36 153.595 137.925 153.144L132.107 146.883H132.112Z" fill="#668DA4"/>
<path d="M155.56 196.06L149.976 194.651C149.584 194.553 149.167 194.802 149.066 195.194L145.533 209.219C145.435 209.611 145.684 210.029 146.076 210.13L151.659 211.539C152.051 211.637 152.468 211.388 152.569 210.996L156.103 196.971C156.201 196.579 155.952 196.161 155.56 196.06Z" fill="#668DA4"/>
<path d="M167.42 192.577L161.837 191.167C161.445 191.069 161.028 191.318 160.927 191.711L155.845 211.881C155.747 212.274 155.996 212.691 156.388 212.792L161.972 214.202C162.364 214.3 162.781 214.05 162.882 213.658L167.964 193.488C168.062 193.095 167.812 192.678 167.42 192.58V192.577Z" fill="#668DA4"/>
<path d="M176.212 201.273L170.629 199.864C170.237 199.765 169.82 200.015 169.719 200.407L166.186 214.432C166.088 214.824 166.337 215.242 166.729 215.342L172.312 216.752C172.704 216.85 173.121 216.601 173.222 216.208L176.756 202.184C176.854 201.792 176.604 201.374 176.212 201.273Z" fill="#668DA4"/>
<path d="M188.017 197.776L182.434 196.366C182.042 196.268 181.625 196.517 181.524 196.91L176.442 217.08C176.344 217.472 176.593 217.89 176.985 217.991L182.568 219.401C182.96 219.499 183.378 219.249 183.478 218.857L188.56 198.686C188.658 198.294 188.465 197.89 188.017 197.778V197.776Z" fill="#668DA4"/>
<path d="M183.856 190.962C184.344 191.859 185.234 192.557 186.295 192.826C188.418 193.362 190.526 192.053 191.05 189.984C191.57 187.916 190.347 185.708 188.224 185.172C186.102 184.637 183.994 185.946 183.47 188.014C183.344 188.516 183.341 188.992 183.397 189.483L178.716 191.094C178.228 190.197 177.338 189.499 176.277 189.23C175.216 188.961 174.098 189.158 173.247 189.712L169.876 186.128C170.156 185.724 170.38 185.304 170.506 184.802C171.041 182.678 169.733 180.568 167.667 180.043C165.6 179.519 163.436 180.817 162.912 182.885C162.786 183.387 162.784 183.863 162.84 184.354L158.063 185.881C157.576 184.984 156.685 184.287 155.624 184.018C153.502 183.482 151.393 184.791 150.87 186.859C150.346 188.928 151.642 191.094 153.709 191.618C155.775 192.14 157.94 190.845 158.463 188.776C158.589 188.275 158.592 187.798 158.536 187.308L163.204 185.752C163.691 186.649 164.581 187.347 165.642 187.616C166.704 187.885 167.821 187.689 168.672 187.134L172.043 190.719C171.763 191.122 171.539 191.543 171.413 192.044C170.878 194.169 172.186 196.279 174.252 196.803C176.375 197.338 178.483 196.03 179.007 193.961C179.133 193.46 179.136 192.983 179.08 192.493L183.856 190.965V190.962ZM187.844 186.68C189.129 187.005 189.921 188.334 189.596 189.617C189.272 190.904 187.944 191.697 186.662 191.372C185.38 191.047 184.584 189.718 184.909 188.434C185.234 187.151 186.561 186.355 187.844 186.68ZM154.076 190.161C152.79 189.836 151.998 188.507 152.323 187.224C152.648 185.937 153.975 185.144 155.257 185.469C156.542 185.794 157.335 187.123 157.01 188.406C156.685 189.69 155.358 190.486 154.076 190.161ZM166.062 186.176C164.777 185.85 163.985 184.522 164.31 183.238C164.634 181.955 165.962 181.159 167.244 181.484C168.529 181.809 169.322 183.138 168.997 184.421C168.672 185.705 167.345 186.501 166.062 186.176ZM174.672 195.36C173.387 195.035 172.595 193.706 172.92 192.423C173.244 191.139 174.572 190.343 175.854 190.668C177.139 190.993 177.932 192.322 177.607 193.605C177.282 194.889 176.011 195.699 174.672 195.36Z" fill="#668DA4"/>
<path d="M110.776 74.3312L107.752 75.5335C107.54 75.6176 107.428 75.8614 107.506 76.0632L110.362 83.2519C110.44 83.4537 110.692 83.5518 110.902 83.4677L113.926 82.2654C114.139 82.1813 114.251 81.9375 114.173 81.7357L111.317 74.547C111.238 74.3452 110.986 74.2471 110.776 74.3312Z" fill="#668DA4"/>
<path d="M113.249 64.2474L110.225 65.4497C110.012 65.5338 109.928 65.8505 110.043 66.1391L115.909 80.909C116.024 81.1948 116.301 81.3686 116.514 81.2845L119.538 80.0822C119.75 79.9981 119.834 79.6814 119.72 79.3928L113.854 64.6229C113.739 64.3371 113.462 64.1633 113.249 64.2474Z" fill="#668DA4"/>
<path d="M117.351 58.2666L114.327 59.4689C114.114 59.553 114.103 60.049 114.299 60.5423L121.332 78.2577C121.528 78.7509 121.878 79.1041 122.091 79.02L125.115 77.8177C125.328 77.7336 125.339 77.2375 125.143 76.7443L118.11 59.0289C117.914 58.5356 117.564 58.1825 117.354 58.2666H117.351Z" fill="#668DA4"/>
<path d="M126.932 66.1756L123.908 67.3779C123.696 67.462 123.572 67.6806 123.642 67.8516L127.151 76.6826C127.218 76.8536 127.459 76.9293 127.669 76.8452L130.693 75.6428C130.906 75.5588 131.029 75.3402 130.959 75.1692L127.45 66.3381C127.383 66.1672 127.173 66.0803 126.932 66.1756Z" fill="#668DA4"/>
<path d="M83.09 125.894L83.9216 124.678L84.8372 128.234C85.0164 128.926 84.5992 129.633 83.9076 129.812L77.0812 131.575C76.3896 131.754 75.684 131.337 75.5048 130.644L73.7436 123.812C73.5644 123.119 73.9816 122.413 74.6732 122.234L81.4968 120.471C82.026 120.333 82.5664 120.546 82.8688 120.97L82.1044 122.088L82.0008 121.682C81.9756 121.583 81.8748 121.522 81.774 121.547L74.9504 123.307C74.8524 123.332 74.7908 123.433 74.816 123.534L76.5772 130.364C76.6024 130.462 76.7032 130.524 76.804 130.499L83.6276 128.736C83.7256 128.711 83.7872 128.61 83.762 128.509L83.0872 125.894H83.09ZM77.6048 125.936L77.182 126.544C77.0644 126.712 77.1064 126.942 77.2744 127.06L79.4304 128.565C79.5844 128.671 79.772 128.73 79.9568 128.708C79.9904 128.705 80.024 128.697 80.0576 128.688C80.2284 128.643 80.3824 128.537 80.4832 128.388L84.8624 121.99C84.9772 121.822 84.9352 121.589 84.7672 121.474L84.1568 121.057C83.9888 120.942 83.7564 120.984 83.6416 121.152L79.6852 126.931L78.12 125.838C77.952 125.72 77.7224 125.762 77.6048 125.93V125.936Z" fill="#668DA4"/>
<path d="M83.272 75.3682C83.0592 75.0403 82.7428 74.7544 82.3508 74.6647C82.1548 74.6199 81.942 74.6003 81.7348 74.6227C80.7044 74.0117 79.6824 73.3839 78.6716 72.7421C78.9292 72.3385 79.184 71.935 79.4388 71.5342C79.9232 70.7747 80.4104 70.0152 80.8976 69.2557C81.1076 68.9277 81.1552 68.4457 81.0544 68.0757C80.9564 67.7198 80.6792 67.3359 80.346 67.1593C79.5844 66.7585 78.6996 66.9855 78.2376 67.7086C77.5236 68.8241 76.8096 69.9395 76.0984 71.0577C75.754 70.8279 75.4124 70.5953 75.068 70.3599C74.3932 69.8975 73.724 69.4266 73.0604 68.953C72.7552 68.7344 72.2232 68.7035 71.8732 68.7988C71.5148 68.8969 71.1284 69.1716 70.952 69.5023C70.7616 69.8582 70.6692 70.287 70.7952 70.6822C70.8484 70.8055 70.8988 70.926 70.952 71.0493C71.0892 71.2791 71.274 71.4613 71.5064 71.5986C72.4808 72.2965 73.4636 72.9775 74.4576 73.6474C74.004 74.362 73.5504 75.0767 73.0996 75.7914C72.618 76.5537 72.1392 77.316 71.6604 78.0811C71.4532 78.4118 71.4028 78.8883 71.5036 79.261C71.6016 79.617 71.8788 80.0009 72.212 80.1775C72.968 80.5754 73.8668 80.354 74.3204 79.6282C75.2192 78.1932 76.1208 76.7639 77.028 75.3317C77.602 75.6961 78.176 76.0576 78.7556 76.4136C79.4528 76.8396 80.1556 77.2599 80.8612 77.6747C81.3092 77.9354 81.9756 77.9774 82.418 77.6747L82.7204 77.4673C83.0564 77.2375 83.3168 76.9517 83.4288 76.5509C83.5296 76.1837 83.4848 75.6961 83.272 75.371V75.3682Z" fill="#668DA4"/>
<path d="M100.503 172.894C100.761 172.49 101.016 172.087 101.27 171.686C101.755 170.926 102.242 170.167 102.729 169.407C102.939 169.079 102.987 168.597 102.886 168.227C102.788 167.872 102.511 167.488 102.178 167.311C101.416 166.91 100.531 167.137 100.069 167.86C99.3552 168.976 98.6412 170.091 97.93 171.209C97.5856 170.98 97.244 170.747 96.8996 170.512C96.2248 170.049 95.5556 169.578 94.892 169.105C94.5868 168.886 94.0548 168.855 93.7048 168.951C93.3464 169.049 92.96 169.323 92.7836 169.654C92.5932 170.01 92.5008 170.439 92.6268 170.834C92.68 170.957 92.7304 171.078 92.7836 171.201C92.9208 171.431 93.1056 171.613 93.338 171.75C94.3124 172.448 95.2952 173.129 96.2892 173.799C95.8356 174.514 95.382 175.228 94.9312 175.943C94.4496 176.705 93.9708 177.468 93.492 178.233C93.2848 178.564 93.2344 179.04 93.3352 179.413C93.4332 179.769 93.7104 180.153 94.0436 180.329C94.7996 180.727 95.6984 180.506 96.152 179.78C97.0508 178.345 97.9524 176.916 98.8596 175.483" fill="#668DA4"/>
<path d="M172.138 100.334C170.257 103.602 168.375 106.87 166.494 110.14C165.995 111.003 166.135 112.239 167.056 112.783C167.908 113.285 169.162 113.148 169.697 112.22C171.578 108.952 173.46 105.684 175.342 102.413C175.84 101.55 175.7 100.314 174.779 99.7706C173.928 99.2689 172.673 99.4062 172.138 100.334Z" fill="#668DA4"/>
<path d="M182.608 109.793C183.246 109.602 183.896 109.479 184.559 109.406C184.677 109.392 184.895 109.412 184.422 109.412C184.481 109.412 184.54 109.406 184.598 109.403C184.755 109.398 184.912 109.395 185.066 109.395C185.399 109.395 185.73 109.414 186.06 109.448C186.189 109.462 186.396 109.532 186.519 109.51C186.267 109.557 186.18 109.431 186.376 109.49C186.446 109.513 186.525 109.538 186.595 109.555C186.883 109.622 186.508 109.521 186.46 109.473C186.455 109.468 186.634 109.591 186.651 109.588C186.488 109.605 186.346 109.269 186.511 109.473C186.774 109.798 186.273 109.056 186.424 109.342C186.561 109.599 186.281 108.823 186.382 109.232C186.449 109.504 186.374 108.703 186.36 109.12C186.354 109.28 186.231 109.305 186.41 108.868C186.39 108.916 186.382 108.974 186.365 109.019C186.354 109.059 186.337 109.095 186.323 109.134C186.217 109.473 186.404 108.938 186.416 108.952C186.46 109.002 186.066 109.473 186.029 109.529C186.351 109.036 186.214 109.322 186.063 109.473C185.959 109.577 185.85 109.678 185.735 109.773C185.648 109.846 185.556 109.916 185.464 109.983C185.396 110.031 185.318 110.076 185.254 110.129C185.284 110.101 185.648 109.874 185.36 110.056C185.058 110.25 184.752 110.44 184.439 110.62C183.221 111.312 181.924 111.858 180.603 112.321C180.536 112.343 180.27 112.447 180.536 112.346C180.821 112.237 180.468 112.368 180.404 112.388C180.2 112.455 179.998 112.52 179.794 112.584C179.427 112.699 179.057 112.811 178.688 112.918C177.909 113.145 177.125 113.358 176.341 113.568C175.414 113.817 174.759 114.585 174.826 115.572C174.894 116.558 175.644 117.284 176.602 117.349C177.134 117.385 177.666 117.441 178.195 117.525C178.304 117.542 178.424 117.584 178.534 117.581C178.259 117.528 178.195 117.517 178.335 117.545C178.391 117.556 178.447 117.567 178.503 117.578C178.763 117.632 179.024 117.693 179.284 117.758C180.264 118.007 181.222 118.344 182.146 118.756C182.274 118.812 182.658 119.041 182.165 118.758C182.263 118.814 182.372 118.859 182.473 118.91C182.711 119.03 182.946 119.156 183.179 119.288C183.61 119.532 184.033 119.793 184.444 120.073C184.856 120.353 185.254 120.647 185.637 120.961C185.688 121.003 186.071 121.326 185.794 121.087C185.517 120.849 185.895 121.18 185.945 121.222C186.144 121.401 186.337 121.586 186.528 121.774C187.236 122.475 188.448 122.685 189.221 121.934C189.924 121.25 190.142 119.989 189.381 119.238C186.018 115.911 181.555 113.848 176.828 113.531C176.915 114.793 177.002 116.051 177.089 117.312C180.309 116.441 183.627 115.555 186.508 113.817C187.936 112.957 189.269 111.984 189.918 110.39C190.263 109.546 190.238 108.63 189.904 107.789C189.521 106.814 188.544 106.11 187.555 105.85C185.724 105.37 183.655 105.499 181.854 106.037C181.353 106.189 180.922 106.416 180.628 106.87C180.379 107.256 180.247 107.831 180.356 108.285C180.583 109.213 181.58 110.09 182.602 109.784L182.608 109.793Z" fill="#668DA4"/>
<path d="M197.226 116.34C197.823 116.466 198.411 116.553 199.021 116.589C199.262 116.603 199.5 116.614 199.738 116.634C199.956 116.651 200.231 116.732 200.446 116.715C200.164 116.659 200.094 116.645 200.236 116.676C200.29 116.687 200.343 116.701 200.396 116.715C200.502 116.743 200.609 116.774 200.71 116.811C201.102 116.953 200.483 116.665 200.595 116.749C200.67 116.805 200.76 116.847 200.838 116.903C200.998 117.018 201.057 117.206 200.707 116.78C200.757 116.841 200.827 116.897 200.88 116.959C200.934 117.021 200.978 117.091 201.034 117.152C200.654 116.735 200.841 116.844 200.939 117.038C200.978 117.116 201.085 117.407 200.967 117.054C200.85 116.701 200.945 117.029 200.964 117.113C201.029 117.396 200.981 116.62 200.948 116.92C200.914 117.22 201.102 116.455 200.99 116.726C200.844 117.085 201.068 116.553 201.085 116.553C201.057 116.598 201.029 116.642 200.998 116.682C201.191 116.469 201.23 116.413 201.118 116.513C201.004 116.609 201.06 116.572 201.292 116.404C201.219 116.446 201.146 116.483 201.071 116.519C200.956 116.572 200.838 116.617 200.721 116.662C199.632 117.066 198.52 117.421 197.422 117.797C197.14 117.895 196.823 118.226 196.664 118.472C196.437 118.823 196.347 119.232 196.375 119.644C196.423 120.342 196.932 121.171 197.672 121.328C198.232 121.449 198.792 121.572 199.335 121.749C199.466 121.791 199.595 121.836 199.724 121.886C199.808 121.917 200.208 122.096 199.928 121.965C199.651 121.833 200.038 122.029 200.113 122.074C200.245 122.152 200.371 122.242 200.497 122.332C200.623 122.421 200.654 122.547 200.376 122.22C200.41 122.262 200.458 122.295 200.494 122.332C200.57 122.41 200.637 122.494 200.71 122.578C200.92 122.822 200.46 122.158 200.656 122.508C200.718 122.62 200.766 122.735 200.819 122.85C200.914 123.06 200.698 122.424 200.752 122.648C200.763 122.693 200.777 122.738 200.788 122.786C200.813 122.889 200.81 123.01 200.847 123.108C200.914 123.304 200.805 122.808 200.833 122.85C200.847 122.873 200.833 122.996 200.833 123.032C200.833 123.094 200.822 123.153 200.819 123.212C200.805 123.484 200.858 122.987 200.864 122.996C200.894 123.038 200.67 123.481 200.855 123.105C201.012 122.789 200.838 123.105 200.791 123.186C200.69 123.355 200.628 123.186 200.953 123.002C200.914 123.024 200.892 123.072 200.852 123.094C200.701 123.181 201.065 122.959 201.062 122.968C201.034 123.016 200.878 123.072 200.822 123.097C200.752 123.128 200.514 123.22 200.799 123.116C201.085 123.013 200.883 123.088 200.822 123.1C200.693 123.119 200.567 123.153 200.435 123.17C200.379 123.178 200.323 123.184 200.267 123.189C199.951 123.229 200.388 123.17 200.416 123.178C200.301 123.136 200.088 123.186 199.959 123.189C199.399 123.195 198.839 123.17 198.282 123.116C198.013 123.091 197.744 123.06 197.476 123.021C197.341 123.002 197.21 122.982 197.075 122.959C197 122.945 196.924 122.929 196.846 122.92C196.927 122.931 197.232 122.999 196.983 122.945C195.731 122.674 194.522 122.292 193.357 121.763C192.948 121.578 192.304 121.676 191.923 121.864C191.498 122.074 191.08 122.519 190.952 122.985C190.823 123.45 190.812 123.982 191.052 124.42C191.316 124.899 191.68 125.168 192.172 125.392C194.631 126.51 197.428 127.099 200.13 126.992C200.987 126.959 201.883 126.878 202.65 126.452C203.49 125.981 204.128 125.269 204.442 124.35C204.954 122.845 204.484 121.065 203.448 119.893C202.275 118.565 200.53 118.046 198.864 117.691C198.948 118.868 199.032 120.045 199.114 121.222C199.752 121.003 200.39 120.782 201.029 120.563C201.639 120.353 202.3 120.19 202.874 119.888C204.523 119.022 205.153 117.27 204.464 115.561C204 114.409 202.922 113.484 201.743 113.122C201.099 112.926 200.418 112.842 199.749 112.8C199.472 112.783 199.195 112.769 198.92 112.747C198.775 112.736 198.626 112.721 198.481 112.702C198.408 112.693 198.335 112.682 198.262 112.671C198.562 112.73 198.612 112.741 198.416 112.699C197.915 112.593 197.459 112.565 196.983 112.8C196.557 113.01 196.14 113.456 196.011 113.921C195.756 114.832 196.188 116.107 197.232 116.328L197.226 116.34Z" fill="#668DA4"/>
<path d="M38.0856 163.724C38.0968 163.76 38.108 163.797 38.1388 163.819C38.1836 163.85 38.248 163.836 38.304 163.819C39.0908 163.586 39.8944 163.407 40.7036 163.281C41.3896 163.174 42.0812 163.107 42.7532 162.939C42.854 162.914 42.952 162.886 43.0416 162.835C43.1424 162.779 43.2264 162.695 43.3104 162.617C44.1224 161.846 45.0968 161.255 46.0124 160.604C46.06 160.571 46.1104 160.534 46.1356 160.481C46.1636 160.419 46.1552 160.349 46.144 160.285C45.9648 159.256 39.9924 140.311 39.5836 139.349C39.5696 139.318 39.5556 139.288 39.5332 139.262C39.4688 139.201 39.3624 139.212 39.2728 139.226C38.1164 139.419 35.4872 139.742 35.3304 139.803C35.2464 139.837 35.1708 139.887 35.0952 139.941C33.81 140.823 32.5472 141.504 31.4244 142.575C31.4244 142.575 37.7832 162.698 38.0884 163.721L38.0856 163.724Z" fill="#668DA4"/>
<path d="M38.0856 163.723C38.0968 163.76 38.108 163.796 38.1388 163.819C38.1836 163.85 38.248 163.836 38.304 163.819C39.0908 163.586 39.8944 163.407 40.7036 163.281C41.3896 163.174 42.0812 163.107 42.7532 162.939C42.854 162.913 42.952 162.885 43.0416 162.835C43.1424 162.779 43.2264 162.695 43.3104 162.616C44.1224 161.846 45.0968 161.254 46.0124 160.604C46.06 160.57 46.1104 160.534 46.1356 160.481C46.1636 160.419 46.1552 160.349 46.144 160.285C45.9648 159.256 39.9924 140.31 39.5836 139.349C39.5696 139.318 39.5556 139.287 39.5332 139.262C39.4996 139.229 36.89 141.529 36.0164 141.86C34.1544 142.16 32.27 142.39 31.4188 142.572C31.4188 142.572 37.7776 162.695 38.0828 163.718L38.0856 163.723Z" fill="#668DA4"/>
<path d="M42.756 162.942C42.8568 162.917 42.9548 162.889 43.0444 162.838C43.1452 162.782 43.2292 162.698 43.3132 162.619C44.1252 161.849 45.0996 161.257 46.0152 160.607C46.0628 160.574 46.1132 160.537 46.1384 160.484C46.1664 160.422 46.158 160.352 46.1468 160.288C45.9676 159.259 39.9952 140.313 39.5864 139.352C39.5724 139.321 39.5584 139.29 39.536 139.265C39.5024 139.232 36.8928 141.533 36.0192 141.863C36.4728 143.29 42.3276 162.154 42.756 162.936V162.942Z" fill="#668DA4"/>
<path d="M48.8768 162.493C48.888 162.53 48.902 162.569 48.9272 162.594C48.9664 162.631 49.0196 162.619 49.0644 162.605C49.7112 162.418 50.372 162.286 51.0468 162.21C51.6152 162.146 52.192 162.123 52.7464 161.995C52.8276 161.975 52.9116 161.952 52.9844 161.908C53.0656 161.857 53.13 161.779 53.1944 161.703C53.8272 160.969 54.6056 160.428 55.3364 159.822C55.3756 159.792 55.4148 159.758 55.4316 159.705C55.4512 159.646 55.44 159.573 55.426 159.506C55.2076 158.444 52.262 149.397 51.856 148.391C51.842 148.357 51.828 148.323 51.8084 148.298C51.7524 148.231 51.6628 148.236 51.5872 148.245C50.6296 148.368 49.6468 148.371 48.6668 148.253C48.5268 148.236 48.3784 148.217 48.2496 148.27C48.1796 148.298 48.1208 148.346 48.0592 148.393C47.0372 149.212 46.0824 150.137 45.206 151.157C45.206 151.157 48.5548 161.434 48.8768 162.493Z" fill="#668DA4"/>
<path d="M48.8768 162.493C48.888 162.53 48.902 162.569 48.9272 162.594C48.9664 162.631 49.0196 162.619 49.0644 162.605C49.7112 162.418 50.372 162.286 51.0468 162.21C51.6152 162.146 52.192 162.123 52.7464 161.994C52.8276 161.975 52.9116 161.952 52.9844 161.908C53.0656 161.857 53.13 161.779 53.1944 161.703C53.8272 160.969 54.6056 160.428 55.3364 159.822C55.3756 159.792 55.4148 159.758 55.4316 159.705C55.4512 159.646 55.44 159.573 55.426 159.506C55.2076 158.444 52.262 149.397 51.856 148.391C51.842 148.357 51.828 148.323 51.8084 148.298C51.7776 148.262 49.7336 150.442 49.0224 150.725C47.4796 150.913 45.9116 151.025 45.2088 151.157C45.2088 151.157 48.5576 161.434 48.8796 162.493H48.8768Z" fill="#668DA4"/>
<path d="M52.7464 161.992C52.8276 161.972 52.9116 161.95 52.9844 161.905C53.0656 161.854 53.13 161.776 53.1944 161.7C53.8272 160.966 54.6056 160.425 55.3364 159.82C55.3756 159.789 55.4148 159.755 55.4316 159.702C55.4512 159.643 55.44 159.57 55.426 159.503C55.2076 158.441 52.262 149.394 51.856 148.388C51.842 148.354 51.828 148.32 51.8084 148.295C51.7776 148.259 49.7336 150.439 49.0224 150.722C49.4956 152.208 52.3404 161.165 52.7492 161.992H52.7464Z" fill="#668DA4"/>
<path d="M65.3212 282.219C64.2824 281.625 68.628 277.636 70.4088 272.034C74.1748 271.95 82.124 280.288 85.6744 284.511C90.5548 290.315 91.2772 291.235 91.0168 295.716C90.7928 299.603 90.5072 312.523 90.0004 309.976C85.9292 291.386 78.2964 292.406 65.324 282.219H65.3212Z" fill="#00314D"/>
<path d="M65.5228 281.874C65.4696 281.84 65.5676 281.941 65.5256 281.874C65.5424 281.902 65.5368 281.902 65.5704 281.952C65.5312 281.896 65.5648 281.941 65.5648 281.958C65.5648 281.936 65.576 281.837 65.5648 281.894C65.5816 281.821 65.6516 281.616 65.702 281.512C65.9484 281.002 66.276 280.529 66.5868 280.061C67.5752 278.57 68.5692 277.087 69.3896 275.495C69.9468 274.416 70.4256 273.295 70.798 272.14L70.4116 272.435C71.4868 272.421 72.5676 273.018 73.4748 273.57C74.8468 274.402 76.104 275.417 77.3136 276.47C79.9008 278.727 82.2948 281.221 84.5488 283.808C85.7976 285.24 87.0268 286.7 88.1944 288.199C88.9952 289.228 89.8128 290.327 90.2524 291.568C90.65 292.686 90.692 293.864 90.65 295.041C90.608 296.218 90.5408 297.294 90.496 298.421C90.384 301.226 90.2944 304.031 90.1348 306.834C90.1012 307.4 90.0676 307.964 90.0228 308.527C90.006 308.748 89.9864 308.97 89.964 309.188C89.9556 309.281 89.9444 309.376 89.9332 309.469C89.9276 309.511 89.922 309.553 89.9164 309.595C89.908 309.662 89.9248 309.544 89.908 309.654C89.8912 309.771 89.866 309.886 89.8436 310.004C89.838 310.037 89.8128 310.074 89.8128 310.108C89.8128 310.054 89.8996 309.948 90.0368 309.911C90.1824 309.872 90.3364 309.948 90.4176 310.035C90.51 310.13 90.4232 310.035 90.4288 310.04C90.4876 310.071 90.454 310.124 90.4288 310.009C90.3476 309.662 90.272 309.312 90.1908 308.964C89.3984 305.573 88.3484 302.187 86.66 299.124C85.4056 296.846 83.7676 294.811 81.8076 293.101C79.8784 291.417 77.714 290.035 75.5496 288.679C72.9148 287.028 70.2772 285.383 67.76 283.553C67.0348 283.026 66.318 282.485 65.6124 281.933C65.2092 281.619 64.638 282.182 65.044 282.502C67.7348 284.609 70.5684 286.507 73.4608 288.32C75.7316 289.744 78.0556 291.12 80.1668 292.779C82.278 294.438 83.9608 296.246 85.3272 298.437C87.1304 301.33 88.2532 304.592 89.096 307.879C89.2976 308.667 89.4152 309.502 89.6644 310.276C89.7708 310.606 90.1348 310.875 90.4428 310.567C90.6108 310.402 90.6416 310.119 90.6752 309.897C90.7396 309.485 90.7788 309.068 90.8124 308.653C91.0392 305.923 91.112 303.179 91.2184 300.444C91.2688 299.155 91.3136 297.866 91.3752 296.576C91.4312 295.363 91.5376 294.144 91.3864 292.93C91.2352 291.717 90.7956 290.607 90.1516 289.573C89.1912 288.026 87.976 286.633 86.8112 285.237C84.5516 282.535 82.194 279.926 79.6376 277.502C78.3524 276.285 77.0224 275.111 75.6056 274.052C74.4744 273.205 73.262 272.387 71.9208 271.911C71.4392 271.74 70.9268 271.622 70.4116 271.628C70.2296 271.628 70.0784 271.751 70.0252 271.922C69.356 273.999 68.3172 275.921 67.144 277.754C66.6848 278.472 66.2032 279.175 65.7356 279.887C65.4248 280.36 65.1 280.843 64.89 281.369C64.722 281.787 64.6884 282.291 65.1224 282.558C65.5564 282.824 65.968 282.135 65.5284 281.865L65.5228 281.874Z" fill="#00314D"/>
<path d="M45.6848 88.0808C45.3516 89.0449 45.4356 90.1772 45.9508 91.1413C46.984 93.0723 49.3724 93.7533 51.2484 92.7472C53.1272 91.7411 53.9336 89.3476 52.9032 87.4166C51.87 85.4856 49.4816 84.8046 47.6056 85.8107C47.1492 86.0545 46.7964 86.374 46.4716 86.744L42.1288 84.3646C42.462 83.4005 42.378 82.2682 41.8628 81.3041C41.3476 80.34 40.4516 79.6421 39.466 79.3871L39.844 74.4797C40.3312 74.4152 40.7932 74.2975 41.2496 74.0537C43.1788 73.0195 43.8592 70.6289 42.854 68.7511C41.8488 66.8734 39.4324 66.1391 37.5564 67.1452C37.1 67.3891 36.7472 67.7086 36.4224 68.0785L32.0768 65.5702C32.41 64.6061 32.326 63.4738 31.8108 62.5097C30.7776 60.5787 28.3892 59.8977 26.5132 60.9038C24.584 61.938 23.9036 64.3286 24.9088 66.2064C25.914 68.0869 28.3304 68.8184 30.2064 67.8123C30.6628 67.5684 31.0156 67.2489 31.3404 66.879L35.63 69.2864C35.2968 70.2505 35.3808 71.3828 35.896 72.3469C36.4112 73.311 37.3072 74.0089 38.2928 74.2639L37.9148 79.1713C37.4276 79.2358 36.9656 79.3535 36.5092 79.5973C34.58 80.6315 33.8996 83.0221 34.9048 84.8999C35.91 86.7776 38.3264 87.5119 40.2024 86.5058C40.6588 86.2619 41.0116 85.9424 41.3364 85.5725L45.682 88.0808H45.6848ZM51.534 88.1481C52.1584 89.3168 51.7104 90.7994 50.5428 91.4244C49.3752 92.0494 47.894 91.6009 47.2696 90.4322C46.6452 89.2636 47.0932 87.781 48.2608 87.156C49.4284 86.531 50.9096 86.9794 51.534 88.1481ZM26.2276 65.5001C25.6032 64.3314 26.0512 62.8488 27.2188 62.2238C28.3864 61.5988 29.8676 62.0473 30.492 63.216C31.1164 64.3847 30.6684 65.8672 29.5008 66.4922C28.3332 67.1172 26.852 66.6688 26.2276 65.5001ZM37.2428 71.6883C36.6184 70.5196 37.0664 69.037 38.234 68.412C39.4016 67.787 40.8828 68.2355 41.5072 69.4042C42.1316 70.5728 41.6836 72.0554 40.516 72.6804C39.3484 73.3054 37.8672 72.857 37.2428 71.6883ZM36.2544 84.244C35.63 83.0754 36.078 81.5928 37.2456 80.9678C38.4132 80.3428 39.8944 80.7912 40.5188 81.9599C41.1432 83.1286 40.6952 84.6112 39.5276 85.2362C38.36 85.8612 36.9068 85.4632 36.2544 84.244Z" fill="#668DA4"/>
<path d="M173.541 60.447C173.107 60.2228 172.707 60.2116 172.228 60.2845C172.164 60.2957 172.096 60.3041 172.032 60.3153C172.021 60.3153 172.015 60.3153 172.001 60.3209C171.825 60.3461 171.648 60.3714 171.472 60.3938C171.251 60.4218 171.03 60.447 170.808 60.475C170.528 58.4123 170.106 56.3692 169.537 54.3709C169.35 53.7123 168.767 53.2387 168.098 53.1602C167.404 53.0761 166.804 53.4124 166.424 53.9898C165.684 55.1108 164.945 56.2319 164.206 57.3529C163.842 57.9022 163.481 58.4544 163.117 59.0037C162.756 59.5502 162.341 60.0911 162.028 60.6684C161.521 61.6073 161.54 62.7872 162.369 63.5439C163.027 64.1437 163.876 64.2081 164.718 64.2166C165.726 64.2278 166.732 64.2025 167.74 64.1493C167.79 65.0882 167.812 66.027 167.801 66.9687C167.79 67.86 168.633 68.6979 169.532 68.6447C170.475 68.5858 171.195 67.8684 171.206 66.9127C171.217 65.8925 171.192 64.8696 171.133 63.8494C171.808 63.7653 172.483 63.6728 173.158 63.5663C173.55 63.5047 173.981 63.1011 174.168 62.776C174.378 62.4089 174.465 61.8708 174.331 61.4616C174.194 61.0496 173.936 60.6544 173.541 60.4498V60.447ZM166.004 60.8002C166.298 60.3545 166.592 59.9061 166.886 59.4605C166.97 59.3316 167.056 59.2027 167.14 59.0737C167.18 59.2839 167.224 59.4913 167.261 59.7015C167.306 59.9566 167.345 60.2116 167.384 60.4666C167.384 60.4694 167.384 60.4722 167.384 60.475C167.384 60.4919 167.39 60.5143 167.392 60.5395C167.401 60.6124 167.412 60.6824 167.42 60.7553C166.992 60.7749 166.561 60.7917 166.13 60.8002C166.085 60.8002 166.043 60.8002 165.998 60.8002H166.004Z" fill="#668DA4"/>
<path d="M72.66 17.2725C72.6964 17.1212 72.7384 16.9699 72.7804 16.8157C72.8588 16.8157 72.9344 16.8157 73.0128 16.8157C73.332 16.8157 73.6512 16.8157 73.9732 16.8157C75.3452 16.8157 76.7144 16.8157 78.0864 16.8185C78.9656 16.8185 79.8084 16.045 79.7664 15.1369C79.7244 14.2261 79.0272 13.4554 78.0864 13.4554H74.5892C73.9956 13.4526 73.402 13.4526 72.8056 13.4498C72.114 13.4498 71.3916 13.4918 70.798 13.8842C69.6304 14.6577 69.4792 16.1263 69.1796 17.3818C69.0256 18.0236 68.838 18.6711 68.7876 19.3325C68.7288 20.1004 69.048 20.9244 69.6304 21.4344C70.49 22.1883 71.6576 22.5303 72.6768 23.0067C73.1584 23.2309 73.6344 23.4748 74.074 23.7746C74.0964 23.7914 74.1664 23.8419 74.2168 23.8783C74.2616 23.9148 74.3092 23.954 74.326 23.968C74.4996 24.1194 74.6648 24.2847 74.816 24.4585C74.83 24.4725 74.8412 24.4893 74.8552 24.5061C74.9056 24.5902 74.9672 24.6715 75.0176 24.7584C75.054 24.8228 75.0876 24.8901 75.1212 24.9545C75.1352 24.9938 75.1548 25.033 75.1632 25.0666C75.1912 25.1563 75.2108 25.2488 75.2332 25.3385C75.2332 25.4338 75.2332 25.5263 75.2332 25.6216C75.2304 25.6356 75.2276 25.6496 75.2276 25.6552C75.208 25.7477 75.18 25.8402 75.152 25.9299C75.0512 26.07 74.9672 26.2522 74.8776 26.4035C74.8748 26.4063 74.872 26.4119 74.8692 26.4147C74.802 26.4904 74.7348 26.5604 74.662 26.6305C74.6088 26.681 74.5528 26.7286 74.4968 26.7762C74.4548 26.8043 74.4128 26.8323 74.3708 26.8603C74.2728 26.922 74.1692 26.9808 74.0656 27.0341C74.0544 27.0397 74.0404 27.0453 74.0264 27.0537C73.9228 27.0845 73.8248 27.1238 73.7212 27.149C73.6876 27.1574 73.5924 27.1742 73.5252 27.1882C73.4524 27.1938 73.3628 27.2022 73.332 27.2022C73.1864 27.2078 73.0436 27.1966 72.898 27.191C72.8868 27.191 72.8784 27.191 72.87 27.191C72.8672 27.191 72.8644 27.191 72.8588 27.191C72.7328 27.1686 72.6096 27.1406 72.4864 27.107C72.3632 27.0733 72.2428 27.0369 72.1224 26.9948C72.114 26.992 72.1 26.9864 72.0888 26.9808C72.156 27.0117 72.1924 27.0425 72.0636 26.9808C72.044 26.9724 72.0272 26.9612 72.0076 26.9528C71.9936 26.9472 71.9768 26.9416 71.9656 26.9416C71.974 26.9416 71.9824 26.9444 71.9936 26.9472C71.7864 26.8463 71.582 26.737 71.3832 26.6109C71.3076 26.5632 71.036 26.4371 71.0164 26.3587C71.0164 26.3502 71.2796 26.5773 71.1368 26.4511C71.0808 26.4007 71.022 26.3559 70.9688 26.3082C70.7616 26.126 70.5684 25.927 70.3864 25.7197C69.804 25.0582 68.5972 25.0779 68.0092 25.7197C67.3624 26.4259 67.3876 27.3928 68.0092 28.0991C69.5912 29.8956 71.988 30.8793 74.3652 30.4505C76.6388 30.0413 78.428 27.9505 78.5848 25.6776C78.7528 23.2477 76.7704 21.3055 74.7684 20.3022C73.9312 19.8818 73.0436 19.5679 72.212 19.1335C72.2204 19.0971 72.2288 19.0578 72.2372 19.0214C72.3772 18.4412 72.5144 17.8583 72.6544 17.2782L72.66 17.2725ZM72.3016 16.8241C72.282 16.8241 72.268 16.8269 72.2652 16.8241C72.2652 16.8241 72.2792 16.8241 72.3016 16.8241ZM71.8228 18.9065C71.7696 18.8672 71.6996 18.7972 71.8228 18.9065Z" fill="#668DA4"/>
<path d="M197.527 58.3977C197.497 58.3839 197.464 58.3701 197.436 58.3618C197.442 58.3618 197.445 58.3673 197.45 58.3673C197.478 58.3756 197.503 58.3867 197.53 58.3977H197.527Z" fill="#004167"/>
</svg>
