<svg width="323" height="342" viewBox="0 0 323 342" fill="none" xmlns="http://www.w3.org/2000/svg">
<path d="M225.863 262.06C230.743 263.963 236.875 264.897 238.213 269.52C238.576 270.773 238.579 274.14 237.776 275.216C237.171 276.029 235.034 276.65 234.075 277.119C230.353 278.945 226.63 280.773 222.908 282.598C217.551 285.226 211.926 287.922 205.824 288.037C199.232 288.16 193.108 285.269 186.796 283.562C180.912 281.97 175.098 280.378 169.389 278.335C163.941 276.386 163.414 270.099 163.941 265.38C164.202 263.039 167.298 261.08 169.941 259.995C176.162 257.442 183.914 254.701 190.589 253.375C197.267 252.049 204.464 252.046 210.72 254.524C210.72 254.524 220.98 260.154 225.86 262.057L225.863 262.06Z" fill="#5A6970"/>
<path d="M287.796 253.056C291.494 254.497 296.137 255.206 297.152 258.707C297.427 259.657 297.429 262.207 296.824 263.023C296.363 263.641 294.746 264.108 294.022 264.465C291.201 265.85 288.38 267.232 285.562 268.618C281.503 270.61 277.242 272.652 272.617 272.738C267.624 272.832 262.984 270.642 258.204 269.348C253.746 268.142 249.343 266.934 245.014 265.388C240.885 263.912 240.487 259.15 240.885 255.574C241.082 253.799 243.429 252.315 245.432 251.493C250.142 249.561 256.018 247.483 261.076 246.479C266.133 245.475 271.587 245.472 276.327 247.349C276.327 247.349 284.1 251.614 287.798 253.056H287.796Z" fill="#5A6970"/>
<path d="M162.878 286.488C167.758 288.391 173.89 289.326 175.228 293.948C175.591 295.202 175.594 298.568 174.791 299.645C174.186 300.458 172.049 301.078 171.09 301.548C167.368 303.373 163.645 305.201 159.923 307.027C154.566 309.655 148.941 312.35 142.839 312.466C136.247 312.589 130.123 309.698 123.811 307.991C117.927 306.399 112.113 304.807 106.404 302.764C100.956 300.815 100.429 294.528 100.956 289.809C101.217 287.468 104.313 285.508 106.956 284.424C113.177 281.871 120.929 279.13 127.604 277.804C134.282 276.478 141.479 276.475 147.735 278.953C147.735 278.953 157.995 284.582 162.875 286.485L162.878 286.488Z" fill="#5A6970"/>
<path d="M150.176 249.665C153.105 250.726 156.787 251.246 157.589 253.824C157.807 254.522 157.81 256.398 157.328 256.999C156.965 257.453 155.681 257.799 155.107 258.06C152.873 259.077 150.636 260.097 148.402 261.115C145.186 262.58 141.81 264.084 138.147 264.148C134.19 264.218 130.514 262.604 126.724 261.654C123.192 260.766 119.701 259.88 116.275 258.739C113.004 257.652 112.689 254.148 113.004 251.518C113.16 250.213 115.02 249.12 116.606 248.516C120.339 247.094 124.993 245.566 129.001 244.825C133.009 244.087 137.329 244.084 141.086 245.467C141.086 245.467 147.245 248.605 150.176 249.665Z" fill="#5A6970"/>
<path d="M266.491 290.201C269.826 291.261 274.014 291.782 274.93 294.359C275.177 295.057 275.18 296.933 274.633 297.535C274.219 297.988 272.76 298.335 272.106 298.595C269.562 299.612 267.019 300.632 264.475 301.65C260.814 303.116 256.973 304.619 252.801 304.683C248.298 304.753 244.115 303.14 239.801 302.189C235.779 301.301 231.809 300.415 227.909 299.274C224.186 298.187 223.826 294.684 224.186 292.053C224.364 290.748 226.48 289.656 228.286 289.052C232.536 287.629 237.83 286.102 242.393 285.361C246.955 284.622 251.873 284.62 256.147 286.002C256.147 286.002 263.156 289.14 266.491 290.201Z" fill="#5A6970"/>
<path d="M85.5304 259.705C89.3122 261.093 94.0657 261.775 95.102 265.144C95.3846 266.059 95.3873 268.51 94.7655 269.297C94.2945 269.89 92.6391 270.341 91.8989 270.685C89.0135 272.016 86.128 273.348 83.2425 274.679C79.092 276.596 74.7315 278.561 69.9995 278.644C64.8907 278.735 60.1453 276.625 55.2519 275.382C50.6895 274.223 46.1863 273.06 41.7612 271.571C37.538 270.15 37.1316 265.565 37.538 262.127C37.7399 260.419 40.1409 258.991 42.1892 258.199C47.01 256.339 53.0178 254.339 58.1939 253.373C63.3699 252.406 68.9471 252.404 73.7975 254.21C73.7975 254.21 81.7486 258.315 85.5331 259.703L85.5304 259.705Z" fill="#5A6970"/>
<path d="M226.905 259.606C231.785 261.421 236.737 264.277 238.078 268.685C238.441 269.882 238.482 271.238 237.682 272.266C237.077 273.042 236.081 273.519 235.122 273.968C231.4 275.71 227.677 277.452 223.955 279.194C218.598 281.702 212.973 284.271 206.871 284.381C200.279 284.499 194.155 281.742 187.843 280.112C181.959 278.596 175.599 277.984 170.436 275.127C165.274 272.271 161.89 265.998 165.392 261.676C167.048 259.633 169.82 258.508 172.463 257.474C178.684 255.04 184.958 252.591 191.636 251.327C198.314 250.063 205.511 250.06 211.767 252.422C211.767 252.422 222.028 257.791 226.908 259.606H226.905Z" fill="#738893"/>
<path d="M288.587 251.198C292.285 252.573 296.038 254.739 297.05 258.076C297.324 258.983 297.357 260.009 296.748 260.787C296.288 261.375 295.534 261.737 294.81 262.076C291.989 263.396 289.168 264.714 286.35 266.035C282.291 267.933 278.03 269.882 273.406 269.965C268.413 270.057 263.773 267.965 258.992 266.733C254.535 265.584 249.714 265.12 245.803 262.956C241.892 260.792 239.327 256.038 241.981 252.766C243.235 251.217 245.335 250.366 247.337 249.582C252.048 247.738 256.804 245.883 261.861 244.925C266.919 243.966 272.372 243.964 277.112 245.754C277.112 245.754 284.886 249.821 288.584 251.196L288.587 251.198Z" fill="#738893"/>
<path d="M163.92 284.034C168.8 285.849 173.752 288.705 175.093 293.113C175.456 294.311 175.497 295.666 174.697 296.694C174.092 297.47 173.096 297.948 172.137 298.396C168.415 300.139 164.692 301.881 160.97 303.623C155.613 306.13 149.988 308.699 143.886 308.809C137.294 308.927 131.17 306.171 124.858 304.541C118.974 303.024 112.614 302.412 107.451 299.556C102.289 296.7 98.9053 290.426 102.407 286.104C104.063 284.061 106.835 282.937 109.478 281.903C115.699 279.468 121.973 277.02 128.651 275.756C135.329 274.491 142.526 274.489 148.782 276.851C148.782 276.851 159.043 282.22 163.923 284.034H163.92Z" fill="#738893"/>
<path d="M150.803 248.299C153.732 249.311 156.706 250.903 157.511 253.362C157.729 254.028 157.753 254.785 157.271 255.359C156.908 255.791 156.31 256.057 155.734 256.307C153.5 257.278 151.264 258.25 149.03 259.219C145.813 260.618 142.438 262.049 138.774 262.11C134.818 262.178 131.141 260.639 127.351 259.732C123.819 258.886 120 258.546 116.902 256.954C113.804 255.362 111.771 251.864 113.874 249.453C114.867 248.315 116.533 247.687 118.118 247.11C121.852 245.754 125.62 244.388 129.628 243.682C133.636 242.976 137.956 242.976 141.714 244.294C141.714 244.294 147.872 247.287 150.803 248.299Z" fill="#738893"/>
<path d="M267.202 288.834C270.537 289.846 273.92 291.438 274.835 293.897C275.083 294.563 275.113 295.32 274.563 295.894C274.149 296.327 273.468 296.592 272.814 296.842C270.27 297.814 267.727 298.786 265.183 299.755C261.522 301.153 257.681 302.584 253.509 302.646C249.006 302.713 244.823 301.175 240.509 300.267C236.487 299.422 232.143 299.081 228.617 297.489C225.091 295.897 222.779 292.399 225.171 289.989C226.305 288.85 228.197 288.222 230.003 287.645C234.253 286.289 238.541 284.923 243.103 284.217C247.666 283.511 252.583 283.511 256.858 284.829C256.858 284.829 263.867 287.822 267.202 288.834Z" fill="#738893"/>
<path d="M86.3406 257.917C90.1224 259.241 93.9607 261.324 94.9997 264.537C95.2823 265.41 95.3146 266.398 94.6929 267.147C94.2218 267.713 93.452 268.059 92.7091 268.387C89.8236 269.657 86.9382 270.926 84.0527 272.196C79.9021 274.024 75.5417 275.898 70.8097 275.978C65.7009 276.064 60.9555 274.054 56.0621 272.867C51.4997 271.761 46.5712 271.316 42.5714 269.232C38.5716 267.152 35.9472 262.578 38.6631 259.426C39.947 257.936 42.095 257.117 44.1434 256.363C48.9641 254.589 53.828 252.803 59.0041 251.88C64.1801 250.959 69.7573 250.957 74.6076 252.68C74.6076 252.68 82.5588 256.594 86.3433 257.917H86.3406Z" fill="#738893"/>
<path d="M150.803 248.299C153.732 249.311 156.706 250.903 157.511 253.362C157.729 254.028 157.753 254.785 157.271 255.359C156.908 255.791 156.305 256.567 155.734 256.307C141.043 249.657 111.771 251.864 113.874 249.453C114.867 248.315 116.533 247.687 118.118 247.11C121.852 245.754 125.62 244.388 129.628 243.682C133.636 242.976 137.956 242.976 141.714 244.294C141.714 244.294 147.872 247.287 150.803 248.299Z" fill="#5A6970"/>
<path d="M190.287 250.728C189.24 250.643 176.035 256.097 172.536 257.44C171.769 257.735 193.663 267.466 195.768 267.922C199.226 268.671 202.779 268.894 206.316 268.975C207.603 269.004 208.949 269.002 210.098 268.416C211.247 267.831 212.125 266.481 211.743 265.238C211.498 264.438 210.453 265.259 209.681 264.956C208.908 264.653 208.4 263.184 207.571 263.125C206.246 263.031 204.922 262.937 203.598 262.846L190.285 250.728H190.287Z" fill="#5A6970"/>
<path d="M67.2917 251.265C66.7964 251.22 61.0121 260.135 60.8317 260.661C60.6917 261.069 59.4859 265.493 62.985 265.493C68.4976 265.493 87.603 258.277 87.21 258.245C86.5829 258.197 71.6872 251.045 71.06 250.997L67.2917 251.265Z" fill="#5A6970"/>
<path d="M126.707 146.936C125.397 149.361 125.467 152.63 125.819 155.363C126.113 157.639 125.746 161.932 126.82 163.961C127.337 164.941 126.802 165.443 125.157 165.679C123.477 165.406 122.603 162.254 122.659 160.555C122.699 159.325 120.11 167.824 119.798 171.478C119.644 173.268 119.461 173.494 118.934 174.729C118.635 175.427 117.367 175.845 116.32 175.368C115.55 175.016 117.661 168.407 117.427 165.32C117.367 164.53 114.361 169.566 113.405 172.809C112.272 175.805 110.53 175.314 110.057 174.688C109.486 173.931 109.448 173.655 109.785 172.879C111.026 170.009 112.267 167.14 113.507 164.273C113.133 164.002 112.649 164.418 112.388 164.796C111.176 166.546 108.035 172.259 107.492 172.903C106.754 173.773 106.119 174.012 105.093 173.078C104.609 172.635 108.173 164.92 109.273 163.465C109.736 162.853 110.267 161.178 109.801 161.374C109.335 161.569 106.35 166.012 103.974 167.631C103.634 167.862 103.163 167.873 102.848 167.609C102.388 167.22 102.649 166.576 102.94 166.112C104.165 164.152 105.761 162.455 107.22 160.662C109.177 158.254 110.781 155.629 112.845 153.283C115.012 150.818 115.351 152.673 116.266 148.026C120.075 128.701 123.456 117.418 125.504 111.142C126.522 108.028 135.724 99.7195 142.16 92.6728C145.686 88.8099 157.166 104.573 154.197 106.662C148.445 110.712 145.024 112.358 141.563 115.936C132.298 125.517 137.929 126.18 126.713 146.939L126.707 146.936Z" fill="#BA8057"/>
<path d="M126.907 163.991C126.907 163.991 127.017 164.745 126.304 164.82C126.199 164.831 125.362 162.38 125.564 161.972C125.765 161.564 126.183 161.355 126.183 161.355L126.904 163.991H126.907Z" fill="#C98F67"/>
<path d="M118.649 172.901C118.433 172.777 118.124 172.812 117.884 172.831C117.61 172.852 117.327 172.887 117.058 172.941C116.861 172.981 116.694 173.102 116.625 173.292C116.592 173.378 116.587 173.467 116.603 173.548C116.533 173.773 116.458 173.996 116.39 174.221C116.302 174.527 116.334 174.876 116.616 175.07C116.834 175.22 117.112 175.182 117.362 175.158C117.62 175.134 117.9 175.115 118.145 175.021C118.439 174.906 118.536 174.616 118.635 174.347C118.713 174.141 118.778 173.931 118.834 173.717C118.864 173.601 118.915 173.464 118.912 173.343C118.907 173.153 118.818 172.992 118.651 172.898L118.649 172.901Z" fill="#C98F67"/>
<path d="M112.38 172.734C111.866 172.482 111.295 172.358 110.722 172.409C110.649 172.415 110.576 172.436 110.512 172.471C110.409 172.492 110.318 172.557 110.248 172.651C110.1 172.855 109.963 173.067 109.842 173.287C109.707 173.534 109.521 173.821 109.572 174.114C109.621 174.396 109.898 174.608 110.121 174.758C110.313 174.887 110.536 174.984 110.762 175.037C111.02 175.099 111.368 175.158 111.607 175.008C111.745 174.922 111.828 174.793 111.911 174.662C111.989 174.538 112.068 174.415 112.146 174.288C112.288 174.06 112.434 173.835 112.576 173.607C112.673 173.456 112.749 173.295 112.711 173.11C112.673 172.93 112.539 172.807 112.38 172.729V172.734Z" fill="#C98F67"/>
<path d="M106.999 171.634C106.808 171.55 106.59 171.486 106.38 171.497C106.17 171.507 105.982 171.591 105.847 171.733C105.788 171.765 105.734 171.811 105.699 171.875L105.387 172.436C105.247 172.686 105.005 172.986 105.155 173.279C105.271 173.502 105.559 173.599 105.793 173.641C106.081 173.695 106.372 173.701 106.612 173.505C106.778 173.37 106.883 173.139 106.994 172.96C107.112 172.769 107.255 172.578 107.338 172.369C107.459 172.06 107.282 171.762 106.996 171.636L106.999 171.634Z" fill="#C98F67"/>
<path d="M104.092 167.298C104.165 167.175 104.224 167.048 104.283 166.92C104.359 166.748 104.423 166.579 104.351 166.391C104.272 166.192 104.049 166.074 103.847 166.031C103.643 165.988 103.414 166.007 103.252 166.144C103.166 166.171 103.088 166.227 103.04 166.31C102.905 166.538 102.768 166.764 102.639 166.992C102.569 167.116 102.536 167.244 102.571 167.384C102.606 167.526 102.711 167.634 102.838 167.703C102.962 167.773 103.099 167.83 103.239 167.856C103.384 167.883 103.516 167.883 103.651 167.819C103.756 167.768 103.82 167.685 103.89 167.596C103.966 167.502 104.033 167.403 104.095 167.298H104.092Z" fill="#C98F67"/>
<path d="M169.844 72.7488C169.844 72.7488 168.768 73.0172 168.498 73.5541C168.229 74.091 169.844 75.1648 169.844 75.1648V72.7488Z" fill="#B14B22"/>
<path d="M210.564 237.789C210.962 237.046 211.358 236.302 211.756 235.561C211.899 235.293 211.721 234.96 211.406 234.955C208.206 234.914 205.005 234.877 201.805 234.836C201.875 234.616 201.945 234.396 202.012 234.179C202.168 233.682 201.391 233.47 201.234 233.964C201.111 234.351 200.99 234.737 200.866 235.126C200.858 235.148 200.858 235.169 200.855 235.191L200.693 235.424C200.516 235.293 200.255 235.285 200.128 235.537C199.488 236.818 198.669 237.999 197.681 239.038C196.769 239.999 195.706 240.761 194.667 241.574C193.746 242.294 192.807 243.094 192.244 244.135C191.641 245.252 191.647 246.482 192.145 247.639C192.705 248.938 193.609 250.028 194.037 251.394C194.473 252.79 194.562 254.261 194.54 255.713C194.516 257.179 194.365 258.639 194.301 260.103C194.247 261.356 194.282 262.663 194.672 263.869C195.062 265.085 195.832 266.124 196.974 266.736C198.228 267.41 199.689 267.584 201.086 267.705C202.731 267.847 204.389 267.834 206.031 267.662C206.828 267.579 207.627 267.469 208.413 267.31C209.056 267.179 209.711 266.964 210.19 266.494C211 265.697 211.027 264.449 210.647 263.437C210.195 262.237 209.291 261.437 208.225 260.768C207.059 260.038 205.783 259.453 204.898 258.366C204.098 257.386 203.668 256.116 203.539 254.868C203.234 251.901 204.526 249.126 205.875 246.567C207.423 243.633 209.005 240.713 210.569 237.787L210.564 237.789Z" fill="#BA8057"/>
<path d="M98.2055 233.626C96.9996 231.433 95.7964 229.237 94.5906 227.043C94.028 226.018 93.5139 224.936 92.8733 223.954C92.3969 223.223 91.6755 222.622 90.7469 222.781C89.9636 222.915 89.4118 223.572 88.965 224.171C88.4643 224.842 88.0525 225.594 87.385 226.123C85.9988 227.221 84.0554 227.307 82.365 227.178C80.3705 227.025 78.4217 226.48 76.4084 226.541C74.5269 226.598 72.7073 227.261 71.5068 228.759C70.4679 230.05 69.9941 231.674 69.6873 233.274C69.3589 234.981 69.2082 236.721 68.8206 238.418C67.8408 242.699 64.9446 246.127 62.9985 249.974C61.9999 251.944 61.2112 254.057 61.0228 256.272C60.8586 258.197 61.1251 260.293 62.514 261.74C63.0739 262.323 63.8087 262.803 64.6323 262.873C65.491 262.948 66.2554 262.457 66.6915 261.74C67.1733 260.948 67.3536 259.971 67.6605 259.104C67.9619 258.253 68.3011 257.415 68.6779 256.594C70.1852 253.303 72.2444 250.272 74.7153 247.625C77.1916 244.973 80.0717 242.702 83.2371 240.917C86.3783 239.142 89.7967 237.859 93.3416 237.172C94.2137 237.003 95.0939 236.871 95.9768 236.78C96.3832 236.737 96.4694 236.219 96.2271 236.036L97.6133 234.155C97.9094 234.385 98.4262 234.023 98.2055 233.623V233.626Z" fill="#BA8057"/>
<path d="M205.643 102.546C209.501 104.654 211.097 109.813 214.025 113.083C214.841 113.993 215.697 114.994 216.884 115.281C217.654 115.467 218.458 115.324 219.236 115.171C227.217 113.595 234.996 111.016 242.333 107.507C244.74 106.358 247.289 105.072 249.932 105.421C250.123 106.731 249.625 108.033 249.135 109.263C248.608 110.589 248.067 111.934 247.173 113.045C245.978 114.53 245.588 116.752 243.865 117.577C238.137 120.32 233.637 123.482 228.253 125.898C222.87 128.314 213.896 130.438 213.312 130.462C212.27 130.505 211.374 129.78 210.588 129.096C207.043 126.008 203.498 122.921 199.953 119.834C197.611 117.797 195.256 115.74 193.342 113.3C192.626 112.39 191.962 111.123 192.581 110.143C192.809 109.781 193.178 109.537 193.539 109.3C196.645 107.266 199.751 105.231 202.857 103.199" fill="#BA8057"/>
<path d="M177.141 73.7179C178.309 74.0749 179.44 74.5635 180.501 75.1702C181.386 75.6776 182.277 76.3352 182.589 77.3016C182.753 77.809 182.743 78.3566 182.729 78.8909C182.675 81.0599 183.354 81.8545 183.3 84.0235C181.728 83.1135 180.904 82.233 179.739 80.8424C180.624 79.9861 181.585 78.8989 181.33 77.6963C181.184 77.0198 180.675 76.4909 180.188 75.9997C179.322 75.1272 178.398 74.2199 177.206 73.9085" fill="#B14B22"/>
<path d="M167.422 76.5071C169.109 73.7394 170.06 72.824 170.256 69.5919C170.348 68.0752 170.848 66.2605 169.922 65.0498C161.228 53.6892 162.305 41.8776 178.667 37.7032C183.626 36.4388 184.473 35.0295 190.029 39.9984C193.205 42.8386 193.141 47.7592 192.99 49.6625C192.769 52.4382 191.375 51.896 191.375 54.763C191.375 56.9776 194.605 60.4003 192.99 61.7425C191.666 62.8432 191.644 62.011 191.913 63.3532C191.913 63.5787 192.182 64.427 192.182 64.6955C192.182 65.286 189.76 64.9639 188.414 64.6955C189.491 66.0377 191.375 64.9639 191.375 66.5746C191.375 67.0336 190.99 67.5651 190.567 68.1852C189.757 69.3771 189.593 71.2428 188.683 71.675C187.423 72.2737 182.605 71.463 181.416 72.2119C179.889 73.1703 182.097 79.4519 182.223 81.6075C182.247 81.9968 177.276 82.8612 177.028 83.1645C176.859 83.3685 176.6 83.4732 176.347 83.5457C174.439 84.0933 172.436 83.2531 170.63 82.4263C170.113 82.1901 169.58 81.9431 169.204 81.5163C168.124 80.3002 168.738 78.1902 167.65 76.9795" fill="#BA8057"/>
<path d="M175.228 53.4207C175.54 53.9307 174.958 50.1993 172.592 49.9765C172.073 49.9282 171.543 49.9739 171.093 50.2369C170.644 50.5 169.879 50.5832 169.575 51.0047C168.751 52.1402 168.7 53.8422 168.689 55.2408C168.689 55.2408 171.814 47.8719 175.228 53.4207Z" fill="#A77150"/>
<path d="M171.537 60.0782C172.361 60.5104 173.359 60.2903 174.261 60.0621C173.303 60.8889 170.789 64.2284 168.768 63.6217C168.593 63.568 169.438 62.9425 169.572 62.8163C170.374 62.0674 171.055 61.1922 171.583 60.2312" fill="#A77150"/>
<path d="M186.802 55.0314C186.271 54.269 184.193 52.7657 183.286 52.5536C184.519 52.261 188.296 50.4597 189.806 51.9308C189.937 52.0597 189.668 52.2986 189.491 52.3469C188.433 52.6422 187.711 54.422 186.799 55.0314" fill="#A77150"/>
<path d="M210.039 101.776C206.289 97.8512 202.351 94.1117 198.139 90.6837C194.018 87.3254 189.649 83.9779 184.603 82.1391C182.194 81.2612 179.604 80.7753 177.036 81.0035C175.89 81.1055 174.643 81.2827 173.653 81.9109C172.635 82.5578 172.121 83.645 172.178 84.8369C172.237 86.1201 172.786 87.3147 173.265 88.4878C173.841 89.8918 174.417 91.2931 174.993 92.697C176.137 95.4808 177.279 98.2673 178.423 101.051C179.575 103.856 180.727 106.662 181.876 109.467C182.377 110.686 182.845 111.923 183.405 113.115C183.868 114.103 184.43 115.08 185.23 115.837C185.625 116.216 186.075 116.53 186.573 116.763C186.966 116.948 187.318 116.487 187.138 116.202L189.297 114.938C189.402 115.104 189.612 115.209 189.835 115.088C195.278 112.151 200.567 108.93 205.668 105.437C207.113 104.45 208.542 103.438 209.958 102.407C210.168 102.254 210.233 101.977 210.039 101.773V101.776Z" fill="#004167"/>
<path d="M139.757 152.365C133.019 182.331 112.469 208.918 85.1213 223.038C87.9556 228.098 90.7872 233.156 93.6216 238.216C93.9257 238.761 94.2622 239.336 94.8167 239.623C95.9202 240.195 97.2069 239.376 98.1732 238.595C111.914 227.489 125.367 215.911 140.392 206.604C144.257 204.209 148.244 201.952 151.659 198.951C155.032 195.987 157.756 192.371 160.445 188.779C163.193 185.107 165.992 181.306 167.153 176.874C168.757 170.748 167.037 164.3 165.322 158.203C164.595 155.621 163.758 152.866 161.656 151.197C160.127 149.983 158.138 149.527 156.203 149.261C150.359 148.464 144.319 149.14 138.798 151.216" fill="#D1B08A"/>
<path d="M143.735 146.571C147.234 175.027 105.295 232.785 108.862 229.884C119.012 221.621 129.27 213.492 140.387 206.604C144.252 204.209 148.238 201.952 151.654 198.951C155.027 195.987 157.751 192.371 160.439 188.779C163.188 185.107 165.987 181.306 167.147 176.874C168.751 170.748 167.031 164.3 165.317 158.203" fill="#BC9B7A"/>
<path d="M144.066 148.016C141.819 162.847 150.085 177.596 161.236 187.662C172.388 197.729 186.236 204.196 199.291 211.648C200.298 212.223 201.339 212.84 201.95 213.822C202.957 215.438 202.521 217.53 201.945 219.342C199.975 225.559 196.737 231.373 192.487 236.329C198.158 238.672 204.306 239.867 210.445 239.813C211.239 239.805 212.079 239.765 212.739 239.322C213.403 238.874 213.756 238.103 214.079 237.371C219.592 224.821 225.185 210.73 220.561 197.828C218.257 191.405 213.621 186.081 208.631 181.416C204.238 177.311 199.485 173.574 195.445 169.126C189.23 162.286 184.829 153.825 182.805 144.818C170.601 144.609 158.378 145.358 146.292 147.06" fill="#D1B08A"/>
<path d="M189.628 114.742C193.046 112.898 196.403 110.941 199.689 108.876C197.434 102.68 185.59 84.6946 183.437 82.8155" fill="#00314D"/>
<path d="M189.832 115.088C193.251 113.244 196.605 111.287 199.894 109.223C200.037 109.134 200.142 108.938 200.08 108.769C199.463 107.083 198.615 105.475 197.762 103.897C196.621 101.787 195.402 99.7168 194.15 97.6686C191.695 93.6473 189.135 89.677 186.379 85.8543C185.854 85.1268 185.319 84.402 184.759 83.7014C184.436 83.296 184.11 82.8746 183.72 82.5309C183.329 82.1873 182.759 82.7564 183.149 83.1001C183.48 83.3927 183.763 83.7443 184.04 84.0853C184.492 84.6436 184.909 85.1993 185.348 85.8006C186.576 87.4811 187.749 89.2018 188.901 90.936C191.633 95.0486 194.268 99.239 196.659 103.561C197.628 105.314 198.618 107.118 199.299 108.981L199.485 108.527C196.196 110.592 192.839 112.549 189.423 114.393C188.966 114.64 189.372 115.335 189.83 115.088H189.832Z" fill="#00314D"/>
<path d="M200.33 154.16C197.703 145.345 197.011 136.153 196.29 127.031C195.929 122.484 195.55 117.934 194.896 113.416C194.255 108.978 193.297 104.624 191.975 100.337C190.912 96.8821 189.886 93.4084 188.462 90.0769C187.76 88.4367 186.961 86.8288 185.978 85.3335C185.162 84.0933 184.188 82.6893 182.899 81.8974C181.628 81.1189 180.974 81.6102 179.532 81.339C177.992 81.0491 175.529 80.0559 174.038 79.5566C173.319 79.315 172.719 78.9418 172.076 78.5472C171.182 77.9996 170.259 77.5056 169.29 77.1083C167.424 76.3433 165.333 75.9755 163.368 76.5822C159.664 77.7258 157.592 81.5994 156.012 84.8369C154.111 88.7294 152.741 92.8795 151.961 97.1398C151.767 98.1947 151.614 99.2578 151.49 100.324C151.457 100.605 151.686 100.732 151.907 100.702C148.087 107.169 145.743 114.417 143.175 121.437C140.268 129.391 137.358 137.348 134.451 145.302C132.81 149.793 131.168 154.284 129.526 158.775C129.432 159.03 129.671 159.277 129.916 159.285C139.119 159.586 147.915 156.477 156.773 154.464C165.812 152.41 175.133 151.688 184.385 152.316C189.588 152.67 194.758 153.457 199.832 154.66C200.123 154.729 200.419 154.469 200.33 154.163V154.16Z" fill="#004167"/>
<path d="M164.999 100.399C165.128 104.173 162.986 107.059 160.693 110.063C158.399 113.067 155.743 120.578 153.694 123.754C153.861 122.68 155.691 114.825 155.858 113.754C156.16 111.824 156.461 109.894 156.763 107.961C156.892 107.142 157.024 106.31 157.374 105.556C157.777 104.691 158.453 103.98 159.172 103.349C161.557 101.255 164.512 99.8914 166.916 97.8163" fill="#00314D"/>
<path d="M139.294 157.712C143.218 143.712 144.639 128.172 148.715 114.216C149.239 112.422 149.824 110.61 150.895 109.078C152.655 106.56 155.511 105.07 158.254 103.676C153.487 120.129 151.484 137.393 152.483 154.493" fill="#DF6436"/>
<path d="M139.684 157.819C141.813 150.203 143.167 142.402 144.599 134.636C145.315 130.749 146.05 126.865 146.906 123.007C147.331 121.082 147.789 119.166 148.292 117.26C148.795 115.354 149.253 113.542 149.947 111.762C150.682 109.878 151.821 108.302 153.401 107.035C154.981 105.768 156.712 104.906 158.458 104.02L157.866 103.566C156.001 110.012 154.558 116.575 153.552 123.206C152.548 129.831 151.974 136.518 151.853 143.219C151.786 146.977 151.861 150.738 152.079 154.488C152.109 155.003 152.916 155.006 152.887 154.488C152.502 147.836 152.564 141.16 153.07 134.516C153.576 127.871 154.529 121.246 155.907 114.718C156.685 111.04 157.6 107.389 158.644 103.778C158.746 103.424 158.353 103.169 158.052 103.325C154.924 104.914 151.67 106.667 149.939 109.861C149.04 111.518 148.534 113.354 148.026 115.158C147.517 116.962 147.013 118.951 146.567 120.86C144.736 128.685 143.482 136.628 141.932 144.51C141.068 148.904 140.112 153.285 138.906 157.602C138.766 158.101 139.544 158.316 139.684 157.817V157.819Z" fill="white"/>
<path d="M127.45 95.164C131.267 104.101 138.266 110.884 145.896 116.922C146.273 117.22 146.685 117.526 147.164 117.55C147.907 117.587 148.491 116.959 148.97 116.393C152.889 111.746 157.417 107.612 162.402 104.127C163.608 103.285 164.862 102.46 165.769 101.301C166.776 100.018 167.279 98.4122 167.602 96.815C168.665 91.5507 167.904 85.9375 165.473 81.1458C164.972 80.1579 164.329 79.1378 163.298 78.7298C161.756 78.1177 160.079 79.0975 158.717 80.0398C149.07 86.7187 139.035 94.0231 127.337 95.0459L127.448 95.164H127.45Z" fill="#004167"/>
<path d="M142.424 102.165C142.322 102.444 142.543 102.731 142.839 102.713C144.903 102.584 146.952 102.205 148.922 101.585C149.702 101.341 150.583 100.936 150.747 100.136C150.817 99.8001 150.739 99.4511 150.639 99.1236C150.383 98.2914 149.953 97.4887 149.28 96.9357C148.607 96.3801 147.684 96.1653 146.833 96.364C144.556 96.9008 142.96 100.697 142.421 102.165H142.424Z" fill="#EC642D"/>
<path d="M148.007 97.4807C148.814 98.0203 149.25 98.3048 149.554 98.9625C149.859 99.6202 149.654 100.562 148.968 100.793C148.755 100.863 148.526 100.86 148.303 100.839C147.552 100.772 146.785 100.519 146.265 99.9746C145.743 99.4296 145.563 98.5491 145.902 97.8968C146.241 97.2445 147.083 96.8659 148.009 97.4834L148.007 97.4807Z" fill="#CCD9E1"/>
<path d="M148.445 98.4981C148.392 98.5357 148.332 98.5706 148.273 98.6001C148.254 98.6108 148.233 98.6189 148.214 98.6269C148.249 98.6108 148.252 98.6135 148.214 98.6269C148.176 98.6404 148.139 98.6538 148.101 98.6672C147.931 98.7236 147.756 98.7638 147.581 98.8014C147.256 98.8685 146.927 98.9115 146.604 98.9786C146.446 99.0108 146.338 99.2095 146.386 99.3598C146.44 99.5289 146.599 99.6121 146.769 99.5772C147.102 99.5101 147.439 99.4645 147.773 99.3947C148.106 99.3249 148.478 99.239 148.758 99.0377C148.89 98.9437 148.965 98.7638 148.868 98.6135C148.785 98.482 148.583 98.4014 148.443 98.5034L148.445 98.4981Z" fill="#004167"/>
<path d="M148.569 99.9638C148.203 99.2498 147.77 98.5706 147.406 97.8565C147.331 97.7062 147.121 97.6632 146.981 97.7465C146.828 97.835 146.793 98.0203 146.871 98.1706C147.237 98.8847 147.67 99.5638 148.034 100.278C148.109 100.428 148.319 100.471 148.459 100.388C148.612 100.299 148.647 100.114 148.569 99.9638Z" fill="#004167"/>
<path d="M181.957 76.2386C183.426 76.8882 183.356 81.8545 183.303 84.0235C181.731 83.1135 180.907 82.233 179.741 80.8424C180.627 79.9861 184.234 79.3016 181.957 76.2386Z" fill="#EC642D"/>
<path d="M173.882 68.1852L176.011 69.2939C176.977 70.0644 178.113 70.5878 179.324 70.8429C180.183 71.0227 181.391 71.3395 182.988 71.8925C182.301 71.9274 181.733 72.016 181.418 72.2146C180.649 72.6978 180.829 74.5313 181.211 76.5097L173.882 68.1879V68.1852Z" fill="#A77150"/>
<path d="M178.102 43.3701C179.015 44.2022 179.959 43.9606 181.149 44.2935C181.994 44.5297 191.168 45.2492 192.723 45.9042C192.723 47.2464 182.764 45.3673 180.342 47.2464C178.681 48.535 178.188 53.6891 176.304 53.9576L178.102 43.3701Z" fill="#A77150"/>
<path d="M168.768 63.6216C169.642 64.0646 171.898 60.105 171.728 59.8634C170.773 58.5104 169.575 58.5212 169.306 56.9105C168.883 54.379 169.163 50.6799 171.728 50.4678C174.958 50.1993 173.882 53.4207 176.035 53.9576C177.768 54.3898 177.925 47.5229 179.071 46.1592C179.677 45.4371 180.713 45.2787 181.655 45.2063C185.652 44.8949 192.513 46.4304 192.877 46.2639C193.579 45.9391 193.159 44.9485 193.305 44.1888C193.8 41.6091 193.574 39.687 191.647 37.8508C189.722 36.0174 185.994 34.0926 183.303 33.5557C182.239 33.3436 178.161 33.0134 177.112 33.2873C173.93 34.1168 173.419 34.0926 170.237 34.9221C169.306 35.1637 168.356 35.416 167.554 35.9502C166.762 36.4764 166.17 37.2468 165.459 37.8804C164.792 38.479 164.857 38.5917 164.189 39.1931C161.228 41.8641 161.497 47.2464 162.574 56.1052C162.964 59.3077 167.89 63.1787 168.765 63.6216H168.768Z" fill="#4F3041"/>
<path d="M191.647 62.5478C190.032 62.5478 189.055 62.2713 187.79 62.1129C187.246 62.0458 186.831 62.1371 186.627 62.6901C186.42 63.2431 186.274 63.8283 186.126 64.4001C185.989 64.9316 185.795 65.5115 185.817 66.0698C185.838 66.5799 186.36 69.8335 186.317 70.3918C186.285 70.8401 186.401 71.3314 186.761 71.6267C187.16 71.9542 187.722 71.922 188.204 71.8683C188.713 71.8119 189.13 71.6186 189.434 71.2025C189.728 70.8025 189.859 70.3032 190.01 69.8388C190.196 69.2697 190.565 68.7194 190.834 68.1825C191.415 67.0309 191.103 67.3772 189.964 67.1275C189.004 66.7544 188.088 66.1074 187.69 65.1195C187.582 64.8538 187.512 64.5665 187.502 64.2793C187.499 64.2015 187.469 64.0082 187.52 63.9437C187.577 63.874 187.685 63.9008 187.782 63.9142C188.452 64.0028 189.119 64.1558 189.787 64.2632C190.126 64.3169 190.465 64.3706 190.804 64.4189C191.084 64.4592 191.894 64.4806 192.177 64.4243C192.177 63.6189 191.889 62.5451 191.639 62.5451L191.647 62.5478Z" fill="#4F3041"/>
<path d="M157.328 85.4999C162.09 80.9444 164.595 76.3728 171.459 80.2652C169.979 83.0839 165.672 85.7684 165.941 93.8217" fill="#DF6436"/>
<path d="M157.508 85.6798C159.131 84.1228 160.598 82.3833 162.329 80.9417C163.78 79.7311 165.47 78.8935 167.406 79.0814C168.803 79.2156 170.124 79.8062 171.333 80.4854L171.241 80.1391C170.544 81.4518 169.484 82.5497 168.622 83.7524C167.435 85.4114 166.539 87.2449 166.087 89.2394C165.745 90.7427 165.64 92.2863 165.688 93.8245C165.699 94.1493 166.205 94.152 166.197 93.8245C166.122 91.3333 166.472 88.8233 167.543 86.5549C168.28 84.9926 169.325 83.6396 170.38 82.2867C170.851 81.6827 171.322 81.0733 171.68 80.3968C171.745 80.2787 171.712 80.1203 171.588 80.0505C169.602 78.9338 167.284 78.115 165.015 78.813C163.069 79.4116 161.535 80.8934 160.138 82.3028C159.142 83.3094 158.173 84.343 157.15 85.3228C156.913 85.5483 157.274 85.9053 157.508 85.6798Z" fill="white"/>
<path d="M165.002 76.7943C164.636 77.5164 164.38 78.3298 164.496 79.1325C164.679 80.3915 165.712 81.331 166.679 82.1578C169.664 84.7108 172.649 87.2637 175.634 89.8166C176.633 86.8127 177.844 83.8813 179.26 81.0492C177.198 80.0505 175.109 79.111 172.996 78.2305C171.876 77.7634 170.778 77.2184 169.885 76.397C167.96 74.6279 169.257 72.934 169.551 72.8401C168.498 73.0173 165.861 75.0924 165.002 76.7943Z" fill="#EC642D"/>
<path d="M152.103 85.9644C153.035 84.9336 154.028 83.8598 155.301 83.5001C157.072 82.9954 158.892 83.9994 160.429 85.1081C161.812 86.1067 163.142 87.2288 164.211 88.6274C165.279 90.026 166.087 91.7172 166.305 93.5399C166.428 94.5842 166.315 95.7654 165.629 96.4902C164.892 97.2687 163.742 97.2767 162.746 97.0593C160.628 96.5922 158.711 95.3412 156.965 93.9211C156.092 93.2098 155.231 92.4313 154.671 91.3977C154.305 90.7213 154.079 89.9562 153.702 89.2824C153.078 88.1657 152.007 87.1993 152.036 85.8812" fill="#004167"/>
<path d="M174.092 98.7961C174.116 98.8229 174.172 98.8175 174.199 98.7853C174.388 98.5572 174.544 98.3156 174.662 98.0659C174.708 97.9666 174.746 97.8485 174.662 97.7814C174.627 97.7545 174.576 97.7411 174.525 97.7303C174.396 97.7062 174.256 97.7035 174.119 97.7411C173.981 97.7787 173.866 97.8646 173.806 97.9666C173.647 98.2431 173.96 98.6457 174.086 98.7934L174.092 98.7961Z" fill="#EC642D"/>
<path d="M174.065 97.9129C174.21 97.8592 174.291 97.8297 174.401 97.8377C174.512 97.8458 174.608 97.9236 174.568 98.0122C174.555 98.0391 174.533 98.0632 174.509 98.0847C174.425 98.1599 174.318 98.227 174.199 98.2511C174.081 98.2753 173.954 98.2404 173.906 98.1626C173.857 98.0847 173.895 97.972 174.062 97.9129H174.065Z" fill="#CCD9E1"/>
<path d="M174.239 97.9262C174.239 97.9262 174.239 97.9262 174.239 97.9235C174.239 97.9235 174.239 97.9289 174.239 97.9315C174.239 97.9342 174.239 97.9396 174.237 97.9423C174.237 97.9476 174.234 97.953 174.231 97.9583C174.228 97.9663 174.234 97.953 174.231 97.9583C174.231 97.9583 174.231 97.9637 174.228 97.9663C174.218 97.9877 174.207 98.0091 174.194 98.0305C174.169 98.068 174.143 98.1055 174.121 98.1456C174.11 98.1643 174.116 98.1938 174.137 98.2045C174.159 98.2152 174.183 98.2098 174.196 98.1884C174.22 98.1483 174.25 98.1108 174.274 98.068C174.298 98.0252 174.325 97.9797 174.328 97.9315C174.328 97.9101 174.306 97.8887 174.285 97.8887C174.261 97.8887 174.245 97.9075 174.242 97.9315L174.239 97.9262Z" fill="#004167"/>
<path d="M174.42 97.9988C174.294 97.9934 174.17 97.9988 174.043 97.9934C173.987 97.9934 173.987 98.0766 174.043 98.0793C174.17 98.0847 174.294 98.0793 174.42 98.0847C174.477 98.0847 174.477 98.0015 174.42 97.9988Z" fill="#004167"/>
<path d="M167.532 99.1182L167.454 101.685C167.449 101.886 167.632 102.058 167.828 102.058C168.035 102.058 168.197 101.886 168.202 101.685L168.28 99.1182C168.286 98.9169 168.103 98.7451 167.906 98.7451C167.699 98.7451 167.537 98.9169 167.532 99.1182Z" fill="white"/>
<path d="M166.819 99.3947C167.686 99.2095 168.563 99.0779 169.446 99.0027C169.648 98.9866 169.82 98.8417 169.82 98.6296C169.82 98.439 169.648 98.2377 169.446 98.2565C168.496 98.337 167.551 98.4739 166.62 98.6752C166.42 98.7182 166.307 98.9491 166.359 99.1343C166.415 99.3383 166.622 99.4376 166.819 99.3947Z" fill="white"/>
<path d="M168.391 99.7222C168.377 100.052 168.377 100.38 168.391 100.71C168.404 101.04 168.407 101.381 168.63 101.639C168.894 101.942 169.373 101.891 169.64 101.62C169.906 101.349 169.925 100.965 169.955 100.619C169.987 100.246 169.99 99.8725 169.96 99.4994C169.944 99.3034 169.798 99.1155 169.586 99.1262C169.395 99.1343 169.196 99.2927 169.212 99.4994C169.239 99.8537 169.241 100.208 169.212 100.562C169.206 100.646 169.196 100.726 169.187 100.809C169.187 100.828 169.182 100.847 169.179 100.866C169.185 100.82 169.185 100.817 169.179 100.86C169.174 100.893 169.169 100.922 169.161 100.954C169.15 100.995 169.139 101.038 169.123 101.075C169.147 101.013 169.117 101.072 169.104 101.097C169.058 101.134 169.155 101.008 169.104 101.097C169.152 101.056 168.996 101.142 169.109 101.097C169.039 101.123 169.171 101.107 169.101 101.099C169.155 101.11 169.163 101.11 169.12 101.099C169.15 101.105 169.177 101.121 169.196 101.145C169.174 101.121 169.171 101.123 169.19 101.145C169.209 101.169 169.209 101.172 169.19 101.145C169.171 101.11 169.174 101.115 169.196 101.166C169.19 101.153 169.187 101.142 169.182 101.129C169.171 101.099 169.166 101.067 169.161 101.038C169.142 100.954 169.163 101.107 169.161 101.03C169.158 100.952 169.15 100.868 169.147 100.788C169.131 100.434 169.131 100.079 169.144 99.7249C169.152 99.5289 168.967 99.341 168.77 99.3517C168.56 99.3598 168.404 99.5155 168.396 99.7249L168.391 99.7222Z" fill="white"/>
<path d="M170.132 99.5719C170.057 100.702 170.03 101.832 170.051 102.965C170.06 103.446 170.811 103.448 170.802 102.965C170.781 101.832 170.808 100.702 170.883 99.5719C170.897 99.3705 170.7 99.1987 170.509 99.1987C170.294 99.1987 170.148 99.3705 170.135 99.5719H170.132Z" fill="white"/>
<path d="M170.584 99.6067C170.614 99.6067 170.644 99.6014 170.673 99.6041C170.689 99.6041 170.703 99.6041 170.719 99.6041C170.759 99.6067 170.749 99.604 170.687 99.5987C170.741 99.6175 170.805 99.6255 170.859 99.6416C170.926 99.6631 170.786 99.6041 170.851 99.639C170.878 99.6524 170.905 99.6658 170.929 99.6819C170.942 99.6899 170.953 99.698 170.967 99.7061C170.999 99.7302 170.991 99.7222 170.945 99.6873C170.959 99.7087 170.994 99.7275 171.012 99.7463C171.031 99.7651 171.047 99.7839 171.066 99.8027C171.085 99.8242 171.077 99.8134 171.042 99.7705C171.05 99.7812 171.058 99.7946 171.066 99.8081C171.082 99.8349 171.096 99.8618 171.112 99.8886C171.128 99.9262 171.125 99.9154 171.101 99.8644C171.107 99.8779 171.112 99.894 171.117 99.9074C171.128 99.9369 171.136 99.9665 171.142 99.9987C171.142 100.009 171.147 100.023 171.147 100.034C171.152 100.063 171.15 100.05 171.142 99.9933C171.134 100.012 171.147 100.066 171.147 100.087C171.147 100.109 171.134 100.162 171.142 100.181C171.15 100.119 171.152 100.111 171.144 100.152C171.142 100.168 171.139 100.181 171.134 100.197C171.125 100.227 171.115 100.256 171.107 100.286C171.085 100.353 171.147 100.216 171.107 100.283C171.093 100.307 171.08 100.332 171.064 100.356C171.031 100.409 171.128 100.283 171.064 100.356C171.047 100.374 171.026 100.391 171.01 100.409C170.959 100.458 171.08 100.364 171.026 100.399C171.004 100.412 170.983 100.425 170.961 100.439C170.951 100.444 170.94 100.45 170.926 100.458C170.891 100.474 170.902 100.468 170.964 100.442C170.94 100.447 170.916 100.458 170.891 100.466C170.881 100.468 170.867 100.471 170.856 100.474C170.816 100.482 170.832 100.479 170.902 100.468C170.886 100.468 170.864 100.471 170.848 100.471C170.837 100.471 170.824 100.471 170.813 100.471C170.773 100.468 170.789 100.471 170.862 100.477C170.843 100.468 170.813 100.46 170.794 100.458C170.856 100.485 170.87 100.49 170.837 100.474C170.827 100.468 170.816 100.463 170.808 100.455C170.757 100.425 170.881 100.522 170.813 100.455C170.676 100.315 170.418 100.307 170.283 100.455C170.148 100.603 170.138 100.834 170.283 100.984C170.49 101.196 170.784 101.252 171.069 101.193C171.33 101.137 171.556 100.965 171.707 100.75C172.041 100.275 171.93 99.5316 171.483 99.1638C171.23 98.9571 170.913 98.8282 170.582 98.8551C170.388 98.8712 170.197 99.0162 170.208 99.2282C170.216 99.4161 170.375 99.6202 170.582 99.6014L170.584 99.6067Z" fill="white"/>
<path d="M173.497 99.341C173.225 99.0484 172.74 99.0403 172.42 99.2604C172.076 99.4967 171.949 99.8832 171.917 100.283C171.901 100.46 171.895 100.656 171.957 100.825C172.038 101.048 172.208 101.223 172.442 101.282C172.843 101.387 173.238 101.172 173.438 100.825C173.54 100.648 173.594 100.452 173.634 100.256C173.653 100.165 173.672 100.074 173.696 99.9852C173.699 99.9718 173.728 99.8457 173.742 99.843C173.742 99.843 173.707 99.9155 173.734 99.8644C173.75 99.8349 173.763 99.8054 173.782 99.7759L173.096 99.6873C173.193 100.058 173.287 100.428 173.384 100.799C173.432 100.989 173.656 101.121 173.844 101.059C174.032 100.997 174.159 100.801 174.105 100.6C174.008 100.23 173.914 99.8591 173.817 99.4886C173.736 99.1745 173.295 99.1262 173.131 99.4C172.967 99.6738 172.945 99.9557 172.867 100.246C172.859 100.275 172.851 100.305 172.84 100.334C172.832 100.358 172.81 100.396 172.808 100.42C172.808 100.372 172.837 100.356 172.819 100.393C172.81 100.407 172.805 100.42 172.797 100.434C172.778 100.466 172.754 100.495 172.738 100.528C172.743 100.519 172.797 100.463 172.754 100.503C172.743 100.514 172.732 100.525 172.722 100.536C172.716 100.541 172.695 100.565 172.689 100.565C172.687 100.565 172.775 100.511 172.722 100.538C172.711 100.544 172.7 100.552 172.689 100.557C172.662 100.573 172.644 100.557 172.727 100.544C172.703 100.549 172.679 100.557 172.654 100.565C172.595 100.584 172.703 100.56 172.7 100.562C172.695 100.565 172.67 100.562 172.662 100.565C172.649 100.565 172.638 100.565 172.625 100.565C172.563 100.568 172.676 100.568 172.671 100.573C172.66 100.581 172.614 100.557 172.601 100.554C172.681 100.565 172.671 100.589 172.641 100.57C172.633 100.565 172.625 100.562 172.619 100.557C172.595 100.541 172.609 100.552 172.66 100.589C172.657 100.584 172.633 100.57 172.636 100.565C172.636 100.565 172.697 100.654 172.66 100.592C172.633 100.546 172.679 100.6 172.668 100.619L172.654 100.576C172.652 100.562 172.649 100.544 172.646 100.53C172.649 100.538 172.652 100.624 172.652 100.56C172.652 100.525 172.652 100.49 172.652 100.455C172.652 100.399 172.654 100.34 172.66 100.283C172.66 100.267 172.662 100.254 172.665 100.238C172.67 100.173 172.662 100.262 172.66 100.267C172.668 100.23 172.673 100.192 172.681 100.154C172.689 100.125 172.695 100.095 172.705 100.066C172.711 100.052 172.716 100.036 172.719 100.023C172.732 99.9826 172.74 100.017 172.705 100.05C172.722 100.034 172.732 99.9906 172.746 99.9691C172.754 99.9557 172.762 99.945 172.77 99.9316C172.805 99.8752 172.727 99.9772 172.759 99.945C172.778 99.9262 172.808 99.9047 172.821 99.8832C172.789 99.9316 172.759 99.9262 172.792 99.9074C172.808 99.8967 172.824 99.8859 172.84 99.8779C172.851 99.8725 172.867 99.8671 172.875 99.8591C172.859 99.8725 172.789 99.8886 172.848 99.8725C172.864 99.8671 172.915 99.8457 172.932 99.851C172.934 99.851 172.827 99.8564 172.889 99.8564C172.905 99.8564 172.921 99.8564 172.934 99.8564C172.95 99.8564 172.996 99.8618 172.932 99.8537C172.862 99.843 172.921 99.8537 172.937 99.8564C172.945 99.8564 172.961 99.8671 172.972 99.8671C172.913 99.8403 172.897 99.8349 172.924 99.8483C172.932 99.851 172.94 99.8564 172.948 99.8618C172.977 99.8752 172.967 99.8993 172.915 99.8349C172.926 99.8483 172.942 99.8618 172.956 99.8752C173.09 100.02 173.352 100.02 173.486 99.8752C173.629 99.7222 173.629 99.4994 173.486 99.3463L173.497 99.341Z" fill="white"/>
<path d="M174.081 99.4215L174.17 100.93C174.181 101.126 174.334 101.314 174.544 101.303C174.738 101.295 174.931 101.14 174.918 100.93L174.829 99.4215C174.818 99.2256 174.665 99.0377 174.455 99.0484C174.261 99.0565 174.067 99.2122 174.081 99.4215Z" fill="white"/>
<path d="M176.73 99.3651C176.415 99.0806 175.973 99.0672 175.607 99.2578C175.268 99.4323 175.063 99.8 174.985 100.16C174.95 100.326 174.915 100.511 174.929 100.681C174.948 100.936 175.085 101.158 175.343 101.231C175.507 101.276 175.699 101.266 175.863 101.228C176.04 101.185 176.164 101.081 176.277 100.941C176.412 100.774 176.533 100.603 176.622 100.407C176.721 100.184 176.783 99.9718 176.813 99.7302L176.075 99.8296C176.105 99.9181 176.129 100.007 176.145 100.098C176.151 100.125 176.178 100.195 176.145 100.103C176.151 100.122 176.151 100.146 176.153 100.168C176.159 100.211 176.162 100.254 176.167 100.297C176.186 100.501 176.202 100.707 176.256 100.903C176.283 101 176.315 101.105 176.372 101.185C176.485 101.346 176.668 101.443 176.867 101.392C177.039 101.349 177.157 101.193 177.182 101.024C177.209 100.831 177.09 100.611 176.883 100.576C176.781 100.557 176.686 100.56 176.595 100.613C176.517 100.659 176.444 100.748 176.423 100.836C176.382 101.019 176.479 101.26 176.684 101.295L176.614 101.266L176.479 101.132C176.355 100.812 176.52 100.681 176.972 100.745C177.007 100.796 177.018 100.809 177.001 100.785C176.985 100.758 177.034 100.879 177.007 100.801C176.988 100.745 176.972 100.686 176.958 100.627C176.953 100.6 176.948 100.573 176.942 100.549C176.937 100.525 176.913 100.45 176.942 100.544C176.926 100.493 176.929 100.428 176.923 100.377C176.902 100.128 176.88 99.8752 176.797 99.6363C176.735 99.4591 176.576 99.3437 176.385 99.3678C176.307 99.3786 176.226 99.4108 176.17 99.4698C176.097 99.5477 176.073 99.6309 176.059 99.7356C176.073 99.6228 176.059 99.7275 176.054 99.7544C176.049 99.7866 176.04 99.8161 176.032 99.8483C176.014 99.9155 175.992 99.9799 175.968 100.044C175.952 100.093 175.997 99.9772 175.976 100.023C175.97 100.034 175.965 100.044 175.96 100.055C175.946 100.085 175.93 100.114 175.917 100.144C175.884 100.205 175.847 100.264 175.809 100.323C175.79 100.35 175.771 100.377 175.752 100.404C175.744 100.415 175.707 100.455 175.744 100.415C175.782 100.374 175.744 100.415 175.736 100.426C175.715 100.45 175.693 100.474 175.672 100.498C175.637 100.536 175.569 100.579 175.68 100.506C175.672 100.511 175.664 100.514 175.656 100.519C175.656 100.519 175.755 100.485 175.704 100.498C175.682 100.503 175.661 100.511 175.642 100.514C175.634 100.514 175.626 100.514 175.615 100.519C175.572 100.53 175.707 100.511 175.661 100.514C175.634 100.514 175.607 100.519 175.58 100.519C175.556 100.519 175.534 100.517 175.51 100.517C175.615 100.514 175.577 100.525 175.534 100.517C175.532 100.517 175.51 100.511 175.51 100.509C175.51 100.503 175.607 100.552 175.569 100.53C175.602 100.549 175.637 100.579 175.653 100.611C175.664 100.632 175.68 100.697 175.666 100.638C175.656 100.592 175.672 100.726 175.672 100.678C175.672 100.667 175.672 100.656 175.672 100.648C175.672 100.621 175.672 100.592 175.674 100.565C175.674 100.536 175.68 100.503 175.682 100.474C175.688 100.409 175.682 100.498 175.677 100.503C175.682 100.485 175.682 100.463 175.685 100.447C175.696 100.385 175.709 100.326 175.726 100.267C175.734 100.24 175.742 100.216 175.75 100.189C175.75 100.187 175.766 100.152 175.766 100.146C175.744 100.197 175.739 100.208 175.75 100.184C175.755 100.173 175.758 100.162 175.763 100.152C175.787 100.101 175.82 100.052 175.849 100.007C175.876 99.9665 175.801 100.063 175.833 100.028C175.844 100.017 175.852 100.004 175.863 99.9933C175.884 99.9718 175.911 99.953 175.93 99.9316C175.884 99.9879 175.874 99.9718 175.903 99.953C175.917 99.945 175.933 99.9342 175.946 99.9262C175.957 99.9181 175.97 99.9128 175.981 99.9074C176.038 99.8806 175.981 99.9128 175.957 99.9155C175.989 99.9101 176.022 99.894 176.054 99.8859C176.059 99.8859 176.094 99.8779 176.094 99.8779C176.094 99.8806 175.997 99.8859 176.054 99.8832C176.075 99.8832 176.135 99.8698 176.153 99.8832C176.153 99.8832 176.051 99.8618 176.113 99.8779C176.129 99.8806 176.145 99.8859 176.162 99.8886C176.175 99.8913 176.186 99.8967 176.199 99.8993C176.232 99.9074 176.119 99.8537 176.172 99.8886C176.183 99.8967 176.194 99.902 176.205 99.9074C176.261 99.9396 176.137 99.851 176.191 99.8993C176.337 100.031 176.581 100.052 176.721 99.8993C176.853 99.7571 176.878 99.5101 176.721 99.3705L176.73 99.3651Z" fill="white"/>
<path d="M196.761 239.722C200.556 242.656 202.413 245.153 206.725 247.257C205.482 248.927 204.475 250.833 204.219 252.895C203.964 254.956 204.55 257.195 206.082 258.605C207.428 259.842 209.449 260.451 210.216 262.108C210.733 263.222 211.508 265.088 211.293 266.298C211.202 266.816 208.865 267.649 208.373 267.74C204.806 268.392 201.084 268.191 197.611 267.149C196.583 266.84 195.533 266.435 194.812 265.643C193.91 264.655 193.668 263.227 193.717 261.893C193.765 260.559 192.957 255.163 191.377 252.339C191.256 252.124 189.762 253.144 188.147 247.507C187.808 246.321 188.573 245.545 189.149 244.452C189.727 243.362 190.796 242.632 191.835 241.961" fill="#33202B"/>
<path d="M211.665 265.029C211.587 264.884 211.444 264.741 211.274 264.712C211.234 264.704 211.199 264.712 211.167 264.722C211.137 264.728 211.105 264.741 211.078 264.765C210.025 265.619 208.591 265.869 207.272 265.928C205.7 266 204.123 265.815 202.578 265.539C201.162 265.286 199.762 264.948 198.373 264.572C197.619 264.368 196.852 264.081 196.077 263.965C196.064 263.965 196.004 263.955 195.975 263.955C195.972 263.949 195.967 263.944 195.961 263.936C195.926 263.877 195.84 263.743 195.795 263.641C195.614 263.243 195.498 262.811 195.385 262.39C195.035 261.101 194.774 259.786 194.529 258.476C194.29 257.198 194.075 255.915 193.892 254.626C193.835 254.226 193.778 253.824 193.743 253.421C193.698 252.881 193.604 252.436 193.313 251.958C192.815 251.142 192.107 250.441 191.375 249.832C191.141 249.639 190.88 249.477 190.705 249.225C190.532 248.981 190.406 248.699 190.298 248.422C189.827 247.225 189.579 245.931 189.378 244.664C189.364 244.578 189.351 244.492 189.337 244.404C189.313 244.229 189.044 244.213 188.968 244.356C188.551 245.129 187.927 245.878 187.859 246.785C187.822 247.284 187.997 247.767 188.145 248.237C188.285 248.686 188.438 249.128 188.613 249.566C188.985 250.5 189.45 251.604 190.306 252.208C190.489 252.336 190.697 252.436 190.92 252.476C191.003 252.492 191.087 252.497 191.17 252.503C191.186 252.503 191.205 252.503 191.221 252.503C191.259 252.599 191.388 252.803 191.437 252.9C191.612 253.254 191.762 253.62 191.902 253.99C192.19 254.755 192.427 255.539 192.629 256.328C193.003 257.783 193.294 259.27 193.445 260.766C193.493 261.251 193.501 261.724 193.501 262.21C193.501 263.123 193.644 264.057 194.05 264.884C194.933 266.682 197.017 267.257 198.82 267.683C200.987 268.199 203.229 268.4 205.452 268.282C206.456 268.228 207.498 268.142 208.483 267.92C209.032 267.796 209.568 267.573 210.082 267.351C210.523 267.16 211.172 266.921 211.43 266.483C211.449 266.454 211.457 266.419 211.473 266.39C211.541 266.29 211.603 266.199 211.648 266.086C211.778 265.769 211.829 265.337 211.659 265.026L211.665 265.029ZM191.273 252.503C191.273 252.503 191.27 252.503 191.267 252.503C191.291 252.503 191.273 252.503 191.273 252.503Z" fill="#B8B8B8"/>
<path d="M201.835 252.908C201.878 252.879 201.923 252.852 201.969 252.828C201.993 252.814 202.015 252.803 202.039 252.793C202.061 252.782 202.09 252.771 202.053 252.787C202.158 252.747 202.265 252.718 202.376 252.693C202.427 252.683 202.481 252.672 202.532 252.664C202.559 252.659 202.586 252.656 202.61 252.65C202.618 252.65 202.693 252.64 202.656 252.642C202.618 252.645 202.693 252.637 202.701 252.637C202.728 252.634 202.755 252.632 202.782 252.629C202.836 252.624 202.892 252.618 202.946 252.613C203.035 252.605 203.124 252.599 203.213 252.602C203.258 252.602 203.302 252.602 203.347 252.608C203.369 252.608 203.39 252.613 203.415 252.613C203.382 252.61 203.358 252.602 203.404 252.613C203.447 252.621 203.487 252.632 203.528 252.642C203.538 252.645 203.619 252.68 203.568 252.656C203.52 252.632 203.581 252.664 203.59 252.669C203.606 252.68 203.625 252.693 203.641 252.701C203.678 252.718 203.606 252.659 203.63 252.693C203.638 252.707 203.66 252.726 203.673 252.736C203.711 252.766 203.627 252.667 203.673 252.742C203.786 252.919 204.036 253.008 204.225 252.887C204.402 252.774 204.491 252.524 204.37 252.336C204.071 251.875 203.528 251.77 203.011 251.805C202.47 251.84 201.888 251.915 201.423 252.218C201.245 252.334 201.156 252.581 201.277 252.769C201.39 252.943 201.641 253.037 201.829 252.914L201.835 252.908Z" fill="#B8B8B8"/>
<path d="M202.01 255.254C202.088 255.198 202.168 255.147 202.255 255.104C202.279 255.091 202.306 255.08 202.33 255.066C202.29 255.083 202.298 255.083 202.33 255.066C202.378 255.048 202.427 255.032 202.475 255.018C202.524 255.005 202.575 254.991 202.623 254.981C202.653 254.975 202.771 254.956 202.685 254.967C202.787 254.956 202.89 254.951 202.992 254.954C203.038 254.954 203.084 254.959 203.129 254.962C203.21 254.967 203.092 254.954 203.14 254.962C203.162 254.967 203.186 254.97 203.207 254.972C203.302 254.991 203.396 255.015 203.487 255.048C203.514 255.056 203.541 255.066 203.568 255.077C203.625 255.099 203.514 255.048 203.565 255.077C203.611 255.101 203.657 255.123 203.703 255.147C203.743 255.168 203.781 255.193 203.818 255.219C203.826 255.225 203.902 255.279 203.861 255.246C203.821 255.214 203.902 255.279 203.899 255.279C204.061 255.415 204.314 255.448 204.47 255.279C204.607 255.128 204.642 254.854 204.47 254.709C203.681 254.044 202.459 253.942 201.606 254.559C201.436 254.683 201.334 254.916 201.46 255.109C201.568 255.279 201.829 255.386 202.012 255.254H202.01Z" fill="#B8B8B8"/>
<path d="M202.268 257.453C202.709 257.238 203.172 257.021 203.635 257.034C203.824 257.04 204.001 257.085 204.176 257.203C204.386 257.346 204.561 257.509 204.817 257.568C205.03 257.617 205.253 257.504 205.315 257.287C205.372 257.082 205.245 256.841 205.032 256.79C205.005 256.785 204.976 256.776 204.949 256.766C204.987 256.782 204.938 256.758 204.927 256.75C204.871 256.712 204.817 256.677 204.763 256.637C204.666 256.564 204.572 256.489 204.464 256.433C204.193 256.293 203.891 256.226 203.587 256.223C202.968 256.223 202.4 256.489 201.859 256.755C201.662 256.852 201.609 257.128 201.714 257.305C201.829 257.504 202.069 257.547 202.265 257.45L202.268 257.453Z" fill="#B8B8B8"/>
<path d="M80.4916 225.414C79.0408 224.38 77.1109 224.354 75.3371 224.539C73.959 224.684 72.5943 224.936 71.2538 225.288C70.8151 225.403 70.3548 225.543 70.0426 225.876C69.7223 226.214 69.6146 226.694 69.515 227.148C68.2849 232.756 66.4304 238.224 63.9971 243.424C63.3942 244.713 62.7562 245.982 62.2368 247.308C60.4899 251.778 60.1938 256.691 60.4818 261.48C60.5356 262.355 60.6352 263.3 61.2247 263.949C61.7469 264.527 62.5705 264.757 63.3484 264.736C64.129 264.714 64.88 264.467 65.6229 264.223C66.3792 263.974 67.2002 263.678 67.612 262.999C67.9054 262.516 67.9377 261.928 67.9996 261.37C68.3899 257.823 70.2687 254.589 72.5512 251.842C74.8364 249.096 77.5443 246.734 79.991 244.13C80.2655 243.837 80.5482 243.526 80.6612 243.139C80.8227 242.589 80.6101 242.007 80.4163 241.467C78.6182 236.477 78.1095 230.834 80.0933 225.913L80.4889 225.414H80.4916Z" fill="#33202B"/>
<path d="M72.134 224.764C71.4719 224.915 70.7021 225.03 70.1287 225.417C69.5904 225.779 69.3858 226.362 69.2486 226.966C68.9067 228.472 68.546 229.972 68.1288 231.459C67.2836 234.463 66.2554 237.419 65.0549 240.299C63.8545 243.177 62.2798 245.921 61.3647 248.911C60.4791 251.8 60.1292 254.833 60.0915 257.845C60.0807 258.688 60.0942 259.531 60.1292 260.374C60.1615 261.155 60.1696 261.957 60.3311 262.725C60.4764 263.415 60.7967 264.059 61.3754 264.484C61.9434 264.9 62.6594 265.05 63.3538 265.039C63.4399 265.039 63.5045 265.004 63.553 264.956C63.5665 264.943 63.5772 264.927 63.588 264.91C63.623 264.865 63.6526 264.811 63.6526 264.739C63.7387 262.108 63.7603 259.474 64.0617 256.857C64.3417 254.436 64.8019 252.028 65.4614 249.679C65.9136 248.068 66.4519 246.465 67.1706 244.951C67.3886 244.495 67.6201 244.039 67.9027 243.62C68.0481 243.405 68.1827 243.244 68.3038 242.962C68.6968 242.063 68.939 241.094 69.1893 240.149C69.9726 237.199 70.6159 234.211 71.2512 231.226C71.6764 229.231 72.1098 227.237 72.4839 225.234C72.4893 225.202 72.4974 225.17 72.5028 225.137C72.5485 224.909 72.3655 224.713 72.1313 224.767L72.134 224.764Z" fill="#B8B8B8"/>
<path d="M73.8728 246.009C73.9966 246.09 74.0559 246.133 74.1393 246.202C74.2335 246.283 74.325 246.366 74.4085 246.455C74.5996 246.656 74.6965 246.782 74.8418 247.027C74.9064 247.134 74.9629 247.241 75.0141 247.354C75.0275 247.386 75.0437 247.416 75.0572 247.448C75.041 247.408 75.0572 247.448 75.0625 247.467C75.0868 247.531 75.111 247.596 75.1325 247.66C75.1702 247.778 75.2025 247.896 75.2294 248.017C75.2429 248.084 75.2563 248.151 75.2671 248.218C75.259 248.175 75.2671 248.21 75.2671 248.235C75.2725 248.275 75.2752 248.315 75.2779 248.358C75.294 248.567 75.4501 248.771 75.6816 248.761C75.8862 248.753 76.1042 248.583 76.0854 248.358C75.9831 247.12 75.3182 245.996 74.2766 245.314C74.0935 245.196 73.8298 245.276 73.7248 245.459C73.609 245.655 73.6871 245.891 73.8701 246.009H73.8728Z" fill="#B8B8B8"/>
<path d="M71.8837 247.81C72.7961 248.374 73.3102 249.44 73.2241 250.508C73.2053 250.726 73.4233 250.911 73.6279 250.911C73.862 250.911 74.0128 250.726 74.0316 250.508C74.142 249.166 73.4341 247.821 72.2901 247.115C71.8487 246.841 71.4422 247.537 71.8837 247.81Z" fill="#B8B8B8"/>
<path d="M70.0372 249.708C70.4706 250.071 70.8016 250.471 71.0654 250.965C71.305 251.413 71.4746 251.969 71.523 252.457C71.5445 252.675 71.6926 252.86 71.9268 252.86C72.1286 252.86 72.352 252.675 72.3305 252.457C72.2067 251.179 71.6011 249.966 70.6078 249.139C70.441 249 70.2014 248.975 70.0372 249.139C69.8946 249.281 69.8703 249.569 70.0372 249.708Z" fill="#B8B8B8"/>
<path d="M137.006 157.041C137.006 157.041 142.928 157.041 155.578 153.014C155.937 153.372 156.337 153.855 156.776 154.464C150.122 155.975 143.506 158.107 136.723 158.944L137.006 157.041Z" fill="#004167"/>
<path d="M173.268 54.2448C172.748 53.9254 172.232 53.6059 171.712 53.2892C171.532 53.1791 171.26 53.2435 171.16 53.4341C171.055 53.6301 171.112 53.8663 171.306 53.9844C171.556 54.1375 171.806 54.2932 172.059 54.4462C171.699 54.6797 171.36 54.9508 171.055 55.2488C170.905 55.3965 170.897 55.673 171.055 55.8179C171.217 55.9656 171.465 55.9763 171.626 55.8179C171.739 55.7079 171.855 55.6059 171.976 55.5038C171.839 55.9763 171.758 56.4622 171.739 56.9588C171.731 57.1709 171.93 57.3722 172.143 57.3615C172.369 57.3508 172.539 57.1843 172.547 56.9588C172.56 56.5481 172.6 56.2716 172.705 55.8662C172.754 55.6783 172.816 55.4904 172.883 55.3079C172.899 55.2676 172.913 55.23 172.929 55.1898C172.934 55.179 172.934 55.1763 172.937 55.171C172.948 55.1441 172.958 55.12 172.972 55.0958C172.988 55.0609 173.007 55.026 173.023 54.9911C173.176 55.0045 173.341 54.9347 173.416 54.7951C173.521 54.5992 173.464 54.363 173.271 54.2448H173.268Z" fill="#4F3041"/>
<path d="M187.047 55.1791C187.846 54.908 187.604 52.9 186.624 53.4745C186.226 53.9093 186.14 55.3831 187.047 55.1791Z" fill="#4F3041"/>
<path d="M187.792 53.555C187.954 53.4664 187.921 53.1094 187.744 53.0181C187.569 52.9241 187.388 52.8463 187.205 52.8194C186.802 52.7604 186.419 52.959 186.137 53.2892C186.056 53.3778 185.911 53.5201 186.005 53.6972C186.07 53.8234 186.177 53.7885 186.247 53.7241C186.643 53.3966 187.103 53.2463 187.588 53.5362C187.655 53.5738 187.73 53.5952 187.792 53.555Z" fill="#4F3041"/>
<path d="M189.811 50.5672C189.364 50.3202 188.847 50.2262 188.344 50.1591C185.405 50.1645 183.386 52.0812 183.3 52.1617L183.281 52.1778V52.202C183.257 52.3577 183.321 52.4436 183.381 52.4892C183.604 52.6637 184.137 52.5456 184.525 52.3926C184.716 52.3174 186.433 51.6624 187.816 51.7832C188.078 51.7993 188.328 51.9201 188.57 52.0382C188.874 52.1859 189.187 52.3362 189.534 52.2933C189.574 52.2879 189.614 52.2798 189.658 52.2691C190.013 52.1671 190.258 51.8637 190.293 51.4772C190.328 51.0879 190.137 50.7282 189.806 50.5645L189.811 50.5672Z" fill="#4F3041"/>
<path d="M189.351 61.9062C188.444 61.2566 189.108 60.0942 188.807 60.5586C188.177 61.5277 189.192 61.9948 189.351 61.9062Z" fill="#4F3041"/>
<path d="M189.402 61.8177C189.122 61.6137 188.966 61.3076 188.952 60.9667C188.95 60.9023 188.952 60.8352 188.955 60.7708C188.955 60.7439 188.96 60.7144 188.963 60.6875C188.963 60.6741 188.966 60.6634 188.968 60.65C188.966 60.6714 188.968 60.6338 188.971 60.6285C188.979 60.5667 189.009 60.4889 188.99 60.4271C188.966 60.3466 188.869 60.3305 188.812 60.3842C188.788 60.4057 188.769 60.4352 188.753 60.462C188.651 60.6151 188.562 60.7842 188.527 60.9667C188.468 61.2674 188.562 61.5654 188.788 61.7747C188.888 61.866 189.003 61.9385 189.13 61.9841C189.216 62.0163 189.321 62.0378 189.407 61.9949C189.523 61.9358 189.421 61.7613 189.305 61.8204C189.297 61.8257 189.332 61.8123 189.31 61.8177C189.289 61.8231 189.329 61.8177 189.316 61.8177C189.308 61.8177 189.302 61.8177 189.294 61.8177C189.289 61.8177 189.262 61.815 189.278 61.8177C189.297 61.8177 189.265 61.8177 189.262 61.815C189.251 61.815 189.243 61.8096 189.232 61.807C189.211 61.8016 189.189 61.7935 189.168 61.7855C189.149 61.7774 189.162 61.7855 189.168 61.7855C189.162 61.7855 189.157 61.7801 189.151 61.7774C189.141 61.7721 189.13 61.7667 189.116 61.7613C189.092 61.7479 189.068 61.7345 189.044 61.7184C188.993 61.6862 188.96 61.662 188.915 61.6164C188.705 61.4123 188.664 61.1278 188.772 60.8513C188.81 60.7546 188.863 60.6634 188.92 60.5775C188.931 60.5614 188.942 60.5453 188.955 60.5292C188.933 60.5587 188.947 60.5345 188.955 60.5292C188.955 60.5292 188.915 60.5533 188.896 60.5506L188.845 60.5372C188.845 60.5372 188.785 60.4781 188.799 60.4594V60.4674C188.799 60.4674 188.793 60.5104 188.799 60.4728C188.793 60.4996 188.791 60.5292 188.785 60.556C188.772 60.65 188.758 60.7466 188.756 60.8405C188.748 61.0956 188.799 61.356 188.925 61.5788C189.02 61.7425 189.154 61.8767 189.305 61.9895C189.348 62.0217 189.418 61.9975 189.442 61.9546C189.472 61.9036 189.45 61.8499 189.407 61.8177H189.402Z" fill="#4F3041"/>
<path d="M174.25 59.9601C174.25 59.9601 174.256 59.9333 174.256 59.9198C174.256 59.9118 174.25 59.9037 174.25 59.8957C174.25 59.893 174.25 59.8903 174.25 59.8876C174.245 59.8688 174.24 59.85 174.229 59.8339C174.189 59.7614 174.105 59.7185 174.016 59.7561C174.008 59.7561 174.003 59.7614 173.995 59.7641C173.995 59.7641 173.992 59.7641 173.989 59.7641C173.464 60.0755 172.875 60.1238 172.302 59.9225C172.111 59.8554 171.928 59.7614 171.753 59.6568C171.658 59.6004 171.537 59.5547 171.448 59.4823C171.19 59.3239 170.937 59.2111 170.921 59.3239C170.91 59.391 171.23 59.7641 171.265 59.8205C171.419 60.0782 171.613 60.3252 171.847 60.5131C172.294 60.8728 172.864 60.9882 173.403 60.7708C173.631 60.6795 173.847 60.5426 174.019 60.3654C174.119 60.2634 174.24 60.1131 174.25 59.9574V59.9601ZM171.338 59.8205C171.319 59.8044 171.333 59.8205 171.338 59.8205V59.8205Z" fill="#4F3041"/>
<path d="M191.771 61.0527C191.687 60.9748 191.579 60.9372 191.469 60.9104C191.106 60.8218 190.715 60.8352 190.363 60.9533C190.228 60.999 190.129 61.1412 190.174 61.2835C190.217 61.4151 190.363 61.5198 190.505 61.4714C190.565 61.4526 190.624 61.4339 190.683 61.4204C190.71 61.4151 190.74 61.4097 190.769 61.4043C190.783 61.4043 190.796 61.399 190.81 61.399C190.81 61.399 190.812 61.399 190.815 61.399C190.931 61.3882 191.044 61.3882 191.157 61.399C191.149 61.4231 191.146 61.4473 191.146 61.4688C191.154 61.6298 191.264 61.7211 191.415 61.7372C191.652 61.7667 191.897 61.6298 191.908 61.3694C191.913 61.2486 191.857 61.1305 191.768 61.05L191.771 61.0527Z" fill="#4F3041"/>
<path d="M253.601 93.9668C253.221 93.7708 252.766 93.7789 252.349 93.7816C251.485 93.7869 250.511 93.9104 249.921 94.6164C249.477 95.148 249.52 95.301 249.251 96.3748C249.119 96.9841 247.975 98.4391 247.905 99.0592C247.865 99.4109 246.874 103.056 247.098 102.817C247.466 102.423 250.46 97.8297 250.847 97.4512C251.189 97.1157 251.499 96.7774 251.986 96.6781C252.454 96.5815 252.912 96.56 253.321 96.2781C253.695 96.0204 254.004 95.6285 254.109 95.1775C254.222 94.6996 254.053 94.203 253.601 93.9695V93.9668Z" fill="#BA8057"/>
<path d="M268.273 86.0959L248.309 120.073L240.194 113.166L256.325 86.7268L268.273 86.0959Z" fill="#ADA6AA"/>
<path d="M266.69 87.6664L248.637 117.773L240.88 112.46L256.274 87.5134L266.69 87.6664Z" fill="#33202B"/>
<path d="M269.091 86.5416L249.162 120.449L248.328 120.038L268.257 86.1335L269.091 86.5416Z" fill="#D6D2D5"/>
<path d="M253.601 93.9668C253.221 93.7708 252.766 93.7789 252.349 93.7816C251.485 93.7869 250.511 93.9104 249.921 94.6164C249.477 95.148 249.343 95.811 249.326 96.4821C249.194 97.0915 249.052 97.3653 248.982 97.9854C248.941 98.3371 249.808 97.7143 250.597 97.1801C250.993 96.9116 251.499 96.7774 251.986 96.6781C252.454 96.5815 252.912 96.56 253.321 96.2781C253.695 96.0204 254.004 95.6285 254.109 95.1775C254.222 94.6996 254.053 94.203 253.601 93.9695V93.9668Z" fill="#BA8057"/>
<path d="M254.107 94.595C254.104 94.4527 254.08 94.3131 253.991 94.2084C253.988 94.203 253.986 94.1977 253.983 94.1923C253.835 93.9238 253.533 93.9453 253.275 93.9641C253.076 93.9775 252.879 93.9909 252.68 94.0071C252.476 94.0205 252.271 94.0366 252.066 94.05C251.83 94.0661 251.593 94.0956 251.415 94.2728C251.251 94.4366 251.197 94.6701 251.202 94.8956C251.208 95.0889 251.202 95.3251 251.262 95.5077C251.313 95.6714 251.437 95.8056 251.601 95.8566C251.708 95.8889 251.827 95.8889 251.94 95.8915C252.145 95.8969 252.349 95.8915 252.554 95.8808C252.922 95.8593 253.323 95.8459 253.655 95.6634C253.846 95.5587 253.983 95.3976 254.058 95.1963C254.131 95.0057 254.112 94.7909 254.107 94.5923V94.595Z" fill="#C98F67"/>
</svg>
