<svg width="336" height="336" viewBox="0 0 336 336" fill="none" xmlns="http://www.w3.org/2000/svg">
<path d="M235.109 262.787C240.189 264.768 246.571 265.741 247.964 270.553C248.342 271.858 248.345 275.362 247.51 276.482C246.88 277.329 244.655 277.974 243.657 278.463C239.782 280.364 235.908 282.267 232.033 284.167C226.457 286.902 220.601 289.708 214.249 289.828C207.387 289.957 201.013 286.947 194.443 285.17C188.318 283.513 182.266 281.856 176.323 279.729C170.652 277.701 170.103 271.156 170.652 266.244C170.924 263.807 174.146 261.767 176.898 260.638C183.373 257.981 191.442 255.128 198.391 253.747C205.342 252.367 212.834 252.364 219.346 254.943C219.346 254.943 230.026 260.803 235.106 262.784L235.109 262.787Z" fill="#5A6970"/>
<path d="M299.577 253.415C303.427 254.915 308.26 255.653 309.316 259.297C309.602 260.286 309.605 262.941 308.974 263.79C308.495 264.433 306.811 264.919 306.057 265.291C303.121 266.733 300.185 268.172 297.251 269.614C293.026 271.687 288.591 273.814 283.777 273.903C278.58 274.001 273.749 271.721 268.773 270.374C264.133 269.119 259.55 267.862 255.044 266.252C250.746 264.715 250.331 259.758 250.746 256.036C250.951 254.189 253.394 252.644 255.478 251.789C260.382 249.777 266.498 247.614 271.763 246.569C277.028 245.524 282.704 245.521 287.638 247.474C287.638 247.474 295.73 251.914 299.58 253.415H299.577Z" fill="#5A6970"/>
<path d="M169.546 288.216C174.626 290.197 181.008 291.169 182.401 295.981C182.779 297.286 182.782 300.79 181.947 301.911C181.316 302.757 179.092 303.403 178.094 303.892C174.219 305.792 170.344 307.695 166.469 309.595C160.894 312.331 155.038 315.136 148.686 315.257C141.824 315.385 135.45 312.376 128.88 310.598C122.755 308.941 116.703 307.284 110.76 305.158C105.089 303.129 104.54 296.585 105.089 291.672C105.361 289.236 108.583 287.196 111.334 286.067C117.81 283.409 125.879 280.556 132.827 279.176C139.779 277.796 147.271 277.793 153.783 280.372C153.783 280.372 164.463 286.232 169.543 288.213L169.546 288.216Z" fill="#5A6970"/>
<path d="M156.324 249.886C159.372 250.989 163.205 251.531 164.04 254.214C164.267 254.941 164.27 256.894 163.768 257.52C163.39 257.992 162.054 258.352 161.457 258.623C159.131 259.683 156.803 260.744 154.477 261.803C151.129 263.329 147.616 264.894 143.802 264.961C139.684 265.034 135.856 263.354 131.911 262.365C128.235 261.44 124.601 260.518 121.034 259.33C117.63 258.199 117.302 254.552 117.63 251.814C117.793 250.456 119.729 249.318 121.379 248.69C125.265 247.209 130.11 245.619 134.282 244.847C138.454 244.079 142.951 244.076 146.862 245.515C146.862 245.515 153.273 248.782 156.324 249.886Z" fill="#5A6970"/>
<path d="M277.4 292.08C280.872 293.184 285.231 293.726 286.184 296.409C286.442 297.135 286.445 299.088 285.876 299.714C285.444 300.187 283.926 300.547 283.245 300.818C280.597 301.877 277.949 302.939 275.302 303.998C271.491 305.524 267.493 307.089 263.15 307.156C258.463 307.228 254.108 305.549 249.617 304.56C245.431 303.635 241.298 302.713 237.238 301.525C233.364 300.393 232.988 296.747 233.364 294.008C233.548 292.65 235.751 291.513 237.631 290.884C242.055 289.403 247.566 287.813 252.315 287.042C257.064 286.274 262.183 286.271 266.633 287.71C266.633 287.71 273.929 290.976 277.4 292.08Z" fill="#5A6970"/>
<path d="M89.0317 260.336C92.9683 261.781 97.9164 262.491 98.9951 265.998C99.2893 266.951 99.2921 269.502 98.6448 270.321C98.1545 270.938 96.4314 271.408 95.6609 271.765C92.6573 273.151 89.6537 274.537 86.6501 275.923C82.3297 277.918 77.7907 279.964 72.865 280.051C67.5471 280.146 62.6074 277.949 57.5137 276.655C52.7645 275.448 48.077 274.238 43.4708 272.687C39.0747 271.209 38.6516 266.437 39.0747 262.857C39.2848 261.08 41.7841 259.593 43.9163 258.769C48.9344 256.832 55.1881 254.751 60.5761 253.745C65.964 252.739 71.7695 252.736 76.8184 254.616C76.8184 254.616 85.0951 258.889 89.0345 260.334L89.0317 260.336Z" fill="#5A6970"/>
<path d="M236.193 260.233C241.273 262.122 246.429 265.095 247.824 269.684C248.202 270.93 248.244 272.341 247.412 273.411C246.782 274.219 245.745 274.716 244.747 275.183C240.873 276.996 236.998 278.81 233.123 280.623C227.547 283.233 221.691 285.908 215.339 286.022C208.477 286.145 202.103 283.275 195.533 281.579C189.408 280 182.787 279.363 177.413 276.39C172.039 273.417 168.517 266.886 172.163 262.388C173.886 260.261 176.772 259.09 179.523 258.014C185.998 255.48 192.529 252.931 199.481 251.615C206.432 250.299 213.924 250.296 220.436 252.755C220.436 252.755 231.116 258.344 236.196 260.233H236.193Z" fill="#738893"/>
<path d="M300.401 251.481C304.25 252.912 308.156 255.167 309.21 258.64C309.495 259.585 309.529 260.652 308.896 261.463C308.417 262.075 307.632 262.452 306.879 262.804C303.942 264.179 301.006 265.551 298.072 266.926C293.847 268.901 289.412 270.93 284.598 271.016C279.401 271.111 274.57 268.935 269.594 267.652C264.954 266.456 259.936 265.973 255.865 263.72C251.794 261.468 249.124 256.519 251.887 253.113C253.192 251.501 255.378 250.615 257.462 249.799C262.365 247.879 267.316 245.948 272.581 244.951C277.846 243.953 283.522 243.95 288.456 245.814C288.456 245.814 296.548 250.048 300.398 251.478L300.401 251.481Z" fill="#738893"/>
<path d="M170.63 285.662C175.71 287.551 180.865 290.524 182.261 295.112C182.639 296.358 182.681 297.77 181.849 298.84C181.218 299.647 180.182 300.145 179.184 300.611C175.309 302.425 171.434 304.239 167.559 306.052C161.984 308.662 156.128 311.336 149.776 311.451C142.914 311.574 136.54 308.704 129.97 307.008C123.845 305.429 117.224 304.792 111.85 301.819C106.476 298.845 102.954 292.315 106.599 287.816C108.322 285.69 111.208 284.519 113.96 283.443C120.435 280.909 126.966 278.36 133.917 277.044C140.869 275.728 148.361 275.725 154.872 278.184C154.872 278.184 165.553 283.773 170.633 285.662H170.63Z" fill="#738893"/>
<path d="M156.977 248.463C160.025 249.517 163.121 251.174 163.959 253.733C164.186 254.426 164.211 255.214 163.71 255.812C163.331 256.262 162.709 256.539 162.11 256.799C159.784 257.81 157.456 258.822 155.13 259.831C151.782 261.287 148.269 262.776 144.455 262.84C140.336 262.91 136.509 261.309 132.564 260.364C128.888 259.484 124.912 259.129 121.687 257.472C118.462 255.815 116.347 252.174 118.535 249.665C119.569 248.48 121.303 247.826 122.954 247.225C126.84 245.814 130.763 244.392 134.934 243.657C139.106 242.922 143.603 242.922 147.515 244.294C147.515 244.294 153.925 247.41 156.977 248.463Z" fill="#738893"/>
<path d="M278.14 290.658C281.611 291.711 285.133 293.369 286.086 295.928C286.344 296.621 286.375 297.409 285.803 298.007C285.372 298.457 284.663 298.734 283.982 298.994C281.334 300.005 278.686 301.017 276.039 302.025C272.228 303.481 268.23 304.971 263.887 305.035C259.199 305.105 254.845 303.504 250.354 302.559C246.168 301.679 241.646 301.324 237.975 299.667C234.305 298.01 231.898 294.369 234.389 291.86C235.569 290.675 237.538 290.021 239.418 289.42C243.842 288.009 248.306 286.587 253.055 285.852C257.804 285.117 262.923 285.117 267.372 286.489C267.372 286.489 274.668 289.605 278.14 290.658Z" fill="#738893"/>
<path d="M89.875 258.475C93.8116 259.853 97.807 262.021 98.8885 265.366C99.1827 266.274 99.2164 267.303 98.5691 268.082C98.0788 268.672 97.2775 269.032 96.5042 269.373C93.5006 270.695 90.497 272.017 87.4934 273.339C83.1729 275.241 78.634 277.192 73.7083 277.276C68.3904 277.365 63.4507 275.272 58.3569 274.037C53.6078 272.886 48.4776 272.422 44.3141 270.254C40.1505 268.088 37.4187 263.326 40.2458 260.046C41.5823 258.495 43.8181 257.643 45.9503 256.857C50.9685 255.01 56.0314 253.152 61.4194 252.191C66.8073 251.232 72.6128 251.23 77.6617 253.024C77.6617 253.024 85.9384 257.098 89.8778 258.475H89.875Z" fill="#738893"/>
<path d="M156.977 248.463C160.025 249.517 163.121 251.174 163.959 253.733C164.186 254.426 164.211 255.214 163.709 255.812C163.331 256.262 162.704 257.07 162.11 256.799C146.817 249.877 116.347 252.174 118.535 249.665C119.569 248.48 121.303 247.826 122.954 247.225C126.84 245.814 130.762 244.392 134.934 243.657C139.106 242.922 143.603 242.922 147.515 244.294C147.515 244.294 153.925 247.41 156.977 248.463Z" fill="#5A6970"/>
<path d="M198.077 250.992C196.987 250.903 183.241 256.581 179.599 257.978C178.8 258.285 201.59 268.415 203.782 268.89C207.382 269.67 211.08 269.901 214.762 269.985C216.101 270.016 217.502 270.013 218.699 269.404C219.895 268.795 220.808 267.389 220.411 266.096C220.156 265.263 219.068 266.118 218.264 265.802C217.46 265.486 216.931 263.958 216.068 263.896C214.689 263.799 213.311 263.701 211.932 263.606L198.074 250.992H198.077Z" fill="#5A6970"/>
<path d="M70.0464 251.551C69.5309 251.504 63.5097 260.784 63.3219 261.331C63.1763 261.756 61.921 266.361 65.5634 266.361C71.3016 266.361 91.1892 258.85 90.7801 258.816C90.1273 258.766 74.6218 251.322 73.969 251.272L70.0464 251.551Z" fill="#5A6970"/>
<path d="M131.894 142.951C130.53 145.475 130.603 148.878 130.97 151.723C131.275 154.093 130.894 158.561 132.012 160.673C132.55 161.693 131.992 162.216 130.28 162.462C128.532 162.177 127.621 158.896 127.68 157.127C127.722 155.847 125.027 164.694 124.702 168.497C124.542 170.361 124.352 170.596 123.802 171.881C123.491 172.608 122.172 173.044 121.082 172.546C120.281 172.18 122.477 165.301 122.233 162.087C122.172 161.266 119.042 166.508 118.047 169.883C116.868 173.002 115.055 172.49 114.562 171.839C113.968 171.051 113.929 170.764 114.279 169.956C115.571 166.969 116.862 163.982 118.154 160.997C117.765 160.715 117.26 161.148 116.988 161.542C115.728 163.364 112.458 169.311 111.892 169.981C111.124 170.887 110.463 171.135 109.395 170.163C108.891 169.702 112.601 161.671 113.747 160.156C114.229 159.519 114.781 157.775 114.296 157.979C113.811 158.183 110.704 162.808 108.23 164.493C107.877 164.733 107.386 164.745 107.059 164.471C106.58 164.066 106.851 163.395 107.154 162.911C108.429 160.872 110.09 159.106 111.609 157.239C113.646 154.732 115.316 152 117.465 149.557C119.72 146.992 120.073 148.923 121.026 144.086C124.99 123.969 128.51 112.225 130.642 105.692C131.701 102.45 141.28 93.8016 147.98 86.4665C151.65 82.4454 163.6 98.8538 160.51 101.028C154.522 105.244 150.961 106.957 147.358 110.682C137.714 120.655 143.575 121.346 131.9 142.954L131.894 142.951Z" fill="#BA8057"/>
<path d="M132.101 160.704C132.101 160.704 132.216 161.489 131.474 161.567C131.364 161.579 130.494 159.027 130.704 158.603C130.914 158.178 131.348 157.96 131.348 157.96L132.098 160.704H132.101Z" fill="#C98F67"/>
<path d="M123.506 169.978C123.281 169.85 122.959 169.886 122.71 169.906C122.424 169.928 122.13 169.964 121.85 170.02C121.645 170.062 121.472 170.188 121.399 170.386C121.365 170.476 121.359 170.568 121.376 170.652C121.303 170.887 121.225 171.118 121.155 171.353C121.062 171.672 121.096 172.035 121.39 172.236C121.617 172.393 121.906 172.354 122.166 172.328C122.435 172.303 122.727 172.284 122.982 172.186C123.287 172.066 123.388 171.764 123.492 171.485C123.573 171.269 123.64 171.051 123.699 170.828C123.73 170.708 123.783 170.565 123.78 170.439C123.775 170.241 123.682 170.073 123.508 169.976L123.506 169.978Z" fill="#C98F67"/>
<path d="M116.98 169.805C116.445 169.542 115.851 169.414 115.254 169.467C115.178 169.473 115.103 169.495 115.036 169.531C114.929 169.554 114.834 169.621 114.761 169.718C114.607 169.931 114.464 170.152 114.338 170.381C114.198 170.638 114.005 170.937 114.058 171.241C114.108 171.535 114.397 171.756 114.629 171.912C114.828 172.046 115.061 172.147 115.296 172.203C115.565 172.267 115.927 172.328 116.176 172.172C116.319 172.083 116.406 171.948 116.493 171.811C116.574 171.683 116.655 171.554 116.736 171.423C116.885 171.186 117.036 170.951 117.185 170.713C117.285 170.557 117.364 170.389 117.325 170.196C117.285 170.009 117.145 169.881 116.98 169.8V169.805Z" fill="#C98F67"/>
<path d="M111.379 168.659C111.18 168.573 110.953 168.506 110.735 168.517C110.516 168.528 110.32 168.615 110.18 168.763C110.118 168.796 110.062 168.844 110.026 168.911L109.701 169.495C109.555 169.755 109.303 170.068 109.46 170.372C109.58 170.604 109.88 170.705 110.124 170.75C110.424 170.805 110.726 170.811 110.976 170.607C111.149 170.467 111.259 170.227 111.374 170.04C111.497 169.841 111.645 169.643 111.732 169.425C111.858 169.104 111.673 168.793 111.376 168.662L111.379 168.659Z" fill="#C98F67"/>
<path d="M108.353 164.147C108.429 164.018 108.491 163.887 108.552 163.753C108.631 163.574 108.698 163.398 108.622 163.202C108.541 162.995 108.308 162.872 108.098 162.828C107.885 162.783 107.647 162.802 107.479 162.945C107.389 162.973 107.308 163.032 107.258 163.118C107.118 163.356 106.975 163.59 106.84 163.828C106.767 163.957 106.734 164.091 106.77 164.236C106.807 164.384 106.916 164.496 107.048 164.568C107.176 164.641 107.319 164.7 107.465 164.728C107.616 164.756 107.754 164.756 107.894 164.689C108.003 164.636 108.07 164.549 108.143 164.457C108.222 164.359 108.292 164.256 108.356 164.147H108.353Z" fill="#C98F67"/>
<path d="M176.796 65.7268C176.796 65.7268 175.676 66.0062 175.396 66.5651C175.116 67.124 176.796 68.2417 176.796 68.2417V65.7268Z" fill="#B14B22"/>
<path d="M219.183 237.523C219.598 236.749 220.01 235.975 220.425 235.204C220.573 234.925 220.388 234.578 220.06 234.573C216.729 234.531 213.398 234.492 210.066 234.45C210.139 234.221 210.212 233.991 210.282 233.765C210.444 233.248 209.635 233.027 209.472 233.541C209.343 233.944 209.217 234.346 209.088 234.751C209.08 234.774 209.08 234.796 209.077 234.818L208.909 235.062C208.724 234.925 208.452 234.916 208.321 235.179C207.654 236.512 206.802 237.741 205.774 238.823C204.824 239.823 203.717 240.617 202.636 241.463C201.677 242.212 200.7 243.045 200.114 244.129C199.486 245.292 199.492 246.572 200.01 247.776C200.593 249.128 201.534 250.263 201.98 251.685C202.434 253.138 202.526 254.67 202.504 256.181C202.479 257.707 202.322 259.227 202.255 260.75C202.199 262.055 202.235 263.416 202.641 264.671C203.047 265.936 203.849 267.018 205.037 267.655C206.342 268.356 207.864 268.538 209.318 268.664C211.03 268.812 212.756 268.798 214.465 268.619C215.294 268.532 216.127 268.418 216.945 268.253C217.614 268.116 218.295 267.892 218.794 267.403C219.637 266.573 219.665 265.274 219.27 264.221C218.8 262.972 217.858 262.139 216.749 261.443C215.535 260.683 214.207 260.074 213.285 258.942C212.453 257.922 212.005 256.6 211.871 255.301C211.554 252.213 212.899 249.324 214.303 246.661C215.914 243.607 217.561 240.566 219.189 237.521L219.183 237.523Z" fill="#BA8057"/>
<path d="M102.226 233.189C100.97 230.906 99.718 228.621 98.4627 226.338C97.8771 225.27 97.342 224.144 96.6752 223.121C96.1792 222.361 95.4283 221.735 94.4617 221.9C93.6464 222.04 93.072 222.725 92.6069 223.348C92.0857 224.046 91.657 224.829 90.9622 225.379C89.5192 226.522 87.4963 226.612 85.7367 226.477C83.6606 226.318 81.632 225.751 79.5362 225.815C77.5777 225.874 75.6837 226.564 74.4341 228.123C73.3525 229.467 72.8594 231.158 72.54 232.823C72.1982 234.601 72.0413 236.411 71.6378 238.177C70.6179 242.634 67.6031 246.203 65.5774 250.207C64.5379 252.258 63.717 254.457 63.5208 256.763C63.3499 258.766 63.6273 260.948 65.0731 262.455C65.6559 263.061 66.4208 263.561 67.2781 263.634C68.1719 263.712 68.9676 263.201 69.4215 262.455C69.9231 261.63 70.1108 260.613 70.4302 259.711C70.744 258.825 71.097 257.953 71.4893 257.098C73.0583 253.672 75.2018 250.517 77.7739 247.762C80.3516 245.001 83.3495 242.637 86.6445 240.779C89.9143 238.932 93.4726 237.596 97.1627 236.881C98.0705 236.705 98.9867 236.568 99.9057 236.473C100.329 236.428 100.418 235.889 100.166 235.699L101.609 233.74C101.917 233.98 102.455 233.603 102.226 233.187V233.189Z" fill="#BA8057"/>
<path d="M214.062 96.7441C218.077 98.9377 219.738 104.308 222.787 107.712C223.635 108.659 224.526 109.702 225.762 110.001C226.563 110.193 227.401 110.045 228.211 109.886C236.518 108.246 244.616 105.56 252.254 101.908C254.758 100.712 257.412 99.3736 260.163 99.7369C260.362 101.101 259.844 102.456 259.334 103.736C258.785 105.116 258.222 106.516 257.291 107.673C256.047 109.218 255.641 111.532 253.848 112.39C247.885 115.246 243.201 118.537 237.597 121.052C231.993 123.567 222.652 125.777 222.044 125.803C220.96 125.847 220.027 125.093 219.209 124.38C215.518 121.167 211.828 117.953 208.138 114.74C205.701 112.619 203.249 110.478 201.257 107.938C200.512 106.991 199.82 105.672 200.464 104.652C200.702 104.275 201.086 104.021 201.462 103.775C204.695 101.657 207.928 99.5385 211.162 97.4232" fill="#BA8057"/>
<path d="M184.393 66.7356C185.609 67.1072 186.785 67.6158 187.889 68.2473C188.811 68.7755 189.739 69.4601 190.064 70.4661C190.235 70.9942 190.223 71.5642 190.209 72.1203C190.153 74.3781 190.859 75.2053 190.803 77.4631C189.167 76.5158 188.31 75.5993 187.096 74.1518C188.018 73.2604 189.019 72.1287 188.752 70.8768C188.601 70.1726 188.072 69.6222 187.564 69.1108C186.662 68.2026 185.701 67.2581 184.46 66.934" fill="#B14B22"/>
<path d="M174.275 69.6389C176.032 66.7579 177.021 65.805 177.226 62.4406C177.321 60.8618 177.842 58.9728 176.878 57.7126C167.828 45.8869 168.949 33.5918 185.981 29.2466C191.142 27.9304 192.025 26.4634 197.808 31.6357C201.114 34.5922 201.047 39.7142 200.89 41.6954C200.66 44.5847 199.209 44.0203 199.209 47.0047C199.209 49.31 202.571 52.8728 200.89 54.27C199.512 55.4156 199.489 54.5494 199.769 55.9466C199.769 56.1813 200.05 57.0643 200.05 57.3437C200.05 57.9585 197.528 57.6232 196.127 57.3437C197.248 58.7409 199.209 57.6232 199.209 59.2998C199.209 59.7776 198.808 60.3309 198.368 60.9764C197.525 62.2171 197.354 64.1592 196.407 64.609C195.096 65.2322 190.081 64.3883 188.842 65.1679C187.253 66.1655 189.551 72.7043 189.683 74.9481C189.708 75.3533 184.533 76.2531 184.275 76.5689C184.099 76.7812 183.83 76.8902 183.566 76.9657C181.58 77.5357 179.495 76.6611 177.615 75.8004C177.077 75.5545 176.522 75.2974 176.13 74.8531C175.007 73.5873 175.645 71.3909 174.513 70.1307" fill="#BA8057"/>
<path d="M182.401 45.6075C182.726 46.1385 182.12 42.2543 179.658 42.0224C179.117 41.9721 178.565 42.0196 178.097 42.2934C177.629 42.5673 176.833 42.6539 176.517 43.0926C175.659 44.2746 175.606 46.0463 175.595 47.5021C175.595 47.5021 178.848 39.8316 182.401 45.6075Z" fill="#A77150"/>
<path d="M178.559 52.5375C179.417 52.9874 180.456 52.7583 181.395 52.5208C180.397 53.3814 177.78 56.8576 175.676 56.2261C175.494 56.1702 176.374 55.5191 176.514 55.3878C177.349 54.6081 178.058 53.6972 178.607 52.6968" fill="#A77150"/>
<path d="M194.449 47.2841C193.897 46.4905 191.734 44.9257 190.789 44.7049C192.073 44.4003 196.004 42.5253 197.575 44.0566C197.713 44.1907 197.432 44.4394 197.248 44.4897C196.146 44.7971 195.396 46.6498 194.446 47.2841" fill="#A77150"/>
<path d="M218.637 95.9421C214.734 91.8568 210.635 87.9643 206.25 84.3959C201.96 80.9002 197.413 77.4156 192.159 75.5015C189.652 74.5877 186.956 74.082 184.283 74.3195C183.09 74.4257 181.793 74.6101 180.761 75.264C179.702 75.9374 179.167 77.0691 179.226 78.3098C179.288 79.6455 179.859 80.889 180.358 82.1101C180.958 83.5716 181.557 85.0302 182.157 86.4917C183.348 89.3894 184.536 92.2899 185.726 95.1877C186.926 98.1078 188.125 101.028 189.321 103.948C189.842 105.217 190.33 106.505 190.913 107.745C191.395 108.774 191.98 109.791 192.812 110.579C193.224 110.973 193.692 111.3 194.21 111.543C194.619 111.736 194.986 111.255 194.799 110.959L197.046 109.643C197.155 109.816 197.374 109.925 197.606 109.799C203.272 106.742 208.777 103.389 214.087 99.7536C215.591 98.7253 217.079 97.6719 218.553 96.5988C218.771 96.4395 218.839 96.1517 218.637 95.9394V95.9421Z" fill="#004167"/>
<path d="M145.478 148.602C138.465 179.795 117.073 207.47 88.6058 222.168C91.5562 227.436 94.5037 232.7 97.4541 237.968C97.7707 238.535 98.1209 239.133 98.6981 239.432C99.8469 240.027 101.186 239.175 102.192 238.362C116.495 226.801 130.499 214.749 146.139 205.061C150.163 202.569 154.312 200.219 157.868 197.095C161.378 194.01 164.214 190.246 167.013 186.507C169.874 182.684 172.787 178.728 173.995 174.114C175.665 167.737 173.875 161.025 172.09 154.679C171.333 151.991 170.462 149.124 168.274 147.386C166.682 146.123 164.612 145.648 162.597 145.371C156.514 144.541 150.227 145.246 144.48 147.406" fill="#D1B08A"/>
<path d="M149.619 142.571C153.261 172.192 109.606 232.315 113.318 229.294C123.884 220.693 134.562 212.232 146.133 205.061C150.157 202.569 154.306 200.219 157.862 197.095C161.373 194.01 164.208 190.246 167.007 186.507C169.868 182.684 172.782 178.727 173.989 174.114C175.659 167.737 173.869 161.025 172.084 154.679" fill="#BC9B7A"/>
<path d="M149.964 144.075C147.624 159.514 156.228 174.866 167.837 185.344C179.445 195.823 193.86 202.555 207.449 210.312C208.497 210.91 209.581 211.553 210.217 212.575C211.265 214.258 210.811 216.434 210.212 218.321C208.161 224.792 204.79 230.845 200.366 236.003C206.27 238.443 212.669 239.686 219.06 239.63C219.887 239.622 220.761 239.58 221.447 239.119C222.139 238.652 222.506 237.85 222.843 237.087C228.581 224.024 234.403 209.356 229.589 195.927C227.191 189.24 222.366 183.699 217.172 178.842C212.599 174.569 207.651 170.68 203.445 166.05C196.976 158.93 192.395 150.122 190.288 140.747C177.584 140.529 164.861 141.308 152.281 143.08" fill="#D1B08A"/>
<path d="M197.39 109.439C200.949 107.519 204.443 105.482 207.864 103.333C205.516 96.8839 193.188 78.1617 190.946 76.2057" fill="#00314D"/>
<path d="M197.603 109.799C201.162 107.88 204.653 105.843 208.077 103.694C208.225 103.601 208.334 103.397 208.27 103.221C207.628 101.467 206.746 99.7927 205.858 98.1497C204.67 95.9533 203.4 93.7989 202.098 91.6668C199.542 87.4808 196.878 83.348 194.009 79.3689C193.462 78.6116 192.905 77.8571 192.322 77.1278C191.986 76.7058 191.647 76.2671 191.24 75.9094C190.834 75.5518 190.24 76.1442 190.646 76.5018C190.991 76.8064 191.285 77.1725 191.574 77.5274C192.044 78.1086 192.479 78.687 192.935 79.313C194.213 81.0622 195.435 82.8534 196.634 84.6586C199.478 88.9395 202.221 93.3015 204.709 97.8004C205.718 99.6251 206.749 101.503 207.457 103.442L207.651 102.97C204.227 105.119 200.733 107.156 197.177 109.076C196.701 109.333 197.124 110.056 197.601 109.799H197.603Z" fill="#00314D"/>
<path d="M208.531 150.471C205.796 141.294 205.076 131.726 204.325 122.231C203.95 117.498 203.555 112.761 202.874 108.058C202.207 103.439 201.209 98.9069 199.834 94.4443C198.727 90.848 197.66 87.2321 196.177 83.7643C195.446 82.0569 194.614 80.3831 193.591 78.8267C192.742 77.5357 191.728 76.0742 190.386 75.2499C189.063 74.4396 188.383 74.9509 186.881 74.6687C185.278 74.3669 182.714 73.333 181.162 72.8132C180.414 72.5618 179.789 72.1733 179.12 71.7626C178.189 71.1925 177.228 70.6784 176.22 70.2648C174.278 69.4684 172.101 69.0856 170.056 69.7171C166.2 70.9075 164.043 74.9397 162.398 78.3097C160.42 82.3615 158.994 86.6816 158.181 91.1162C157.98 92.2144 157.82 93.321 157.691 94.4303C157.657 94.7237 157.896 94.8551 158.125 94.8243C154.15 101.556 151.709 109.101 149.036 116.408C146.01 124.688 142.981 132.97 139.955 141.25C138.246 145.925 136.537 150.6 134.828 155.274C134.73 155.54 134.979 155.797 135.234 155.805C144.814 156.118 153.97 152.883 163.191 150.787C172.6 148.649 182.303 147.897 191.933 148.551C197.349 148.92 202.731 149.739 208.012 150.991C208.315 151.063 208.623 150.792 208.531 150.474V150.471Z" fill="#004167"/>
<path d="M171.754 94.5086C171.888 98.4375 169.658 101.441 167.271 104.568C164.883 107.695 162.118 115.514 159.986 118.819C160.16 117.702 162.065 109.525 162.239 108.41C162.552 106.401 162.866 104.392 163.18 102.38C163.314 101.528 163.452 100.662 163.816 99.8765C164.236 98.9768 164.94 98.2363 165.688 97.5796C168.17 95.4 171.246 93.9805 173.749 91.8204" fill="#00314D"/>
<path d="M144.996 154.168C149.081 139.595 150.56 123.419 154.802 108.891C155.349 107.025 155.957 105.138 157.072 103.543C158.904 100.922 161.877 99.3708 164.732 97.9205C159.77 115.047 157.685 133.018 158.725 150.818" fill="#DF6436"/>
<path d="M145.402 154.28C147.618 146.352 149.028 138.232 150.518 130.148C151.264 126.101 152.029 122.058 152.92 118.043C153.362 116.039 153.839 114.044 154.362 112.06C154.886 110.076 155.363 108.19 156.086 106.337C156.851 104.375 158.036 102.735 159.68 101.416C161.325 100.097 163.127 99.2003 164.945 98.2782L164.329 97.8059C162.387 104.515 160.885 111.347 159.837 118.249C158.792 125.146 158.195 132.107 158.069 139.081C157.999 142.993 158.078 146.908 158.305 150.812C158.335 151.348 159.176 151.351 159.145 150.812C158.745 143.888 158.809 136.938 159.336 130.022C159.863 123.106 160.854 116.209 162.289 109.414C163.099 105.585 164.051 101.785 165.138 98.0267C165.245 97.6578 164.836 97.3924 164.522 97.5544C161.266 99.2087 157.879 101.033 156.077 104.359C155.141 106.083 154.615 107.994 154.085 109.872C153.556 111.75 153.032 113.82 152.566 115.807C150.661 123.953 149.356 132.221 147.742 140.425C146.842 145 145.848 149.56 144.592 154.053C144.447 154.573 145.256 154.797 145.402 154.277V154.28Z" fill="white"/>
<path d="M132.668 89.0596C136.641 98.362 143.926 105.423 151.869 111.708C152.261 112.018 152.69 112.337 153.188 112.362C153.962 112.401 154.57 111.747 155.069 111.157C159.148 106.32 163.861 102.017 169.05 98.39C170.305 97.5126 171.611 96.6547 172.555 95.4475C173.603 94.1118 174.127 92.4408 174.463 90.7782C175.57 85.2985 174.777 79.4555 172.247 74.4676C171.726 73.4392 171.056 72.3774 169.983 71.9526C168.377 71.3155 166.632 72.3355 165.214 73.3163C155.172 80.2686 144.727 87.8721 132.55 88.9367L132.665 89.0596H132.668Z" fill="#004167"/>
<path d="M148.254 96.3473C148.148 96.638 148.378 96.937 148.686 96.9174C150.835 96.7833 152.967 96.3893 155.018 95.7438C155.831 95.4895 156.747 95.0675 156.918 94.2348C156.991 93.8855 156.909 93.5223 156.806 93.1813C156.54 92.3151 156.091 91.4796 155.391 90.904C154.69 90.3255 153.729 90.102 152.844 90.3088C150.474 90.8676 148.812 94.8188 148.252 96.3473H148.254Z" fill="#EC642D"/>
<path d="M154.066 91.4712C154.906 92.0329 155.36 92.329 155.677 93.0137C155.993 93.6983 155.78 94.6791 155.066 94.9194C154.844 94.9921 154.606 94.9893 154.374 94.9669C153.592 94.8971 152.793 94.6344 152.253 94.0671C151.709 93.4999 151.521 92.5833 151.874 91.9043C152.228 91.2253 153.104 90.8313 154.068 91.474L154.066 91.4712Z" fill="#CCD9E1"/>
<path d="M154.522 92.5303C154.466 92.5694 154.405 92.6057 154.343 92.6364C154.323 92.6476 154.301 92.656 154.281 92.6644C154.32 92.6504 154.318 92.6476 154.281 92.6644C154.242 92.6784 154.203 92.6923 154.164 92.7063C153.987 92.765 153.805 92.8069 153.623 92.846C153.284 92.9159 152.942 92.9606 152.606 93.0305C152.44 93.064 152.328 93.2708 152.379 93.4273C152.435 93.6033 152.6 93.6899 152.777 93.6536C153.124 93.5837 153.474 93.5362 153.822 93.4636C154.169 93.3909 154.556 93.3015 154.847 93.0919C154.984 92.9941 155.063 92.8069 154.962 92.6504C154.875 92.5135 154.665 92.4297 154.519 92.5359L154.522 92.5303Z" fill="#004167"/>
<path d="M154.651 94.0559C154.27 93.3126 153.819 92.6057 153.441 91.8624C153.362 91.7059 153.144 91.6612 152.998 91.7478C152.838 91.84 152.802 92.0328 152.883 92.1893C153.264 92.9326 153.715 93.6396 154.094 94.3829C154.172 94.5394 154.391 94.5841 154.536 94.4974C154.696 94.4052 154.732 94.2124 154.651 94.0559Z" fill="#004167"/>
<path d="M189.405 69.3595C190.935 70.0357 190.862 75.2053 190.806 77.4631C189.17 76.5158 188.313 75.5993 187.099 74.1518C188.021 73.2604 191.776 72.5478 189.405 69.3595Z" fill="#EC642D"/>
<path d="M181 60.9764L183.216 62.1305C184.222 62.9325 185.404 63.4774 186.665 63.7428C187.559 63.9301 188.817 64.2598 190.478 64.8354C189.764 64.8718 189.173 64.964 188.845 65.1708C188.043 65.6737 188.231 67.5823 188.629 69.6417L181 60.9792V60.9764Z" fill="#A77150"/>
<path d="M185.393 35.1455C186.343 36.0118 187.326 35.7603 188.565 36.1068C189.444 36.3527 198.993 37.1016 200.613 37.7834C200.613 39.1805 190.246 37.2245 187.724 39.1805C185.995 40.5218 185.483 45.887 183.521 46.1664L185.393 35.1455Z" fill="#A77150"/>
<path d="M175.676 56.226C176.587 56.6871 178.935 52.5654 178.758 52.314C177.764 50.9056 176.517 50.9168 176.237 49.2402C175.797 46.6051 176.088 42.7545 178.758 42.5337C182.12 42.2543 181 45.6075 183.241 46.1664C185.046 46.6163 185.208 39.4683 186.402 38.0488C187.032 37.2971 188.111 37.1323 189.091 37.0568C193.252 36.7327 200.394 38.331 200.772 38.1578C201.504 37.8197 201.067 36.7886 201.218 35.9978C201.733 33.3124 201.498 31.3116 199.492 29.4003C197.489 27.4918 193.608 25.4882 190.806 24.9293C189.699 24.7086 185.455 24.3649 184.362 24.6499C181.05 25.5134 180.518 25.4882 177.206 26.3517C176.237 26.6032 175.247 26.8658 174.413 27.4219C173.589 27.9696 172.972 28.7716 172.233 29.431C171.538 30.0542 171.605 30.1715 170.91 30.7975C167.828 33.5779 168.108 39.1805 169.229 48.4019C169.635 51.7355 174.763 55.765 175.673 56.226H175.676Z" fill="#4F3041"/>
<path d="M199.492 55.1083C197.811 55.1083 196.794 54.8205 195.477 54.6556C194.911 54.5857 194.479 54.6807 194.266 55.2564C194.051 55.832 193.899 56.4412 193.745 57.0364C193.602 57.5897 193.401 58.1932 193.423 58.7745C193.446 59.3054 193.989 62.6921 193.944 63.2734C193.911 63.74 194.031 64.2514 194.407 64.5588C194.821 64.8997 195.407 64.8661 195.908 64.8103C196.438 64.7516 196.872 64.5504 197.189 64.1173C197.494 63.7009 197.631 63.1812 197.788 62.6977C197.982 62.1053 198.366 61.5325 198.646 60.9736C199.251 59.7748 198.926 60.1353 197.741 59.8754C196.74 59.487 195.788 58.8136 195.373 57.7853C195.261 57.5086 195.188 57.2096 195.177 56.9106C195.174 56.8296 195.143 56.6284 195.197 56.5613C195.256 56.4887 195.368 56.5166 195.468 56.5306C196.166 56.6228 196.861 56.7821 197.556 56.8939C197.909 56.9498 198.262 57.0056 198.615 57.0559C198.906 57.0979 199.75 57.1202 200.044 57.0615C200.044 56.2232 199.744 55.1055 199.483 55.1055L199.492 55.1083Z" fill="#4F3041"/>
<path d="M163.768 79C168.725 74.258 171.333 69.4992 178.478 73.551C176.937 76.4851 172.454 79.2794 172.734 87.6625" fill="#DF6436"/>
<path d="M163.956 79.1872C165.646 77.5665 167.173 75.7557 168.974 74.2552C170.484 72.9949 172.244 72.1231 174.258 72.3187C175.713 72.4584 177.088 73.0732 178.346 73.7801L178.251 73.4196C177.525 74.7861 176.421 75.929 175.525 77.1808C174.289 78.9077 173.356 80.8163 172.886 82.8925C172.53 84.4573 172.42 86.0641 172.471 87.6652C172.482 88.0034 173.009 88.0062 173 87.6652C172.922 85.0721 173.286 82.4594 174.401 80.0981C175.169 78.4718 176.256 77.0635 177.354 75.6551C177.845 75.0264 178.335 74.3921 178.708 73.6879C178.775 73.565 178.741 73.4001 178.613 73.3274C176.545 72.165 174.132 71.3127 171.77 72.0392C169.745 72.6624 168.148 74.2049 166.693 75.6719C165.657 76.7198 164.648 77.7956 163.583 78.8155C163.337 79.0503 163.712 79.4219 163.956 79.1872Z" fill="white"/>
<path d="M171.756 69.938C171.375 70.6897 171.109 71.5363 171.23 72.3719C171.42 73.6824 172.496 74.6604 173.502 75.5211C176.609 78.1785 179.716 80.8359 182.824 83.4934C183.863 80.3665 185.124 77.3151 186.598 74.367C184.452 73.3275 182.277 72.3495 180.078 71.433C178.912 70.9467 177.769 70.3795 176.839 69.5244C174.836 67.6829 176.186 65.9197 176.491 65.8219C175.396 66.0063 172.65 68.1664 171.756 69.938Z" fill="#EC642D"/>
<path d="M158.33 79.4834C159.299 78.4103 160.333 77.2926 161.658 76.9182C163.502 76.3928 165.396 77.4379 166.996 78.592C168.436 79.6315 169.82 80.7995 170.933 82.2554C172.045 83.7112 172.885 85.4717 173.112 87.369C173.241 88.456 173.124 89.6855 172.409 90.44C171.641 91.2504 170.445 91.2588 169.408 91.0324C167.203 90.5462 165.208 89.244 163.39 87.7658C162.482 87.0253 161.586 86.215 161.003 85.1391C160.622 84.435 160.386 83.6386 159.994 82.9372C159.344 81.7747 158.229 80.7688 158.26 79.3967" fill="#004167"/>
<path d="M181.218 92.8404C181.243 92.8683 181.302 92.8627 181.33 92.8292C181.526 92.5917 181.688 92.3402 181.812 92.0803C181.859 91.9769 181.898 91.854 181.812 91.7841C181.775 91.7562 181.722 91.7422 181.669 91.731C181.534 91.7059 181.389 91.7031 181.246 91.7422C181.103 91.7813 180.983 91.8707 180.921 91.9769C180.756 92.2647 181.081 92.6839 181.212 92.8376L181.218 92.8404Z" fill="#EC642D"/>
<path d="M181.19 91.921C181.341 91.8652 181.425 91.8344 181.54 91.8428C181.655 91.8512 181.756 91.9322 181.714 92.0244C181.7 92.0524 181.677 92.0775 181.652 92.0999C181.565 92.1781 181.453 92.248 181.33 92.2731C181.207 92.2983 181.075 92.262 181.025 92.1809C180.974 92.0999 181.014 91.9825 181.187 91.921H181.19Z" fill="#CCD9E1"/>
<path d="M181.372 91.9349C181.372 91.9349 181.372 91.9349 181.372 91.9321C181.372 91.9321 181.372 91.9377 181.372 91.9404C181.372 91.9432 181.372 91.9488 181.369 91.9516C181.369 91.9572 181.366 91.9627 181.363 91.9683C181.366 91.9627 181.36 91.9766 181.363 91.9683C181.363 91.9683 181.363 91.9739 181.36 91.9766C181.349 91.9989 181.338 92.0212 181.324 92.0435C181.299 92.0825 181.271 92.1215 181.249 92.1633C181.238 92.1828 181.243 92.2134 181.265 92.2245C181.288 92.2357 181.313 92.2301 181.327 92.2078C181.352 92.166 181.383 92.1271 181.408 92.0825C181.433 92.0379 181.461 91.9906 181.464 91.9404C181.464 91.9182 181.441 91.8959 181.419 91.8959C181.394 91.8959 181.377 91.9154 181.374 91.9404L181.372 91.9349Z" fill="#004167"/>
<path d="M181.56 92.0105C181.428 92.0049 181.299 92.0105 181.168 92.0049C181.109 92.0049 181.109 92.0915 181.168 92.0943C181.299 92.0999 181.428 92.0943 181.56 92.0999C181.618 92.0999 181.618 92.0133 181.56 92.0105Z" fill="#004167"/>
<path d="M174.39 93.1758L174.309 95.8472C174.303 96.0567 174.494 96.2356 174.698 96.2356C174.914 96.2356 175.082 96.0567 175.087 95.8472L175.168 93.1758C175.174 92.9662 174.984 92.7874 174.779 92.7874C174.564 92.7874 174.396 92.9662 174.39 93.1758Z" fill="white"/>
<path d="M173.648 93.4635C174.55 93.2707 175.463 93.1338 176.382 93.0556C176.592 93.0388 176.772 92.8879 176.772 92.6672C176.772 92.4688 176.592 92.2592 176.382 92.2787C175.393 92.3626 174.41 92.5051 173.44 92.7147C173.233 92.7594 173.115 92.9997 173.169 93.1925C173.227 93.4049 173.443 93.5083 173.648 93.4635Z" fill="white"/>
<path d="M175.284 93.8044C175.27 94.1481 175.27 94.489 175.284 94.8327C175.298 95.1764 175.301 95.5313 175.533 95.7996C175.808 96.1153 176.307 96.0622 176.584 95.78C176.861 95.4978 176.881 95.0982 176.912 94.7377C176.945 94.3493 176.948 93.9609 176.917 93.5725C176.901 93.3685 176.749 93.1729 176.528 93.1841C176.329 93.1924 176.122 93.3573 176.139 93.5725C176.167 93.9413 176.169 94.3102 176.139 94.679C176.133 94.7656 176.122 94.8495 176.113 94.9361C176.113 94.9557 176.108 94.9752 176.105 94.9948C176.111 94.9473 176.111 94.9445 176.105 94.9892C176.099 95.0227 176.094 95.0535 176.085 95.087C176.074 95.1289 176.063 95.1736 176.046 95.2127C176.071 95.1485 176.04 95.21 176.026 95.2351C176.08 95.1429 175.979 95.2742 176.026 95.2351C176.077 95.1932 175.914 95.2826 176.032 95.2351C175.959 95.263 176.096 95.2463 176.024 95.2379C176.08 95.2491 176.088 95.2491 176.043 95.2379C176.074 95.2435 176.102 95.2602 176.122 95.2854C176.099 95.2602 176.096 95.263 176.116 95.2854C176.136 95.3133 176.136 95.3105 176.116 95.2854C176.096 95.2491 176.099 95.2547 176.122 95.3077C176.116 95.2938 176.113 95.2826 176.108 95.2686C176.096 95.2379 176.091 95.2044 176.085 95.1736C176.066 95.087 176.088 95.2463 176.085 95.1652C176.082 95.0842 176.074 94.9976 176.071 94.9138C176.054 94.5449 176.054 94.176 176.068 93.8072C176.077 93.6032 175.884 93.4076 175.679 93.4188C175.46 93.4272 175.298 93.5892 175.29 93.8072L175.284 93.8044Z" fill="white"/>
<path d="M177.097 93.6479C177.018 94.8244 176.99 96.0008 177.013 97.18C177.021 97.6802 177.802 97.683 177.794 97.18C177.772 96.0008 177.8 94.8244 177.878 93.6479C177.892 93.4384 177.688 93.2595 177.489 93.2595C177.265 93.2595 177.114 93.4384 177.1 93.6479H177.097Z" fill="white"/>
<path d="M177.567 93.6843C177.598 93.6843 177.629 93.6787 177.66 93.6815C177.677 93.6815 177.691 93.6815 177.707 93.6815C177.75 93.6843 177.738 93.6815 177.674 93.6759C177.73 93.6955 177.797 93.7038 177.853 93.7206C177.923 93.743 177.778 93.6815 177.845 93.7178C177.873 93.7318 177.901 93.7457 177.926 93.7625C177.94 93.7709 177.951 93.7793 177.965 93.7877C177.999 93.8128 177.99 93.8044 177.943 93.7681C177.957 93.7905 177.993 93.81 178.013 93.8296C178.033 93.8491 178.049 93.8687 178.069 93.8883C178.089 93.9106 178.08 93.8994 178.044 93.8547C178.052 93.8659 178.061 93.8799 178.069 93.8939C178.086 93.9218 178.1 93.9497 178.117 93.9777C178.133 94.0168 178.131 94.0056 178.105 93.9525C178.111 93.9665 178.117 93.9833 178.122 93.9972C178.133 94.028 178.142 94.0587 178.147 94.0923C178.147 94.1034 178.153 94.1174 178.153 94.1286C178.159 94.1593 178.156 94.1453 178.147 94.0867C178.139 94.1062 178.153 94.1621 178.153 94.1845C178.153 94.2068 178.139 94.2627 178.147 94.2823C178.156 94.218 178.159 94.2096 178.15 94.2515C178.147 94.2683 178.145 94.2823 178.139 94.299C178.131 94.3298 178.119 94.3605 178.111 94.3912C178.089 94.4611 178.153 94.3186 178.111 94.3885C178.097 94.4136 178.083 94.4388 178.066 94.4639C178.133 94.3885 178.033 94.5198 178.066 94.4639C178.049 94.4835 178.027 94.5002 178.01 94.5198C177.957 94.5701 178.083 94.4723 178.027 94.5086C178.004 94.5226 177.982 94.5366 177.96 94.5505C177.948 94.5561 177.937 94.5617 177.923 94.5701C177.887 94.5869 177.898 94.5813 177.962 94.5533C177.937 94.5589 177.912 94.5701 177.887 94.5785C177.876 94.5813 177.862 94.5841 177.85 94.5869C177.808 94.5952 177.825 94.5924 177.898 94.5813C177.881 94.5813 177.859 94.5841 177.842 94.5841C177.831 94.5841 177.817 94.5841 177.806 94.5841C177.764 94.5813 177.78 94.5841 177.856 94.5896C177.836 94.5813 177.806 94.5729 177.786 94.5701C177.85 94.598 177.864 94.6036 177.831 94.5869C177.82 94.5813 177.808 94.5757 177.8 94.5673C177.747 94.5366 177.876 94.6371 177.806 94.5673C177.663 94.422 177.394 94.4136 177.254 94.5673C177.114 94.721 177.102 94.9613 177.254 95.1178C177.469 95.3385 177.775 95.3972 178.072 95.3357C178.344 95.2771 178.579 95.0982 178.736 94.8747C179.083 94.3801 178.968 93.606 178.503 93.2232C178.24 93.008 177.909 92.8739 177.565 92.9019C177.363 92.9186 177.164 93.0695 177.175 93.2903C177.184 93.4859 177.349 93.6982 177.565 93.6787L177.567 93.6843Z" fill="white"/>
<path d="M180.599 93.4076C180.316 93.103 179.812 93.0947 179.478 93.3238C179.12 93.5697 178.988 93.9721 178.954 94.3884C178.938 94.5729 178.932 94.7768 178.996 94.9529C179.08 95.1848 179.257 95.3665 179.501 95.4279C179.918 95.5369 180.33 95.3134 180.537 94.9529C180.644 94.7685 180.7 94.5645 180.742 94.3605C180.762 94.2655 180.781 94.1705 180.806 94.0783C180.809 94.0643 180.84 93.933 180.854 93.9302C180.854 93.9302 180.818 94.0056 180.846 93.9525C180.862 93.9218 180.876 93.891 180.896 93.8603L180.182 93.7681C180.282 94.1537 180.38 94.5393 180.481 94.9249C180.532 95.1233 180.764 95.2603 180.96 95.196C181.157 95.1317 181.288 94.9277 181.232 94.7182C181.131 94.3325 181.033 93.9469 180.932 93.5613C180.848 93.2344 180.389 93.1841 180.218 93.4691C180.047 93.7541 180.025 94.0475 179.943 94.3493C179.935 94.3801 179.927 94.4108 179.915 94.4415C179.907 94.4667 179.885 94.5058 179.882 94.5309C179.882 94.4806 179.913 94.4639 179.893 94.503C179.885 94.517 179.879 94.5309 179.871 94.5449C179.851 94.5785 179.826 94.6092 179.809 94.6427C179.814 94.6343 179.871 94.5757 179.826 94.6176C179.814 94.6288 179.803 94.6399 179.792 94.6511C179.786 94.6567 179.764 94.6818 179.758 94.6818C179.756 94.6818 179.848 94.626 179.792 94.6539C179.781 94.6595 179.77 94.6679 179.758 94.6735C179.73 94.6902 179.711 94.6735 179.798 94.6595C179.772 94.6651 179.747 94.6735 179.722 94.6818C179.66 94.7014 179.772 94.6763 179.77 94.679C179.764 94.6818 179.739 94.679 179.73 94.6818C179.716 94.6818 179.705 94.6818 179.691 94.6818C179.627 94.6846 179.744 94.6846 179.739 94.6902C179.728 94.6986 179.68 94.6735 179.666 94.6707C179.75 94.6818 179.739 94.707 179.708 94.6874C179.7 94.6818 179.691 94.679 179.686 94.6735C179.66 94.6567 179.674 94.6679 179.728 94.707C179.725 94.7014 179.7 94.6874 179.702 94.6818C179.702 94.6818 179.767 94.7741 179.728 94.7098C179.7 94.6623 179.747 94.7182 179.736 94.7377L179.722 94.693C179.719 94.679 179.716 94.6595 179.714 94.6455C179.716 94.6539 179.719 94.7433 179.719 94.6763C179.719 94.6399 179.719 94.6036 179.719 94.5673C179.719 94.5086 179.722 94.4471 179.728 94.3884C179.728 94.3717 179.73 94.3577 179.733 94.3409C179.739 94.2739 179.73 94.3661 179.728 94.3717C179.736 94.3326 179.742 94.2934 179.75 94.2543C179.758 94.2236 179.764 94.1928 179.775 94.1621C179.781 94.1481 179.786 94.1314 179.789 94.1174C179.803 94.0755 179.812 94.1118 179.775 94.1453C179.792 94.1286 179.803 94.0839 179.817 94.0615C179.826 94.0475 179.834 94.0364 179.843 94.0224C179.879 93.9637 179.798 94.0699 179.831 94.0363C179.851 94.0168 179.882 93.9944 179.896 93.9721C179.862 94.0224 179.831 94.0168 179.865 93.9972C179.882 93.9861 179.899 93.9749 179.915 93.9665C179.927 93.9609 179.943 93.9553 179.952 93.9469C179.935 93.9609 179.862 93.9777 179.924 93.9609C179.941 93.9553 179.994 93.933 180.011 93.9385C180.013 93.9385 179.901 93.9441 179.966 93.9441C179.983 93.9441 179.999 93.9441 180.013 93.9441C180.03 93.9441 180.078 93.9497 180.011 93.9413C179.938 93.9302 179.999 93.9413 180.016 93.9441C180.025 93.9441 180.041 93.9553 180.053 93.9553C179.991 93.9274 179.974 93.9218 180.002 93.9358C180.011 93.9385 180.019 93.9441 180.027 93.9497C180.058 93.9637 180.047 93.9888 179.994 93.9218C180.005 93.9358 180.022 93.9497 180.036 93.9637C180.176 94.1146 180.448 94.1146 180.588 93.9637C180.736 93.8044 180.736 93.5725 180.588 93.4132L180.599 93.4076Z" fill="white"/>
<path d="M181.207 93.4915L181.299 95.062C181.311 95.2659 181.47 95.4615 181.689 95.4504C181.89 95.442 182.092 95.2799 182.078 95.062L181.985 93.4915C181.974 93.2875 181.815 93.0919 181.596 93.1031C181.395 93.1115 181.193 93.2736 181.207 93.4915Z" fill="white"/>
<path d="M183.964 93.4329C183.636 93.1367 183.177 93.1227 182.796 93.3211C182.443 93.5027 182.23 93.8855 182.148 94.26C182.112 94.4332 182.076 94.626 182.09 94.8021C182.109 95.0675 182.252 95.2995 182.521 95.3749C182.692 95.4224 182.891 95.4113 183.062 95.3721C183.247 95.3274 183.376 95.2184 183.493 95.0731C183.633 94.8999 183.76 94.721 183.852 94.5171C183.956 94.2851 184.02 94.0644 184.051 93.8129L183.283 93.9163C183.314 94.0085 183.339 94.1007 183.356 94.1957C183.362 94.2237 183.39 94.2963 183.356 94.2013C183.362 94.2209 183.362 94.246 183.364 94.2684C183.37 94.3131 183.373 94.3578 183.378 94.4025C183.398 94.6149 183.415 94.83 183.471 95.034C183.499 95.1346 183.533 95.2436 183.591 95.3274C183.709 95.4951 183.9 95.5957 184.107 95.5426C184.286 95.4979 184.41 95.3358 184.435 95.1598C184.463 94.9586 184.34 94.7294 184.124 94.6931C184.017 94.6735 183.919 94.6763 183.824 94.7322C183.743 94.7797 183.667 94.8719 183.645 94.9642C183.603 95.1542 183.703 95.4057 183.916 95.442L183.844 95.4113L183.703 95.2715C183.575 94.939 183.746 94.8021 184.216 94.8692C184.253 94.9222 184.264 94.9362 184.247 94.9111C184.23 94.8831 184.281 95.0089 184.253 94.9278C184.233 94.8691 184.216 94.8077 184.202 94.7462C184.197 94.7183 184.191 94.6903 184.185 94.6652C184.18 94.64 184.155 94.5618 184.185 94.6596C184.169 94.6065 184.171 94.5394 184.166 94.4863C184.143 94.2265 184.121 93.9638 184.034 93.7151C183.97 93.5307 183.804 93.4105 183.605 93.4356C183.524 93.4468 183.44 93.4804 183.381 93.5418C183.306 93.6229 183.28 93.7095 183.266 93.8185C183.28 93.7011 183.266 93.8101 183.261 93.838C183.255 93.8716 183.247 93.9023 183.238 93.9358C183.219 94.0057 183.196 94.0728 183.171 94.1398C183.154 94.1901 183.202 94.07 183.18 94.1175C183.174 94.1286 183.168 94.1398 183.163 94.151C183.149 94.1817 183.132 94.2125 183.118 94.2432C183.084 94.3075 183.045 94.369 183.006 94.4304C182.986 94.4584 182.967 94.4863 182.947 94.5143C182.939 94.5254 182.899 94.5674 182.939 94.5254C182.978 94.4835 182.939 94.5254 182.93 94.5366C182.908 94.5618 182.885 94.5869 182.863 94.6121C182.827 94.6512 182.756 94.6959 182.871 94.6205C182.863 94.626 182.855 94.6288 182.846 94.6344C182.846 94.6344 182.95 94.5981 182.897 94.6121C182.874 94.6177 182.852 94.626 182.832 94.6288C182.824 94.6288 182.815 94.6288 182.804 94.6344C182.759 94.6456 182.899 94.626 182.852 94.6288C182.824 94.6288 182.796 94.6344 182.768 94.6344C182.742 94.6344 182.72 94.6316 182.695 94.6316C182.804 94.6288 182.765 94.64 182.72 94.6316C182.717 94.6316 182.695 94.626 182.695 94.6232C182.695 94.6177 182.796 94.668 182.756 94.6456C182.79 94.6652 182.827 94.6959 182.843 94.7294C182.855 94.7518 182.871 94.8189 182.857 94.7574C182.846 94.7099 182.863 94.8496 182.863 94.7993C182.863 94.7881 182.863 94.7769 182.863 94.7686C182.863 94.7406 182.863 94.7099 182.866 94.6819C182.866 94.6512 182.871 94.6177 182.874 94.5869C182.88 94.5199 182.874 94.6121 182.869 94.6177C182.874 94.5981 182.874 94.5757 182.877 94.559C182.888 94.4947 182.902 94.4332 182.919 94.3718C182.927 94.3438 182.936 94.3187 182.944 94.2907C182.944 94.2879 182.961 94.2516 182.961 94.246C182.939 94.2991 182.933 94.3103 182.944 94.2851C182.95 94.274 182.953 94.2628 182.958 94.2516C182.983 94.1985 183.017 94.1482 183.048 94.1007C183.076 94.0588 182.997 94.1594 183.031 94.1231C183.042 94.1119 183.051 94.0979 183.062 94.0867C183.084 94.0644 183.112 94.0448 183.132 94.0225C183.084 94.0811 183.073 94.0644 183.104 94.0448C183.118 94.0364 183.135 94.0253 183.149 94.0169C183.16 94.0085 183.174 94.0029 183.185 93.9973C183.244 93.9694 183.185 94.0029 183.16 94.0057C183.194 94.0001 183.227 93.9833 183.261 93.975C183.266 93.975 183.303 93.9666 183.303 93.9666C183.303 93.9694 183.202 93.975 183.261 93.9722C183.283 93.9722 183.345 93.9582 183.364 93.9722C183.364 93.9722 183.258 93.9498 183.322 93.9666C183.339 93.9694 183.356 93.975 183.373 93.9778C183.387 93.9805 183.398 93.9861 183.412 93.9889C183.446 93.9973 183.328 93.9414 183.384 93.9778C183.395 93.9861 183.406 93.9917 183.418 93.9973C183.477 94.0308 183.348 93.9386 183.404 93.9889C183.555 94.1259 183.81 94.1482 183.956 93.9889C184.093 93.8408 184.118 93.5838 183.956 93.4384L183.964 93.4329Z" fill="white"/>
<path d="M204.815 239.535C208.766 242.59 210.699 245.188 215.188 247.379C213.893 249.117 212.846 251.101 212.579 253.247C212.313 255.393 212.924 257.724 214.518 259.191C215.919 260.479 218.023 261.113 218.822 262.837C219.36 263.997 220.167 265.939 219.943 267.199C219.847 267.739 217.415 268.605 216.903 268.7C213.19 269.379 209.315 269.169 205.701 268.085C204.631 267.764 203.538 267.342 202.787 266.518C201.848 265.489 201.596 264.003 201.647 262.614C201.697 261.225 200.856 255.608 199.212 252.669C199.086 252.445 197.531 253.507 195.85 247.639C195.496 246.404 196.292 245.596 196.892 244.459C197.494 243.324 198.607 242.564 199.688 241.866" fill="#33202B"/>
<path d="M220.329 265.878C220.248 265.727 220.1 265.579 219.923 265.548C219.881 265.539 219.845 265.548 219.811 265.559C219.78 265.565 219.747 265.579 219.718 265.604C218.623 266.492 217.13 266.752 215.757 266.814C214.12 266.889 212.479 266.696 210.87 266.409C209.396 266.146 207.94 265.794 206.494 265.403C205.709 265.19 204.911 264.891 204.104 264.771C204.09 264.771 204.028 264.76 203.997 264.76C203.995 264.754 203.989 264.749 203.983 264.74C203.947 264.679 203.857 264.539 203.81 264.433C203.622 264.019 203.501 263.569 203.384 263.131C203.019 261.789 202.748 260.42 202.493 259.057C202.243 257.726 202.019 256.391 201.829 255.05C201.77 254.633 201.711 254.214 201.675 253.795C201.627 253.233 201.529 252.769 201.226 252.272C200.708 251.422 199.971 250.693 199.209 250.059C198.965 249.858 198.693 249.69 198.511 249.427C198.332 249.173 198.2 248.88 198.088 248.592C197.598 247.345 197.34 245.999 197.13 244.68C197.116 244.59 197.102 244.501 197.088 244.409C197.063 244.227 196.783 244.21 196.704 244.358C196.27 245.163 195.62 245.943 195.55 246.887C195.51 247.407 195.693 247.91 195.847 248.399C195.992 248.866 196.152 249.327 196.334 249.782C196.721 250.755 197.206 251.903 198.097 252.532C198.287 252.666 198.503 252.769 198.735 252.811C198.822 252.828 198.909 252.834 198.996 252.839C199.013 252.839 199.032 252.839 199.049 252.839C199.088 252.94 199.223 253.152 199.273 253.253C199.455 253.622 199.612 254.002 199.758 254.387C200.058 255.184 200.304 256 200.515 256.821C200.904 258.336 201.207 259.884 201.364 261.44C201.414 261.946 201.422 262.438 201.422 262.944C201.422 263.894 201.571 264.866 201.994 265.727C202.913 267.599 205.082 268.197 206.959 268.641C209.214 269.178 211.548 269.387 213.863 269.264C214.908 269.208 215.992 269.119 217.018 268.887C217.589 268.759 218.147 268.527 218.682 268.295C219.141 268.096 219.817 267.848 220.086 267.392C220.105 267.361 220.114 267.325 220.13 267.294C220.2 267.191 220.265 267.096 220.312 266.979C220.447 266.649 220.5 266.199 220.324 265.875L220.329 265.878ZM199.102 252.839C199.102 252.839 199.1 252.839 199.097 252.839C199.122 252.839 199.102 252.839 199.102 252.839Z" fill="#B8B8B8"/>
<path d="M210.097 253.261C210.142 253.23 210.189 253.202 210.237 253.177C210.262 253.163 210.285 253.152 210.31 253.141C210.332 253.13 210.363 253.119 210.324 253.135C210.433 253.093 210.545 253.063 210.66 253.038C210.713 253.026 210.769 253.015 210.823 253.007C210.851 253.001 210.879 252.998 210.904 252.993C210.912 252.993 210.991 252.982 210.951 252.984C210.912 252.987 210.991 252.979 210.999 252.979C211.027 252.976 211.055 252.973 211.083 252.97C211.139 252.965 211.198 252.959 211.254 252.954C211.346 252.945 211.439 252.94 211.531 252.943C211.579 252.943 211.624 252.943 211.672 252.948C211.694 252.948 211.716 252.954 211.742 252.954C211.708 252.951 211.683 252.943 211.73 252.954C211.775 252.962 211.817 252.973 211.859 252.984C211.87 252.987 211.954 253.024 211.901 252.998C211.851 252.973 211.915 253.007 211.924 253.012C211.94 253.024 211.96 253.038 211.977 253.046C212.016 253.063 211.941 253.001 211.966 253.038C211.974 253.052 211.997 253.071 212.011 253.082C212.05 253.113 211.963 253.01 212.011 253.088C212.128 253.272 212.389 253.364 212.585 253.239C212.77 253.121 212.862 252.862 212.736 252.666C212.425 252.185 211.859 252.076 211.321 252.113C210.758 252.149 210.153 252.227 209.668 252.543C209.483 252.663 209.391 252.92 209.517 253.116C209.635 253.297 209.895 253.395 210.091 253.267L210.097 253.261Z" fill="#B8B8B8"/>
<path d="M210.279 255.703C210.36 255.645 210.444 255.592 210.534 255.547C210.559 255.533 210.587 255.522 210.612 255.508C210.579 255.525 210.57 255.525 210.612 255.508C210.663 255.488 210.713 255.472 210.764 255.458C210.814 255.444 210.867 255.43 210.918 255.418C210.949 255.413 211.072 255.393 210.982 255.404C211.089 255.393 211.195 255.388 211.302 255.39C211.349 255.39 211.397 255.396 211.445 255.399C211.529 255.404 211.405 255.39 211.456 255.399C211.478 255.404 211.503 255.407 211.526 255.41C211.624 255.43 211.722 255.455 211.817 255.488C211.845 255.497 211.873 255.508 211.901 255.519C211.96 255.541 211.845 255.488 211.899 255.519C211.946 255.544 211.994 255.567 212.041 255.592C212.083 255.614 212.123 255.639 212.162 255.667C212.17 255.673 212.249 255.729 212.207 255.695C212.165 255.662 212.249 255.729 212.246 255.729C212.414 255.871 212.677 255.905 212.84 255.729C212.983 255.572 213.019 255.287 212.84 255.136C212.019 254.443 210.747 254.337 209.859 254.98C209.682 255.108 209.576 255.351 209.707 255.553C209.82 255.729 210.091 255.84 210.282 255.703H210.279Z" fill="#B8B8B8"/>
<path d="M210.548 257.992C211.007 257.768 211.489 257.542 211.971 257.556C212.167 257.562 212.352 257.609 212.534 257.732C212.753 257.88 212.935 258.051 213.201 258.112C213.423 258.162 213.655 258.045 213.72 257.819C213.779 257.606 213.647 257.355 213.425 257.302C213.397 257.296 213.367 257.288 213.339 257.277C213.378 257.293 213.327 257.268 213.316 257.26C213.257 257.221 213.201 257.184 213.145 257.142C213.044 257.067 212.946 256.989 212.834 256.93C212.551 256.785 212.238 256.715 211.921 256.712C211.276 256.712 210.685 256.989 210.122 257.265C209.918 257.366 209.862 257.654 209.971 257.838C210.091 258.045 210.341 258.09 210.545 257.989L210.548 257.992Z" fill="#B8B8B8"/>
<path d="M83.7866 224.641C82.2764 223.566 80.2675 223.538 78.4211 223.73C76.9865 223.881 75.566 224.144 74.1707 224.51C73.714 224.63 73.2348 224.776 72.9098 225.122C72.5764 225.474 72.4643 225.974 72.3607 226.447C71.0802 232.284 69.1497 237.976 66.6169 243.389C65.9892 244.73 65.3252 246.052 64.7845 247.432C62.966 252.085 62.6578 257.198 62.9576 262.183C63.0137 263.094 63.1174 264.078 63.731 264.754C64.2745 265.355 65.1319 265.595 65.9416 265.573C66.7542 265.551 67.5359 265.294 68.3092 265.039C69.0965 264.779 69.9511 264.472 70.3797 263.765C70.6852 263.262 70.7188 262.65 70.7832 262.069C71.1895 258.378 73.1452 255.01 75.5211 252.152C77.8999 249.293 80.7186 246.834 83.2655 244.124C83.5513 243.819 83.8455 243.495 83.9631 243.092C84.1312 242.52 83.9099 241.913 83.7082 241.352C81.8365 236.157 81.307 230.283 83.3719 225.161L83.7838 224.641H83.7866Z" fill="#33202B"/>
<path d="M75.0869 223.965C74.3976 224.122 73.5963 224.242 72.9995 224.644C72.4391 225.022 72.2262 225.628 72.0833 226.257C71.7274 227.824 71.352 229.386 70.9177 230.934C70.0379 234.061 68.9676 237.138 67.718 240.136C66.4684 243.132 64.8293 245.988 63.8766 249.1C62.9548 252.107 62.5906 255.265 62.5514 258.4C62.5402 259.277 62.5542 260.155 62.5906 261.032C62.6242 261.845 62.6326 262.681 62.8007 263.48C62.952 264.198 63.2855 264.869 63.8879 265.31C64.479 265.744 65.2243 265.9 65.9472 265.889C66.0369 265.889 66.1041 265.853 66.1546 265.802C66.1686 265.788 66.1798 265.772 66.191 265.755C66.2274 265.707 66.2582 265.651 66.2582 265.576C66.3479 262.837 66.3703 260.096 66.6841 257.372C66.9755 254.851 67.4546 252.345 68.1411 249.9C68.6118 248.223 69.1722 246.555 69.9202 244.979C70.1472 244.504 70.3882 244.029 70.6823 243.593C70.8336 243.369 70.9737 243.202 71.0998 242.908C71.5089 241.972 71.7611 240.963 72.0216 239.98C72.837 236.909 73.5066 233.799 74.1679 230.691C74.6105 228.615 75.0616 226.539 75.4511 224.454C75.4567 224.421 75.4651 224.387 75.4707 224.354C75.5183 224.116 75.3278 223.912 75.0841 223.968L75.0869 223.965Z" fill="#B8B8B8"/>
<path d="M76.8969 246.08C77.0257 246.163 77.0874 246.208 77.1742 246.281C77.2723 246.365 77.3676 246.451 77.4544 246.544C77.6534 246.753 77.7542 246.884 77.9055 247.139C77.9728 247.25 78.0316 247.362 78.0848 247.48C78.0989 247.513 78.1157 247.544 78.1297 247.577C78.1129 247.536 78.1297 247.577 78.1353 247.597C78.1605 247.664 78.1857 247.731 78.2081 247.798C78.2474 247.921 78.281 248.044 78.309 248.17C78.323 248.24 78.337 248.31 78.3482 248.379C78.3398 248.335 78.3482 248.371 78.3482 248.396C78.3538 248.438 78.3566 248.48 78.3594 248.525C78.3762 248.743 78.5387 248.955 78.7797 248.944C78.9926 248.935 79.2196 248.759 79.2 248.525C79.0935 247.236 78.4015 246.066 77.3171 245.356C77.1266 245.233 76.852 245.317 76.7428 245.507C76.6223 245.711 76.7035 245.957 76.8941 246.08H76.8969Z" fill="#B8B8B8"/>
<path d="M74.8263 247.955C75.7761 248.541 76.3113 249.651 76.2216 250.763C76.202 250.989 76.429 251.182 76.6419 251.182C76.8857 251.182 77.0426 250.989 77.0622 250.763C77.1771 249.366 76.4402 247.966 75.2494 247.231C74.7899 246.946 74.3668 247.67 74.8263 247.955Z" fill="#B8B8B8"/>
<path d="M72.9042 249.93C73.3553 250.307 73.6999 250.724 73.9745 251.238C74.2239 251.705 74.4004 252.283 74.4508 252.792C74.4733 253.018 74.6274 253.211 74.8711 253.211C75.0813 253.211 75.3138 253.018 75.2914 252.792C75.1625 251.462 74.5321 250.198 73.4982 249.338C73.3245 249.193 73.0751 249.167 72.9042 249.338C72.7557 249.486 72.7305 249.785 72.9042 249.93Z" fill="#B8B8B8"/>
<path d="M142.614 153.469C142.614 153.469 148.778 153.469 161.947 149.278C162.321 149.65 162.736 150.153 163.194 150.787C156.268 152.36 149.381 154.579 142.32 155.451L142.614 153.469Z" fill="#004167"/>
<path d="M180.361 46.4654C179.82 46.1328 179.282 45.8003 178.741 45.4706C178.554 45.356 178.271 45.4231 178.167 45.6215C178.058 45.8254 178.117 46.0714 178.318 46.1943C178.579 46.3536 178.839 46.5157 179.103 46.6749C178.727 46.918 178.374 47.2003 178.058 47.5104C177.901 47.6641 177.892 47.9519 178.058 48.1028C178.226 48.2565 178.484 48.2677 178.652 48.1028C178.769 47.9883 178.89 47.8821 179.016 47.7759C178.873 48.2677 178.789 48.7735 178.769 49.2904C178.761 49.5112 178.968 49.7208 179.19 49.7096C179.425 49.6984 179.602 49.5252 179.61 49.2904C179.624 48.8629 179.666 48.5751 179.775 48.1531C179.826 47.9575 179.89 47.7619 179.96 47.5719C179.977 47.53 179.991 47.4909 180.008 47.449C180.013 47.4378 180.013 47.435 180.016 47.4294C180.027 47.4015 180.039 47.3763 180.053 47.3512C180.069 47.3148 180.089 47.2785 180.106 47.2422C180.266 47.2562 180.437 47.1835 180.515 47.0382C180.624 46.8342 180.565 46.5883 180.364 46.4654H180.361Z" fill="#4F3041"/>
<path d="M194.703 47.4378C195.535 47.1556 195.283 45.0654 194.263 45.6634C193.849 46.1161 193.759 47.6502 194.703 47.4378Z" fill="#4F3041"/>
<path d="M195.48 45.7473C195.648 45.655 195.614 45.2834 195.429 45.1884C195.247 45.0906 195.059 45.0095 194.869 44.9816C194.449 44.9201 194.051 45.1269 193.757 45.4706C193.672 45.5628 193.521 45.7109 193.619 45.8954C193.686 46.0267 193.799 45.9904 193.871 45.9233C194.283 45.5824 194.762 45.4259 195.267 45.7277C195.337 45.7668 195.415 45.7892 195.48 45.7473Z" fill="#4F3041"/>
<path d="M197.581 42.6371C197.116 42.3801 196.578 42.2823 196.054 42.2124C192.994 42.218 190.893 44.2132 190.803 44.297L190.784 44.3137V44.3389C190.759 44.501 190.826 44.5904 190.887 44.6379C191.12 44.8195 191.675 44.6966 192.078 44.5373C192.277 44.4591 194.065 43.7772 195.505 43.903C195.777 43.9197 196.037 44.0455 196.289 44.1684C196.606 44.3221 196.931 44.4786 197.292 44.4339C197.334 44.4283 197.377 44.4199 197.421 44.4088C197.791 44.3026 198.046 43.9868 198.083 43.5844C198.119 43.1792 197.92 42.8048 197.575 42.6343L197.581 42.6371Z" fill="#4F3041"/>
<path d="M197.101 54.4404C196.158 53.7642 196.849 52.5542 196.536 53.0376C195.881 54.0464 196.936 54.5326 197.101 54.4404Z" fill="#4F3041"/>
<path d="M197.155 54.3482C196.863 54.1359 196.701 53.8173 196.687 53.4624C196.684 53.3954 196.687 53.3255 196.69 53.2584C196.69 53.2305 196.695 53.1998 196.698 53.1718C196.698 53.1578 196.701 53.1467 196.704 53.1327C196.701 53.155 196.704 53.1159 196.707 53.1103C196.715 53.0461 196.746 52.965 196.726 52.9008C196.701 52.8169 196.6 52.8002 196.541 52.8561C196.516 52.8784 196.497 52.9091 196.48 52.9371C196.373 53.0964 196.281 53.2724 196.245 53.4624C196.183 53.7754 196.281 54.0856 196.516 54.3035C196.62 54.3985 196.74 54.474 196.872 54.5215C196.961 54.555 197.071 54.5774 197.16 54.5327C197.281 54.4712 197.174 54.2896 197.054 54.351C197.045 54.3566 197.082 54.3426 197.059 54.3482C197.037 54.3538 197.079 54.3482 197.065 54.3482C197.057 54.3482 197.051 54.3482 197.043 54.3482C197.037 54.3482 197.009 54.3454 197.026 54.3482C197.045 54.3482 197.012 54.3482 197.009 54.3454C196.998 54.3454 196.989 54.3399 196.978 54.3371C196.956 54.3315 196.933 54.3231 196.911 54.3147C196.905 54.3147 196.891 54.3063 196.911 54.3147C196.905 54.3147 196.9 54.3091 196.894 54.3063C196.883 54.3007 196.872 54.2951 196.858 54.2896C196.833 54.2756 196.807 54.2616 196.782 54.2448C196.729 54.2113 196.695 54.1862 196.648 54.1387C196.429 53.9263 196.387 53.6301 196.499 53.3423C196.539 53.2417 196.595 53.1467 196.653 53.0572C196.665 53.0405 196.676 53.0237 196.69 53.0069C196.681 53.0125 196.667 53.0377 196.69 53.0069C196.69 53.0069 196.648 53.0321 196.628 53.0293L196.575 53.0153C196.575 53.0153 196.513 52.9539 196.527 52.9343V52.9427C196.527 52.9427 196.522 52.9874 196.527 52.9483C196.522 52.9762 196.519 53.0069 196.513 53.0349C196.499 53.1327 196.485 53.2333 196.483 53.3311C196.474 53.5966 196.527 53.8676 196.659 54.0995C196.757 54.27 196.897 54.4097 197.054 54.5271C197.099 54.5606 197.171 54.5355 197.197 54.4907C197.227 54.4377 197.205 54.3818 197.16 54.3482H197.155Z" fill="#4F3041"/>
<path d="M181.384 52.4146C181.384 52.4146 181.389 52.3866 181.389 52.3727C181.389 52.3643 181.384 52.3559 181.384 52.3475C181.384 52.3447 181.384 52.3419 181.384 52.3391C181.378 52.3196 181.372 52.3 181.361 52.2832C181.319 52.2078 181.232 52.1631 181.14 52.2022C181.131 52.2022 181.126 52.2078 181.117 52.2106C181.117 52.2106 181.115 52.2106 181.112 52.2106C180.565 52.5347 179.952 52.585 179.355 52.3755C179.156 52.3056 178.966 52.2078 178.783 52.0988C178.685 52.0401 178.559 51.9926 178.467 51.9172C178.198 51.7523 177.934 51.635 177.918 51.7523C177.906 51.8222 178.24 52.2106 178.276 52.2693C178.436 52.5375 178.638 52.7946 178.881 52.9902C179.347 53.3647 179.941 53.4848 180.501 53.2585C180.739 53.1635 180.963 53.021 181.143 52.8365C181.246 52.7303 181.372 52.5739 181.384 52.4118V52.4146ZM178.352 52.2693C178.346 52.2693 178.332 52.2525 178.352 52.2693Z" fill="#4F3041"/>
<path d="M199.621 53.5518C199.534 53.4708 199.422 53.4316 199.307 53.4037C198.929 53.3115 198.522 53.3255 198.155 53.4484C198.015 53.4959 197.912 53.644 197.959 53.7921C198.004 53.929 198.155 54.038 198.304 53.9877C198.366 53.9682 198.427 53.9486 198.489 53.9346C198.517 53.929 198.548 53.9235 198.578 53.9179C198.592 53.9179 198.606 53.9123 198.62 53.9123C198.62 53.9123 198.623 53.9123 198.626 53.9123C198.747 53.9011 198.864 53.9011 198.982 53.9123C198.974 53.9374 198.971 53.9626 198.971 53.9849C198.979 54.1526 199.094 54.2476 199.251 54.2644C199.497 54.2951 199.752 54.1526 199.764 53.8815C199.769 53.7558 199.71 53.6328 199.618 53.549L199.621 53.5518Z" fill="#4F3041"/>
<path d="M263.982 87.8133C263.587 87.6094 263.113 87.6177 262.679 87.6205C261.78 87.6261 260.765 87.7547 260.152 88.4896C259.69 89.0429 259.734 89.2021 259.454 90.3199C259.317 90.9542 258.126 92.4687 258.053 93.1142C258.011 93.4803 256.98 97.275 257.213 97.0263C257.597 96.6155 260.712 91.8344 261.116 91.4404C261.472 91.0911 261.794 90.739 262.301 90.6356C262.788 90.535 263.265 90.5127 263.691 90.2193C264.08 89.951 264.402 89.543 264.512 89.0736C264.629 88.5762 264.453 88.0592 263.982 87.8161V87.8133Z" fill="#BA8057"/>
<path d="M279.255 79.6204L258.474 114.988L250.026 107.799L266.817 80.277L279.255 79.6204Z" fill="#ADA6AA"/>
<path d="M277.607 81.2551L258.815 112.594L250.74 107.064L266.764 81.0958L277.607 81.2551Z" fill="#33202B"/>
<path d="M280.107 80.0842L259.362 115.38L258.493 114.952L279.238 79.6594L280.107 80.0842Z" fill="#D6D2D5"/>
<path d="M263.982 87.8133C263.587 87.6094 263.113 87.6177 262.679 87.6205C261.78 87.6261 260.765 87.7547 260.152 88.4896C259.69 89.0429 259.549 89.7331 259.533 90.4316C259.395 91.066 259.247 91.351 259.174 91.9965C259.132 92.3625 260.034 91.7143 260.855 91.1582C261.267 90.8787 261.794 90.739 262.301 90.6356C262.788 90.535 263.265 90.5127 263.691 90.2193C264.08 89.951 264.402 89.543 264.512 89.0736C264.629 88.5762 264.453 88.0592 263.982 87.8161V87.8133Z" fill="#BA8057"/>
<path d="M264.509 88.4673C264.506 88.3192 264.481 88.1739 264.388 88.0649C264.386 88.0593 264.383 88.0538 264.38 88.0482C264.226 87.7687 263.912 87.7911 263.643 87.8106C263.436 87.8246 263.231 87.8386 263.024 87.8554C262.811 87.8693 262.598 87.8861 262.385 87.9001C262.138 87.9168 261.892 87.9476 261.707 88.132C261.536 88.3024 261.48 88.5456 261.486 88.7803C261.491 88.9815 261.486 89.2274 261.547 89.4174C261.6 89.5878 261.729 89.7276 261.9 89.7807C262.012 89.8142 262.136 89.8142 262.253 89.817C262.466 89.8226 262.679 89.817 262.892 89.8058C263.276 89.7835 263.693 89.7695 264.038 89.5795C264.237 89.4705 264.38 89.3028 264.458 89.0932C264.534 88.8948 264.514 88.6713 264.509 88.4645V88.4673Z" fill="#C98F67"/>
</svg>
