<svg width="336" height="336" viewBox="0 0 336 336" fill="none" xmlns="http://www.w3.org/2000/svg">
<path d="M117.908 235.368L101.64 236.152C99.036 236.292 96.404 236.516 93.94 235.564C92.792 235.116 91.728 234.5 90.664 233.884C89.6 233.268 88.564 232.624 87.528 231.952C83.384 229.264 79.436 226.296 75.376 223.496C73.36 222.096 71.316 220.752 69.188 219.492C68.152 218.876 67.088 218.316 66.052 217.728C65.156 217.224 64.232 216.664 63.672 215.796C62.608 214.144 63.476 212.128 64.82 210.952C65.268 210.56 65.772 210.28 66.304 210.056H66.332H66.36C66.472 210.056 66.556 210.028 66.64 210.028C68.544 209.832 70.476 209.944 72.352 210.224C73.444 210.392 74.508 210.616 75.544 210.924C75.628 210.952 75.74 210.98 75.824 211.008C75.936 210.756 76.104 210.504 76.272 210.252C76.524 209.916 76.804 209.58 77.14 209.272C78.484 208.124 80.36 207.704 82.74 208.04C84.14 208.236 85.4 208.572 86.548 208.964C86.632 208.992 86.744 209.02 86.828 209.076C86.856 208.992 86.856 208.88 86.884 208.796C87.332 206.836 88.452 204.568 91.168 204.4C93.296 204.288 95.48 205.212 97.3 206.332C97.552 206.472 97.776 206.64 98.028 206.78C98.084 206.696 98.168 206.64 98.252 206.556C98.84 205.968 99.624 205.52 100.352 205.212C102.284 204.4 104.496 204.204 106.568 204.624C108.668 205.044 110.544 206.108 112.504 206.892C114.464 207.676 116.564 208.124 118.664 208.32C122.976 208.74 127.288 208.152 131.572 207.816C136.192 207.452 140.812 207.648 145.432 207.9C146.384 207.956 147.364 208.012 148.344 208.068C148.848 208.096 149.38 208.152 149.884 208.208C151.116 208.096 152.32 208.012 153.384 207.984C154.672 207.928 155.82 207.9 156.772 207.9C163.856 208.012 202.3 211.764 202.72 211.82C202.832 211.82 213.752 211.092 222.04 227.444C226.8 236.824 230.944 245.7 233.632 251.636C233.744 251.888 233.856 252.14 233.968 252.392C235.536 255.864 236.544 258.188 236.796 258.776L230.86 259.896L192.416 265.664C192.332 265.132 192.192 264.6 192.08 264.068C191.996 263.788 191.94 263.48 191.856 263.2C190.988 260.064 189.616 257.04 187.768 254.352C186.508 252.476 185.024 250.712 183.288 249.284C181.468 247.8 179.368 246.82 177.044 246.512C174.496 246.176 171.864 246.4 169.316 246.708C166.712 247.016 164.108 247.492 161.504 247.94C156.604 248.78 151.648 249.564 146.664 249.116C144.312 248.892 141.96 248.388 139.776 247.464C137.648 246.568 135.772 245.224 133.784 244.048C132.58 243.32 131.32 242.676 130.032 242.228C129.78 242.144 129.5 242.06 129.22 241.976C128.632 241.808 128.016 241.696 127.4 241.612C126.14 241.472 124.88 241.472 123.62 241.444C122.5 241.416 119.112 241.948 118.72 241.64C118.048 241.08 116.816 239.148 116.76 238.28C116.676 237.328 117.908 235.368 117.908 235.368Z" fill="#BA8057"/>
<path d="M189.28 265.72C189.28 265.72 233.24 260.96 236.88 253.68L271.88 312.2C271.88 312.2 230.636 315.952 192.724 313.796L189.28 265.72Z" fill="#004167"/>
<path d="M223.16 229.6L81.48 227.36L82.04 223.16L219.24 222.04L223.16 229.6Z" fill="#AF764F"/>
<path d="M118.02 235.34C123.592 230.44 133.812 230.44 140.56 232.764L141.344 233.072C142.296 233.408 143.416 233.212 144.48 232.876C146.636 232.176 148.652 231 150.696 229.992C156.772 226.772 163.716 224.28 170.688 225.54C163.716 224.728 157.052 227.388 151.06 230.664C148.316 232.008 143.948 235.004 140.868 233.772C134.316 231.224 123.816 231 118.02 235.34Z" fill="#9E6343"/>
<path d="M94.22 222.18C91.588 220.36 87.92 217.756 85.26 216.02C82.236 214.06 79.184 212.1 75.74 210.98C81.844 211.764 89.88 217.868 94.22 222.18Z" fill="#9E6343"/>
<path d="M105.7 220.5C102.956 218.624 99.204 215.992 96.46 214.228C93.352 212.24 90.188 210.196 86.66 209.02C92.848 209.832 101.248 216.16 105.7 220.5Z" fill="#9E6343"/>
<path d="M119.28 241.92C119.28 241.92 117.852 239.708 118.16 239.4C118.468 239.092 126.672 237.916 127.4 238.84C128.128 239.764 128.8 241.92 128.8 241.92H119.28Z" fill="#9E6343"/>
<path d="M244.44 223.02H81.928L99.148 199.78H226.856L244.44 223.02Z" fill="#ADA6AA"/>
<path d="M236.516 220.304H90.216L102.648 200.9H224.112L236.516 220.304Z" fill="#E6E6E6"/>
<path d="M244.272 223.02H82.068V226.52H244.272V223.02Z" fill="#D6D2D5"/>
<path d="M154.84 160.16C144.48 159.88 106.064 142.184 100.66 136.668C110.46 130.9 119.336 123.536 126.812 114.968C125.972 127.54 170.828 148.68 183.4 147.84L154.84 160.16Z" fill="#EAE1DA"/>
<path d="M151.2 105.84C160.664 108.276 166.516 113.82 173.404 120.736C174.384 121.716 175.532 122.836 176.904 122.696C177.632 122.612 178.276 122.192 178.864 121.8C195.86 110.124 208.516 92.3161 214.004 72.4361C202.216 72.8281 186.76 66.92 184.8 65.8C181.44 77.56 183.82 96.096 151.2 105.84Z" fill="#EAE1DA"/>
<path d="M253.68 91.84C246.736 112.252 226.52 128.52 198.8 128.52C195.72 134.96 195.16 139.44 189 144.2C208.04 144.2 228.48 142.52 267.12 128.52L253.68 91.84Z" fill="#EAE1DA"/>
<path d="M79.688 19.3201C69.748 36.4281 61.824 54.4321 56.028 72.9121C55.636 74.1441 55.272 75.4041 55.496 76.6641C55.832 78.4281 57.288 79.8561 58.744 81.1161C79.212 98.9241 111.412 105.672 138.964 97.9721C139.636 97.7761 140.308 97.5801 140.84 97.1881C141.68 96.5441 141.988 95.5361 142.24 94.5841C144.676 85.3161 147.112 76.0201 149.548 66.7521C149.548 66.7521 87.976 57.9601 79.688 19.3201Z" fill="#EAE1DA"/>
<path d="M112 190.68C120.848 186.256 127.232 181.412 133.812 174.02C143.528 177.94 195.72 173.04 206.64 154.28C213.248 158.508 227.36 170.24 244.44 172.48C210.252 195.86 145.32 197.12 111.944 190.652" fill="#EAE1DA"/>
<path d="M165.816 210.616C166.488 210.392 166.628 209.944 166.096 209.776C162.428 208.516 158.34 207.508 153.944 206.808C152.208 206.528 150.024 206.36 148.344 207.088C147.644 207.396 147.14 207.816 146.748 208.208C145.712 209.244 145.012 210.392 145.152 211.428C145.292 212.464 146.468 213.332 148.232 213.696C152.964 214.648 162.344 211.792 165.816 210.616Z" fill="#328DE5"/>
<path d="M148.232 211.708C147.84 210.588 147.616 210 148.26 209.104C148.904 208.208 150.92 207.368 152.46 207.592C152.936 207.648 153.3 207.816 153.664 207.984C154.812 208.572 155.624 209.356 155.54 210.28C155.456 211.204 154.196 212.24 152.488 212.688C150.78 213.164 148.68 212.968 148.232 211.708Z" fill="#E2E2E2"/>
<path d="M150.024 210.952C149.828 210.392 149.716 210.112 150.052 209.664C150.388 209.216 151.396 208.796 152.152 208.908C152.404 208.936 152.572 209.02 152.74 209.104C153.3 209.384 153.72 209.776 153.692 210.252C153.636 210.7 153.02 211.232 152.152 211.456C151.312 211.68 150.276 211.568 150.024 210.952Z" fill="#515151"/>
<path d="M147.364 13.636C147.896 13.636 147.896 12.796 147.364 12.796C146.832 12.796 146.832 13.636 147.364 13.636Z" fill="#DBCAC1"/>
<path d="M64.96 70.532C65.296 70 65.604 69.468 65.912 68.908C67.172 66.696 68.208 64.344 69.048 61.936C69.272 61.264 69.496 60.62 69.692 59.948C69.86 59.332 70 58.688 70.112 58.044C70.868 57.848 71.428 57.064 71.26 56.28C72.8 54.628 73.948 52.612 74.564 50.428C74.9 49.196 75.04 47.936 75.404 46.732C75.768 45.528 76.3 44.408 76.916 43.316C77.616 42.112 78.372 40.936 79.156 39.788C79.464 39.34 78.736 38.92 78.428 39.368C77.056 41.384 75.712 43.4 74.844 45.696C74.396 46.9 74.2 48.132 73.92 49.392C73.668 50.54 73.304 51.632 72.772 52.668C72.184 53.844 71.4 54.936 70.476 55.888C70.392 56 70.308 56.168 70.364 56.308C70.532 56.756 70.224 57.288 69.72 57.26C69.552 57.26 69.356 57.4 69.328 57.568C69.104 58.716 68.852 59.808 68.488 60.9C68.152 61.992 67.76 63.056 67.312 64.092C66.444 66.192 65.352 68.18 64.176 70.14C63.868 70.672 63.672 71.204 63.756 71.848C63.784 72.128 63.868 72.464 63.784 72.744C63.756 72.856 63.532 73.108 63.476 73.052C63.224 72.828 62.748 72.968 62.748 73.36C62.776 73.948 62.72 74.536 62.608 75.124L61.992 75.04C61.46 74.956 61.236 75.768 61.768 75.852C62.104 75.908 62.468 75.964 62.832 75.992C63.056 76.02 63.28 75.936 63.364 75.712C63.532 75.124 63.616 74.508 63.616 73.892C63.784 73.864 63.98 73.808 64.12 73.668C64.568 73.332 64.708 72.828 64.652 72.296C64.624 71.988 64.54 71.68 64.596 71.372C64.624 71.064 64.792 70.784 64.96 70.532Z" fill="#DBCAC1"/>
<path d="M72.296 66.248C72.66 65.1 72.856 63.924 73.164 62.776C73.5 61.488 73.976 60.228 74.9 59.248C75.264 58.856 74.676 58.268 74.312 58.66C72.604 60.48 72.296 63 71.68 65.324C71.344 66.64 70.812 67.844 70.112 69.02C69.356 70.28 68.572 71.512 67.844 72.8C67.004 74.284 66.248 75.824 65.548 77.392C65.324 77.896 66.052 78.316 66.276 77.812C67.48 75.096 68.936 72.52 70.504 70C71.232 68.796 71.904 67.564 72.296 66.248Z" fill="#DBCAC1"/>
<path d="M76.748 63.2521C77.028 62.7761 76.3 62.3561 76.02 62.8321C74.844 64.8201 74.088 67.0601 73.136 69.1881C72.184 71.3161 71.12 73.4441 70 75.4881C69.356 76.6641 68.684 77.8121 68.012 78.9601C67.732 79.4361 68.46 79.8561 68.74 79.3801C71.176 75.3481 73.276 71.1481 75.068 66.7801C75.572 65.5761 76.076 64.3721 76.748 63.2521Z" fill="#DBCAC1"/>
<path d="M81.06 54.4881L79.716 53.7321C79.492 53.6201 79.268 53.4801 79.044 53.3681C78.82 53.2281 78.568 53.1161 78.288 53.2001C78.064 53.2561 77.896 53.4521 77.784 53.6481C77.644 53.8441 77.532 54.0401 77.42 54.2641C77.14 54.7121 76.888 55.1321 76.608 55.5801C76.496 55.7481 76.552 55.9161 76.636 56.0281C76.636 56.0841 76.664 56.1401 76.692 56.2241C77.084 57.0641 77.924 57.6801 78.82 57.8201C79.016 57.8481 79.184 57.7921 79.296 57.6241C79.856 56.7561 80.472 55.9441 81.144 55.1601C81.312 54.9361 81.312 54.6281 81.06 54.4881Z" fill="#DBCAC1"/>
<path d="M79.632 50.988C79.604 51.184 79.744 51.352 79.94 51.436L81.228 51.94C81.62 52.08 82.096 52.388 82.516 52.164C82.684 52.08 82.796 51.912 82.908 51.744C83.048 51.548 83.16 51.352 83.3 51.156C83.552 50.792 83.776 50.428 84.028 50.064C84.252 49.7 84.448 49.336 84.196 48.916C84 48.58 83.608 48.412 83.3 48.244C82.936 48.048 82.544 47.88 82.152 47.712C81.76 47.544 81.284 47.376 80.92 47.74C80.752 47.908 80.668 48.132 80.556 48.356C80.444 48.58 80.304 48.804 80.192 49.056L79.492 50.428C79.296 50.652 79.436 50.876 79.632 50.988Z" fill="#DBCAC1"/>
<path d="M82.46 45.64C82.488 45.696 82.516 45.78 82.572 45.836C83.3 46.48 84.14 46.984 85.064 47.32C85.26 47.376 85.428 47.264 85.54 47.124C85.932 46.592 86.296 46.06 86.688 45.556C87.024 45.08 87.556 44.548 87.388 43.932C87.248 43.4 86.688 43.036 86.268 42.728C85.764 42.336 85.26 41.972 84.728 41.636C84.532 41.496 84.28 41.608 84.168 41.776C83.356 42.812 82.74 43.988 82.32 45.248C82.236 45.388 82.32 45.556 82.46 45.64Z" fill="#DBCAC1"/>
<path d="M86.66 58.66C87.948 56.084 89.236 53.508 90.524 50.932C90.776 50.456 90.048 50.036 89.796 50.512C87.528 55.02 85.26 59.556 82.992 64.064C80.948 68.152 78.876 72.268 76.44 76.16C75.068 78.372 73.584 80.5 71.932 82.516C71.596 82.936 72.184 83.524 72.52 83.104C75.432 79.52 77.868 75.572 80.052 71.512C82.404 67.312 84.504 62.972 86.66 58.66Z" fill="#DBCAC1"/>
<path d="M87.948 64.3721C88.872 62.6081 89.88 60.9001 91.028 59.2761C91.336 58.8281 90.608 58.4081 90.3 58.8561C90.244 58.9681 90.16 59.0521 90.104 59.1641V59.1921C88.144 62.0481 86.576 65.1561 85.092 68.2921C83.496 71.6521 81.928 75.0401 80.444 78.4281C79.576 80.3881 78.736 82.3481 77.924 84.3361C77.728 84.8401 78.54 85.0641 78.736 84.5601C80.164 81.0881 81.676 77.6441 83.244 74.2281C84.756 70.9241 86.24 67.5921 87.948 64.3721Z" fill="#DBCAC1"/>
<path d="M87.36 72.884C84.812 77 82.572 81.256 80.584 85.68C80.36 86.184 81.088 86.604 81.312 86.1C83.272 81.676 85.54 77.42 88.088 73.304C88.368 72.856 87.64 72.436 87.36 72.884Z" fill="#DBCAC1"/>
<path d="M89.796 67.648C89.684 67.76 89.628 67.9 89.572 68.04L88.844 69.608C88.76 69.804 88.788 70.056 88.984 70.196C89.18 70.308 89.46 70.252 89.544 70.056C89.684 69.748 89.852 69.412 89.992 69.104C90.076 68.936 90.132 68.796 90.216 68.628C90.244 68.544 90.272 68.488 90.328 68.404C90.384 68.376 90.412 68.348 90.468 68.32C90.608 68.18 90.664 67.928 90.552 67.732C90.384 67.452 90.02 67.452 89.796 67.648Z" fill="#DBCAC1"/>
<path d="M92.26 63.728C92.288 63.7 92.288 63.644 92.316 63.616C92.456 63.308 92.596 63.028 92.736 62.72C92.848 62.524 92.792 62.244 92.596 62.132C92.4 62.02 92.12 62.076 92.036 62.272C91.728 62.888 91.448 63.532 91.196 64.204C91.112 64.4 91.28 64.68 91.476 64.736C91.728 64.792 91.896 64.652 92.008 64.428C92.064 64.288 92.12 64.12 92.176 63.98C92.204 63.896 92.232 63.84 92.26 63.756C92.26 63.784 92.26 63.756 92.26 63.728C92.26 63.756 92.26 63.756 92.26 63.728Z" fill="#DBCAC1"/>
<path d="M93.8 59.976C93.912 60.032 94.024 60.06 94.136 60.004C94.248 59.976 94.332 59.92 94.388 59.808C94.472 59.64 94.528 59.472 94.612 59.304C94.64 59.22 94.696 59.136 94.724 59.052C94.836 58.996 94.948 58.884 94.976 58.772C95.032 58.604 94.976 58.436 94.864 58.296C94.724 58.128 94.472 58.128 94.304 58.24C94.192 58.296 94.108 58.408 94.08 58.52C93.94 58.828 93.828 59.108 93.688 59.416C93.632 59.528 93.604 59.612 93.66 59.752C93.632 59.808 93.716 59.92 93.8 59.976Z" fill="#DBCAC1"/>
<path d="M93.296 72.6601C93.52 72.6601 93.772 72.5761 93.968 72.4361C94.192 72.2681 94.332 72.0441 94.444 71.7921C94.528 71.5681 94.556 71.2881 94.584 71.0641C94.612 70.8401 94.612 70.6161 94.556 70.4201C94.444 70.1121 94.192 69.8881 93.856 69.8601C93.632 69.8321 93.38 69.9161 93.184 70.0561C92.82 70.3081 92.596 70.7281 92.512 71.1761C92.316 71.2601 92.176 71.4841 92.232 71.6801C92.316 71.9041 92.4 72.1561 92.568 72.3521C92.792 72.5201 93.044 72.6321 93.296 72.6601Z" fill="#DBCAC1"/>
<path d="M94.836 65.4081C94.724 65.7441 94.724 66.1361 94.864 66.4721C94.976 66.8361 95.2 67.2001 95.536 67.3961C95.816 67.5641 96.152 67.4801 96.348 67.2001C96.46 67.0321 96.516 66.8081 96.572 66.6401C96.684 66.2481 96.74 65.8281 96.74 65.4081C96.74 65.2121 96.712 64.9881 96.6 64.8201C96.432 64.5681 96.18 64.4561 95.9 64.5121C95.676 64.5401 95.536 64.8201 95.62 65.0441C95.648 65.1001 95.676 65.1561 95.704 65.1841L95.592 65.2681C95.536 65.2121 95.452 65.1561 95.368 65.1281C95.116 65.0441 94.892 65.1841 94.836 65.4081Z" fill="#DBCAC1"/>
<path d="M99.288 60.9841C99.596 60.8721 99.848 60.6201 99.932 60.2841C100.016 59.9481 99.876 59.5841 99.624 59.3601C99.344 59.1081 99.008 58.9961 98.644 58.9961C98.476 58.9961 98.308 59.1361 98.252 59.3041C98.224 59.3601 98.196 59.4161 98.196 59.5001C98.168 59.8641 98.224 60.2561 98.364 60.5641C98.532 60.9001 98.924 61.1241 99.288 60.9841ZM99.12 60.0881C99.12 60.1161 99.12 60.1161 99.12 60.1161C99.12 60.1161 99.12 60.1161 99.12 60.1441C99.12 60.1161 99.092 60.0601 99.092 60.0321C99.092 60.0321 99.092 60.0321 99.12 60.0601C99.092 60.0601 99.092 60.0601 99.12 60.0881Z" fill="#DBCAC1"/>
<path d="M89.152 77.672C87.976 80.808 86.632 83.888 85.064 86.884C84.812 87.36 85.54 87.78 85.792 87.304C87.388 84.252 88.76 81.116 89.964 77.896C90.132 77.392 89.32 77.168 89.152 77.672Z" fill="#DBCAC1"/>
<path d="M90.58 81.984C89.684 82.768 89.32 84.056 88.872 85.12C88.312 86.408 87.752 87.724 87.22 89.012C87.136 89.236 87.164 89.46 87.36 89.572C87.528 89.684 87.836 89.628 87.92 89.432C88.452 88.172 88.984 86.912 89.516 85.68C89.768 85.092 90.02 84.504 90.272 83.916C90.496 83.412 90.748 82.936 91.168 82.6C91.588 82.208 91 81.62 90.58 81.984Z" fill="#DBCAC1"/>
<path d="M103.096 64.12C103.208 63.588 102.396 63.364 102.284 63.896C100.632 70.98 97.86 77.756 94.892 84.364C94.052 86.24 93.184 88.116 92.316 89.964C92.092 90.44 92.82 90.888 93.044 90.384C96.124 83.72 99.232 77.056 101.472 70.028C102.088 68.096 102.648 66.108 103.096 64.12Z" fill="#DBCAC1"/>
<path d="M105.112 72.352C105.252 71.82 104.44 71.596 104.3 72.128C103.04 76.86 101.388 81.452 99.372 85.904C98.784 87.164 98.196 88.424 97.552 89.684C97.3 90.16 98.028 90.58 98.28 90.104C100.52 85.708 102.424 81.144 103.936 76.44C104.356 75.068 104.748 73.696 105.112 72.352Z" fill="#DBCAC1"/>
<path d="M112 68.824C112.084 68.6 112.056 68.376 111.86 68.236C111.692 68.124 111.384 68.18 111.3 68.376C109.116 73.528 107.072 78.736 105.196 84C104.664 85.512 104.132 86.996 103.628 88.508C103.46 89.012 104.272 89.236 104.44 88.732C106.232 83.496 108.136 78.316 110.236 73.192C110.768 71.736 111.356 70.28 112 68.824Z" fill="#DBCAC1"/>
<path d="M107.352 93.324C107.24 93.856 108.052 94.08 108.164 93.548C109.48 87.64 111.44 81.844 113.988 76.328C114.716 74.76 115.472 73.22 116.284 71.708C116.536 71.232 115.808 70.812 115.556 71.288C112.672 76.664 110.348 82.376 108.668 88.256C108.164 89.936 107.744 91.616 107.352 93.324Z" fill="#DBCAC1"/>
<path d="M112.056 94.248C111.916 94.78 112.728 95.004 112.868 94.472C114.352 88.396 116.396 82.432 119 76.748C119.728 75.124 120.512 73.556 121.324 71.988C121.576 71.512 120.848 71.092 120.596 71.568C117.684 77.168 115.276 83.048 113.456 89.096C112.952 90.776 112.504 92.512 112.056 94.248Z" fill="#DBCAC1"/>
<path d="M119.896 89.012C119.392 90.832 118.888 92.652 118.44 94.472C118.3 95.004 119.112 95.228 119.252 94.696C120.876 88.256 122.836 81.928 125.076 75.684C125.72 73.92 126.392 72.156 127.064 70.392C127.232 69.944 126.504 69.636 126.308 70.056C126.112 70.476 125.944 70.896 125.748 71.316C125.692 71.428 125.692 71.512 125.72 71.596C123.508 77.308 121.576 83.132 119.896 89.012Z" fill="#DBCAC1"/>
<path d="M124.824 92.484C124.6 92.96 125.328 93.408 125.552 92.904C128.184 87.416 129.752 81.48 131.04 75.544C131.32 74.2 131.6 72.884 131.88 71.54C131.964 71.484 132.02 71.372 132.048 71.232C132.076 70.952 132.104 70.672 132.104 70.392C132.132 69.916 131.376 69.804 131.264 70.28C130.06 76.16 128.856 82.068 126.784 87.752C126.224 89.348 125.58 90.916 124.824 92.484Z" fill="#DBCAC1"/>
<path d="M134.232 92.344C135.968 86.772 137.508 81.116 138.852 75.432C139.244 73.808 139.608 72.212 139.944 70.56C140.056 70.084 139.44 69.832 139.188 70.224C139.076 70.392 138.936 70.56 138.824 70.756C138.684 70.98 138.768 71.176 138.936 71.288C137.76 76.664 136.388 82.04 134.848 87.332C134.4 88.928 133.896 90.524 133.42 92.092C133.28 92.624 134.092 92.848 134.232 92.344Z" fill="#DBCAC1"/>
<path d="M188.02 72.1C188.692 71.876 189.42 72.212 190.092 72.408C190.792 72.632 191.492 72.828 192.192 73.052C192.892 73.248 193.592 73.444 194.264 73.724C194.88 73.976 195.44 74.34 196.056 74.592C197.232 75.068 198.52 75.236 199.752 75.46C200.396 75.572 201.012 75.712 201.628 75.908C202.216 76.104 202.72 76.44 203.308 76.636C203.672 76.748 204.064 76.776 204.428 76.804C204.848 76.86 205.24 76.888 205.66 76.944C206.528 77.056 207.368 77.14 208.236 77.252C208.768 77.308 208.768 76.468 208.236 76.412C207.48 76.328 206.752 76.244 205.996 76.132C205.268 76.048 204.512 76.02 203.784 75.852C203.476 75.796 203.224 75.628 202.944 75.488C202.664 75.348 202.356 75.236 202.048 75.124C201.432 74.928 200.816 74.788 200.172 74.676C198.912 74.452 197.596 74.284 196.392 73.836C195.776 73.584 195.216 73.248 194.628 72.996C193.928 72.716 193.228 72.52 192.5 72.296C191.716 72.044 190.904 71.82 190.12 71.568C189.364 71.344 188.58 71.064 187.824 71.316C187.264 71.484 187.488 72.296 188.02 72.1Z" fill="#DBCAC1"/>
<path d="M190.008 75.684C190.596 76.02 191.156 76.356 191.8 76.58C192.416 76.804 193.06 76.944 193.676 77.084C194.32 77.252 194.992 77.42 195.608 77.7C196.224 78.008 196.784 78.372 197.428 78.596C198.1 78.848 198.828 78.988 199.5 79.156C200.284 79.352 201.04 79.52 201.796 79.716C203.504 80.136 205.24 80.528 206.948 80.948C207.48 81.088 207.704 80.276 207.172 80.136C204.232 79.436 201.264 78.792 198.352 78.008C197.064 77.672 195.972 76.86 194.684 76.468C193.424 76.104 192.108 75.936 190.988 75.292C190.372 74.928 189.868 74.62 189.14 74.592C188.608 74.564 187.88 74.732 187.46 74.312C187.068 73.92 186.48 74.536 186.872 74.9C187.712 75.768 189.028 75.152 190.008 75.684Z" fill="#DBCAC1"/>
<path d="M186.06 77.4481C190.792 79.8841 196.084 80.7801 201.068 82.5161C202.468 82.9921 203.868 83.5521 205.184 84.2241C205.66 84.4761 206.08 83.7481 205.604 83.4961C200.872 81.0881 195.58 80.1921 190.596 78.4561C189.196 77.9521 187.796 77.3921 186.48 76.7201C186.004 76.4681 185.584 77.1961 186.06 77.4481Z" fill="#DBCAC1"/>
<path d="M185.472 80.0801C187.824 80.9481 190.12 81.8721 192.388 82.8801C192.892 83.1041 193.312 82.3761 192.808 82.1521C190.456 81.1161 188.104 80.1361 185.668 79.2681C185.192 79.0721 184.968 79.8841 185.472 80.0801Z" fill="#DBCAC1"/>
<path d="M184.8 82.152C186.9 83.02 189.028 83.832 191.072 84.812C191.548 85.036 191.996 84.308 191.492 84.084C189.364 83.076 187.18 82.236 185.024 81.34C184.8 81.256 184.576 81.424 184.52 81.62C184.436 81.872 184.604 82.068 184.8 82.152Z" fill="#DBCAC1"/>
<path d="M185.248 85.344C185.584 85.344 185.948 85.26 186.284 85.316C186.592 85.344 186.872 85.54 187.152 85.68C187.656 85.96 188.188 86.156 188.748 86.352C189.28 86.52 189.784 86.716 190.148 87.164C190.484 87.584 191.072 86.996 190.736 86.576C190.008 85.68 188.804 85.624 187.824 85.092C187.264 84.784 186.76 84.448 186.116 84.448C185.668 84.448 184.856 84.7 184.576 84.168C184.324 83.692 183.596 84.112 183.848 84.588C184.128 85.12 184.716 85.344 185.248 85.344Z" fill="#DBCAC1"/>
<path d="M200.312 92.512C200.956 92.344 201.264 91.56 201.6 91.028C202.524 89.516 203.448 88.004 204.372 86.52C204.512 86.296 204.372 85.96 204.12 85.904C202.636 85.568 201.18 85.092 199.808 84.448C198.492 83.832 197.288 82.908 195.804 82.74C195.636 82.712 195.44 82.88 195.384 83.048C195.384 83.076 195.384 83.076 195.384 83.104C195.3 83.132 195.244 83.188 195.188 83.3C194.572 84.728 193.928 86.128 193.312 87.556C193.172 87.836 192.976 88.144 193.06 88.48C193.116 88.788 193.368 88.984 193.62 89.18C194.124 89.6 194.6 89.992 195.132 90.384C196.168 91.168 197.288 91.868 198.52 92.26C199.024 92.428 199.752 92.68 200.312 92.512Z" fill="#DBCAC1"/>
<path d="M184.548 88.676C185.08 88.928 185.668 88.872 186.228 89.012C186.788 89.152 187.208 89.488 187.656 89.824C188.104 90.16 188.552 90.44 189.056 90.636C190.148 91.028 191.296 91.056 192.36 91.56C193.424 92.064 194.348 92.82 195.244 93.548C196.224 94.36 197.232 95.116 198.548 95.228C199.08 95.284 199.08 94.444 198.548 94.388C197.484 94.304 196.588 93.576 195.804 92.904C194.992 92.232 194.152 91.532 193.228 91.028C192.248 90.496 191.212 90.3 190.148 90.048C189.644 89.936 189.14 89.768 188.692 89.488C188.272 89.236 187.908 88.9 187.488 88.62C186.984 88.284 186.452 88.144 185.864 88.06C185.388 88.004 184.632 87.976 184.464 87.416C184.296 86.912 183.484 87.108 183.652 87.64C183.764 88.144 184.128 88.48 184.548 88.676Z" fill="#DBCAC1"/>
<path d="M185.108 92.036C186.228 92.624 187.348 93.268 188.468 93.912C189.56 94.556 190.624 95.256 191.688 95.928C192.164 96.236 192.668 96.516 193.228 96.628C193.76 96.74 194.32 96.712 194.768 97.048C195.524 97.636 195.944 98.644 196.98 98.812C197.512 98.896 197.736 98.084 197.204 98C196.392 97.86 196 96.992 195.44 96.488C195.048 96.152 194.6 95.956 194.068 95.872C193.48 95.788 192.976 95.676 192.472 95.368C191.436 94.752 190.428 94.052 189.392 93.436C188.328 92.792 187.208 92.148 186.116 91.56C185.528 91.252 184.94 90.944 184.352 90.636C183.792 90.356 183.26 90.02 182.84 89.544C182.476 89.124 181.888 89.74 182.252 90.132C183.008 91.056 184.128 91.504 185.108 92.036Z" fill="#DBCAC1"/>
<path d="M181.104 93.016C181.608 93.38 182.196 93.156 182.7 93.408C183.148 93.604 183.428 94.136 183.792 94.444C184.212 94.808 184.716 95.088 185.22 95.312C186.284 95.788 187.32 96.208 188.3 96.908C189.308 97.608 190.232 98.448 191.212 99.232C192.388 100.156 193.592 101.024 194.852 101.808C195.3 102.088 195.748 101.36 195.272 101.08C194.236 100.436 193.256 99.736 192.276 99.008C191.352 98.308 190.484 97.552 189.588 96.824C188.72 96.152 187.796 95.508 186.76 95.06C185.836 94.668 184.828 94.332 184.1 93.604C183.736 93.212 183.4 92.764 182.868 92.568C182.728 92.512 181.328 92.428 181.468 92.176C181.692 91.7 180.992 91.28 180.74 91.756C180.544 92.232 180.712 92.708 181.104 93.016Z" fill="#DBCAC1"/>
<path d="M176.708 97.4121C177.072 97.7481 177.436 98.1401 177.856 98.4201C178.052 98.5601 178.332 98.6441 178.556 98.5601C178.78 98.4761 178.948 98.3081 179.144 98.1401C179.536 97.8041 179.956 97.4401 180.348 97.0761C180.544 96.9081 180.712 96.7681 180.908 96.6001C181.104 96.4321 181.384 96.2641 181.412 95.9841C181.44 95.7041 181.3 95.5081 181.076 95.3681C180.824 95.2001 180.572 95.0601 180.32 94.9201C180.096 94.7801 179.844 94.6401 179.62 94.5001C179.62 94.4441 179.592 94.3881 179.564 94.3321C179.48 94.1641 179.228 94.0521 179.032 94.1641C178.976 94.1361 178.892 94.1081 178.808 94.0801C178.5 94.0241 178.164 94.2201 178.164 94.5281C178.164 94.6121 178.192 94.6681 178.22 94.7521C177.604 95.2001 176.988 95.6761 176.372 96.1521C176.176 96.2921 176.064 96.5161 176.148 96.7681C176.232 97.0481 176.512 97.2441 176.708 97.4121Z" fill="#DBCAC1"/>
<path d="M176.12 105C176.512 105.28 176.932 105.7 177.38 105.84C177.94 106.036 178.276 105.532 178.584 105.14C179.34 104.216 180.124 103.32 180.88 102.396C181.076 102.172 181.02 101.78 180.684 101.696C178.5 101.164 176.54 99.9601 175.084 98.2241C175.056 98.1961 175.056 98.1961 175.028 98.1681C175.056 97.8321 174.608 97.5241 174.3 97.8321C173.46 98.6721 172.536 99.4001 171.528 100.016C171.276 100.156 171.276 100.464 171.444 100.688C172.872 102.284 174.412 103.74 176.12 105Z" fill="#DBCAC1"/>
<path d="M189.84 101.332C190.064 100.996 190.232 100.66 189.98 100.296C189.812 100.016 189.504 99.876 189.196 99.792C188.804 99.68 188.412 99.568 188.02 99.428C187.152 99.12 186.34 98.644 185.584 98.112C184.884 97.608 184.324 96.852 183.512 96.544C183.372 96.376 183.092 96.32 182.896 96.488C182.504 96.824 182.14 97.16 181.748 97.468C181.384 97.804 180.964 98.112 180.6 98.448C180.376 98.7 180.264 99.008 180.516 99.316C180.628 99.456 180.824 99.54 180.964 99.624C181.16 99.736 181.356 99.876 181.552 100.016C182.924 100.968 184.1 102.228 185.388 103.292C185.668 103.544 185.976 103.768 186.284 103.992C186.592 104.216 186.928 104.44 187.348 104.356C187.712 104.272 187.964 103.964 188.188 103.684C188.496 103.292 188.776 102.872 189.056 102.452C189.308 102.088 189.56 101.724 189.84 101.332Z" fill="#DBCAC1"/>
<path d="M187.348 108.78C187.544 109.284 188.356 109.06 188.16 108.556C188.02 108.192 187.768 107.94 187.404 107.772C187.096 107.632 186.704 107.604 186.424 107.408C186.116 107.212 185.892 106.876 185.584 106.68C185.332 106.512 184.94 106.428 184.8 106.148C184.632 105.868 184.632 105.504 184.436 105.224C184.24 104.944 183.96 104.748 183.652 104.58C183.344 104.44 183.036 104.3 182.784 104.076C182.504 103.824 182.336 103.488 182.14 103.152C181.888 102.676 181.16 103.096 181.412 103.572C181.748 104.216 182.168 104.804 182.84 105.14C183.092 105.28 183.428 105.364 183.624 105.588C183.82 105.84 183.848 106.204 183.988 106.484C184.128 106.792 184.38 107.016 184.688 107.156C185.024 107.324 185.248 107.52 185.5 107.772C185.752 108.024 186.032 108.22 186.368 108.332C186.704 108.444 187.236 108.472 187.348 108.78Z" fill="#DBCAC1"/>
<path d="M184.968 109.564C184.716 109.396 184.464 109.228 184.324 108.948C184.184 108.668 184.044 108.388 183.848 108.136C183.652 107.912 183.456 107.688 183.26 107.492C183.092 107.296 182.952 107.1 182.84 106.848C182.7 106.512 182.504 106.316 182.168 106.26C181.58 106.148 180.964 106.036 180.516 105.588C180.124 105.196 179.536 105.784 179.928 106.176C180.376 106.624 180.992 106.876 181.608 107.016C181.72 107.044 181.944 107.044 182.028 107.072C182.084 107.1 182.14 107.352 182.196 107.436C182.336 107.716 182.532 107.94 182.728 108.164C182.924 108.36 183.148 108.556 183.288 108.808C183.484 109.088 183.568 109.396 183.764 109.676C183.96 109.928 184.24 110.124 184.492 110.292C184.828 110.516 185.136 110.74 185.472 110.992C185.92 111.3 186.34 110.572 185.892 110.264C185.584 110.012 185.276 109.788 184.968 109.564Z" fill="#DBCAC1"/>
<path d="M168.728 102.984C169.176 103.18 169.652 103.404 170.072 103.684C170.52 103.964 170.828 104.356 171.164 104.776C171.836 105.644 172.76 106.316 173.572 107.016C174.44 107.772 175.28 108.528 176.148 109.256C176.96 109.928 177.828 110.376 178.892 110.46C179.424 110.516 179.424 109.676 178.892 109.62C177.8 109.536 177.044 108.92 176.26 108.248C175.42 107.52 174.608 106.82 173.768 106.092C173.348 105.728 172.928 105.364 172.508 105C172.144 104.664 171.836 104.3 171.528 103.908C170.912 103.124 170.044 102.704 169.148 102.312C168.644 102.032 168.224 102.76 168.728 102.984Z" fill="#DBCAC1"/>
<path d="M175.476 111.076C174.552 110.432 173.684 109.704 172.844 108.948C172.088 108.248 171.22 107.464 170.716 106.54C170.492 106.12 170.352 105.672 170.016 105.28C169.764 105 169.456 104.776 169.148 104.552C168.532 104.16 167.776 103.852 167.468 103.124C167.244 102.62 166.544 103.068 166.74 103.544C167.076 104.3 167.832 104.72 168.504 105.14C168.812 105.336 169.12 105.532 169.372 105.812C169.708 106.204 169.848 106.736 170.128 107.156C170.716 108.08 171.556 108.864 172.34 109.62C173.18 110.404 174.104 111.132 175.056 111.804C175.476 112.112 175.896 111.384 175.476 111.076Z" fill="#DBCAC1"/>
<path d="M112.196 63.84C112.476 64.372 113.092 64.624 113.68 64.484C114.24 64.372 114.744 63.896 114.828 63.308C114.912 62.664 114.604 62.02 114.044 61.684C113.428 61.32 112.476 61.432 112.224 62.216C112.196 62.272 112.196 62.328 112.224 62.384C111.944 62.832 111.944 63.364 112.196 63.84ZM113.736 63.532C113.764 63.532 113.764 63.504 113.736 63.532ZM113.96 63.252C113.988 63.252 113.988 63.224 113.96 63.252ZM113.96 62.832C113.96 62.804 113.932 62.804 113.96 62.832ZM113.54 62.384C113.54 62.384 113.512 62.384 113.484 62.356C113.54 62.384 113.54 62.384 113.54 62.384ZM113.12 62.356C113.148 62.328 113.176 62.328 113.204 62.328C113.232 62.328 113.232 62.328 113.232 62.328C113.26 62.328 113.316 62.328 113.344 62.328C113.372 62.328 113.372 62.328 113.4 62.356H113.428C113.456 62.356 113.456 62.384 113.484 62.384C113.512 62.412 113.568 62.44 113.596 62.468C113.596 62.496 113.624 62.496 113.652 62.496C113.68 62.524 113.708 62.552 113.764 62.608C113.792 62.636 113.792 62.664 113.82 62.692C113.848 62.72 113.876 62.776 113.876 62.804C113.876 62.832 113.876 62.86 113.876 62.86C113.876 62.86 113.904 62.916 113.904 62.972C113.904 63 113.904 63.028 113.904 63.084C113.904 63.084 113.904 63.112 113.904 63.14C113.904 63.14 113.876 63.224 113.876 63.252C113.876 63.28 113.848 63.28 113.848 63.308C113.848 63.336 113.82 63.336 113.82 63.364V63.392C113.792 63.42 113.764 63.448 113.736 63.476C113.708 63.504 113.708 63.504 113.68 63.532C113.652 63.56 113.596 63.588 113.596 63.588C113.568 63.616 113.54 63.616 113.54 63.616C113.512 63.644 113.456 63.644 113.4 63.644C113.4 63.644 113.372 63.644 113.344 63.644C113.316 63.644 113.26 63.644 113.232 63.644C113.204 63.644 113.176 63.644 113.176 63.616C113.148 63.616 113.148 63.588 113.12 63.588C113.092 63.56 113.064 63.56 113.036 63.532L113.008 63.504C113.008 63.476 112.98 63.476 112.98 63.448C112.952 63.42 112.924 63.364 112.896 63.336V63.308V63.28C112.896 63.224 112.868 63.196 112.868 63.14C112.868 63.112 112.868 63.084 112.868 63.084C112.868 63.056 112.868 63.028 112.868 63V62.972C112.868 62.944 112.868 62.916 112.896 62.888V62.86V62.832C112.896 62.804 112.924 62.804 112.924 62.804C113.008 62.692 113.064 62.552 113.036 62.412C113.036 62.412 113.036 62.412 113.036 62.384C113.036 62.384 113.064 62.384 113.064 62.356C113.092 62.356 113.092 62.356 113.12 62.356C113.092 62.356 113.092 62.356 113.12 62.356Z" fill="#DBCAC1"/>
<path d="M113.148 62.3561C113.12 62.3841 113.12 62.3561 113.148 62.3561Z" fill="#DBCAC1"/>
<path d="M118.468 66.4441C119.168 66.4161 119.644 65.8841 119.868 65.2681C119.98 64.9881 120.008 64.68 120.008 64.372C120.008 64.036 119.952 63.7001 119.728 63.4201C119.308 62.8881 118.524 62.9721 117.936 63.1401C117.824 63.1681 117.74 63.252 117.684 63.336C117.6 63.364 117.516 63.4201 117.46 63.5041C117.152 64.0641 116.9 64.7361 117.124 65.3801C117.32 65.9681 117.824 66.4721 118.468 66.4441ZM118.048 65.4081C118.076 65.4361 118.076 65.4081 118.048 65.4081ZM118.58 63.8681C118.636 63.8681 118.664 63.8681 118.72 63.8681C118.776 63.8681 118.804 63.8681 118.86 63.8681C118.888 63.8681 118.888 63.8681 118.916 63.8681C118.944 63.8681 119 63.896 119.028 63.896C119.056 63.896 119.056 63.9241 119.084 63.9241C119.084 63.9521 119.112 63.9521 119.14 63.9801C119.14 64.0081 119.168 64.036 119.168 64.036C119.168 64.036 119.168 64.0361 119.168 64.0641C119.168 64.0921 119.168 64.1201 119.196 64.1481C119.196 64.1761 119.196 64.1761 119.196 64.2041C119.196 64.2041 119.196 64.2321 119.196 64.2601C119.196 64.3721 119.196 64.4561 119.196 64.5681C119.196 64.5961 119.196 64.624 119.196 64.652C119.196 64.708 119.168 64.7641 119.168 64.8201C119.14 64.9321 119.112 65.0161 119.084 65.1281V65.156C119.084 65.184 119.056 65.2121 119.056 65.2401C119.056 65.2681 119.028 65.296 119.028 65.296C119.028 65.296 119 65.352 118.972 65.352C118.944 65.38 118.916 65.408 118.888 65.436C118.86 65.464 118.86 65.464 118.832 65.492C118.804 65.52 118.748 65.548 118.692 65.576H118.664C118.636 65.576 118.636 65.6041 118.608 65.6041H118.58H118.552C118.524 65.6041 118.496 65.6041 118.468 65.6041C118.44 65.6041 118.44 65.604 118.412 65.576C118.412 65.576 118.412 65.576 118.384 65.576C118.384 65.576 118.356 65.5761 118.356 65.5481C118.328 65.5201 118.3 65.5201 118.272 65.5201L118.244 65.492C118.216 65.464 118.188 65.4361 118.16 65.4081C118.16 65.3801 118.132 65.3521 118.104 65.3241C118.104 65.2961 118.076 65.2961 118.076 65.2681V65.2401C118.048 65.1841 118.048 65.1281 118.02 65.1001C118.02 65.0721 118.02 65.0441 118.02 65.0441C118.02 65.1001 118.02 65.072 118.02 65.016C118.02 64.96 118.02 64.8761 118.02 64.8201C118.02 64.7921 118.02 64.7921 118.02 64.7641V64.6801C118.048 64.5681 118.076 64.428 118.132 64.316V64.2881C118.16 64.2601 118.16 64.204 118.188 64.176C118.216 64.12 118.244 64.0641 118.3 63.9801C118.384 63.9521 118.468 63.9241 118.552 63.9241C118.496 63.8681 118.524 63.8681 118.58 63.8681Z" fill="#DBCAC1"/>
<path d="M122.332 66.78C122.64 66.836 122.976 66.836 123.284 66.724C123.564 66.64 123.872 66.472 124.068 66.22C124.264 65.968 124.376 65.688 124.404 65.38C124.432 65.1 124.376 64.82 124.264 64.568C124.124 64.26 123.844 64.064 123.536 63.952C123.172 63.84 122.78 63.868 122.416 63.952C122.024 64.036 121.604 64.288 121.632 64.736C121.632 64.792 121.66 64.848 121.688 64.904C121.632 65.016 121.576 65.1 121.548 65.212C121.492 65.352 121.464 65.492 121.436 65.632C121.408 65.856 121.38 66.08 121.492 66.304C121.604 66.584 121.996 66.724 122.332 66.78ZM123.088 64.736C123.116 64.736 123.116 64.736 123.144 64.736C123.032 64.736 123.144 64.736 123.172 64.736C123.2 64.736 123.228 64.764 123.256 64.764C123.256 64.764 123.312 64.792 123.34 64.82C123.312 64.792 123.312 64.792 123.368 64.82C123.368 64.848 123.396 64.848 123.396 64.848C123.396 64.848 123.396 64.848 123.396 64.82C123.396 64.848 123.424 64.876 123.452 64.876C123.452 64.904 123.48 64.904 123.48 64.932C123.48 64.932 123.48 64.932 123.48 64.904V64.932V64.96C123.48 64.988 123.508 65.016 123.508 65.044V65.072C123.508 65.1 123.508 65.1 123.508 65.1C123.508 65.128 123.508 65.156 123.508 65.212C123.508 65.24 123.508 65.24 123.508 65.268C123.508 65.296 123.508 65.352 123.48 65.38C123.48 65.408 123.48 65.408 123.452 65.436C123.452 65.436 123.452 65.436 123.452 65.464C123.452 65.492 123.452 65.492 123.424 65.492C123.424 65.52 123.396 65.548 123.396 65.576C123.396 65.576 123.396 65.576 123.396 65.604C123.396 65.604 123.396 65.632 123.368 65.632C123.368 65.632 123.368 65.632 123.368 65.66C123.34 65.688 123.312 65.716 123.284 65.744C123.284 65.744 123.284 65.744 123.256 65.772C123.228 65.772 123.228 65.8 123.2 65.8C123.144 65.828 123.116 65.856 123.06 65.884C123.032 65.884 123.004 65.912 122.976 65.912C122.92 65.94 122.864 65.94 122.808 65.94C122.808 65.94 122.724 65.94 122.78 65.94C122.724 65.94 122.64 65.94 122.584 65.94C122.584 65.94 122.472 65.912 122.444 65.94C122.416 65.94 122.388 65.94 122.36 65.912C122.304 65.912 122.248 65.884 122.192 65.856C122.164 65.856 122.164 65.856 122.136 65.828V65.8C122.136 65.688 122.192 65.548 122.22 65.436C122.22 65.408 122.248 65.38 122.248 65.352C122.248 65.324 122.276 65.324 122.276 65.324C122.304 65.268 122.332 65.212 122.36 65.156C122.388 65.128 122.388 65.1 122.416 65.072C122.416 65.044 122.444 65.044 122.444 65.016C122.472 64.988 122.472 64.988 122.444 65.044C122.472 64.988 122.556 64.932 122.584 64.876C122.64 64.82 122.668 64.764 122.696 64.68C122.752 64.68 122.808 64.68 122.836 64.68C122.976 64.708 123.032 64.708 123.088 64.736Z" fill="#DBCAC1"/>
<path d="M123.396 64.848C123.368 64.848 123.368 64.82 123.396 64.848Z" fill="#DBCAC1"/>
<path d="M123.396 65.66C123.424 65.66 123.424 65.66 123.396 65.66C123.424 65.632 123.424 65.632 123.396 65.66Z" fill="#DBCAC1"/>
<path d="M123.424 64.8761C123.452 64.9321 123.452 64.9041 123.424 64.8761Z" fill="#DBCAC1"/>
<path d="M123.48 65.548C123.48 65.548 123.48 65.52 123.508 65.52C123.48 65.548 123.48 65.548 123.48 65.548Z" fill="#DBCAC1"/>
<path d="M258.636 119.672C258.104 119.056 257.516 118.44 257.096 117.712C256.732 117.012 256.536 116.228 256.536 115.472C256.536 114.828 256.872 113.988 256.396 113.428C256.284 113.316 256.172 113.232 256.032 113.148C255.892 113.092 255.668 113.092 255.556 112.98C255.444 112.896 255.444 112.7 255.416 112.56C255.36 112.308 255.304 112.028 255.248 111.776C255.052 110.908 254.856 110.012 254.66 109.116C254.576 108.668 254.464 108.22 254.464 107.744C254.436 107.296 254.52 106.904 254.604 106.456C254.716 105.672 254.604 104.888 253.764 104.608C253.456 104.496 253.092 104.468 253.036 104.076C252.98 103.712 253.12 103.32 253.26 103.012C253.456 102.508 252.644 102.284 252.448 102.788C252.224 103.376 252.056 104.104 252.364 104.692C252.504 104.972 252.756 105.168 253.064 105.252C253.372 105.364 253.764 105.364 253.82 105.756C253.876 106.064 253.764 106.372 253.736 106.68C253.652 107.128 253.624 107.548 253.68 108.024C253.764 108.92 254.016 109.788 254.184 110.684C254.268 111.132 254.38 111.552 254.492 112C254.576 112.392 254.632 112.84 254.8 113.204C254.94 113.512 255.164 113.708 255.5 113.82C255.64 113.876 255.808 113.848 255.892 113.988C255.976 114.128 255.892 114.38 255.864 114.52C255.64 116.088 256.004 117.628 256.984 118.916C257.544 119.644 258.216 120.26 258.72 121.016C259.168 121.716 259.476 122.612 259.056 123.396C258.804 123.872 259.532 124.292 259.784 123.816C260.456 122.332 259.588 120.792 258.636 119.672Z" fill="#DBCAC1"/>
<path d="M253.96 121.604C253.652 120.96 253.484 120.288 253.26 119.616C253.036 118.888 252.784 118.16 252.588 117.432C252.504 117.096 252.42 116.732 252.42 116.396C252.42 116.06 252.476 115.724 252.448 115.36C252.42 115.052 252.308 114.772 252.084 114.576C251.888 114.38 251.608 114.296 251.58 113.96C251.552 113.68 251.636 113.372 251.636 113.092C251.636 112.756 251.58 112.476 251.412 112.168C251.244 111.916 251.048 111.72 251.048 111.384C251.048 111.048 251.16 110.74 251.216 110.432C251.356 109.704 251.272 109.06 250.852 108.444C250.516 107.94 249.76 107.184 250.152 106.54C250.432 106.064 249.704 105.644 249.424 106.12C249.088 106.708 249.2 107.38 249.508 107.94C249.788 108.5 250.404 108.976 250.46 109.62C250.544 110.264 250.18 110.852 250.208 111.496C250.236 111.804 250.348 112.084 250.516 112.364C250.712 112.672 250.824 112.868 250.796 113.232C250.768 113.848 250.684 114.436 251.188 114.884C251.44 115.108 251.664 115.192 251.664 115.556C251.664 115.92 251.608 116.256 251.636 116.62C251.692 117.376 251.944 118.104 252.168 118.832C252.392 119.532 252.588 120.26 252.84 120.988C253.092 121.716 253.4 122.416 253.876 123.004C254.24 123.452 254.94 123.9 254.968 124.544C254.968 125.076 255.808 125.076 255.808 124.544C255.808 123.928 255.472 123.452 255.08 123.032C254.632 122.612 254.24 122.164 253.96 121.604Z" fill="#DBCAC1"/>
<path d="M246.988 113.792C247.156 113.876 247.212 113.876 247.156 114.044C247.1 114.324 246.96 114.52 247.044 114.8C247.1 115.052 247.296 115.22 247.52 115.332C247.744 115.472 247.8 115.612 247.884 115.864C248.08 116.48 248.164 117.096 248.22 117.74C248.304 119.112 248.332 120.484 248.36 121.856C248.388 122.388 249.228 122.388 249.2 121.856C249.144 120.568 249.144 119.28 249.06 117.992C249.032 117.404 248.976 116.816 248.836 116.256C248.724 115.78 248.612 115.164 248.248 114.8C248.164 114.744 248.08 114.66 247.968 114.632C247.856 114.576 247.856 114.604 247.856 114.52C247.856 114.436 247.94 114.296 247.968 114.184C247.996 114.072 248.024 113.96 247.996 113.848C247.968 113.428 247.66 113.148 247.296 113.008C246.96 112.84 246.512 112.756 246.54 112.308C246.54 111.776 247.072 111.384 247.464 111.076C247.884 110.74 247.464 110.012 247.044 110.348C246.232 110.964 245.252 111.944 245.896 113.036C246.176 113.484 246.596 113.596 246.988 113.792Z" fill="#DBCAC1"/>
<path d="M244.86 122.808C245.392 122.808 245.392 121.996 244.888 121.968V121.94C244.888 121.884 244.888 121.828 244.916 121.772C244.972 121.604 245.112 121.436 245.196 121.24C245.336 120.904 245.336 120.568 245.168 120.232C245.028 119.924 244.776 119.672 244.636 119.336C244.468 118.972 244.524 118.552 244.468 118.16C244.44 117.992 244.412 117.824 244.328 117.656C244.244 117.488 244.104 117.32 244.02 117.152C243.936 116.9 244.188 116.564 244.244 116.312C244.328 115.948 244.244 115.612 243.992 115.332C243.74 115.08 243.376 114.912 243.46 114.464C243.544 113.932 242.76 113.708 242.648 114.24C242.564 114.688 242.648 115.136 242.928 115.5C243.04 115.64 243.292 115.752 243.376 115.92C243.46 116.06 243.376 116.2 243.32 116.34C243.18 116.732 243.04 117.096 243.208 117.488C243.292 117.712 243.488 117.88 243.544 118.104C243.6 118.3 243.6 118.524 243.628 118.748C243.656 119.168 243.74 119.588 243.964 119.952C244.188 120.288 244.524 120.596 244.328 121.044C244.16 121.408 243.936 121.744 244.02 122.164C244.16 122.5 244.468 122.808 244.86 122.808Z" fill="#DBCAC1"/>
<path d="M252.42 126.532C252 125.692 251.552 124.88 251.104 124.068C251.048 123.984 250.992 123.928 250.936 123.9C250.852 123.732 250.684 123.648 250.46 123.704C248.808 124.264 247.156 124.796 245.504 125.356C245.196 125.468 244.776 125.524 244.496 125.72C244.16 125.972 244.188 126.336 244.328 126.672C244.636 127.456 244.972 128.24 245.28 129.024C245.532 129.64 245.756 130.396 246.456 130.648C247.156 130.9 247.968 130.564 248.64 130.368C249.452 130.144 250.264 129.948 251.076 129.724C251.468 129.612 251.888 129.5 252.28 129.416C252.644 129.332 253.064 129.276 253.26 128.884C253.428 128.52 253.232 128.184 253.064 127.848C252.84 127.4 252.644 126.98 252.42 126.532Z" fill="#DBCAC1"/>
<path d="M237.468 125.776C237.384 125.328 237.412 124.852 237.328 124.404C237.272 123.956 237.048 123.76 236.712 123.48C236.572 123.368 236.6 123.312 236.656 123.116C236.712 122.92 236.768 122.752 236.796 122.556C236.824 122.192 236.684 121.884 236.432 121.604C236.32 121.492 236.18 121.408 236.068 121.296C236.012 121.268 235.844 121.1 235.844 121.1C235.872 120.876 235.788 120.652 235.564 120.568C235.368 120.512 235.088 120.624 235.06 120.848C235.004 121.212 235.116 121.464 235.34 121.744C235.508 121.912 235.872 122.08 235.956 122.332C236.04 122.612 235.788 123.032 235.788 123.312C235.788 123.48 235.844 123.676 235.928 123.816C236.04 124.012 236.236 124.068 236.376 124.208C236.6 124.432 236.516 124.908 236.544 125.216C236.572 125.72 236.712 126.224 236.852 126.7C237.076 127.568 237.328 128.548 236.796 129.332C236.488 129.78 237.216 130.2 237.524 129.752C238.028 128.996 238.028 128.072 237.86 127.204C237.748 126.756 237.58 126.28 237.468 125.776Z" fill="#DBCAC1"/>
<path d="M235.06 127.008C234.948 126.672 235.004 126.308 234.892 125.972C234.808 125.692 234.528 125.524 234.472 125.244C234.416 124.992 234.528 124.712 234.5 124.432C234.472 124.152 234.36 123.9 234.136 123.732C234.052 123.676 233.464 123.508 233.604 123.34C233.94 122.92 233.352 122.332 233.016 122.752C232.624 123.228 232.68 123.984 233.296 124.264C233.408 124.32 233.604 124.348 233.66 124.432C233.716 124.516 233.66 124.74 233.66 124.852C233.632 125.16 233.632 125.468 233.772 125.72C233.828 125.86 233.94 125.944 234.024 126.084C234.136 126.224 234.136 126.392 234.164 126.56C234.192 126.924 234.276 127.26 234.416 127.596C234.724 128.38 234.752 129.164 234.528 129.976C234.388 130.508 235.172 130.704 235.34 130.2C235.536 129.5 235.592 128.744 235.424 128.016C235.34 127.68 235.172 127.344 235.06 127.008Z" fill="#DBCAC1"/>
<path d="M231.56 123.396C231.532 123.172 231.252 123.06 231.056 123.116C230.804 123.172 230.72 123.396 230.776 123.648C231.14 126.28 231.504 128.884 232.26 131.432C232.4 131.964 233.212 131.74 233.072 131.208C232.26 128.66 231.924 126.028 231.56 123.396Z" fill="#DBCAC1"/>
<path d="M227.696 127.148C227.836 127.092 227.976 127.036 228.088 126.98C228.144 126.952 228.2 126.924 228.228 126.924C228.256 126.924 228.284 126.896 228.312 126.896C228.34 126.896 228.34 126.896 228.312 126.896C228.424 126.868 228.508 126.812 228.62 126.784H228.648C228.676 126.784 228.704 126.784 228.704 126.784C228.732 126.784 228.732 126.784 228.76 126.784C228.76 126.784 228.76 126.784 228.788 126.784C229.124 126.84 229.376 126.588 229.292 126.252C229.18 125.692 229.068 125.16 228.956 124.6C228.928 124.46 228.788 124.32 228.62 124.292C228.564 124.236 228.452 124.18 228.368 124.208C227.864 124.264 227.332 124.32 226.884 124.572C226.464 124.796 226.156 125.16 226.044 125.636C225.96 126.084 226.016 126.56 226.352 126.896C226.716 127.26 227.248 127.288 227.696 127.148ZM228.676 126.756H228.704C228.676 126.756 228.676 126.756 228.676 126.756ZM227.164 125.412C227.192 125.412 227.192 125.384 227.164 125.412ZM226.94 125.692C226.968 125.636 226.968 125.636 226.968 125.664V125.636C226.968 125.608 226.996 125.58 227.024 125.552L227.052 125.524C227.08 125.496 227.136 125.468 227.164 125.412C227.192 125.412 227.22 125.384 227.22 125.356C227.276 125.328 227.304 125.3 227.36 125.272C227.388 125.272 227.388 125.244 227.416 125.244C227.528 125.216 227.64 125.16 227.752 125.132C227.864 125.104 227.976 125.076 228.116 125.076C228.144 125.076 228.172 125.076 228.2 125.076C228.2 125.076 228.2 125.076 228.228 125.076L228.424 125.972C228.2 126.028 227.976 126.112 227.78 126.196C227.724 126.224 227.696 126.224 227.64 126.252H227.612C227.528 126.28 227.444 126.308 227.36 126.336C227.332 126.336 227.332 126.336 227.304 126.336C227.304 126.336 227.304 126.336 227.276 126.336C227.248 126.336 227.248 126.336 227.276 126.336C227.248 126.336 227.22 126.336 227.22 126.336C227.192 126.336 227.192 126.336 227.164 126.336C227.136 126.336 227.108 126.336 227.108 126.308C227.108 126.308 227.108 126.308 227.08 126.308C227.108 126.308 227.052 126.28 227.024 126.28C227.024 126.28 226.996 126.28 226.996 126.252C226.996 126.252 226.996 126.252 226.968 126.224C226.968 126.196 226.94 126.14 226.912 126.112C226.912 126.112 226.912 126.112 226.912 126.084C226.912 126.056 226.884 126 226.884 125.972C226.884 125.972 226.884 125.972 226.884 125.944C226.884 125.916 226.884 125.86 226.884 125.804C226.884 125.804 226.884 125.804 226.884 125.776C226.884 125.748 226.912 125.692 226.912 125.664C226.912 125.748 226.94 125.72 226.94 125.692Z" fill="#DBCAC1"/>
<path d="M227.612 126.28C227.64 126.252 227.64 126.252 227.612 126.28Z" fill="#DBCAC1"/>
<path d="M226.968 125.664C226.968 125.664 226.968 125.692 226.94 125.692L226.968 125.664Z" fill="#DBCAC1"/>
<path d="M222.376 127.232C222.376 127.26 222.376 127.26 222.404 127.26C222.404 127.26 222.376 127.26 222.376 127.232Z" fill="#DBCAC1"/>
<path d="M223.188 128.464C223.72 128.464 224.364 128.24 224.588 127.708C224.868 127.148 224.644 126.392 224.028 126.168C223.972 126.14 223.888 126.14 223.832 126.168C223.244 126 222.572 125.86 222.04 126.28C221.76 126.476 221.592 126.756 221.536 127.092C221.508 127.372 221.62 127.652 221.788 127.876C222.124 128.296 222.684 128.492 223.188 128.464ZM223.86 127.26C223.86 127.316 223.86 127.288 223.86 127.26ZM222.6 126.896C222.656 126.868 222.684 126.868 222.74 126.868C222.768 126.868 222.796 126.868 222.852 126.868C222.908 126.868 222.992 126.868 223.048 126.868C223.02 126.868 222.964 126.868 223.048 126.868C223.104 126.868 223.132 126.868 223.16 126.896C223.3 126.924 223.44 126.952 223.58 127.008C223.636 127.036 223.692 127.036 223.748 127.008C223.748 127.008 223.748 127.036 223.776 127.036C223.776 127.036 223.776 127.008 223.776 127.064V127.092V127.12C223.776 127.12 223.776 127.12 223.776 127.092V127.12C223.776 127.148 223.776 127.148 223.776 127.148C223.776 127.176 223.776 127.176 223.776 127.204V127.232C223.776 127.232 223.776 127.288 223.748 127.316V127.344L223.72 127.372C223.72 127.372 223.692 127.4 223.664 127.428C223.664 127.428 223.664 127.428 223.636 127.456C223.636 127.456 223.636 127.456 223.608 127.456C223.58 127.484 223.552 127.484 223.524 127.512C223.524 127.512 223.496 127.512 223.468 127.54C223.412 127.54 223.384 127.568 223.328 127.568C223.272 127.568 223.244 127.596 223.188 127.596C223.16 127.596 223.104 127.596 223.104 127.596C223.02 127.596 222.936 127.596 222.852 127.596H222.824C222.768 127.596 222.74 127.568 222.684 127.568C222.656 127.568 222.628 127.54 222.628 127.54C222.6 127.54 222.572 127.512 222.544 127.484C222.516 127.456 222.46 127.428 222.432 127.428C222.404 127.428 222.404 127.4 222.404 127.4C222.404 127.4 222.376 127.372 222.348 127.344C222.348 127.316 222.32 127.316 222.32 127.288V127.26V127.232C222.32 127.204 222.32 127.204 222.32 127.176C222.32 127.148 222.32 127.148 222.32 127.148C222.32 127.148 222.32 127.12 222.348 127.12C222.348 127.092 222.376 127.092 222.376 127.092C222.404 127.064 222.404 127.064 222.432 127.036C222.46 127.036 222.488 127.008 222.488 127.008C222.572 126.924 222.572 126.924 222.6 126.896Z" fill="#DBCAC1"/>
<path d="M218.176 129.472C218.848 129.836 219.688 129.808 220.36 129.416C220.5 129.332 220.612 129.108 220.556 128.94C220.36 128.492 220.276 128.044 220.276 127.568C220.276 127.344 220.08 127.148 219.856 127.148C219.744 127.148 219.632 127.204 219.548 127.288C219.464 127.232 219.38 127.176 219.268 127.176C218.652 127.092 218.008 127.148 217.42 127.316C217.252 127.372 217.084 127.54 217.112 127.736C217.14 128.436 217.532 129.108 218.176 129.472ZM219.24 127.988C219.296 127.988 219.38 127.988 219.436 127.932C219.464 128.212 219.52 128.52 219.604 128.8C219.548 128.828 219.464 128.828 219.408 128.856H219.38C219.38 128.856 219.38 128.856 219.352 128.856C219.324 128.856 219.296 128.856 219.268 128.856C219.212 128.856 219.128 128.856 219.072 128.856H219.044C219.044 128.856 219.044 128.856 219.016 128.856C218.988 128.856 218.96 128.856 218.932 128.828C218.876 128.828 218.792 128.8 218.736 128.772H218.708C218.708 128.772 218.708 128.772 218.68 128.772C218.652 128.772 218.624 128.744 218.596 128.716C218.54 128.688 218.484 128.66 218.428 128.604C218.4 128.576 218.372 128.576 218.344 128.548C218.288 128.492 218.26 128.464 218.204 128.408L218.176 128.38C218.176 128.352 218.148 128.352 218.12 128.324C218.092 128.268 218.064 128.212 218.036 128.156C218.036 128.128 218.008 128.1 218.008 128.1C218.008 128.1 218.008 128.072 217.98 128.044C218.4 127.96 218.82 127.932 219.24 127.988Z" fill="#DBCAC1"/>
<path d="M220.388 131.348C220.416 131.264 220.444 131.152 220.416 131.068C220.36 130.844 220.136 130.732 219.912 130.788C219.464 130.872 219.38 131.404 219.576 131.74C219.688 131.936 219.856 132.02 220.052 132.104C220.22 132.188 220.192 132.3 220.192 132.496C220.304 133.504 220.416 134.512 220.528 135.548C220.556 135.772 220.696 135.968 220.948 135.968C221.144 135.968 221.396 135.772 221.368 135.548C221.284 134.68 221.172 133.812 221.088 132.944C221.032 132.552 221.06 132.076 220.864 131.74C220.78 131.572 220.612 131.46 220.444 131.404C220.416 131.376 220.388 131.348 220.388 131.348ZM220.108 131.572C220.192 131.572 220.248 131.516 220.304 131.46C220.332 131.516 220.304 131.544 220.108 131.572Z" fill="#DBCAC1"/>
<path d="M224.448 129.444C223.608 129.948 223.916 130.984 224.224 131.712C224.672 132.832 225.12 133.924 225.568 135.016C225.652 135.24 225.848 135.38 226.072 135.296C226.268 135.24 226.436 134.988 226.352 134.764C225.96 133.812 225.596 132.86 225.204 131.936C225.036 131.544 224.868 131.152 224.756 130.732C224.7 130.536 224.644 130.228 224.84 130.116C225.344 129.892 224.924 129.164 224.448 129.444Z" fill="#DBCAC1"/>
<path d="M228.984 129.304C229.012 129.248 229.04 129.164 229.068 129.136C229.208 128.968 229.236 128.716 229.068 128.548C228.928 128.408 228.62 128.38 228.48 128.548C228.2 128.912 228.088 129.332 228.172 129.78C228.228 130.004 228.48 130.116 228.676 130.06C228.62 130.06 228.676 130.06 228.704 130.116C228.732 130.172 228.732 130.228 228.732 130.284C228.732 130.452 228.704 130.592 228.676 130.76C228.62 131.124 228.62 131.488 228.676 131.88C228.76 132.608 229.012 133.308 229.432 133.896C229.572 134.092 229.796 134.176 229.992 134.036C230.188 133.924 230.272 133.644 230.132 133.476C229.656 132.804 229.404 131.992 229.46 131.152C229.488 130.732 229.656 130.284 229.488 129.864C229.404 129.612 229.208 129.388 228.984 129.304Z" fill="#DBCAC1"/>
<path d="M200.648 133.84C200.872 133.616 200.928 133.28 200.984 132.972C201.012 132.832 201.012 132.692 201.04 132.552C201.04 132.496 201.068 132.44 201.068 132.412C201.068 132.412 201.068 132.412 201.096 132.412C201.628 132.272 201.404 131.488 200.872 131.6C200.116 131.768 200.284 132.552 200.116 133.14C200.06 133.308 199.976 133.308 199.836 133.42C199.668 133.532 199.528 133.644 199.444 133.84C199.248 134.232 199.36 134.652 199.388 135.044C199.472 135.828 198.744 136.276 198.38 136.892C198.156 137.256 198.1 137.648 198.1 138.068C198.1 138.404 198.24 138.88 197.932 139.104C197.512 139.44 198.1 140.028 198.52 139.692C199.22 139.132 198.744 138.292 198.968 137.564C199.192 136.864 199.892 136.444 200.144 135.744C200.284 135.352 200.2 134.988 200.172 134.624C200.172 134.484 200.116 134.288 200.2 134.176C200.284 134.036 200.536 133.98 200.648 133.84Z" fill="#DBCAC1"/>
<path d="M201.46 139.916C201.88 139.244 202.188 138.516 202.384 137.732C202.468 137.368 202.524 136.976 202.58 136.584C202.608 136.248 202.636 136.024 202.972 135.884C203.532 135.632 204.064 135.436 204.12 134.736C204.148 134.344 204.036 133.952 204.12 133.56C204.176 133.168 204.344 132.776 204.54 132.44C204.82 131.992 204.092 131.572 203.812 132.02C203.392 132.664 203.196 133.448 203.252 134.232C203.28 134.568 203.364 134.792 203.028 134.96C202.776 135.072 202.496 135.156 202.272 135.324C201.684 135.772 201.796 136.556 201.656 137.2C201.488 138.012 201.18 138.768 200.76 139.468C200.452 139.944 201.18 140.364 201.46 139.916Z" fill="#DBCAC1"/>
<path d="M206.276 135.492C206.22 135.8 206.192 136.108 206.108 136.416C206.024 136.696 205.884 136.976 205.8 137.256C205.604 137.788 205.464 138.348 205.716 138.908C205.8 139.132 205.996 139.272 206.22 139.188C206.416 139.132 206.612 138.88 206.5 138.656C206.276 138.096 206.556 137.564 206.752 137.032C206.864 136.752 206.948 136.472 207.004 136.164C207.06 135.828 207.06 135.52 207.228 135.212C207.508 134.652 207.844 134.148 207.956 133.504C208.068 132.888 208.04 132.272 207.9 131.656C207.76 131.124 206.948 131.348 207.088 131.88C207.256 132.496 207.228 133.112 207.032 133.728C206.864 134.4 206.388 134.876 206.276 135.492Z" fill="#DBCAC1"/>
<path d="M209.524 139.44C210.056 139.72 210.896 139.524 211.428 139.412C212.128 139.272 212.772 139.048 213.416 138.768C213.668 138.656 213.976 138.516 214.172 138.292C214.396 138.04 214.424 137.676 214.452 137.34C214.536 136.556 214.62 135.772 214.704 134.988C214.872 133.196 214.984 131.376 215.04 129.584C215.04 129.304 214.76 129.136 214.508 129.164C213.276 129.416 212.1 129.836 211.008 130.424C210.728 130.396 210.42 130.396 210.112 130.452C209.972 130.48 209.86 130.62 209.832 130.732C209.496 132.244 209.272 133.784 209.132 135.324C209.076 136.08 209.048 136.864 209.048 137.62C209.048 138.236 208.908 139.104 209.524 139.44Z" fill="#DBCAC1"/>
<path d="M119.42 127.904C120.512 127.008 121.604 126.14 122.836 125.412C123.312 125.132 122.892 124.404 122.416 124.684C120.232 125.944 118.328 127.708 116.424 129.36C114.436 131.068 112.476 132.776 110.292 134.232C109.116 135.016 107.884 135.688 106.596 136.304C106.12 136.528 106.54 137.256 107.016 137.032C109.284 135.94 111.412 134.596 113.372 133.028C115.416 131.404 117.376 129.612 119.42 127.904Z" fill="#DBCAC1"/>
<path d="M123.396 123.928C123.508 123.956 123.62 123.956 123.732 123.9L124.628 123.256C124.712 123.2 124.796 123.116 124.824 123.004C124.852 122.892 124.824 122.78 124.796 122.668C124.74 122.584 124.656 122.5 124.544 122.472C124.432 122.444 124.32 122.444 124.208 122.5L123.312 123.144C123.228 123.2 123.144 123.284 123.116 123.396C123.088 123.508 123.116 123.62 123.144 123.732C123.2 123.816 123.284 123.9 123.396 123.928Z" fill="#DBCAC1"/>
<path d="M114.716 135.352C115.136 135.128 115.612 134.988 116.032 134.736C116.452 134.484 116.648 134.092 116.956 133.728C117.264 133.336 117.656 133.028 118.048 132.72C118.888 131.992 119.756 131.292 120.736 130.704C121.212 130.424 120.792 129.696 120.316 129.976C119.392 130.536 118.524 131.208 117.712 131.908C117.32 132.244 116.928 132.552 116.564 132.916C116.228 133.252 116.032 133.756 115.612 134.008C115.22 134.26 114.772 134.4 114.352 134.596C113.876 134.848 113.4 135.128 112.952 135.436C111.944 136.052 110.964 136.696 109.984 137.34C109.536 137.648 109.956 138.376 110.404 138.068C111.356 137.424 112.336 136.78 113.316 136.192C113.764 135.912 114.24 135.604 114.716 135.352Z" fill="#DBCAC1"/>
<path d="M123.06 129.276C123.956 128.52 124.852 127.764 125.748 126.98C126.588 126.252 127.456 125.552 128.38 124.936C128.828 124.656 128.408 123.928 127.96 124.208C126.98 124.824 126.112 125.58 125.216 126.308C124.292 127.092 123.368 127.876 122.444 128.66C122.052 129.024 122.64 129.612 123.06 129.276Z" fill="#DBCAC1"/>
<path d="M119.168 138.32C119.616 137.956 119.98 137.536 120.372 137.144C121.24 136.276 122.22 135.492 123.172 134.708C124.208 133.84 125.244 133 126.28 132.132C126.7 131.796 126.112 131.18 125.692 131.544L122.696 134.036C121.772 134.792 120.848 135.548 119.98 136.388C119.56 136.78 119.196 137.228 118.776 137.592C118.328 137.984 117.796 138.236 117.236 138.432C116.004 138.88 114.8 139.3 113.568 139.748C113.064 139.916 113.288 140.728 113.792 140.56C115.052 140.112 116.312 139.664 117.572 139.188C118.16 138.964 118.692 138.712 119.168 138.32Z" fill="#DBCAC1"/>
<path d="M128.492 130.564C129.388 129.696 130.34 128.884 131.348 128.128C131.516 127.988 131.628 127.764 131.488 127.568C131.376 127.4 131.096 127.288 130.928 127.428C129.864 128.24 128.856 129.08 127.904 130.004C127.736 130.172 127.736 130.452 127.904 130.592C128.072 130.732 128.324 130.732 128.492 130.564Z" fill="#DBCAC1"/>
<path d="M124.32 138.292C126.364 136.724 128.408 135.072 130.088 133.112C130.844 132.216 131.544 130.984 132.776 130.732C133.308 130.62 133.084 129.808 132.552 129.92C131.46 130.172 130.704 131.012 130.06 131.852C129.248 132.832 128.408 133.784 127.484 134.652C125.468 136.5 123.256 138.124 121.072 139.776C119.84 140.7 118.664 141.68 117.292 142.38C116.816 142.632 117.236 143.36 117.712 143.108C118.888 142.492 119.924 141.68 120.988 140.868C122.08 140 123.228 139.16 124.32 138.292Z" fill="#DBCAC1"/>
<path d="M124.544 141.176C124.432 141.008 124.152 140.896 123.984 141.036C122.864 141.876 121.716 142.716 120.568 143.528C120.372 143.668 120.288 143.892 120.428 144.088C120.54 144.284 120.82 144.368 120.988 144.228C122.136 143.416 123.284 142.576 124.404 141.736C124.572 141.596 124.656 141.372 124.544 141.176Z" fill="#DBCAC1"/>
<path d="M134.792 131.684C133.504 132.944 132.216 134.232 130.9 135.492C129.668 136.696 128.408 137.872 127.008 138.88C126.588 139.188 127.008 139.916 127.428 139.608C130.34 137.48 132.804 134.792 135.38 132.272C135.744 131.908 135.156 131.32 134.792 131.684Z" fill="#DBCAC1"/>
<path d="M127.512 143.388C127.456 143.192 127.204 142.996 126.98 143.108C125.692 143.612 124.6 144.452 123.788 145.544C123.648 145.74 123.76 146.02 123.928 146.104C124.152 146.244 124.376 146.132 124.488 145.964C124.628 145.768 124.852 145.516 125.048 145.32C125.16 145.208 125.272 145.096 125.384 145.012C125.44 144.956 125.496 144.928 125.552 144.872C125.58 144.844 125.608 144.816 125.636 144.788C125.636 144.788 125.664 144.76 125.692 144.76C126.14 144.424 126.7 144.088 127.204 143.892C127.428 143.836 127.596 143.64 127.512 143.388Z" fill="#DBCAC1"/>
<path d="M133.56 139.3C133.924 139.076 134.12 138.74 134.288 138.348C134.68 137.508 135.464 136.948 136.192 136.388C136.948 135.8 137.76 135.24 138.572 134.736C139.02 134.456 138.6 133.728 138.152 134.008C137.284 134.512 136.472 135.1 135.688 135.716C134.96 136.276 134.064 136.892 133.644 137.732C133.56 137.9 133.476 138.124 133.364 138.292C133.224 138.516 133.084 138.6 132.86 138.712C132.44 138.908 132.048 139.132 131.684 139.412C130.956 139.944 130.312 140.588 129.78 141.316C129.472 141.764 130.2 142.184 130.508 141.736C131.012 141.036 131.656 140.42 132.384 139.944C132.776 139.692 133.196 139.524 133.56 139.3Z" fill="#DBCAC1"/>
<path d="M129.276 145.152C128.66 145.376 128.156 145.908 127.764 146.412C127.708 146.496 127.708 146.58 127.708 146.692C127.596 146.692 127.456 146.72 127.4 146.804C127.26 146.972 127.232 147.224 127.4 147.392C127.82 147.812 128.324 148.148 128.94 148.232C129.5 148.288 130.06 148.092 130.396 147.644C130.76 147.196 130.9 146.58 130.704 146.048C130.508 145.46 129.948 144.9 129.276 145.152ZM129.892 146.888C129.892 146.944 129.892 146.916 129.892 146.888ZM129.948 146.692C129.948 146.72 129.948 146.72 129.948 146.692C129.948 146.72 129.948 146.72 129.948 146.72V146.748C129.948 146.804 129.92 146.832 129.92 146.888C129.92 146.916 129.892 146.916 129.892 146.944C129.864 147 129.836 147.028 129.808 147.084C129.808 147.084 129.78 147.14 129.752 147.14C129.724 147.168 129.696 147.196 129.668 147.224L129.64 147.252C129.612 147.28 129.556 147.308 129.5 147.336C129.5 147.336 129.472 147.336 129.472 147.364C129.444 147.364 129.388 147.392 129.332 147.392H129.304H129.276C129.22 147.392 129.164 147.392 129.08 147.392H129.052H128.996C128.94 147.392 128.884 147.364 128.828 147.336C128.8 147.336 128.772 147.308 128.744 147.308C128.744 147.308 128.744 147.308 128.716 147.308C128.66 147.28 128.604 147.252 128.576 147.224C128.52 147.196 128.464 147.168 128.436 147.14C128.408 147.112 128.38 147.112 128.38 147.084C128.38 147.084 128.352 147.084 128.352 147.056L128.324 147.028C128.436 147 128.52 146.944 128.576 146.832C128.604 146.804 128.604 146.776 128.632 146.776C128.632 146.776 128.632 146.776 128.66 146.748C128.66 146.748 128.688 146.72 128.688 146.692C128.688 146.664 128.716 146.664 128.716 146.636C128.8 146.552 128.856 146.468 128.94 146.384C128.996 146.328 129.08 146.244 129.164 146.188C129.164 146.188 129.22 146.132 129.248 146.132C129.304 146.104 129.332 146.076 129.388 146.048C129.416 146.02 129.472 145.992 129.528 145.964C129.556 145.964 129.584 145.936 129.612 145.908H129.64C129.668 145.908 129.668 145.908 129.696 145.908C129.696 145.908 129.724 145.908 129.724 145.936L129.752 145.964C129.78 145.992 129.808 146.02 129.836 146.048C129.836 146.076 129.864 146.076 129.864 146.104C129.892 146.132 129.892 146.188 129.92 146.216C129.92 146.216 129.948 146.3 129.948 146.328C129.948 146.384 129.976 146.412 129.976 146.468C129.976 146.496 129.976 146.524 129.976 146.524C129.948 146.608 129.948 146.664 129.948 146.692Z" fill="#DBCAC1"/>
<path d="M137.9 140.364C138.18 139.888 137.452 139.468 137.172 139.944C136.724 140.7 135.912 141.176 135.212 141.652C134.82 141.904 134.456 142.184 134.12 142.492C133.756 142.856 133.448 143.304 133.028 143.612C132.86 143.752 132.748 143.976 132.888 144.172C133 144.34 133.28 144.452 133.448 144.312C133.896 143.976 134.232 143.528 134.652 143.136C134.988 142.8 135.38 142.548 135.772 142.296C136.528 141.764 137.368 141.232 137.9 140.364Z" fill="#DBCAC1"/>
<path d="M133.644 148.848C133.644 148.82 133.616 148.82 133.616 148.82C133.616 148.82 133.616 148.848 133.644 148.848Z" fill="#DBCAC1"/>
<path d="M133.476 147.896C133.308 147.896 133.168 148.008 133.084 148.148C133.084 148.036 133.056 147.924 132.972 147.84C132.804 147.672 132.552 147.7 132.384 147.84C131.964 148.176 131.544 148.596 131.432 149.128C131.376 149.436 131.404 149.744 131.544 150.024C131.684 150.304 131.936 150.472 132.244 150.584C133.196 150.892 134.68 150.22 134.596 149.1C134.512 148.456 134.092 147.896 133.476 147.896ZM133.672 149.296C133.672 149.324 133.644 149.352 133.644 149.352L133.616 149.408C133.616 149.408 133.588 149.436 133.588 149.464C133.56 149.492 133.532 149.52 133.532 149.52C133.504 149.548 133.476 149.548 133.448 149.576C133.42 149.604 133.392 149.632 133.336 149.632C133.308 149.632 133.308 149.66 133.28 149.66C133.196 149.688 133.112 149.716 133 149.744C132.972 149.744 132.86 149.744 132.972 149.744C132.944 149.744 132.888 149.744 132.86 149.744C132.804 149.744 132.748 149.744 132.72 149.744C132.692 149.744 132.664 149.744 132.664 149.744C132.664 149.744 132.664 149.744 132.636 149.744C132.58 149.744 132.552 149.716 132.496 149.716L132.468 149.688C132.468 149.688 132.468 149.688 132.44 149.688C132.44 149.688 132.44 149.688 132.412 149.688C132.412 149.688 132.412 149.688 132.384 149.688L132.356 149.66C132.356 149.66 132.356 149.66 132.356 149.632C132.356 149.632 132.328 149.604 132.328 149.576C132.328 149.548 132.3 149.52 132.3 149.464C132.3 149.436 132.3 149.436 132.3 149.408C132.3 149.38 132.3 149.352 132.3 149.352C132.3 149.352 132.3 149.324 132.3 149.296C132.3 149.268 132.3 149.268 132.3 149.324C132.3 149.296 132.328 149.212 132.328 149.184C132.328 149.184 132.328 149.156 132.328 149.128V149.1C132.356 149.044 132.384 148.988 132.412 148.96C132.412 148.96 132.412 148.932 132.44 148.932C132.44 148.932 132.468 148.904 132.468 148.876C132.608 148.708 132.804 148.54 132.972 148.4C133 148.372 133.028 148.344 133.056 148.288C133.056 148.512 133.224 148.708 133.476 148.708C133.476 148.708 133.476 148.708 133.504 148.708C133.532 148.708 133.532 148.708 133.532 148.708C133.532 148.708 133.532 148.708 133.56 148.708H133.588C133.616 148.736 133.616 148.708 133.588 148.708C133.616 148.708 133.616 148.736 133.616 148.736C133.616 148.736 133.616 148.736 133.616 148.764C133.644 148.792 133.616 148.792 133.616 148.764C133.644 148.792 133.644 148.82 133.672 148.848C133.672 148.876 133.672 148.876 133.7 148.904C133.728 148.932 133.7 148.932 133.7 148.96C133.7 148.96 133.7 148.96 133.7 148.988C133.7 149.016 133.7 149.044 133.7 149.072V149.1C133.7 149.128 133.672 149.184 133.672 149.212V149.24C133.728 149.212 133.672 149.268 133.672 149.296ZM133.728 149.184C133.728 149.212 133.728 149.212 133.728 149.184Z" fill="#DBCAC1"/>
<path d="M139.944 142.94C139.468 143.08 139.02 143.332 138.656 143.668C138.488 143.836 138.32 144.004 138.18 144.2C138.04 144.396 137.928 144.62 137.76 144.788C137.452 145.124 136.976 145.236 136.612 145.488C136.192 145.796 135.856 146.188 135.828 146.748C135.828 147.28 136.668 147.28 136.668 146.748C136.668 146.44 137.004 146.216 137.256 146.076C137.648 145.852 138.068 145.684 138.376 145.32C138.656 144.984 138.824 144.592 139.16 144.284C139.44 144.004 139.776 143.836 140.14 143.724C140.7 143.612 140.476 142.8 139.944 142.94Z" fill="#DBCAC1"/>
<path d="M139.552 149.632C139.048 149.464 138.572 149.296 138.068 149.128C137.844 149.044 137.62 149.212 137.536 149.408C137.48 149.632 137.62 149.856 137.816 149.912C138.18 150.052 138.572 150.164 138.936 150.304C138.796 150.892 138.292 151.368 137.676 151.396C137.34 151.396 136.948 151.312 136.724 151.116C136.724 151.116 136.724 151.116 136.724 151.088C136.78 150.976 136.836 150.864 136.892 150.78C137.032 150.528 137.172 150.276 137.312 150.052C137.592 149.576 136.864 149.156 136.584 149.632C136.444 149.856 136.304 150.08 136.192 150.304C136.052 150.528 135.856 150.808 135.828 151.088C135.772 151.648 136.332 151.956 136.78 152.124C137.648 152.46 138.684 152.18 139.272 151.452C139.608 151.032 139.804 150.556 139.804 150.024C139.86 149.828 139.72 149.688 139.552 149.632Z" fill="#DBCAC1"/>
<path d="M142.464 147.504C142.548 147.448 142.66 147.448 142.772 147.42C142.996 147.392 143.192 147.336 143.36 147.196C143.668 146.972 143.836 146.664 144.004 146.328C144.088 146.188 144.144 146.048 144.228 145.908L144.256 145.88C144.284 145.852 144.312 145.824 144.34 145.796L144.368 145.768C144.396 145.74 144.452 145.712 144.48 145.712C144.676 145.628 144.732 145.32 144.62 145.152C144.508 144.928 144.256 144.9 144.06 145.012C143.724 145.18 143.5 145.488 143.332 145.796C143.248 145.936 143.164 146.104 143.08 146.244C143.052 146.272 143.052 146.3 143.024 146.356V146.384C143.024 146.384 143.024 146.384 143.024 146.412C142.996 146.44 142.968 146.468 142.94 146.496C142.94 146.496 142.884 146.524 142.884 146.552C142.856 146.552 142.856 146.58 142.828 146.58L142.716 146.608C142.604 146.636 142.464 146.636 142.352 146.664C142.072 146.72 141.876 146.888 141.68 147.084C141.288 147.476 140.924 147.896 140.532 148.316C140.168 148.708 140.756 149.296 141.12 148.904C141.484 148.512 141.848 148.12 142.24 147.728C142.296 147.644 142.38 147.56 142.464 147.504Z" fill="#DBCAC1"/>
<path d="M153.412 150.864C153.216 150.556 152.74 150.388 152.432 150.192C152.012 149.94 151.564 149.688 151.144 149.436C150.304 148.96 149.492 148.456 148.68 147.98C147.952 147.56 147.196 147.14 146.44 147.784C145.656 148.484 144.984 149.268 144.256 149.996C143.472 150.78 142.688 151.592 141.932 152.376C141.792 152.516 141.792 152.712 141.876 152.852C141.848 153.076 141.988 153.328 142.268 153.356C144.06 153.44 145.572 154.392 147.196 155.008C148.064 155.344 148.792 154.644 149.464 154.196C150.276 153.664 151.088 153.132 151.9 152.572C152.292 152.32 152.684 152.068 153.048 151.788C153.328 151.592 153.664 151.256 153.412 150.864Z" fill="#DBCAC1"/>
<path d="M148.652 146.44C148.736 146.384 148.792 146.328 148.876 146.272C148.904 146.3 148.932 146.328 148.96 146.356C149.884 147.084 150.808 147.812 151.732 148.54C152.488 149.128 153.3 149.968 154.364 149.856C154.868 149.8 155.316 149.548 155.708 149.24C156.184 148.904 156.66 148.54 157.136 148.204C158.116 147.504 159.096 146.776 160.076 146.076C160.272 145.936 160.384 145.6 160.16 145.404C158.34 143.892 156.296 142.66 154.084 141.764C153.496 141.54 153.16 141.848 152.684 142.212C152.18 142.604 151.676 142.996 151.172 143.388C150.136 144.2 149.072 145.012 148.036 145.824C147.644 146.188 148.232 146.776 148.652 146.44Z" fill="#DBCAC1"/>
<path d="M207.788 159.908C207.732 159.684 207.508 159.544 207.284 159.628C206.892 159.74 206.472 159.908 206.164 160.188C205.996 160.328 205.884 160.524 205.828 160.748C205.744 161 205.8 161.252 205.912 161.504C206.108 161.924 206.528 162.204 206.976 162.232C207.424 162.26 207.844 161.98 208.04 161.588C208.264 161.168 208.264 160.636 208.012 160.216C207.956 160.132 207.872 160.076 207.788 160.02C207.788 159.964 207.788 159.936 207.788 159.908ZM207.368 160.972V160.916C207.368 160.944 207.368 160.972 207.368 160.972ZM207.368 160.832C207.368 160.86 207.368 160.888 207.368 160.944C207.368 160.944 207.368 160.972 207.368 161V161.028C207.368 161.084 207.34 161.112 207.34 161.14V161.168C207.34 161.196 207.312 161.224 207.284 161.252C207.284 161.252 207.284 161.252 207.284 161.28C207.256 161.308 207.228 161.336 207.228 161.336C207.2 161.336 207.172 161.364 207.172 161.364H207.144H207.116C207.088 161.364 207.06 161.364 207.032 161.364C207.032 161.364 207.032 161.364 207.06 161.364H207.032C207.004 161.364 207.004 161.364 207.004 161.364C206.976 161.364 206.976 161.364 206.948 161.336C206.948 161.336 206.948 161.336 206.92 161.336C206.92 161.336 206.92 161.336 206.892 161.336C206.864 161.336 206.864 161.336 206.864 161.336C206.836 161.336 206.808 161.308 206.78 161.28C206.78 161.28 206.78 161.28 206.752 161.252C206.724 161.224 206.724 161.196 206.696 161.196L206.668 161.168C206.668 161.168 206.668 161.14 206.64 161.14C206.64 161.112 206.64 161.084 206.612 161.084V161.056V161.028C206.612 161 206.64 160.972 206.64 160.944V160.916C206.64 160.916 206.668 160.888 206.668 160.86C206.668 160.86 206.668 160.86 206.64 160.888C206.64 160.888 206.64 160.86 206.668 160.86C206.668 160.832 206.696 160.832 206.696 160.832L206.724 160.804L206.752 160.776C206.752 160.776 206.752 160.776 206.78 160.748C206.808 160.748 206.808 160.72 206.836 160.72C206.892 160.664 206.976 160.636 207.032 160.608C207.032 160.608 207.06 160.608 207.088 160.58C207.144 160.552 207.172 160.552 207.228 160.524C207.228 160.524 207.228 160.524 207.256 160.524C207.256 160.58 207.284 160.608 207.312 160.636C207.312 160.664 207.34 160.692 207.368 160.72C207.368 160.748 207.368 160.776 207.396 160.776C207.368 160.776 207.368 160.776 207.368 160.832C207.368 160.804 207.368 160.804 207.368 160.832V160.86C207.368 160.832 207.368 160.832 207.368 160.832Z" fill="#DBCAC1"/>
<path d="M206.808 160.72C206.78 160.72 206.78 160.748 206.78 160.748C206.78 160.748 206.78 160.748 206.808 160.72Z" fill="#DBCAC1"/>
<path d="M206.836 161.336C206.836 161.336 206.864 161.336 206.864 161.364C206.864 161.336 206.836 161.308 206.836 161.336Z" fill="#DBCAC1"/>
<path d="M231.504 173.096C230.72 172.928 229.964 172.788 229.18 172.62C228.9 172.564 228.564 172.536 228.34 172.34C228.116 172.144 227.976 171.864 227.724 171.64C227.248 171.22 226.632 171.08 226.016 170.884C225.316 170.688 224.644 170.492 223.944 170.268C222.712 169.904 221.48 169.568 220.332 168.98C219.8 168.7 219.268 168.364 218.848 167.944C218.428 167.552 218.092 167.048 217.672 166.628C217.196 166.124 216.636 165.816 215.936 165.704C215.516 165.62 214.256 165.508 214.508 164.78C214.62 164.472 214.284 164.192 214.004 164.276C213.304 164.472 212.52 164.108 212.268 163.408C212.212 163.24 212.044 163.072 211.848 163.1C211.344 163.156 210.84 163.1 210.336 162.96C209.804 162.82 209.58 163.632 210.112 163.772C210.588 163.912 211.092 163.968 211.596 163.94C212.016 164.696 212.828 165.172 213.668 165.144C213.752 165.508 214.004 165.872 214.312 166.096C214.872 166.488 215.6 166.432 216.216 166.628C216.804 166.824 217.196 167.356 217.56 167.804C217.98 168.308 218.428 168.756 218.988 169.148C220.08 169.904 221.34 170.352 222.6 170.744C223.3 170.968 224 171.164 224.728 171.36C225.4 171.556 226.184 171.696 226.828 172.032C227.164 172.2 227.332 172.48 227.584 172.76C227.836 173.04 228.144 173.208 228.536 173.292C229.432 173.488 230.328 173.656 231.252 173.852C231.812 174.02 232.036 173.208 231.504 173.096Z" fill="#DBCAC1"/>
<path d="M202.636 163.408C202.636 163.436 202.608 163.436 202.636 163.408C202.664 163.408 202.664 163.408 202.636 163.408Z" fill="#DBCAC1"/>
<path d="M203.364 163.632C203.336 163.66 203.336 163.688 203.336 163.66C203.336 163.66 203.364 163.66 203.364 163.632Z" fill="#DBCAC1"/>
<path d="M203.28 163.8C203.28 163.8 203.252 163.8 203.252 163.828L203.28 163.8Z" fill="#DBCAC1"/>
<path d="M202.384 164.752C202.776 164.92 203.252 164.892 203.588 164.612C203.98 164.332 204.232 163.884 204.232 163.38C204.232 163.156 204.036 162.96 203.812 162.96C203.588 162.96 203.392 163.156 203.392 163.38C203.392 163.408 203.392 163.436 203.392 163.464C203.392 163.464 203.392 163.464 203.392 163.492C203.392 163.52 203.364 163.548 203.364 163.576V163.604C203.364 163.632 203.364 163.632 203.336 163.632C203.308 163.66 203.308 163.716 203.28 163.744C203.28 163.744 203.28 163.744 203.28 163.772C203.28 163.772 203.28 163.772 203.28 163.8C203.252 163.828 203.252 163.856 203.224 163.856C203.196 163.884 203.168 163.884 203.168 163.912C203.196 163.884 203.196 163.884 203.196 163.884C203.196 163.884 203.168 163.912 203.14 163.94C203.112 163.94 203.084 163.968 203.056 163.996H203.028C203 163.996 202.972 164.024 202.944 164.024C202.916 164.024 202.888 164.024 202.86 164.024H202.832C202.804 164.024 202.776 164.024 202.748 163.996C202.72 163.996 202.692 163.968 202.664 163.94C202.664 163.94 202.636 163.94 202.636 163.912C202.608 163.884 202.608 163.884 202.58 163.856C202.58 163.856 202.58 163.828 202.552 163.828C202.552 163.8 202.524 163.772 202.496 163.772C202.496 163.772 202.496 163.772 202.496 163.744C202.496 163.744 202.496 163.744 202.496 163.716C202.496 163.688 202.468 163.66 202.496 163.716C202.496 163.688 202.468 163.66 202.468 163.66C202.468 163.632 202.468 163.632 202.468 163.604V163.576C202.468 163.576 202.496 163.548 202.496 163.52C202.524 163.492 202.524 163.464 202.552 163.464C202.58 163.464 202.58 163.436 202.608 163.436C202.608 163.436 202.608 163.436 202.636 163.408H202.664C202.664 163.408 202.664 163.408 202.636 163.408C202.664 163.408 202.664 163.408 202.692 163.38C202.692 163.38 202.692 163.38 202.72 163.38H202.748C202.748 163.38 202.776 163.38 202.776 163.408C202.972 163.52 203.252 163.464 203.336 163.268C203.448 163.072 203.392 162.82 203.196 162.708C202.86 162.484 202.384 162.54 202.076 162.764C201.712 163.016 201.488 163.436 201.572 163.884C201.684 164.276 202.02 164.612 202.384 164.752Z" fill="#DBCAC1"/>
<path d="M202.776 163.38C202.804 163.38 202.804 163.38 202.804 163.38C202.804 163.408 202.776 163.38 202.776 163.38Z" fill="#DBCAC1"/>
<path d="M208.068 167.384C207.9 167.328 207.9 167.16 207.816 166.992C207.704 166.796 207.564 166.656 207.34 166.572C207.144 166.488 206.948 166.488 206.752 166.544C206.64 166.572 206.556 166.6 206.444 166.628C206.388 166.628 206.36 166.656 206.304 166.656C206.416 166.32 205.94 165.956 205.576 166.236C205.184 166.544 205.324 167.132 205.716 167.384C205.94 167.524 206.192 167.524 206.444 167.496C206.612 167.468 206.92 167.3 207.06 167.412C207.144 167.468 207.172 167.664 207.2 167.748C207.256 167.832 207.312 167.916 207.368 167.972C207.536 168.14 207.788 168.224 208.012 168.252C208.348 168.308 208.796 168.14 209.02 168.476C209.3 168.924 209.692 169.148 210.168 169.372C210.756 169.652 211.316 169.932 211.904 170.24C212.996 170.828 214.06 171.472 215.068 172.2C215.516 172.508 215.936 171.78 215.488 171.472C214.592 170.856 213.668 170.268 212.716 169.736C212.24 169.484 211.764 169.232 211.288 168.98C210.868 168.756 210.28 168.616 209.916 168.28C209.776 168.14 209.692 167.944 209.58 167.804C209.44 167.664 209.3 167.552 209.104 167.496C208.768 167.384 208.376 167.496 208.068 167.384Z" fill="#DBCAC1"/>
<path d="M203.98 168.868C204.176 168.868 204.344 168.868 204.54 168.868C204.82 169.372 205.408 169.68 205.912 169.96C206.668 170.408 207.424 170.884 208.18 171.332C209.636 172.2 211.12 173.096 212.576 173.964C213.052 174.244 213.472 173.516 212.996 173.236C211.652 172.424 210.308 171.612 208.964 170.8C208.292 170.38 207.62 169.988 206.92 169.568C206.556 169.344 206.192 169.148 205.856 168.924C205.604 168.784 205.324 168.616 205.24 168.308C205.184 168.112 205.016 168 204.82 168C204.54 168 204.26 168 203.98 167.972C203.448 168 203.448 168.84 203.98 168.868Z" fill="#DBCAC1"/>
<path d="M224.364 176.428C224.028 176.288 223.692 176.148 223.356 175.952C222.992 175.728 222.74 175.364 222.348 175.168C221.956 174.972 221.48 174.972 221.088 174.748C220.668 174.524 220.444 174.216 220.192 173.852C219.884 173.432 219.492 173.348 219.016 173.236C218.456 173.124 217.924 173.012 217.392 172.9C216.86 172.788 216.636 173.6 217.168 173.712C217.672 173.824 218.176 173.908 218.68 174.02C218.876 174.076 219.156 174.076 219.352 174.16C219.548 174.272 219.66 174.496 219.772 174.664C219.996 174.972 220.304 175.252 220.64 175.448C221.032 175.672 221.424 175.728 221.844 175.84C222.208 175.952 222.46 176.316 222.768 176.54C223.048 176.736 223.384 176.876 223.692 177.016C224.28 177.268 224.98 177.492 225.344 178.08C225.624 178.556 226.352 178.136 226.072 177.66C225.68 177.044 225.036 176.708 224.364 176.428Z" fill="#DBCAC1"/>
<path d="M197.176 167.636C197.148 167.664 197.148 167.664 197.148 167.664C197.176 167.664 197.176 167.636 197.176 167.636Z" fill="#DBCAC1"/>
<path d="M197.316 168.308C197.344 168.308 197.344 168.336 197.344 168.336C197.344 168.336 197.344 168.336 197.316 168.308Z" fill="#DBCAC1"/>
<path d="M197.232 167.58C197.204 167.58 197.204 167.608 197.204 167.608C197.204 167.636 197.204 167.608 197.232 167.58Z" fill="#DBCAC1"/>
<path d="M197.568 168.448H197.596C197.596 168.42 197.596 168.42 197.568 168.448Z" fill="#DBCAC1"/>
<path d="M197.12 168.028C197.12 168.056 197.148 168.056 197.148 168.056C197.12 168.056 197.12 168.056 197.12 168.028Z" fill="#DBCAC1"/>
<path d="M198.716 167.16C198.66 167.16 198.604 167.16 198.548 167.188C198.52 167.132 198.492 167.076 198.464 167.048C197.848 166.292 196.42 166.712 196.28 167.664C196.196 168.224 196.448 168.756 196.924 169.064C197.372 169.372 197.96 169.372 198.408 169.064C198.884 168.756 199.22 168.168 199.136 167.58C199.108 167.468 199.108 167.356 199.024 167.272C198.94 167.188 198.8 167.132 198.716 167.16ZM197.792 167.552C197.848 167.58 197.82 167.552 197.792 167.552ZM197.624 167.468C197.708 167.496 197.652 167.496 197.624 167.468ZM198.268 167.86C198.268 167.916 198.24 167.944 198.24 168C198.24 168.028 198.212 168.028 198.212 168.056C198.184 168.084 198.184 168.112 198.156 168.14C198.156 168.14 198.128 168.168 198.128 168.196C198.1 168.224 198.072 168.252 198.044 168.28C198.044 168.28 198.016 168.308 197.988 168.308C197.96 168.336 197.932 168.336 197.904 168.364C197.876 168.364 197.876 168.392 197.848 168.392C197.792 168.392 197.764 168.42 197.708 168.42C197.68 168.42 197.68 168.42 197.652 168.42C197.652 168.42 197.624 168.42 197.596 168.42C197.596 168.42 197.596 168.42 197.568 168.42C197.54 168.42 197.54 168.42 197.512 168.42C197.484 168.42 197.484 168.42 197.456 168.392C197.428 168.364 197.372 168.336 197.344 168.336C197.344 168.336 197.344 168.336 197.316 168.336C197.316 168.336 197.316 168.336 197.288 168.336C197.26 168.308 197.232 168.28 197.204 168.252L197.176 168.224C197.148 168.196 197.12 168.14 197.12 168.112C197.12 168.112 197.12 168.112 197.12 168.084V168.056C197.12 168.028 197.092 168 197.092 167.972C197.092 167.972 197.092 167.972 197.092 167.944C197.092 167.916 197.092 167.916 197.092 167.916V167.888C197.092 167.86 197.092 167.86 197.092 167.832C197.092 167.804 197.12 167.776 197.12 167.748V167.72C197.12 167.72 197.12 167.692 197.148 167.692C197.148 167.664 197.176 167.664 197.176 167.664L197.204 167.636C197.204 167.636 197.204 167.636 197.204 167.608C197.204 167.608 197.204 167.608 197.232 167.58C197.26 167.552 197.288 167.552 197.316 167.524C197.316 167.524 197.344 167.524 197.344 167.496C197.372 167.496 197.4 167.468 197.428 167.468C197.456 167.468 197.456 167.468 197.484 167.468C197.512 167.468 197.54 167.468 197.568 167.468H197.596C197.624 167.468 197.652 167.496 197.68 167.496C197.68 167.496 197.68 167.496 197.652 167.496C197.652 167.496 197.68 167.496 197.68 167.524C197.68 167.552 197.708 167.524 197.708 167.524C197.708 167.524 197.736 167.524 197.736 167.552C197.764 167.58 197.792 167.608 197.82 167.636C197.904 167.748 198.1 167.776 198.24 167.748C198.24 167.776 198.24 167.804 198.24 167.832C198.296 167.832 198.296 167.86 198.268 167.86Z" fill="#DBCAC1"/>
<path d="M217.7 179.648C215.236 178.584 212.828 177.38 210.476 176.036C209.272 175.364 208.096 174.664 206.948 173.936C206.388 173.572 205.828 173.208 205.268 172.844C204.764 172.508 204.204 172.2 203.728 171.78C203.224 171.304 202.86 170.772 202.216 170.492C201.628 170.24 201.012 170.184 200.396 170.352C199.864 170.492 200.088 171.276 200.62 171.164C201.124 171.052 201.684 171.108 202.132 171.388C202.608 171.668 202.916 172.2 203.364 172.564C204.344 173.348 205.464 173.992 206.528 174.664C208.712 176.036 210.98 177.324 213.276 178.472C214.592 179.144 215.936 179.76 217.28 180.348C217.756 180.6 218.204 179.872 217.7 179.648Z" fill="#DBCAC1"/>
<path d="M209.608 177.856C209.048 177.604 208.488 177.352 207.9 177.072C207.368 176.848 206.78 176.624 206.36 176.232C205.996 175.868 205.66 175.532 205.184 175.308C204.764 175.14 204.232 175.084 203.868 174.804C203.476 174.524 203.364 173.964 203.084 173.572C202.804 173.208 202.468 172.872 202.076 172.62C201.264 172.116 200.312 171.836 199.388 171.724C199.164 171.696 198.94 171.78 198.884 172.004C198.828 172.2 198.94 172.48 199.164 172.508C200.088 172.648 201.04 172.872 201.824 173.432C202.16 173.684 202.44 174.02 202.636 174.412C202.86 174.86 203.112 175.28 203.532 175.56C203.924 175.812 204.4 175.868 204.82 176.036C205.324 176.204 205.576 176.624 205.94 176.932C206.388 177.324 206.948 177.52 207.48 177.772C208.04 178.024 208.6 178.276 209.188 178.556C209.664 178.808 210.112 178.08 209.608 177.856Z" fill="#DBCAC1"/>
<path d="M208.292 182.896C203.84 179.956 199.808 176.4 196.28 172.396C195.356 171.36 194.488 170.268 193.648 169.148C194.04 168.896 193.62 168.252 193.144 168.448C192.668 168.672 192.192 168.896 191.688 169.12C191.268 169.316 190.792 169.484 190.568 169.904C190.344 170.352 190.54 170.828 190.708 171.248C190.904 171.668 191.1 172.088 191.324 172.508C192.192 174.076 193.312 175.504 194.488 176.848C195.692 178.22 196.952 179.536 198.128 180.936C198.716 181.636 199.276 182.336 199.808 183.092C200.06 183.456 200.284 183.82 200.508 184.184C200.732 184.576 200.956 184.996 201.404 185.192C201.908 185.416 202.524 185.248 203.056 185.192C203.644 185.108 204.26 184.996 204.82 184.856C205.996 184.576 207.116 184.156 208.208 183.68C208.6 183.484 208.516 183.064 208.292 182.896Z" fill="#DBCAC1"/>
<path d="M193.844 179.62C193.032 179.004 192.444 178.164 192.164 177.212C192.108 177.072 192.024 176.96 191.884 176.932C191.324 176.82 191.044 176.232 190.848 175.756C190.624 175.224 190.372 174.692 189.896 174.328C189.7 174.188 189.42 174.048 189.392 173.768C189.364 173.488 189.42 173.208 189.28 172.928C189.14 172.676 188.916 172.508 188.692 172.368C188.524 172.256 188.076 172.088 188.132 171.836C188.272 171.304 187.46 171.08 187.32 171.612C187.096 172.424 187.824 172.76 188.356 173.152C188.664 173.376 188.524 173.684 188.58 173.992C188.636 174.328 188.86 174.58 189.14 174.804C189.42 175.028 189.644 175.196 189.812 175.504C189.98 175.784 190.092 176.12 190.232 176.428C190.484 176.96 190.876 177.492 191.436 177.688C191.828 178.78 192.5 179.676 193.424 180.376C193.872 180.656 194.292 179.928 193.844 179.62Z" fill="#DBCAC1"/>
<path d="M188.02 176.708C187.208 175.28 186.368 173.852 185.528 172.424C185.248 171.948 184.52 172.368 184.8 172.844C185.556 174.16 186.34 175.448 187.096 176.764C187.46 177.38 187.796 178.024 188.16 178.64C188.44 179.144 189.084 179.9 188.86 180.516C188.664 181.02 189.476 181.244 189.672 180.74C189.952 180.04 189.56 179.368 189.196 178.78C188.804 178.08 188.412 177.408 188.02 176.708Z" fill="#DBCAC1"/>
<path d="M184.24 177.576C184.044 176.988 183.848 176.4 183.652 175.84C183.568 175.56 183.456 175.308 183.428 175.028C183.428 174.748 183.484 174.496 183.456 174.216C183.428 174.02 183.344 173.852 183.148 173.796C183.036 173.768 182.98 173.684 183.008 173.572C183.148 173.04 182.336 172.816 182.196 173.348C182.084 173.768 182.252 174.216 182.616 174.468C182.616 174.636 182.56 174.832 182.588 175C182.588 175.28 182.672 175.532 182.756 175.812C182.952 176.428 183.176 177.044 183.372 177.688L184.632 181.384C184.8 181.888 185.612 181.664 185.444 181.16C185.052 179.956 184.66 178.78 184.24 177.576Z" fill="#DBCAC1"/>
<path d="M180.908 176.484C180.74 175.952 180.628 175.392 180.404 174.86C180.208 174.356 179.844 173.852 179.284 173.74C178.864 173.656 178.388 173.768 178.136 174.104C178.052 174.048 177.94 174.02 177.828 174.048C177.212 174.188 176.568 174.272 175.952 174.412C175.728 174.468 175.532 174.552 175.392 174.72C175.196 174.944 175.196 175.252 175.252 175.532C175.336 176.176 175.448 176.82 175.56 177.464C175.644 177.996 175.812 178.528 176.456 178.584C176.736 178.584 177.044 178.472 177.324 178.388C177.632 178.304 177.94 178.22 178.248 178.136C178.864 177.968 179.452 177.8 180.068 177.632C180.32 177.576 180.628 177.52 180.824 177.352C181.048 177.128 181.02 176.792 180.908 176.484Z" fill="#DBCAC1"/>
<path d="M173.544 179.34C173.768 179.088 173.74 178.752 173.684 178.416C173.544 177.66 173.376 176.876 173.208 176.12C173.208 176.092 173.208 176.092 173.18 176.064C173.292 175.784 173.068 175.392 172.676 175.448C171.052 175.756 169.4 175.952 167.776 176.092C167.58 176.12 167.328 176.26 167.356 176.512C167.468 177.66 167.58 178.78 167.72 179.928C167.748 180.124 167.888 180.376 168.14 180.348C169.652 180.152 171.164 179.928 172.676 179.676C172.984 179.62 173.32 179.592 173.544 179.34Z" fill="#DBCAC1"/>
<path d="M181.72 181.496C181.58 181.076 181.384 180.6 181.328 180.152C181.272 179.732 181.328 179.34 181.132 178.92C180.908 178.444 180.18 178.864 180.404 179.34C180.488 179.48 180.46 179.676 180.46 179.844C180.46 180.068 180.488 180.292 180.516 180.488C180.6 180.936 180.768 181.356 180.908 181.776L181.748 184.436C181.916 184.94 182.728 184.716 182.56 184.212C182.308 183.316 182.028 182.392 181.72 181.496Z" fill="#DBCAC1"/>
<path d="M179.816 181.384C179.816 181.356 179.816 181.356 179.816 181.356C179.816 181.328 179.816 181.328 179.816 181.3C179.844 181.132 179.9 180.964 179.9 180.796C179.9 180.488 179.76 180.208 179.536 179.984C179.368 179.816 179.172 179.676 179.004 179.508C178.976 179.48 178.948 179.424 178.892 179.396C178.892 179.368 178.864 179.34 178.864 179.34V179.312C178.864 179.284 178.864 179.256 178.864 179.228C178.892 179.004 178.64 178.808 178.444 178.808C178.192 178.808 178.052 179.004 178.024 179.228C177.94 179.872 178.556 180.208 178.92 180.572C178.948 180.6 178.976 180.628 178.976 180.628L179.004 180.656C179.032 180.684 179.032 180.684 178.976 180.628C179.004 180.628 179.06 180.74 179.06 180.768C179.032 180.712 179.032 180.712 179.06 180.74C179.06 180.74 179.06 180.768 179.06 180.796C179.06 180.824 179.06 180.852 179.06 180.908C179.06 180.936 179.06 180.936 179.06 180.964C179.032 181.132 178.976 181.328 178.976 181.496C178.976 181.748 179.116 181.972 179.34 182.112C179.536 182.224 179.816 182.168 179.9 181.972C179.984 181.72 179.956 181.524 179.816 181.384Z" fill="#DBCAC1"/>
<path d="M173.152 182.616C172.984 182.28 172.9 181.916 172.928 181.552C172.956 181.02 172.116 181.02 172.088 181.552C172.06 181.944 172.116 182.364 172.284 182.728C172.368 182.924 172.48 183.12 172.592 183.288C172.704 183.428 172.872 183.568 172.956 183.736C173.04 183.876 173.012 184.072 172.984 184.212C172.984 184.464 172.984 184.716 172.956 184.968C172.956 185.444 172.928 185.92 172.9 186.396C172.872 186.928 173.712 186.928 173.74 186.396C173.74 185.92 173.768 185.444 173.796 184.968C173.796 184.716 173.796 184.464 173.824 184.212C173.824 184.016 173.852 183.792 173.796 183.596C173.74 183.204 173.348 182.952 173.152 182.616Z" fill="#DBCAC1"/>
<path d="M169.848 181.944C170.464 183.904 170.8 185.948 170.772 188.02C170.772 188.552 171.612 188.552 171.612 188.02C171.612 185.892 171.304 183.764 170.66 181.748C170.492 181.216 169.68 181.44 169.848 181.944Z" fill="#DBCAC1"/>
<path d="M164.08 177.688C164.22 177.156 163.408 176.932 163.268 177.464C163.156 177.884 163.268 178.248 163.408 178.64C163.576 179.032 163.744 179.34 163.576 179.788C163.38 180.32 163.296 180.768 163.296 181.328C163.324 181.86 163.324 182.392 163.324 182.924C163.296 185.108 162.988 187.264 162.372 189.364C162.232 189.896 163.044 190.12 163.184 189.588C163.772 187.516 164.108 185.36 164.164 183.176C164.164 182.644 164.164 182.112 164.136 181.58C164.136 181.328 164.108 181.048 164.136 180.796C164.164 180.544 164.276 180.32 164.36 180.068C164.528 179.648 164.528 179.256 164.388 178.808C164.276 178.472 163.996 178.052 164.08 177.688Z" fill="#DBCAC1"/>
<path d="M161 177.716C160.496 178.472 160.524 179.396 160.636 180.236C160.776 181.244 160.916 182.252 160.916 183.288C160.944 185.388 160.58 187.46 159.88 189.42C159.684 189.924 160.496 190.148 160.692 189.644C161.364 187.74 161.756 185.696 161.756 183.68C161.756 182.672 161.7 181.664 161.532 180.684C161.42 179.844 161.196 178.892 161.728 178.136C162.036 177.688 161.308 177.268 161 177.716Z" fill="#DBCAC1"/>
<path d="M158.788 177.8C158.9 177.268 158.088 177.044 157.976 177.576C157.724 178.612 157.696 179.648 157.836 180.684C157.864 180.964 157.948 181.216 158.004 181.496C158.06 181.72 158.116 181.944 158.032 182.196C157.948 182.392 157.808 182.532 157.696 182.728C157.584 182.924 157.472 183.148 157.416 183.344C157.136 184.268 157.332 185.248 157.304 186.2C157.276 187.292 157.08 188.356 156.744 189.392C156.576 189.896 157.388 190.12 157.556 189.616C157.892 188.608 158.088 187.572 158.144 186.508C158.2 185.556 157.948 184.492 158.256 183.54C158.396 183.12 158.732 182.812 158.872 182.392C159.04 181.916 158.9 181.468 158.788 181.02C158.536 179.984 158.536 178.864 158.788 177.8Z" fill="#DBCAC1"/>
<path d="M155.428 178.248C155.568 178.192 155.708 178.024 155.708 177.856C155.708 177.632 155.512 177.436 155.288 177.436C154.756 177.436 154.224 177.436 153.692 177.436C153.44 177.436 153.132 177.408 152.908 177.464C152.572 177.548 152.404 177.828 152.376 178.136C152.348 178.388 152.376 178.64 152.376 178.864C152.376 179.116 152.348 179.396 152.404 179.648C152.46 179.928 152.684 180.152 152.936 180.264C153.132 180.348 153.384 180.348 153.58 180.348C154.196 180.348 154.812 180.348 155.428 180.32C155.652 180.32 155.848 180.124 155.848 179.9C155.848 179.368 155.736 178.864 155.54 178.36C155.512 178.332 155.456 178.276 155.428 178.248ZM153.384 179.508C153.356 179.508 153.3 179.508 153.272 179.508C153.272 179.508 153.272 179.508 153.244 179.508C153.244 179.508 153.244 179.508 153.216 179.508C153.216 179.508 153.188 179.508 153.16 179.508V179.48C153.16 179.536 153.16 179.452 153.16 179.424C153.16 179.312 153.16 179.228 153.16 179.116C153.16 178.892 153.16 178.668 153.16 178.472C153.16 178.416 153.16 178.36 153.16 178.332C153.356 178.332 153.524 178.332 153.72 178.332C154.084 178.332 154.476 178.332 154.84 178.332C154.7 178.472 154.7 178.668 154.756 178.836C154.84 179.06 154.896 179.284 154.924 179.536C154.616 179.536 154.308 179.536 154 179.536C153.832 179.508 153.608 179.508 153.384 179.508Z" fill="#DBCAC1"/>
<path d="M150.5 177.912C150.472 177.772 150.36 177.688 150.248 177.632C150.248 177.632 150.248 177.632 150.248 177.604C150.248 177.352 150.052 177.212 149.828 177.184C149.492 177.156 149.156 177.128 148.82 177.1C148.484 177.072 148.176 177.044 147.84 177.016C147.476 177.016 147.14 177.212 147.056 177.604C147 177.94 147.028 178.276 147.056 178.612C147.084 178.948 147.056 179.368 147.28 179.62C147.504 179.872 147.812 179.9 148.12 179.9C148.456 179.9 148.764 179.9 149.1 179.9C149.408 179.9 149.744 179.928 150.052 179.872C150.248 179.844 150.416 179.76 150.556 179.592C150.696 179.396 150.696 179.2 150.64 178.976C150.64 178.64 150.556 178.276 150.5 177.912ZM147.868 177.772C147.896 177.744 147.896 177.744 147.868 177.772ZM147.896 179.06C147.924 179.06 147.924 179.06 147.896 179.06ZM148.456 179.06C148.344 179.06 148.232 179.06 148.092 179.06C148.036 179.06 148.008 179.06 147.952 179.06C147.952 179.032 147.952 179.032 147.952 179.004C147.952 178.892 147.924 178.78 147.924 178.668C147.924 178.388 147.896 178.136 147.896 177.856C147.924 177.856 147.98 177.856 148.008 177.856C148.568 177.912 149.128 177.94 149.688 177.996C149.688 178.024 149.688 178.08 149.688 178.108C149.744 178.36 149.772 178.612 149.828 178.864C149.828 178.92 149.856 178.976 149.856 179.032C149.38 179.088 148.904 179.06 148.456 179.06ZM149.884 179.2C149.856 179.228 149.856 179.228 149.884 179.2Z" fill="#DBCAC1"/>
<path d="M144.816 177.324C143.976 177.296 143.136 177.156 142.324 176.904C142.156 176.848 141.932 176.932 141.848 177.1C141.652 177.548 141.512 177.968 141.456 178.444C141.428 178.668 141.4 178.892 141.456 179.088C141.54 179.368 141.736 179.536 141.988 179.62C142.38 179.76 142.828 179.844 143.248 179.9C143.724 179.956 144.172 180.012 144.648 180.012C144.872 180.012 145.068 179.816 145.068 179.592C145.068 179.06 145.068 178.528 145.096 178.024C145.18 177.94 145.236 177.828 145.236 177.716C145.236 177.492 145.04 177.324 144.816 177.324ZM142.492 178.92C142.408 178.892 142.324 178.892 142.268 178.864C142.268 178.808 142.268 178.78 142.268 178.724C142.268 178.668 142.268 178.584 142.296 178.5C142.324 178.276 142.38 178.024 142.464 177.8C143.052 177.94 143.64 178.052 144.256 178.108C144.256 178.472 144.256 178.836 144.256 179.172C143.668 179.172 143.08 179.088 142.492 178.92Z" fill="#DBCAC1"/>
<path d="M142.604 182.42C142.744 182.252 142.772 182 142.604 181.832C142.464 181.692 142.156 181.664 142.016 181.832C141.708 182.196 141.68 182.616 141.82 183.064C141.932 183.456 142.296 183.82 142.352 184.212C142.38 184.408 142.24 184.576 142.184 184.744C142.072 184.968 142.016 185.192 141.988 185.444C141.932 185.948 142.016 186.424 142.128 186.928C142.24 187.46 143.052 187.236 142.94 186.704C142.856 186.312 142.772 185.892 142.828 185.472C142.884 185.08 143.164 184.772 143.192 184.352C143.22 183.932 143.024 183.54 142.828 183.204C142.716 183.036 142.464 182.616 142.604 182.42Z" fill="#DBCAC1"/>
<path d="M149.1 182.28C149.24 182.112 149.268 181.86 149.1 181.692C148.96 181.552 148.652 181.524 148.512 181.692C148.204 182.084 148.288 182.476 148.428 182.924C148.512 183.148 148.568 183.316 148.484 183.54C148.428 183.792 148.288 184.044 148.204 184.268C147.84 185.276 147.7 186.368 147.812 187.432C147.868 187.964 148.708 187.964 148.652 187.432C148.568 186.48 148.68 185.5 148.988 184.604C149.128 184.184 149.38 183.764 149.38 183.288C149.38 183.092 149.324 182.896 149.24 182.7C149.212 182.616 149.072 182.308 149.1 182.28Z" fill="#DBCAC1"/>
<path d="M154.084 182.084C153.86 181.972 153.636 182.056 153.524 182.224C153.104 182.784 153.244 183.596 153.272 184.268C153.3 185.052 153.328 185.864 153.384 186.648C153.412 187.18 154.252 187.18 154.224 186.648C154.196 185.92 154.168 185.164 154.14 184.436C154.14 184.1 154.112 183.764 154.084 183.428C154.084 183.148 154.084 182.896 154.252 182.672C154.364 182.476 154.252 182.196 154.084 182.084Z" fill="#DBCAC1"/>
</svg>
