<svg width="401" height="420" viewBox="0 0 401 420" fill="none" xmlns="http://www.w3.org/2000/svg">
<path d="M12.157 245.85C9.58724 371.329 63.0105 370.151 195.213 393.979C382.875 427.806 470.908 250.087 318.274 95.3647C154.094 -71.0595 15.5387 80.6413 12.157 245.85Z" fill="#DDEFF8"/>
<path d="M222.829 198.719C204.37 196.128 186.141 191.915 168.42 186.149C166.996 185.685 165.483 185.207 164.029 185.571C163.087 185.808 162.271 186.376 161.476 186.937C159.113 188.603 156.748 190.265 154.385 191.931C166.539 206.077 182.361 217.051 199.878 223.481" fill="#E2AABD"/>
<path d="M158.803 197.11C158.094 196.041 156.858 195.48 155.792 194.773C154.726 194.065 153.697 192.963 153.84 191.691C153.91 191.063 154.258 190.509 154.596 189.975C155.351 188.783 156.169 187.534 157.446 186.927C158.722 186.319 160.57 186.703 161.025 188.035C159.862 187.304 159.187 185.858 159.377 184.5C159.568 183.141 160.604 181.932 161.924 181.542C162.953 183.421 164.661 184.92 166.656 185.698" fill="#BA8057"/>
<mask id="mask0_3693_18379" style="mask-type:luminance" maskUnits="userSpaceOnUse" x="12" y="23" width="385" height="376">
<path d="M12.157 245.85C9.58724 371.329 63.0105 370.151 195.213 393.979C382.875 427.806 470.908 250.087 318.274 95.3647C154.094 -71.0595 15.5387 80.6413 12.157 245.85Z" fill="white"/>
</mask>
<g mask="url(#mask0_3693_18379)">
<path d="M16.9122 319.454C70.9503 313.558 125.5 319.09 179.859 319.253C253.141 319.477 326.447 309.879 397.197 290.798C399.553 303.462 393.715 316.055 388.031 327.613C381.247 341.419 374.354 355.391 364.312 367.049C350.491 383.098 331.51 393.815 312.158 402.445C267.547 422.34 217.643 432.804 169.426 424.924C150.672 421.86 132.444 416.09 114.766 409.126C97.3428 402.262 80.1866 394.099 65.7506 382.177C45.7274 365.64 32.0533 342.861 18.7768 320.549" fill="#EADC96"/>
</g>
<path d="M277.248 287.947C274.655 289.486 271.848 290.631 268.911 291.329C268.032 291.539 267.126 291.72 266.214 291.837C266.241 291.78 266.267 291.726 266.294 291.67C267.748 288.281 267.574 284.214 265.195 281.287C263.063 278.662 259.327 277.177 256.015 278.195C252.931 279.143 250.695 282.258 250.632 285.46C250.558 289.273 253.873 291.947 257.081 293.346C258.05 293.77 259.053 294.097 260.079 294.337C259.467 294.795 258.832 295.212 258.184 295.586C255.801 296.965 253.108 297.829 250.364 298.063C244.998 298.521 239.577 296.521 235.748 292.748C235.277 292.284 234.836 291.797 234.415 291.286C234.08 290.878 233.546 291.279 233.586 291.71L228.182 292.511C228.092 292.424 227.995 292.341 227.905 292.251C227.447 291.797 226.735 292.504 227.197 292.958C232.383 298.09 239.614 300.911 246.882 301.031C250.485 301.091 254.12 300.484 257.475 299.162C259.998 298.167 262.444 296.781 264.252 294.801C268.533 294.788 272.814 293.312 276.082 290.518C276.72 289.97 277.312 289.373 277.853 288.732C278.204 288.318 277.763 287.64 277.245 287.944L277.248 287.947ZM262.665 291.927C261.833 291.843 261.008 291.676 260.209 291.399C257.893 290.591 255.805 288.538 255.541 286.007C255.317 283.877 256.607 282.058 258.592 281.34C260.536 280.635 262.718 281.069 263.948 282.816C265.439 284.932 265.215 287.73 264.035 289.927C263.651 290.638 263.186 291.306 262.665 291.927Z" fill="#F4BDCD"/>
<path d="M172.096 335.866C145.703 336.384 120.631 339.355 94.3286 341.586C90.0111 341.953 85.55 342.383 81.7505 344.467C77.9511 346.55 74.9603 350.743 75.6587 355.02C76.5776 360.652 82.9101 363.5 88.4806 364.752C103.298 368.081 118.709 367.033 133.85 365.857C182.779 362.065 229.499 366.218 278.027 358.906C337.843 349.892 360.422 325.463 365.288 314.449C365.652 313.621 365.976 312.703 365.732 311.832C365.361 310.496 363.857 309.852 362.504 309.531C354.862 307.715 346.962 310.329 339.426 312.553C285.368 328.511 227.517 325.203 172.183 335.957" fill="#D8CA8B"/>
<path d="M198.665 301.665C218.772 313.054 238.876 324.442 258.983 335.826C268.506 341.222 278.882 346.8 289.756 345.522C291.684 345.295 294.144 343.929 293.445 342.12C293.158 341.375 292.409 340.935 291.711 340.551C282.989 335.76 274.267 330.972 265.546 326.181C250.805 318.088 236.069 309.992 221.329 301.899C215.554 298.728 208.259 295.583 202.776 299.232" fill="#D1B08A"/>
<path d="M386.327 139.021C386.073 135.188 381.328 133.011 377.595 133.929C373.862 134.847 371.025 137.789 368.385 140.576C293.826 219.268 202.401 279.704 120.176 350.363C119.411 351.021 118.569 351.975 118.957 352.904C119.127 353.307 119.501 353.588 119.876 353.822C125.082 357.1 132.213 355.077 136.901 351.091C141.59 347.104 166.034 321.801 174.769 314.826C222.849 276.452 274.311 243.824 318.14 200.665C335.607 183.468 351.54 164.254 372.202 151.056" fill="#D1B08A"/>
<path d="M214.124 143.317C214.204 134.667 219.304 126.674 225.913 121.089C232.527 115.503 240.57 111.938 248.493 108.445C247.928 114.659 245.305 120.475 242.588 126.093C241.365 128.624 240.099 131.168 238.328 133.352C233.679 139.091 226.248 141.638 219.22 143.918" fill="#F4BDCD"/>
<path d="M153.165 224.233C134.452 224.583 115.682 221.896 97.8239 216.3C97.1422 216.086 96.4338 215.866 95.722 215.953C94.3286 216.126 93.3762 217.395 92.5876 218.554C89.7405 222.75 86.8934 226.95 84.0463 231.147C85.931 233.664 89.1657 234.706 92.1966 235.547C109.453 240.342 127.194 243.383 145.065 244.608C146.131 244.682 147.264 244.735 148.196 244.214C149.299 243.6 149.85 242.341 150.288 241.156C152.123 236.195 153.276 230.987 153.71 225.715" fill="#F4BDCD"/>
<path d="M202.438 192.806C186.739 199.887 169.857 204.485 155.083 213.335C140.31 222.183 127.394 236.716 126.646 253.91C126.362 260.447 127.856 266.954 130.034 273.127C132.698 280.679 136.597 288.104 142.946 292.988C149.486 298.016 158.064 299.719 166.311 299.445C254.966 296.477 260.981 250.404 267.664 232.709C270.581 224.98 269.937 211.966 269.365 203.727C268.794 195.487 265.388 187.217 259.019 181.952" fill="#FFCAD7"/>
<path d="M153.717 213.339C155.601 215.856 158.729 244.722 193.817 239.046L153.717 213.339Z" fill="#F4BDCD"/>
<path d="M171.093 244.388C168.276 242.986 148.704 233.704 123.642 238.712L171.093 244.388Z" fill="#F4BDCD"/>
<path d="M241.603 186.963C227.902 219.682 179.782 214.34 169.757 204.658L199.735 193.654L241.603 186.963Z" fill="#F4BDCD"/>
<path d="M237.613 194.125C229.699 196.752 221.696 199.4 213.385 200.108C205.078 200.815 196.306 199.407 189.533 194.545C186.956 192.696 184.704 190.379 181.92 188.853C179.377 187.458 176.45 186.756 174.141 185.007C168.517 180.744 168.711 172.39 169.446 165.376C178.164 166.431 187.27 163.783 194.061 158.221C198.141 154.879 201.345 150.606 205.138 146.943C213.466 138.907 224.717 133.969 236.273 133.275C239.681 133.071 243.22 133.248 246.298 134.727C249.81 136.413 252.346 139.605 254.475 142.87C264.84 158.769 268.192 179.061 263.494 197.443C261.997 203.303 259.591 209.162 255.156 213.282" fill="#FFCAD7"/>
<path d="M121.162 186.93C116.26 187.838 112.554 192.569 112.176 197.537C111.799 202.505 114.392 207.426 118.282 210.541C122.171 213.656 127.207 215.108 132.186 215.342C141.954 215.799 151.835 211.593 158.275 204.241C159.294 203.079 160.236 201.827 160.868 200.418C163.01 195.621 160.664 189.314 155.902 187.08C155.518 186.9 155.103 186.74 154.679 186.776C154.205 186.817 153.79 187.097 153.403 187.377C150.549 189.441 147.959 191.981 144.681 193.26C142.689 194.038 140.544 194.308 138.415 194.522C134.936 194.869 131.341 195.07 128.023 193.975C124.704 192.879 121.69 190.205 121.169 186.753" fill="#4F3041"/>
<path d="M135.167 198.285C141.068 198.425 157.56 196.145 158.562 191.137C158.87 189.598 155.889 185.795 147.478 184.289C140.36 183.014 132.978 184.276 125.901 185.758C123.698 186.219 119.765 187.257 118.128 188.8C116.491 190.342 116.928 192.172 119.561 193.904C122.195 195.637 126.816 198.084 135.167 198.285Z" fill="#E6DBCC"/>
<path d="M135.167 198.786C137.593 198.839 140.039 198.595 142.442 198.275C145.389 197.884 148.333 197.343 151.187 196.502C153.469 195.828 155.986 194.983 157.767 193.334C158.372 192.773 158.913 192.041 159.057 191.21C159.174 190.522 158.88 189.831 158.509 189.264C157.092 187.1 154.469 185.822 152.116 184.977C147.865 183.448 143.237 183.084 138.753 183.328C134.268 183.571 129.483 184.399 124.972 185.444C123.237 185.848 121.503 186.349 119.882 187.1C118.556 187.715 116.975 188.683 116.708 190.252C116.397 192.072 117.998 193.467 119.358 194.362C120.26 194.956 121.202 195.494 122.178 195.961C125.219 197.423 128.524 198.218 131.872 198.569C132.968 198.682 134.068 198.749 135.167 198.776C135.812 198.792 135.812 197.791 135.167 197.774C131.561 197.68 127.946 197.163 124.557 195.894C123.431 195.474 122.342 194.963 121.296 194.369C120.156 193.724 118.866 193.013 118.111 191.921C116.033 188.917 121.891 187.297 123.785 186.776C125.68 186.256 127.424 185.935 129.256 185.585C131.501 185.157 133.764 184.783 136.039 184.546C140.527 184.076 145.102 184.112 149.496 185.224C152.169 185.902 155.067 186.963 157.022 189C157.306 189.297 157.516 189.551 157.723 189.895C157.917 190.215 157.964 190.325 158.061 190.686C158.068 190.709 158.071 190.733 158.074 190.756C158.068 190.643 158.098 190.876 158.074 190.756C158.078 190.81 158.078 190.863 158.081 190.916C158.081 190.963 158.054 191.127 158.081 190.963C158.064 191.053 158.041 191.143 158.014 191.23C157.927 191.521 157.733 191.861 157.536 192.102C156.965 192.809 156.183 193.324 155.394 193.758C154.365 194.322 153.269 194.756 152.159 195.13C149.496 196.024 146.723 196.602 143.949 197.036C141.486 197.42 138.993 197.697 136.497 197.761C136.053 197.771 135.605 197.774 135.16 197.764C134.515 197.751 134.515 198.752 135.16 198.765L135.167 198.786Z" fill="#4F3041"/>
<path d="M135.485 196.919C140.718 197.043 155.337 195.263 156.216 191.277C156.33 190.766 155.932 189.941 154.89 189.063C153.436 187.838 150.719 186.513 146.372 185.802C140.056 184.773 133.513 185.758 127.241 186.923C125.289 187.287 121.804 188.105 120.353 189.327C118.903 190.552 119.297 192.011 121.637 193.397C123.976 194.783 128.079 196.742 135.485 196.916V196.919Z" fill="#F5F1EB"/>
<path d="M149.51 190.926C151.047 187.548 151.494 186.149 153.429 180.543C153.847 179.335 154.298 178.059 155.287 177.245C156.056 176.614 158.034 176.443 158.636 177.572C159.117 178.473 157.834 180.697 157.393 181.622C154.926 186.81 154.298 187.852 153.219 191.057" fill="#D1B08A"/>
<path d="M158.265 177.408C158.004 177.038 157.583 176.911 157.145 176.907C156.751 176.907 156.31 176.944 155.969 177.161C155.762 177.291 155.581 177.488 155.514 177.729C155.511 177.742 155.514 177.755 155.508 177.769C155.371 177.966 155.304 178.213 155.384 178.447C155.481 178.734 155.712 178.881 155.979 178.981C156.34 179.121 156.744 179.245 157.139 179.211C157.58 179.171 157.997 178.991 158.248 178.61C158.475 178.266 158.505 177.752 158.265 177.408Z" fill="#AD8A66"/>
<path d="M127.234 189.748C125.861 186.346 124.487 182.947 123.114 179.545C122.876 178.954 121.904 179.211 122.148 179.812C123.501 183.161 124.855 186.509 126.205 189.858" fill="#BA8057"/>
<path d="M118.773 171.606C117.115 175.425 115.461 179.245 113.804 183.064C116.674 182.356 119.568 181.642 122.225 180.346C124.881 179.051 127.318 177.111 128.678 174.49C125.5 173.315 122.238 172.357 118.93 171.626" fill="#EC642D"/>
<path d="M172.891 242.709C158.278 242.081 143.685 240.989 129.142 239.437C113.937 237.814 98.4722 235.597 84.7814 228.786C83.4113 228.105 81.951 227.358 80.4339 227.548C78.6261 227.775 77.2727 229.257 76.0897 230.639C72.6812 234.629 69.2694 238.615 65.8609 242.605C65.3463 243.209 64.8049 243.867 64.7348 244.655C64.6579 245.533 65.1759 246.341 65.6805 247.062C82.7864 271.471 126.649 306.817 176.44 297.469" fill="#FFCAD7"/>
<path d="M269.004 200.652C277.024 234.372 161.068 306.486 113.617 287.122C167.417 276.439 269.004 200.652 269.004 200.652Z" fill="#F4BDCD"/>
<path d="M214.809 213.075C196.35 210.484 178.121 206.271 160.4 200.505C158.976 200.041 157.463 199.563 156.009 199.927C155.067 200.164 154.251 200.732 153.456 201.293C151.093 202.959 148.728 204.621 146.365 206.287C158.519 220.433 174.341 231.407 191.858 237.838" fill="#FFCAD7"/>
<path d="M231.257 144.226C238.151 137.158 248.389 134.677 258.12 132.984C267.851 131.295 278.057 129.933 286.197 124.344C281.823 132.651 277.449 140.957 273.078 149.264C271.614 152.045 270.147 154.832 268.349 157.407C265.398 161.637 261.569 165.252 257.175 167.96" fill="#FFCAD7"/>
<path d="M64.7047 246.625C62.3889 244.685 60.14 242.662 57.9679 240.562C57.4533 240.064 56.9153 239.507 56.825 238.796C56.7181 237.948 57.2895 237.176 57.8275 236.512C58.957 235.11 60.0898 233.711 61.2193 232.309C62.1383 231.17 63.1141 229.988 64.4641 229.421C65.8141 228.853 67.6487 229.15 68.3271 230.446C69.099 229.518 68.0931 228.222 67.6721 227.09C67.1007 225.548 67.7556 223.769 68.8718 222.567C69.9912 221.361 71.5016 220.614 72.9787 219.889C73.2727 219.745 73.5902 219.595 73.9143 219.635C74.5559 219.712 74.8767 220.43 75.124 221.028C76.3571 223.999 78.8099 226.439 81.7873 227.658" fill="#BA8057"/>
<path d="M350.544 143.855C357.234 142.099 368.716 139.602 375.603 140.223C353.722 156.255 331.714 177.902 315.894 199.927C300.075 221.952 285.211 244.819 266.708 264.65C248.206 284.482 225.489 301.382 199.19 308.059C193.215 309.575 174.221 312.426 168.086 311.832C159.668 311.014 105.851 286.692 113.617 287.126C199.163 307.825 308.436 154.916 350.544 143.858V143.855Z" fill="#328DE5"/>
<path d="M85.3194 228.766C84.6945 227.318 83.3211 226.363 82.1816 225.271C81.0421 224.179 80.0396 222.617 80.4941 221.104C80.718 220.36 81.2593 219.762 81.7873 219.188C82.9669 217.909 84.2367 216.574 85.9143 216.12C87.5918 215.666 89.7505 216.534 90.0078 218.253C88.758 217.108 88.2601 215.212 88.7881 213.599C89.3161 211.987 90.8432 210.755 92.5274 210.571C93.3628 213.078 95.1005 215.272 97.3528 216.657" fill="#BA8057"/>
<path d="M150.783 211.466C150.074 210.397 148.838 209.836 147.772 209.129C146.706 208.421 145.677 207.319 145.82 206.047C145.89 205.419 146.238 204.865 146.576 204.331C147.331 203.139 148.149 201.89 149.426 201.283C150.702 200.675 152.55 201.059 153.005 202.391C151.842 201.66 151.167 200.214 151.357 198.856C151.548 197.497 152.584 196.288 153.904 195.898C154.933 197.777 156.641 199.276 158.636 200.054" fill="#BA8057"/>
<path d="M126.586 300C135.291 301.876 144.136 301.762 152.901 300.38C162.258 298.908 171.257 295.86 179.949 292.164C189.402 288.141 198.445 283.196 207.157 277.768C216.587 271.895 225.643 265.438 234.438 258.657C243.691 251.523 252.677 244.051 261.445 236.328C269.933 228.85 278.224 221.151 286.377 213.309C293.98 206 301.462 198.569 308.877 191.07C315.316 184.56 321.699 177.996 328.102 171.449C333.091 166.347 338.08 161.239 343.216 156.285C345.084 154.482 346.975 152.699 348.927 150.983C349.719 150.285 350.524 149.601 351.35 148.94C351.513 148.806 351.68 148.679 351.847 148.546C352.192 148.272 350.858 149.284 351.647 148.703C351.961 148.472 352.275 148.239 352.599 148.018C353.127 147.658 353.669 147.314 354.237 147.02L352.212 147.568C358.671 146.9 365.134 146.232 371.593 145.564C370.918 143.077 370.243 140.586 369.568 138.099C353.869 148.716 339.904 161.697 326.738 175.265C312.747 189.681 299.574 204.862 286.167 219.816C272.921 234.592 259.457 249.249 244.724 262.573C241.185 265.772 237.572 268.89 233.87 271.898C233.034 272.576 232.192 273.25 231.347 273.918C230.889 274.282 230.428 274.639 229.967 275C229.175 275.617 230.652 274.479 229.857 275.087C229.586 275.294 229.319 275.501 229.048 275.704C227.247 277.073 225.422 278.415 223.574 279.724C216.253 284.906 208.547 289.573 200.42 293.386C199.511 293.813 198.595 294.227 197.676 294.634C197.178 294.855 196.68 295.098 196.173 295.285C197.218 294.908 196.33 295.219 196.122 295.302C195.785 295.442 195.451 295.579 195.113 295.713C193.138 296.507 191.143 297.248 189.125 297.93C185.062 299.305 180.914 300.44 176.711 301.305C175.645 301.525 174.575 301.726 173.506 301.909C172.514 302.079 171.27 302.493 170.271 302.407C171.267 302.49 170.615 302.36 170.251 302.407C169.981 302.44 169.707 302.473 169.436 302.507C168.935 302.567 168.437 302.62 167.935 302.67C166.793 302.787 165.646 302.881 164.5 302.958C160.002 303.251 155.484 303.228 150.987 302.901C149.927 302.824 148.871 302.73 147.815 302.617C147.234 302.557 146.652 302.49 146.074 302.42C145.784 302.383 145.493 302.347 145.199 302.31C146.318 302.45 145.306 302.323 145.095 302.293C143.027 302.003 140.684 302.797 140.163 305.091C139.732 306.981 140.741 309.705 142.963 310.019C152.216 311.324 161.516 311.558 170.793 310.349C179.705 309.187 188.383 306.957 196.737 303.642C214.151 296.728 229.656 286.054 243.865 273.972C258.946 261.151 272.593 246.732 285.88 232.092C299.497 217.085 312.727 201.724 326.631 186.973C333.331 179.869 340.188 172.908 347.346 166.264C350.798 163.059 354.32 159.931 357.929 156.906C359.697 155.427 361.485 153.971 363.296 152.542C363.744 152.188 364.195 151.838 364.646 151.487C363.767 152.172 365.184 151.076 365.415 150.903C366.317 150.218 367.222 149.544 368.135 148.876C369.939 147.558 371.767 146.269 373.622 145.017C375.049 144.052 376.034 142.246 375.463 140.493C374.958 138.934 373.378 137.368 371.597 137.552C367.804 137.942 364.011 138.336 360.218 138.727L353.652 139.405C352.232 139.551 350.868 139.682 349.605 140.423C345.482 142.84 341.906 146.446 338.474 149.724C332.88 155.066 327.483 160.615 322.077 166.144C315.019 173.365 307.978 180.6 300.864 187.768C292.613 196.078 284.272 204.301 275.771 212.354C266.745 220.904 257.542 229.271 248.079 237.33C243.31 241.39 238.478 245.373 233.562 249.256C232.974 249.72 232.386 250.184 231.795 250.645C231.501 250.875 231.207 251.105 230.909 251.336C230.685 251.509 229.519 252.411 230.391 251.74C229.175 252.678 227.955 253.609 226.729 254.534C224.259 256.394 221.77 258.227 219.257 260.026C209.71 266.857 199.818 273.244 189.446 278.756C186.986 280.061 184.5 281.317 181.987 282.512C180.774 283.086 179.558 283.647 178.331 284.194C177.743 284.455 177.155 284.715 176.564 284.969C176.273 285.096 175.982 285.243 175.681 285.346C176.871 284.932 175.615 285.373 175.317 285.493C170.632 287.42 165.847 289.109 160.958 290.448C158.599 291.095 156.22 291.656 153.82 292.124C152.667 292.347 151.511 292.548 150.348 292.725C150.071 292.768 149.79 292.808 149.513 292.848C148.477 292.998 150.211 292.768 149.536 292.848C148.911 292.922 148.29 293.002 147.665 293.065C143.19 293.529 138.666 293.599 134.185 293.159C133.657 293.105 133.132 293.045 132.607 292.982C131.685 292.872 133.61 293.132 132.694 292.992C132.434 292.952 132.173 292.915 131.912 292.875C130.843 292.708 129.777 292.508 128.718 292.277C126.673 291.837 124.283 292.885 123.785 295.075C123.324 297.092 124.394 299.532 126.586 300.003V300Z" fill="#5BA4EA"/>
<path d="M350.237 142.359C349.983 138.527 345.238 136.35 341.505 137.268C337.772 138.186 334.935 141.127 332.295 143.915C257.736 222.607 166.311 283.043 84.0864 353.701C83.3211 354.359 82.479 355.314 82.8666 356.242C83.0371 356.646 83.4113 356.927 83.7856 357.16C88.6811 360.242 95.2709 358.639 99.9392 355.13C100.24 354.907 100.531 354.673 100.811 354.433C105.5 350.446 132.617 322.806 141.352 315.831C189.432 277.457 238.221 247.166 282.05 204.007C299.517 186.81 315.45 167.596 336.112 154.398" fill="#D1B08A"/>
<path d="M111.04 283.443C107.161 283.403 105.226 288.792 107.01 292.234C108.795 295.676 112.641 297.435 116.227 298.908C149.897 312.736 185.513 322.969 215.845 343.085C218.395 344.774 220.941 346.553 223.845 347.515C229.656 349.441 235.978 347.862 241.89 346.273C242.254 346.176 242.635 346.069 242.902 345.802C243.761 344.954 242.785 343.549 241.833 342.804C228.727 332.588 211.233 330.301 196.243 323.123C188.43 319.384 181.295 314.306 173.346 310.87C165.533 307.495 157.088 305.772 149.276 302.397C136.454 296.858 125.413 286.925 111.702 284.255" fill="#D1B08A"/>
<path d="M166.081 170.604C166.151 173.676 167.912 175.756 170.228 178.046C172.079 179.879 174.301 181.852 176.894 181.588C179.437 181.331 181.255 178.977 182.224 176.61C182.719 175.405 183.083 174.116 183.023 172.811C182.829 168.571 178.335 165.79 174.144 165.109C172.106 164.778 169.864 164.805 168.173 165.983C168.173 165.983 166.011 167.526 166.077 170.597L166.081 170.604Z" fill="#F4BDCD"/>
<path d="M178.114 172.614C177.008 171.699 175.02 172.33 174.679 173.722C174.338 175.115 175.855 176.604 177.232 176.203C178.612 175.802 179.07 173.682 177.96 172.771" fill="#FF7B9C"/>
<path d="M170.816 170.384C170.388 169.746 169.463 169.502 168.778 169.846C168.283 171.155 168.6 172.731 169.563 173.746C170.615 173.065 171.1 171.626 170.679 170.447" fill="#FF7B9C"/>
<path d="M239.598 145.231C245.676 139.001 246.364 138.613 254.942 137.124C263.52 135.635 272.52 134.433 279.698 129.506C275.841 136.831 271.985 144.155 268.129 151.477C266.839 153.928 258.979 163.927 254.635 164.928" fill="#F4BDCD"/>
<path d="M104.153 355.374C107.521 353.191 96.2467 354.032 92.2768 353.438C88.3069 352.847 84.0563 352.84 80.5141 354.723C80.5141 354.723 86.1682 367.033 104.153 355.371V355.374Z" fill="#D8CA8B"/>
<path d="M104.407 355.805C104.788 355.554 105.266 355.204 105.273 354.696C105.279 354.189 104.875 353.932 104.474 353.775C103.966 353.578 103.405 353.515 102.867 353.451C102.111 353.364 101.346 353.324 100.588 353.291C98.8064 353.217 97.0219 353.214 95.2408 353.151C94.4622 353.124 93.6803 353.09 92.905 353.01C91.8023 352.9 90.6327 352.703 89.4831 352.633C86.3286 352.439 83.0939 352.803 80.2635 354.289C80.0062 354.423 79.9761 354.736 80.083 354.973C80.7547 356.429 82.0011 357.691 83.2643 358.636C86.3787 360.966 90.4054 361.28 94.1114 360.459C97.8173 359.638 101.249 357.841 104.407 355.801C104.948 355.454 104.444 354.586 103.902 354.937C101.095 356.75 98.0913 358.356 94.8532 359.244C92.768 359.814 90.5458 360.092 88.3971 359.731C86.8599 359.471 85.423 358.916 84.1365 358.035C83.6419 357.698 83.2209 357.347 82.763 356.897C82.5692 356.706 82.3821 356.506 82.2017 356.302C82.1248 356.212 82.0479 356.122 81.9744 356.032C81.9377 355.988 81.9042 355.945 81.8675 355.902C81.8508 355.882 81.8374 355.865 81.8207 355.845C81.7505 355.758 81.8742 355.915 81.8107 355.835C81.4865 355.411 81.1691 354.957 80.9452 354.469L80.7647 355.154C83.0905 353.935 85.7204 353.545 88.3202 353.588C90.2818 353.621 92.1999 353.999 94.1515 354.102C95.7588 354.189 97.3661 354.199 98.9735 354.239C100.38 354.272 101.857 354.279 103.227 354.496C103.491 354.536 103.755 354.586 104.009 354.666C104.056 354.68 104.103 354.696 104.146 354.713C104.26 354.753 104.1 354.683 104.196 354.736C104.23 354.753 104.263 354.77 104.293 354.79C104.404 354.86 104.257 354.753 104.303 354.797C104.34 354.833 104.28 354.77 104.273 354.703C104.273 354.696 104.257 354.56 104.273 354.623C104.287 354.683 104.313 354.563 104.27 354.623C104.203 354.71 104.323 354.569 104.263 354.636C104.23 354.673 104.193 354.71 104.153 354.746C104.046 354.847 104.039 354.84 103.896 354.937C103.358 355.291 103.862 356.159 104.4 355.801L104.407 355.805Z" fill="#D8CA8B"/>
<path d="M119.064 350.102C119.341 349.395 120.537 349.779 121.182 350.183C121.827 350.586 122.368 351.171 123.084 351.431C123.799 351.688 124.584 351.585 125.336 351.478C127.204 351.211 129.075 350.944 130.943 350.677C131.922 350.536 132.932 350.396 133.894 350.63C134.646 350.81 135.354 351.214 136.129 351.228C137.266 351.248 138.288 350.426 139.424 350.446C140.688 350.466 141.967 351.511 143.1 350.95C143.1 350.95 113.316 364.842 119.067 350.106L119.064 350.102Z" fill="#D8CA8B"/>
<path d="M119.495 350.356C119.688 349.942 120.581 350.413 120.848 350.57C121.493 350.947 122.011 351.511 122.703 351.818C123.541 352.189 124.434 352.106 125.316 351.985C126.245 351.855 127.177 351.722 128.106 351.588C129.095 351.448 130.084 351.304 131.074 351.164C131.952 351.041 132.881 350.907 133.76 351.117C134.639 351.328 135.374 351.758 136.26 351.732C137.018 351.708 137.7 351.378 138.408 351.147C138.82 351.014 139.234 350.91 139.668 350.967C140.103 351.024 140.517 351.187 140.928 351.321C141.747 351.591 142.535 351.752 143.351 351.384L142.846 350.52C142.592 350.64 142.332 350.753 142.074 350.867C141.78 350.997 141.483 351.127 141.185 351.258C140.748 351.448 140.457 351.568 140.069 351.732C137.877 352.643 135.658 353.491 133.403 354.236C130.9 355.064 128.34 355.798 125.73 356.182C124.674 356.339 123.538 356.429 122.449 356.362C121.951 356.332 121.633 356.296 121.129 356.165C120.928 356.115 120.731 356.052 120.537 355.978C120.404 355.928 120.504 355.972 120.347 355.895C120.257 355.851 120.163 355.805 120.076 355.751C119.779 355.578 119.538 355.381 119.341 355.124C119.13 354.85 119.01 354.579 118.917 354.196C118.699 353.304 118.896 352.212 119.201 351.231C119.304 350.897 119.421 350.566 119.548 350.239C119.782 349.638 118.813 349.378 118.582 349.972C117.854 351.852 117.212 354.476 118.863 356.079C120.29 357.464 122.626 357.477 124.477 357.324C127.16 357.1 129.797 356.412 132.36 355.618C134.923 354.823 137.202 353.975 139.571 353.01C140.42 352.663 141.266 352.309 142.104 351.942C142.499 351.768 142.923 351.615 143.301 351.408C143.317 351.398 143.334 351.391 143.354 351.384C143.942 351.111 143.431 350.259 142.85 350.52C142.175 350.824 141.346 350.393 140.698 350.189C139.926 349.949 139.184 349.879 138.395 350.099C137.653 350.309 136.921 350.743 136.129 350.727C135.251 350.71 134.439 350.186 133.57 350.066C132.647 349.935 131.725 350.066 130.81 350.196C129.847 350.333 128.885 350.47 127.922 350.607C126.96 350.743 125.954 350.9 124.965 351.027C123.976 351.154 123.251 351.081 122.465 350.51C121.81 350.036 121.219 349.525 120.42 349.308C119.775 349.134 118.953 349.161 118.629 349.849C118.355 350.43 119.221 350.937 119.495 350.353V350.356Z" fill="#D8CA8B"/>
<path d="M217.596 348.159C213.646 346.784 225.512 345.355 229.653 344.737C235.748 343.829 242 344.664 248.099 343.772C248.099 343.772 234.191 353.942 217.596 348.159Z" fill="#D8CA8B"/>
<path d="M217.73 347.675C217.576 347.622 217.559 347.618 217.452 347.562C217.405 347.538 217.359 347.512 217.315 347.485C217.235 347.438 217.258 347.452 217.289 347.468C217.195 347.418 217.292 347.415 217.282 347.475C217.295 347.401 217.305 347.565 217.292 347.508C217.319 347.625 217.319 347.542 217.292 347.658C217.295 347.645 217.309 347.742 217.285 347.682C217.305 347.739 217.188 347.759 217.289 347.689C217.372 347.628 217.279 347.689 217.289 347.682C217.375 347.622 217.466 347.568 217.559 347.522C217.736 347.431 217.93 347.361 218.191 347.275C219.781 346.75 221.469 346.483 223.116 346.21C224.924 345.909 226.739 345.655 228.557 345.398C231.34 345.004 234.107 344.797 236.921 344.767C240.697 344.724 244.48 344.797 248.226 344.26L247.838 343.345C246.13 344.594 244.169 345.562 242.237 346.403C237.773 348.346 232.911 349.451 228.035 349.441C224.523 349.435 221.045 348.827 217.726 347.682C217.115 347.472 216.854 348.436 217.459 348.647C223.163 350.62 229.295 350.924 235.193 349.695C239.12 348.877 242.946 347.421 246.421 345.422C247.076 345.044 247.734 344.657 248.346 344.21C248.817 343.866 248.526 343.211 247.958 343.295C244.413 343.806 240.817 343.729 237.245 343.762C235.461 343.779 233.676 343.822 231.902 343.976C230.705 344.08 229.519 344.26 228.329 344.427C226.378 344.704 224.426 344.974 222.485 345.305C220.837 345.585 219.103 345.836 217.539 346.447C217.058 346.634 216.4 346.897 216.309 347.478C216.206 348.146 216.954 348.463 217.459 348.643C218.067 348.86 218.331 347.892 217.726 347.679L217.73 347.675Z" fill="#D8CA8B"/>
<path d="M275.079 344.477C274.508 344.163 276.349 344.193 276.994 344.11C280.205 343.696 283.423 343.312 286.635 342.901C288.854 342.617 291.073 342.323 293.291 342.026C294.712 341.836 296.135 341.646 297.555 341.459C297.555 341.459 291.009 353.254 275.079 344.48V344.477Z" fill="#D8CA8B"/>
<path d="M275.33 344.043C275.597 344.206 274.942 344.724 275.266 344.751C275.31 344.754 275.373 344.727 275.42 344.721C275.647 344.687 275.885 344.68 276.112 344.667C276.6 344.64 277.078 344.594 277.562 344.534C279.17 344.327 280.777 344.13 282.384 343.929C285.616 343.529 288.844 343.115 292.072 342.684C293.9 342.44 295.724 342.197 297.552 341.953L297.118 341.198C297.061 341.302 296.997 341.402 296.931 341.499C296.857 341.612 296.78 341.726 296.7 341.836C296.65 341.906 296.6 341.973 296.55 342.043C296.523 342.08 296.496 342.113 296.469 342.146C296.433 342.197 296.519 342.083 296.429 342.196C295.744 343.055 294.966 343.839 294.097 344.514C291.333 346.66 287.791 347.492 284.302 347.124C281.131 346.79 278.1 345.559 275.327 344.039C274.762 343.729 274.254 344.594 274.822 344.904C279.303 347.361 284.606 349.081 289.716 347.759C292.516 347.038 295.063 345.402 296.914 343.185C297.301 342.721 297.689 342.23 297.983 341.702C298.147 341.405 297.946 340.894 297.549 340.948C293.963 341.425 290.381 341.913 286.792 342.37C284.967 342.604 283.143 342.828 281.318 343.055C279.724 343.252 278.114 343.542 276.513 343.639C276.012 343.669 275.457 343.645 274.972 343.786C274.401 343.953 274.314 344.59 274.822 344.901C275.373 345.238 275.878 344.37 275.327 344.036L275.33 344.043Z" fill="#D8CA8B"/>
<path d="M198.859 161.289C198.492 162.621 197.94 163.984 196.831 164.855C195.721 165.73 193.914 165.917 192.904 164.935C192.079 164.131 192.032 162.875 192.039 161.747C192.052 159.109 192.066 156.438 192.757 153.884C193.132 152.495 193.777 151.063 195.043 150.299C196.31 149.531 198.311 149.784 198.909 151.103C198.909 151.103 200.5 153.58 199.832 155.584" fill="#4F3041"/>
<path d="M220.978 151.273C218.802 148.756 215.163 147.708 211.979 148.653C211.36 148.836 211.624 149.801 212.246 149.617C215.113 148.766 218.321 149.721 220.273 151.981C220.694 152.469 221.402 151.758 220.981 151.273H220.978Z" fill="#4F3041"/>
<path d="M196.5 147.507C199.28 146.836 202.328 147.494 204.567 149.277C205.068 149.678 205.77 148.96 205.265 148.559C202.732 146.539 199.374 145.781 196.219 146.546C195.591 146.696 195.872 147.661 196.5 147.507Z" fill="#4F3041"/>
<path d="M209.954 184.636C208.246 187.681 204.747 188.866 201.439 189.097C197.245 189.387 193.198 188.125 189.075 187.594C186.455 187.257 183.775 187.234 181.239 188.048C180.627 188.245 180.888 189.21 181.506 189.013C186.228 187.501 191.167 189.013 195.878 189.778C199.437 190.355 203.26 190.389 206.612 188.893C208.373 188.109 209.877 186.83 210.822 185.144C211.137 184.58 210.271 184.076 209.957 184.64L209.954 184.636Z" fill="#4F3041"/>
<path d="M205.773 154.949C204.259 157.039 203.922 159.73 203.855 162.308C203.805 164.307 203.962 166.594 205.533 167.84C206.989 168.995 209.228 168.734 210.715 167.616C212.203 166.498 213.051 164.718 213.549 162.925C214.411 159.814 214.361 156.458 213.412 153.373C213.412 153.373 209.375 149.978 205.773 154.949Z" fill="#4F3041"/>
<path d="M198.682 153.487C201.469 152.853 208.186 154.889 210.398 156.705C210.893 157.113 211.608 156.405 211.106 155.998C208.604 153.944 201.579 151.804 198.415 152.522C197.787 152.666 198.051 153.631 198.682 153.487Z" fill="#4F3041"/>
</svg>
