<svg width="336" height="336" viewBox="0 0 336 336" fill="none" xmlns="http://www.w3.org/2000/svg">
<path d="M8.08862 198.163C5.93352 303.316 50.6867 302.336 161.408 322.315C318.59 350.659 392.311 201.717 264.461 72.0534C126.955 -67.4315 10.9154 59.7138 8.08862 198.163Z" fill="#DDEFF8"/>
<path d="M184.526 158.654C169.077 156.472 153.795 152.946 138.962 148.106C137.758 147.714 136.499 147.322 135.295 147.63C134.511 147.826 133.812 148.301 133.168 148.777C131.181 150.176 129.222 151.575 127.235 152.974C137.422 164.838 150.661 174.016 165.327 179.416" fill="#E2AABD"/>
<path d="M130.901 157.311C130.313 156.416 129.278 155.94 128.382 155.353C127.486 154.765 126.619 153.842 126.759 152.778C126.815 152.247 127.095 151.799 127.402 151.351C128.046 150.344 128.718 149.309 129.781 148.805C130.845 148.301 132.384 148.609 132.776 149.728C131.797 149.113 131.237 147.91 131.405 146.763C131.573 145.615 132.44 144.608 133.532 144.272C134.4 145.839 135.827 147.098 137.506 147.77" fill="#BA8057"/>
<mask id="mask0_1_477" style="mask-type:luminance" maskUnits="userSpaceOnUse" x="8" y="11" width="322" height="315">
<path d="M8.08862 198.163C5.93352 303.316 50.6867 302.336 161.408 322.315C318.59 350.659 392.311 201.717 264.461 72.0534C126.955 -67.4315 10.9154 59.7138 8.08862 198.163Z" fill="white"/>
</mask>
<g mask="url(#mask0_1_477)">
<path d="M12.063 259.833C57.3199 254.881 102.997 259.526 148.534 259.665C209.912 259.861 271.29 251.803 330.569 235.826C332.556 246.43 327.658 256.979 322.9 266.689C317.219 278.245 311.453 289.969 303.029 299.734C291.442 313.193 275.544 322.175 259.339 329.394C221.975 346.071 180.188 354.829 139.801 348.225C124.1 345.651 108.818 340.81 94.0125 334.99C79.4306 329.226 65.0447 322.399 52.9538 312.409C36.1888 298.559 24.7416 279.448 13.6023 260.757" fill="#EADC96"/>
</g>
<path d="M230.091 233.447C227.908 234.734 225.557 235.686 223.094 236.273C222.367 236.441 221.611 236.609 220.827 236.693C220.855 236.637 220.883 236.609 220.883 236.553C222.087 233.699 221.947 230.313 219.96 227.851C218.168 225.641 215.034 224.409 212.263 225.249C209.688 226.032 207.813 228.663 207.757 231.349C207.701 234.539 210.472 236.777 213.158 237.952C213.97 238.316 214.81 238.568 215.677 238.792C215.174 239.183 214.642 239.519 214.082 239.827C212.095 240.974 209.828 241.702 207.533 241.898C203.027 242.289 198.493 240.61 195.302 237.449C194.91 237.057 194.546 236.665 194.182 236.217C193.903 235.882 193.455 236.217 193.483 236.581L188.949 237.253C188.865 237.169 188.781 237.113 188.725 237.029C188.333 236.637 187.745 237.253 188.137 237.616C192.475 241.926 198.549 244.276 204.622 244.388C207.645 244.444 210.695 243.94 213.494 242.821C215.593 241.982 217.665 240.834 219.176 239.155C222.758 239.155 226.341 237.896 229.084 235.574C229.616 235.126 230.119 234.623 230.567 234.091C230.903 233.755 230.539 233.195 230.091 233.447ZM217.888 236.777C217.189 236.721 216.489 236.553 215.845 236.329C213.914 235.658 212.151 233.923 211.927 231.796C211.731 230.006 212.823 228.495 214.474 227.879C216.097 227.292 217.916 227.655 218.952 229.11C220.211 230.873 220.016 233.223 219.036 235.07C218.7 235.686 218.336 236.245 217.888 236.777Z" fill="#F4BDCD"/>
<path d="M142.04 273.6C119.93 274.02 98.9384 276.538 76.9117 278.385C73.3012 278.693 69.5508 279.056 66.3881 280.791C63.2254 282.526 60.7065 286.052 61.2942 289.633C62.0779 294.362 67.3677 296.74 72.0417 297.804C84.4405 300.602 97.3711 299.706 110.05 298.727C151.025 295.537 190.152 299.035 230.791 292.907C280.89 285.352 299.81 264.87 303.868 255.636C304.176 254.937 304.456 254.181 304.232 253.454C303.924 252.335 302.665 251.803 301.517 251.523C295.108 250.012 288.503 252.195 282.205 254.041C236.92 267.416 188.473 264.646 142.124 273.656" fill="#D8CA8B"/>
<path d="M164.291 244.948C181.14 254.489 197.961 264.031 214.81 273.572C222.786 278.105 231.463 282.778 240.587 281.687C242.21 281.491 244.253 280.343 243.666 278.832C243.414 278.217 242.798 277.853 242.21 277.517C234.905 273.516 227.6 269.487 220.295 265.486C207.953 258.714 195.61 251.915 183.267 245.143C178.425 242.485 172.324 239.855 167.734 242.905" fill="#D1B08A"/>
<path d="M321.445 108.624C321.221 105.407 317.247 103.588 314.14 104.371C311.033 105.155 308.626 107.617 306.415 109.94C243.974 175.891 167.398 226.536 98.5466 285.744C97.9029 286.303 97.2032 287.087 97.539 287.87C97.679 288.206 97.9868 288.458 98.3227 288.654C102.689 291.396 108.65 289.717 112.597 286.359C116.515 283.03 137.002 261.82 144.307 255.972C184.582 223.822 227.684 196.457 264.377 160.305C279.015 145.895 292.337 129.806 309.662 118.726" fill="#D1B08A"/>
<path d="M177.222 112.234C177.278 104.987 181.56 98.2995 187.101 93.5987C192.643 88.9259 199.388 85.9319 206.021 82.9939C205.546 88.1983 203.363 93.067 201.068 97.7958C200.032 99.9224 198.968 102.049 197.485 103.868C193.595 108.68 187.353 110.807 181.476 112.71" fill="#F4BDCD"/>
<path d="M126.171 180.032C110.498 180.312 94.7682 178.073 79.8225 173.372C79.2627 173.204 78.6469 173.009 78.0592 173.092C76.8837 173.232 76.1 174.296 75.4283 175.275C73.0493 178.801 70.6703 182.326 68.2633 185.824C69.8306 187.922 72.5455 188.818 75.0924 189.517C89.5344 193.547 104.396 196.093 119.37 197.1C120.265 197.156 121.217 197.212 122.001 196.764C122.924 196.261 123.4 195.197 123.764 194.19C125.303 190.021 126.255 185.656 126.619 181.263" fill="#F4BDCD"/>
<path d="M167.454 153.702C154.299 159.634 140.165 163.495 127.794 170.91C115.424 178.325 104.592 190.497 103.976 204.907C103.724 210.391 104.984 215.847 106.803 221.024C109.042 227.347 112.289 233.587 117.607 237.672C123.092 241.898 130.257 243.325 137.17 243.073C211.423 240.582 216.461 201.969 222.059 187.139C224.494 180.675 223.962 169.763 223.486 162.851C223.01 155.94 220.156 149.001 214.81 144.608" fill="#FFCAD7"/>
<path d="M126.647 170.91C128.214 173.009 130.845 197.212 160.233 192.455Z" fill="#F4BDCD"/>
<path d="M141.201 196.932C138.85 195.757 122.449 187.978 101.457 192.175Z" fill="#F4BDCD"/>
<path d="M200.256 148.805C188.781 176.226 148.478 171.749 140.081 163.635L165.187 154.401L200.256 148.805Z" fill="#F4BDCD"/>
<path d="M131.461 173.344L96.2516 127.875L111.337 124.602L138.99 160.333L131.461 173.344Z" fill="#ADA6AA"/>
<path d="M130.509 170.546L98.7985 129.61L111.757 125.833L138.066 159.802L130.509 170.546Z" fill="#E6E6E6"/>
<path d="M96.2965 127.936L95.3226 128.689L130.474 174.06L131.448 173.306L96.2965 127.936Z" fill="#D6D2D5"/>
<path d="M196.897 154.821C190.264 157.032 183.575 159.242 176.606 159.83C169.637 160.417 162.304 159.242 156.622 155.157C154.467 153.618 152.564 151.659 150.241 150.4C148.114 149.225 145.651 148.637 143.72 147.182C139.018 143.601 139.186 136.605 139.801 130.729C147.106 131.625 154.719 129.386 160.429 124.742C163.843 121.943 166.53 118.362 169.721 115.284C176.69 108.541 186.122 104.399 195.806 103.84C198.661 103.672 201.627 103.812 204.202 105.071C207.141 106.47 209.268 109.156 211.059 111.898C219.736 125.217 222.535 142.23 218.616 157.647C217.357 162.544 215.342 167.468 211.619 170.91" fill="#FFCAD7"/>
<path d="M142.712 195.533C130.481 195.002 118.25 194.078 106.075 192.791C93.3408 191.42 80.3822 189.573 68.935 183.865C67.7875 183.306 66.556 182.662 65.2966 182.83C63.7852 183.026 62.6377 184.257 61.6581 185.432C58.8033 188.762 55.9485 192.12 53.0937 195.449C52.6739 195.953 52.1981 196.513 52.1421 197.156C52.0861 197.884 52.5059 198.555 52.9258 199.171C67.2557 219.625 103.976 249.257 145.679 241.422" fill="#FFCAD7"/>
<path d="M223.206 160.277C229.923 188.538 132.804 248.977 93.0609 232.748C138.122 223.794 223.206 160.277 223.206 160.277Z" fill="#F4BDCD"/>
<path d="M177.809 170.686C162.36 168.504 147.078 164.978 132.244 160.137C131.041 159.746 129.782 159.354 128.578 159.662C127.794 159.858 127.095 160.333 126.451 160.809C124.464 162.208 122.505 163.607 120.517 165.006C130.705 176.87 143.944 186.048 158.609 191.448" fill="#FFCAD7"/>
<path d="M191.58 112.989C197.345 107.058 205.938 104.987 214.082 103.56C222.227 102.133 230.791 101.014 237.592 96.3129C233.926 103.28 230.259 110.247 226.593 117.187C225.361 119.509 224.13 121.859 222.618 124.014C220.156 127.568 216.937 130.589 213.27 132.856" fill="#FFCAD7"/>
<path d="M52.0861 198.807C50.1549 197.184 48.2517 195.477 46.4325 193.714C46.0127 193.295 45.5649 192.819 45.4809 192.231C45.3969 191.532 45.8727 190.888 46.3205 190.329C47.2721 189.153 48.2238 187.978 49.1474 186.803C49.931 185.852 50.7427 184.844 51.8622 184.369C52.9818 183.893 54.5211 184.145 55.1089 185.236C55.7526 184.453 54.9129 183.361 54.5491 182.438C54.0733 181.151 54.6051 179.64 55.5567 178.661C56.5083 177.681 57.7677 177.038 58.9992 176.422C59.2511 176.31 59.503 176.17 59.7829 176.198C60.3147 176.254 60.5946 176.87 60.7905 177.374C61.826 179.864 63.8692 181.906 66.3601 182.942" fill="#BA8057"/>
<path d="M291.498 112.682C297.095 111.199 306.723 109.128 312.489 109.632C294.156 123.063 275.74 141.194 262.474 159.662C249.235 178.129 236.781 197.296 221.275 213.889C205.77 230.509 186.766 244.668 164.739 250.264C159.729 251.523 143.832 253.929 138.682 253.426C131.629 252.726 86.5676 232.356 93.0609 232.72C164.711 250.096 256.232 121.943 291.498 112.682Z" fill="#328DE5"/>
<path d="M69.3549 183.837C68.8231 182.634 67.6756 181.822 66.724 180.899C65.7724 179.976 64.9327 178.661 65.2966 177.402C65.4925 176.786 65.9403 176.282 66.3881 175.807C67.3677 174.743 68.4312 173.624 69.8586 173.232C71.286 172.841 73.0773 173.568 73.3012 175.023C72.2656 174.072 71.8458 172.477 72.2936 171.134C72.7414 169.791 74.0009 168.755 75.4283 168.588C76.128 170.686 77.5834 172.533 79.4586 173.68" fill="#BA8057"/>
<path d="M124.184 169.343C123.596 168.448 122.561 167.972 121.665 167.384C120.769 166.797 119.902 165.873 120.042 164.81C120.098 164.279 120.377 163.831 120.685 163.383C121.329 162.376 122.001 161.341 123.064 160.837C124.128 160.333 125.667 160.641 126.059 161.76C125.079 161.145 124.52 159.941 124.688 158.794C124.856 157.647 125.723 156.64 126.815 156.304C127.682 157.871 129.11 159.13 130.789 159.802" fill="#BA8057"/>
<path d="M103.92 243.549C111.197 245.115 118.614 245.032 125.975 243.856C133.812 242.625 141.341 240.079 148.618 236.973C156.538 233.615 164.095 229.446 171.4 224.913C179.293 219.989 186.878 214.588 194.238 208.908C201.991 202.92 209.52 196.68 216.853 190.189C223.962 183.921 230.903 177.458 237.732 170.91C244.113 164.782 250.355 158.542 256.568 152.275C261.97 146.818 267.316 141.306 272.662 135.822C276.832 131.541 281.002 127.26 285.312 123.119C286.88 121.608 288.447 120.125 290.098 118.67C290.77 118.082 291.442 117.522 292.113 116.963C292.253 116.851 292.393 116.739 292.533 116.627C292.813 116.403 291.694 117.243 292.365 116.767C292.617 116.571 292.897 116.375 293.149 116.207C293.597 115.9 294.045 115.62 294.52 115.368L292.813 115.816C298.215 115.256 303.644 114.696 309.046 114.137C308.486 112.038 307.927 109.968 307.339 107.869C294.184 116.767 282.485 127.652 271.458 139.012C259.731 151.1 248.704 163.831 237.48 176.338C226.397 188.706 215.118 201.018 202.775 212.182C199.808 214.868 196.785 217.47 193.679 219.989C192.979 220.548 192.279 221.108 191.58 221.667C191.188 221.975 190.796 222.283 190.432 222.563C189.76 223.066 190.992 222.115 190.348 222.647C190.124 222.815 189.9 222.983 189.676 223.15C188.165 224.298 186.654 225.417 185.086 226.508C178.957 230.845 172.492 234.763 165.69 237.952C164.935 238.316 164.151 238.652 163.395 238.988C162.976 239.184 162.556 239.379 162.136 239.547C163.004 239.239 162.276 239.491 162.08 239.547C161.8 239.659 161.52 239.771 161.24 239.883C159.589 240.555 157.91 241.17 156.23 241.73C152.816 242.877 149.345 243.828 145.819 244.556C144.923 244.752 144.028 244.92 143.132 245.059C142.292 245.199 141.257 245.563 140.417 245.479C141.257 245.535 140.697 245.451 140.389 245.479C140.165 245.507 139.941 245.535 139.717 245.563C139.298 245.619 138.878 245.647 138.458 245.703C137.506 245.787 136.527 245.871 135.575 245.955C131.797 246.207 128.018 246.179 124.268 245.899C123.372 245.843 122.505 245.759 121.609 245.675C121.133 245.619 120.629 245.563 120.154 245.507C119.902 245.479 119.678 245.451 119.426 245.423C120.377 245.535 119.51 245.423 119.342 245.423C117.607 245.171 115.647 245.843 115.2 247.774C114.836 249.369 115.675 251.635 117.551 251.915C125.303 253.006 133.084 253.202 140.865 252.195C148.338 251.215 155.587 249.341 162.584 246.57C177.166 240.778 190.152 231.825 202.047 221.695C214.67 210.951 226.117 198.863 237.228 186.607C248.648 174.016 259.703 161.145 271.374 148.805C276.972 142.845 282.737 137.025 288.727 131.457C291.61 128.771 294.576 126.141 297.599 123.622C299.082 122.391 300.566 121.16 302.105 119.957C302.469 119.649 302.861 119.369 303.225 119.061C302.497 119.621 303.672 118.726 303.868 118.558C304.624 117.998 305.38 117.411 306.135 116.851C307.647 115.732 309.186 114.668 310.726 113.605C311.929 112.794 312.741 111.283 312.265 109.828C311.845 108.513 310.53 107.197 309.018 107.365C305.856 107.701 302.665 108.037 299.474 108.345C297.627 108.541 295.808 108.736 293.961 108.904C292.785 109.016 291.638 109.128 290.574 109.744C287.131 111.758 284.137 114.78 281.254 117.55C276.58 122.027 272.046 126.672 267.512 131.317C261.606 137.361 255.701 143.433 249.739 149.449C242.826 156.416 235.829 163.299 228.72 170.043C221.163 177.206 213.466 184.229 205.518 190.972C201.515 194.386 197.485 197.716 193.371 200.962C192.867 201.353 192.391 201.745 191.887 202.137C191.636 202.333 191.384 202.528 191.132 202.724C190.936 202.864 189.956 203.62 190.712 203.06C189.704 203.844 188.669 204.627 187.633 205.411C185.562 206.977 183.491 208.516 181.364 210.027C173.359 215.763 165.075 221.108 156.398 225.725C154.327 226.816 152.256 227.879 150.157 228.859C149.149 229.334 148.114 229.81 147.106 230.258C146.602 230.481 146.127 230.705 145.623 230.901C145.371 231.013 145.147 231.125 144.895 231.209C145.903 230.873 144.839 231.237 144.587 231.321C140.669 232.944 136.667 234.343 132.552 235.462C130.593 235.994 128.578 236.469 126.563 236.861C125.583 237.057 124.632 237.225 123.652 237.365C123.428 237.393 123.176 237.421 122.952 237.477C122.085 237.617 123.54 237.421 122.98 237.477C122.449 237.533 121.945 237.617 121.413 237.673C117.663 238.064 113.884 238.12 110.134 237.756C109.686 237.701 109.266 237.673 108.818 237.617C108.035 237.533 109.658 237.756 108.902 237.617C108.678 237.589 108.454 237.561 108.259 237.533C107.363 237.393 106.467 237.225 105.572 237.029C103.864 236.665 101.849 237.533 101.429 239.379C101.178 241.086 102.073 243.157 103.92 243.549Z" fill="#5BA4EA"/>
<path d="M291.218 111.423C290.994 108.205 287.019 106.386 283.913 107.169C280.778 107.953 278.399 110.415 276.188 112.738C213.746 178.689 137.17 229.334 68.3193 288.542C67.6756 289.101 66.9759 289.885 67.3117 290.668C67.4517 291.004 67.7596 291.256 68.0954 291.452C72.1817 294.026 77.7234 292.683 81.6137 289.745C81.8656 289.549 82.1175 289.353 82.3414 289.157C86.2598 285.828 108.986 262.659 116.291 256.811C156.566 224.661 197.429 199.255 234.122 163.103C248.76 148.693 262.11 132.604 279.407 121.524" fill="#D1B08A"/>
<path d="M90.9058 229.67C87.6592 229.642 86.0359 234.147 87.5192 237.029C89.0026 239.911 92.2492 241.394 95.244 242.625C123.428 254.209 153.264 262.799 178.677 279.644C180.804 281.071 182.931 282.554 185.366 283.365C190.236 284.988 195.526 283.645 200.48 282.33C200.788 282.246 201.096 282.162 201.319 281.938C202.047 281.239 201.235 280.036 200.424 279.42C189.452 270.858 174.787 268.927 162.248 262.911C155.699 259.777 149.737 255.524 143.076 252.642C136.527 249.816 129.474 248.361 122.924 245.535C112.177 240.89 102.941 232.58 91.4656 230.341" fill="#D1B08A"/>
<path d="M137.002 135.094C137.058 137.669 138.542 139.404 140.473 141.334C142.012 142.873 143.888 144.524 146.071 144.3C148.198 144.076 149.709 142.118 150.549 140.131C150.969 139.124 151.276 138.032 151.22 136.941C151.053 133.388 147.302 131.065 143.776 130.478C142.068 130.198 140.193 130.226 138.766 131.205C138.738 131.233 136.946 132.52 137.002 135.094Z" fill="#F4BDCD"/>
<path d="M179.797 124.937C179.013 124.518 178.089 124.518 177.306 124.825C177.166 124.741 176.97 124.713 176.802 124.797C176.41 124.965 176.102 125.329 175.906 125.721C175.85 125.861 175.794 125.973 175.766 126.113C175.738 126.168 175.71 126.224 175.682 126.28C175.626 126.392 175.57 126.504 175.542 126.616C175.486 126.812 175.822 127.875 176.046 128.239C176.326 128.687 176.746 129.023 177.222 129.162C177.502 129.246 177.753 129.023 177.753 128.743C177.753 127.903 177.781 127.064 177.781 126.224C177.809 126.196 177.809 126.168 177.837 126.113C177.865 126.029 177.865 125.945 177.893 125.833L178.985 125.441C179.041 125.469 179.125 125.469 179.181 125.497C179.237 125.525 179.293 125.553 179.377 125.581C179.853 125.917 180.272 125.189 179.797 124.937Z" fill="#4F3041"/>
<path d="M177.333 129.33C177.278 129.33 177.222 129.33 177.194 129.302C176.69 129.162 176.214 128.799 175.934 128.323C175.71 127.987 175.346 126.84 175.402 126.588C175.43 126.448 175.486 126.336 175.57 126.224C175.598 126.168 175.626 126.113 175.654 126.057C175.71 125.917 175.738 125.777 175.794 125.665C175.99 125.245 176.354 124.881 176.746 124.686C176.914 124.602 177.11 124.602 177.306 124.686C178.173 124.378 179.097 124.406 179.852 124.825C180.16 124.993 180.188 125.329 180.076 125.553C179.936 125.805 179.629 125.973 179.321 125.805C179.237 125.777 179.181 125.749 179.153 125.721C179.097 125.693 179.041 125.693 179.013 125.665L178.033 126.001C178.033 126.085 178.005 126.141 177.977 126.196C177.977 126.224 177.949 126.252 177.949 126.28L177.921 128.771C177.921 128.939 177.837 129.106 177.697 129.218C177.557 129.302 177.445 129.33 177.333 129.33ZM177.026 124.881C176.97 124.881 176.914 124.881 176.858 124.909C176.522 125.077 176.214 125.385 176.046 125.749C175.99 125.861 175.962 125.973 175.906 126.113V126.141C175.878 126.196 175.85 126.252 175.822 126.308C175.766 126.42 175.71 126.532 175.682 126.616C175.654 126.756 175.962 127.791 176.186 128.155C176.438 128.575 176.83 128.883 177.306 129.023C177.389 129.051 177.473 129.023 177.529 128.967C177.613 128.911 177.641 128.827 177.641 128.743L177.669 126.196L177.697 126.168C177.697 126.141 177.725 126.113 177.725 126.113C177.753 126.057 177.753 125.973 177.753 125.889V125.805L178.985 125.385H179.041C179.125 125.413 179.181 125.413 179.265 125.441C179.321 125.469 179.377 125.497 179.461 125.553C179.629 125.637 179.768 125.553 179.852 125.413C179.88 125.385 179.964 125.161 179.768 125.049C179.069 124.658 178.201 124.63 177.389 124.937L177.333 124.965L177.278 124.937C177.166 124.909 177.11 124.881 177.026 124.881Z" fill="#4F3041"/>
<path d="M160.96 121.58C161.24 121.608 161.604 121.775 161.856 121.999C161.912 122.055 161.968 122.111 162.024 122.167C161.324 123.119 161.324 124.602 162.248 125.441C162.416 125.581 162.696 125.609 162.836 125.441C163.367 124.825 163.535 124.042 163.423 123.286C163.507 123.23 163.563 123.147 163.619 123.035C163.759 122.475 163.507 121.915 163.004 121.636C162.892 121.58 162.752 121.552 162.64 121.608C162.22 121.16 161.66 120.824 160.988 120.74C160.765 120.712 160.569 120.964 160.569 121.16C160.541 121.412 160.737 121.552 160.96 121.58Z" fill="#4F3041"/>
<path d="M162.556 125.693C162.416 125.693 162.248 125.637 162.136 125.525C161.24 124.713 161.1 123.23 161.828 122.167C161.8 122.139 161.772 122.111 161.772 122.111C161.548 121.915 161.212 121.747 160.96 121.719C160.625 121.691 160.401 121.468 160.401 121.16C160.401 121.02 160.485 120.852 160.597 120.74C160.709 120.628 160.848 120.6 160.96 120.6C161.604 120.656 162.192 120.964 162.64 121.44C162.78 121.412 162.92 121.44 163.032 121.496C163.563 121.803 163.843 122.447 163.703 123.063C163.675 123.174 163.619 123.286 163.535 123.342C163.619 124.154 163.395 124.937 162.92 125.525C162.836 125.637 162.696 125.693 162.584 125.693H162.556ZM160.96 121.44C161.268 121.468 161.66 121.663 161.94 121.887C161.996 121.943 162.052 121.999 162.108 122.055L162.192 122.139L162.136 122.223C161.436 123.174 161.52 124.546 162.36 125.301C162.416 125.357 162.5 125.385 162.584 125.385C162.64 125.385 162.696 125.357 162.724 125.301C163.199 124.741 163.395 124.042 163.283 123.258V123.174L163.367 123.119C163.423 123.091 163.451 123.035 163.479 122.951C163.591 122.447 163.367 121.943 162.948 121.691C162.864 121.663 162.78 121.636 162.696 121.663L162.612 121.691L162.556 121.608C162.136 121.132 161.576 120.852 160.988 120.796C160.904 120.796 160.848 120.824 160.82 120.852C160.764 120.908 160.709 120.992 160.709 121.076C160.681 121.356 160.82 121.44 160.96 121.44Z" fill="#4F3041"/>
<path d="M190.236 121.692C188.417 119.593 185.366 118.698 182.707 119.481C182.204 119.621 182.399 120.432 182.931 120.292C185.338 119.593 188.025 120.376 189.648 122.279C190.012 122.699 190.6 122.111 190.236 121.692Z" fill="#4F3041"/>
<path d="M189.928 122.559C189.788 122.559 189.648 122.503 189.536 122.363C187.941 120.516 185.282 119.733 182.959 120.432C182.763 120.488 182.595 120.46 182.455 120.32C182.315 120.181 182.231 119.957 182.287 119.761C182.343 119.565 182.483 119.425 182.651 119.369C185.394 118.558 188.473 119.453 190.348 121.608C190.488 121.775 190.516 121.971 190.46 122.167C190.404 122.363 190.208 122.531 190.012 122.559C189.984 122.559 189.956 122.559 189.928 122.559ZM184.694 119.929C186.598 119.929 188.473 120.74 189.732 122.223C189.788 122.279 189.872 122.335 189.928 122.307C190.012 122.279 190.124 122.195 190.152 122.083C190.18 122.027 190.18 121.915 190.096 121.803C188.305 119.733 185.338 118.865 182.707 119.649C182.567 119.677 182.539 119.761 182.511 119.845C182.483 119.957 182.511 120.069 182.595 120.153C182.651 120.209 182.735 120.237 182.847 120.209C183.491 120.013 184.107 119.929 184.694 119.929Z" fill="#4F3041"/>
<path d="M163.311 116.263C165.635 115.732 168.181 116.319 170.057 117.83C170.476 118.166 171.064 117.578 170.644 117.243C168.545 115.536 165.746 114.836 163.088 115.452C162.556 115.564 162.78 116.375 163.311 116.263Z" fill="#4F3041"/>
<path d="M170.308 118.082C170.169 118.082 170.057 118.026 169.945 117.942C168.125 116.431 165.662 115.871 163.339 116.403C163.143 116.459 162.948 116.403 162.808 116.235C162.668 116.067 162.612 115.844 162.668 115.648C162.724 115.48 162.864 115.34 163.06 115.312C165.718 114.696 168.601 115.396 170.728 117.131C170.868 117.243 170.952 117.41 170.924 117.578C170.896 117.774 170.728 117.942 170.532 118.026C170.448 118.054 170.392 118.082 170.308 118.082ZM165.047 115.927C166.894 115.927 168.713 116.543 170.141 117.746C170.253 117.83 170.364 117.83 170.42 117.802C170.532 117.774 170.616 117.662 170.644 117.578C170.644 117.494 170.616 117.438 170.56 117.382C168.489 115.676 165.718 115.032 163.143 115.62C163.06 115.648 162.976 115.704 162.976 115.76C162.948 115.871 162.976 115.983 163.06 116.067C163.115 116.123 163.199 116.179 163.311 116.151C163.871 115.983 164.459 115.927 165.047 115.927Z" fill="#4F3041"/>
<path d="M173.751 146.874C172.324 149.421 169.385 150.428 166.614 150.624C163.116 150.876 159.701 149.812 156.258 149.365C154.075 149.085 151.808 149.057 149.681 149.756C149.177 149.924 149.401 150.736 149.905 150.568C153.851 149.309 157.994 150.568 161.94 151.211C164.935 151.687 168.125 151.715 170.924 150.456C172.408 149.812 173.667 148.721 174.451 147.322C174.731 146.818 174.003 146.399 173.751 146.874Z" fill="#4F3041"/>
<path d="M165.522 151.631C164.403 151.631 163.199 151.519 161.912 151.323C161.156 151.211 160.373 151.044 159.617 150.904C156.398 150.288 153.096 149.644 149.933 150.68C149.737 150.736 149.569 150.708 149.429 150.596C149.289 150.456 149.205 150.232 149.261 150.036C149.317 149.84 149.429 149.7 149.625 149.617C151.5 149.001 153.599 148.889 156.258 149.225C157.378 149.365 158.497 149.589 159.561 149.784C161.856 150.204 164.207 150.652 166.586 150.484C168.517 150.344 171.988 149.7 173.611 146.818C173.779 146.511 174.115 146.483 174.367 146.623C174.619 146.762 174.759 147.07 174.591 147.378C173.807 148.777 172.576 149.868 171.008 150.568C169.413 151.267 167.594 151.631 165.522 151.631ZM153.627 149.84C155.643 149.84 157.686 150.232 159.701 150.624C160.457 150.764 161.24 150.904 161.968 151.044C165.55 151.631 168.461 151.379 170.868 150.316C172.38 149.644 173.583 148.581 174.339 147.238C174.451 147.042 174.311 146.902 174.227 146.846C174.115 146.79 173.947 146.762 173.863 146.93C172.184 149.924 168.601 150.596 166.614 150.736C164.207 150.904 161.828 150.456 159.533 150.036C158.469 149.84 157.35 149.617 156.23 149.477C153.627 149.141 151.556 149.253 149.737 149.84C149.597 149.896 149.569 149.98 149.541 150.036C149.513 150.148 149.541 150.26 149.625 150.344C149.681 150.4 149.765 150.4 149.849 150.372C151.109 150.008 152.368 149.84 153.627 149.84Z" fill="#4F3041"/>
<path d="M147.078 136.801C146.155 136.046 144.475 136.577 144.195 137.725C143.916 138.9 145.175 140.131 146.322 139.795C147.47 139.459 147.862 137.697 146.938 136.913" fill="#FF7B9C"/>
<path d="M140.95 134.927C140.586 134.395 139.83 134.199 139.242 134.479C138.822 135.57 139.102 136.885 139.914 137.753C140.782 137.193 141.202 135.99 140.838 134.982" fill="#FF7B9C"/>
<path d="M198.577 113.829C203.67 108.596 204.23 108.289 211.423 107.03C218.616 105.77 226.145 104.763 232.162 100.65C228.944 106.778 225.697 112.934 222.479 119.061C221.387 121.104 214.81 129.498 211.171 130.338" fill="#F4BDCD"/>
<path d="M85.1404 289.941C87.9672 288.122 78.5072 288.822 75.2046 288.318C71.874 287.814 68.3195 287.814 65.3527 289.381C65.3247 289.409 70.0548 299.706 85.1404 289.941Z" fill="#D8CA8B"/>
<path d="M85.3362 290.305C85.644 290.081 86.0639 289.801 86.0639 289.381C86.0639 288.961 85.728 288.738 85.3921 288.598C84.9723 288.43 84.4965 288.374 84.0487 288.318C83.405 288.234 82.7892 288.206 82.1455 288.178C80.6621 288.122 79.1508 288.122 77.6674 288.066C77.0236 288.038 76.3519 288.01 75.7082 287.954C74.7846 287.87 73.805 287.702 72.8534 287.646C70.2225 287.478 67.5076 287.786 65.1286 289.045C64.9047 289.157 64.8768 289.409 64.9887 289.633C65.5485 290.864 66.584 291.899 67.6476 292.711C70.2505 294.67 73.6371 294.921 76.7438 294.25C79.8225 293.522 82.7053 292.011 85.3362 290.305C85.784 289.997 85.3641 289.269 84.9163 289.577C82.5653 291.088 80.0464 292.431 77.3315 293.187C75.5962 293.662 73.721 293.886 71.9298 293.606C70.6423 293.382 69.4388 292.935 68.3473 292.179C67.9275 291.899 67.5916 291.592 67.1998 291.228C67.0318 291.06 66.8919 290.892 66.724 290.724C66.668 290.64 66.584 290.584 66.5281 290.5C66.5001 290.472 66.4721 290.416 66.4441 290.389C66.4161 290.361 66.4161 290.361 66.4161 290.333C66.4721 290.388 66.3601 290.249 66.4161 290.333C66.1362 289.969 65.8843 289.605 65.6884 289.185L65.5485 289.773C67.5076 288.738 69.6907 288.43 71.8738 288.458C73.5251 288.486 75.1204 288.794 76.7718 288.878C78.1152 288.961 79.4586 288.961 80.8021 288.989C81.9776 289.017 83.209 289.017 84.3566 289.213C84.5805 289.241 84.8044 289.297 85.0003 289.353C85.0283 289.353 85.0843 289.381 85.1123 289.381C85.1962 289.409 85.0843 289.353 85.1402 289.409C85.1682 289.437 85.1962 289.437 85.2242 289.465C85.3082 289.521 85.1962 289.437 85.2242 289.465C85.2522 289.493 85.1962 289.437 85.1962 289.381C85.1962 289.381 85.1962 289.269 85.1962 289.325C85.2242 289.269 85.1962 289.381 85.1962 289.325C85.2522 289.269 85.1402 289.409 85.1962 289.325C85.1682 289.353 85.1402 289.381 85.1123 289.409C85.0283 289.493 85.0283 289.493 84.8883 289.577C84.4685 289.885 84.8883 290.612 85.3362 290.305Z" fill="#D8CA8B"/>
<path d="M97.6232 285.548C97.8471 284.96 98.8547 285.268 99.3865 285.604C99.9182 285.94 100.366 286.443 100.982 286.639C101.57 286.863 102.241 286.779 102.857 286.667C104.424 286.443 105.992 286.219 107.559 285.995C108.371 285.884 109.238 285.772 110.022 285.967C110.638 286.107 111.253 286.471 111.897 286.471C112.849 286.499 113.716 285.8 114.668 285.828C115.732 285.856 116.795 286.723 117.747 286.247C117.747 286.247 92.8092 297.887 97.6232 285.548Z" fill="#D8CA8B"/>
<path d="M97.9868 285.744C98.1548 285.408 98.8825 285.8 99.1064 285.912C99.6381 286.219 100.086 286.695 100.646 286.947C101.345 287.255 102.101 287.199 102.829 287.087C103.612 286.975 104.396 286.863 105.18 286.751C106.019 286.639 106.831 286.527 107.671 286.387C108.398 286.275 109.182 286.163 109.91 286.359C110.638 286.555 111.253 286.891 112.009 286.863C112.653 286.835 113.212 286.555 113.8 286.359C114.136 286.247 114.5 286.163 114.864 286.219C115.228 286.275 115.563 286.415 115.927 286.527C116.627 286.751 117.271 286.891 117.942 286.583L117.523 285.856C117.299 285.968 117.103 286.051 116.879 286.135C116.627 286.247 116.375 286.359 116.123 286.471C115.759 286.639 115.507 286.723 115.2 286.863C113.352 287.618 111.505 288.346 109.602 288.961C107.503 289.661 105.376 290.277 103.165 290.584C102.269 290.724 101.317 290.78 100.422 290.724C100.002 290.696 99.7501 290.668 99.3023 290.556C99.1343 290.5 98.9664 290.472 98.7985 290.389C98.6865 290.333 98.7705 290.388 98.6306 290.333C98.5466 290.305 98.4906 290.249 98.4067 290.221C98.1548 290.081 97.9588 289.913 97.7909 289.689C97.623 289.465 97.511 289.241 97.4271 288.906C97.2591 288.15 97.3991 287.255 97.679 286.415C97.7629 286.135 97.8749 285.856 97.9588 285.576C98.1548 285.072 97.3431 284.848 97.1472 285.352C96.5314 286.919 95.9997 289.129 97.3711 290.472C98.5746 291.648 100.534 291.648 102.073 291.508C104.312 291.312 106.523 290.752 108.678 290.081C110.721 289.437 112.737 288.71 114.724 287.898C115.424 287.618 116.151 287.311 116.851 287.003C117.187 286.863 117.551 286.723 117.858 286.555C117.858 286.555 117.886 286.527 117.914 286.527C118.418 286.303 117.97 285.576 117.495 285.8C116.935 286.051 116.235 285.688 115.703 285.52C115.06 285.324 114.444 285.268 113.772 285.436C113.156 285.604 112.541 285.968 111.869 285.968C111.141 285.94 110.442 285.52 109.714 285.408C108.93 285.296 108.175 285.408 107.391 285.52C106.579 285.632 105.768 285.744 104.984 285.856C104.2 285.968 103.333 286.107 102.493 286.219C101.653 286.331 101.066 286.275 100.394 285.772C99.8341 285.38 99.3583 284.96 98.6865 284.764C98.1548 284.624 97.4551 284.652 97.1752 285.212C97.0073 285.8 97.7349 286.219 97.9868 285.744Z" fill="#D8CA8B"/>
<path d="M180.133 283.897C176.83 282.75 186.766 281.547 190.236 281.043C195.33 280.287 200.592 280.987 205.686 280.231C205.686 280.231 194.043 288.738 180.133 283.897Z" fill="#D8CA8B"/>
<path d="M180.244 283.505C180.104 283.449 180.104 283.449 180.02 283.421C179.992 283.393 179.936 283.365 179.908 283.365C179.852 283.337 179.853 283.337 179.88 283.337C179.88 283.281 179.797 283.281 179.88 283.337C179.88 283.281 179.908 283.421 179.88 283.365C179.908 283.449 179.908 283.393 179.88 283.477C179.88 283.477 179.88 283.533 179.88 283.505C179.908 283.561 179.797 283.561 179.88 283.505C179.964 283.449 180.02 283.421 180.104 283.365C180.244 283.281 180.412 283.225 180.636 283.17C181.98 282.722 183.379 282.498 184.75 282.274C186.262 282.022 187.773 281.798 189.313 281.603C191.636 281.267 193.959 281.099 196.31 281.071C199.472 281.043 202.635 281.099 205.77 280.651L205.434 279.896C204.006 280.931 202.355 281.742 200.732 282.47C196.981 284.093 192.923 285.016 188.837 285.016C185.926 284.96 183.015 284.457 180.244 283.505C179.713 283.337 179.517 284.149 180.02 284.317C184.806 285.968 189.928 286.219 194.882 285.184C198.185 284.513 201.375 283.281 204.286 281.603C204.846 281.295 205.378 280.959 205.91 280.595C206.301 280.315 206.049 279.756 205.574 279.84C202.607 280.26 199.584 280.204 196.589 280.232C195.106 280.26 193.595 280.287 192.111 280.399C191.104 280.483 190.124 280.623 189.117 280.763C187.493 280.987 185.842 281.211 184.219 281.491C182.847 281.715 181.392 281.938 180.076 282.442C179.685 282.61 179.125 282.806 179.041 283.309C178.957 283.869 179.573 284.121 179.992 284.289C180.524 284.485 180.748 283.673 180.244 283.505Z" fill="#D8CA8B"/>
<path d="M228.272 280.819C227.796 280.567 229.336 280.595 229.868 280.511C232.554 280.176 235.241 279.84 237.928 279.504C239.775 279.28 241.651 279.028 243.498 278.777C244.673 278.609 245.877 278.469 247.08 278.301C247.108 278.273 241.623 288.178 228.272 280.819Z" fill="#D8CA8B"/>
<path d="M228.496 280.455C228.72 280.595 228.16 281.015 228.44 281.043C228.468 281.043 228.524 281.015 228.58 281.015C228.776 280.987 228.972 280.987 229.168 280.959C229.588 280.931 229.979 280.903 230.371 280.847C231.715 280.679 233.058 280.511 234.402 280.343C237.116 280.008 239.803 279.672 242.518 279.308C244.057 279.112 245.569 278.888 247.108 278.693L246.744 278.049C246.688 278.133 246.632 278.217 246.576 278.301C246.52 278.385 246.436 278.497 246.381 278.581C246.325 278.637 246.297 278.693 246.241 278.749C246.213 278.776 246.185 278.804 246.185 278.832C246.157 278.888 246.241 278.776 246.157 278.888C245.597 279.616 244.925 280.259 244.197 280.819C241.874 282.61 238.908 283.309 235.997 283.002C233.366 282.75 230.819 281.714 228.496 280.455C228.02 280.204 227.6 280.931 228.076 281.183C231.827 283.253 236.277 284.68 240.559 283.589C242.91 282.974 245.037 281.603 246.576 279.756C246.912 279.364 247.22 278.944 247.472 278.525C247.612 278.273 247.444 277.853 247.108 277.881C244.113 278.273 241.091 278.693 238.096 279.084C236.557 279.28 235.045 279.476 233.506 279.672C232.162 279.84 230.819 280.092 229.476 280.176C229.056 280.204 228.58 280.176 228.188 280.287C227.712 280.427 227.628 280.959 228.048 281.211C228.524 281.463 228.944 280.735 228.496 280.455Z" fill="#D8CA8B"/>
<path d="M125.247 147.21C124.716 147.126 124.24 147.462 123.848 147.742C122.728 148.497 121.693 149.365 120.769 150.344C120.517 150.624 120.321 150.876 120.265 151.267C120.209 151.715 120.433 152.219 120.881 152.331C121.413 152.471 121.861 152.079 122.253 151.771C122.784 151.351 123.316 150.932 123.848 150.484C124.324 150.092 124.828 149.728 125.303 149.309C125.667 149.001 125.975 148.581 125.975 148.106C126.003 147.686 125.723 147.294 125.247 147.21ZM125.303 148.777C125.023 149.113 124.632 149.365 124.296 149.644C123.848 150.008 123.372 150.372 122.924 150.736L122.141 149.589C122.449 149.309 122.756 149.057 123.092 148.805C123.456 148.525 123.82 148.245 124.212 147.994C124.52 147.798 125.107 147.406 125.443 147.77C125.751 148.05 125.527 148.525 125.303 148.777Z" fill="#328DE5"/>
<path d="M120.601 145.811C120.965 146.007 121.217 145.867 121.077 145.559C120.07 143.489 119.594 141.362 118.026 139.208C117.411 138.368 116.571 137.361 115.535 136.969C115.116 136.801 114.724 136.773 114.388 136.773C113.52 136.773 112.737 136.969 112.373 137.473C112.009 137.976 112.121 138.816 112.709 139.711C114.332 142.118 118.642 144.832 120.601 145.811Z" fill="#328DE5"/>
<path d="M113.576 138.9C113.884 138.256 114.024 137.92 114.668 137.809C115.312 137.697 116.515 138.2 117.075 138.928C117.243 139.152 117.327 139.375 117.411 139.599C117.635 140.327 117.663 140.998 117.243 141.362C116.823 141.726 115.843 141.642 114.948 141.11C114.052 140.579 113.212 139.627 113.576 138.9Z" fill="#DAE3E8"/>
<path d="M114.612 139.32C114.752 139.012 114.836 138.872 115.116 138.816C115.424 138.76 115.984 138.984 116.236 139.348C116.32 139.459 116.348 139.571 116.404 139.655C116.516 139.991 116.516 140.299 116.32 140.467C116.124 140.635 115.676 140.579 115.256 140.355C114.836 140.103 114.472 139.655 114.612 139.32Z" fill="#3D3D3D"/>
</svg>
