<svg width="291" height="305" viewBox="0 0 291 305" fill="none" xmlns="http://www.w3.org/2000/svg">
<path d="M7.00097 178.636C5.13615 269.755 43.9022 268.897 139.838 286.203C276.016 310.765 339.898 181.713 229.136 69.3596C109.998 -51.4936 9.45507 58.6677 7.00097 178.636Z" fill="#DDEFF8"/>
<path d="M159.875 144.41C146.482 142.528 133.254 139.468 120.392 135.281C119.358 134.944 118.26 134.598 117.205 134.862C116.521 135.034 115.93 135.446 115.352 135.854C113.638 137.063 111.921 138.271 110.207 139.481C119.026 149.753 130.509 157.722 143.218 162.392" fill="#E2AABD"/>
<path d="M113.412 143.241C112.898 142.468 112.001 142.058 111.227 141.544C110.454 141.03 109.707 140.232 109.811 139.306C109.862 138.85 110.114 138.448 110.359 138.06C110.907 137.194 111.502 136.287 112.428 135.846C113.354 135.405 114.693 135.684 115.025 136.651C114.181 136.12 113.691 135.07 113.83 134.084C113.965 133.094 114.719 132.219 115.677 131.936C116.424 133.301 117.663 134.389 119.111 134.954" fill="#BA8057"/>
<mask id="mask0_1355_2872" style="mask-type:luminance" maskUnits="userSpaceOnUse" x="6" y="16" width="280" height="274">
<path d="M7.00097 178.636C5.13615 269.755 43.9022 268.897 139.838 286.203C276.016 310.765 339.898 181.713 229.136 69.3596C109.998 -51.4936 9.45507 58.6677 7.00097 178.636Z" fill="white"/>
</mask>
<g mask="url(#mask0_1355_2872)">
<path d="M10.4493 232.084C49.6616 227.804 89.2473 231.819 128.692 231.938C181.87 232.101 235.065 225.13 286.405 211.274C288.114 220.468 283.878 229.613 279.753 238.009C274.83 248.034 269.827 258.181 262.54 266.647C252.51 278.302 238.736 286.084 224.693 292.349C192.319 306.797 156.107 314.392 121.119 308.673C107.51 306.447 94.284 302.258 81.4533 297.2C68.8094 292.216 56.3594 286.288 45.8834 277.63C31.3528 265.622 21.4322 249.079 11.7976 232.879" fill="#EADC96"/>
</g>
<path d="M199.367 209.204C197.485 210.322 195.448 211.153 193.316 211.66C192.678 211.813 192.021 211.944 191.359 212.028C191.379 211.987 191.398 211.948 191.417 211.907C192.472 209.446 192.346 206.496 190.62 204.367C189.072 202.461 186.361 201.382 183.958 202.122C181.72 202.81 180.097 205.073 180.054 207.398C180 210.166 182.406 212.108 184.734 213.124C185.437 213.432 186.165 213.67 186.909 213.844C186.466 214.176 186.005 214.48 185.534 214.751C183.805 215.752 181.851 216.38 179.86 216.55C175.965 216.882 172.034 215.43 169.253 212.69C168.911 212.353 168.591 211.999 168.285 211.628C168.043 211.333 167.655 211.623 167.684 211.936L163.763 212.518C163.697 212.455 163.627 212.394 163.561 212.329C163.229 211.999 162.713 212.513 163.047 212.843C166.811 216.569 172.059 218.616 177.333 218.705C179.947 218.749 182.586 218.308 185.02 217.348C186.851 216.625 188.626 215.619 189.938 214.181C193.045 214.172 196.151 213.1 198.523 211.071C198.986 210.673 199.415 210.239 199.808 209.774C200.063 209.473 199.742 208.981 199.367 209.201V209.204ZM188.784 212.091C188.18 212.031 187.581 211.91 187.001 211.708C185.321 211.122 183.805 209.631 183.614 207.793C183.451 206.246 184.387 204.925 185.828 204.403C187.239 203.892 188.823 204.207 189.715 205.475C190.797 207.012 190.634 209.044 189.778 210.639C189.499 211.156 189.162 211.64 188.784 212.091Z" fill="#F4BDCD"/>
<path d="M123.061 244.002C103.911 244.378 85.7141 246.536 66.6269 248.156C63.4938 248.422 60.2564 248.735 57.4992 250.248C54.742 251.761 52.5716 254.806 53.0784 257.912C53.7453 262.002 58.3407 264.07 62.3831 264.979C73.1356 267.396 84.3197 266.635 95.3074 265.782C130.812 263.027 164.716 266.043 199.929 260.734C243.334 254.188 259.72 236.45 263.251 228.449C263.515 227.848 263.75 227.181 263.573 226.549C263.304 225.579 262.213 225.111 261.231 224.878C255.685 223.559 249.952 225.458 244.486 227.072C205.257 238.661 163.278 236.256 123.125 244.068" fill="#D8CA8B"/>
<path d="M142.34 219.166C156.929 227.436 171.52 235.703 186.109 243.973C193.02 247.891 200.548 251.943 208.438 251.014C209.838 250.849 211.622 249.858 211.116 248.543C210.907 248.003 210.364 247.683 209.857 247.404C203.528 243.925 197.199 240.448 190.869 236.969C180.175 231.092 169.478 225.215 158.784 219.336C154.594 217.032 149.302 214.749 145.321 217.399" fill="#D1B08A"/>
<path d="M278.519 101.06C278.334 98.2764 274.891 96.6957 272.182 97.3624C269.473 98.0291 267.414 100.165 265.499 102.19C211.395 159.332 145.051 203.218 85.3843 254.53C84.8289 255.007 84.2178 255.701 84.4991 256.375C84.6228 256.668 84.8944 256.872 85.166 257.041C88.9442 259.422 94.1191 257.953 97.5214 255.061C100.924 252.166 118.66 233.79 125.001 228.728C159.89 200.861 197.235 177.167 229.041 145.83C241.717 133.342 253.279 119.391 268.27 109.805" fill="#D1B08A"/>
<path d="M153.558 104.18C153.616 97.8982 157.317 92.0964 162.114 88.0378C166.913 83.9817 172.75 81.3923 178.497 78.8563C178.087 83.3659 176.184 87.5917 174.212 91.6721C173.324 93.5099 172.405 95.3574 171.12 96.943C167.747 101.111 162.354 102.961 157.256 104.616" fill="#F4BDCD"/>
<path d="M109.324 162.937C95.7439 163.192 82.125 161.24 69.1634 157.179C68.6687 157.024 68.1546 156.864 67.6405 156.927C66.6293 157.053 65.9382 157.974 65.3659 158.816C63.2998 161.863 61.2337 164.913 59.17 167.961C60.5377 169.789 62.8827 170.545 65.0846 171.156C77.6073 174.638 90.4816 176.847 103.448 177.736C104.222 177.79 105.044 177.829 105.72 177.45C106.521 177.004 106.921 176.09 107.238 175.23C108.57 171.627 109.406 167.845 109.722 164.016" fill="#F4BDCD"/>
<path d="M145.078 140.116C133.685 145.258 121.437 148.597 110.716 155.021C99.9949 161.446 90.6223 171.998 90.0815 184.484C89.8754 189.231 90.9593 193.956 92.5404 198.439C94.4732 203.923 97.3031 209.315 101.911 212.862C106.656 216.514 112.881 217.75 118.866 217.551C183.199 215.396 187.564 181.938 192.414 169.088C194.531 163.478 194.063 154.025 193.648 148.044C193.234 142.06 190.763 136.055 186.141 132.234" fill="#FFCAD7"/>
<path d="M109.724 155.026C111.092 156.854 113.361 177.816 138.824 173.695L109.724 155.026Z" fill="#F4BDCD"/>
<path d="M122.334 177.574C120.29 176.556 106.086 169.816 87.9014 173.452L122.334 177.574Z" fill="#F4BDCD"/>
<path d="M173.499 135.873C163.557 159.633 128.639 155.754 121.364 148.723L143.116 140.734L173.499 135.875V135.873Z" fill="#F4BDCD"/>
<path d="M113.897 157.128L83.3982 117.745L96.4544 114.896L120.421 145.847L113.897 157.128Z" fill="#ADA6AA"/>
<path d="M113.07 154.701L85.6146 119.246L96.8375 115.961L119.633 145.396L113.07 154.701Z" fill="#E6E6E6"/>
<path d="M113.878 157.094L83.4345 117.784L82.587 118.44L113.031 157.75L113.878 157.094Z" fill="#D6D2D5"/>
<path d="M170.601 141.076C164.859 142.984 159.051 144.907 153.022 145.421C146.994 145.935 140.628 144.911 135.713 141.381C133.843 140.038 132.209 138.356 130.191 137.248C128.346 136.234 126.221 135.725 124.546 134.455C120.464 131.359 120.605 125.292 121.138 120.201C127.465 120.967 134.073 119.045 139.001 115.005C141.962 112.578 144.287 109.475 147.04 106.815C153.083 100.98 161.248 97.3939 169.634 96.8897C172.107 96.7418 174.675 96.8703 176.909 97.9443C179.457 99.1687 181.298 101.486 182.843 103.858C190.362 115.403 192.797 130.137 189.388 143.486C188.301 147.741 186.555 151.996 183.337 154.985" fill="#FFCAD7"/>
<path d="M123.639 176.355C113.034 175.899 102.447 175.106 91.8929 173.979C80.8592 172.8 69.6363 171.19 59.7035 166.247C58.7092 165.752 57.6495 165.209 56.5486 165.35C55.2366 165.515 54.2545 166.591 53.3961 167.595C50.9226 170.49 48.4466 173.387 45.9731 176.282C45.5997 176.721 45.2068 177.198 45.1559 177.77C45.1001 178.408 45.476 178.992 45.8422 179.516C58.2533 197.239 90.0839 222.907 126.216 216.118" fill="#FFCAD7"/>
<path d="M193.384 145.813C199.204 170.301 115.059 222.667 80.6264 208.605C119.666 200.847 193.384 145.813 193.384 145.813Z" fill="#F4BDCD"/>
<path d="M154.055 154.835C140.662 152.953 127.434 149.894 114.572 145.707C113.539 145.37 112.44 145.023 111.385 145.287C110.701 145.459 110.11 145.872 109.532 146.279C107.818 147.489 106.101 148.696 104.387 149.906C113.206 160.178 124.689 168.148 137.398 172.817" fill="#FFCAD7"/>
<path d="M165.991 104.84C170.994 99.7069 178.424 97.9055 185.486 96.6787C192.547 95.452 199.953 94.4628 205.861 90.4042C202.686 96.4363 199.514 102.468 196.34 108.501C195.278 110.52 194.213 112.545 192.909 114.414C190.767 117.486 187.988 120.111 184.8 122.078" fill="#FFCAD7"/>
<path d="M45.1317 179.198C43.4512 177.79 41.8191 176.321 40.2429 174.796C39.8694 174.434 39.479 174.029 39.4135 173.513C39.3359 172.897 39.7506 172.337 40.141 171.855C40.9607 170.836 41.7828 169.821 42.6024 168.802C43.2693 167.975 43.9774 167.117 44.9571 166.705C45.9368 166.293 47.2681 166.509 47.7604 167.449C48.3206 166.775 47.5906 165.835 47.2851 165.013C46.8704 163.893 47.3457 162.6 48.1557 161.728C48.9656 160.855 50.0641 160.309 51.136 159.783C51.3494 159.679 51.5798 159.57 51.815 159.599C52.2806 159.655 52.5134 160.176 52.6928 160.61C53.5877 162.768 55.3676 164.54 57.5283 165.425" fill="#BA8057"/>
<path d="M252.554 104.57C257.409 103.295 265.739 101.482 270.739 101.933C254.86 113.575 238.892 129.293 227.412 145.287C215.932 161.282 205.145 177.887 191.718 192.286C178.291 206.685 161.806 218.96 142.723 223.807C138.387 224.907 124.606 226.978 120.154 226.546C114.045 225.952 74.9931 208.292 80.6288 208.605C142.706 223.637 222.001 112.6 252.556 104.57H252.554Z" fill="#328DE5"/>
<path d="M60.0915 166.23C59.638 165.178 58.6414 164.484 57.8144 163.691C56.9875 162.899 56.26 161.764 56.5898 160.666C56.7523 160.125 57.1451 159.691 57.5283 159.274C58.3843 158.345 59.3058 157.376 60.5231 157.046C61.7405 156.716 63.307 157.347 63.4938 158.595C62.5868 157.764 62.2255 156.386 62.6086 155.215C62.9918 154.044 64.1 153.15 65.3222 153.016C65.9285 154.837 67.1895 156.43 68.8215 157.436" fill="#BA8057"/>
<path d="M107.592 153.666C107.078 152.893 106.181 152.483 105.407 151.969C104.634 151.455 103.887 150.657 103.991 149.731C104.042 149.275 104.294 148.873 104.539 148.485C105.087 147.62 105.682 146.713 106.608 146.272C107.534 145.83 108.873 146.109 109.205 147.076C108.361 146.546 107.871 145.496 108.01 144.509C108.148 143.522 108.899 142.645 109.857 142.361C110.604 143.726 111.843 144.814 113.291 145.379" fill="#BA8057"/>
<path d="M90.0354 217.956C96.3525 219.319 102.772 219.236 109.132 218.233C115.922 217.163 122.453 214.95 128.76 212.266C135.621 209.344 142.183 205.754 148.505 201.812C155.346 197.547 161.92 192.858 168.3 187.934C175.015 182.753 181.536 177.329 187.896 171.719C194.056 166.288 200.072 160.697 205.989 155.004C211.506 149.697 216.936 144.3 222.314 138.855C226.987 134.127 231.619 129.361 236.265 124.606C239.886 120.902 243.504 117.192 247.234 113.594C248.589 112.285 249.962 110.99 251.378 109.744C251.953 109.238 252.537 108.74 253.136 108.26C253.255 108.163 253.376 108.071 253.497 107.974C253.747 107.776 252.78 108.51 253.352 108.088C253.58 107.921 253.808 107.751 254.043 107.591C254.426 107.329 254.819 107.08 255.231 106.866L253.762 107.264C258.449 106.779 263.139 106.294 267.827 105.809C267.337 104.003 266.847 102.194 266.357 100.388C254.965 108.096 244.83 117.524 235.276 127.375C225.122 137.844 215.566 148.868 205.836 159.725C196.224 170.453 186.453 181.099 175.762 190.775C173.193 193.098 170.572 195.362 167.885 197.547C167.279 198.039 166.668 198.529 166.054 199.014C165.722 199.278 165.387 199.537 165.053 199.799C164.478 200.248 165.55 199.421 164.973 199.862C164.776 200.013 164.582 200.163 164.386 200.311C163.079 201.305 161.755 202.279 160.414 203.227C155.101 206.99 149.509 210.38 143.611 213.148C142.951 213.459 142.287 213.759 141.62 214.055C141.259 214.215 140.897 214.392 140.529 214.528C141.288 214.254 140.643 214.479 140.492 214.54C140.247 214.642 140.005 214.741 139.76 214.838C138.327 215.415 136.879 215.954 135.414 216.448C132.466 217.447 129.456 218.271 126.406 218.899C125.632 219.059 124.856 219.205 124.08 219.338C123.36 219.462 122.458 219.762 121.733 219.699C122.455 219.76 121.982 219.665 121.718 219.699C121.522 219.724 121.323 219.748 121.126 219.772C120.763 219.816 120.401 219.855 120.038 219.891C119.208 219.976 118.376 220.044 117.545 220.099C114.281 220.313 111.002 220.296 107.738 220.058C106.969 220.002 106.203 219.935 105.437 219.852C105.015 219.809 104.593 219.76 104.173 219.709C103.962 219.682 103.751 219.656 103.538 219.629C104.35 219.731 103.615 219.639 103.463 219.617C101.962 219.406 100.262 219.983 99.8833 221.649C99.5705 223.021 100.303 224.999 101.915 225.227C108.63 226.175 115.379 226.345 122.111 225.467C128.578 224.624 134.876 223.004 140.939 220.596C153.575 215.575 164.825 207.824 175.138 199.05C186.082 189.74 195.986 179.271 205.625 168.64C215.507 157.742 225.108 146.587 235.198 135.878C240.058 130.718 245.034 125.663 250.228 120.839C252.734 118.511 255.289 116.239 257.908 114.043C259.191 112.969 260.489 111.912 261.803 110.874C262.128 110.617 262.455 110.362 262.783 110.108C262.145 110.605 263.173 109.81 263.34 109.684C263.995 109.187 264.652 108.697 265.314 108.212C266.624 107.254 267.95 106.318 269.296 105.409C270.332 104.709 271.047 103.397 270.632 102.124C270.266 100.992 269.119 99.8548 267.827 99.9881C265.074 100.272 262.322 100.558 259.57 100.842C257.981 101.006 256.393 101.171 254.804 101.334C253.774 101.44 252.784 101.535 251.868 102.073C248.875 103.826 246.281 106.447 243.79 108.828C239.731 112.707 235.814 116.736 231.891 120.751C226.769 125.993 221.66 131.249 216.497 136.452C210.509 142.487 204.457 148.458 198.287 154.306C191.737 160.515 185.059 166.591 178.191 172.444C174.731 175.392 171.224 178.284 167.657 181.102C167.23 181.439 166.804 181.776 166.374 182.11C166.161 182.278 165.948 182.445 165.732 182.612C165.569 182.738 164.723 183.393 165.356 182.905C164.473 183.587 163.588 184.263 162.698 184.935C160.906 186.285 159.099 187.616 157.276 188.923C150.35 193.883 143.17 198.522 135.642 202.522C133.858 203.47 132.053 204.382 130.23 205.249C129.35 205.666 128.467 206.074 127.577 206.471C127.15 206.661 126.723 206.85 126.294 207.034C126.083 207.126 125.872 207.233 125.654 207.308C126.517 207.007 125.605 207.327 125.389 207.415C121.99 208.813 118.517 210.04 114.972 211.012C113.262 211.483 111.533 211.89 109.792 212.23C108.955 212.392 108.116 212.537 107.272 212.666C107.071 212.697 106.867 212.727 106.666 212.756C105.914 212.865 107.173 212.698 106.683 212.756C106.23 212.809 105.778 212.867 105.325 212.913C102.078 213.25 98.7945 213.301 95.545 212.981C95.1619 212.942 94.7811 212.899 94.4004 212.853C93.7311 212.773 95.1279 212.962 94.4635 212.86C94.2743 212.831 94.0852 212.804 93.896 212.775C93.12 212.654 92.3464 212.508 91.5777 212.341C90.0936 212.021 88.3597 212.782 87.9984 214.373C87.6638 215.837 88.4398 217.61 90.0306 217.951L90.0354 217.956Z" fill="#5BA4EA"/>
<path d="M252.331 103.484C252.147 100.701 248.703 99.1202 245.994 99.7869C243.286 100.454 241.227 102.59 239.311 104.614C185.207 161.757 118.864 205.642 59.1967 256.954C58.6414 257.432 58.0303 258.125 58.3116 258.799C58.4352 259.092 58.7068 259.296 58.9784 259.466C62.5286 261.704 67.3132 260.54 70.6985 257.992C70.9167 257.829 71.1277 257.66 71.3314 257.485C74.7337 254.59 94.4101 234.518 100.751 229.456C135.64 201.589 171.045 179.591 202.851 148.255C215.527 135.766 227.089 121.816 242.08 112.229" fill="#D1B08A"/>
<path d="M78.7543 205.933C75.9389 205.904 74.5348 209.817 75.8297 212.317C77.1247 214.817 79.9159 216.094 82.5179 217.163C106.952 227.206 132.795 234.634 154.807 249.242C156.657 250.469 158.505 251.761 160.613 252.459C164.827 253.858 169.418 252.711 173.708 251.557C173.972 251.487 174.248 251.409 174.442 251.215C175.066 250.599 174.357 249.579 173.666 249.038C164.156 241.619 151.461 239.958 140.582 234.746C134.912 232.03 129.735 228.343 123.966 225.848C118.296 223.397 112.168 222.146 106.499 219.695C97.194 215.672 89.1818 208.46 79.232 206.52" fill="#D1B08A"/>
<path d="M118.696 123.995C118.747 126.226 120.025 127.736 121.706 129.399C123.049 130.731 124.662 132.163 126.544 131.972C128.389 131.785 129.708 130.076 130.412 128.357C130.771 127.482 131.035 126.546 130.991 125.598C130.851 122.519 127.589 120.499 124.548 120.005C123.069 119.765 121.442 119.784 120.215 120.64C120.215 120.64 118.646 121.76 118.694 123.99L118.696 123.995Z" fill="#F4BDCD"/>
<path d="M155.78 115.187C155.105 114.821 154.31 114.819 153.621 115.09C153.488 115.022 153.342 115.003 153.192 115.073C152.857 115.231 152.579 115.531 152.421 115.864C152.37 115.973 152.331 116.087 152.297 116.201C152.268 116.252 152.239 116.3 152.212 116.353C152.159 116.443 152.115 116.54 152.089 116.647C152.047 116.809 152.334 117.747 152.53 118.063C152.765 118.446 153.124 118.732 153.556 118.855C153.786 118.921 154.014 118.737 154.017 118.504C154.024 117.777 154.034 117.052 154.041 116.324C154.055 116.298 154.07 116.271 154.082 116.237C154.106 116.162 154.116 116.084 154.121 116.007L155.069 115.679C155.13 115.696 155.188 115.713 155.246 115.735C155.287 115.75 155.336 115.774 155.409 115.813C155.821 116.036 156.187 115.408 155.775 115.185L155.78 115.187Z" fill="#4F3041"/>
<path d="M153.655 118.991C153.612 118.991 153.568 118.984 153.524 118.972C153.076 118.841 152.685 118.54 152.428 118.126C152.246 117.832 151.914 116.846 151.972 116.615C152.001 116.504 152.048 116.395 152.108 116.29C152.13 116.247 152.157 116.198 152.186 116.15C152.225 116.016 152.266 115.907 152.312 115.808C152.489 115.434 152.79 115.127 153.139 114.962C153.292 114.889 153.459 114.887 153.624 114.957C154.373 114.678 155.176 114.722 155.835 115.081C156.102 115.226 156.129 115.51 156.017 115.713C155.903 115.927 155.632 116.07 155.353 115.922C155.287 115.885 155.244 115.864 155.205 115.849C155.161 115.832 155.118 115.82 155.074 115.808L154.235 116.096C154.228 116.159 154.215 116.22 154.196 116.276C154.186 116.305 154.177 116.332 154.162 116.358L154.138 118.506C154.138 118.657 154.06 118.802 153.937 118.894C153.852 118.957 153.752 118.989 153.653 118.989L153.655 118.991ZM153.386 115.148C153.338 115.148 153.292 115.158 153.245 115.18C152.95 115.321 152.685 115.594 152.533 115.912C152.489 116.002 152.452 116.104 152.416 116.232L152.404 116.259C152.377 116.307 152.348 116.353 152.324 116.404C152.268 116.496 152.232 116.586 152.21 116.673C152.188 116.807 152.443 117.682 152.637 117.997C152.862 118.361 153.202 118.625 153.595 118.739C153.665 118.758 153.738 118.744 153.798 118.7C153.861 118.654 153.9 118.579 153.9 118.504L153.927 116.29L153.944 116.261C153.956 116.239 153.966 116.22 153.973 116.201C153.992 116.142 154.002 116.077 154.007 115.999L154.012 115.917L155.074 115.551L155.11 115.561C155.173 115.578 155.239 115.597 155.299 115.619C155.343 115.636 155.396 115.66 155.476 115.704C155.622 115.784 155.753 115.704 155.811 115.594C155.831 115.561 155.911 115.388 155.729 115.289C155.118 114.957 154.368 114.925 153.672 115.197L153.621 115.216L153.573 115.192C153.51 115.161 153.449 115.144 153.391 115.144L153.386 115.148Z" fill="#4F3041"/>
<path d="M139.457 112.29C139.707 112.317 140.024 112.467 140.228 112.651C140.274 112.695 140.32 112.741 140.364 112.789C139.748 113.614 139.767 114.891 140.56 115.616C140.696 115.742 140.941 115.771 141.074 115.616C141.533 115.085 141.678 114.406 141.584 113.757C141.656 113.716 141.717 113.645 141.741 113.539C141.855 113.063 141.652 112.564 141.22 112.324C141.123 112.271 140.999 112.258 140.895 112.304C140.526 111.904 140.034 111.621 139.457 111.56C139.26 111.538 139.093 111.742 139.093 111.924C139.093 112.137 139.26 112.266 139.457 112.287V112.29Z" fill="#4F3041"/>
<path d="M140.834 115.844C140.706 115.844 140.575 115.793 140.48 115.708C139.704 114.998 139.59 113.713 140.211 112.802C140.192 112.782 140.17 112.76 140.15 112.743C139.964 112.576 139.67 112.435 139.447 112.414C139.168 112.384 138.974 112.186 138.974 111.929C138.974 111.795 139.04 111.652 139.146 111.558C139.241 111.473 139.357 111.432 139.471 111.444C140.024 111.502 140.529 111.752 140.934 112.169C141.048 112.142 141.176 112.161 141.28 112.22C141.749 112.481 141.986 113.037 141.86 113.57C141.836 113.672 141.785 113.757 141.715 113.817C141.799 114.525 141.605 115.19 141.169 115.699C141.094 115.786 140.987 115.837 140.866 115.844C140.856 115.844 140.846 115.844 140.837 115.844H140.834ZM139.471 112.169C139.743 112.198 140.087 112.358 140.31 112.561C140.361 112.608 140.407 112.658 140.454 112.709L140.519 112.782L140.458 112.862C139.847 113.682 139.927 114.877 140.64 115.527C140.694 115.575 140.774 115.604 140.846 115.599C140.885 115.599 140.941 115.585 140.98 115.536C141.387 115.064 141.557 114.438 141.46 113.774L141.448 113.691L141.521 113.65C141.572 113.623 141.603 113.577 141.62 113.509C141.722 113.08 141.533 112.637 141.157 112.428C141.091 112.392 141.006 112.384 140.941 112.414L140.861 112.45L140.803 112.387C140.429 111.98 139.959 111.737 139.44 111.681C139.377 111.674 139.326 111.71 139.302 111.735C139.246 111.786 139.21 111.861 139.21 111.926C139.21 112.086 139.348 112.157 139.464 112.169H139.471Z" fill="#4F3041"/>
<path d="M164.837 112.382C163.258 110.554 160.617 109.793 158.306 110.479C157.858 110.612 158.049 111.313 158.5 111.18C160.581 110.561 162.907 111.255 164.323 112.896C164.628 113.25 165.142 112.734 164.837 112.382Z" fill="#4F3041"/>
<path d="M164.56 113.139C164.437 113.139 164.323 113.083 164.231 112.976C162.846 111.371 160.554 110.695 158.534 111.296C158.369 111.344 158.207 111.31 158.088 111.197C157.957 111.073 157.901 110.876 157.943 110.699C157.981 110.535 158.103 110.411 158.27 110.362C160.642 109.659 163.319 110.438 164.927 112.304C165.045 112.443 165.079 112.617 165.021 112.787C164.961 112.964 164.81 113.097 164.638 113.131C164.611 113.136 164.585 113.139 164.558 113.139H164.56ZM160.038 110.838C161.684 110.838 163.319 111.55 164.415 112.818C164.468 112.879 164.529 112.906 164.594 112.894C164.679 112.877 164.762 112.802 164.793 112.709C164.815 112.649 164.822 112.557 164.745 112.465C163.198 110.67 160.622 109.921 158.34 110.598C158.231 110.629 158.192 110.704 158.178 110.76C158.156 110.852 158.188 110.961 158.253 111.024C158.309 111.078 158.379 111.092 158.464 111.066C158.978 110.913 159.509 110.84 160.038 110.84V110.838Z" fill="#4F3041"/>
<path d="M141.499 107.666C143.521 107.206 145.728 107.715 147.333 109.034C147.692 109.33 148.211 108.818 147.847 108.52C146.031 107.029 143.601 106.445 141.305 106.966C140.849 107.07 141.04 107.771 141.499 107.666Z" fill="#4F3041"/>
<path d="M147.573 109.242C147.462 109.242 147.35 109.204 147.258 109.126C145.677 107.829 143.536 107.327 141.528 107.783C141.353 107.824 141.186 107.773 141.067 107.645C140.941 107.509 140.895 107.312 140.946 107.14C140.992 106.99 141.113 106.881 141.28 106.845C143.596 106.316 146.08 106.908 147.927 108.423C148.056 108.53 148.114 108.67 148.09 108.821C148.061 108.99 147.93 109.143 147.755 109.208C147.695 109.23 147.636 109.242 147.576 109.242H147.573ZM143.005 107.376C144.598 107.376 146.172 107.921 147.411 108.939C147.508 109.019 147.602 109.007 147.666 108.983C147.758 108.949 147.833 108.867 147.847 108.782C147.857 108.719 147.833 108.663 147.77 108.612C145.98 107.143 143.575 106.573 141.331 107.082C141.249 107.102 141.196 107.145 141.176 107.216C141.15 107.3 141.176 107.412 141.244 107.482C141.285 107.526 141.358 107.574 141.472 107.548C141.979 107.434 142.493 107.376 143.005 107.376Z" fill="#4F3041"/>
<path d="M150.532 134.185C149.293 136.397 146.754 137.257 144.353 137.425C141.31 137.635 138.373 136.719 135.38 136.334C133.479 136.089 131.534 136.072 129.694 136.663C129.25 136.806 129.439 137.507 129.888 137.364C133.314 136.266 136.899 137.364 140.318 137.919C142.9 138.339 145.675 138.363 148.107 137.277C149.382 136.707 150.474 135.778 151.162 134.554C151.39 134.144 150.762 133.778 150.534 134.188L150.532 134.185Z" fill="#4F3041"/>
<path d="M143.422 138.307C142.449 138.307 141.409 138.217 140.296 138.036C139.641 137.929 138.967 137.8 138.315 137.677C135.536 137.148 132.664 136.598 129.924 137.478C129.762 137.529 129.602 137.497 129.483 137.393C129.352 137.274 129.291 137.08 129.33 136.898C129.366 136.729 129.485 136.6 129.655 136.547C131.287 136.026 133.111 135.919 135.395 136.212C136.355 136.336 137.325 136.518 138.261 136.692C140.24 137.063 142.287 137.446 144.343 137.303C146.014 137.187 149.026 136.62 150.423 134.127C150.573 133.861 150.859 133.839 151.068 133.953C151.281 134.072 151.417 134.338 151.264 134.612C150.588 135.822 149.511 136.78 148.153 137.386C146.776 138.002 145.211 138.307 143.422 138.307ZM133.106 136.772C134.862 136.772 136.629 137.109 138.358 137.439C139.008 137.563 139.68 137.691 140.332 137.798C143.446 138.302 145.97 138.094 148.051 137.165C149.361 136.581 150.398 135.657 151.048 134.493C151.141 134.331 151.027 134.21 150.947 134.164C150.852 134.11 150.714 134.101 150.631 134.244C149.179 136.838 146.077 137.425 144.355 137.543C142.27 137.686 140.209 137.301 138.213 136.93C137.279 136.755 136.314 136.574 135.359 136.452C133.111 136.161 131.321 136.266 129.723 136.777C129.611 136.814 129.573 136.891 129.56 136.949C129.541 137.044 129.573 137.153 129.638 137.214C129.691 137.262 129.762 137.274 129.842 137.248C130.916 136.903 132.005 136.772 133.099 136.772H133.106Z" fill="#4F3041"/>
<path d="M127.426 125.455C126.624 124.791 125.181 125.249 124.934 126.26C124.684 127.271 125.787 128.352 126.786 128.061C127.788 127.77 128.12 126.231 127.315 125.569" fill="#FF7B9C"/>
<path d="M122.133 123.833C121.822 123.37 121.151 123.193 120.653 123.443C120.295 124.393 120.525 125.537 121.223 126.274C121.987 125.78 122.339 124.735 122.033 123.879" fill="#FF7B9C"/>
<path d="M172.044 105.569C176.455 101.045 176.955 100.764 183.18 99.6826C189.405 98.6013 195.935 97.7285 201.144 94.15C198.346 99.4693 195.547 104.786 192.749 110.105C191.813 111.885 186.109 119.144 182.957 119.871" fill="#F4BDCD"/>
<path d="M73.7588 258.166C76.2008 256.581 68.0212 257.192 65.1403 256.76C62.2594 256.331 59.1748 256.326 56.6043 257.693C56.6043 257.693 60.7074 266.632 73.7588 258.164V258.166Z" fill="#D8CA8B"/>
<path d="M73.9431 258.481C74.2196 258.3 74.5663 258.045 74.5712 257.677C74.576 257.308 74.2826 257.121 73.9916 257.007C73.623 256.864 73.2156 256.818 72.8252 256.772C72.2771 256.709 71.7218 256.68 71.1713 256.656C69.8788 256.602 68.5863 256.6 67.2913 256.554C66.7263 256.535 66.1588 256.51 65.5962 256.452C64.796 256.372 63.9472 256.229 63.113 256.178C60.8239 256.038 58.4764 256.302 56.4225 257.381C56.2357 257.478 56.2139 257.706 56.2915 257.878C56.7789 258.935 57.6835 259.851 58.6001 260.537C60.8602 262.23 63.7823 262.458 66.4717 261.861C69.1537 261.267 71.6515 259.96 73.9431 258.479C74.336 258.227 73.9698 257.596 73.5769 257.851C71.5399 259.168 69.3598 260.334 67.01 260.979C65.4968 261.393 63.8842 261.594 62.3249 261.333C61.2094 261.144 60.1667 260.741 59.233 260.101C58.8741 259.856 58.5686 259.602 58.2364 259.274C58.0957 259.136 57.9599 258.991 57.829 258.843C57.7732 258.777 57.7174 258.712 57.6641 258.646C57.6374 258.615 57.6131 258.583 57.5865 258.552C57.5743 258.537 57.5646 258.525 57.5525 258.511C57.5016 258.447 57.5913 258.561 57.5452 258.503C57.31 258.195 57.0796 257.866 56.9172 257.512L56.7862 258.009C58.474 257.124 60.3825 256.84 62.2691 256.872C63.6926 256.896 65.0846 257.17 66.5008 257.245C67.6672 257.308 68.8336 257.315 70 257.344C71.021 257.369 72.0928 257.373 73.0871 257.531C73.2787 257.56 73.4702 257.596 73.6545 257.655C73.6885 257.664 73.7224 257.676 73.754 257.689C73.8364 257.718 73.72 257.667 73.7903 257.706C73.8146 257.718 73.8388 257.73 73.8606 257.744C73.9407 257.795 73.834 257.718 73.8679 257.749C73.8946 257.776 73.8509 257.73 73.8461 257.681C73.8461 257.676 73.834 257.577 73.8461 257.623C73.8558 257.667 73.8752 257.579 73.8437 257.623C73.7952 257.686 73.8825 257.584 73.8388 257.633C73.8146 257.66 73.7879 257.686 73.7588 257.713C73.6812 257.786 73.6764 257.781 73.5721 257.851C73.1817 258.108 73.5478 258.738 73.9382 258.479L73.9431 258.481Z" fill="#D8CA8B"/>
<path d="M84.5767 254.34C84.778 253.826 85.6461 254.105 86.1142 254.399C86.5822 254.692 86.975 255.116 87.494 255.305C88.0129 255.492 88.5828 255.417 89.1285 255.339C90.484 255.145 91.842 254.951 93.1976 254.757C93.9081 254.656 94.6405 254.554 95.3389 254.724C95.8845 254.854 96.3986 255.148 96.9612 255.158C97.7857 255.172 98.5278 254.576 99.3523 254.59C100.269 254.605 101.198 255.364 102.02 254.956C102.02 254.956 80.4057 265.045 84.5792 254.343L84.5767 254.34Z" fill="#D8CA8B"/>
<path d="M84.8896 254.522C85.0302 254.222 85.6777 254.563 85.8717 254.677C86.3397 254.951 86.7156 255.361 87.2176 255.584C87.8262 255.853 88.4737 255.793 89.1139 255.705C89.7881 255.611 90.4646 255.514 91.1388 255.417C91.8566 255.315 92.5744 255.211 93.2922 255.109C93.9299 255.019 94.6041 254.922 95.2419 255.075C95.8797 255.228 96.4107 255.541 97.0558 255.521C97.6063 255.504 98.101 255.264 98.6151 255.097C98.9133 255 99.214 254.925 99.5293 254.966C99.8445 255.007 100.145 255.126 100.444 255.223C101.038 255.419 101.61 255.536 102.202 255.269L101.835 254.641C101.651 254.728 101.462 254.811 101.275 254.893C101.062 254.988 100.846 255.082 100.63 255.177C100.313 255.315 100.102 255.402 99.8203 255.521C98.2295 256.183 96.6193 256.799 94.9824 257.34C93.1661 257.941 91.3085 258.474 89.4146 258.753C88.6483 258.867 87.8238 258.932 87.0333 258.884C86.6719 258.862 86.4416 258.835 86.0754 258.741C85.9299 258.705 85.7868 258.658 85.6462 258.605C85.5492 258.569 85.6219 258.6 85.5079 258.545C85.4424 258.513 85.3745 258.479 85.3115 258.44C85.0957 258.314 84.9211 258.171 84.778 257.984C84.6252 257.786 84.5379 257.589 84.47 257.31C84.3124 256.663 84.4555 255.87 84.6762 255.158C84.7513 254.915 84.8362 254.675 84.9284 254.437C85.0981 254.001 84.3948 253.812 84.2275 254.243C83.6989 255.608 83.2333 257.514 84.4312 258.678C85.4667 259.684 87.1618 259.694 88.5052 259.582C90.4501 259.42 92.3658 258.92 94.2258 258.343C95.9985 257.793 97.7396 257.15 99.459 256.45C100.075 256.198 100.688 255.941 101.297 255.674C101.583 255.548 101.891 255.436 102.165 255.286C102.177 255.279 102.19 255.274 102.204 255.269C102.631 255.07 102.26 254.452 101.838 254.641C101.348 254.862 100.747 254.549 100.276 254.401C99.716 254.227 99.1777 254.176 98.6054 254.336C98.067 254.488 97.5359 254.804 96.9612 254.791C96.3234 254.779 95.7341 254.399 95.1037 254.311C94.4344 254.217 93.7651 254.311 93.1006 254.406C92.4022 254.505 91.7038 254.605 91.0054 254.704C90.307 254.804 89.5771 254.917 88.8593 255.01C88.1415 255.102 87.6153 255.048 87.0454 254.634C86.5701 254.29 86.1408 253.919 85.5613 253.761C85.0932 253.635 84.4967 253.654 84.2615 254.154C84.0626 254.576 84.6907 254.944 84.8896 254.52V254.522Z" fill="#D8CA8B"/>
<path d="M156.078 252.929C153.212 251.93 161.823 250.893 164.827 250.444C169.25 249.785 173.788 250.391 178.213 249.744C178.213 249.744 168.12 257.129 156.08 252.929H156.078Z" fill="#D8CA8B"/>
<path d="M156.175 252.578C156.063 252.539 156.051 252.537 155.974 252.495C155.94 252.478 155.908 252.459 155.874 252.44C155.816 252.406 155.833 252.415 155.855 252.427C155.787 252.391 155.857 252.389 155.85 252.432C155.86 252.379 155.867 252.498 155.857 252.457C155.877 252.541 155.877 252.481 155.857 252.566C155.86 252.556 155.869 252.626 155.852 252.583C155.867 252.624 155.782 252.638 155.855 252.587C155.915 252.544 155.847 252.588 155.855 252.583C155.918 252.539 155.983 252.5 156.051 252.466C156.18 252.401 156.32 252.35 156.51 252.287C157.664 251.906 158.888 251.712 160.082 251.513C161.393 251.295 162.71 251.111 164.027 250.924C166.047 250.638 168.055 250.488 170.097 250.466C172.837 250.435 175.582 250.488 178.301 250.098L178.019 249.433C176.78 250.34 175.357 251.043 173.955 251.654C170.715 253.065 167.187 253.868 163.649 253.86C161.1 253.855 158.576 253.414 156.168 252.583C155.724 252.43 155.535 253.131 155.974 253.283C160.113 254.716 164.563 254.937 168.843 254.045C171.692 253.451 174.469 252.394 176.991 250.941C177.466 250.667 177.944 250.386 178.388 250.061C178.73 249.811 178.519 249.336 178.107 249.397C175.534 249.768 172.924 249.712 170.332 249.736C169.037 249.748 167.742 249.78 166.454 249.891C165.586 249.967 164.725 250.098 163.862 250.219C162.446 250.42 161.03 250.616 159.621 250.856C158.425 251.06 157.167 251.242 156.032 251.686C155.683 251.821 155.205 252.013 155.139 252.435C155.064 252.92 155.607 253.15 155.974 253.281C156.415 253.439 156.607 252.735 156.168 252.58L156.175 252.578Z" fill="#D8CA8B"/>
<path d="M197.79 250.253C197.376 250.025 198.712 250.047 199.18 249.986C201.51 249.685 203.846 249.407 206.176 249.108C207.786 248.902 209.396 248.689 211.007 248.473C212.037 248.335 213.07 248.197 214.101 248.061C214.101 248.061 209.353 256.627 197.79 250.255V250.253Z" fill="#D8CA8B"/>
<path d="M197.975 249.94C198.169 250.059 197.693 250.435 197.928 250.454C197.96 250.456 198.006 250.437 198.04 250.432C198.205 250.408 198.377 250.403 198.542 250.393C198.896 250.374 199.243 250.34 199.594 250.296C200.761 250.146 201.927 250.003 203.094 249.858C205.439 249.567 207.781 249.266 210.124 248.953C211.45 248.776 212.774 248.599 214.101 248.422L213.786 247.874C213.744 247.95 213.698 248.022 213.65 248.093C213.596 248.175 213.541 248.257 213.482 248.337C213.446 248.388 213.41 248.437 213.373 248.488C213.354 248.514 213.335 248.539 213.315 248.563C213.288 248.599 213.351 248.517 213.286 248.599C212.789 249.222 212.224 249.792 211.593 250.282C209.588 251.838 207.017 252.445 204.486 252.178C202.184 251.935 199.985 251.041 197.972 249.938C197.562 249.712 197.194 250.34 197.606 250.566C200.858 252.35 204.706 253.596 208.414 252.638C210.446 252.115 212.294 250.927 213.638 249.317C213.919 248.98 214.2 248.624 214.414 248.24C214.532 248.025 214.387 247.654 214.098 247.693C211.496 248.039 208.897 248.393 206.292 248.725C204.968 248.895 203.644 249.057 202.32 249.222C201.163 249.365 199.995 249.576 198.833 249.647C198.469 249.668 198.067 249.651 197.715 249.753C197.3 249.875 197.237 250.338 197.606 250.563C198.006 250.808 198.372 250.178 197.972 249.935L197.975 249.94Z" fill="#D8CA8B"/>
<path d="M108.531 134.491C108.082 134.421 107.663 134.704 107.311 134.942C106.344 135.594 105.451 136.355 104.651 137.206C104.423 137.444 104.258 137.665 104.217 138.009C104.171 138.394 104.362 138.828 104.762 138.942C105.216 139.068 105.611 138.724 105.939 138.465C106.402 138.096 106.865 137.728 107.33 137.359C107.752 137.022 108.189 136.7 108.599 136.346C108.912 136.074 109.186 135.725 109.178 135.291C109.171 134.903 108.929 134.559 108.531 134.498V134.491ZM108.572 135.856C108.322 136.142 107.993 136.363 107.699 136.598C107.304 136.913 106.909 137.226 106.513 137.541L105.839 136.552C106.103 136.314 106.373 136.084 106.654 135.866C106.969 135.621 107.294 135.386 107.629 135.167C107.898 134.99 108.407 134.656 108.698 134.964C108.946 135.226 108.771 135.63 108.572 135.858V135.856Z" fill="#328DE5"/>
<path d="M104.491 133.271C104.813 133.431 105.027 133.317 104.901 133.058C104.02 131.259 103.615 129.409 102.267 127.562C101.734 126.832 100.999 125.971 100.121 125.625C99.7524 125.479 99.4226 125.452 99.1243 125.455C98.3653 125.457 97.7008 125.617 97.3783 126.049C97.0558 126.48 97.1673 127.215 97.6814 127.993C99.0564 130.081 102.793 132.43 104.493 133.271H104.491Z" fill="#EC642D"/>
<path d="M98.3968 127.28C98.6563 126.73 98.7897 126.429 99.3523 126.342C99.9149 126.252 100.955 126.672 101.438 127.319C101.588 127.518 101.666 127.714 101.726 127.899C101.93 128.524 101.949 129.113 101.581 129.419C101.212 129.724 100.376 129.649 99.5851 129.191C98.7945 128.733 98.0985 127.911 98.3968 127.28Z" fill="#CCD9E1"/>
<path d="M99.3013 127.297C99.3644 127.356 99.4226 127.419 99.4784 127.484C99.505 127.516 99.5317 127.547 99.5584 127.581C99.5632 127.586 99.602 127.637 99.5851 127.615C99.5681 127.593 99.6069 127.644 99.6117 127.649C99.7281 127.804 99.8373 127.967 99.9415 128.131C100.126 128.422 100.296 128.723 100.48 129.014C100.56 129.14 100.725 129.189 100.856 129.113C100.987 129.038 101.033 128.864 100.955 128.738C100.565 128.117 100.233 127.421 99.6942 126.91C99.5875 126.808 99.4129 126.803 99.3062 126.91C99.1995 127.016 99.1995 127.196 99.3062 127.297H99.3013Z" fill="#004167"/>
<path d="M100.919 127.448C100.334 127.571 99.7694 127.773 99.1849 127.896C99.0443 127.925 98.9497 128.1 98.9934 128.233C99.0419 128.381 99.1801 128.456 99.3304 128.425C99.9148 128.301 100.48 128.1 101.064 127.976C101.205 127.947 101.3 127.773 101.256 127.639C101.207 127.491 101.069 127.416 100.919 127.448Z" fill="#004167"/>
</svg>
