<svg width="105" height="43" viewBox="0 0 105 43" fill="none" xmlns="http://www.w3.org/2000/svg">
<path d="M82.4026 10.8608C85.4359 10.8608 87.9128 8.42268 87.9128 5.43041C87.9128 2.43814 85.4359 0 82.4026 0C79.3692 0 76.8923 2.43814 76.8923 5.43041C76.8923 8.42268 79.3413 10.8608 82.4026 10.8608Z" fill="#EC632D"/>
<path d="M81.8181 15.183C81.8181 15.183 82.3747 16.2913 82.9591 15.183L87.7458 5.90146C87.7458 5.90146 88.3024 4.79321 87.0779 4.79321H77.6994C77.6994 4.79321 76.4471 4.79321 77.0315 5.90146L81.8181 15.183Z" fill="#EC632D"/>
<path d="M82.4026 9.39223C84.6289 9.39223 86.4378 7.61904 86.4378 5.43025C86.4378 3.24146 84.6289 1.46826 82.4026 1.46826C80.1762 1.46826 78.3673 3.24146 78.3673 5.43025C78.3673 7.61904 80.1762 9.39223 82.4026 9.39223Z" fill="white"/>
<path fill-rule="evenodd" clip-rule="evenodd" d="M81.4524 2.9978H83.3433V4.52164H84.8739V6.31146H83.3433V7.8353H81.4898V6.31146H79.9314V4.52164H81.4802L81.4524 2.9978Z" fill="black"/>
<path d="M0 10.9163V15.0999H8.20965V37.0986H12.8015V15.0999H21.0111V10.9163H0Z" fill="white"/>
<path d="M29.5826 28.6206C29.5826 31.6406 27.7737 33.4415 25.1855 33.4415C22.5139 33.4415 21.0112 31.696 21.0112 28.676V17.6489H16.5306V30.0336C16.5306 34.5774 19.0909 37.1264 23.488 37.1264C26.5214 37.1264 28.3303 35.935 29.5826 34.0787V37.0987H34.0631V17.6489H29.5826V28.6206Z" fill="white"/>
<path d="M52.9592 27.3736C52.9592 31.2525 50.4545 33.6352 47.3655 33.6352C44.3321 33.6352 41.6605 31.1694 41.6605 27.3736C41.6605 23.5779 44.3321 21.112 47.3655 21.112C50.3989 21.112 52.9592 23.5225 52.9592 27.3736ZM57.4954 27.3736C57.4954 20.8904 53.0148 17.2332 48.3952 17.2332C45.2505 17.2332 43.2189 18.8678 41.7718 20.8904V17.6487H37.2913V42.9999H41.7718V34.0785C43.1354 35.8794 45.167 37.1262 48.3952 37.1262C53.0705 37.0985 57.4954 33.8569 57.4954 27.3736Z" fill="white"/>
<path d="M72.6624 30.0616C72.6624 32.4998 70.436 34.1621 67.4861 34.1621C65.3711 34.1621 63.7013 33.137 63.7013 31.2807V31.1976C63.7013 29.2027 65.3711 28.0668 68.1819 28.0668C69.9351 28.0668 71.5214 28.3993 72.6624 28.8425V30.0616ZM76.9759 37.099V25.5732C76.9759 20.3645 74.1652 17.3445 68.3767 17.3445C65.2041 17.3445 63.0891 18.0094 60.9462 18.9791L62.1707 22.5532C63.9518 21.8052 65.5659 21.3342 67.7644 21.3342C70.8813 21.3342 72.5789 22.8026 72.5789 25.4901V25.9611C71.0483 25.4901 69.5455 25.1576 67.18 25.1576C62.616 25.1576 59.2487 27.2079 59.2487 31.4192V31.5023C59.2487 35.4089 62.5047 37.1267 66.206 37.1267C69.1559 37.1267 71.2153 36.2955 72.5232 34.7163V37.099H76.9759Z" fill="white"/>
<path d="M84.629 17.6489H80.1484V37.0987H84.629V17.6489Z" fill="white"/>
<path d="M100.686 30.0611C100.686 32.4993 98.4601 34.1616 95.5102 34.1616C93.3951 34.1616 91.7254 33.1365 91.7254 31.2802V31.1971C91.7254 29.2022 93.3951 28.0663 96.2059 28.0663C97.9592 28.0663 99.5454 28.3988 100.686 28.8421V30.0611ZM105 37.0985V25.5727C105 20.364 102.189 17.344 96.4007 17.344C93.2282 17.344 91.1131 18.0089 88.9703 18.9787L90.1948 22.5528C91.9759 21.8047 93.59 21.3337 95.7885 21.3337C98.9054 21.3337 100.603 22.8021 100.603 25.4896V25.9606C99.0723 25.4896 97.5696 25.1571 95.2041 25.1571C90.6401 25.1571 87.2727 27.2074 87.2727 31.4187V31.5019C87.2727 35.4084 90.5287 37.1262 94.23 37.1262C97.1799 37.1262 99.2393 36.295 100.547 34.7158V37.0985H105Z" fill="white"/>
</svg>
