<?xml version="1.0" encoding="UTF-8"?>
<svg enable-background="new 0 0 1000 1000" version="1.1" viewBox="0 0 1e3 1e3" xml:space="preserve" xmlns="http://www.w3.org/2000/svg">
<style type="text/css">
	.st0{fill:url(#b);}
	.st1{fill:url(#a);}
</style>
	<linearGradient id="b" x1="416.62" x2="416.62" y1="16.304" y2="985.45" gradientUnits="userSpaceOnUse">
		<stop stop-color="#FF1B2D" offset=".3"/>
		<stop stop-color="#FA1A2C" offset=".4381"/>
		<stop stop-color="#ED1528" offset=".5939"/>
		<stop stop-color="#D60E21" offset=".7581"/>
		<stop stop-color="#B70519" offset=".9272"/>
		<stop stop-color="#A70014" offset="1"/>
	</linearGradient>
	<path class="st0" d="m335.4 781.8c-55.3-65.3-91.1-161.7-93.5-270v-23.6c2.4-108.3 38.2-204.7 93.5-270 71.8-93.1 178.4-152.2 297.4-152.2 73.2 0 141.8 22.4 200.4 61.3-88-78.8-204-126.8-331.3-127.3h-1.9c-276.1 0-500 223.9-500 500 0 268.2 211.1 487 476.2 499.4 7.9 0.4 15.8 0.6 23.8 0.6 128 0 244.8-48.1 333.2-127.2-58.6 38.8-127.1 61.2-200.4 61.2-119 0-225.6-59.1-297.4-152.2z"/>
		<linearGradient id="a" x1="667.71" x2="667.71" y1="73.426" y2="930.58" gradientUnits="userSpaceOnUse">
			<stop stop-color="#9C0000" offset="0"/>
			<stop stop-color="#FF4B4B" offset=".7"/>
		</linearGradient>
		<path class="st1" d="m335.4 218.2c45.9-54.2 105.1-86.8 169.9-86.8 145.6 0 263.5 165 263.5 368.6s-118 368.6-263.5 368.6c-64.7 0-124-32.7-169.9-86.8 71.8 93.1 178.4 152.2 297.4 152.2 73.2 0 141.8-22.4 200.4-61.2 102.4-91.6 166.8-224.7 166.8-372.8s-64.4-281.2-166.8-372.7c-58.6-38.9-127.1-61.3-200.4-61.3-119 0-225.6 59.1-297.4 152.2z"/>
</svg>
