<?xml version="1.0" encoding="UTF-8"?>
<svg viewBox="194.5 190.1 135.1 135.1" xmlns="http://www.w3.org/2000/svg" xmlns:xlink="http://www.w3.org/1999/xlink">
<style>
.b {color-interpolation-filters: srgb;}
.c {flood-opacity: .31;}
</style>
<defs>
<linearGradient id="t" x1="132.55" x2="134.37" y1="111.67" y2="-105.3" xlink:href="#k">
<stop stop-color="#d2d2d2" offset="0"/>
<stop stop-color="#f2f2f2" offset=".53"/>
<stop stop-color="#fff" offset="1"/>
</linearGradient>
<linearGradient id="k" gradientUnits="userSpaceOnUse"/>
<linearGradient id="s" x1="65.44" x2="67.4" y1="115.72" y2="17.14" xlink:href="#k">
<stop stop-color="#005ad5" offset="0"/>
<stop stop-color="#0875f0" offset=".16"/>
<stop stop-color="#218cee" offset=".31"/>
<stop stop-color="#27a5f3" offset=".63"/>
<stop stop-color="#25aaf2" offset=".81"/>
<stop stop-color="#21aaef" offset="1"/>
</linearGradient>
<linearGradient id="r" x1="158.7" x2="176.28" y1="96.71" y2="79.53" xlink:href="#k">
<stop stop-color="#c72e24" offset="0"/>
<stop stop-color="#fd3b2f" offset="1"/>
</linearGradient>
<filter id="q" class="b">
<feFlood flood-opacity=".28"/>
<feComposite in2="SourceGraphic" operator="in"/>
<feGaussianBlur stdDeviation="3"/>
<feOffset dx=".3" dy="2.8"/>
<feComposite in="SourceGraphic"/>
</filter>
<filter id="p" class="b">
<feFlood class="c"/>
<feComposite class="c" in2="SourceGraphic" operator="out"/>
<feGaussianBlur flood-opacity=".3" stdDeviation=".7"/>
<feOffset dy="1.8"/>
<feComposite in2="SourceGraphic" operator="atop"/>
</filter>
<filter id="o" class="b">
<feFlood flood-opacity=".61"/>
<feComposite in2="SourceGraphic" operator="in"/>
<feGaussianBlur stdDeviation=".5"/>
<feOffset dx=".8" dy=".8"/>
<feComposite in="SourceGraphic" result="A"/>
<feColorMatrix values="0 0 0 -1 0 0 0 0 -1 0 0 0 0 -1 0 0 0 0 1 0"/>
<feFlood flood-opacity=".4"/>
<feComposite in2="A" operator="in"/>
<feGaussianBlur stdDeviation="3.8"/>
<feOffset dx="2.3" dy="3.3"/>
<feComposite in="A"/>
</filter>
<filter id="n" x="-1%" y="-1%" width="110%" height="110%">
<feGaussianBlur in="SourceAlpha" stdDeviation=".4"/>
<feOffset dx=".1" dy=".2"/>
<feComponentTransfer result="A">
<feFuncA type="linear"/>
</feComponentTransfer>
<feFlood flood-color="rgba(0,0,0,0.5)"/>
<feComposite in2="A" operator="in"/>
<feMerge>
<feMergeNode/>
<feMergeNode in="SourceGraphic"/>
</feMerge>
</filter>
<radialGradient id="m" cx="-69.88" cy="69.29" r="54.01" gradientTransform="matrix(.9023 -.0125 .0377 2.7234 -9.44 -120.29)" xlink:href="#k">
<stop stop-color="#24a5f3" stop-opacity=".01" offset="0"/>
<stop stop-color="#1e8ceb" stop-opacity=".98" offset="1"/>
</radialGradient>
<radialGradient id="l" cx="109.35" cy="13.76" r="93.08" gradientTransform="matrix(-.0182 1.0922 -1.042 -.0176 136.95 -115.33)" xlink:href="#k">
<stop stop-opacity="0" offset="0"/>
<stop stop-color="#5488d6" stop-opacity="0" offset=".96"/>
<stop stop-color="#5d96eb" offset="1"/>
</radialGradient>
</defs>
<rect transform="matrix(.5694 0 0 .5692 186.86 255.75)" x="22" y="-106.53" width="220" height="220" ry="49" fill="url(#t)" filter="url(#q)"/>
<g transform="translate(194.2 190.07)" filter="url(#p)">
<ellipse cx="67.77" cy="67.73" rx="54.01" ry="53.98" fill="url(#s)" paint-order="stroke fill markers"/>
<ellipse transform="translate(137.65 -1.55)" cx="-69.88" cy="69.29" rx="54.01" ry="53.98" fill="url(#m)"/>
</g>
<ellipse transform="matrix(.5808 0 0 .5764 192.3 249.63)" cx="120" cy="14.15" rx="93.08" ry="93.67" fill="url(#l)"/>
<g transform="matrix(.5829 0 0 .565 196.8 181.63)" filter="url(#o)">
<path d="m46 191.66.73.35 72.18-48.2-7.34-8.95L46 191.66Z" fill="#cac7c8"/>
<path d="m45.8 190.87.2.8 65.57-56.8-6.95-8.92-58.83 64.92Z" fill="#fbfffc"/>
<path d="m118.91 143.81-7.35-8.95 66.08-57.2.27.73-59 65.42Z" fill="url(#r)"/>
<path d="m104.62 125.95 6.94 8.92 66.08-57.2-.65-.35-72.37 48.63Z" fill="#fb645c"/>
</g>
<path transform="translate(-65 7.73)" d="m286.59 278.44 3.14-2.14m-11.23-17.8 7.8-1.37m-8.32-2.9 3.78-.3m-3.3-12.47 7.8 1.38m-8.2 3.03 3.76.38m-1.2-13.05 7.47 2.73m-3.77-10.5 6.86 3.96m-1.87-10.96 6.07 5.09m.05-11.07 5.09 6.07m1.97-10.99 3.97 6.86m3.7-10.53 2.71 7.43m5.62-9.62 1.37 7.8m15.62-7.89-1.38 7.8m9.82-5.6-2.72 7.42m10.5-3.75-3.96 6.86m10.98-1.89-5.12 6.07m16.18 6.96-6.87 3.96m10.45 3.88-7.45 2.7m9.64 5.6-7.82 1.38m7.81 15.79-7.82-1.39m5.6 9.7-7.44-2.71m3.8 10.47-6.87-3.95m1.91 10.98-6.07-5.07m-.05 11.2-5.1-6.08m-1.95 10.99-4-6.88m-3.87 10.5-2.7-7.43m-5.61 9.61-1.37-7.78m-15.78 7.75 1.4-7.86m-9.7 5.58 2.72-7.47m-10.5 3.73 3.97-6.87m-10.96 1.9 5.08-6.03m-8.26 3.13 2.75-2.68m3.84 8.23 2.2-3.1m5.2 7.44 1.66-3.45m6.43 6.47 1.02-3.7m7.52 5.32.43-3.82m8.08 3.8-.31-3.84m8.81 2.33-.97-3.69m9.06.75-1.58-3.48m9.05-.76-2.16-3.18m8.78-2.38-2.68-2.73m8.24-3.85-3.11-2.2m7.42-5.2-3.47-1.67m6.42-6.41-3.7-1.03m5.17-7.46-3.78-.37m3.8-8.24-3.81.3m2.35-8.8-3.7.97m.8-9.06-3.49 1.61m-1.03-9.12-3.2 2.2m-2.12-8.62-2.72 2.7m-3.84-8.28-2.23 3.12m-5.21-7.45-1.66 3.44m-6.55-6.32-1.02 3.63m-7.42-5.2-.38 3.81m-8.09-3.66.28 3.8m-8.79-2.34.95 3.68m-8.9-.72 1.61 3.46m-9.06.82 2.18 3.16m-8.82 2.27 2.68 2.7m-8.25 3.85 3.1 2.23m-7.44 5.17 3.42 1.66m-6.3 6.36 3.7 1.05m-3.71 24.39 3.7-.91m-2.44 5.03 7.48-2.72m-5.86 6.73 3.5-1.61m-1.53 5.43 6.87-3.95m-13.33-20.52 7.96.01m41.16-41.44v-7.96m.02 98.74.01-7.94m49.33-41.4-7.95-.01" filter="url(#n)" stroke="#fff" stroke-linecap="round" stroke-miterlimit="1" stroke-width="1.33"/>
</svg>
