<?xml version="1.0" encoding="UTF-8" standalone="no"?>
<!DOCTYPE svg PUBLIC "-//W3C//DTD SVG 1.1//EN" "http://www.w3.org/Graphics/SVG/1.1/DTD/svg11.dtd">
<svg version="1.1" xmlns="http://www.w3.org/2000/svg" xmlns:xlink="http://www.w3.org/1999/xlink" preserveAspectRatio="xMidYMid meet" viewBox="4.252909090908988 4.94775461654904 24.784782608695657 38.21226086956521" width="20.03" height="33.46"><defs><path d="M16.02 26.73C10.49 26.73 6 22.24 6 16.72C6 11.18 10.49 6.7 16.02 6.7C21.55 6.7 26.04 11.18 26.04 16.72C26.04 22.24 21.55 26.73 16.02 26.73Z" id="bNCcJRyD5"></path><path d="M8.74 25.58L16.02 25.58L23.31 25.58L19.66 32.87L16.02 40.16L12.38 32.87L8.74 25.58Z" id="bgKScXxbH"></path><path d="M17.41 11.61L17.42 11.61L17.42 11.61L17.43 11.61L17.44 11.61L17.44 11.62L17.44 11.62L17.45 11.62L17.46 11.62L17.47 11.63L17.47 11.63L17.48 11.64L17.49 11.64L17.49 11.64L17.49 11.64L17.5 11.64L17.5 11.65L17.51 11.65L17.51 11.66L17.52 11.67L17.52 11.67L17.53 11.68L17.53 11.68L17.54 11.69L17.54 11.69L17.54 11.7L17.54 11.7L17.54 11.71L17.54 11.72L17.55 11.72L17.55 11.73L17.55 11.74L17.55 11.74L17.55 11.75L17.56 11.75L17.56 11.76L17.56 11.77L17.56 11.78L17.56 15.18L20.97 15.18L20.97 15.18L20.98 15.18L20.98 15.18L20.99 15.19L21 15.19L21.01 15.19L21.02 15.19L21.02 15.19L21.02 15.2L21.03 15.2L21.04 15.2L21.04 15.21L21.05 15.21L21.06 15.21L21.06 15.22L21.07 15.22L21.07 15.23L21.07 15.23L21.08 15.23L21.08 15.23L21.09 15.24L21.09 15.24L21.1 15.25L21.1 15.26L21.11 15.26L21.11 15.27L21.12 15.28L21.12 15.28L21.12 15.28L21.12 15.29L21.12 15.29L21.12 15.3L21.13 15.31L21.13 15.32L21.13 15.33L21.13 15.33L21.13 15.33L21.13 15.34L21.13 15.35L21.13 15.36L21.13 18.08L21.13 18.09L21.13 18.1L21.13 18.11L21.13 18.11L21.13 18.11L21.13 18.12L21.13 18.13L21.12 18.14L21.12 18.15L21.12 18.15L21.12 18.16L21.12 18.16L21.12 18.16L21.11 18.17L21.11 18.18L21.1 18.18L21.1 18.19L21.09 18.2L21.09 18.2L21.08 18.21L21.08 18.21L21.07 18.21L21.07 18.21L21.07 18.22L21.06 18.22L21.06 18.23L21.05 18.23L21.04 18.23L21.04 18.24L21.03 18.24L21.02 18.24L21.02 18.25L21.02 18.25L21.01 18.25L21 18.25L20.99 18.25L20.98 18.26L20.98 18.26L20.97 18.26L20.97 18.26L17.56 18.26L17.56 21.66L17.56 21.67L17.56 21.68L17.56 21.69L17.55 21.69L17.55 21.69L17.55 21.7L17.55 21.71L17.55 21.72L17.54 21.72L17.54 21.73L17.54 21.74L17.54 21.74L17.54 21.74L17.54 21.75L17.53 21.75L17.53 21.76L17.52 21.77L17.52 21.77L17.51 21.78L17.51 21.79L17.5 21.79L17.5 21.79L17.49 21.79L17.49 21.8L17.49 21.8L17.48 21.8L17.47 21.81L17.47 21.81L17.46 21.82L17.45 21.82L17.44 21.82L17.44 21.82L17.44 21.83L17.43 21.83L17.42 21.83L17.42 21.83L17.41 21.83L17.4 21.83L17.39 21.83L17.39 21.83L14.66 21.83L14.66 21.83L14.65 21.83L14.64 21.83L14.63 21.83L14.62 21.83L14.62 21.83L14.61 21.83L14.61 21.82L14.6 21.82L14.6 21.82L14.59 21.82L14.58 21.81L14.58 21.81L14.57 21.8L14.56 21.8L14.56 21.8L14.56 21.79L14.55 21.79L14.55 21.79L14.54 21.79L14.54 21.78L14.53 21.77L14.53 21.77L14.52 21.76L14.52 21.75L14.51 21.75L14.51 21.74L14.51 21.74L14.51 21.74L14.51 21.73L14.5 21.72L14.5 21.72L14.5 21.71L14.5 21.7L14.5 21.69L14.49 21.69L14.49 21.69L14.49 21.68L14.49 21.67L14.49 21.66L14.49 18.26L11.08 18.26L11.07 18.26L11.07 18.26L11.06 18.26L11.06 18.25L11.05 18.25L11.04 18.25L11.03 18.25L11.02 18.25L11.02 18.24L11.02 18.24L11.01 18.24L11 18.23L11 18.23L10.99 18.23L10.98 18.22L10.98 18.22L10.97 18.21L10.97 18.21L10.97 18.21L10.96 18.21L10.96 18.2L10.95 18.2L10.95 18.19L10.94 18.18L10.94 18.18L10.93 18.17L10.93 18.16L10.93 18.16L10.92 18.16L10.92 18.15L10.92 18.15L10.92 18.14L10.92 18.13L10.92 18.12L10.92 18.11L10.92 18.11L10.92 18.11L10.91 18.1L10.91 18.09L10.91 18.08L10.91 15.36L10.91 15.35L10.91 15.34L10.92 15.33L10.92 15.33L10.92 15.33L10.92 15.32L10.92 15.31L10.92 15.3L10.92 15.29L10.92 15.29L10.92 15.28L10.93 15.28L10.93 15.28L10.93 15.27L10.94 15.26L10.94 15.26L10.95 15.25L10.95 15.24L10.96 15.24L10.96 15.23L10.97 15.23L10.97 15.23L10.97 15.23L10.98 15.22L10.98 15.22L10.99 15.21L11 15.21L11 15.21L11.01 15.2L11.02 15.2L11.02 15.2L11.02 15.19L11.03 15.19L11.04 15.19L11.05 15.19L11.06 15.19L11.06 15.18L11.07 15.18L11.07 15.18L11.08 15.18L14.49 15.18L14.49 11.78L14.49 11.77L14.49 11.76L14.49 11.75L14.49 11.75L14.5 11.74L14.5 11.74L14.5 11.73L14.5 11.72L14.5 11.72L14.51 11.71L14.51 11.7L14.51 11.7L14.51 11.69L14.51 11.69L14.52 11.68L14.52 11.68L14.53 11.67L14.53 11.67L14.54 11.66L14.54 11.65L14.55 11.65L14.55 11.64L14.56 11.64L14.56 11.64L14.56 11.64L14.57 11.64L14.58 11.63L14.58 11.63L14.59 11.62L14.6 11.62L14.6 11.62L14.61 11.62L14.61 11.61L14.62 11.61L14.62 11.61L14.63 11.61L14.64 11.61L14.65 11.61L14.66 11.61L14.66 11.6L17.39 11.6L17.39 11.61L17.4 11.61L17.41 11.61Z" id="c6Wv97ozw"></path></defs><g><g><use xlink:href="#bNCcJRyD5" opacity="1" fill="#ffffff" fill-opacity="1"></use><g><use xlink:href="#bNCcJRyD5" opacity="1" fill-opacity="0" stroke="#e37f49" stroke-width="3.5" stroke-opacity="1"></use></g></g><g><use xlink:href="#bgKScXxbH" opacity="1" fill="#e37f49" fill-opacity="1"></use><g><use xlink:href="#bgKScXxbH" opacity="1" fill-opacity="0" stroke="#000000" stroke-width="1" stroke-opacity="0"></use></g></g><g><use xlink:href="#c6Wv97ozw" opacity="1" fill="#3c90c8" fill-opacity="1"></use><g><use xlink:href="#c6Wv97ozw" opacity="1" fill-opacity="0" stroke="#000000" stroke-width="1" stroke-opacity="0"></use></g></g></g></svg>
