<svg width="20" height="20" viewBox="0 0 20 20" fill="none" xmlns="http://www.w3.org/2000/svg">
<path d="M18 10C18 7.87827 17.1575 5.84306 15.6572 4.34277C14.1574 2.84294 12.123 2.00052 10.002 2C7.74462 2.00896 5.57808 2.88999 3.95508 4.45898L3.41406 5H6C6.55228 5 7 5.44772 7 6C7 6.55228 6.55228 7 6 7H1C0.447715 7 0 6.55228 0 6V1C0 0.447715 0.447715 0 1 0C1.55228 0 2 0.447715 2 1V3.58594L2.55273 3.0332L2.94629 2.66992C4.89242 0.962031 7.39524 0.00981892 9.99609 0H10C12.6522 0 15.1959 1.05335 17.0713 2.92871C18.9467 4.80407 20 7.34784 20 10C20 10.5523 19.5523 11 19 11C18.4477 11 18 10.5523 18 10ZM20 19C20 19.5523 19.5523 20 19 20C18.4477 20 18 19.5523 18 19V16.4141L17.4473 16.9668L17.0537 17.3301C15.1076 19.038 12.6048 19.9902 10.0039 20H10C7.34784 20 4.80407 18.9467 2.92871 17.0713C1.05335 15.1959 0 12.6522 0 10C0 9.44771 0.447715 9 1 9C1.55228 9 2 9.44771 2 10C2 12.1217 2.84248 14.1569 4.34277 15.6572C5.84237 17.1568 7.8764 17.9982 9.99707 17.999C12.2548 17.9903 14.4217 17.1102 16.0449 15.541L16.5859 15H14C13.4477 15 13 14.5523 13 14C13 13.4477 13.4477 13 14 13H19C19.5523 13 20 13.4477 20 14V19Z" fill="#EC642D"/>
</svg>
