<svg width="291" height="125" viewBox="0 0 291 125" fill="none" xmlns="http://www.w3.org/2000/svg">
<path d="M78.3276 75.7854H90.811V97.51H78.3276V123.329H49.9025V97.51H2.41497L0.728027 80.2974L49.9025 1.92179V1.67112H78.3276V75.7854ZM27.8035 75.7854H49.9025V38.3523L48.1312 41.1932L27.8035 75.7854Z" fill="white" fill-opacity="0.15"/>
<path d="M188.57 73.613C188.57 90.0457 184.83 102.718 177.351 111.631C169.929 120.544 159.442 125 145.89 125C132.226 125 121.654 120.516 114.175 111.547C106.696 102.579 102.957 89.9343 102.957 73.613V51.387C102.957 34.9543 106.668 22.2816 114.091 13.369C121.57 4.45633 132.113 0 145.721 0C159.329 0 169.873 4.48418 177.351 13.4525C184.83 22.4209 188.57 35.0936 188.57 51.4706V73.613ZM160.145 47.7941C160.145 39.0486 158.992 32.5312 156.686 28.242C154.381 23.8971 150.726 21.7246 145.721 21.7246C140.829 21.7246 137.258 23.7299 135.009 27.7406C132.816 31.7513 131.635 37.8231 131.466 45.9559V77.0388C131.466 86.1185 132.619 92.7752 134.925 97.0087C137.23 101.186 140.885 103.275 145.89 103.275C150.726 103.275 154.296 101.242 156.602 97.1758C158.907 93.0537 160.088 86.6199 160.145 77.8743V47.7941Z" fill="white" fill-opacity="0.15"/>
<path d="M278.4 75.7854H290.883V97.51H278.4V123.329H249.975V97.51H202.487L200.8 80.2974L249.975 1.92179V1.67112H278.4V75.7854ZM227.875 75.7854H249.975V38.3523L248.203 41.1932L227.875 75.7854Z" fill="white" fill-opacity="0.15"/>
</svg>
