<svg width="106" height="50" viewBox="0 0 106 50" fill="none" xmlns="http://www.w3.org/2000/svg">
<path d="M9.79863 41.6119V17.572H0.877197V13.3347H23.6077V17.572H14.8126V41.6119H9.79863Z" fill="white"/>
<path d="M25.0115 42.1307C22.7351 42.1307 21.0781 41.4101 20.0408 39.9689C19.0034 38.4988 18.4847 36.409 18.4847 33.6995V20.3824H23.4555V33.0509C23.4555 34.8092 23.7148 36.0487 24.2335 36.7693C24.7522 37.4899 25.5878 37.8502 26.7405 37.8502C27.6626 37.8502 28.4694 37.6196 29.161 37.1584C29.8814 36.6972 30.6451 35.9478 31.4519 34.9101V20.3824H36.4227V42.1307H31.4519V39C30.5298 40.0953 29.9102 40.4733 28.8152 41.1363C27.749 41.7992 26.4811 42.1307 25.0115 42.1307Z" fill="white"/>
<path d="M39.6839 49.9999V20.3824H44.6546V22.6307C45.5479 21.8813 46.1963 21.2327 47.2913 20.6851C48.3863 20.1374 49.5245 19.8635 50.706 19.8635C52.0315 19.8635 53.1986 20.123 54.2071 20.6418C55.2445 21.1318 56.1234 21.8525 56.8438 22.8037C57.5642 23.7549 58.1117 24.8935 58.4863 26.2194C58.8609 27.5454 59.0482 29.0298 59.0482 30.6729C59.0482 32.4888 58.7889 34.1174 58.2702 35.5587C57.7803 36.9711 57.1176 38.1673 56.2819 39.1474C55.4462 40.0986 54.4809 40.8336 53.3859 41.3525C52.2909 41.8713 51.1527 42.1307 49.9712 42.1307C49.0491 42.1307 48.127 41.9289 47.2049 41.5254C46.2827 41.1219 45.5191 40.5454 44.6546 39.7959V49.9999H39.6839ZM48.9338 38.0232C50.3458 38.0232 51.5273 37.4179 52.4782 36.2072C53.4291 34.9678 53.9046 33.1374 53.9046 30.7161C53.9046 28.5831 53.5444 26.9256 52.824 25.7438C52.1036 24.562 50.9365 23.9711 49.3228 23.9711C47.8244 23.9711 46.2683 24.7638 44.6546 26.3491V36.2505C45.4327 36.9134 46.1819 37.3746 46.9023 37.6341C47.6227 37.8935 48.2999 38.0232 48.9338 38.0232Z" fill="white"/>
<path d="M67.0513 42.1307C65.1783 42.1307 63.6654 41.5686 62.5128 40.4445C61.3602 39.2915 60.7838 37.7782 60.7838 35.9046C60.7838 34.7804 61.0144 33.7859 61.4754 32.9212C61.9653 32.0276 62.7145 31.2638 63.7231 30.6296C64.7604 29.9955 66.0572 29.4622 67.6132 29.0298C69.1981 28.5975 71.0856 28.266 73.2756 28.0354C73.2468 27.4877 73.1603 26.9689 73.0162 26.4788C72.901 25.96 72.6848 25.5132 72.3679 25.1385C72.0797 24.7349 71.6907 24.4323 71.2008 24.2305C70.711 23.9999 70.1058 23.8846 69.3854 23.8846C68.348 23.8846 67.3251 24.0864 66.3165 24.4899C65.3368 24.8935 64.3714 25.3835 63.4205 25.96L61.6051 22.6307C62.7866 21.8813 64.1121 21.2327 65.5817 20.6851C67.0513 20.1374 68.6362 19.8635 70.3363 19.8635C72.9874 19.8635 74.9613 20.6562 76.258 22.2416C77.5836 23.7981 78.2463 26.0609 78.2463 29.0298V41.6119H73.2756V39.2771C72.3246 40.0842 71.6475 40.7615 70.5525 41.3092C69.4863 41.8569 68.3192 42.1307 67.0513 42.1307ZM68.6506 38.2394C69.5151 38.2394 70.2931 38.0376 70.9847 37.6341C71.7051 37.2305 72.4687 36.654 73.2756 35.9046V31.1485C71.8348 31.3214 70.6245 31.552 69.6448 31.8403C68.665 32.1285 67.8726 32.46 67.2674 32.8347C66.6623 33.1806 66.2301 33.5842 65.9707 34.0454C65.7114 34.5066 65.5817 34.9966 65.5817 35.5154C65.5817 36.4666 65.8699 37.1584 66.4462 37.5908C67.0225 38.0232 67.7573 38.2394 68.6506 38.2394Z" fill="white"/>
<path d="M80.932 41.6119V20.3824H85.9028V41.6119H80.932Z" fill="white"/>
<path d="M94.6822 42.1307C92.8091 42.1307 91.2963 41.5686 90.1437 40.4445C88.991 39.2915 88.4147 37.7782 88.4147 35.9046C88.4147 34.7804 88.6452 33.7859 89.1063 32.9212C89.5962 32.0276 90.3454 31.2638 91.3539 30.6296C92.3913 29.9955 93.688 29.4622 95.2441 29.0298C96.829 28.5975 98.7164 28.266 100.906 28.0354C100.878 27.4877 100.791 26.9689 100.647 26.4788C100.532 25.96 100.316 25.5132 99.9987 25.1385C99.7106 24.7349 99.3216 24.4323 98.8317 24.2305C98.3418 23.9999 97.7367 23.8846 97.0163 23.8846C95.9789 23.8846 94.9559 24.0864 93.9474 24.4899C92.9676 24.8935 92.0023 25.3835 91.0514 25.96L89.236 22.6307C90.4174 21.8813 91.7429 21.2327 93.2126 20.6851C94.6822 20.1374 96.2671 19.8635 97.9672 19.8635C100.618 19.8635 102.592 20.6562 103.889 22.2416C105.214 23.7981 105.877 26.0609 105.877 29.0298V41.6119H100.906V39.2771C99.9555 40.0842 99.2783 40.7615 98.1833 41.3092C97.1171 41.8569 95.9501 42.1307 94.6822 42.1307ZM96.2815 38.2394C97.1459 38.2394 97.924 38.0376 98.6156 37.6341C99.336 37.2305 100.1 36.654 100.906 35.9046V31.1485C99.4656 31.3214 98.2554 31.552 97.2756 31.8403C96.2959 32.1285 95.5034 32.46 94.8983 32.8347C94.2932 33.1806 93.8609 33.5842 93.6016 34.0454C93.3422 34.5066 93.2126 34.9966 93.2126 35.5154C93.2126 36.4666 93.5007 37.1584 94.077 37.5908C94.6534 38.0232 95.3882 38.2394 96.2815 38.2394Z" fill="white"/>
<g clip-path="url(#clip0)">
<path d="M83.5828 11.1878C80.6384 11.1878 78.2477 8.86805 78.2477 6.01616C78.2477 3.15393 80.6384 0.839355 83.5828 0.839355C86.5272 0.839355 88.9179 3.15393 88.9179 6.01616C88.9179 8.86805 86.5272 11.1878 83.5828 11.1878Z" fill="white"/>
<path fill-rule="evenodd" clip-rule="evenodd" d="M83.5828 1.55239C81.0412 1.55239 78.9809 3.54974 78.9809 6.01617C78.9809 8.47227 81.0412 10.4748 83.5828 10.4748C86.1244 10.4748 88.1848 8.47227 88.1848 6.01617C88.1848 3.54974 86.1244 1.55239 83.5828 1.55239ZM77.5146 6.01617C77.5146 2.75815 80.2356 0.126343 83.5828 0.126343C86.9301 0.126343 89.651 2.75815 89.651 6.01617C89.651 9.26386 86.9301 11.9008 83.5828 11.9008C80.2356 11.9008 77.5146 9.26386 77.5146 6.01617Z" fill="#E37F49"/>
<path d="M79.7145 10.4578L83.5783 10.9331L87.4474 10.4578L85.5102 14.2289L83.5783 18.1268L81.6464 14.3557L79.7145 10.4578Z" fill="#E37F49"/>
<path d="M84.3229 3.37614H84.3282H84.3335H84.3389V3.3813H84.3442H84.3495L84.3548 3.38647L84.3602 3.39164H84.3655H84.3708V3.3968H84.3761V3.40197L84.3815 3.40714L84.3868 3.4123L84.3921 3.41747V3.42264V3.4278V3.43297H84.3974V3.43814V3.4433V3.44847H84.4027V3.45364V3.4588V3.46397V5.22057H86.2184H86.2237L86.229 5.22573H86.2344H86.2397H86.245V5.2309H86.2503H86.2557V5.23607H86.261H86.2663V5.24123H86.2716V5.2464H86.277L86.2823 5.25157L86.2876 5.25673V5.2619H86.2929V5.26707L86.2983 5.27223V5.2774V5.28256L86.3036 5.28773V5.2929V5.29806V5.30323V5.3084V5.31356V6.71884V6.72401V6.72918V6.73434V6.73951V6.74467L86.2983 6.74984V6.75501V6.76017L86.2929 6.76534V6.77051H86.2876V6.77567L86.2823 6.78084L86.277 6.78601H86.2716V6.79117H86.2663V6.79634H86.261H86.2557V6.80151H86.2503H86.245V6.80667H86.2397H86.2344H86.229L86.2237 6.81184H86.2184H84.4027V8.56844V8.5736V8.57877V8.58394H84.3974V8.5891V8.59427V8.59944H84.3921V8.6046V8.60977V8.61494H84.3868V8.6201L84.3815 8.62527L84.3761 8.63044V8.6356H84.3708H84.3655V8.64077H84.3602L84.3548 8.64593L84.3495 8.6511H84.3442H84.3389V8.65627H84.3335H84.3282H84.3229H84.3176H84.3122H82.8587H82.8533H82.848H82.8427H82.8374H82.832V8.6511H82.8267H82.8214L82.8161 8.64593L82.8107 8.64077H82.8054V8.6356H82.8001H82.7948V8.63044L82.7894 8.62527L82.7841 8.6201V8.61494H82.7788V8.60977V8.6046L82.7735 8.59944V8.59427V8.5891V8.58394H82.7681V8.57877V8.5736V8.56844V6.81184H80.9525H80.9472H80.9419V6.80667H80.9365H80.9312H80.9259H80.9206V6.80151H80.9152L80.9099 6.79634H80.9046L80.8993 6.79117L80.8939 6.78601H80.8886V6.78084H80.8833V6.77567L80.878 6.77051L80.8726 6.76534V6.76017H80.8673V6.75501V6.74984V6.74467V6.73951V6.73434L80.862 6.72918V6.72401V6.71884V5.31356V5.3084V5.30323L80.8673 5.29806V5.2929V5.28773V5.28256V5.2774V5.27223H80.8726V5.26707L80.878 5.2619L80.8833 5.25673V5.25157H80.8886V5.2464H80.8939L80.8993 5.24123L80.9046 5.23607H80.9099L80.9152 5.2309H80.9206V5.22573H80.9259H80.9312H80.9365H80.9419V5.22057H80.9472H80.9525H82.7681V3.46397V3.4588V3.45364V3.44847L82.7735 3.4433V3.43814V3.43297L82.7788 3.4278V3.42264V3.41747L82.7841 3.4123L82.7894 3.40714L82.7948 3.40197V3.3968H82.8001V3.39164H82.8054H82.8107L82.8161 3.38647L82.8214 3.3813H82.8267H82.832V3.37614H82.8374H82.8427H82.848H82.8533H82.8587V3.37097H84.3122V3.37614H84.3176H84.3229Z" fill="#262834"/>
</g>
<defs>
<clipPath id="clip0">
<rect width="13.5643" height="18" fill="white" transform="translate(76.6088)"/>
</clipPath>
</defs>
</svg>
