<svg width="105" height="50" viewBox="0 0 105 50" fill="none" xmlns="http://www.w3.org/2000/svg">
<path d="M8.92144 41.6119V17.572H0V13.3347H22.7305V17.572H13.9354V41.6119H8.92144Z" fill="#262834"/>
<path d="M24.1343 42.1307C21.8579 42.1307 20.2009 41.4101 19.1636 39.9689C18.1262 38.4988 17.6075 36.409 17.6075 33.6995V20.3824H22.5783V33.0509C22.5783 34.8092 22.8376 36.0487 23.3563 36.7693C23.875 37.4899 24.7106 37.8502 25.8633 37.8502C26.7854 37.8502 27.5923 37.6196 28.2838 37.1584C29.0042 36.6972 29.7679 35.9478 30.5747 34.9101V20.3824H35.5455V42.1307H30.5747V39C29.6526 40.0953 29.033 40.4733 27.938 41.1363C26.8718 41.7992 25.6039 42.1307 24.1343 42.1307Z" fill="#262834"/>
<path d="M38.8067 49.9999V20.3824H43.7774V22.6307C44.6707 21.8813 45.3191 21.2327 46.4141 20.6851C47.5091 20.1374 48.6473 19.8635 49.8288 19.8635C51.1543 19.8635 52.3214 20.123 53.33 20.6418C54.3673 21.1318 55.2462 21.8525 55.9666 22.8037C56.687 23.7549 57.2345 24.8935 57.6091 26.2194C57.9837 27.5454 58.171 29.0298 58.171 30.6729C58.171 32.4888 57.9117 34.1174 57.393 35.5587C56.9031 36.9711 56.2404 38.1673 55.4047 39.1474C54.569 40.0986 53.6037 40.8336 52.5087 41.3525C51.4137 41.8713 50.2755 42.1307 49.094 42.1307C48.1719 42.1307 47.2498 41.9289 46.3277 41.5254C45.4055 41.1219 44.6419 40.5454 43.7774 39.7959V49.9999H38.8067ZM48.0566 38.0232C49.4686 38.0232 50.6501 37.4179 51.601 36.2072C52.5519 34.9678 53.0274 33.1374 53.0274 30.7161C53.0274 28.5831 52.6672 26.9256 51.9468 25.7438C51.2264 24.562 50.0593 23.9711 48.4456 23.9711C46.9472 23.9711 45.3911 24.7638 43.7774 26.3491V36.2505C44.5555 36.9134 45.3047 37.3746 46.0251 37.6341C46.7455 37.8935 47.4227 38.0232 48.0566 38.0232Z" fill="#262834"/>
<path d="M66.1741 42.1307C64.3011 42.1307 62.7882 41.5686 61.6356 40.4445C60.483 39.2915 59.9066 37.7782 59.9066 35.9046C59.9066 34.7804 60.1372 33.7859 60.5982 32.9212C61.0881 32.0276 61.8373 31.2638 62.8459 30.6296C63.8832 29.9955 65.18 29.4622 66.736 29.0298C68.3209 28.5975 70.2084 28.266 72.3984 28.0354C72.3696 27.4877 72.2831 26.9689 72.139 26.4788C72.0238 25.96 71.8076 25.5132 71.4907 25.1385C71.2025 24.7349 70.8135 24.4323 70.3236 24.2305C69.8338 23.9999 69.2286 23.8846 68.5082 23.8846C67.4708 23.8846 66.4479 24.0864 65.4393 24.4899C64.4596 24.8935 63.4942 25.3835 62.5433 25.96L60.7279 22.6307C61.9094 21.8813 63.2349 21.2327 64.7045 20.6851C66.1741 20.1374 67.759 19.8635 69.4591 19.8635C72.1102 19.8635 74.0841 20.6562 75.3808 22.2416C76.7064 23.7981 77.3691 26.0609 77.3691 29.0298V41.6119H72.3984V39.2771C71.4474 40.0842 70.7703 40.7615 69.6753 41.3092C68.6091 41.8569 67.442 42.1307 66.1741 42.1307ZM67.7734 38.2394C68.6379 38.2394 69.4159 38.0376 70.1075 37.6341C70.8279 37.2305 71.5915 36.654 72.3984 35.9046V31.1485C70.9576 31.3214 69.7473 31.552 68.7676 31.8403C67.7878 32.1285 66.9954 32.46 66.3902 32.8347C65.7851 33.1806 65.3529 33.5842 65.0935 34.0454C64.8342 34.5066 64.7045 34.9966 64.7045 35.5154C64.7045 36.4666 64.9927 37.1584 65.569 37.5908C66.1453 38.0232 66.8801 38.2394 67.7734 38.2394Z" fill="#262834"/>
<path d="M80.0548 41.6119V20.3824H85.0256V41.6119H80.0548Z" fill="#262834"/>
<path d="M93.805 42.1307C91.9319 42.1307 90.4191 41.5686 89.2665 40.4445C88.1138 39.2915 87.5375 37.7782 87.5375 35.9046C87.5375 34.7804 87.768 33.7859 88.2291 32.9212C88.719 32.0276 89.4682 31.2638 90.4767 30.6296C91.5141 29.9955 92.8108 29.4622 94.3669 29.0298C95.9518 28.5975 97.8392 28.266 100.029 28.0354C100 27.4877 99.914 26.9689 99.7699 26.4788C99.6546 25.96 99.4385 25.5132 99.1215 25.1385C98.8334 24.7349 98.4444 24.4323 97.9545 24.2305C97.4646 23.9999 96.8595 23.8846 96.1391 23.8846C95.1017 23.8846 94.0787 24.0864 93.0702 24.4899C92.0904 24.8935 91.1251 25.3835 90.1742 25.96L88.3588 22.6307C89.5402 21.8813 90.8657 21.2327 92.3354 20.6851C93.805 20.1374 95.3899 19.8635 97.09 19.8635C99.7411 19.8635 101.715 20.6562 103.012 22.2416C104.337 23.7981 105 26.0609 105 29.0298V41.6119H100.029V39.2771C99.0783 40.0842 98.4011 40.7615 97.3061 41.3092C96.2399 41.8569 95.0729 42.1307 93.805 42.1307ZM95.4043 38.2394C96.2687 38.2394 97.0468 38.0376 97.7384 37.6341C98.4588 37.2305 99.2224 36.654 100.029 35.9046V31.1485C98.5884 31.3214 97.3782 31.552 96.3984 31.8403C95.4187 32.1285 94.6262 32.46 94.0211 32.8347C93.416 33.1806 92.9837 33.5842 92.7244 34.0454C92.465 34.5066 92.3354 34.9966 92.3354 35.5154C92.3354 36.4666 92.6235 37.1584 93.1998 37.5908C93.7762 38.0232 94.511 38.2394 95.4043 38.2394Z" fill="#262834"/>
<g clip-path="url(#clip0)">
<path d="M82.7056 11.1878C79.7612 11.1878 77.3705 8.86805 77.3705 6.01616C77.3705 3.15393 79.7612 0.839355 82.7056 0.839355C85.65 0.839355 88.0407 3.15393 88.0407 6.01616C88.0407 8.86805 85.65 11.1878 82.7056 11.1878Z" fill="white"/>
<path fill-rule="evenodd" clip-rule="evenodd" d="M82.7056 1.55239C80.164 1.55239 78.1037 3.54974 78.1037 6.01617C78.1037 8.47227 80.164 10.4748 82.7056 10.4748C85.2472 10.4748 87.3076 8.47227 87.3076 6.01617C87.3076 3.54974 85.2472 1.55239 82.7056 1.55239ZM76.6374 6.01617C76.6374 2.75815 79.3584 0.126343 82.7056 0.126343C86.0529 0.126343 88.7738 2.75815 88.7738 6.01617C88.7738 9.26386 86.0529 11.9008 82.7056 11.9008C79.3584 11.9008 76.6374 9.26386 76.6374 6.01617Z" fill="#E37F49"/>
<path d="M78.8373 10.4578L82.7011 10.9331L86.5702 10.4578L84.633 14.2289L82.7011 18.1268L80.7692 14.3557L78.8373 10.4578Z" fill="#E37F49"/>
<path d="M83.4457 3.37614H83.451H83.4563H83.4617V3.3813H83.467H83.4723L83.4776 3.38647L83.483 3.39164H83.4883H83.4936V3.3968H83.4989V3.40197L83.5043 3.40714L83.5096 3.4123L83.5149 3.41747V3.42264V3.4278V3.43297H83.5202V3.43814V3.4433V3.44847H83.5256V3.45364V3.4588V3.46397V5.22057H85.3412H85.3465L85.3518 5.22573H85.3572H85.3625H85.3678V5.2309H85.3731H85.3785V5.23607H85.3838H85.3891V5.24123H85.3944V5.2464H85.3998L85.4051 5.25157L85.4104 5.25673V5.2619H85.4157V5.26707L85.4211 5.27223V5.2774V5.28256L85.4264 5.28773V5.2929V5.29806V5.30323V5.3084V5.31356V6.71884V6.72401V6.72918V6.73434V6.73951V6.74467L85.4211 6.74984V6.75501V6.76017L85.4157 6.76534V6.77051H85.4104V6.77567L85.4051 6.78084L85.3998 6.78601H85.3944V6.79117H85.3891V6.79634H85.3838H85.3785V6.80151H85.3731H85.3678V6.80667H85.3625H85.3572H85.3518L85.3465 6.81184H85.3412H83.5256V8.56844V8.5736V8.57877V8.58394H83.5202V8.5891V8.59427V8.59944H83.5149V8.6046V8.60977V8.61494H83.5096V8.6201L83.5043 8.62527L83.4989 8.63044V8.6356H83.4936H83.4883V8.64077H83.483L83.4776 8.64593L83.4723 8.6511H83.467H83.4617V8.65627H83.4563H83.451H83.4457H83.4404H83.435H81.9815H81.9761H81.9708H81.9655H81.9602H81.9548V8.6511H81.9495H81.9442L81.9389 8.64593L81.9335 8.64077H81.9282V8.6356H81.9229H81.9176V8.63044L81.9122 8.62527L81.9069 8.6201V8.61494H81.9016V8.60977V8.6046L81.8963 8.59944V8.59427V8.5891V8.58394H81.891V8.57877V8.5736V8.56844V6.81184H80.0753H80.07H80.0647V6.80667H80.0593H80.054H80.0487H80.0434V6.80151H80.038L80.0327 6.79634H80.0274L80.0221 6.79117L80.0167 6.78601H80.0114V6.78084H80.0061V6.77567L80.0008 6.77051L79.9955 6.76534V6.76017H79.9901V6.75501V6.74984V6.74467V6.73951V6.73434L79.9848 6.72918V6.72401V6.71884V5.31356V5.3084V5.30323L79.9901 5.29806V5.2929V5.28773V5.28256V5.2774V5.27223H79.9955V5.26707L80.0008 5.2619L80.0061 5.25673V5.25157H80.0114V5.2464H80.0167L80.0221 5.24123L80.0274 5.23607H80.0327L80.038 5.2309H80.0434V5.22573H80.0487H80.054H80.0593H80.0647V5.22057H80.07H80.0753H81.891V3.46397V3.4588V3.45364V3.44847L81.8963 3.4433V3.43814V3.43297L81.9016 3.4278V3.42264V3.41747L81.9069 3.4123L81.9122 3.40714L81.9176 3.40197V3.3968H81.9229V3.39164H81.9282H81.9335L81.9389 3.38647L81.9442 3.3813H81.9495H81.9548V3.37614H81.9602H81.9655H81.9708H81.9761H81.9815V3.37097H83.435V3.37614H83.4404H83.4457Z" fill="#262834"/>
</g>
<defs>
<clipPath id="clip0">
<rect width="13.5643" height="18" fill="white" transform="translate(75.7316)"/>
</clipPath>
</defs>
</svg>
