<svg width="70" height="54" viewBox="0 0 70 54" fill="none" xmlns="http://www.w3.org/2000/svg">
<path d="M70 1.93094V52.069C70 52.8465 69.369 53.4775 68.5915 53.4775H1.40848C0.630957 53.4775 0 52.8465 0 52.069V1.93094C0 1.15342 0.630957 0.522461 1.40848 0.522461H68.5915C69.369 0.522461 70 1.15342 70 1.93094V1.93094Z" fill="#DEDEE0"/>
<path opacity="0.5" d="M70.0001 1.93104V52.0691C70.0001 52.8466 69.3691 53.4776 68.5916 53.4776H51.7212C67.3043 39.9889 66.9578 8.62548 66.5902 0.522705H68.5916C69.3691 0.522568 70.0001 1.15353 70.0001 1.93104V1.93104Z" fill="#A1AAAF"/>
<path d="M70 1.93094V9.40002H0V1.93094C0 1.15342 0.630957 0.522461 1.40848 0.522461H68.5915C69.369 0.522461 70 1.15342 70 1.93094Z" fill="#ED6666"/>
<path d="M69.9996 1.93104V9.40013H66.6433C66.7588 5.53249 66.6757 2.40149 66.5898 0.522705H68.5913C69.3687 0.522568 69.9996 1.15353 69.9996 1.93104Z" fill="#D13333"/>
<path d="M5.64002 6.01797H5.62416C5.04078 6.01797 4.56787 5.54506 4.56787 4.96168C4.56787 4.37831 5.04078 3.9054 5.62416 3.9054H5.64002C6.2234 3.9054 6.69631 4.37831 6.69631 4.96168C6.69631 5.54493 6.2234 6.01797 5.64002 6.01797Z" fill="#D13333"/>
<path d="M8.82947 6.01797H8.81361C8.23023 6.01797 7.75732 5.54506 7.75732 4.96168C7.75732 4.37831 8.23023 3.9054 8.81361 3.9054H8.82947C9.41285 3.9054 9.88576 4.37831 9.88576 4.96168C9.88576 5.54493 9.41285 6.01797 8.82947 6.01797Z" fill="#D13333"/>
<path d="M12.0179 6.01797H12.0021C11.4187 6.01797 10.9458 5.54506 10.9458 4.96168C10.9458 4.37831 11.4187 3.9054 12.0021 3.9054H12.0179C12.6013 3.9054 13.0742 4.37831 13.0742 4.96168C13.0744 5.54493 12.6015 6.01797 12.0179 6.01797Z" fill="#D13333"/>
<path d="M64.3759 6.01797H62.4103C61.8269 6.01797 61.354 5.54506 61.354 4.96168C61.354 4.37831 61.8269 3.9054 62.4103 3.9054H64.3759C64.9593 3.9054 65.4322 4.37831 65.4322 4.96168C65.4322 5.54493 64.9593 6.01797 64.3759 6.01797Z" fill="#D13333"/>
<path d="M45.223 24.8163C45.223 27.2317 44.3858 29.4515 42.9853 31.1997C41.1118 33.5397 38.2313 35.0388 35.0006 35.0388C31.77 35.0388 28.8895 33.5398 27.016 31.1997C25.6153 29.4515 24.7783 27.2316 24.7783 24.8163C24.7783 19.1703 29.3547 14.5939 35.0008 14.5939C40.6469 14.5939 45.223 19.1703 45.223 24.8163V24.8163Z" fill="#ED6666"/>
<path d="M45.2235 24.8163C45.2235 27.2317 44.3864 29.4515 42.9858 31.1997C41.1124 33.5396 38.2319 35.0388 35.0012 35.0388C32.9361 35.0388 31.0127 34.4267 29.4062 33.3711C30.2752 33.6126 31.1915 33.7417 32.1372 33.7417C35.3679 33.7417 38.2484 32.2427 40.1219 29.9028C41.5225 28.1546 42.3595 25.9346 42.3595 23.5194C42.3595 19.9386 40.5193 16.7883 37.732 14.9634C42.0516 16.1568 45.2235 20.1159 45.2235 24.8163V24.8163Z" fill="#D13333"/>
<path d="M38.7304 39.631H31.2706C30.6873 39.631 30.2144 39.1581 30.2144 38.5747C30.2144 37.9913 30.6873 37.5184 31.2706 37.5184H38.7304C39.3138 37.5184 39.7867 37.9913 39.7867 38.5747C39.7867 39.1581 39.3138 39.631 38.7304 39.631Z" fill="#D13333"/>
<path d="M44.1241 46.7881H17.7223C17.1389 46.7881 16.666 46.3152 16.666 45.7318C16.666 45.1484 17.1389 44.6755 17.7223 44.6755H44.1242C44.7076 44.6755 45.1805 45.1484 45.1805 45.7318C45.1805 46.3152 44.7074 46.7881 44.1241 46.7881Z" fill="#A1AAAF"/>
<path d="M52.2809 46.7881H48.4098C47.8264 46.7881 47.3535 46.3152 47.3535 45.7318C47.3535 45.1484 47.8264 44.6755 48.4098 44.6755H52.2809C52.8642 44.6755 53.3372 45.1484 53.3372 45.7318C53.3373 46.3152 52.8642 46.7881 52.2809 46.7881Z" fill="#A1AAAF"/>
<path d="M26.1527 50.0048H17.7194C17.136 50.0048 16.6631 49.5319 16.6631 48.9485C16.6631 48.3651 17.136 47.8922 17.7194 47.8922H26.1527C26.7361 47.8922 27.209 48.3651 27.209 48.9485C27.2092 49.5317 26.7361 50.0048 26.1527 50.0048Z" fill="#A1AAAF"/>
<path d="M52.2811 50.0048H30.1598C29.5764 50.0048 29.1035 49.5319 29.1035 48.9485C29.1035 48.3651 29.5764 47.8922 30.1598 47.8922H52.2811C52.8645 47.8922 53.3374 48.3651 53.3374 48.9485C53.3375 49.5317 52.8645 50.0048 52.2811 50.0048Z" fill="#A1AAAF"/>
<path d="M36.4936 24.8162L38.9154 22.3943C39.328 21.9819 39.328 21.313 38.9154 20.9004C38.5029 20.4879 37.8341 20.4879 37.4215 20.9004L34.9997 23.3224L32.5778 20.9006C32.1653 20.4881 31.4965 20.4881 31.0839 20.9006C30.6713 21.313 30.6713 21.9819 31.0839 22.3945L33.5057 24.8163L31.0839 27.2381C30.6713 27.6506 30.6713 28.3195 31.0839 28.7321C31.2902 28.9384 31.5605 29.0415 31.8308 29.0415C32.1011 29.0415 32.3715 28.9382 32.5777 28.7321L34.9997 26.3101L37.4215 28.7319C37.6278 28.9382 37.8981 29.0413 38.1684 29.0413C38.4387 29.0413 38.7091 28.9381 38.9153 28.7319C39.3279 28.3194 39.3279 27.6506 38.9153 27.238L36.4936 24.8162Z" fill="#E8E6ED"/>
</svg>
